<svg width="40" height="40" viewBox="0 0 40 40" fill="none" xmlns="http://www.w3.org/2000/svg">
<path d="M5 8.33333V34.6548C5 35.3972 5.89762 35.769 6.42258 35.244L12.8452 28.8215C13.1577 28.509 13.5817 28.3333 14.0237 28.3333H31.6667C33.5077 28.3333 35 26.841 35 25V8.33333C35 6.49238 33.5077 5 31.6667 5H8.33333C6.49238 5 5 6.49238 5 8.33333Z" stroke="#65FF00" stroke-width="2" stroke-linecap="round" stroke-linejoin="round"/>
<path d="M25 20C23.6675 21.0373 21.917 21.6667 20 21.6667C18.083 21.6667 16.3325 21.0373 15 20" stroke="#65FF00" stroke-width="2" stroke-linecap="round" stroke-linejoin="round"/>
<path d="M15 13.3658V13.3333" stroke="#65FF00" stroke-width="2" stroke-linecap="round" stroke-linejoin="round"/>
<path d="M25 13.3658V13.3333" stroke="#65FF00" stroke-width="2" stroke-linecap="round" stroke-linejoin="round"/>
</svg>
