<svg width="40" height="40" viewBox="0 0 40 40" fill="none" xmlns="http://www.w3.org/2000/svg">
<path d="M26.7562 0H14.2031C9.67984 0 6 3.67984 6 8.20312V31.7969C6 36.3202 9.67984 40 14.2031 40H26.7562C31.2795 40 34.9594 36.3202 34.9594 31.7969V8.20312C34.9594 3.67984 31.2795 0 26.7562 0ZM32.6156 31.7969C32.6156 35.0277 29.9871 37.6562 26.7562 37.6562H14.2031C10.9723 37.6562 8.34375 35.0277 8.34375 31.7969V8.20312C8.34375 4.97227 10.9723 2.34375 14.2031 2.34375H26.7562C29.9871 2.34375 32.6156 4.97227 32.6156 8.20312V31.7969Z" fill="#65FF00"/>
<path d="M28.3818 24.1882C28.5148 24.0783 28.6218 23.9404 28.6952 23.7843C28.7686 23.6283 28.8065 23.4579 28.8063 23.2854C28.8063 22.6384 28.2817 22.1136 27.6344 22.1136H26.7086L21.986 16.2575L24.008 13.7499C24.4145 13.246 24.3355 12.5085 23.8316 12.1019C23.3278 11.6957 22.5899 11.7748 22.1837 12.2786L20.4805 14.3907L18.777 12.2786C18.3708 11.7747 17.6329 11.6957 17.1293 12.1019C16.6255 12.5084 16.5465 13.2461 16.9527 13.7499L18.9751 16.2575L14.2522 22.1136H13.3266C12.6793 22.1136 12.1547 22.6384 12.1547 23.2854C12.1547 23.6486 12.3198 23.9732 12.5792 24.1881L12.0665 24.8241C11.6601 25.3276 11.739 26.0655 12.2429 26.4718C12.4509 26.6401 12.7104 26.7318 12.978 26.7315C13.3202 26.7315 13.6593 26.5825 13.8908 26.2954L15.3731 24.4573H25.5879L27.0702 26.2954C27.18 26.4317 27.319 26.5417 27.477 26.6172C27.635 26.6927 27.8079 26.7317 27.9829 26.7315C28.2415 26.7315 28.5015 26.6466 28.7178 26.4718C29.2217 26.0655 29.3007 25.3276 28.8945 24.8241L28.3818 24.1882ZM17.2631 22.1136L20.4805 18.1243L23.6979 22.1136H17.2631Z" fill="#65FF00"/>
</svg>
