<svg width="40" height="40" viewBox="0 0 40 40" fill="none" xmlns="http://www.w3.org/2000/svg">
<g clip-path="url(#clip0_532_696)">
<path d="M20 3.75C17.2431 3.75 15 5.99313 15 8.75C15 11.5069 17.2431 13.75 20 13.75C22.7569 13.75 25 11.5069 25 8.75C25 5.99313 22.7569 3.75 20 3.75ZM20 12.5C17.9319 12.5 16.25 10.8181 16.25 8.75C16.25 6.68187 17.9319 5 20 5C22.0681 5 23.75 6.68187 23.75 8.75C23.75 10.8181 22.0681 12.5 20 12.5Z" fill="#65FF00"/>
<path d="M20 6.25C18.6212 6.25 17.5 7.37125 17.5 8.75C17.5 10.1288 18.6212 11.25 20 11.25C21.3788 11.25 22.5 10.1288 22.5 8.75C22.5 7.37125 21.3788 6.25 20 6.25ZM20 10C19.3106 10 18.75 9.43938 18.75 8.75C18.75 8.06062 19.3106 7.5 20 7.5C20.6894 7.5 21.25 8.06062 21.25 8.75C21.25 9.43938 20.6894 10 20 10Z" fill="#65FF00"/>
<path d="M26.8608 11.7644C26.9039 11.6662 26.9452 11.5681 26.9833 11.47L28.1245 11.0675V6.43313L26.9833 6.03C26.9443 5.93111 26.9035 5.83297 26.8608 5.73563L27.3833 4.64312L24.107 1.36562L23.0139 1.88812C22.9167 1.8451 22.8186 1.80426 22.7195 1.76563L22.317 0.625H17.682L17.2795 1.76625C17.1808 1.805 17.0827 1.84563 16.9852 1.88875L15.892 1.36625L12.6164 4.64375L13.1389 5.73625C13.0958 5.83438 13.0545 5.9325 13.0164 6.03063L11.8745 6.4325V8.125H8.74953C7.71578 8.125 6.87453 8.96625 6.87453 10V10.625H3.83203L7.49953 16.1269L11.167 10.625H8.12453V10C8.12453 9.65563 8.40453 9.375 8.74953 9.375H11.8745V11.0675L13.0158 11.4706C13.0545 11.5688 13.0952 11.6669 13.1383 11.765L12.6158 12.8575L15.892 16.135L16.9852 15.6125C17.082 15.6556 17.1808 15.6963 17.2795 15.735L17.682 16.875H22.317L22.7195 15.7337C22.8183 15.695 22.9164 15.6544 23.0139 15.6113L24.107 16.1337L27.3833 12.8562L26.8608 11.7644ZM7.49953 13.8731L6.16703 11.875H8.83203L7.49953 13.8731ZM25.9064 10.7763C25.8252 11.0138 25.7252 11.2544 25.6083 11.4925L25.4745 11.7644L25.8739 12.5981L23.8477 14.6244L23.0133 14.2256L22.7408 14.3594C22.5086 14.4739 22.2694 14.5735 22.0245 14.6575L21.7383 14.7556L21.432 15.625H18.567L18.2602 14.755L17.9739 14.6569C17.7291 14.5728 17.4898 14.4733 17.2577 14.3588L16.9852 14.225L16.1508 14.6238L14.1245 12.5975L14.5239 11.7638L14.3902 11.4919C14.2758 11.2596 14.1762 11.0204 14.092 10.7756L13.9945 10.4894L13.1245 10.1825V7.31687L13.9952 7.01L14.0927 6.72375C14.1739 6.48625 14.2739 6.24563 14.3908 6.0075L14.5245 5.73563L14.1252 4.90187L16.1514 2.87562L16.9858 3.27437L17.2583 3.14063C17.4905 3.02613 17.7297 2.92655 17.9745 2.8425L18.2608 2.74437L18.567 1.875H21.432L21.7389 2.745L22.0252 2.84312C22.2658 2.92562 22.507 3.02563 22.7414 3.14125L23.0139 3.275L23.8483 2.87625L25.8745 4.9025L25.4752 5.73625L25.6089 6.00812C25.7258 6.24625 25.8258 6.48687 25.907 6.72437L26.0045 7.01063L26.8745 7.3175V10.1831L26.0039 10.49L25.9064 10.7763Z" fill="#65FF00"/>
<path d="M36.875 16.8749V9.99991C36.875 8.96616 36.0338 8.12491 35 8.12491H34.375V5.08179L28.8731 8.74991L34.375 12.418V9.37491H35C35.345 9.37491 35.625 9.65554 35.625 9.99991V16.8749H28.125C26.7462 16.8749 25.625 17.9962 25.625 19.3749V36.8749C25.625 38.2537 26.7462 39.3749 28.125 39.3749H36.875C38.2538 39.3749 39.375 38.2537 39.375 36.8749V19.3749C39.375 17.9962 38.2538 16.8749 36.875 16.8749ZM33.125 10.0818L31.1269 8.74991L33.125 7.41804V10.0818ZM28.125 18.1249H36.875C37.5644 18.1249 38.125 18.6855 38.125 19.3749V21.8749H26.875V19.3749C26.875 18.6855 27.4356 18.1249 28.125 18.1249ZM30.625 33.1249H29.375V29.3749H30.625V33.1249ZM33.125 33.1249H31.875V25.6249H33.125V33.1249ZM34.375 26.8749H35.625V33.1249H34.375V26.8749ZM34.375 25.6249V24.3749H30.625V28.1249H28.125V33.1249H26.875V23.1249H38.125V33.1249H36.875V25.6249H34.375ZM36.875 38.1249H28.125C27.4356 38.1249 26.875 37.5643 26.875 36.8749V34.3749H38.125V36.8749C38.125 37.5643 37.5644 38.1249 36.875 38.1249Z" fill="#65FF00"/>
<path d="M29.375 35.625H35.625V36.875H29.375V35.625ZM30.625 19.375H34.375V20.625H30.625V19.375ZM11.875 16.875H3.125C1.74625 16.875 0.625 17.9962 0.625 19.375V36.875C0.625 38.2538 1.74625 39.375 3.125 39.375H11.875C13.2538 39.375 14.375 38.2538 14.375 36.875V19.375C14.375 17.9962 13.2538 16.875 11.875 16.875ZM3.125 18.125H11.875C12.5644 18.125 13.125 18.6856 13.125 19.375V21.875H1.875V19.375C1.875 18.6856 2.43562 18.125 3.125 18.125ZM5.625 33.125H4.375V25.625H5.625V33.125ZM6.875 29.375H8.125V33.125H6.875V29.375ZM10.625 33.125H9.375V26.875H10.625V33.125ZM8.125 25.625V28.125H6.875V24.375H3.125V33.125H1.875V23.125H13.125V33.125H11.875V25.625H8.125ZM11.875 38.125H3.125C2.43562 38.125 1.875 37.5644 1.875 36.875V34.375H13.125V36.875C13.125 37.5644 12.5644 38.125 11.875 38.125Z" fill="#65FF00"/>
<path d="M4.375 35.625H10.625V36.875H4.375V35.625ZM5.625 19.375H9.375V20.625H5.625V19.375Z" fill="#65FF00"/>
</g>
<defs>
<clipPath id="clip0_532_696">
<rect width="40" height="40" fill="white"/>
</clipPath>
</defs>
</svg>
