<svg width="40" height="40" viewBox="0 0 40 40" fill="none" xmlns="http://www.w3.org/2000/svg">
<path d="M28.443 0H11.5609C9.85391 0 8.46484 1.3875 8.46484 3.09375V36.9039C8.46484 38.6109 9.85391 40 11.5609 40H28.4422C30.1477 40 31.5359 38.6109 31.5359 36.9039V3.09375C31.5367 1.38828 30.1484 0 28.443 0ZM30.2875 36.9039C30.2875 37.9227 29.4602 38.7508 28.443 38.7508H11.5609C10.5422 38.7508 9.71406 37.9227 9.71406 36.9039V3.09375C9.71406 2.07656 10.5422 1.24922 11.5609 1.24922H28.4422C29.4594 1.24922 30.2867 2.07656 30.2867 3.09375V36.9039H30.2875ZM13.7797 4.04844C13.7797 3.70312 14.0594 3.42422 14.4039 3.42422H25.5961C25.9414 3.42422 26.2203 3.70391 26.2203 4.04844C26.2203 4.39297 25.9406 4.67266 25.5961 4.67266H14.4047C14.0594 4.67266 13.7797 4.39375 13.7797 4.04844ZM21.6062 35.9492C21.6062 36.2945 21.3266 36.5734 20.982 36.5734H19.0203C18.675 36.5734 18.3961 36.2937 18.3961 35.9492C18.3961 35.6047 18.6758 35.325 19.0203 35.325H20.982C21.3266 35.325 21.6062 35.6047 21.6062 35.9492ZM26.9414 19.0125L21.75 16.7188V13.9273C21.75 12.9641 20.9648 12.1797 20.0008 12.1797C19.0375 12.1797 18.2531 12.9633 18.2531 13.9273V16.7188L13.0641 19.0117C12.282 19.3547 11.7953 20.0992 11.7953 20.9547V22.6219C11.7954 22.7178 11.8175 22.8124 11.8599 22.8984C11.9023 22.9844 11.9638 23.0595 12.0398 23.118C12.116 23.1762 12.2045 23.2161 12.2985 23.2347C12.3925 23.2532 12.4895 23.2499 12.582 23.225L18.2523 21.693V23.7555L17.082 24.4102C16.5055 24.7352 16.0711 25.4344 16.0711 26.0375V27.1961C16.0711 27.418 16.1891 27.6227 16.3805 27.7352C16.4744 27.7904 16.5812 27.82 16.6902 27.8211C16.7992 27.8222 16.9065 27.7947 17.0016 27.7414L20.0008 26.0578L23.0016 27.7398C23.0966 27.7932 23.204 27.8207 23.3129 27.8196C23.4219 27.8185 23.5287 27.7889 23.6227 27.7336C23.7167 27.6785 23.7947 27.5998 23.8488 27.5052C23.903 27.4106 23.9314 27.3035 23.9313 27.1945V26.0359C23.9313 25.432 23.4953 24.7328 22.9164 24.4078L21.75 23.7539V21.6914L27.418 23.2234C27.6055 23.2742 27.8063 23.2344 27.9609 23.1164C28.1156 22.9984 28.2055 22.8148 28.2055 22.6203V20.9531C28.2055 20.0984 27.7203 19.3539 26.9414 19.0125ZM26.957 21.8062L21.2891 20.2742C21.1016 20.2234 20.9008 20.2633 20.7461 20.3813C20.5914 20.4992 20.5016 20.6828 20.5016 20.8773V24.1219C20.5016 24.3477 20.6234 24.5563 20.8211 24.6664L22.307 25.4992C22.5148 25.6156 22.6836 25.9086 22.6836 26.0375V26.1297L20.307 24.7977C20.2125 24.7445 20.107 24.718 20.0016 24.718C19.8961 24.718 19.7906 24.7445 19.6961 24.7977L17.3219 26.1297V26.0383C17.3219 25.9094 17.4898 25.6164 17.6953 25.5L19.1836 24.6672C19.2806 24.613 19.3614 24.5339 19.4176 24.438C19.4738 24.3421 19.5033 24.233 19.5031 24.1219V20.8773C19.503 20.7815 19.481 20.6869 19.4386 20.6009C19.3962 20.5148 19.3346 20.4397 19.2586 20.3813C19.1825 20.323 19.094 20.2831 19 20.2646C18.906 20.246 18.8089 20.2493 18.7164 20.2742L13.0461 21.8062V20.9547C13.0461 20.5977 13.2406 20.2992 13.5688 20.1555L19.132 17.6977C19.2427 17.6488 19.3368 17.5688 19.4028 17.4674C19.4688 17.366 19.504 17.2476 19.5039 17.1266V13.9289C19.5039 13.6539 19.7273 13.4305 20.0023 13.4305C20.2734 13.4305 20.5031 13.6586 20.5031 13.9289V17.1266C20.5031 17.3742 20.6492 17.5977 20.875 17.6977L26.4398 20.1562C26.7648 20.2984 26.9586 20.5969 26.9586 20.9547V21.8062H26.957Z" fill="#65FF00"/>
</svg>
