<svg width="40" height="40" viewBox="0 0 40 40" fill="none" xmlns="http://www.w3.org/2000/svg">
<path d="M20.625 5H16.875C16.7092 5 16.5503 4.93415 16.4331 4.81694C16.3158 4.69973 16.25 4.54076 16.25 4.375C16.25 4.20924 16.3158 4.05027 16.4331 3.93306C16.5503 3.81585 16.7092 3.75 16.875 3.75H20.625C20.7908 3.75 20.9497 3.81585 21.0669 3.93306C21.1842 4.05027 21.25 4.20924 21.25 4.375C21.25 4.54076 21.1842 4.69973 21.0669 4.81694C20.9497 4.93415 20.7908 5 20.625 5ZM25.625 38.75H11.875C11.0465 38.749 10.2522 38.4194 9.66639 37.8336C9.08055 37.2478 8.75099 36.4535 8.75 35.625V26.875C8.75 26.7092 8.81585 26.5503 8.93306 26.4331C9.05027 26.3158 9.20924 26.25 9.375 26.25C9.54076 26.25 9.69973 26.3158 9.81694 26.4331C9.93415 26.5503 10 26.7092 10 26.875V35.625C10 36.6588 10.8412 37.5 11.875 37.5H25.625C26.6588 37.5 27.5 36.6588 27.5 35.625V14.375C27.5 14.2092 27.5658 14.0503 27.6831 13.9331C27.8003 13.8158 27.9592 13.75 28.125 13.75C28.2908 13.75 28.4497 13.8158 28.5669 13.9331C28.6842 14.0503 28.75 14.2092 28.75 14.375V35.625C28.75 37.3475 27.3487 38.75 25.625 38.75Z" fill="#65FF00"/>
<path d="M28.1245 6.25C27.9587 6.25 27.7997 6.18415 27.6825 6.06694C27.5653 5.94973 27.4995 5.79076 27.4995 5.625V4.375C27.4995 3.34125 26.6582 2.5 25.6245 2.5H11.8745C10.8407 2.5 9.99947 3.34125 9.99947 4.375V5.625C9.99947 5.79076 9.93363 5.94973 9.81641 6.06694C9.6992 6.18415 9.54023 6.25 9.37447 6.25C9.20871 6.25 9.04974 6.18415 8.93253 6.06694C8.81532 5.94973 8.74947 5.79076 8.74947 5.625V4.375C8.74947 2.6525 10.1507 1.25 11.8745 1.25H25.6245C27.3482 1.25 28.7495 2.6525 28.7495 4.375V5.625C28.7495 5.79076 28.6836 5.94973 28.5664 6.06694C28.4492 6.18415 28.2902 6.25 28.1245 6.25ZM18.1245 31.25H13.1245C12.9587 31.25 12.7997 31.1842 12.6825 31.0669C12.5653 30.9497 12.4995 30.7908 12.4995 30.625C12.4995 30.4592 12.5653 30.3003 12.6825 30.1831C12.7997 30.0658 12.9587 30 13.1245 30H18.1245C18.2902 30 18.4492 30.0658 18.5664 30.1831C18.6836 30.3003 18.7495 30.4592 18.7495 30.625C18.7495 30.7908 18.6836 30.9497 18.5664 31.0669C18.4492 31.1842 18.2902 31.25 18.1245 31.25ZM21.8745 33.75H13.1245C12.9587 33.75 12.7997 33.6842 12.6825 33.5669C12.5653 33.4497 12.4995 33.2908 12.4995 33.125C12.4995 32.9592 12.5653 32.8003 12.6825 32.6831C12.7997 32.5658 12.9587 32.5 13.1245 32.5H21.8745C22.0402 32.5 22.1992 32.5658 22.3164 32.6831C22.4336 32.8003 22.4995 32.9592 22.4995 33.125C22.4995 33.2908 22.4336 33.4497 22.3164 33.5669C22.1992 33.6842 22.0402 33.75 21.8745 33.75ZM24.3745 28.75H13.1245C12.9587 28.75 12.7997 28.6842 12.6825 28.5669C12.5653 28.4497 12.4995 28.2908 12.4995 28.125C12.4995 27.9592 12.5653 27.8003 12.6825 27.6831C12.7997 27.5658 12.9587 27.5 13.1245 27.5H24.3745C24.5402 27.5 24.6992 27.5658 24.8164 27.6831C24.9336 27.8003 24.9995 27.9592 24.9995 28.125C24.9995 28.2908 24.9336 28.4497 24.8164 28.5669C24.6992 28.6842 24.5402 28.75 24.3745 28.75ZM11.2495 17.5C9.52572 17.5 8.12447 16.0975 8.12447 14.375C8.12447 12.6525 9.52572 11.25 11.2495 11.25C12.9732 11.25 14.3745 12.6525 14.3745 14.375C14.3745 16.0975 12.9732 17.5 11.2495 17.5ZM11.2495 12.5C10.2157 12.5 9.37447 13.3412 9.37447 14.375C9.37447 15.4088 10.2157 16.25 11.2495 16.25C12.2832 16.25 13.1245 15.4088 13.1245 14.375C13.1245 13.3412 12.2832 12.5 11.2495 12.5ZM11.2495 25C9.05226 24.9977 6.9368 24.1665 5.32572 22.6725C5.24365 22.5966 5.18342 22.5001 5.15133 22.3931C5.11923 22.286 5.11643 22.1723 5.14322 22.0637C5.37477 21.1169 5.91787 20.2754 6.68525 19.6745C7.45264 19.0735 8.39976 18.7479 9.37447 18.75H13.1245C14.0991 18.7482 15.046 19.0737 15.8135 19.6744C16.581 20.275 17.1245 21.116 17.357 22.0625C17.3838 22.171 17.381 22.2847 17.3489 22.3918C17.3168 22.4989 17.2565 22.5954 17.1745 22.6712C15.5633 24.166 13.4473 24.9977 11.2495 25ZM6.46572 22.0088C9.16822 24.26 13.3307 24.26 16.0332 22.0088C15.8108 21.4174 15.4131 20.9081 14.8932 20.5491C14.3734 20.1901 13.7562 19.9985 13.1245 20H9.37447C8.74271 19.9985 8.12557 20.1901 7.60572 20.5491C7.08587 20.9081 6.68811 21.4174 6.46572 22.0088Z" fill="#65FF00"/>
<path d="M11.25 25C6.42625 25 2.5 21.075 2.5 16.25C2.5 11.425 6.42625 7.5 11.25 7.5C16.0737 7.5 20 11.425 20 16.25C20 21.075 16.0737 25 11.25 25ZM11.25 8.75C7.11375 8.75 3.75 12.1137 3.75 16.25C3.75 20.3863 7.11375 23.75 11.25 23.75C15.3862 23.75 18.75 20.3863 18.75 16.25C18.75 12.1137 15.3862 8.75 11.25 8.75ZM5.625 28.6875C5.28 28.6875 5 28.47 5 28.125V28C5 27.8342 5.06585 27.6753 5.18306 27.5581C5.30027 27.4408 5.45924 27.375 5.625 27.375C5.79076 27.375 5.94973 27.4408 6.06694 27.5581C6.18415 27.6753 6.25 27.8342 6.25 28C6.25 28.345 5.97 28.6875 5.625 28.6875ZM5.625 31.1875C5.28 31.1875 5 30.97 5 30.625V30.5C5 30.3342 5.06585 30.1753 5.18306 30.0581C5.30027 29.9408 5.45924 29.875 5.625 29.875C5.79076 29.875 5.94973 29.9408 6.06694 30.0581C6.18415 30.1753 6.25 30.3342 6.25 30.5C6.25 30.845 5.97 31.1875 5.625 31.1875ZM5.625 33.6875C5.28 33.6875 5 33.47 5 33.125V33C5 32.8342 5.06585 32.6753 5.18306 32.5581C5.30027 32.4408 5.45924 32.375 5.625 32.375C5.79076 32.375 5.94973 32.4408 6.06694 32.5581C6.18415 32.6753 6.25 32.8342 6.25 33C6.25 33.345 5.97 33.6875 5.625 33.6875ZM30.425 33.75H29.375C29.2092 33.75 29.0503 33.6842 28.9331 33.5669C28.8158 33.4497 28.75 33.2908 28.75 33.125C28.75 32.9592 28.8158 32.8003 28.9331 32.6831C29.0503 32.5658 29.2092 32.5 29.375 32.5H29.9212L30.2275 31.0812C30.2521 30.9664 30.3087 30.8608 30.3908 30.7768C30.4728 30.6927 30.577 30.6336 30.6912 30.6063C31.2944 30.4584 31.8709 30.2176 32.4 29.8925C32.4998 29.8316 32.6146 29.7999 32.7315 29.801C32.8484 29.8021 32.9626 29.836 33.0612 29.8988L34.2987 30.69L35.065 29.9175L34.2737 28.69C34.2102 28.5913 34.1757 28.4767 34.1742 28.3594C34.1726 28.242 34.2041 28.1266 34.265 28.0262C34.5902 27.4973 34.8306 26.9208 34.9775 26.3175C35.005 26.2036 35.0638 26.0997 35.1473 26.0175C35.2308 25.9353 35.3357 25.8782 35.45 25.8525L36.8737 25.5363V24.465L35.45 24.1488C35.3357 24.1231 35.2308 24.0659 35.1473 23.9837C35.0638 23.9016 35.005 23.7976 34.9775 23.6838C34.8301 23.0807 34.5897 22.5042 34.265 21.975C34.2036 21.8751 34.1717 21.7599 34.1731 21.6427C34.1744 21.5254 34.2089 21.411 34.2725 21.3125L35.065 20.0738L34.3 19.3087L33.0612 20.1012C32.9627 20.1643 32.8485 20.1983 32.7315 20.1994C32.6146 20.2005 32.4997 20.1687 32.4 20.1075C31.8706 19.7829 31.2942 19.5421 30.6912 19.3938C30.577 19.3664 30.4728 19.3073 30.3908 19.2232C30.3087 19.1392 30.2521 19.0336 30.2275 18.9188L29.9212 17.5H29.375C29.2092 17.5 29.0503 17.4342 28.9331 17.3169C28.8158 17.1997 28.75 17.0408 28.75 16.875C28.75 16.7092 28.8158 16.5503 28.9331 16.4331C29.0503 16.3158 29.2092 16.25 29.375 16.25H30.425C30.5678 16.2502 30.7062 16.2994 30.8172 16.3892C30.9281 16.479 31.005 16.6042 31.035 16.7438L31.3687 18.285C31.8262 18.4238 32.275 18.6113 32.7075 18.845L34.05 17.9862C34.1701 17.9095 34.3127 17.8761 34.4543 17.8916C34.596 17.9071 34.7281 17.9704 34.8287 18.0712L36.305 19.5463C36.4056 19.6471 36.4688 19.7793 36.484 19.9209C36.4992 20.0625 36.4656 20.2051 36.3887 20.325L35.53 21.6675C35.7637 22.1012 35.9512 22.55 36.09 23.0087L37.6337 23.3512C37.7727 23.382 37.8969 23.4592 37.986 23.5701C38.0751 23.681 38.1237 23.819 38.1237 23.9613V26.0363C38.1237 26.1785 38.0751 26.3165 37.986 26.4274C37.8969 26.5383 37.7727 26.6155 37.6337 26.6462L36.09 26.9887C35.9489 27.4531 35.7613 27.9021 35.53 28.3288L36.3875 29.6587C36.4651 29.7782 36.4994 29.9208 36.4846 30.0625C36.4698 30.2042 36.4069 30.3366 36.3062 30.4375L34.83 31.925C34.7294 32.0263 34.5971 32.0901 34.4552 32.1058C34.3133 32.1215 34.1703 32.0881 34.05 32.0112L32.7075 31.1525C32.281 31.3834 31.8326 31.571 31.3687 31.7125L31.035 33.2538C31.0055 33.3938 30.9288 33.5195 30.8178 33.6098C30.7068 33.7002 30.5681 33.7496 30.425 33.75Z" fill="#65FF00"/>
<path d="M30.6912 28.46C30.5491 28.4598 30.4113 28.4112 30.3005 28.3221C30.1897 28.2331 30.1126 28.1089 30.0818 27.9701C30.0511 27.8313 30.0686 27.6862 30.1314 27.5587C30.1943 27.4312 30.2987 27.3289 30.4275 27.2688C30.8591 27.0668 31.2243 26.7462 31.4806 26.3445C31.7369 25.9428 31.8737 25.4765 31.875 25C31.8744 24.5878 31.772 24.182 31.5768 23.8189C31.3816 23.4558 31.0998 23.1465 30.7563 22.9185C30.4128 22.6906 30.0183 22.551 29.6079 22.5122C29.1975 22.4735 28.7839 22.5367 28.4037 22.6962C28.3276 22.7321 28.2451 22.7521 28.161 22.7553C28.077 22.7584 27.9931 22.7445 27.9146 22.7145C27.836 22.6845 27.7643 22.6389 27.7038 22.5805C27.6432 22.5221 27.5951 22.4521 27.5623 22.3746C27.5295 22.2972 27.5126 22.2139 27.5127 22.1298C27.5128 22.0457 27.5299 21.9625 27.563 21.8851C27.596 21.8078 27.6444 21.7379 27.7051 21.6797C27.7658 21.6214 27.8376 21.5761 27.9163 21.5462C28.4864 21.3069 29.1068 21.212 29.7224 21.27C30.338 21.328 30.9298 21.5372 31.4451 21.8789C31.9604 22.2206 32.3834 22.6843 32.6765 23.2288C32.9696 23.7732 33.1236 24.3817 33.125 25C33.1234 25.7144 32.9185 26.4137 32.5342 27.0159C32.15 27.6182 31.6022 28.0987 30.955 28.4013C30.8724 28.4399 30.7824 28.46 30.6912 28.46ZM32.5 12.5H25C23.6212 12.5 22.5 11.3788 22.5 10C22.5 8.62125 23.6212 7.5 25 7.5H32.5C33.8788 7.5 35 8.62125 35 10C35 11.3788 33.8788 12.5 32.5 12.5ZM25 8.75C24.6782 8.7644 24.3743 8.90238 24.1516 9.13523C23.9289 9.36807 23.8047 9.67783 23.8047 10C23.8047 10.3222 23.9289 10.6319 24.1516 10.8648C24.3743 11.0976 24.6782 11.2356 25 11.25H32.5C32.8218 11.2356 33.1257 11.0976 33.3484 10.8648C33.5711 10.6319 33.6953 10.3222 33.6953 10C33.6953 9.67783 33.5711 9.36807 33.3484 9.13523C33.1257 8.90238 32.8218 8.7644 32.5 8.75H25Z" fill="#65FF00"/>
</svg>
