<svg width="40" height="40" viewBox="0 0 40 40" fill="none" xmlns="http://www.w3.org/2000/svg">
<g clip-path="url(#clip0_532_196)">
<path d="M24.8535 35.7741L24.2122 36.4154C24.0308 36.5968 23.8155 36.7407 23.5785 36.8388C23.3416 36.937 23.0876 36.9875 22.8311 36.9875H17.1688C16.6508 36.9875 16.154 36.7817 15.7877 36.4154L15.1464 35.7741H1.17188C1.01647 35.7741 0.867439 35.8358 0.757555 35.9457C0.64767 36.0556 0.585938 36.2046 0.585938 36.36V37.4611C0.585938 38.5398 1.46039 39.4143 2.53906 39.4143H37.4609C38.5396 39.4143 39.4141 38.5398 39.4141 37.4611V36.36C39.4141 36.2046 39.3523 36.0556 39.2424 35.9457C39.1326 35.8358 38.9835 35.7741 38.8281 35.7741H24.8535ZM10.7666 35.7741H2.53906C1.46039 35.7741 0.585938 34.8997 0.585938 33.821V19.5266C0.585938 18.4479 1.46039 17.5735 2.53906 17.5735H10.7666C11.8452 17.5735 12.7197 18.4479 12.7197 19.5266V33.8211C12.7197 34.8997 11.8453 35.7741 10.7666 35.7741Z" stroke="#65FF00" stroke-miterlimit="10" stroke-linecap="round" stroke-linejoin="round"/>
<path d="M10.292 28.0851V20.3909C10.292 20.2873 10.2509 20.1879 10.1776 20.1147C10.1044 20.0414 10.005 20.0002 9.90141 20.0002H8.20727C8.02656 20.0002 7.87242 20.1249 7.82789 20.3001C7.69445 20.8252 7.21852 21.2136 6.65187 21.2136C6.08523 21.2136 5.6093 20.8252 5.47586 20.3001C5.43133 20.125 5.27719 20.0002 5.09648 20.0002H3.40234C3.29874 20.0002 3.19939 20.0414 3.12613 20.1147C3.05287 20.1879 3.01172 20.2873 3.01172 20.3909V32.9568C3.01172 33.0604 3.05287 33.1598 3.12613 33.233C3.19939 33.3063 3.29874 33.3474 3.40234 33.3474H9.90141C10.005 33.3474 10.1044 33.3063 10.1776 33.233C10.2509 33.1598 10.292 33.0604 10.292 32.9568V30.8195M37.46 27.2806H19.5255C18.4468 27.2806 17.5723 26.4061 17.5723 25.3274V12.2463C17.5723 11.1677 18.4468 10.2932 19.5255 10.2932H37.46C38.5387 10.2932 39.4131 11.1677 39.4131 12.2463V25.3274C39.4131 26.4061 38.5387 27.2806 37.46 27.2806Z" stroke="#65FF00" stroke-miterlimit="10" stroke-linecap="round" stroke-linejoin="round"/>
<path d="M29.5896 24.8538H19.9991V12.72H34.5596V24.8538H32.324M36.9864 35.7742V27.2806M17.5723 12.72H4.96484C3.88617 12.72 3.01172 13.5944 3.01172 14.6731V17.5735M12.7188 33.3475H34.5596V27.2806" stroke="#65FF00" stroke-miterlimit="10" stroke-linecap="round" stroke-linejoin="round"/>
<path d="M10.4878 15.1466H5.43945V17.5734M17.5732 15.1466H13.2222M36.9873 17.5734V20.0001M25.5383 18.7867L26.6996 19.9481L29.0223 17.6254M5.43945 26.6737L6.24836 27.4826L7.86625 25.8648M25.6638 10.2931C25.7263 10.1474 25.7831 9.99932 25.8341 9.84923C25.8713 9.74075 25.9498 9.65132 26.0525 9.60032L27.0374 9.10782C27.1104 9.07134 27.1718 9.01523 27.2147 8.94581C27.2576 8.87639 27.2803 8.79639 27.2803 8.71478V7.0179C27.2803 6.93629 27.2576 6.8563 27.2147 6.78688C27.1718 6.71746 27.1104 6.66135 27.0374 6.62485L26.0525 6.13243C25.9498 6.08141 25.8714 5.99198 25.8341 5.88353C25.7482 5.63059 25.6458 5.38356 25.5276 5.14399C25.477 5.04091 25.4692 4.92206 25.5057 4.81321L25.8541 3.76813C25.8799 3.69072 25.8836 3.60763 25.8649 3.5282C25.8461 3.44878 25.8056 3.37614 25.7479 3.31845L24.548 2.11853C24.4903 2.0608 24.4176 2.0203 24.3382 2.00154C24.2588 1.98279 24.1757 1.98653 24.0983 2.01235L23.0532 2.36071C22.9444 2.39731 22.8255 2.38945 22.7224 2.33884C22.4829 2.2206 22.2358 2.11819 21.9829 2.03228C21.8744 1.99509 21.785 1.91666 21.734 1.81399L21.2416 0.829072C21.2051 0.756085 21.149 0.694702 21.0795 0.651803C21.0101 0.608903 20.9301 0.586181 20.8485 0.586182H19.1516C19.07 0.586181 18.99 0.608903 18.9206 0.651803C18.8512 0.694702 18.7951 0.756085 18.7586 0.829072L18.2662 1.81399C18.2152 1.91668 18.1257 1.99511 18.0173 2.03228C17.7643 2.11823 17.5173 2.22063 17.2777 2.33884C17.1746 2.38937 17.0558 2.39723 16.947 2.36071L15.9019 2.01235C15.8245 1.98653 15.7414 1.98279 15.6619 2.00154C15.5825 2.0203 15.5099 2.0608 15.4522 2.11853L14.2523 3.31845C14.1945 3.37614 14.154 3.44878 14.1353 3.5282C14.1165 3.60763 14.1203 3.69072 14.1461 3.76813L14.4945 4.81321C14.531 4.92205 14.5232 5.04093 14.4726 5.14399C14.3543 5.38354 14.2519 5.63058 14.166 5.88353C14.1288 5.992 14.0504 6.08144 13.9477 6.13243L12.9627 6.62485C12.8897 6.66135 12.8284 6.71746 12.7855 6.78688C12.7426 6.8563 12.7198 6.93629 12.7198 7.0179V8.71478C12.7198 8.79638 12.7426 8.87638 12.7855 8.9458C12.8284 9.01522 12.8897 9.07132 12.9627 9.10782L13.9477 9.60032C14.0503 9.65134 14.1288 9.74077 14.166 9.84923C14.252 10.1022 14.3544 10.3492 14.4726 10.5888C14.5234 10.6917 14.5307 10.8106 14.4945 10.9195L14.1461 11.9646C14.1203 12.042 14.1165 12.1251 14.1353 12.2045C14.154 12.284 14.1945 12.3566 14.2523 12.4143L14.5578 12.7199" stroke="#65FF00" stroke-miterlimit="10" stroke-linecap="round" stroke-linejoin="round"/>
<path d="M20.4501 10.2929L22.8769 7.86606C23.3507 7.39224 23.3507 6.62396 22.8769 6.15005C22.403 5.67622 21.6347 5.67622 21.1609 6.15005L19.4449 7.86606L18.5869 7.0081C18.1131 6.53427 17.3448 6.53427 16.871 7.0081C16.3972 7.48192 16.3972 8.25021 16.871 8.72411L18.5843 10.4374L18.5869 10.44C18.6076 10.4608 18.629 10.4805 18.6507 10.4994" stroke="#65FF00" stroke-miterlimit="10" stroke-linecap="round" stroke-linejoin="round"/>
</g>
<defs>
<clipPath id="clip0_532_196">
<rect width="40" height="40" fill="white"/>
</clipPath>
</defs>
</svg>
