<svg width="40" height="40" viewBox="0 0 40 40" fill="none" xmlns="http://www.w3.org/2000/svg">
<path d="M6.28024 33.6754H3.50984C2.46992 33.6754 1.62695 32.8325 1.62695 31.7925V7.29012C1.62695 6.2502 2.46992 5.40723 3.50984 5.40723H36.8449C37.8848 5.40723 38.7278 6.2502 38.7278 7.29012V31.7925C38.7278 32.8325 37.8848 33.6754 36.8449 33.6754H20.9586M4.16953 9.93152H36.1852" stroke="#65FF00" stroke-miterlimit="10" stroke-linecap="round" stroke-linejoin="round"/>
<path d="M4.86426 7.54541C4.97155 7.54543 5.05859 7.63245 5.05859 7.73975C5.05857 7.84702 4.97153 7.93406 4.86426 7.93408C4.75696 7.93408 4.66994 7.84704 4.66992 7.73975C4.66992 7.63244 4.75695 7.54541 4.86426 7.54541Z" fill="#474747" stroke="#65FF00"/>
<path d="M7.61035 7.54541C7.71764 7.54543 7.80469 7.63245 7.80469 7.73975C7.80467 7.84702 7.71763 7.93406 7.61035 7.93408C7.50306 7.93408 7.41604 7.84704 7.41602 7.73975C7.41602 7.63244 7.50304 7.54541 7.61035 7.54541Z" fill="#474747" stroke="#65FF00"/>
<path d="M10.3564 7.54541C10.4637 7.54543 10.5508 7.63245 10.5508 7.73975C10.5508 7.84702 10.4637 7.93406 10.3564 7.93408C10.2492 7.93408 10.1621 7.84704 10.1621 7.73975C10.1621 7.63244 10.2491 7.54541 10.3564 7.54541Z" fill="#474747" stroke="#65FF00"/>
<path d="M4.68945 26.0591H6.33852L9.22094 34.5529H18.2761M7.67766 28.9465H20.244ZM8.59227 31.7711H19.2978Z" fill="black"/>
<path d="M4.68945 26.0591H6.33852L9.22094 34.5529H18.2761M7.67766 28.9465H20.244M8.59227 31.7711H19.2978" stroke="#65FF00" stroke-miterlimit="10" stroke-linecap="round" stroke-linejoin="round"/>
<path d="M11.633 38.3538C12.1864 38.3538 12.6351 37.9052 12.6351 37.3517C12.6351 36.7983 12.1864 36.3496 11.633 36.3496C11.0795 36.3496 10.6309 36.7983 10.6309 37.3517C10.6309 37.9052 11.0795 38.3538 11.633 38.3538Z" fill="black" stroke="#65FF00" stroke-miterlimit="10" stroke-linecap="round" stroke-linejoin="round"/>
<path d="M15.6349 38.3538C16.1884 38.3538 16.637 37.9052 16.637 37.3517C16.637 36.7983 16.1884 36.3496 15.6349 36.3496C15.0815 36.3496 14.6328 36.7983 14.6328 37.3517C14.6328 37.9052 15.0815 38.3538 15.6349 38.3538Z" fill="black" stroke="#65FF00" stroke-miterlimit="10" stroke-linecap="round" stroke-linejoin="round"/>
<path d="M4.86328 13.9341H19.2974V22.9252H4.86328V13.9341ZM23.2052 13.9341H24.7317ZM26.7973 13.9341H32.4886ZM34.5298 13.9341H36.1846ZM23.2052 18.3217H27.5605ZM32.8748 18.3217H36.1846ZM29.6949 18.3217H30.7417Z" fill="black"/>
<path d="M23.2052 13.9341H24.7317M26.7973 13.9341H32.4886M34.5298 13.9341H36.1846M23.2052 18.3217H27.5605M32.8748 18.3217H36.1846M29.6949 18.3217H30.7417M4.86328 13.9341H19.2974V22.9252H4.86328V13.9341Z" stroke="#65FF00" stroke-miterlimit="10" stroke-linecap="round" stroke-linejoin="round"/>
<path d="M29.0645 22.709H36.1844V24.9636H29.0645V22.709Z" stroke="#65FF00" stroke-miterlimit="10" stroke-linecap="round" stroke-linejoin="round"/>
</svg>
