<svg width="39" height="39" viewBox="0 0 39 39" fill="none" xmlns="http://www.w3.org/2000/svg">
<path d="M30 27.5H31.25V28.75H30V27.5ZM25 27.5H26.25V28.75H25V27.5ZM27.5 27.5H28.75V28.75H27.5V27.5ZM28.125 3.75C24.3344 3.75 21.25 6.83437 21.25 10.625C21.25 14.4156 24.3344 17.5 28.125 17.5C31.9156 17.5 35 14.4156 35 10.625C35 6.83437 31.9156 3.75 28.125 3.75ZM28.125 16.25C25.0238 16.25 22.5 13.7262 22.5 10.625C22.5 7.52375 25.0238 5 28.125 5C31.2262 5 33.75 7.52375 33.75 10.625C33.75 13.7262 31.2262 16.25 28.125 16.25Z" fill="#65FF00"/>
<path d="M38.75 12.9556V8.29375L37.0412 7.74625C36.8876 7.26715 36.6956 6.80126 36.4669 6.35312L37.2869 4.76L33.9906 1.46375L32.3975 2.28375C31.9494 2.05506 31.4835 1.86298 31.0044 1.70937L30.4556 0H25.7938L25.2463 1.70875C24.7638 1.86375 24.2969 2.05625 23.8531 2.28312L22.26 1.46313L18.9637 4.75937L19.73 6.25H3.125C1.40188 6.25 0 7.65188 0 9.375V28.125C0 29.8481 1.40188 31.25 3.125 31.25H11.2269C11.1748 31.7436 11.0202 32.2209 10.7731 32.6514C10.526 33.0819 10.1918 33.456 9.79187 33.75H8.125C7.09125 33.75 6.25 34.5912 6.25 35.625V36.875C6.25 37.9088 7.09125 38.75 8.125 38.75H26.875C27.9088 38.75 28.75 37.9088 28.75 36.875V35.625C28.75 34.5912 27.9088 33.75 26.875 33.75H25.2087C24.8088 33.456 24.4746 33.0819 24.2275 32.6514C23.9804 32.2209 23.8259 31.7436 23.7737 31.25H31.875C33.5981 31.25 35 29.8481 35 28.125V18.7762L37.2863 16.49L36.4663 14.8975C36.6931 14.4544 36.885 13.9875 37.0406 13.5044L38.75 12.9556ZM27.5 35.625V36.875C27.5 37.22 27.2194 37.5 26.875 37.5H8.125C7.78063 37.5 7.5 37.22 7.5 36.875V35.625C7.5 35.28 7.78063 35 8.125 35H26.875C27.2194 35 27.5 35.28 27.5 35.625ZM23.4556 33.75H11.5444C12.0847 33.0213 12.408 32.1546 12.4769 31.25H22.5237C22.5927 32.1545 22.9157 33.0211 23.4556 33.75ZM31.875 30H3.125C2.09125 30 1.25 29.1588 1.25 28.125V9.375C1.25 8.34125 2.09125 7.5 3.125 7.5H19.2994C19.27 7.5825 19.2363 7.6625 19.2094 7.74625L17.5 8.29437V8.75H3.75C3.06062 8.75 2.5 9.31062 2.5 10V25C2.5 25.6894 3.06062 26.25 3.75 26.25H31.25C31.9394 26.25 32.5 25.6894 32.5 25V19.02L33.75 19.6631V28.125C33.75 29.1588 32.9088 30 31.875 30ZM22.26 19.7863L23.8531 18.9663C24.2969 19.1931 24.7638 19.3856 25.2463 19.5406L25.7944 21.25H30.4562L31.0037 19.5412C31.0875 19.5144 31.1675 19.48 31.25 19.4513V25H3.75V10H17.5V12.9556L19.2087 13.5031C19.3644 13.9862 19.5562 14.4531 19.7831 14.8962L18.9631 16.4887L22.26 19.7863ZM36.0275 12.5156L35.9363 12.8387C35.7655 13.4473 35.5236 14.0337 35.2156 14.5856L35.0513 14.8787L35.7575 16.2506L33.7506 18.2575L32.3787 17.5519L32.0863 17.7156C31.5431 18.0194 30.955 18.2625 30.3387 18.4362L30.0156 18.5275L29.5444 20H26.7062L26.2344 18.5275L25.9113 18.4362C25.3026 18.265 24.7161 18.0232 24.1637 17.7156L23.8713 17.5519L22.4994 18.2575L20.4925 16.2506L21.1987 14.8787L21.0344 14.5856C20.7265 14.0336 20.4846 13.4473 20.3137 12.8387L20.2225 12.5156L18.75 12.0444V9.20625L20.2225 8.73438L20.3137 8.41125C20.4881 7.795 20.7306 7.20687 21.0344 6.66375L21.1981 6.37125L20.4925 4.99937L22.4994 2.9925L23.8713 3.69812L24.1637 3.53438C24.7069 3.23063 25.295 2.9875 25.9113 2.81375L26.2344 2.7225L26.7056 1.25H29.5438L30.0156 2.7225L30.3387 2.81375C30.955 2.98812 31.5431 3.23063 32.0863 3.53438L32.3787 3.69812L33.7506 2.9925L35.7575 4.99937L35.0519 6.37125L35.2156 6.66375C35.5194 7.20687 35.7625 7.795 35.9363 8.41125L36.0275 8.73438L37.5 9.20563V12.0438L36.0275 12.5156Z" fill="#65FF00"/>
<path d="M28.125 7.5C26.4019 7.5 25 8.90188 25 10.625C25 12.3481 26.4019 13.75 28.125 13.75C29.8481 13.75 31.25 12.3481 31.25 10.625C31.25 8.90188 29.8481 7.5 28.125 7.5ZM28.125 12.5C27.0912 12.5 26.25 11.6588 26.25 10.625C26.25 9.59125 27.0912 8.75 28.125 8.75C29.1588 8.75 30 9.59125 30 10.625C30 11.6588 29.1588 12.5 28.125 12.5ZM14.375 13.75H6.875C5.84125 13.75 5 14.5912 5 15.625V21.875C5 22.9088 5.84125 23.75 6.875 23.75H14.375C15.4088 23.75 16.25 22.9088 16.25 21.875V15.625C16.25 14.5912 15.4088 13.75 14.375 13.75ZM10 15H11.25V16.25H10V15ZM15 21.875C15 22.22 14.7194 22.5 14.375 22.5H6.875C6.53063 22.5 6.25 22.22 6.25 21.875V15.625C6.25 15.2806 6.53063 15 6.875 15H8.75V17.5H12.5V15H14.375C14.7194 15 15 15.2806 15 15.625V21.875ZM5 11.25H6.25V12.5H5V11.25ZM7.5 11.25H16.25V12.5H7.5V11.25ZM26.25 22.5H27.5V23.75H26.25V22.5ZM23.75 22.5H25V23.75H23.75V22.5ZM28.75 22.5H30V23.75H28.75V22.5Z" fill="#65FF00"/>
</svg>
