<svg width="36" height="36" viewBox="0 0 36 36" fill="none" xmlns="http://www.w3.org/2000/svg">
<path d="M27.9508 21.0625H20.6258C20.107 21.0625 19.6883 20.6437 19.6883 20.125C19.6883 19.6062 20.107 19.1875 20.6258 19.1875H27.8445C27.8695 19.1875 27.957 19.1875 27.982 19.1938C30.3445 19.1938 32.2945 17.2438 32.2945 14.85C32.2945 12.4563 30.3445 10.5062 27.9508 10.5062C27.8008 10.5062 27.6508 10.5188 27.507 10.5313C27.0508 10.5813 26.6383 10.2938 26.507 9.8625C25.9695 8.01875 24.257 6.725 22.3383 6.725C21.7008 6.725 21.082 6.8625 20.507 7.1375C20.2445 7.2625 19.9445 7.2625 19.682 7.13125C19.4258 7 19.2383 6.7625 19.182 6.475C18.6445 3.80625 16.2883 1.86875 13.5695 1.86875C10.4133 1.86875 7.84453 4.4375 7.84453 7.59375C7.84453 8.175 7.93203 8.75 8.10078 9.3125C8.18203 9.58125 8.13828 9.875 7.98203 10.1125C7.82578 10.35 7.56953 10.5 7.28828 10.525C5.06953 10.7188 3.33203 12.6188 3.33203 14.85C3.33203 17.2438 5.28203 19.1938 7.67578 19.1938H15.0008C15.5195 19.1938 15.9383 19.6125 15.9383 20.1312C15.9383 20.65 15.5195 21.0687 15.0008 21.0687H7.67578C4.24453 21.0687 1.45703 18.2812 1.45703 14.85C1.45703 12.0188 3.41328 9.5625 6.06953 8.84375C6.00078 8.43125 5.96953 8.0125 5.96953 7.6C5.96953 3.40625 9.38203 0 13.5695 0C16.8133 0 19.6695 2.075 20.732 5.0625C21.2508 4.91875 21.7883 4.85 22.3383 4.85C24.832 4.85 27.0883 6.375 28.057 8.63125C31.4383 8.6875 34.1695 11.4563 34.1695 14.85C34.1695 18.2438 31.382 21.0687 27.9508 21.0687V21.0625Z" fill="#65FF00"/>
<path d="M8.24922 26.7H4.44922C3.93047 26.7 3.51172 26.2813 3.51172 25.7625C3.51172 25.2438 3.93047 24.825 4.44922 24.825H8.24922C8.76797 24.825 9.18672 24.4063 9.18672 23.8875V20.125C9.18672 19.6063 9.60547 19.1875 10.1242 19.1875C10.643 19.1875 11.0617 19.6063 11.0617 20.125V23.8875C11.0617 25.4375 9.79922 26.7 8.24922 26.7Z" fill="#65FF00"/>
<path d="M2.69375 28.4563C1.97932 28.4563 1.29416 28.1725 0.788981 27.6674C0.283805 27.1622 0 26.477 0 25.7626C0 25.0482 0.283805 24.363 0.788981 23.8578C1.29416 23.3527 1.97932 23.0688 2.69375 23.0688C3.40818 23.0688 4.09334 23.3527 4.59852 23.8578C5.10369 24.363 5.3875 25.0482 5.3875 25.7626C5.3875 26.477 5.10369 27.1622 4.59852 27.6674C4.09334 28.1725 3.40818 28.4563 2.69375 28.4563ZM2.69375 24.9501C2.24375 24.9501 1.875 25.3188 1.875 25.7688C1.875 26.2188 2.24375 26.5876 2.69375 26.5876C3.14375 26.5876 3.5125 26.2188 3.5125 25.7688C3.5125 25.3188 3.14375 24.9501 2.69375 24.9501ZM12.0438 31.4938H9.50625C8.9875 31.4938 8.56875 31.0751 8.56875 30.5563C8.56875 30.0376 8.9875 29.6188 9.50625 29.6188H12.0438C12.5625 29.6188 12.9813 29.2001 12.9813 28.6813V20.1313C12.9813 19.6126 13.4 19.1938 13.9188 19.1938C14.4375 19.1938 14.8563 19.6126 14.8563 20.1313V28.6813C14.8563 30.2313 13.5938 31.4938 12.0438 31.4938Z" fill="#65FF00"/>
<path d="M7.74453 33.25C7.0301 33.25 6.34494 32.9662 5.83976 32.461C5.33459 31.9558 5.05078 31.2707 5.05078 30.5563C5.05078 29.8418 5.33459 29.1567 5.83976 28.6515C6.34494 28.1463 7.0301 27.8625 7.74453 27.8625C8.45896 27.8625 9.14412 28.1463 9.6493 28.6515C10.1545 29.1567 10.4383 29.8418 10.4383 30.5563C10.4383 31.2707 10.1545 31.9558 9.6493 32.461C9.14412 32.9662 8.45896 33.25 7.74453 33.25ZM7.74453 29.7375C7.29453 29.7375 6.92578 30.1063 6.92578 30.5563C6.92578 31.0063 7.29453 31.375 7.74453 31.375C8.19453 31.375 8.56328 31.0063 8.56328 30.5563C8.56328 30.1063 8.19453 29.7375 7.74453 29.7375ZM17.8133 35.6438C17.0989 35.6438 16.4137 35.3599 15.9085 34.8548C15.4033 34.3496 15.1195 33.6644 15.1195 32.95C15.1195 32.2356 15.4033 31.5504 15.9085 31.0452C16.4137 30.5401 17.0989 30.2563 17.8133 30.2563C18.5277 30.2563 19.2129 30.5401 19.7181 31.0452C20.2232 31.5504 20.507 32.2356 20.507 32.95C20.507 33.6644 20.2232 34.3496 19.7181 34.8548C19.2129 35.3599 18.5277 35.6438 17.8133 35.6438ZM17.8133 32.1313C17.3633 32.1313 16.9945 32.5 16.9945 32.95C16.9945 33.4 17.3633 33.7688 17.8133 33.7688C18.2633 33.7688 18.632 33.4 18.632 32.95C18.632 32.5 18.2633 32.1313 17.8133 32.1313ZM31.1758 26.7H27.3758C25.8258 26.7 24.5633 25.4375 24.5633 23.8875V20.125C24.5633 19.6063 24.982 19.1875 25.5008 19.1875C26.0195 19.1875 26.4383 19.6063 26.4383 20.125V23.8875C26.4383 24.4063 26.857 24.825 27.3758 24.825H31.1758C31.6945 24.825 32.1133 25.2438 32.1133 25.7625C32.1133 26.2813 31.6945 26.7 31.1758 26.7Z" fill="#65FF00"/>
<path d="M32.9316 28.4563C32.2172 28.4563 31.532 28.1725 31.0269 27.6674C30.5217 27.1622 30.2379 26.477 30.2379 25.7626C30.2379 25.0482 30.5217 24.363 31.0269 23.8578C31.532 23.3527 32.2172 23.0688 32.9316 23.0688C33.6461 23.0688 34.3312 23.3527 34.8364 23.8578C35.3416 24.363 35.6254 25.0482 35.6254 25.7626C35.6254 26.477 35.3416 27.1622 34.8364 27.6674C34.3312 28.1725 33.6461 28.4563 32.9316 28.4563ZM32.9316 24.9501C32.4816 24.9501 32.1129 25.3188 32.1129 25.7688C32.1129 26.2188 32.4816 26.5876 32.9316 26.5876C33.3816 26.5876 33.7504 26.2188 33.7504 25.7688C33.7504 25.3188 33.3816 24.9501 32.9316 24.9501ZM26.1254 31.4938H23.5879C22.0379 31.4938 20.7754 30.2313 20.7754 28.6813V20.1313C20.7754 19.6126 21.1941 19.1938 21.7129 19.1938C22.2316 19.1938 22.6504 19.6126 22.6504 20.1313V28.6813C22.6504 29.2001 23.0691 29.6188 23.5879 29.6188H26.1254C26.6441 29.6188 27.0629 30.0376 27.0629 30.5563C27.0629 31.0751 26.6441 31.4938 26.1254 31.4938Z" fill="#65FF00"/>
<path d="M27.8813 33.2499C27.1669 33.2499 26.4817 32.9661 25.9766 32.4609C25.4714 31.9557 25.1876 31.2706 25.1876 30.5562C25.1876 29.8417 25.4714 29.1566 25.9766 28.6514C26.4817 28.1462 27.1669 27.8624 27.8813 27.8624C28.5958 27.8624 29.2809 28.1462 29.7861 28.6514C30.2913 29.1566 30.5751 29.8417 30.5751 30.5562C30.5751 31.2706 30.2913 31.9557 29.7861 32.4609C29.2809 32.9661 28.5958 33.2499 27.8813 33.2499ZM27.8813 29.7374C27.4313 29.7374 27.0626 30.1062 27.0626 30.5562C27.0626 31.0062 27.4313 31.3749 27.8813 31.3749C28.3313 31.3749 28.7001 31.0062 28.7001 30.5562C28.7001 30.1062 28.3313 29.7374 27.8813 29.7374ZM17.8126 28.4562C17.2938 28.4562 16.8751 28.0374 16.8751 27.5187V20.1249C16.8751 19.6062 17.2938 19.1874 17.8126 19.1874C18.3313 19.1874 18.7501 19.6062 18.7501 20.1249V27.5187C18.7501 28.0374 18.3313 28.4562 17.8126 28.4562ZM15.1376 17.3312C14.8063 17.3312 14.4813 17.1562 14.3126 16.8437L11.9188 12.4499L9.52508 16.8437C9.27508 17.2999 8.70633 17.4687 8.25633 17.2187C7.80008 16.9687 7.63133 16.3999 7.88133 15.9499L11.1001 10.0437C11.2626 9.74365 11.5813 9.55615 11.9251 9.55615C12.2688 9.55615 12.5813 9.74365 12.7501 10.0437L15.9688 15.9499C16.2188 16.4062 16.0501 16.9749 15.5938 17.2187C15.4501 17.2937 15.3001 17.3312 15.1438 17.3312H15.1376Z" fill="#65FF00"/>
<path d="M14.0742 15.3873H9.76172C9.24297 15.3873 8.82422 14.9686 8.82422 14.4498C8.82422 13.9311 9.24297 13.5123 9.76172 13.5123H14.0742C14.593 13.5123 15.0117 13.9311 15.0117 14.4498C15.0117 14.9686 14.593 15.3873 14.0742 15.3873ZM17.9492 17.3311C17.4305 17.3311 17.0117 16.9123 17.0117 16.3936V10.4873C17.0117 9.96855 17.4305 9.5498 17.9492 9.5498C18.468 9.5498 18.8867 9.96855 18.8867 10.4873V16.3936C18.8867 16.9123 18.468 17.3311 17.9492 17.3311Z" fill="#65FF00"/>
<path d="M19.7492 14.5123H17.9492C17.4305 14.5123 17.0117 14.0936 17.0117 13.5748C17.0117 13.0561 17.4305 12.6373 17.9492 12.6373H19.7492C19.91 12.6373 20.0642 12.5734 20.1779 12.4597C20.2916 12.346 20.3555 12.1918 20.3555 12.0311C20.3555 11.8703 20.2916 11.7161 20.1779 11.6024C20.0642 11.4887 19.91 11.4248 19.7492 11.4248H17.9492C17.4305 11.4248 17.0117 11.0061 17.0117 10.4873C17.0117 9.96855 17.4305 9.5498 17.9492 9.5498H19.7492C21.118 9.5498 22.2305 10.6623 22.2305 12.0311C22.2305 13.3998 21.118 14.5123 19.7492 14.5123ZM24.3492 17.3311C23.8305 17.3311 23.4117 16.9123 23.4117 16.3936V10.4873C23.4117 9.96855 23.8305 9.5498 24.3492 9.5498C24.868 9.5498 25.2867 9.96855 25.2867 10.4873V16.3936C25.2867 16.9123 24.868 17.3311 24.3492 17.3311Z" fill="#65FF00"/>
</svg>
