<svg width="40" height="40" viewBox="0 0 40 40" fill="none" xmlns="http://www.w3.org/2000/svg">
<g clip-path="url(#clip0_532_200)">
<path d="M37.338 9.32568H26.9353C26.7584 9.32568 26.5888 9.39594 26.4638 9.52099C26.3387 9.64604 26.2685 9.81564 26.2685 9.99249C26.2685 10.1693 26.3387 10.3389 26.4638 10.464C26.5888 10.589 26.7584 10.6593 26.9353 10.6593H37.338C37.7056 10.6593 38.0048 10.9585 38.0048 11.3261V14.6603H27.3023C27.1254 14.6603 26.9558 14.7306 26.8308 14.8556C26.7057 14.9807 26.6354 15.1503 26.6354 15.3271C26.6354 15.504 26.7057 15.6736 26.8308 15.7986C26.9558 15.9237 27.1254 15.9939 27.3023 15.9939H38.0048V37.9995C38.0048 38.3671 37.7056 38.6663 37.338 38.6663H2.66261C2.29502 38.6663 1.9958 38.3671 1.9958 37.9995V15.9939H12.6983C12.8752 15.9939 13.0448 15.9237 13.1698 15.7986C13.2949 15.6736 13.3652 15.504 13.3652 15.3271C13.3652 15.1503 13.2949 14.9807 13.1698 14.8556C13.0448 14.7306 12.8752 14.6603 12.6983 14.6603H1.99573V11.3261C1.99573 10.9585 2.29494 10.6593 2.66254 10.6593H13.0653C13.2422 10.6593 13.4118 10.589 13.5368 10.464C13.6619 10.3389 13.7321 10.1693 13.7321 9.99249C13.7321 9.81564 13.6619 9.64604 13.5368 9.52099C13.4118 9.39594 13.2422 9.32568 13.0653 9.32568H2.66261C1.55944 9.32568 0.662109 10.223 0.662109 11.3262V37.9995C0.662109 39.1027 1.55944 40.0001 2.66261 40.0001H37.338C38.4412 40.0001 39.3385 39.1027 39.3385 37.9995V11.3262C39.3385 10.223 38.4412 9.32568 37.338 9.32568Z" fill="#65FF00"/>
<path d="M3.52349 12.1864C3.4033 12.313 3.33008 12.4797 3.33008 12.6598C3.33008 12.8398 3.4033 13.0066 3.52349 13.1332C3.65016 13.2529 3.81684 13.3266 3.99689 13.3266C4.17013 13.3266 4.34369 13.2529 4.47029 13.1332C4.59008 13.0065 4.6637 12.8329 4.6637 12.6598C4.6637 12.4862 4.59008 12.3129 4.47029 12.1864C4.21671 11.9396 3.76995 11.9396 3.52349 12.1864ZM6.1908 12.1864C6.07061 12.313 5.99739 12.4863 5.99739 12.6598C5.99739 12.833 6.07069 13.0066 6.1908 13.1332C6.31747 13.2529 6.49072 13.3266 6.6642 13.3266C6.83745 13.3266 7.011 13.2529 7.1376 13.1332C7.2574 13.0065 7.33101 12.8329 7.33101 12.6598C7.33101 12.4862 7.2574 12.3129 7.1376 12.1864C6.88402 11.9396 6.43735 11.9396 6.1908 12.1864ZM8.85819 12.1864C8.738 12.313 8.66478 12.4863 8.66478 12.6598C8.66478 12.8398 8.738 13.0066 8.85819 13.1264C8.98486 13.253 9.15154 13.3266 9.33159 13.3266C9.51164 13.3266 9.6784 13.253 9.80499 13.1332C9.92479 13.0066 9.9984 12.8399 9.9984 12.6598C9.9984 12.4863 9.92479 12.313 9.80499 12.1864C9.55821 11.9396 9.10466 11.9396 8.85819 12.1864ZM10.1261 22.9368C10.0598 23.028 10.0176 23.1346 10.0036 23.2466C9.9896 23.3585 10.0042 23.4722 10.046 23.577L11.3797 26.9112C11.4167 27.0035 11.474 27.0864 11.5472 27.1538C11.6205 27.2212 11.7079 27.2713 11.803 27.3005C11.8981 27.3298 11.9985 27.3375 12.097 27.3229C12.1954 27.3083 12.2893 27.2718 12.3718 27.2162L16.0951 24.7061C16.2792 25.2258 16.4764 25.7407 16.6864 26.2505C16.6868 26.2515 16.6877 26.2521 16.6881 26.253C16.7216 26.3338 16.7708 26.4071 16.8327 26.4689C16.8615 26.4975 16.8987 26.513 16.9319 26.5357C16.9696 26.5617 17.0031 26.5935 17.0459 26.6115C17.1266 26.6451 17.2132 26.6626 17.3006 26.6629C17.3015 26.6629 17.3022 26.6634 17.3031 26.6634H17.5884L16.7372 28.3656C16.6864 28.4673 16.6624 28.5802 16.6675 28.6938C16.6727 28.8073 16.7067 28.9177 16.7665 29.0144C16.8262 29.111 16.9097 29.1909 17.009 29.2462C17.1083 29.3016 17.22 29.3306 17.3337 29.3307H22.6684C22.782 29.3306 22.8938 29.3016 22.9931 29.2462C23.0924 29.1909 23.1758 29.111 23.2356 29.0144C23.2953 28.9177 23.3294 28.8073 23.3345 28.6938C23.3396 28.5802 23.3157 28.4673 23.2649 28.3656L22.4137 26.6634H22.5016C22.536 26.6634 22.5656 26.6488 22.5986 26.6437C22.6321 26.6489 22.6653 26.6637 22.6986 26.6637C22.8308 26.6636 22.9601 26.6244 23.0699 26.5508C23.1798 26.4772 23.2653 26.3727 23.3157 26.2504C23.5257 25.7407 23.7229 25.2257 23.9071 24.7061L27.6302 27.2162C27.7127 27.2718 27.8066 27.3082 27.905 27.3228C28.0035 27.3374 28.1039 27.3298 28.199 27.3005C28.2941 27.2712 28.3815 27.2211 28.4548 27.1537C28.528 27.0863 28.5852 27.0034 28.6223 26.9111L29.956 23.5769C29.9978 23.4721 30.0124 23.3584 29.9984 23.2465C29.9844 23.1345 29.9422 23.028 29.8759 22.9367L25.7897 17.3192C26.1325 14.6328 26.1111 11.5526 25.1761 8.39079C24.3051 5.44731 22.7308 2.69505 20.4968 0.210991C20.2435 -0.0703302 19.7584 -0.0703302 19.505 0.210991C17.2704 2.69599 15.6961 5.44833 14.8258 8.39079C13.8908 11.5526 13.8695 14.6329 14.2122 17.3192L10.1261 22.9368ZM18.4126 27.997L19.0794 26.6633H20.9223L21.5891 27.997H18.4126ZM25.4918 19.1769L28.5806 23.4236L27.6907 25.6484L24.3579 23.4016C24.7355 22.268 25.1663 20.8293 25.4918 19.1769ZM16.1048 8.76916C16.8527 6.24017 18.1619 3.85581 20.0009 1.6723C21.8393 3.85511 23.1485 6.23954 23.8971 8.76916C24.8056 11.841 24.8056 14.8042 24.4491 17.3882C24.4469 17.4004 24.4457 17.412 24.4441 17.4243C24.0422 20.3057 23.1978 22.7117 22.6565 24.2421C22.5274 24.6072 22.3914 24.9698 22.2485 25.3297H17.7533C17.6104 24.9697 17.4744 24.607 17.3453 24.2418C16.804 22.7116 15.9596 20.3057 15.5577 17.4243C15.5561 17.412 15.555 17.4005 15.5528 17.3883C15.1963 14.8042 15.1963 11.841 16.1048 8.76916ZM15.644 23.4015L12.3112 25.6484L11.4213 23.4236L14.5101 19.1769C14.8356 20.8292 15.2665 22.268 15.644 23.4015ZM19.3341 32.6648V34.6653C19.3341 34.8421 19.4044 35.0117 19.5294 35.1368C19.6545 35.2619 19.8241 35.3321 20.0009 35.3321C20.1778 35.3321 20.3474 35.2619 20.4724 35.1368C20.5975 35.0117 20.6677 34.8421 20.6677 34.6653V32.6648C20.6677 32.4879 20.5975 32.3183 20.4724 32.1933C20.3474 32.0682 20.1778 31.998 20.0009 31.998C19.8241 31.998 19.6545 32.0682 19.5294 32.1933C19.4044 32.3183 19.3341 32.4879 19.3341 32.6648ZM16.6668 31.3312V33.3317C16.6668 33.5085 16.737 33.6781 16.8621 33.8032C16.9872 33.9282 17.1568 33.9985 17.3336 33.9985C17.5105 33.9985 17.6801 33.9282 17.8051 33.8032C17.9302 33.6781 18.0004 33.5085 18.0004 33.3317V31.3312C18.0004 31.1543 17.9302 30.9847 17.8051 30.8597C17.6801 30.7346 17.5105 30.6644 17.3336 30.6644C17.1568 30.6644 16.9872 30.7346 16.8621 30.8597C16.737 30.9847 16.6668 31.1543 16.6668 31.3312ZM22.6683 30.6643C22.4915 30.6643 22.3219 30.7345 22.1968 30.8596C22.0718 30.9846 22.0015 31.1542 22.0015 31.3311V33.3316C22.0015 33.5084 22.0718 33.6781 22.1968 33.8031C22.3219 33.9282 22.4915 33.9984 22.6683 33.9984C22.8452 33.9984 23.0148 33.9282 23.1398 33.8031C23.2649 33.6781 23.3351 33.5084 23.3351 33.3316V31.3311C23.3351 31.1543 23.2648 30.9847 23.1398 30.8596C23.0147 30.7346 22.8452 30.6643 22.6683 30.6643Z" fill="#65FF00"/>
<path d="M20.0002 15.3271C21.8386 15.3271 23.3344 13.8312 23.3344 11.9929C23.3344 10.1545 21.8386 8.65869 20.0002 8.65869C18.1619 8.65869 16.666 10.1545 16.666 11.9929C16.6661 13.8312 18.1619 15.3271 20.0002 15.3271ZM20.0002 9.99239C21.1034 9.99239 22.0007 10.8897 22.0007 11.9929C22.0007 13.0961 21.1034 13.9934 20.0002 13.9934C18.897 13.9934 17.9997 13.0961 17.9997 11.9929C17.9997 10.8897 18.8971 9.99239 20.0002 9.99239Z" fill="#65FF00"/>
</g>
<defs>
<clipPath id="clip0_532_200">
<rect width="40" height="40" fill="white"/>
</clipPath>
</defs>
</svg>
