<svg width="43" height="42" viewBox="0 0 43 42" fill="none" xmlns="http://www.w3.org/2000/svg">
<g clip-path="url(#clip0_532_201)">
<mask id="mask0_532_201" style="mask-type:luminance" maskUnits="userSpaceOnUse" x="1" y="0" width="43" height="43">
<path d="M42.2754 41.2749V0.749512H1.75V41.2749H42.2754Z" fill="white" stroke="white" stroke-width="1.5"/>
</mask>
<g mask="url(#mask0_532_201)">
<path d="M2.94336 1.94951L11.2509 10.2571" stroke="#65FF00" stroke-width="1.5" stroke-miterlimit="10" stroke-linecap="round" stroke-linejoin="round"/>
</g>
<path d="M11.2505 6.15918V10.2632H7.14648" stroke="#65FF00" stroke-width="1.5" stroke-miterlimit="10" stroke-linecap="round" stroke-linejoin="round"/>
<mask id="mask1_532_201" style="mask-type:luminance" maskUnits="userSpaceOnUse" x="1" y="0" width="43" height="43">
<path d="M42.2754 41.2749V0.749512H1.75V41.2749H42.2754Z" fill="white" stroke="white" stroke-width="1.5"/>
</mask>
<g mask="url(#mask1_532_201)">
<path d="M39.3267 14.5249H27.8354C26.4755 14.5249 25.373 15.6274 25.373 16.9873V38.3281C25.373 39.688 26.4755 40.7905 27.8354 40.7905H39.3267C40.6866 40.7905 41.7891 39.688 41.7891 38.3281V16.9873C41.7891 15.6274 40.6866 14.5249 39.3267 14.5249Z" stroke="#65FF00" stroke-width="1.5" stroke-miterlimit="10" stroke-linecap="round" stroke-linejoin="round"/>
<path d="M25.3833 30.7768H17.9141V35.8657H25.3833V30.7768Z" stroke="#65FF00" stroke-width="1.5" stroke-miterlimit="10" stroke-linecap="round" stroke-linejoin="round"/>
<path d="M25.2886 35.8657H14.6182L12.9766 40.7905H27.751" stroke="#65FF00" stroke-width="1.5" stroke-miterlimit="10" stroke-linecap="round" stroke-linejoin="round"/>
<path d="M25.381 25.8521H2.23438V28.3145C2.23438 29.6744 3.33687 30.7769 4.69678 30.7769H25.381V25.8521Z" stroke="#65FF00" stroke-width="1.5" stroke-miterlimit="10" stroke-linecap="round" stroke-linejoin="round"/>
<path d="M41.797 16.8232V3.69043C41.797 2.33044 40.6945 1.22803 39.3346 1.22803H4.69678C3.33687 1.22803 2.23438 2.33044 2.23438 3.69043V25.8521H25.2989" stroke="#65FF00" stroke-width="1.5" stroke-miterlimit="10" stroke-linecap="round" stroke-linejoin="round"/>
<path d="M34.4165 19.4497V23.5537H30.3125" stroke="#65FF00" stroke-width="1.5" stroke-miterlimit="10" stroke-linecap="round" stroke-linejoin="round"/>
<path d="M26.1094 15.2461L34.4169 23.5537" stroke="#65FF00" stroke-width="1.5" stroke-miterlimit="10" stroke-linecap="round" stroke-linejoin="round"/>
</g>
</g>
<defs>
<clipPath id="clip0_532_201">
<rect width="43" height="42" fill="white"/>
</clipPath>
</defs>
</svg>
