<svg width="32" height="32" viewBox="0 0 32 32" fill="none" xmlns="http://www.w3.org/2000/svg">
<path d="M9.19936 32C8.41611 32 7.59815 31.9926 6.72972 31.9734C6.28074 31.9635 5.85398 31.7708 5.54334 31.4377C5.2327 31.1047 5.06362 30.6586 5.07329 30.1975C5.08296 29.7365 5.2706 29.2983 5.59492 28.9793C5.91924 28.6603 6.35368 28.4867 6.80267 28.4966C9.02068 28.5462 10.9215 28.5147 12.7597 28.4845C14.6292 28.4538 16.5621 28.4221 18.8438 28.4726L18.904 28.4751C18.9321 28.4777 22.5389 28.6006 24.2243 25.8785C24.8125 24.9284 25.0987 23.6628 25.0302 22.3151C25.0046 21.3259 24.737 20.3592 24.2521 19.5041C22.8532 17.1973 19.8262 16.92 19.3435 16.8902L11.7548 16.8336H11.7361C10.4267 16.8336 7.99095 16.8245 6.42556 14.8838C4.02815 11.9114 5.01625 8.98006 6.74049 7.22788C7.8064 6.14484 9.66678 5.57827 10.9537 5.57827H21.5748C22.0239 5.57827 22.4546 5.76146 22.7721 6.08755C23.0897 6.41363 23.2681 6.85589 23.2681 7.31704C23.2681 7.7782 23.0897 8.22046 22.7721 8.54654C22.4546 8.87263 22.0239 9.05582 21.5748 9.05582H10.9537C10.3369 9.05582 9.39926 9.41862 9.12247 9.69974C7.91407 10.9278 8.44027 11.9297 9.03372 12.6655C9.49958 13.243 10.3888 13.3561 11.7672 13.3561L19.4817 13.4151C20.3554 13.4605 24.8302 13.8786 27.1268 17.6657C27.9195 19.0183 28.362 20.5565 28.4124 22.1343C28.5171 24.197 28.0447 26.1893 27.0823 27.7441C24.4013 32.0739 19.2908 31.9737 18.7499 31.9488C16.541 31.9007 14.6464 31.9316 12.8138 31.9615C11.6559 31.9805 10.4736 32 9.19936 32Z" fill="#69FF00"/>
<path d="M21.7629 24.3253H6.76615C6.31707 24.3253 5.88637 24.1469 5.56882 23.8293C5.25127 23.5118 5.07288 23.0811 5.07288 22.632C5.07288 22.1829 5.25127 21.7522 5.56882 21.4347C5.88637 21.1171 6.31707 20.9387 6.76615 20.9387H21.7629C22.212 20.9387 22.6427 21.1171 22.9602 21.4347C23.2778 21.7522 23.4562 22.1829 23.4562 22.632C23.4562 23.0811 23.2778 23.5118 22.9602 23.8293C22.6427 24.1469 22.212 24.3253 21.7629 24.3253Z" fill="white"/>
<path d="M25.0203 14.6514C24.7149 14.651 24.4153 14.5681 24.1532 14.4114C23.8911 14.2546 23.6762 14.03 23.5314 13.7611C23.3865 13.4923 23.3171 13.1893 23.3303 12.8842C23.3436 12.5791 23.4391 12.2833 23.6068 12.028C26.5489 7.55094 24.4953 5.59181 23.8205 4.94803C22.726 3.92596 21.2787 3.36661 19.7813 3.38694H6.76615C6.31706 3.38694 5.88637 3.20854 5.56882 2.89099C5.25127 2.57344 5.07288 2.14275 5.07288 1.69367C5.07288 1.24458 5.25127 0.813894 5.56882 0.496344C5.88637 0.178793 6.31706 0.000395355 6.76615 0.000395355H19.7813C22.1497 -0.02158 24.4347 0.873304 26.1583 2.49777C27.9403 4.19802 30.3465 7.93881 26.437 13.8878C26.2829 14.1228 26.0726 14.3156 25.8253 14.4489C25.5779 14.5822 25.3012 14.6518 25.0203 14.6514Z" fill="white"/>
<path d="M21.2349 10.5848C22.5756 10.5848 23.6625 9.49794 23.6625 8.1572C23.6625 6.81646 22.5756 5.72958 21.2349 5.72958C19.8941 5.72958 18.8073 6.81646 18.8073 8.1572C18.8073 9.49794 19.8941 10.5848 21.2349 10.5848Z" fill="white" stroke="black" stroke-width="0.405477" stroke-miterlimit="10"/>
<path d="M21.235 20.4094C22.4625 20.4095 23.4576 21.4046 23.4576 22.6321C23.4576 23.8595 22.4624 24.8547 21.235 24.8547C20.0075 24.8547 19.0124 23.8595 19.0123 22.6321C19.0123 21.4045 20.0075 20.4094 21.235 20.4094Z" fill="#69FF00" stroke="black" stroke-width="0.41"/>
<path d="M25.0342 10.1041C26.2617 10.1042 27.2569 11.0993 27.2569 12.3268C27.2568 13.5542 26.2617 14.5494 25.0342 14.5494C23.8068 14.5494 22.8116 13.5542 22.8116 12.3268C22.8116 11.0993 23.8067 10.1041 25.0342 10.1041Z" fill="#69FF00" stroke="black" stroke-width="0.41"/>
</svg>
