<svg width="50" height="50" viewBox="0 0 50 50" fill="none" xmlns="http://www.w3.org/2000/svg">
<g clip-path="url(#clip0_66_376)">
<path d="M25 -1C11.7578 -1 1 9.75777 1 23C1 30.1759 4.16257 36.62 9.16033 41.0183L6.63927 45.4307C6.54951 45.5885 6.50245 45.7669 6.50272 45.9484V50.1529C6.50278 50.3368 6.55145 50.5175 6.64381 50.6765C6.73618 50.8356 6.86894 50.9674 7.02866 51.0587C7.18839 51.1499 7.36938 51.1973 7.55332 51.1961C7.73726 51.1948 7.91761 51.145 8.07609 51.0516L11.6997 48.9178C11.8557 48.8255 11.9849 48.6941 12.0747 48.5367L14.3757 44.5115C17.5801 46.0974 21.1861 47 25 47C28.8139 47 32.4199 46.0974 35.6243 44.5115L37.9253 48.5367C38.0151 48.6941 38.1443 48.8255 38.3003 48.9178L41.9239 51.0516C42.0824 51.145 42.2627 51.1948 42.4467 51.1961C42.6306 51.1973 42.8116 51.1499 42.9713 51.0587C43.1311 50.9674 43.2638 50.8356 43.3562 50.6765C43.4485 50.5175 43.4972 50.3368 43.4973 50.1529V45.9484C43.4976 45.7669 43.4505 45.5885 43.3607 45.4307L40.8397 41.0183C45.8374 36.62 49 30.1759 49 23C49 9.75777 38.2422 -1 25 -1ZM25 1.08696C37.1143 1.08696 46.913 10.8857 46.913 23C46.913 29.411 44.1653 35.1646 39.784 39.1719L37.6073 35.3628C40.4961 32.4101 42.4113 28.4917 42.6841 24.1087C42.693 23.9665 42.6727 23.8239 42.6243 23.6898C42.576 23.5557 42.5008 23.433 42.4032 23.3291C42.3056 23.2252 42.1878 23.1424 42.057 23.0858C41.9262 23.0292 41.7852 23 41.6427 23H37.4687C37.2069 23.0002 36.9547 23.0987 36.7622 23.2762C36.5697 23.4536 36.4508 23.6969 36.4293 23.9579C36.2558 26.0441 35.404 27.884 34.2609 29.5054L32.0027 25.5537L33.0401 24.5224C33.1376 24.4255 33.215 24.3102 33.2678 24.1832C33.3206 24.0563 33.3478 23.9201 33.3478 23.7826V14.6522C33.3478 12.9357 31.9339 11.5217 30.2174 11.5217H29.1739V8.3913C29.1739 8.11457 29.0639 7.84917 28.8683 7.65348C28.6726 7.4578 28.4072 7.34785 28.1304 7.34783H21.8696C21.5928 7.34785 21.3274 7.4578 21.1317 7.65348C20.9361 7.84917 20.8261 8.11457 20.8261 8.3913V11.5217H19.7826C18.0661 11.5217 16.6522 12.9357 16.6522 14.6522V23.7826C16.6522 24.0583 16.7614 24.3228 16.9558 24.5183L17.9932 25.5618L10.216 39.1719C5.83471 35.1646 3.08696 29.411 3.08696 23C3.08696 10.8857 12.8857 1.08696 25 1.08696ZM22.913 9.43478H27.087V12.5652C27.087 12.842 27.1969 13.1074 27.3926 13.303C27.5883 13.4987 27.8537 13.6087 28.1304 13.6087H30.2174C30.807 13.6087 31.2609 14.0626 31.2609 14.6522V23.3485L29.9912 24.6121C29.9822 24.6208 29.9733 24.6296 29.9647 24.6386L26.8995 27.6855L25.5686 29.0082C25.2255 29.3498 24.7024 29.3505 24.3601 29.0061L23.0924 27.7323L23.0863 27.7242L20.0333 24.6529C20.0292 24.6487 20.0252 24.6447 20.0211 24.6406L18.7391 23.3526V14.6522C18.7391 14.0626 19.193 13.6087 19.7826 13.6087H21.8696C22.1463 13.6087 22.4117 13.4987 22.6074 13.303C22.8031 13.1074 22.913 12.842 22.913 12.5652V9.43478ZM25 15.6957C23.6957 15.6957 22.5846 16.2224 21.8716 17.0245C21.1586 17.8266 20.8261 18.8551 20.8261 19.8696C20.8261 20.8841 21.1586 21.9126 21.8716 22.7147C22.5846 23.5168 23.6957 24.0435 25 24.0435C26.3043 24.0435 27.4154 23.5168 28.1284 22.7147C28.8414 21.9126 29.1739 20.8841 29.1739 19.8696C29.1739 18.8551 28.8414 17.8266 28.1284 17.0245C27.4154 16.2224 26.3043 15.6957 25 15.6957ZM25 17.7826C25.7826 17.7826 26.2368 18.0385 26.5673 18.4103C26.8978 18.7821 27.087 19.3188 27.087 19.8696C27.087 20.4203 26.8978 20.957 26.5673 21.3288C26.2368 21.7006 25.7826 21.9565 25 21.9565C24.2174 21.9565 23.7632 21.7006 23.4327 21.3288C23.1022 20.957 22.913 20.4203 22.913 19.8696C22.913 19.3188 23.1022 18.7821 23.4327 18.4103C23.7632 18.0385 24.2174 17.7826 25 17.7826ZM38.2636 25.087H40.4219C39.9238 28.7639 38.2138 32.0576 35.6202 34.4681C35.6034 34.4845 35.5871 34.5015 35.5713 34.519C34.6524 35.3658 33.6313 36.103 32.5306 36.712C32.4937 36.7262 32.4576 36.7425 32.4226 36.7609C30.2111 37.963 27.6899 38.6522 25 38.6522C22.3101 38.6522 19.7889 37.963 17.5774 36.7609C17.3376 36.6306 17.0563 36.5995 16.7939 36.6742C16.5314 36.7488 16.3086 36.9234 16.1732 37.1603L10.4015 47.2609L8.58967 48.3268V46.2255L19.5197 27.0965L21.0462 28.6311L18.2398 33.5428C18.1705 33.6641 18.1263 33.798 18.1097 33.9367C18.0932 34.0754 18.1046 34.216 18.1434 34.3502C18.1822 34.4843 18.2475 34.6094 18.3354 34.7178C18.4234 34.8263 18.5323 34.916 18.6556 34.9817C20.5486 35.9898 22.7105 36.5652 25 36.5652C27.2905 36.5652 29.4505 35.9871 31.3424 34.9796L31.3465 34.9857C32.7044 34.2632 33.9258 33.3158 34.9599 32.1936L34.9558 32.1895C36.7282 30.2683 37.8338 27.7853 38.2636 25.087ZM30.4701 27.0781L32.8893 31.3132C32.3789 31.799 31.8288 32.2418 31.2364 32.6277L28.9375 28.6026L30.4701 27.0781ZM27.4049 30.125L29.3492 33.5306C27.9979 34.095 26.5553 34.4783 25 34.4783C23.4439 34.4783 22 34.0961 20.6488 33.5326L22.5727 30.1678L22.8804 30.4776C24.0177 31.6213 25.8973 31.6257 27.0401 30.4878L27.4049 30.125ZM36.0543 36.8505L41.4103 46.2255V48.3268L39.5985 47.2609L34.3444 38.0652C34.9397 37.694 35.5091 37.2876 36.0543 36.8505ZM17.5408 38.9742C19.8187 40.0475 22.318 40.7391 25 40.7391C27.682 40.7391 30.1813 40.0475 32.4592 38.9742L34.589 42.6997C31.6921 44.1137 28.4449 44.913 25 44.913C21.5551 44.913 18.3079 44.1137 15.411 42.6997L17.5408 38.9742Z" fill="#69FF00"/>
</g>
<defs>
<clipPath id="clip0_66_376">
<rect width="50" height="50" fill="white"/>
</clipPath>
</defs>
</svg>
