<svg width="48" height="48" viewBox="0 0 48 48" fill="none" xmlns="http://www.w3.org/2000/svg">
<path d="M13.5262 20.424C13.5262 21.016 13.5902 21.494 13.7022 21.844C13.8302 22.196 13.9902 22.58 14.2142 22.996C14.2942 23.122 14.3262 23.25 14.3262 23.362C14.3262 23.522 14.2302 23.682 14.0222 23.842L13.0162 24.512C12.8947 24.5997 12.75 24.6497 12.6002 24.656C12.4402 24.656 12.2802 24.576 12.1222 24.432C11.9074 24.2009 11.7152 23.9498 11.5482 23.682C11.3695 23.3753 11.204 23.061 11.0522 22.74C9.80824 24.208 8.24224 24.942 6.35824 24.942C5.01824 24.942 3.94824 24.56 3.16624 23.794C2.38424 23.026 1.98624 22.006 1.98624 20.728C1.98624 19.372 2.46424 18.268 3.43824 17.44C4.41224 16.61 5.70424 16.194 7.34824 16.194C7.89224 16.194 8.45024 16.242 9.04024 16.322C9.63224 16.402 10.2402 16.53 10.8762 16.674V15.508C10.8762 14.294 10.6222 13.448 10.1262 12.954C9.61624 12.458 8.75424 12.22 7.52624 12.22C6.96624 12.22 6.39024 12.282 5.80024 12.426C5.21024 12.57 4.63424 12.746 4.07624 12.97C3.89431 13.0515 3.70724 13.1209 3.51624 13.178C3.43398 13.2045 3.34857 13.22 3.26224 13.224C3.03824 13.224 2.92624 13.064 2.92624 12.73V11.948C2.92624 11.692 2.95824 11.5 3.03824 11.388C3.15905 11.2428 3.31259 11.1283 3.48624 11.054C4.04424 10.766 4.71424 10.526 5.49624 10.334C6.31028 10.1256 7.14799 10.0241 7.98824 10.032C9.88824 10.032 11.2762 10.464 12.1702 11.326C13.0482 12.186 13.4942 13.496 13.4942 15.252V20.424H13.5262ZM7.04624 22.852C7.57224 22.852 8.11424 22.756 8.69024 22.564C9.26424 22.372 9.77624 22.022 10.2062 21.544C10.4622 21.24 10.6542 20.904 10.7502 20.52C10.8442 20.138 10.9102 19.674 10.9102 19.132V18.462C10.4257 18.3439 9.93495 18.2531 9.44024 18.19C8.94273 18.1268 8.44175 18.0947 7.94024 18.094C6.87024 18.094 6.08824 18.302 5.56024 18.734C5.03424 19.164 4.78024 19.77 4.78024 20.568C4.78024 21.318 4.97024 21.878 5.37024 22.26C5.75224 22.66 6.31024 22.852 7.04624 22.852ZM19.8662 24.576C19.5782 24.576 19.3862 24.528 19.2582 24.416C19.1302 24.32 19.0182 24.096 18.9222 23.794L15.1722 11.452C15.0993 11.2451 15.051 11.0302 15.0282 10.812C15.0282 10.556 15.1562 10.412 15.4102 10.412H16.9762C17.2782 10.412 17.4862 10.462 17.5962 10.572C17.7262 10.668 17.8222 10.892 17.9162 11.196L20.6002 21.764L23.0902 11.196C23.1702 10.876 23.2662 10.668 23.3922 10.572C23.5841 10.4543 23.8075 10.3985 24.0322 10.412H25.3082C25.6122 10.412 25.8202 10.462 25.9482 10.572C26.0742 10.668 26.1882 10.892 26.2502 11.196L28.7722 21.892L31.5342 11.196C31.6302 10.876 31.7422 10.668 31.8542 10.572C32.0395 10.4544 32.2572 10.3984 32.4762 10.412H33.9622C34.2162 10.412 34.3622 10.542 34.3622 10.812C34.3622 10.892 34.3442 10.972 34.3282 11.068C34.3032 11.2045 34.2657 11.3384 34.2162 11.468L30.3702 23.808C30.2742 24.128 30.1622 24.334 30.0342 24.43C29.854 24.5456 29.642 24.6016 29.4282 24.59H28.0542C27.7522 24.59 27.5442 24.542 27.4142 24.43C27.2882 24.318 27.1762 24.11 27.1142 23.79L24.6382 13.494L22.1782 23.774C22.0982 24.094 22.0042 24.302 21.8782 24.414C21.7482 24.526 21.5242 24.574 21.2382 24.574L19.8662 24.576ZM40.3782 25.006C39.5482 25.006 38.7182 24.91 37.9202 24.72C37.1222 24.528 36.5002 24.32 36.0842 24.08C35.8282 23.938 35.6542 23.778 35.5902 23.634C35.5279 23.4928 35.4952 23.3403 35.4942 23.186V22.372C35.4942 22.038 35.6222 21.878 35.8602 21.878C35.9562 21.878 36.0522 21.894 36.1482 21.926C36.2442 21.958 36.3882 22.022 36.5482 22.086C37.0902 22.326 37.6802 22.516 38.3042 22.644C38.9422 22.772 39.5642 22.836 40.2042 22.836C41.2082 22.836 41.9922 22.66 42.5342 22.308C42.7941 22.151 43.0077 21.9281 43.1535 21.6618C43.2993 21.3956 43.372 21.0955 43.3642 20.792C43.3701 20.5865 43.3351 20.3818 43.2613 20.1899C43.1875 19.998 43.0763 19.8226 42.9342 19.674C42.6462 19.372 42.1022 19.1 41.3202 18.844L39.0062 18.124C37.8402 17.758 36.9782 17.216 36.4522 16.498C35.9374 15.8354 35.6562 15.0211 35.6522 14.182C35.6522 13.512 35.7982 12.922 36.0842 12.41C36.3722 11.9 36.7542 11.452 37.2342 11.102C37.7142 10.734 38.2542 10.462 38.8942 10.272C39.5342 10.08 40.2042 10 40.9062 10C41.2562 10 41.6242 10.016 41.9762 10.064C42.3422 10.112 42.6762 10.176 43.0122 10.24C43.3322 10.32 43.6362 10.4 43.9222 10.494C44.2102 10.59 44.4342 10.686 44.5942 10.782C44.7827 10.8769 44.9469 11.0137 45.0742 11.182C45.1773 11.3373 45.2272 11.5219 45.2162 11.708V12.458C45.2162 12.794 45.0882 12.97 44.8482 12.97C44.6358 12.9456 44.43 12.8804 44.2422 12.778C43.2778 12.3519 42.2325 12.1397 41.1782 12.156C40.2682 12.156 39.5482 12.298 39.0542 12.602C38.5582 12.906 38.3042 13.368 38.3042 14.022C38.3042 14.47 38.4642 14.854 38.7842 15.156C39.1022 15.46 39.6922 15.764 40.5382 16.036L42.8062 16.752C43.9542 17.12 44.7862 17.632 45.2802 18.286C45.7742 18.94 46.0142 19.69 46.0142 20.52C46.0142 21.206 45.8702 21.83 45.6002 22.372C45.3122 22.916 44.9282 23.394 44.4342 23.778C43.9382 24.178 43.3482 24.464 42.6622 24.672C41.9422 24.894 41.1942 25.006 40.3782 25.006ZM43.3962 32.766C38.1442 36.646 30.5122 38.704 23.9522 38.704C14.7562 38.704 6.47224 35.304 0.21224 29.652C-0.28176 29.206 0.16424 28.598 0.75624 28.95C7.52424 32.876 15.8742 35.256 24.5102 35.256C30.3382 35.256 36.7382 34.042 42.6302 31.552C43.5082 31.152 44.2582 32.126 43.3962 32.766ZM45.5842 30.274C44.9122 29.414 41.1442 29.86 39.4362 30.068C38.9262 30.132 38.8462 29.684 39.3102 29.348C42.3102 27.242 47.2442 27.848 47.8182 28.55C48.3922 29.27 47.6582 34.202 44.8482 36.564C44.4182 36.932 44.0022 36.74 44.1942 36.262C44.8342 34.682 46.2542 31.122 45.5842 30.274Z" fill="white"/>
</svg>
