<svg width="48" height="48" viewBox="0 0 48 48" fill="none" xmlns="http://www.w3.org/2000/svg">
<path d="M48 23.5414C48 27.0214 45.6701 29.36 42.2026 29.36C40.9238 29.36 39.8035 29.0403 38.8992 28.4634C38.7542 29.2726 38.5018 29.9763 38.0669 30.631C37.2931 31.8032 35.7091 33.2 32.5526 33.2C31.3584 33.2 30.3139 33.0157 29.2666 32.6192L28.0262 32.1498V29.36C28.0262 29.36 17.6669 29.36 17.1878 29.36C16.2605 29.36 15.5232 29.2179 14.9222 28.9914C14.8272 29.2698 14.7226 29.5414 14.5843 29.8035C13.991 30.9555 13.1722 31.712 11.7571 32.4157L10.9248 32.8294L10.0838 32.433L7.84224 31.376L2.78592 28.569L2.79648 28.568C1.00512 27.6301 0 25.8963 0 23.5462C0 20.2698 2.16 17.912 5.33856 17.5971V15.92V14H15.3763V15.92V18.2211C16.199 17.9744 17.0371 17.84 17.9155 17.84C19.2269 17.84 20.136 18.1558 20.7792 18.5811L21.2861 18.4429C22.8134 18.0262 24.0739 17.84 25.3738 17.84C27.0902 17.84 28.4074 18.3171 29.2915 19.2598C29.4182 19.3952 29.5286 19.5325 29.6304 19.6726C30.8102 18.5792 32.6323 17.84 35.2877 17.84C36.4282 17.84 37.5168 17.9542 38.8176 18.2115L39.6595 18.3776C40.4314 18.032 41.3165 17.84 42.2966 17.84C45.7075 17.84 48 20.1315 48 23.5414ZM7.25856 15.92V19.6054C6.8976 19.5123 6.46656 19.4806 6.07488 19.4806C3.54912 19.4806 1.92 21.081 1.92 23.5462C1.92 26.1046 3.456 27.4371 6.408 27.44C7.39392 27.44 8.36256 27.3469 9.6 27.1107V15.92H7.25856ZM7.25856 21.5504V25.4326C6.91296 25.4797 6.56352 25.495 6.29568 25.495C5.05824 25.495 4.38336 24.7856 4.38336 23.5002C4.38336 22.1802 5.08896 21.4266 6.31104 21.4266C6.6096 21.4266 6.97536 21.4573 7.25856 21.5504ZM11.0275 19.76V24.4794C11.0275 26.5616 10.919 27.3536 10.5734 28.0371C10.2442 28.7053 9.72768 29.144 8.66112 29.6394L10.9037 30.6963C11.9702 30.1664 12.4867 29.6864 12.8784 28.9251C13.2979 28.1331 13.44 27.2144 13.44 25.305V19.76H11.0275ZM11.04 18.3757H13.4563V15.92H11.04V18.3757ZM14.8762 22.2522C15.7718 21.7856 16.727 21.5427 17.5757 21.5427C18.1555 21.5427 18.3648 21.6954 18.3648 22.1168V22.6285C15.5472 22.8685 14.4 23.6221 14.4 25.2531C14.4 26.7613 15.263 27.44 17.1878 27.44C18.1402 27.44 19.4381 27.3325 20.4672 27.1827V22.4614C20.4672 21.4947 20.4048 21.0435 20.2128 20.696C19.8701 20.0768 19.0954 19.76 17.9155 19.76C16.8566 19.76 15.887 19.9722 14.8733 20.4541L14.8762 22.2522ZM18.4675 24.1491V25.7053C18.0211 25.7802 17.7082 25.8099 17.3654 25.8099C16.7386 25.8099 16.4544 25.5978 16.4544 25.1456C16.4544 24.5408 16.9488 24.2989 18.4675 24.1491ZM21.792 27.44H24V21.8307C24.4579 21.6906 24.8093 21.6608 25.1213 21.6608C25.9344 21.6608 26.3146 21.9987 26.3146 22.904V27.44H28.513V22.8099C28.513 21.6301 28.3622 21.0771 27.8899 20.5722C27.3878 20.0365 26.5421 19.76 25.3738 19.76C24.2496 19.76 23.1398 19.927 21.792 20.2947V27.44ZM29.9472 28.6573V30.823C30.7939 31.1437 31.6099 31.28 32.5526 31.28C34.4064 31.28 35.711 30.7146 36.4646 29.5731C36.9811 28.7936 37.1558 27.8509 37.1558 25.8397V25.1994C37.1395 24.8787 37.1395 24.559 37.1242 24.2384L37.1088 22.9578L37.0781 21.968V21.7232C37.5638 21.7683 36.9725 21.6656 37.6166 21.7866L38.4451 20.095C37.2835 19.8656 36.3245 19.76 35.2877 19.76C31.7558 19.76 29.76 21.2672 29.76 23.9341C29.76 26.0816 31.1088 27.4381 33.2285 27.4381C33.8544 27.4381 34.3277 27.344 34.7981 27.1174V27.1626C34.7981 28.6544 34.1222 29.2803 32.5373 29.2803C31.6406 29.2803 30.7939 29.0835 29.9472 28.6573ZM34.752 21.8317L34.7683 22.6083L34.7837 23.6893C34.7837 24.0099 34.8 24.3142 34.8 24.5898V25.2301V25.4C34.489 25.4912 34.2202 25.5507 33.8909 25.5507C32.8224 25.5507 32.2253 24.8797 32.2253 23.7085C32.2253 22.8867 32.5238 22.3069 33.1027 21.9872C33.48 21.7578 34.031 21.6368 34.5014 21.6522H34.6762H34.752V21.8317ZM38.4 23.6739C38.4 25.9971 39.8506 27.44 42.2026 27.44C44.5853 27.44 46.08 25.9376 46.08 23.5414C46.08 21.2038 44.6448 19.76 42.2966 19.76C39.8986 19.76 38.4038 21.2624 38.4 23.6739ZM42.2477 25.592C41.3338 25.592 40.7971 24.8634 40.7971 23.5971C40.7971 22.3309 41.3309 21.6022 42.263 21.6022C43.1645 21.6022 43.6819 22.3462 43.6819 23.5971C43.6829 24.8634 43.1501 25.592 42.2477 25.592Z" fill="white"/>
</svg>
