<svg width="48" height="48" viewBox="0 0 48 48" fill="none" xmlns="http://www.w3.org/2000/svg">
<g clip-path="url(#clip0_66_329)">
<path d="M19.2 8V12.8H9.6V17.6H4.8V22.4H1.08C0.622501 22.4075 0.23625 22.7338 0.15 23.18C0.15 23.18 0 24.0013 0 25.04C0 25.7 0.0675 26.4163 0.18 27.14C0.12375 27.155 0.04875 27.1888 0 27.2H0.18C0.457501 28.9363 1.095 30.785 2.16 32.54C2.16375 32.5475 2.15625 32.5625 2.16 32.57C2.1675 32.5888 2.17875 32.6113 2.19 32.63C2.23875 32.8588 2.36625 33.0613 2.55 33.2C2.56875 33.2113 2.59125 33.2225 2.61 33.23C2.90625 33.6575 3.2175 34.085 3.57 34.49C6.13875 37.4525 10.3087 39.68 16.32 39.68C26.1338 39.68 34.4325 35.4988 39.12 27.2H47.85C46.8075 26.9375 44.5688 26.585 44.94 25.22C43.6988 26.6563 41.3363 26.8363 39.51 26.51C39.8588 25.85 40.1963 25.1788 40.5 24.47C43.275 24.3988 45.2663 23.5063 46.38 22.43C47.5988 21.2525 47.97 19.94 47.97 19.94C48.0638 19.5725 47.9363 19.1863 47.64 18.95C47.64 18.95 45.2138 17.18 41.58 17.78C40.545 14.3863 37.86 12.74 37.86 12.74C37.6613 12.6237 37.4288 12.5787 37.2 12.62C37.0463 12.6537 36.9 12.725 36.78 12.83C36.78 12.83 36.1388 13.3775 35.61 14.36C35.0813 15.3425 34.5938 16.8388 34.77 18.77C34.8525 19.6738 35.1375 20.5325 35.55 21.35C35.3175 21.4925 35.1825 21.6125 34.8 21.77C34.005 22.1 32.8463 22.4 31.2 22.4H30.72V17.6H25.92V8H19.2ZM21.12 9.92H24V12.8H21.12V9.92ZM11.52 14.72H14.4V17.6H11.52V14.72ZM16.32 14.72H19.2V17.6H16.32V14.72ZM21.12 14.72H24V17.6H21.12V14.72ZM37.53 14.93C38.2425 15.4588 39.5325 16.565 39.99 18.98C40.0388 19.2463 40.1963 19.475 40.425 19.6175C40.6538 19.76 40.9313 19.8013 41.19 19.73C43.6388 19.0588 44.9625 19.61 45.69 20.03C45.5513 20.3338 45.5738 20.5213 45.03 21.05C44.1563 21.8938 42.675 22.745 39.9 22.64C39.495 22.625 39.1238 22.865 38.97 23.24C38.5875 24.1963 38.145 25.0813 37.68 25.94C37.5375 25.8575 37.4175 25.76 37.32 25.67C36.0338 27.5338 28.5713 26.8213 28.05 25.37C26.4413 27.26 21.4425 27.26 19.83 25.37C19.3088 26.8213 11.8163 27.5338 10.53 25.67C9.37875 26.75 4.83375 27.4138 2.94 25.22C3.12 25.88 2.655 26.3075 2.04 26.6C1.96125 26.0525 1.92 25.5313 1.92 25.04C1.92 24.6275 1.95 24.59 1.98 24.32H31.2C33.09 24.32 34.5075 23.96 35.52 23.54C36.5325 23.12 37.2525 22.61 37.35 22.55C37.5825 22.4038 37.74 22.1675 37.785 21.8975C37.83 21.6313 37.7588 21.3538 37.59 21.14C37.0575 20.4463 36.78 19.5763 36.69 18.59C36.5513 17.0413 36.915 15.9575 37.29 15.26C37.4175 15.0238 37.425 15.0725 37.53 14.93ZM6.72 19.52H9.6V22.4H6.72V19.52ZM11.52 19.52H14.4V22.4H11.52V19.52ZM16.32 19.52H19.2V22.4H16.32V19.52ZM21.12 19.52H24V22.4H21.12V19.52ZM25.92 19.52H28.8V22.4H25.92V19.52ZM2.16 27.2H36.96C32.5538 34.3175 25.2375 37.76 16.32 37.76C11.07 37.76 7.665 35.9788 5.43 33.62C9.69 33.8225 12.99 32.69 12.99 32.69C13.5188 32.6225 13.8975 32.1388 13.83 31.61C13.7625 31.0813 13.2788 30.7025 12.75 30.77C12.6975 30.7775 12.6488 30.785 12.6 30.8C12.5175 30.8113 12.4388 30.83 12.36 30.86C12.36 30.86 8.43375 32.1988 3.84 31.55C2.9775 30.1288 2.43375 28.6063 2.16 27.2ZM15.36 29.12C14.8313 29.12 14.4 29.5513 14.4 30.08C14.4 30.6088 14.8313 31.04 15.36 31.04C15.8888 31.04 16.32 30.6088 16.32 30.08C16.32 29.9488 16.3088 29.8325 16.26 29.72C16.1925 29.84 16.0463 29.93 15.9 29.93C15.6825 29.93 15.51 29.7275 15.51 29.51C15.51 29.3638 15.6038 29.2475 15.72 29.18C15.6113 29.1388 15.4838 29.12 15.36 29.12Z" fill="white"/>
</g>
<defs>
<clipPath id="clip0_66_329">
<rect width="48" height="48" fill="white"/>
</clipPath>
</defs>
</svg>
