<svg width="48" height="48" viewBox="0 0 48 48" fill="none" xmlns="http://www.w3.org/2000/svg">
<path d="M47.7742 9.96044H46.9577C45.948 9.96044 44.9969 10.4312 44.383 11.2324L36.025 22.1622L27.667 11.2324C27.055 10.4312 26.103 9.96044 25.0942 9.96044H24.2776L34.8174 23.7425L24.0519 37.8205H24.8685C25.8782 37.8205 26.8292 37.3498 27.4422 36.5485L36.0259 25.3238L44.6097 36.5485C45.2226 37.3498 46.1737 37.8205 47.1834 37.8205H48L37.2345 23.7425L47.7742 9.96044ZM20.4522 32.2888C17.9986 36.0173 13.1682 37.9281 8.55016 36.243C4.48739 34.7607 1.92138 30.722 1.92138 26.3969V25.3315H13.4497H24.0173V21.36C24.0173 15.1107 19.3887 9.63957 13.1663 9.05451C6.02642 8.38299 0 14.005 0 21.0084V26.3623C0 31.5222 3.08862 36.3189 7.94396 38.0664C14.2874 40.349 20.9594 36.9424 23.2151 31.0957H22.6022C21.727 31.0957 20.9325 31.5578 20.4522 32.2888ZM1.92138 21.0084C1.92138 15.446 6.44624 10.9211 12.0086 10.9211C17.5711 10.9211 22.0959 15.446 22.0959 21.0084V23.4101H1.92138V21.0084Z" fill="#69FF00"/>
</svg>
