<svg width="48" height="48" viewBox="0 0 48 48" fill="none" xmlns="http://www.w3.org/2000/svg">
<path d="M16.6809 0C11.8987 0 8 3.89874 8 8.68085C8 12.0514 9.99142 14.9033 12.8092 16.3404C9.99142 17.7775 8 20.6295 8 24C8 27.3705 9.99142 30.2225 12.8092 31.6596C9.99142 33.0967 8 35.9486 8 39.3191C8 44.1013 11.8987 48 16.6809 48C21.463 48 25.3617 44.1013 25.3617 39.3191V31.6596V28.2447C26.7316 30.8443 29.3774 32.6809 32.5106 32.6809C37.0108 32.6809 40.6809 29.0108 40.6809 24.5106C40.6809 20.8118 38.1544 17.7995 34.7726 16.7992C38.1824 15.6273 40.6809 12.4802 40.6809 8.68085C40.6809 3.89874 36.7821 0 32 0H24.3404H16.6809ZM16.6809 2.04255H23.3191V15.3191H16.6809C13.0027 15.3191 10.0426 12.359 10.0426 8.68085C10.0426 5.0027 13.0027 2.04255 16.6809 2.04255ZM25.3617 2.04255H32C35.6781 2.04255 38.6383 5.0027 38.6383 8.68085C38.6383 12.359 35.6781 15.3191 32 15.3191H25.3617V2.04255ZM16.6809 17.3617H23.3191V30.6383H16.6809C13.0027 30.6383 10.0426 27.6781 10.0426 24C10.0426 20.3219 13.0027 17.3617 16.6809 17.3617ZM25.3617 17.3617H28.7766C27.3112 18.1339 26.1339 19.3112 25.3617 20.7766V17.3617ZM32.5106 18.383C35.907 18.383 38.6383 21.1143 38.6383 24.5106C38.6383 27.9069 35.907 30.6383 32.5106 30.6383C29.1143 30.6383 26.383 27.9069 26.383 24.5106C26.383 21.1143 29.1143 18.383 32.5106 18.383ZM16.6809 32.6809H23.3191V39.3191C23.3191 42.9973 20.359 45.9574 16.6809 45.9574C13.0027 45.9574 10.0426 42.9973 10.0426 39.3191C10.0426 35.641 13.0027 32.6809 16.6809 32.6809Z" fill="#69FF00"/>
</svg>
