<svg width="48" height="48" viewBox="0 0 48 48" fill="none" xmlns="http://www.w3.org/2000/svg">
<path d="M43.183 35.4411L38.9374 9.46824C38.8195 8.75299 38.324 8.15561 37.6407 7.90987C36.9575 7.66812 36.1943 7.80997 35.6488 8.28747L29.1616 13.9715L25.5074 6.87695C25.1758 6.23561 24.5244 5.82205 23.8032 5.79607C23.08 5.7701 22.4027 6.13372 22.0251 6.75108L19.8433 10.3194L15.1722 1.09099C14.7906 0.337774 13.9675 -0.077792 13.1363 0.0121141C12.2972 0.120001 11.6179 0.74335 11.4381 1.57049L4.04583 35.587C3.81208 36.6638 4.49536 37.7287 5.57424 37.9625C5.62818 37.9745 5.68212 37.9725 5.73607 37.9805C5.74206 37.9825 5.74406 37.9885 5.75005 37.9905L22.6424 47.7303C22.9501 47.9101 23.2937 48 23.6394 48C23.987 48 24.3346 47.9101 24.6443 47.7283L42.216 37.489C42.9312 37.0714 43.3168 36.2583 43.183 35.4411ZM23.5814 11.8677L26.0628 16.6847L23.987 18.5028L21.9651 14.511L23.5814 11.8677ZM20.8842 21.222L14.403 26.9L19.5177 18.5228L20.8842 21.222ZM14.1473 7.91586L17.3959 14.3312L10.1894 26.1328L14.1473 7.91586ZM23.6334 43.6925L10.1634 35.9266L24.8621 23.0481C24.8761 23.0321 24.8941 23.0241 24.908 23.0081L35.5749 13.6639L39.0193 34.7279L23.6334 43.6925Z" fill="#69FF00"/>
</svg>
