<svg width="48" height="48" viewBox="0 0 48 48" fill="none" xmlns="http://www.w3.org/2000/svg">
<g clip-path="url(#clip0_73_471)">
<path d="M16.9688 46.62C19.0311 47.4495 21.2225 47.9124 23.4441 47.9879C26.4322 48.0946 29.4035 47.4957 32.1169 46.2398C28.9933 45.011 26.126 43.2107 23.662 40.9313C22.0805 43.4635 19.741 45.4635 16.9688 46.62Z" fill="#FF9100"/>
<path d="M23.6622 40.932C18.0931 35.7812 14.7145 28.3262 14.9999 20.1491C15.0093 19.8838 15.0233 19.6185 15.0397 19.3531C12.5663 18.7118 9.96699 18.7389 7.50753 19.4318C5.97328 22.1163 5.11666 25.1344 5.01186 28.2247C4.72346 36.4848 9.72192 43.7021 16.9692 46.6208C19.7359 45.4642 22.0748 43.4762 23.6622 40.932Z" fill="#FFC400"/>
<path d="M23.6614 40.9318C24.9561 38.8596 25.7414 36.4303 25.8328 33.813C26.0731 26.9281 21.4448 21.0055 15.0387 19.3529C15.0225 19.6182 15.0085 19.8835 14.9992 20.1488C14.7137 28.3259 18.0921 35.781 23.6614 40.9318Z" fill="#FF9100"/>
<path d="M25.1176 0C21.4695 2.92287 18.5884 6.7768 16.8452 11.2166C15.8239 13.8191 15.2139 16.5646 15.0371 19.3546C21.443 21.0072 26.0715 26.9298 25.831 33.8147C25.7451 36.3372 24.9963 38.7925 23.6598 40.9335C26.1232 43.2137 28.9906 45.014 32.1147 46.242C38.4503 43.3134 42.9454 37.0115 43.2058 29.5577C43.3743 24.7282 41.5189 20.424 38.8969 16.7909C36.1281 12.9488 25.1176 0 25.1176 0Z" fill="#DD2C00"/>
</g>
<defs>
<clipPath id="clip0_73_471">
<rect width="48" height="48" fill="white"/>
</clipPath>
</defs>
</svg>
