<svg width="48" height="48" viewBox="0 0 48 48" fill="none" xmlns="http://www.w3.org/2000/svg">
<path d="M28.4665 0C28.1836 5.45334e-05 27.9123 0.112461 27.7123 0.3125L5.31229 22.7125C5.11233 22.9125 5 23.1838 5 23.4667C5 23.7495 5.11233 24.0208 5.31229 24.2208L11.7123 30.6208C11.9123 30.8208 12.1836 30.9331 12.4665 30.9331C12.7493 30.9331 13.0206 30.8208 13.2206 30.6208L42.0206 1.82083C42.1697 1.67164 42.2712 1.48159 42.3124 1.27472C42.3535 1.06785 42.3323 0.853426 42.2516 0.658559C42.1709 0.463692 42.0342 0.297124 41.8589 0.179906C41.6835 0.0626889 41.4774 8.28036e-05 41.2665 0H28.4665ZM28.9081 2.13333H38.6915L12.4665 28.3583L7.57479 23.4667L28.9081 2.13333ZM29.5331 20.2667C29.2502 20.2667 28.979 20.3791 28.779 20.5792L15.979 33.3792C15.779 33.5792 15.6667 33.8505 15.6667 34.1333C15.6667 34.4162 15.779 34.6875 15.979 34.8875L22.379 41.2875L28.779 47.6875C28.979 47.8875 29.2502 47.9999 29.5331 48H42.3331C42.544 47.9999 42.7502 47.9373 42.9256 47.8201C43.1009 47.7029 43.2376 47.5363 43.3183 47.3414C43.399 47.1466 43.4201 46.9322 43.379 46.7253C43.3379 46.5184 43.2364 46.3284 43.0873 46.1792L31.0415 34.1333L43.0873 22.0875C43.2364 21.9383 43.3379 21.7483 43.379 21.5414C43.4201 21.3345 43.399 21.1201 43.3183 20.9252C43.2376 20.7304 43.1009 20.5638 42.9256 20.4466C42.7502 20.3294 42.544 20.2668 42.3331 20.2667H29.5331ZM29.9748 22.4H39.7581L23.1331 39.025L18.2415 34.1333L29.9748 22.4ZM29.5331 35.6417L39.7581 45.8667H29.9748L24.6415 40.5333L29.5331 35.6417Z" fill="white"/>
</svg>
