<svg width="48" height="48" viewBox="0 0 48 48" fill="none" xmlns="http://www.w3.org/2000/svg">
<path opacity="0.35" d="M10.7882 0H38.3839C39.5388 0 40.4762 0.937361 40.4762 2.09232V14.6463C40.4762 15.8012 39.5388 16.7386 38.3839 16.7386H23.7376L9.67719 2.67817C8.68961 1.6906 9.38845 0 10.7882 0Z" fill="white"/>
<path d="M9.09232 16.7386H23.7386L37.799 30.799C38.7866 31.7866 38.0877 33.4772 36.6901 33.4772H9.09232C7.93736 33.4772 7 32.5398 7 31.3848V18.8309C7 17.6759 7.93736 16.7386 9.09232 16.7386Z" fill="white"/>
<path opacity="0.35" d="M7 18.8309V31.3974C7 32.7302 7.52936 34.0065 8.4709 34.9481L21.0604 47.5376C22.048 48.5252 23.7386 47.8263 23.7386 46.4287V16.7386H9.09232C7.93736 16.7386 7 17.6759 7 18.8309Z" fill="white"/>
</svg>
