<svg width="48" height="48" viewBox="0 0 48 48" fill="none" xmlns="http://www.w3.org/2000/svg">
<g clip-path="url(#clip0_66_312)">
<path d="M47.0463 24.6424C46.468 22.4824 45.3114 20.5818 43.7251 19.0858C45.0211 16.0401 44.8257 12.5441 43.1686 9.67212C41.5788 6.92012 39.0131 4.95098 35.9434 4.12812C33.7823 3.54984 31.556 3.60012 29.4646 4.22869C27.4726 1.57955 24.3708 0.00012207 21.0394 0.00012207C15.4326 0.00012207 10.7297 3.90412 9.47827 9.13269C9.46684 9.13384 9.45655 9.12927 9.44512 9.13041C6.12855 9.54184 3.26912 11.4378 1.59941 14.3293C0.00969478 17.0813 -0.41202 20.2881 0.410838 23.3578C0.990266 25.519 2.14684 27.4218 3.73541 28.9178C2.43941 31.9647 2.62684 35.4481 4.28855 38.3281C5.87827 41.0801 8.44398 43.0493 11.5137 43.8721C12.5377 44.1464 13.5788 44.2824 14.612 44.2824C15.7583 44.2824 16.892 44.0984 17.9914 43.7681C19.9823 46.4218 23.0714 48.0001 26.4177 48.0001C32.0303 48.0001 36.7354 44.0893 37.9834 38.8538C41.2748 38.4538 44.1903 36.5613 45.8588 33.671C47.4474 30.919 47.8691 27.7121 47.0463 24.6424ZM35.3514 6.33498C37.8326 6.99898 39.9046 8.59098 41.188 10.8138C42.3868 12.8904 42.6086 15.3853 41.8383 17.6333C41.7251 17.5624 41.6177 17.4836 41.5023 17.4161L31.0234 11.3658C30.6668 11.1613 30.2257 11.1636 29.8691 11.3727L18.2143 18.2767L18.1548 13.0116L28.0554 7.29612C30.2806 6.01155 32.8714 5.67212 35.3514 6.33498ZM29.1423 20.7944L29.2131 27.0847L23.8006 30.2904L18.316 27.2058L18.2451 20.9156L23.6577 17.7098L29.1423 20.7944ZM11.4257 11.8996C11.4257 6.59784 15.7388 2.28584 21.0394 2.28584C23.4497 2.28584 25.716 3.33269 27.2771 5.12927C27.1571 5.19327 27.0326 5.24698 26.9137 5.31555L16.4337 11.3658C16.0771 11.5727 15.8577 11.9567 15.8623 12.3681L16.0143 25.9121L11.4257 23.3316V11.8996ZM2.61769 22.767C1.95369 20.287 2.29541 17.695 3.57884 15.4721C4.79027 13.3738 6.80512 11.959 9.16055 11.5018C9.15598 11.6344 9.13998 11.7647 9.13998 11.8996V24.0001C9.13998 24.4127 9.36284 24.7933 9.72284 24.9967L21.5274 31.6367L16.9971 34.3201L7.09769 28.6036C4.87369 27.3201 3.28284 25.2481 2.61769 22.767ZM12.1057 41.6653C9.62455 41.0013 7.55255 39.4093 6.26912 37.1864C5.06569 35.1018 4.84169 32.6138 5.61427 30.3636C5.72969 30.4356 5.83827 30.5156 5.95598 30.5841L16.4348 36.6344C16.6108 36.7361 16.8086 36.7876 17.0063 36.7876C17.2086 36.7876 17.4097 36.7338 17.5891 36.6276L29.244 29.7236L29.3034 34.9887L19.4028 40.7041C17.1788 41.9898 14.5868 42.3316 12.1057 41.6653ZM36.0314 36.1007C36.0314 41.4024 31.7194 45.7144 26.4177 45.7144C23.996 45.7144 21.7388 44.6641 20.1788 42.8641C20.2988 42.8001 20.4257 42.7521 20.5446 42.6836L31.0246 36.6333C31.3811 36.4264 31.6006 36.0424 31.596 35.631L31.4428 22.0881L36.0314 24.6687V36.1007ZM43.8783 32.5281C42.6714 34.6196 40.6326 36.055 38.2966 36.5087C38.3011 36.3716 38.3171 36.2378 38.3171 36.1007V24.0001C38.3171 23.5876 38.0943 23.207 37.7343 23.0036L25.9297 16.3636L30.46 13.6801L40.3594 19.3967C42.5834 20.6801 44.1743 22.7533 44.8394 25.2333C45.5034 27.7133 45.1617 30.3053 43.8783 32.5281Z" fill="#69FF00"/>
</g>
<defs>
<clipPath id="clip0_66_312">
<rect width="48" height="48" fill="white"/>
</clipPath>
</defs>
</svg>
