<svg width="48" height="48" viewBox="0 0 48 48" fill="none" xmlns="http://www.w3.org/2000/svg">
<g clip-path="url(#clip0_66_316)">
<path d="M23.913 -0.00012207C21.6196 -0.00012207 19.7391 1.88035 19.7391 4.17379C19.7391 4.50267 19.8557 4.79557 19.9287 5.10314L9.22283 10.7709C8.45803 9.9366 7.38641 9.39118 6.17391 9.39118C3.88047 9.39118 2 11.2717 2 13.5651C2 15.4845 3.34768 17.0501 5.13043 17.5271V30.4727C3.34967 30.9488 2 32.5104 2 34.4347C2 36.7218 3.8767 38.6086 6.17391 38.6086C7.38641 38.6086 8.45803 38.0632 9.22283 37.2288L19.9287 42.8966C19.8557 43.2042 19.7391 43.4971 19.7391 43.826C19.7391 46.1194 21.6196 47.9999 23.913 47.9999C26.2103 47.9999 28.087 46.1131 28.087 43.826C28.087 43.4971 27.9704 43.2042 27.8974 42.8966L38.6033 37.2288C39.3681 38.0632 40.4397 38.6086 41.6522 38.6086C43.9494 38.6086 45.8261 36.7218 45.8261 34.4347C45.8261 32.5104 44.4764 30.9488 42.6957 30.4727V17.5271C44.4784 17.0501 45.8261 15.4845 45.8261 13.5651C45.8261 11.2717 43.9456 9.39118 41.6522 9.39118C40.4397 9.39118 39.3681 9.9366 38.6033 10.7709L27.8974 5.10314C27.9707 4.79526 28.087 4.50264 28.087 4.17379C28.087 1.88035 26.2065 -0.00012207 23.913 -0.00012207ZM23.913 2.08683C25.0819 2.08683 26 3.00497 26 4.17379C26 5.33015 25.0781 6.26075 23.913 6.26075C22.7442 6.26075 21.8261 5.34261 21.8261 4.17379C21.8261 3.00497 22.7442 2.08683 23.913 2.08683ZM20.8641 6.96795C20.9079 7.01572 20.9283 7.08121 20.9742 7.12692L7.27853 30.4849C7.25864 30.4793 7.2374 30.4781 7.21739 30.4727V17.5271C8.99815 17.051 10.3478 15.4893 10.3478 13.5651C10.3478 13.2362 10.2313 12.9433 10.1583 12.6357L20.8641 6.96795ZM26.962 6.96999L37.6678 12.6357C37.5948 12.9433 37.4783 13.2362 37.4783 13.5651C37.4783 15.4893 38.8279 17.051 40.6087 17.5271V30.4727C40.5887 30.478 40.5674 30.4793 40.5476 30.4849L26.8539 7.12488C26.8987 7.08024 26.9192 7.01659 26.962 6.96999ZM22.8084 8.12352C23.168 8.22548 23.5222 8.3477 23.913 8.3477C24.304 8.3477 24.6582 8.22551 25.0177 8.12352L38.7133 31.4815C38.1965 31.9958 37.8835 32.6683 37.6902 33.3912H10.1359C9.9426 32.6683 9.62955 31.9958 9.11277 31.4815L22.8084 8.12352ZM6.17391 11.4781C7.34274 11.4781 8.26087 12.3963 8.26087 13.5651C8.26087 14.7339 7.34274 15.6521 6.17391 15.6521C5.00886 15.6521 4.08696 14.7215 4.08696 13.5651C4.08696 12.3963 5.00509 11.4781 6.17391 11.4781ZM41.6522 11.4781C42.821 11.4781 43.7391 12.3963 43.7391 13.5651C43.7391 14.7215 42.8172 15.6521 41.6522 15.6521C40.4834 15.6521 39.5652 14.7339 39.5652 13.5651C39.5652 12.3963 40.4834 11.4781 41.6522 11.4781ZM6.17391 32.3477C7.34274 32.3477 8.26087 33.2658 8.26087 34.4347C8.26087 35.6035 7.34274 36.5216 6.17391 36.5216C5.00886 36.5216 4.08696 35.591 4.08696 34.4347C4.08696 33.2658 5.00509 32.3477 6.17391 32.3477ZM41.6522 32.3477C42.821 32.3477 43.7391 33.2658 43.7391 34.4347C43.7391 35.591 42.8172 36.5216 41.6522 36.5216C40.4834 36.5216 39.5652 35.6035 39.5652 34.4347C39.5652 33.2658 40.4834 32.3477 41.6522 32.3477ZM10.3764 35.4781H37.4497L26.962 41.0318C26.1972 40.1975 25.1255 39.6521 23.913 39.6521C22.7006 39.6521 21.6289 40.1975 20.8641 41.0318L10.3764 35.4781ZM23.913 41.739C25.0819 41.739 26 42.6571 26 43.826C26 44.9823 25.0781 45.9129 23.913 45.9129C22.7442 45.9129 21.8261 44.9948 21.8261 43.826C21.8261 42.6571 22.7442 41.739 23.913 41.739Z" fill="#69FF00"/>
</g>
<defs>
<clipPath id="clip0_66_316">
<rect width="48" height="48" fill="white"/>
</clipPath>
</defs>
</svg>
