<svg width="48" height="48" viewBox="0 0 48 48" fill="none" xmlns="http://www.w3.org/2000/svg">
<g clip-path="url(#clip0_66_365)">
<path d="M1.14286 6.10352e-05C0.839765 9.13401e-05 0.549093 0.120509 0.334773 0.334829C0.120452 0.549149 3.52084e-05 0.839821 4.90349e-06 1.14292V22.8571V46.8571V46.8638C0.000880078 46.8854 0.00236881 46.907 0.00446918 46.9285C0.00550146 46.9471 0.00698996 46.9658 0.00893345 46.9843C0.00965096 46.9888 0.010395 46.9932 0.0111656 46.9977C0.0148154 47.0322 0.0200291 47.0664 0.0267905 47.1004C0.033646 47.132 0.0418378 47.1632 0.0513441 47.1941C0.0575566 47.2129 0.0642553 47.2315 0.0714333 47.2499C0.0796552 47.2725 0.0885882 47.2949 0.0982189 47.3169C0.113069 47.3497 0.129456 47.3817 0.147326 47.4129C0.157256 47.431 0.167677 47.4489 0.178576 47.4665C0.186484 47.48 0.19467 47.4934 0.203129 47.5066C0.217387 47.5265 0.232275 47.5458 0.247772 47.5647C0.256491 47.576 0.265421 47.5872 0.274558 47.5982C0.289659 47.6157 0.305291 47.6329 0.321433 47.6495C0.33091 47.6601 0.340584 47.6705 0.35045 47.6807C0.374794 47.7034 0.400116 47.725 0.426343 47.7455C0.428566 47.7477 0.430798 47.7499 0.43304 47.7522C0.458973 47.7727 0.485784 47.792 0.513396 47.8102C0.518573 47.814 0.523782 47.8177 0.529021 47.8214C0.532729 47.8236 0.536449 47.8259 0.540182 47.8281C0.56778 47.8449 0.59608 47.8605 0.625003 47.8749C0.659165 47.8923 0.69418 47.908 0.729914 47.9218C0.75271 47.9307 0.775788 47.9389 0.79911 47.9464C0.815378 47.9512 0.831751 47.9557 0.848217 47.9598C0.850447 47.9605 0.852679 47.9613 0.854913 47.962C0.885869 47.97 0.917146 47.9767 0.948663 47.9821C0.971632 47.9858 0.994709 47.9887 1.01786 47.991C1.03863 47.9938 1.05947 47.996 1.08036 47.9977C1.0878 47.9978 1.09524 47.9978 1.10268 47.9977C1.11606 47.9987 1.12945 47.9994 1.14286 47.9999C1.15402 48.0001 1.16518 48.0001 1.17634 47.9999H46.857C47.083 47.9998 47.3039 47.9328 47.4918 47.8072C47.6796 47.6816 47.8261 47.5031 47.9126 47.2943C47.999 47.0856 48.0217 46.8558 47.9776 46.6342C47.9336 46.4125 47.8248 46.2089 47.6651 46.0491L25.616 24L47.6651 1.95095C47.8248 1.7911 47.9336 1.58748 47.9776 1.36583C48.0217 1.14418 47.999 0.914443 47.9126 0.705658C47.8261 0.496872 47.6796 0.318408 47.4918 0.192818C47.3039 0.0672278 47.083 0.000149753 46.857 6.10352e-05H22.8571H1.14286ZM2.28571 2.28577H20.0982L2.28571 20.0982V2.28577ZM23.3303 2.28577H44.0981L23.1919 23.192L2.28571 44.0982V23.3304L23.3303 2.28577ZM23.9999 25.6161L44.0981 45.7142H3.90178L23.9999 25.6161Z" fill="#69FF00"/>
</g>
<defs>
<clipPath id="clip0_66_365">
<rect width="48" height="48" fill="white"/>
</clipPath>
</defs>
</svg>
