<svg width="48" height="48" viewBox="0 0 48 48" fill="none" xmlns="http://www.w3.org/2000/svg">
<g clip-path="url(#clip0_66_367)">
<path fill-rule="evenodd" clip-rule="evenodd" d="M48.3073 23.389C47.9636 23.0495 43.5729 17.5877 42.8308 16.6851C42.0339 15.7825 41.6901 15.9523 41.1745 16.0101C40.6628 16.068 35.1276 17.0246 34.4987 17.0786C33.8698 17.1904 33.4714 17.418 33.8698 17.9811C34.2136 18.4864 37.862 23.5587 38.6628 24.7428L24.1159 28.1796L12.5925 9.07871C12.1354 8.40369 12.0222 8.17612 10.9948 8.23398C9.96747 8.29183 1.9245 8.96685 1.35419 8.96685C0.779968 9.0247 0.154968 9.24842 0.725281 10.6023C1.29559 11.9523 10.4245 31.3309 10.6511 31.8941C10.8776 32.4573 11.5651 33.3598 13.1042 33.0204C14.7018 32.627 20.1784 31.2191 23.2018 30.4284C24.7995 33.2441 27.9948 38.9914 28.6237 39.8361C29.4206 40.9624 29.9948 40.7387 31.1901 40.3993C32.1589 40.1177 46.1393 35.1612 46.7643 34.8796C47.3933 34.598 47.7917 34.4283 47.3347 33.8073C46.9909 33.356 43.3425 28.4535 41.4011 25.9193C42.7136 25.5798 47.4479 24.3417 47.9636 24.172C48.5339 24.01 48.6472 23.7284 48.3073 23.389ZM21.8893 28.7428C21.7175 28.8006 13.5612 30.7138 13.1589 30.8257C12.7018 30.9375 12.7018 30.8835 12.7018 30.7138C12.5925 30.5441 3.00653 10.9379 2.83466 10.7142C2.72137 10.4904 2.72137 10.2629 2.83466 10.2629C2.94794 10.2629 10.5378 9.58786 10.7643 9.58786C11.0495 9.58786 10.9909 9.64571 11.1081 9.81157C11.1081 9.81157 21.7761 28.0099 21.9479 28.2915C22.1745 28.573 22.0612 28.6849 21.8893 28.7428ZM44.8268 32.9664C44.9401 33.1901 45.112 33.3058 44.655 33.4177C44.2565 33.5874 30.905 38.0386 30.6198 38.1505C30.3347 38.2624 30.1628 38.3202 29.8229 37.8111C29.4792 37.3058 25.1432 29.9231 25.1432 29.9231L39.3503 26.2626C39.694 26.1507 39.8073 26.0929 40.0339 26.4323C40.2604 26.8257 44.7136 32.7967 44.8268 32.9664ZM45.737 23.0495C45.3932 23.1074 40.2018 24.4034 40.2018 24.4034L35.9245 18.6562C35.8112 18.4864 35.6979 18.3167 35.9831 18.2627C36.2682 18.2049 41.1198 17.3601 41.3464 17.3061C41.5729 17.2483 41.7448 17.1943 42.03 17.5877C42.3151 17.9271 45.9675 22.5442 46.1393 22.7139C46.3073 22.8837 46.0807 22.9955 45.737 23.0495Z" fill="white"/>
</g>
<defs>
<clipPath id="clip0_66_367">
<rect width="48" height="48" fill="white"/>
</clipPath>
</defs>
</svg>
