<svg width="48" height="48" viewBox="0 0 48 48" fill="none" xmlns="http://www.w3.org/2000/svg">
<g clip-path="url(#clip0_66_343)">
<path d="M17.9688 33C17.9688 33.9936 17.1636 34.8 16.1688 34.8C15.174 34.8 14.3688 33.9936 14.3688 33V16.2C14.3688 15.4164 14.8764 14.7228 15.6228 14.484C16.3728 14.2464 17.1852 14.52 17.6376 15.1596L37.77 43.6044C43.9404 39.2508 48 32.082 48 24C48 10.8 37.2 0 24 0C10.8 0 0 10.8 0 24C0 37.2 10.8 48 24 48C27.8304 48 31.4472 47.0676 34.668 45.4536L17.9688 21.8592V33ZM29.9688 15C29.9688 14.0064 30.774 13.2 31.7688 13.2C32.7636 13.2 33.5688 14.0064 33.5688 15V31.608L29.9688 26.5356V15Z" fill="#69FF00"/>
</g>
<defs>
<clipPath id="clip0_66_343">
<rect width="48" height="48" fill="white"/>
</clipPath>
</defs>
</svg>
