<svg width="49" height="49" viewBox="0 0 49 49" fill="none" xmlns="http://www.w3.org/2000/svg">
<g clip-path="url(#clip0_73_507)">
<mask id="mask0_73_507" style="mask-type:luminance" maskUnits="userSpaceOnUse" x="3" y="0" width="43" height="49">
<path d="M22.9496 0.710308L4.137 11.5689C3.79134 11.7681 3.50426 12.0548 3.30465 12.4003C3.10505 12.7457 2.99997 13.1376 3 13.5365V35.2685C2.9999 35.6675 3.10495 36.0594 3.30456 36.4048C3.50417 36.7502 3.79129 37.037 4.137 37.2361L22.951 48.1031C23.2966 48.302 23.6885 48.4067 24.0873 48.4067C24.4861 48.4067 24.878 48.302 25.2236 48.1031L44.0346 37.2361C44.3795 37.0362 44.6658 36.7493 44.8648 36.404C45.0639 36.0587 45.1688 35.6671 45.1689 35.2685V13.5365C45.1689 13.1374 45.0636 12.7453 44.8636 12.3999C44.6637 12.0545 44.3763 11.7679 44.0302 11.5689L25.222 0.710308C24.8754 0.511406 24.4828 0.406738 24.0833 0.406738C23.6837 0.406738 23.2911 0.511406 22.9446 0.710308" fill="white"/>
</mask>
<g mask="url(#mask0_73_507)">
<path d="M64.18 9.72527L11.1692 -16.259L-16.0117 39.1896L36.9978 65.1752L64.18 9.72527Z" fill="url(#paint0_linear_73_507)"/>
</g>
<mask id="mask1_73_507" style="mask-type:luminance" maskUnits="userSpaceOnUse" x="3" y="0" width="42" height="49">
<path d="M3.4668 36.6483C3.64903 36.8866 3.87669 37.0864 4.13661 37.2361L20.2744 46.5575L22.9626 48.1028C23.3597 48.331 23.8162 48.4344 24.2728 48.3995C24.4239 48.3869 24.5734 48.3595 24.7192 48.3178L44.561 11.9873C44.4068 11.8217 44.2285 11.6802 44.0322 11.5676L31.714 4.45422L25.2025 0.707643C25.0175 0.602805 24.8192 0.523272 24.613 0.471191L3.4668 36.6483Z" fill="white"/>
</mask>
<g mask="url(#mask1_73_507)">
<path d="M-19.4531 17.4107L17.9779 68.0718L67.4813 31.4975L30.0479 -19.1623L-19.4531 17.4107Z" fill="url(#paint1_linear_73_507)"/>
</g>
<mask id="mask2_73_507" style="mask-type:luminance" maskUnits="userSpaceOnUse" x="4" y="0" width="42" height="49">
<path d="M23.859 0.41929C23.5391 0.451624 23.2296 0.55078 22.9505 0.710329L4.19141 11.5378L24.4197 48.3817C24.701 48.3416 24.9776 48.2478 25.2278 48.1031L44.0404 37.2361C44.3245 37.0717 44.5697 36.8479 44.7593 36.58C44.9489 36.3121 45.0784 36.0064 45.1389 35.6838L24.5178 0.456472C24.3664 0.426189 24.2124 0.410927 24.058 0.410919C23.9954 0.410919 23.9327 0.413934 23.8704 0.419627" fill="white"/>
</mask>
<g mask="url(#mask2_73_507)">
<path d="M4.19141 0.410919H45.1316V48.3828H4.19141V0.410919Z" fill="url(#paint2_linear_73_507)"/>
</g>
</g>
<defs>
<linearGradient id="paint0_linear_73_507" x1="-6502.1" y1="-3209.08" x2="-6529.28" y2="-3153.63" gradientUnits="userSpaceOnUse">
<stop stop-color="#3E863D"/>
<stop offset="0.3" stop-color="#3E863D"/>
<stop offset="0.5" stop-color="#55934F"/>
<stop offset="0.8" stop-color="#5AAD45"/>
<stop offset="1" stop-color="#5AAD45"/>
</linearGradient>
<linearGradient id="paint1_linear_73_507" x1="6416.67" y1="8727.96" x2="6466.17" y2="8691.38" gradientUnits="userSpaceOnUse">
<stop stop-color="#3E863D"/>
<stop offset="0.57" stop-color="#3E863D"/>
<stop offset="0.72" stop-color="#619857"/>
<stop offset="1" stop-color="#76AC64"/>
</linearGradient>
<linearGradient id="paint2_linear_73_507" x1="4.22791" y1="9852.64" x2="45.162" y2="9852.64" gradientUnits="userSpaceOnUse">
<stop stop-color="#6BBF47"/>
<stop offset="0.16" stop-color="#6BBF47"/>
<stop offset="0.38" stop-color="#79B461"/>
<stop offset="0.47" stop-color="#75AC64"/>
<stop offset="0.7" stop-color="#659E5A"/>
<stop offset="0.9" stop-color="#3E863D"/>
<stop offset="1" stop-color="#3E863D"/>
</linearGradient>
<clipPath id="clip0_73_507">
<rect width="48" height="48" fill="white" transform="translate(0.5 0.5)"/>
</clipPath>
</defs>
</svg>
