<svg width="48" height="48" viewBox="0 0 48 48" fill="none" xmlns="http://www.w3.org/2000/svg">
<path d="M24.143 0C23.4692 0 22.7955 0.165289 22.2139 0.497596L3.91827 11.0589C2.73673 11.742 2 13.0353 2 14.4014V33.5625C2 34.9471 2.73673 36.222 3.91827 36.905L8.72115 39.6743C11.0473 40.8189 11.8768 40.8173 12.9291 40.8173C16.3814 40.8173 18.3558 38.7314 18.3558 35.113V15.3425C18.3558 15.0472 18.1175 14.8053 17.8221 14.8053H15.5144C15.2006 14.8053 14.9772 15.0472 14.9772 15.3425V35.095C14.9772 36.7196 13.2992 38.3068 10.5853 36.9591L5.5625 34.0601C5.37788 33.9678 5.26683 33.7656 5.26683 33.5625V14.4195C5.26683 14.1979 5.37788 14.011 5.5625 13.9002L23.8582 3.34255C24.0243 3.23178 24.2469 3.23178 24.4315 3.34255L42.7272 13.9002C42.9118 14.011 43.0228 14.1984 43.0228 14.4014V33.5625C43.0228 33.7656 42.9113 33.9678 42.7452 34.0601L24.4315 44.6394C24.2653 44.7317 24.0243 44.7317 23.8582 44.6394L19.149 41.8522C19.0198 41.7599 18.8384 41.7423 18.7091 41.8161C17.3984 42.5546 17.1584 42.6463 15.9399 43.0709C15.6445 43.1632 15.1827 43.3473 16.1058 43.8642L22.2139 47.4844C22.8047 47.8167 23.4712 48 24.1358 48C24.8189 48 25.4813 47.8167 26.0721 47.4844L44.3894 36.905C45.571 36.222 46.3077 34.9471 46.3077 33.5625V14.4195C46.3077 13.0349 45.571 11.76 44.3894 11.0769L26.0721 0.497596C25.4906 0.165289 24.8169 0 24.143 0ZM29.0649 14.78C23.8403 14.78 20.7212 16.994 20.7212 20.6863C20.7212 24.6925 23.8198 25.7984 28.8413 26.2969C34.8413 26.8876 35.3029 27.7764 35.3029 28.9579C35.3029 30.9887 33.6625 31.857 29.8041 31.857C24.9487 31.857 23.8772 30.6368 23.5264 28.2368C23.4895 27.9783 23.2693 27.7933 23.0108 27.7933H20.6274C20.332 27.7933 20.1118 28.0356 20.1118 28.3125C20.1118 31.3956 21.7918 35.0661 29.8041 35.0661C35.601 35.0661 38.9231 32.7798 38.9231 28.7921C38.9231 24.8413 36.2457 23.787 30.6334 23.03C24.9288 22.2916 24.3558 21.9038 24.3558 20.5745C24.3558 19.4668 24.8557 18.0108 29.0649 18.0108C32.8126 18.0108 34.215 18.8205 34.7873 21.3498C34.8426 21.5898 35.0444 21.7752 35.3029 21.7752H37.6863C37.834 21.7752 37.9613 21.7021 38.0721 21.5913C38.1644 21.499 38.2204 21.35 38.2019 21.1839C37.8327 16.827 34.9357 14.78 29.0649 14.78Z" fill="white"/>
</svg>
