<svg width="48" height="48" viewBox="0 0 48 48" fill="none" xmlns="http://www.w3.org/2000/svg">
<path d="M15.8211 26.3156C14.0293 26.8241 12.8537 27.7157 12.0794 28.6066C12.8211 27.9575 13.8146 27.3618 15.1547 26.9819C16.5255 26.5934 17.6949 26.5962 18.6612 26.7827V26.0271C17.8369 25.9517 16.8919 26.0118 15.8211 26.3156ZM11.9975 19.9638L5.34301 21.7169C5.34301 21.7169 5.46429 21.8883 5.68886 22.1169L11.331 20.6301C11.331 20.6301 11.2511 21.6604 10.5567 22.582C11.8701 21.5883 11.9975 19.9638 11.9975 19.9638ZM17.5677 35.6029C8.2031 38.1252 3.2486 27.2726 1.74858 21.6396C1.05555 19.0395 0.753022 17.0703 0.672386 15.7995C0.663724 15.6676 0.667728 15.5563 0.677058 15.4544C0.191273 15.4837 -0.0413028 15.7363 0.00601599 16.466C0.0866512 17.7361 0.389183 19.7052 1.08221 22.3061C2.58156 27.9382 7.53673 38.7908 16.9014 36.2686C18.9397 35.7194 20.4711 34.7193 21.6206 33.4425C20.561 34.3994 19.2349 35.1531 17.5677 35.6029ZM19.3275 13.3219V13.9884H23.0007C22.9253 13.7524 22.8494 13.5398 22.774 13.3219H19.3275Z" fill="#2D4552"/>
<path d="M23.8203 18.8108C25.4723 19.28 26.3459 20.4381 26.8077 21.463L28.6495 21.9862C28.6495 21.9862 28.3983 18.3991 25.1537 17.4774C22.1184 16.6151 20.2505 19.164 20.0233 19.4938C20.9063 18.8648 22.1957 18.3497 23.8203 18.8108ZM38.4819 21.4796C35.4438 20.6133 33.5767 23.1675 33.3528 23.4928C34.2364 22.8644 35.5252 22.3492 37.1491 22.8124C38.7984 23.2822 39.6714 24.439 40.1345 25.4646L41.979 25.9897C41.979 25.9897 41.7237 22.4019 38.4819 21.4796ZM36.652 30.9375L21.3301 26.6541C21.3301 26.6541 21.496 27.495 22.1324 28.5839L35.0328 32.1904C36.0949 31.5759 36.652 30.9375 36.652 30.9375ZM26.0293 40.1575C13.8973 36.9048 15.364 21.4471 17.3271 14.1222C18.1354 11.1035 18.9664 8.85985 19.6555 7.35584C19.2443 7.2712 18.9038 7.48778 18.5673 8.17215C17.8356 9.65615 16.8999 12.0724 15.9944 15.455C14.0319 22.7797 12.5652 38.237 24.6966 41.4896C30.4148 43.0215 34.8694 40.6933 38.1901 37.0368C35.0381 39.8916 31.0138 41.4923 26.0293 40.1575Z" fill="#2D4552"/>
<path d="M19.3264 31.9805V28.8612L10.6596 31.3188C10.6596 31.3188 11.3 27.5978 15.82 26.3156C17.1907 25.9271 18.3603 25.9298 19.3264 26.1164V13.322H23.6659C23.1934 11.8619 22.7363 10.7378 22.3524 9.9568C21.7174 8.66405 21.0663 9.52101 19.5884 10.7572C18.5475 11.6268 15.9166 13.482 11.9577 14.5488C7.99877 15.6163 4.79816 15.3332 3.46275 15.1019C1.56957 14.7753 0.579338 14.3595 0.671973 15.7995C0.752595 17.0696 1.05514 19.0389 1.74817 21.6397C3.2475 27.2719 8.20267 38.1245 17.5673 35.6022C20.0135 34.9432 21.74 33.6404 22.9369 31.9798H19.3264V31.9805ZM5.34127 21.717L11.9964 19.9638C11.9964 19.9638 11.8024 22.524 9.30752 23.1817C6.81195 23.8387 5.34127 21.717 5.34127 21.717Z" fill="#E2574C"/>
<path d="M44.3739 13.4699C42.644 13.7732 38.4937 14.151 33.3647 12.7762C28.2343 11.4022 24.8304 8.99921 23.4817 7.86971C21.5699 6.26841 20.7289 5.15556 19.9013 6.83883C19.1696 8.32351 18.234 10.7398 17.3283 14.1223C15.3659 21.4471 13.8992 36.9043 26.0305 40.157C38.1593 43.4069 44.6164 29.2863 46.5789 21.9609C47.4846 18.579 47.8817 16.0181 47.991 14.3669C48.1156 12.4964 46.8308 13.0394 44.3739 13.4699ZM19.9999 19.53C19.9999 19.53 21.9117 16.5565 25.1542 17.4782C28.3988 18.3998 28.6501 21.9869 28.6501 21.9869L19.9999 19.53ZM27.9151 32.8728C22.2116 31.2021 21.332 26.6541 21.332 26.6541L36.6533 30.9377C36.6533 30.937 33.5606 34.5227 27.9151 32.8728ZM33.332 23.5262C33.332 23.5262 35.2412 20.5548 38.4832 21.4791C41.725 22.4021 41.9803 25.9891 41.9803 25.9891L33.332 23.5262Z" fill="#2EAD33"/>
<path d="M16.2984 29.7201L10.6603 31.3181C10.6603 31.3181 11.2727 27.8291 15.4262 26.4463L12.2336 14.4649L11.9577 14.5488C7.99877 15.6164 4.79816 15.3332 3.46275 15.1019C1.56958 14.7754 0.57935 14.3595 0.671972 15.7997C0.752607 17.0698 1.05514 19.0389 1.74816 21.6398C3.24752 27.2719 8.20268 38.1245 17.5673 35.6022L17.8431 35.5156L16.2984 29.7201ZM5.34193 21.7171L11.997 19.9638C11.997 19.9638 11.8031 22.524 9.30819 23.1817C6.81263 23.8387 5.34193 21.7171 5.34193 21.7171Z" fill="#D65348"/>
<path d="M28.1723 32.9354L27.9144 32.8727C22.2109 31.2021 21.3313 26.6541 21.3313 26.6541L29.2319 28.8625L33.4146 12.7895L33.364 12.7762C28.2336 11.4022 24.8298 8.99921 23.481 7.86971C21.5692 6.26841 20.7283 5.15556 19.9006 6.83883C19.1696 8.32351 18.234 10.7398 17.3283 14.1223C15.3659 21.4471 13.8992 36.9043 26.0305 40.1568L26.2791 40.2129L28.1723 32.9354ZM19.9999 19.53C19.9999 19.53 21.9117 16.5565 25.1542 17.4782C28.3988 18.3998 28.6501 21.9869 28.6501 21.9869L19.9999 19.53Z" fill="#1D8D22"/>
<path d="M16.5869 29.6382L15.0748 30.0673C15.432 32.0811 16.0617 34.0136 17.0499 35.7208C17.2219 35.6829 17.3925 35.6502 17.5677 35.6022C18.0269 35.4783 18.4526 35.325 18.8626 35.1577C17.7584 33.5191 17.0279 31.6319 16.5869 29.6382ZM15.9965 15.4551C15.2194 18.3551 14.5243 22.5293 14.7157 26.7161C15.0581 26.5674 15.42 26.4289 15.8218 26.3149L16.1017 26.2523C15.7605 21.7802 16.4981 17.223 17.3291 14.1223C17.5398 13.3379 17.751 12.6083 17.9615 11.9279C17.6224 12.1438 17.2572 12.365 16.8413 12.5929C16.5609 13.4586 16.2776 14.4049 15.9965 15.4551Z" fill="#C04B41"/>
</svg>
