<svg width="48" height="48" viewBox="0 0 48 48" fill="none" xmlns="http://www.w3.org/2000/svg">
<path d="M15.8215 26.3163C14.0297 26.8249 12.8541 27.7164 12.0797 28.6074C12.8214 27.9583 13.815 27.3626 15.1552 26.9826C16.526 26.5941 17.6954 26.597 18.6617 26.7834V26.0278C17.8374 25.9524 16.8924 26.0125 15.8215 26.3163ZM11.9978 19.9643L5.34319 21.7175C5.34319 21.7175 5.46447 21.8889 5.689 22.1174L11.3313 20.6307C11.3313 20.6307 11.2514 21.661 10.557 22.5826C11.8704 21.5889 11.9978 19.9643 11.9978 19.9643ZM17.5682 35.6039C8.20332 38.1262 3.24869 27.2733 1.74863 21.6402C1.05558 19.04 0.753044 17.0708 0.672408 15.7999C0.663743 15.668 0.667746 15.5567 0.677076 15.4548C0.191278 15.4841 -0.0413035 15.7366 0.00601601 16.4664C0.086652 17.7365 0.389194 19.7057 1.08224 22.3067C2.58164 27.9389 7.53692 38.7918 16.9019 36.2696C18.9402 35.7204 20.4716 34.7202 21.6212 33.4434C20.5616 34.4004 19.2355 35.154 17.5682 35.6039ZM19.328 13.3223V13.9888H23.0013C22.9259 13.7528 22.85 13.5402 22.7746 13.3223H19.328Z" fill="#69FF00"/>
<path d="M23.8226 18.8111C25.4745 19.2802 26.3482 20.4384 26.81 21.4634L28.6519 21.9865C28.6519 21.9865 28.4006 18.3993 25.1559 17.4777C22.1205 16.6153 20.2526 19.1642 20.0254 19.4941C20.9084 18.865 22.1978 18.35 23.8226 18.8111ZM38.4846 21.4799C35.4464 20.6136 33.5792 23.1679 33.3553 23.4931C34.239 22.8648 35.5277 22.3495 37.1517 22.8128C38.801 23.2826 39.674 24.4394 40.1372 25.4651L41.9818 25.9901C41.9818 25.9901 41.7264 22.4023 38.4846 21.4799ZM36.6546 30.9381L21.3322 26.6545C21.3322 26.6545 21.4981 27.4955 22.1346 28.5845L35.0353 32.191C36.0974 31.5765 36.6546 30.9381 36.6546 30.9381ZM26.0316 40.1584C13.8992 36.9056 15.366 21.4474 17.3291 14.1223C18.1374 11.1036 18.9685 8.85983 19.6576 7.35577C19.2464 7.27116 18.9059 7.48772 18.5693 8.17209C17.8376 9.65618 16.902 12.0725 15.9964 15.4551C14.0338 22.7801 12.5671 38.2378 24.6989 41.4905C30.4172 43.0225 34.8719 40.6941 38.1927 37.0376C35.0406 39.8925 31.0162 41.4931 26.0316 40.1584Z" fill="#69FF00"/>
<path d="M19.3289 31.9814V28.862L10.6618 31.3196C10.6618 31.3196 11.3022 27.5986 15.8224 26.3163C17.1932 25.9278 18.3627 25.9305 19.3289 26.1171V13.3223H23.6685C23.196 11.8622 22.7389 10.7381 22.355 9.95703C21.7199 8.66423 21.0689 9.52125 19.5909 10.7574C18.5499 11.6271 15.919 13.4823 11.96 14.5492C8.00092 15.6167 4.80024 15.3336 3.46478 15.1023C1.57155 14.7757 0.581286 14.3599 0.673927 15.7999C0.754548 17.0701 1.05711 19.0394 1.75015 21.6402C3.24953 27.2726 8.20482 38.1255 17.5697 35.6032C20.0159 34.9441 21.7426 33.6413 22.9394 31.9807L19.3289 31.9814ZM5.34337 21.7176L11.9987 19.9644C11.9987 19.9644 11.8047 22.5246 9.3097 23.1823C6.81408 23.8394 5.34337 21.7176 5.34337 21.7176Z" fill="#69FF00"/>
<path d="M44.3747 13.4701C42.6447 13.7734 38.4944 14.1512 33.3652 12.7764C28.2347 11.4024 24.8306 8.99931 23.4819 7.86976C21.5701 6.26842 20.7291 5.15552 19.9015 6.83887C19.1697 8.32357 18.234 10.7399 17.3284 14.1226C15.3659 21.4475 13.8992 36.9052 26.0308 40.1579C38.1599 43.4079 44.6172 29.2869 46.5798 21.9613C47.4855 18.5794 47.8826 16.0184 47.9919 14.3672C48.1165 12.4966 46.8317 13.0396 44.3747 13.4701ZM20 19.5303C20 19.5303 21.9119 16.5569 25.1545 17.4785C28.3992 18.4001 28.6504 21.9873 28.6504 21.9873L20 19.5303ZM27.9154 32.8736C22.2118 31.2028 21.3322 26.6547 21.3322 26.6547L36.6538 30.9384C36.6538 30.9377 33.5612 34.5235 27.9154 32.8736ZM33.3326 23.5267C33.3326 23.5267 35.2418 20.5552 38.4838 21.4795C41.7257 22.4025 41.981 25.9897 41.981 25.9897L33.3326 23.5267Z" fill="#69FF00"/>
<path d="M16.2989 29.7208L10.6605 31.3189C10.6605 31.3189 11.273 27.8297 15.4266 26.4469L12.2339 14.4652L11.958 14.5491C7.99895 15.6167 4.79828 15.3335 3.46283 15.1022C1.56961 14.7757 0.579346 14.3598 0.671972 15.8C0.752608 17.0701 1.05515 19.0393 1.74819 21.6402C3.24759 27.2725 8.20291 38.1254 17.5677 35.6031L17.8436 35.5165L16.2989 29.7208ZM5.34207 21.7176L11.9974 19.9642C11.9974 19.9642 11.8034 22.5245 9.30845 23.1822C6.81278 23.8393 5.34207 21.7176 5.34207 21.7176Z" fill="#69FF00"/>
<path d="M28.1727 32.9362L27.9147 32.8735C22.2112 31.2028 21.3315 26.6547 21.3315 26.6547L29.2323 28.8631L33.4151 12.7897L33.3645 12.7764C28.234 11.4024 24.8301 8.99931 23.4812 7.86976C21.5694 6.26842 20.7284 5.15552 19.9007 6.83887C19.1697 8.32357 18.234 10.7399 17.3284 14.1226C15.3659 21.4475 13.8992 36.9052 26.0308 40.1578L26.2795 40.2138L28.1727 32.9362ZM20 19.5304C20 19.5304 21.9119 16.5569 25.1545 17.4785C28.3992 18.4001 28.6504 21.9873 28.6504 21.9873L20 19.5304Z" fill="#69FF00"/>
<path d="M16.5869 29.6387L15.0748 30.0679C15.432 32.0817 16.0617 34.0143 17.05 35.7216C17.222 35.6836 17.3926 35.6509 17.5678 35.6029C18.0269 35.4791 18.4527 35.3257 18.8627 35.1584C17.7584 33.5198 17.028 31.6325 16.5869 29.6387ZM15.9965 15.4553C15.2195 18.3554 14.5243 22.5296 14.7157 26.7165C15.0582 26.5679 15.4199 26.4294 15.8218 26.3154L16.1018 26.2528C15.7605 21.7805 16.4982 17.2232 17.3292 14.1224C17.5398 13.338 17.751 12.6084 17.9616 11.928C17.6225 12.1438 17.2573 12.365 16.8414 12.5929C16.5609 13.4587 16.2776 14.405 15.9965 15.4553Z" fill="#69FF00"/>
</svg>
