<svg width="48" height="48" viewBox="0 0 48 48" fill="none" xmlns="http://www.w3.org/2000/svg">
<path d="M35.92 35.7192H36.714V36.0672H36.77C36.8982 35.8678 37.0976 35.7247 37.3276 35.6671C37.5576 35.6095 37.8009 35.6417 38.008 35.7572L37.788 36.5032C37.675 36.4427 37.5481 36.413 37.42 36.4172C37.3273 36.412 37.2346 36.4293 37.15 36.4676C37.0654 36.5059 36.9913 36.5641 36.934 36.6372C36.8173 36.8074 36.7597 37.0112 36.77 37.2172V38.4872H35.922L35.92 35.7192ZM35.4 37.8152C35.2712 38.0453 35.0852 38.2381 34.86 38.3752C34.619 38.5162 34.3431 38.5862 34.064 38.5772C33.859 38.579 33.6555 38.5423 33.464 38.4692C33.2878 38.3969 33.1269 38.2917 32.99 38.1592C32.8488 38.0225 32.7377 37.8578 32.664 37.6756C32.5903 37.4933 32.5555 37.2977 32.562 37.1012C32.562 36.9012 32.598 36.7132 32.674 36.5372C32.7459 36.3615 32.852 36.2018 32.986 36.0672C33.1232 35.9259 33.2878 35.814 33.4697 35.7383C33.6516 35.6627 33.847 35.6249 34.044 35.6272C34.2509 35.6225 34.4565 35.6606 34.648 35.7392C34.8129 35.8107 34.9609 35.916 35.0825 36.0483C35.2041 36.1806 35.2966 36.337 35.354 36.5072C35.4432 36.7653 35.4686 37.0412 35.428 37.3112H33.388C33.428 37.4912 33.514 37.6232 33.642 37.7072C33.7694 37.7896 33.9183 37.8328 34.07 37.8312C34.1997 37.8376 34.3286 37.8071 34.4419 37.7434C34.5551 37.6798 34.648 37.5854 34.71 37.4712L35.4 37.8152ZM34.648 36.7352C34.6369 36.6827 34.6166 36.6326 34.588 36.5872C34.56 36.5327 34.5204 36.4849 34.472 36.4472C34.4181 36.3989 34.3548 36.3621 34.286 36.3392C34.2038 36.306 34.1156 36.2899 34.027 36.292C33.9383 36.2941 33.851 36.3143 33.7704 36.3514C33.6899 36.3885 33.6178 36.4417 33.5585 36.5077C33.4993 36.5737 33.4542 36.6511 33.426 36.7352H34.648ZM32.164 37.8152C32.0352 38.0453 31.8492 38.2381 31.624 38.3752C31.3836 38.5158 31.1084 38.5859 30.83 38.5772C30.625 38.579 30.4215 38.5423 30.23 38.4692C30.0538 38.3969 29.8929 38.2917 29.756 38.1592C29.6144 38.0227 29.503 37.858 29.4289 37.6758C29.3549 37.4936 29.3198 37.2978 29.326 37.1012C29.326 36.9012 29.364 36.7132 29.44 36.5372C29.5114 36.3617 29.6167 36.202 29.75 36.0672C29.8872 35.9259 30.0518 35.814 30.2337 35.7383C30.4156 35.6627 30.611 35.6249 30.808 35.6272C31.038 35.6272 31.238 35.6632 31.412 35.7392C31.5769 35.8107 31.7249 35.916 31.8465 36.0483C31.9681 36.1806 32.0606 36.337 32.118 36.5072C32.2072 36.7653 32.2326 37.0412 32.192 37.3112H30.152C30.192 37.4912 30.278 37.6232 30.406 37.7072C30.534 37.79 30.6836 37.8332 30.836 37.8312C30.9657 37.8376 31.0946 37.8071 31.2079 37.7434C31.3211 37.6798 31.414 37.5854 31.476 37.4712L32.164 37.8152ZM31.412 36.7352C31.4021 36.683 31.3832 36.6329 31.356 36.5872C31.3269 36.5323 31.2859 36.4844 31.236 36.4472C31.1821 36.3989 31.1188 36.3621 31.05 36.3392C30.9678 36.306 30.8796 36.2899 30.791 36.292C30.7023 36.2941 30.615 36.3143 30.5344 36.3514C30.4539 36.3885 30.3818 36.4417 30.3225 36.5077C30.2633 36.5737 30.2182 36.6511 30.19 36.7352H31.412ZM27.576 36.4472L27.09 36.4392L27.098 35.6632L27.598 35.6872L27.584 34.8672L28.408 34.8752L28.376 35.6552L29.11 35.6952L29.086 36.4052L28.356 36.4212L28.382 37.3612C28.358 37.5452 28.426 37.6512 28.436 37.7492C28.596 37.9492 28.71 37.8852 28.71 37.8852C28.75 37.8692 29.034 37.8312 29.064 37.8092L29.144 38.5852C28.868 38.7492 28.39 38.6572 28.39 38.6572C27.884 38.5832 27.624 38.2232 27.622 38.0712C27.572 37.9352 27.586 37.6512 27.564 37.4912L27.576 36.4472ZM26.752 37.8812C26.678 38.1332 26.408 38.3172 26.186 38.4512C25.9409 38.5983 25.6598 38.6745 25.374 38.6712C25.1533 38.6578 24.9367 38.6057 24.734 38.5172C24.554 38.4412 24.404 38.2912 24.268 38.1572C24.132 38.0272 24.082 37.8732 24.006 37.6972C23.9365 37.4983 23.906 37.2878 23.916 37.0772C23.886 36.6892 24.168 36.3212 24.34 36.0672C24.9 35.5912 25.32 35.6272 25.32 35.6272C26.094 35.4772 26.712 36.2032 26.756 36.5012C26.816 36.6732 26.8 36.8612 26.8 37.0612C26.79 37.1692 26.8 37.1612 26.738 37.3112H24.664C24.704 37.4912 24.79 37.6952 24.872 37.7912C24.968 37.9112 25.128 37.9112 25.286 37.9112C25.444 37.9112 25.612 37.9152 25.714 37.8472C25.82 37.7792 26.058 37.7032 26.12 37.5972L26.752 37.8812ZM26.012 36.7652C25.9938 36.6974 25.9669 36.6322 25.932 36.5712C25.904 36.5192 25.832 36.4792 25.78 36.4392C25.732 36.3932 25.638 36.3652 25.562 36.3392C25.4852 36.3079 25.4029 36.2922 25.32 36.2932C25.1994 36.2906 25.0813 36.3279 24.984 36.3992C24.87 36.4732 24.79 36.6392 24.738 36.7792L26.012 36.7652ZM21.332 36.0212H21.388C21.46 35.9049 21.5614 35.8097 21.682 35.7452C21.8377 35.6608 22.013 35.6194 22.19 35.6252C22.3661 35.6243 22.5404 35.6608 22.7014 35.7321C22.8624 35.8035 23.0064 35.9082 23.124 36.0392C23.2518 36.1728 23.3518 36.3306 23.418 36.5032C23.49 36.6832 23.524 36.8832 23.524 37.1032C23.5274 37.3082 23.4914 37.5119 23.418 37.7032C23.3507 37.8766 23.2509 38.0354 23.124 38.1712C23.0039 38.2986 22.8592 38.4002 22.6986 38.47C22.5381 38.5398 22.365 38.5763 22.19 38.5772C22.0139 38.5837 21.8391 38.5452 21.682 38.4652C21.5615 38.397 21.4604 38.2993 21.388 38.1812H21.332L21.388 38.5772V39.7072H20.54V35.7192H21.332V36.0212ZM22.004 36.4172C21.8729 36.4174 21.7446 36.4554 21.6346 36.5267C21.5246 36.598 21.4376 36.6996 21.384 36.8192C21.3484 36.909 21.3308 37.0048 21.332 37.1012C21.332 37.2072 21.348 37.3032 21.382 37.3912C21.418 37.4709 21.4681 37.5434 21.53 37.6052C21.594 37.6612 21.666 37.7052 21.744 37.7412C21.9101 37.8013 22.0919 37.8013 22.258 37.7412C22.3378 37.7096 22.411 37.6635 22.474 37.6052C22.5375 37.5452 22.5873 37.4722 22.62 37.3912C22.6586 37.2995 22.6777 37.2008 22.676 37.1012C22.6771 37.0121 22.6605 36.9237 22.6272 36.841C22.594 36.7583 22.5447 36.683 22.4823 36.6195C22.4198 36.5559 22.3454 36.5053 22.2633 36.4706C22.1812 36.4359 22.0931 36.4178 22.004 36.4172ZM17.952 36.0212H18.012C18.0834 35.9052 18.1841 35.81 18.304 35.7452C18.4597 35.6608 18.635 35.6194 18.812 35.6252C18.9878 35.6246 19.1617 35.6612 19.3223 35.7325C19.4829 35.8039 19.6266 35.9084 19.744 36.0392C19.8718 36.1728 19.9718 36.3306 20.038 36.5032C20.11 36.6832 20.146 36.8832 20.146 37.1032C20.1488 37.3083 20.1121 37.512 20.038 37.7032C19.9707 37.8766 19.8709 38.0354 19.744 38.1712C19.6241 38.2983 19.4797 38.3998 19.3195 38.4696C19.1594 38.5394 18.9867 38.576 18.812 38.5772C18.6359 38.5837 18.4611 38.5452 18.304 38.4652C18.1835 38.397 18.0824 38.2993 18.01 38.1812H17.952L18.012 38.5772V39.7072H17.16V35.7192H17.95L17.952 36.0212ZM18.626 36.4172C18.4949 36.4174 18.3666 36.4554 18.2566 36.5267C18.1466 36.598 18.0596 36.6996 18.006 36.8192C17.9698 36.9088 17.9514 37.0046 17.952 37.1012C17.952 37.2072 17.972 37.3032 18.004 37.3912C18.0394 37.4708 18.0889 37.5433 18.15 37.6052C18.214 37.6612 18.286 37.7052 18.366 37.7412C18.5321 37.8013 18.7139 37.8013 18.88 37.7412C18.9591 37.7094 19.0316 37.6633 19.094 37.6052C19.1582 37.5455 19.2087 37.4724 19.242 37.3912C19.2806 37.2995 19.2997 37.2008 19.298 37.1012C19.2993 36.966 19.2599 36.8334 19.185 36.7207C19.1102 36.6081 19.0032 36.5205 18.878 36.4692C18.7984 36.435 18.7127 36.4173 18.626 36.4172ZM15.76 38.1372H15.704C15.6149 38.2797 15.4892 38.3956 15.3401 38.473C15.1909 38.5504 15.0238 38.5864 14.856 38.5772C14.508 38.5772 14.25 38.4672 14.082 38.2432C13.9016 37.9878 13.8116 37.6796 13.826 37.3672V35.7172H14.674V37.2712C14.674 37.4232 14.71 37.5472 14.782 37.6452C14.854 37.7392 14.964 37.7852 15.116 37.7852C15.2012 37.7895 15.2861 37.7715 15.3622 37.7329C15.4384 37.6943 15.5031 37.6365 15.55 37.5652C15.6591 37.3935 15.7128 37.1925 15.704 36.9892V35.7172H16.552V38.4872H15.76V38.1372ZM10.572 38.4872V34.4392H12.02C12.2142 34.4372 12.4072 34.4697 12.59 34.5352C12.7599 34.5944 12.9163 34.6869 13.05 34.8072C13.1789 34.921 13.2813 35.0617 13.35 35.2192C13.4223 35.39 13.4584 35.5738 13.456 35.7592C13.4577 35.9428 13.4209 36.1247 13.348 36.2932C13.2778 36.4547 13.1738 36.5993 13.0431 36.7173C12.9123 36.8353 12.7578 36.9239 12.59 36.9772C12.4072 37.0428 12.2142 37.0753 12.02 37.0732H11.454V38.4872H10.572ZM12.048 36.2372C12.232 36.2372 12.368 36.1912 12.46 36.1012C12.5049 36.0562 12.54 36.0024 12.5634 35.9432C12.5868 35.8841 12.5979 35.8208 12.596 35.7572C12.5982 35.6933 12.5872 35.6297 12.5638 35.5702C12.5404 35.5106 12.5051 35.4566 12.46 35.4112C12.37 35.3212 12.232 35.2752 12.048 35.2752H11.454V36.2352L12.048 36.2372ZM36.22 5.51524L35.032 5.61524L35.504 11.4792L36.756 12.2052L36.22 5.51524ZM12.188 5.53524L11.596 12.0192L12.844 11.4192L13.376 5.63924L12.188 5.53524ZM11.208 15.9012L11.12 17.0152L8.626 23.2892C8.194 23.7372 8.01 24.3172 8.012 24.9392L8 45.6792C8 47.0172 8.98 47.9992 10.316 47.9992H37.78C39.12 47.9992 40.28 47.1112 40.28 45.7792V24.9692C40.28 24.3572 40.08 23.8492 39.708 23.4212L37.02 15.4952L37.008 15.3592L35.858 15.8732L36.392 22.5332H11.832L12.306 17.3032L12.758 16.1272L12.426 15.9992L12.43 15.9392L11.208 15.9012ZM37.432 20.5812L38.078 22.5552C37.902 22.5272 37.762 22.5432 37.588 22.5352L37.432 20.5812ZM10.8 21.0452L10.632 22.5332C10.516 22.5232 10.392 22.5432 10.288 22.5472L10.8 21.0452ZM10.44 23.3132L37.78 23.3292C38.72 23.3292 39.486 24.0172 39.486 24.9592V26.5512H8.766V24.9592C8.766 24.0192 9.494 23.3132 10.44 23.3132ZM10.71 24.4192C10.6387 24.4187 10.5681 24.4323 10.5021 24.4592C10.4361 24.4861 10.3761 24.5258 10.3256 24.576C10.275 24.6262 10.2349 24.6859 10.2075 24.7517C10.1801 24.8174 10.166 24.888 10.166 24.9592C10.166 25.6792 11.25 25.6792 11.25 24.9592C11.25 24.816 11.1931 24.6787 11.0918 24.5774C10.9906 24.4761 10.8532 24.4192 10.71 24.4192ZM12.55 24.4192C11.83 24.4192 11.83 25.4992 12.55 25.4992C13.27 25.4992 13.274 24.4192 12.554 24.4192H12.55ZM14.342 24.4192C13.562 24.3512 13.562 25.5632 14.342 25.4952C15.002 25.4392 15.002 24.4752 14.342 24.4192ZM8.766 27.2672H39.486V45.5732C39.486 46.7632 38.726 47.2652 37.78 47.2632L10.444 47.2552C10.2223 47.2585 10.0022 47.2172 9.79681 47.1338C9.59139 47.0504 9.40481 46.9266 9.24813 46.7697C9.09145 46.6128 8.96786 46.4261 8.8847 46.2206C8.80154 46.0151 8.76049 45.7949 8.764 45.5732L8.766 27.2672ZM12.532 36.1072C12.672 35.8732 12.672 35.8872 12.668 35.7352C12.652 35.5892 12.66 35.5832 12.562 35.4652C12.454 35.3572 12.316 35.1892 12.162 35.1972H11.388L11.348 36.2972H12.162C12.406 36.2932 12.482 36.1272 12.532 36.1072ZM12.162 34.4472C12.3251 34.4388 12.4882 34.4649 12.6405 34.5238C12.7929 34.5828 12.931 34.6732 13.046 34.7892C13.266 35.0232 13.374 35.3352 13.374 35.7192C13.3916 36.0572 13.2769 36.3886 13.054 36.6432C12.82 36.8832 12.528 37.0632 12.194 37.0492L11.394 37.0652L11.386 38.6132L10.562 38.5872L10.552 34.4112L12.162 34.4472ZM15.748 36.9672L15.724 35.7192L16.456 35.7112L16.464 38.5812L15.744 38.5892V38.3452C15.6277 38.451 15.4912 38.5321 15.3427 38.5837C15.1942 38.6352 15.0368 38.6562 14.88 38.6452C14.7283 38.6523 14.5768 38.6282 14.4348 38.5746C14.2927 38.5209 14.1631 38.4388 14.054 38.3332C13.848 38.1132 13.794 37.7132 13.808 37.4132L13.8 35.7192H14.544L14.528 37.2592C14.5176 37.4261 14.5712 37.5906 14.678 37.7192C14.7262 37.7771 14.7868 37.8234 14.8554 37.8546C14.924 37.8857 14.9987 37.901 15.074 37.8992C15.524 37.8992 15.746 37.5872 15.746 36.9632L15.748 36.9672ZM19.358 37.1212C19.3616 37.0202 19.3438 36.9195 19.3059 36.8258C19.268 36.7321 19.2108 36.6474 19.138 36.5772C18.998 36.4312 18.908 36.3412 18.702 36.3472C18.502 36.3472 18.33 36.3832 18.17 36.5352C18.0925 36.6113 18.0318 36.7027 17.9918 36.8036C17.9519 36.9046 17.9335 37.0128 17.938 37.1212C17.938 37.3612 18.014 37.5552 18.172 37.7012C18.312 37.8472 18.508 37.9292 18.712 37.9292C18.916 37.9352 19.044 37.8232 19.188 37.6772C19.362 37.4892 19.308 37.2572 19.358 37.1212ZM18.834 35.6012C19.186 35.6012 19.5 35.8212 19.766 36.0912C19.897 36.228 19.9994 36.3895 20.0671 36.5664C20.1347 36.7433 20.1663 36.932 20.16 37.1212C20.1667 37.3097 20.1352 37.4975 20.0675 37.6734C19.9998 37.8494 19.8972 38.0099 19.766 38.1452C19.58 38.4652 19.146 38.6552 18.794 38.6532C18.474 38.6632 18.074 38.5212 17.938 38.2592L17.946 39.7792L17.146 39.7912L17.106 35.7112L17.938 35.6712V35.9852C18.19 35.7792 18.508 35.5852 18.834 35.5992V35.6012ZM22.838 37.1292C22.81 36.8092 22.75 36.7232 22.604 36.5632C22.46 36.4152 22.37 36.3892 22.164 36.3932C21.964 36.3932 21.808 36.3832 21.65 36.5332C21.5722 36.6095 21.5114 36.7012 21.4714 36.8025C21.4314 36.9039 21.4132 37.0124 21.418 37.1212C21.418 37.3612 21.494 37.5552 21.65 37.7012C21.79 37.8472 21.986 37.9292 22.19 37.9292C22.394 37.9352 22.498 37.7992 22.642 37.6552C22.788 37.4952 22.814 37.3052 22.838 37.1292ZM22.202 35.6292C22.556 35.6292 22.98 35.8212 23.246 36.0892C23.3775 36.2262 23.4802 36.388 23.5482 36.5653C23.6162 36.7425 23.6481 36.9315 23.642 37.1212C23.6484 37.3098 23.6166 37.4977 23.5486 37.6737C23.4805 37.8496 23.3776 38.01 23.246 38.1452C23.036 38.4452 22.558 38.6552 22.202 38.6532C22.0493 38.6554 21.8983 38.6208 21.7618 38.5522C21.6253 38.4836 21.5074 38.3831 21.418 38.2592V39.7592L20.608 39.7792L20.562 35.7112H21.418V35.9852C21.67 35.7792 21.878 35.6172 22.202 35.6292ZM24.738 36.7812L26.012 36.7652C25.978 36.6172 25.886 36.5252 25.764 36.4332C25.6441 36.3516 25.5021 36.3085 25.3571 36.3096C25.212 36.3106 25.0707 36.3559 24.952 36.4392C24.782 36.5752 24.844 36.5512 24.738 36.7792V36.7812ZM25.364 35.6312C25.722 35.6252 26.214 35.7872 26.468 36.0372C26.734 36.2972 26.782 36.6532 26.8 37.0612L26.738 37.3112H24.678C24.718 37.5012 24.766 37.6832 24.886 37.7992C25.004 37.9112 25.192 37.9392 25.354 37.9392C25.4987 37.9414 25.6421 37.9121 25.7743 37.8534C25.9066 37.7947 26.0245 37.706 26.12 37.5972L26.752 37.8812C26.66 38.1612 26.378 38.3272 26.144 38.4732C25.8951 38.6114 25.6123 38.6765 25.328 38.6612C24.96 38.6672 24.572 38.4292 24.314 38.1672C24.1807 38.0286 24.0765 37.8645 24.0078 37.6848C23.9391 37.5052 23.9072 37.3135 23.914 37.1212C23.914 36.7012 24.102 36.3572 24.374 36.0852C24.634 35.8212 24.994 35.6212 25.364 35.6312ZM28.71 37.8852C28.87 37.8792 28.93 37.8892 29.066 37.8092L29.146 38.5852C28.932 38.7112 28.876 38.6612 28.626 38.6692C28.3203 38.6697 28.0248 38.5596 27.794 38.3592C27.606 38.1792 27.6 37.8392 27.6 37.4732L27.576 36.4472L27.09 36.4392L27.098 35.6632L27.598 35.6872L27.584 34.8672L28.408 34.8752L28.376 35.6552L29.11 35.6952L29.086 36.4052L28.356 36.4212L28.362 37.4352C28.366 37.7452 28.446 37.8852 28.712 37.8852H28.71ZM30.21 36.8052H31.518C31.4848 36.6566 31.3997 36.5247 31.278 36.4332C31.1579 36.3512 31.0155 36.3078 30.8701 36.3089C30.7246 36.3099 30.5829 36.3554 30.464 36.4392C30.3351 36.5246 30.2441 36.6544 30.21 36.8052ZM30.886 35.6312C31.256 35.6312 31.622 35.8152 31.886 36.0712C32.152 36.3312 32.232 36.6612 32.252 37.0712V37.3112H30.192C30.2195 37.4856 30.3039 37.6459 30.432 37.7672C30.5492 37.8794 30.7058 37.9412 30.868 37.9392C31.178 37.9392 31.462 37.8192 31.602 37.5792L32.202 37.8792C32.102 38.1392 31.962 38.2592 31.726 38.4032C31.45 38.5602 31.1394 38.6461 30.822 38.6532C30.6333 38.6488 30.4474 38.607 30.275 38.53C30.1027 38.4531 29.9473 38.3427 29.818 38.2052C29.5432 37.912 29.3939 37.523 29.402 37.1212C29.402 36.7012 29.614 36.3572 29.882 36.0852C30.146 35.8212 30.514 35.6212 30.882 35.6312H30.886ZM33.426 36.8052H34.734C34.7008 36.6566 34.6157 36.5247 34.494 36.4332C34.3739 36.3512 34.2315 36.3078 34.0861 36.3089C33.9406 36.3099 33.7989 36.3554 33.68 36.4392C33.5511 36.5246 33.4601 36.6544 33.426 36.8052ZM34.1 35.6312C34.4772 35.645 34.835 35.8024 35.1 36.0712C35.368 36.3312 35.448 36.6612 35.468 37.0712V37.3112H33.408C33.4355 37.4856 33.5199 37.6459 33.648 37.7672C33.7647 37.8789 33.9204 37.9406 34.082 37.9392C34.39 37.9392 34.676 37.8192 34.818 37.5792L35.418 37.8792C35.318 38.1392 35.178 38.2592 34.942 38.4032C34.6649 38.5609 34.3528 38.6468 34.034 38.6532C33.846 38.6482 33.6609 38.606 33.4893 38.5291C33.3176 38.4522 33.1629 38.3422 33.034 38.2052C32.7592 37.912 32.6099 37.523 32.618 37.1212C32.618 36.7012 32.83 36.3572 33.098 36.0852C33.358 35.8212 33.73 35.6212 34.1 35.6312ZM37.976 35.7112L37.842 36.4392L37.482 36.3932C36.838 36.3932 36.762 36.8072 36.762 37.5832V38.5632L35.976 38.5732L35.992 35.7132H36.722L36.714 36.1532C37.004 35.8132 37.144 35.5812 37.974 35.7132L37.976 35.7112ZM35.21 15.8192L35.25 15.0872L37.884 13.7132L37.898 14.5052L35.21 15.8192ZM10.22 13.6792L12.92 15.0392L12.904 15.8252L10.276 14.5252L10.22 13.6792ZM24.64 10.1832L34.318 15.0792V15.8632L24.616 10.9432L24.64 10.1832ZM13.888 15.0192L23.676 10.1792L23.662 10.9272L13.876 15.8152L13.888 15.0192ZM20.822 7.07124L10.976 2.19724L13.42 0.98724L24.124 6.47524L34.81 0.93124L37.324 2.23124L27.472 7.18724C27.08 7.38324 27.212 7.96324 27.606 8.15924L37.282 12.9992L34.842 14.2432L24.136 8.84924L13.38 14.2572L10.834 12.9892L20.83 8.02324C20.9186 7.97855 20.993 7.90997 21.0447 7.82523C21.0963 7.7405 21.1233 7.643 21.1224 7.54375C21.1216 7.44451 21.093 7.34747 21.0399 7.26362C20.9868 7.17976 20.9114 7.11443 20.822 7.07124ZM10.258 3.77524L10.272 3.02124L19.486 7.57324L18.79 7.97324L10.258 3.77524ZM29.554 7.92924L28.734 7.56124L37.926 2.95524L37.87 3.77924L29.554 7.92924ZM30.398 8.54124L38.646 4.40124C38.6875 4.38119 38.7225 4.34998 38.7472 4.31113C38.772 4.27227 38.7854 4.22729 38.786 4.18124V2.22124C38.786 2.12924 38.77 1.94924 38.686 1.90724L34.806 0.02724C34.771 0.00933641 34.7323 0 34.693 0C34.6537 0 34.615 0.00933641 34.58 0.02724L24.246 5.27324C24.2118 5.29031 24.1742 5.2992 24.136 5.2992C24.0978 5.2992 24.0602 5.29031 24.026 5.27324L13.498 0.0292399C13.4638 0.0123151 13.4262 0.00351006 13.388 0.00351006C13.3498 0.00351006 13.3122 0.0123151 13.278 0.0292399L9.372 1.87524C9.292 1.91524 9.332 2.09524 9.332 2.18924V4.17924C9.332 4.27324 9.384 4.35924 9.472 4.39924L17.752 8.49324L9.52 12.4772C9.44 12.5172 9.304 12.6012 9.3 12.6932L9.334 14.7612C9.33287 14.8079 9.34507 14.854 9.36915 14.894C9.39323 14.934 9.42821 14.9664 9.47 14.9872L13.336 16.9592C13.404 16.9952 13.58 17.0192 13.65 16.9872L24.022 11.7832C24.0562 11.7663 24.0938 11.7575 24.132 11.7575C24.1702 11.7575 24.2078 11.7663 24.242 11.7832L34.482 16.9892C34.5162 17.0062 34.5538 17.015 34.592 17.015C34.6302 17.015 34.6678 17.0062 34.702 16.9892L38.646 15.0812C38.73 15.0412 38.852 14.9812 38.854 14.8892L38.84 12.8232C38.84 12.7292 38.746 12.5232 38.66 12.4832L30.398 8.54124Z" fill="#69FF00"/>
</svg>
