<svg width="49" height="45" viewBox="0 0 49 45" fill="none" xmlns="http://www.w3.org/2000/svg">
<g clip-path="url(#clip0_73_528)">
<path d="M24.9972 26.3996C27.427 26.3996 29.3967 24.4299 29.3967 22.0001C29.3967 19.5703 27.427 17.6006 24.9972 17.6006C22.5674 17.6006 20.5977 19.5703 20.5977 22.0001C20.5977 24.4299 22.5674 26.3996 24.9972 26.3996Z" fill="#087EA4"/>
<path d="M24.9977 31.899C37.1466 31.899 46.9953 27.4671 46.9953 22C46.9953 16.533 37.1466 12.1011 24.9977 12.1011C12.8487 12.1011 3 16.533 3 22C3 27.4671 12.8487 31.899 24.9977 31.899Z" stroke="#087EA4" stroke-width="2.19977"/>
<path d="M16.4256 26.9495C22.5001 37.4708 31.2626 43.784 35.9972 41.0505C40.7318 38.317 39.6456 27.5718 33.5711 17.0505C27.4966 6.52921 18.7341 0.215954 13.9995 2.94947C9.26494 5.68299 10.3511 16.4282 16.4256 26.9495Z" stroke="#087EA4" stroke-width="2.19977"/>
<path d="M16.4241 17.0506C10.3496 27.5719 9.26338 38.3171 13.998 41.0506C18.7326 43.7841 27.495 37.4708 33.5695 26.9495C39.644 16.4282 40.7302 5.68303 35.9956 2.94952C31.261 0.215997 22.4985 6.52926 16.4241 17.0506Z" stroke="#087EA4" stroke-width="2.19977"/>
</g>
<defs>
<clipPath id="clip0_73_528">
<rect width="48" height="43.2" fill="white" transform="translate(0.5 0.849976)"/>
</clipPath>
</defs>
</svg>
