<svg width="48" height="48" viewBox="0 0 48 48" fill="none" xmlns="http://www.w3.org/2000/svg">
<path d="M33.9659 2.00333C33.1526 1.97599 32.3014 2.11777 31.4479 2.39447C29.741 2.94787 27.9523 4.02631 26.1166 5.5195C25.3972 6.10469 24.6713 6.77361 23.943 7.48334C23.2307 6.79163 22.5197 6.13862 21.8161 5.56636C19.982 4.07437 18.1981 2.99755 16.495 2.4454C14.792 1.89326 13.0974 1.87615 11.7056 2.67968C10.3139 3.48321 9.48159 4.95823 9.10823 6.70922C8.73486 8.4602 8.77395 10.5454 9.14897 12.8798C9.27923 13.6907 9.46704 14.5414 9.67864 15.408C8.88339 15.649 8.1111 15.9024 7.39496 16.1821C5.23369 17.0262 3.44537 18.0361 2.14311 19.2379C0.840856 20.4396 0 21.8981 0 23.4996C0 25.1012 0.840856 26.5576 2.14311 27.7594C3.44537 28.9611 5.23369 29.973 7.39496 30.8172C8.16073 31.1163 8.9898 31.3856 9.84568 31.6402C9.53783 32.7905 9.2884 33.9068 9.11841 34.9649C8.74309 37.3012 8.70346 39.3867 9.07767 41.1416C9.45188 42.8966 10.2846 44.3799 11.6832 45.1874C13.0819 45.9949 14.784 45.9751 16.491 45.4217C18.1979 44.8683 19.9846 43.7919 21.8202 42.2987C22.533 41.7189 23.254 41.0575 23.9756 40.3553C24.7006 41.0614 25.4251 41.7265 26.1411 42.3089C27.9752 43.8009 29.7611 44.8777 31.4642 45.4299C33.1673 45.982 34.8598 45.9991 36.2516 45.1956C37.6433 44.3921 38.4756 42.917 38.849 41.1661C39.2224 39.4151 39.1812 37.3299 38.8062 34.9954C38.6358 33.9344 38.3862 32.8165 38.0769 31.6626C38.9611 31.4018 39.8163 31.1252 40.605 30.8172C42.7663 29.973 44.5546 28.9611 45.8569 27.7594C47.1591 26.5576 48 25.1012 48 23.4996C48 21.8981 47.1591 20.4396 45.8569 19.2379C44.5546 18.0361 42.7663 17.0262 40.605 16.1821C39.8786 15.8984 39.0945 15.6417 38.2867 15.3978C38.5 14.5259 38.6894 13.6691 38.8205 12.8533C39.1958 10.517 39.2354 8.42954 38.8612 6.67458C38.487 4.91963 37.6523 3.43829 36.2536 2.63079C35.5543 2.22703 34.7791 2.03068 33.9659 2.00333ZM33.8701 4.12607C34.3804 4.14003 34.8158 4.26147 35.1882 4.47647C35.933 4.90647 36.4835 5.74336 36.7772 7.12073C37.0709 8.49809 37.0607 10.359 36.714 12.5172C36.5953 13.2561 36.423 14.0392 36.2271 14.8416C34.0942 14.3283 31.757 13.9472 29.2661 13.7232C28.0147 11.9894 26.7285 10.4123 25.4321 9.01123C26.1176 8.34216 26.7985 7.71641 27.4632 7.17573C29.1589 5.79639 30.7642 4.85783 32.1039 4.4235C32.7737 4.20634 33.3598 4.11212 33.8701 4.12607ZM14.0769 4.13219C14.5902 4.11786 15.1775 4.21182 15.8492 4.42961C17.1928 4.8652 18.8009 5.80334 20.4981 7.18388C21.1493 7.71358 21.8153 8.32569 22.4864 8.97863C21.1806 10.3908 19.8854 11.9845 18.6259 13.7334C16.1439 13.9615 13.815 14.3462 11.6914 14.862C11.4968 14.0635 11.3267 13.2835 11.2086 12.5478C10.8616 10.3877 10.8529 8.52447 11.1474 7.14314C11.442 5.7618 11.997 4.92063 12.7487 4.48665C13.1245 4.26967 13.5636 4.14651 14.0769 4.13219ZM23.9756 10.5126C24.8251 11.4372 25.6752 12.4493 26.518 13.5378C25.6898 13.5033 24.8514 13.4828 24 13.4828C23.1316 13.4828 22.2773 13.504 21.4332 13.5399C22.2762 12.4503 23.1257 11.438 23.9756 10.5126ZM24 15.5893C25.4184 15.5893 26.8009 15.6476 28.1457 15.7461C29.071 17.0751 29.9752 18.485 30.8368 19.9774C31.5938 21.2886 32.2789 22.5978 32.9025 23.8908C32.2723 25.2009 31.5758 26.5278 30.8083 27.8572C30.1326 29.0274 29.4271 30.1388 28.71 31.2104C27.191 31.3373 25.617 31.408 24 31.408C22.3441 31.408 20.7347 31.3331 19.1821 31.2002C18.4769 30.144 17.7832 29.0474 17.1184 27.8959C16.3527 26.5696 15.6594 25.2471 15.0303 23.9397C15.6621 22.6249 16.3584 21.293 17.1286 19.959C17.9857 18.4745 18.8873 17.0728 19.8075 15.7502C21.1667 15.6494 22.5653 15.5893 24 15.5893ZM30.8327 16.0069C32.5514 16.2214 34.1651 16.5194 35.6669 16.8768C35.2211 18.3382 34.672 19.8647 34.0066 21.4401C33.5746 20.6073 33.1272 19.7717 32.6437 18.9343C32.0582 17.9201 31.4494 16.9517 30.8327 16.0069ZM17.0573 16.0232C16.4533 16.9508 15.8589 17.8994 15.285 18.8936C14.7953 19.7417 14.3386 20.5885 13.9017 21.4319C13.2421 19.866 12.6963 18.3482 12.2536 16.8951C13.7449 16.537 15.3499 16.2402 17.0573 16.0232ZM37.7306 17.4309C38.47 17.6546 39.1841 17.8881 39.8391 18.1439C41.8314 18.9221 43.4074 19.8435 44.4288 20.7861C45.4503 21.7287 45.8936 22.6276 45.8936 23.4996C45.8936 24.3717 45.4503 25.2706 44.4288 26.2132C43.4074 27.1557 41.8314 28.0772 39.8391 28.8554C39.1112 29.1397 38.3114 29.3975 37.48 29.6417C36.8869 27.8073 36.1299 25.8934 35.2289 23.9397C36.2648 21.6966 37.1017 19.5096 37.7306 17.4309ZM10.2348 17.4411C10.8565 19.4989 11.6826 21.6644 12.7038 23.8847C11.797 25.8498 11.0362 27.7745 10.4405 29.6193C9.6384 29.3815 8.86578 29.1307 8.16094 28.8554C6.16858 28.0772 4.59261 27.1557 3.57117 26.2132C2.54974 25.2706 2.10644 24.3717 2.10644 23.4996C2.10644 22.6276 2.54974 21.7287 3.57117 20.7861C4.59261 19.8435 6.16858 18.9221 8.16094 18.1439C8.80587 17.892 9.50798 17.6619 10.2348 17.4411ZM24 18.7082C21.1321 18.7082 18.7848 21.0555 18.7848 23.9234C18.7848 26.7913 21.1321 29.1386 24 29.1386C26.8679 29.1386 29.2152 26.7913 29.2152 23.9234C29.2152 21.0555 26.8679 18.7082 24 18.7082ZM24 20.7943C25.7405 20.7943 27.1291 22.1829 27.1291 23.9234C27.1291 25.6639 25.7405 27.0525 24 27.0525C22.2595 27.0525 20.8709 25.6639 20.8709 23.9234C20.8709 22.1829 22.2595 20.7943 24 20.7943ZM34.0331 26.3884C34.5801 27.683 35.0556 28.9498 35.4551 30.1714C34.2007 30.4623 32.8651 30.7073 31.4601 30.9007C31.8646 30.2554 32.264 29.5981 32.6539 28.9226C33.1428 28.0759 33.5968 27.2303 34.0331 26.3884ZM13.9262 26.3904C14.3648 27.2376 14.8216 28.0869 15.3135 28.9389C15.6985 29.6059 16.0918 30.2571 16.491 30.8946C15.0902 30.7004 13.7587 30.4545 12.5083 30.1633C12.9059 28.9454 13.3816 27.6812 13.9262 26.3904ZM11.9073 32.1882C13.795 32.6354 15.8411 32.9789 18.0107 33.2027C19.4593 35.2979 20.9676 37.1796 22.4864 38.8253C21.8073 39.4874 21.1343 40.1088 20.4757 40.6445C18.78 42.0239 17.1726 42.9604 15.833 43.3947C14.4933 43.8291 13.4934 43.7718 12.7487 43.3418C12.0039 42.9118 11.4554 42.0749 11.1617 40.6975C10.868 39.3201 10.8761 37.4612 11.2228 35.3031C11.3801 34.324 11.6152 33.2756 11.9073 32.1882ZM36.0581 32.1964C36.3524 33.2898 36.5885 34.3431 36.7466 35.3275C37.0936 37.4875 37.1023 39.3488 36.8077 40.7301C36.5132 42.1114 35.9602 42.9546 35.2086 43.3886C34.4569 43.8226 33.4495 43.8812 32.1059 43.4457C30.7624 43.0101 29.1542 42.0699 27.4571 40.6894C26.7937 40.1497 26.116 39.5254 25.4321 38.8579C26.9608 37.206 28.4803 35.3141 29.9384 33.2068C32.1135 32.9845 34.1652 32.643 36.0581 32.1964ZM20.7324 33.4166C21.8033 33.475 22.8884 33.5144 24 33.5144C25.0749 33.5144 26.1247 33.4774 27.1617 33.4227C26.1017 34.8529 25.0212 36.1531 23.945 37.3239C22.8695 36.1506 21.791 34.8481 20.7324 33.4166Z" fill="#69FF00"/>
</svg>
