<svg width="48" height="48" viewBox="0 0 48 48" fill="none" xmlns="http://www.w3.org/2000/svg">
<g clip-path="url(#clip0_66_347)">
<path d="M24 0C10.746 0 0 10.746 0 24C0 37.256 10.746 48 24 48C37.256 48 48 37.256 48 24C48 10.746 37.256 0 24 0ZM24 2.226C36.006 2.226 45.774 11.994 45.774 24C45.774 36.006 36.006 45.774 24 45.774C11.994 45.774 2.226 36.006 2.226 24C2.226 11.994 11.994 2.226 24 2.226ZM38.06 12.628C36.988 12.624 35.5 13.236 33.55 14.824C31.446 16.54 25.922 20.914 25.922 20.914L27.972 23.514C37.36 18.398 40.352 17.18 40.204 14.926C40.12 13.658 39.436 12.634 38.058 12.628H38.06ZM37.046 14.132C37.34 14.132 37.578 14.344 37.578 14.61C37.578 14.874 37.34 15.086 37.046 15.086C36.754 15.086 36.516 14.874 36.516 14.61C36.516 14.268 36.84 14.132 37.046 14.132ZM33.886 17.11C33.886 17.372 33.65 17.586 33.356 17.586C33.062 17.586 32.828 17.372 32.828 17.11C32.828 16.854 33.048 16.642 33.308 16.63C33.568 16.618 33.886 16.784 33.886 17.11ZM29.668 19.13C29.962 19.13 30.2 19.342 30.2 19.606C30.2 19.87 29.96 20.082 29.668 20.082C29.376 20.082 29.136 19.87 29.136 19.606C29.136 19.31 29.414 19.13 29.668 19.13ZM24.778 21.074C21.774 21.524 13.164 23.058 8.758 26.418L15.906 37.192C15.906 37.192 25.318 31.328 27.632 24.704L24.778 21.074Z" fill="white"/>
</g>
<defs>
<clipPath id="clip0_66_347">
<rect width="48" height="48" fill="white"/>
</clipPath>
</defs>
</svg>
