<svg width="48" height="48" viewBox="0 0 48 48" fill="none" xmlns="http://www.w3.org/2000/svg">
<path d="M44.1804 0L28.8565 16.5831L20.8835 9.16619L17.3636 12.8757L29.0632 24L47.9091 3.50284L44.1804 0ZM6.45455 2.18182C3.45507 2.18182 1 4.63689 1 7.63636V42.5455C1 45.5449 3.45507 48 6.45455 48H41.3636C44.3631 48 46.8182 45.5449 46.8182 42.5455V17.7273V7.90909L44.6364 10.2763V17.7273V42.5455C44.6364 44.3656 43.1838 45.8182 41.3636 45.8182H6.45455C4.63438 45.8182 3.18182 44.3656 3.18182 42.5455V7.63636C3.18182 5.8162 4.63438 4.36364 6.45455 4.36364H30.3182C30.3204 4.36365 30.3224 4.36364 30.3246 4.36364H37.1747L39.1925 2.18182H30.3246H30.3182H6.45455ZM12.6037 21.8182C8.53787 21.8182 5.85795 24.0113 5.85795 27.3004C5.85795 29.9917 7.44531 31.6848 10.718 32.4822L13.1001 33.081C15.5798 33.6788 16.571 34.4767 16.571 35.9723C16.571 37.6665 14.8848 38.8615 12.6037 38.8615C10.1241 38.8615 8.43986 37.7935 8.14204 36H5.36364C5.56218 39.2891 8.33863 41.4545 12.4055 41.4545C16.7692 41.4545 19.5455 39.262 19.5455 35.674C19.5455 32.8835 17.959 31.2877 14.1911 30.3899L12.1072 29.8913C9.72688 29.2935 8.73651 28.5956 8.73651 27.2003C8.73651 25.5061 10.2246 24.4112 12.5057 24.4112C14.6875 24.4112 16.1742 25.5061 16.4709 27.2003H19.2472C19.1479 24.0105 16.3728 21.8182 12.6037 21.8182ZM29.4616 27.2727C25.3707 27.2727 22.8182 30.0644 22.8182 34.4063C22.8182 38.7481 25.3707 41.4545 29.4616 41.4545C32.7344 41.4545 35.0915 40.0046 35.7024 37.5043H32.941C32.4283 38.5657 31.2067 39.1385 29.5703 39.1385C27.3121 39.1385 25.7845 37.3625 25.6754 35.0455V34.8494H35.9091V34.125C35.9091 29.8814 33.4544 27.2727 29.4616 27.2727ZM29.4616 29.5099C31.4907 29.5099 32.7889 30.72 33.0071 32.7273H25.8182C26.0582 30.7964 27.4435 29.5099 29.4616 29.5099Z" fill="#69FF00"/>
</svg>
