<svg width="48" height="48" viewBox="0 0 48 48" fill="none" xmlns="http://www.w3.org/2000/svg">
<path d="M24.0018 2L10.3157 3.95363L0 18.3992L24.0018 46.4001L48 18.3992L37.6843 3.95363L24.0018 2ZM19.4268 6.30647L13.5164 13.0612L13.9263 7.09428L19.4268 6.30647ZM28.5767 6.30647L34.0773 7.09075L34.4871 13.0612L28.5767 6.30647ZM24.0018 6.57496L32.6783 16.488H15.3252L24.0018 6.57496ZM10.0649 10.5317L9.65158 16.488H5.81144L10.0649 10.5317ZM37.9386 10.5352L42.1921 16.488H38.352L37.9386 10.5352ZM6.23184 20.1055H10.2239L15.8128 31.2868L6.23184 20.1055ZM14.2689 20.1055H33.7346L24.0018 39.5747L14.2689 20.1055ZM37.7796 20.1055H41.7717L32.1908 31.2868L37.7796 20.1055Z" fill="white"/>
</svg>
