<svg width="48" height="48" viewBox="0 0 48 48" fill="none" xmlns="http://www.w3.org/2000/svg">
<path d="M35.9442 26.2695C32.1725 26.2695 28.8617 23.6366 24.2761 19.9929C21.1885 17.5387 14.1142 16.7064 13.0058 17.5691L10.1497 14.6846C14.3172 10.5151 16.8343 8 21.7346 8C27.8609 8 32.3187 11.4265 35.9015 14.1832C37.0261 15.0459 38.0878 15.862 39.0013 16.3999C39.6955 16.8079 41.1794 17.285 42.4217 16.9135C43.2154 16.68 43.8203 16.1218 44.2771 15.2124L48 16.814C45.8483 22.7353 41.3418 26.2695 35.9442 26.2695ZM17.6402 13.3448C21.1053 13.8198 24.7693 15.1982 26.8033 16.814C31.1373 20.2608 33.6991 22.2096 35.9442 22.2096C37.4565 22.2096 38.8571 21.7894 40.0893 20.9937C38.849 20.7968 37.7386 20.3644 36.947 19.8995C35.8163 19.2337 34.6572 18.3426 33.4311 17.4007C30.171 14.8957 26.4786 12.0599 21.7346 12.0599C20.139 12.0599 18.9759 12.4172 17.6402 13.3448ZM25.7945 40.4791C22.0228 40.4791 18.712 37.8462 14.1264 34.2025C11.0409 31.7503 3.96448 30.9119 2.85613 31.7787L0 28.8942C4.16747 24.7247 6.6846 22.2096 11.5849 22.2096C17.7112 22.2096 22.169 25.6361 25.7518 28.3928C26.8764 29.2555 27.9381 30.0716 28.8516 30.6095C29.5458 31.0175 31.0297 31.4885 32.272 31.1231C33.0657 30.8896 33.6706 30.3314 34.1274 29.422L37.8503 31.0236C35.6986 36.9449 31.1921 40.4791 25.7945 40.4791ZM7.49048 27.5544C10.9556 28.0294 14.6196 29.4078 16.6536 31.0236C20.9876 34.4704 23.5494 36.4192 25.7945 36.4192C27.3068 36.4192 28.7074 35.999 29.9396 35.2032C28.6993 35.0063 27.5889 34.574 26.7973 34.1091C25.6666 33.4433 24.5075 32.5521 23.2814 31.6102C20.0213 29.1053 16.3288 26.2695 11.5849 26.2695C9.98934 26.2695 8.82619 26.6267 7.49048 27.5544Z" fill="white"/>
</svg>
