<svg width="48" height="48" viewBox="0 0 48 48" fill="none" xmlns="http://www.w3.org/2000/svg">
<g clip-path="url(#clip0_66_323)">
<path d="M1.14286 0C0.839762 3.0305e-05 0.549089 0.120448 0.334769 0.334769C0.120448 0.549089 3.0305e-05 0.839762 0 1.14286V46.8571C3.0305e-05 47.1602 0.120448 47.4509 0.334769 47.6652C0.549089 47.8796 0.839762 48 1.14286 48H46.8571C47.1602 48 47.4509 47.8796 47.6652 47.6652C47.8796 47.4509 48 47.1602 48 46.8571V1.14286C48 0.839762 47.8796 0.549089 47.6652 0.334769C47.4509 0.120448 47.1602 3.0305e-05 46.8571 0H1.14286ZM2.28571 2.28571H45.7143V45.7143H2.28571V2.28571ZM12.5714 21.7143V25.6518H18.2857V43.4286H22.8571V25.6518H28.5714V21.7143H12.5714ZM37.3616 21.7254C33.802 21.7113 29.7344 22.79 29.7344 27.7991C29.7344 34.3477 38.558 34.3493 38.558 37.3036C38.558 37.5836 38.6768 39.6183 35.5625 39.6183C32.4482 39.6183 29.8527 37.6607 29.8527 37.6607V42.4129C29.8527 42.4129 43.4308 46.8046 43.4308 36.9018C43.4297 30.4732 34.5246 30.7947 34.5246 27.6004C34.5246 26.3627 35.4039 25.2054 37.8393 25.2054C40.2747 25.2054 42.4308 26.6429 42.4308 26.6429L42.5915 22.4085C42.5915 22.4085 40.1302 21.7365 37.3616 21.7254Z" fill="#69FF00"/>
</g>
<defs>
<clipPath id="clip0_66_323">
<rect width="48" height="48" fill="white"/>
</clipPath>
</defs>
</svg>
