<svg width="50" height="50" viewBox="0 0 50 50" fill="none" xmlns="http://www.w3.org/2000/svg">
<path d="M34.3227 2C28.8652 2 25.1702 3.61293 25.1702 3.61293C24.956 3.70685 24.7806 3.87163 24.6736 4.07959C24.5666 4.28754 24.5344 4.52599 24.5825 4.75488C24.6305 4.98376 24.7559 5.18912 24.9375 5.33646C25.1192 5.4838 25.346 5.56414 25.5798 5.56397C29.8729 5.56397 31.3883 6.31599 32.9285 7.45932C33.1873 7.6514 33.4714 7.89916 33.74 8.1912L1 13.2408L6.10332 46.9533L22.5926 44.3241C22.796 45.6503 23.7096 46.8338 25.0787 47.2656L26.3018 47.6534C26.3051 47.6548 26.3084 47.6561 26.3117 47.6574C27.2208 47.9366 28.1629 47.9369 28.9847 47.5739C29.8065 47.2108 30.4521 46.4854 30.7965 45.5751C30.8046 45.5535 30.8119 45.5316 30.8184 45.5095C30.8184 45.5095 31.4767 43.3047 31.602 42.8882L47.1108 40.4161L42.5067 11.3693C42.5933 11.3437 42.6786 11.3265 42.7593 11.3256C42.9823 11.3238 43.1255 11.3929 43.1073 11.3793C43.1093 11.3806 43.1113 11.3819 43.1133 11.3833C43.2433 11.4795 43.2131 11.4498 43.2406 11.4747C43.234 11.6958 43.2995 11.9129 43.4273 12.0934C43.555 12.2738 43.738 12.4078 43.9486 12.4751L46.0488 13.1454C46.3052 13.2267 46.5833 13.2034 46.8225 13.0805C47.0618 12.9575 47.2426 12.7449 47.3256 12.489L48.9505 7.46926C48.9919 7.34143 49.0076 7.20668 48.9966 7.07277C48.9857 6.93885 48.9484 6.80843 48.8868 6.689C48.8252 6.56958 48.7407 6.46351 48.6379 6.37693C48.5352 6.29034 48.4163 6.22493 48.2882 6.18448L46.186 5.52419C45.946 5.44894 45.6865 5.46521 45.4578 5.56987C45.229 5.67452 45.047 5.86017 44.947 6.09101C44.9039 6.19021 44.8939 6.17815 44.9231 6.15664C44.9524 6.13513 44.9769 6.15465 44.8098 6.15465C44.7001 6.15465 44.3644 5.97692 44.0779 5.65545C43.7913 5.33398 43.6125 5.0071 43.6125 5.0071C43.5299 4.85395 43.4093 4.72454 43.2625 4.63121C41.2782 3.37351 38.055 2 34.3227 2ZM34.3227 4.03655C37.4871 4.03655 40.3387 5.2338 42.0493 6.29586C42.1612 6.48264 42.2388 6.65127 42.5584 7.00984C43.0221 7.52998 43.7352 8.1912 44.8098 8.1912C45.2913 8.1912 45.7681 8.06357 46.1303 7.79742C46.1809 7.76025 46.1813 7.71217 46.2258 7.67212L46.6972 7.81929L45.7008 10.896L45.116 10.7091C45.0906 10.6419 45.1262 10.5734 45.0902 10.5122C44.8691 10.1366 44.6092 9.95774 44.3265 9.74845C43.8089 9.36189 43.2455 9.28481 42.7434 9.28903H42.7414C41.4999 9.30114 40.5023 10.1018 39.7542 11.1207C39.006 12.1397 38.4036 13.4561 37.8409 14.9612C36.7156 17.9712 35.7806 21.7469 34.7881 25.1161C32.8535 31.6833 28.9098 44.7794 28.8853 44.8611C28.6997 45.3454 28.4582 45.5812 28.1613 45.7123C27.8623 45.8444 27.4514 45.8772 26.9084 45.7103L25.6972 45.3245L25.6932 45.3225C24.7894 45.0392 24.3352 44.0846 24.6769 43.2163C24.6893 43.1868 30.2884 29.7794 32.1648 25.307C34.3444 20.1091 36.3363 14.894 36.7729 11.2878V11.2858C37.1027 8.55269 35.3028 6.68652 34.1417 5.8245C33.3719 5.25304 32.4246 4.78606 31.3196 4.39255C32.3307 4.25962 33.0694 4.03655 34.3227 4.03655ZM34.7205 10.1025C34.7701 10.3971 34.7928 10.7064 34.7523 11.0412V11.0432C34.38 14.1209 32.4474 19.3683 30.2874 24.5194C28.4307 28.9449 23.0338 41.8693 22.889 42.216L7.80973 44.6185L3.31897 14.9452L34.7205 10.1025ZM40.7625 13.382L44.7799 38.7256L32.2484 40.7224C33.4398 36.7576 35.2658 30.699 36.7411 25.6908C37.7515 22.261 38.6921 18.5034 39.7502 15.6732C40.0771 14.7988 40.4195 14.0314 40.7625 13.382ZM22.4435 15.1401C22.1524 15.1176 21.8545 15.2036 21.6122 15.4027L20.747 16.1266C20.2623 16.5258 20.2054 17.2325 20.6138 17.6938L28.2648 26.3611L29.7981 22.9681L27.3539 20.2594L23.2271 15.53C23.0178 15.2947 22.7346 15.1627 22.4435 15.1401ZM18.7065 18.73C18.2628 18.7363 17.8438 18.9975 17.6643 19.4221L17.0478 20.9097L20.214 22.1766L20.8425 20.677C21.0716 20.1109 20.7955 19.4653 20.212 19.2331L19.15 18.8115C19.0044 18.7532 18.8544 18.7279 18.7065 18.73ZM16.6142 21.932L12.1573 32.5602L15.3096 33.8152L19.7804 23.1969L16.6142 21.932ZM39.0163 22.1766L38.9507 22.1846L37.9225 25.7147L39.5573 25.4601L39.0163 22.1766ZM24.9454 24.3862L20.214 25.1081L18.6945 28.7059L27.5488 27.3515L24.9454 24.3862ZM13.6211 26.1184L8.43223 26.9179L8.95728 30.2055L12.1115 29.7162L13.6211 26.1184ZM37.1568 28.3141L35.9396 32.4946C36.0343 32.5313 36.1291 32.5673 36.234 32.604C38.4192 33.3188 38.8373 34.6763 38.8373 34.6763C38.8373 34.6763 39.3982 33.8522 39.3982 31.9338C39.3982 29.6895 37.9164 28.6858 37.1568 28.3141ZM11.7357 33.5944L11.6999 33.7933L11.2086 39.1353L14.7388 35.0264C14.7958 34.9704 14.8295 34.9046 14.8641 34.8374L11.9166 33.6601L11.7357 33.5944Z" fill="#69FF00"/>
</svg>
