<svg width="48" height="48" viewBox="0 0 48 48" fill="none" xmlns="http://www.w3.org/2000/svg">
<g clip-path="url(#clip0_66_374)">
<path d="M8.31402 1.95529e-05C7.2211 -0.00156338 6.13861 0.21267 5.12867 0.630427C4.11874 1.04818 3.20122 1.66124 2.42878 2.43443C1.65633 3.20762 1.04415 4.12572 0.627368 5.13606C0.210582 6.1464 -0.00260996 7.22909 2.41138e-05 8.32202V39.678C-0.00260996 40.7709 0.210582 41.8536 0.627368 42.864C1.04415 43.8743 1.65633 44.7924 2.42878 45.5656C3.20122 46.3388 4.11874 46.9519 5.12867 47.3696C6.13861 47.7874 7.2211 48.0016 8.31402 48H39.678C40.7716 48.0024 41.8548 47.7888 42.8655 47.3714C43.8763 46.954 44.7946 46.3411 45.5679 45.5679C46.3411 44.7946 46.954 43.8763 47.3714 42.8655C47.7888 41.8548 48.0024 40.7715 48 39.678V8.32202C48.0024 7.22849 47.7888 6.14527 47.3714 5.13452C46.954 4.12378 46.3411 3.20543 45.5679 2.43219C44.7946 1.65894 43.8763 1.04604 42.8655 0.628661C41.8548 0.211282 40.7716 -0.00235339 39.678 1.95529e-05H8.31402ZM29.534 17.522H29.594C29.7509 17.5158 29.9075 17.5417 30.054 17.598C30.2035 17.6525 30.3403 17.7369 30.456 17.846C30.6689 18.0822 30.7847 18.3901 30.78 18.708C30.7905 19.0293 30.6741 19.3418 30.456 19.578C30.3412 19.6903 30.2043 19.7774 30.054 19.834C29.908 19.893 29.7515 19.9215 29.594 19.918C29.433 19.9262 29.2722 19.8975 29.124 19.834C28.9743 19.7761 28.838 19.688 28.7238 19.5751C28.6095 19.4622 28.5198 19.3271 28.46 19.178C28.4012 19.0286 28.3753 18.8683 28.384 18.708C28.3802 18.3873 28.5023 18.0778 28.724 17.846C28.9427 17.6385 29.2325 17.5226 29.534 17.522ZM35.24 20.666C35.3 20.674 35.362 20.674 35.43 20.674C36.08 20.652 36.722 20.802 37.304 21.112C37.78 21.4 38.166 21.822 38.408 22.33C38.664 22.888 38.786 23.494 38.778 24.106V24.492C38.786 24.6379 38.786 24.7841 38.778 24.93H33.782C33.788 25.384 33.932 25.83 34.19 26.214C34.3494 26.3967 34.5491 26.5397 34.7734 26.6317C34.9977 26.7237 35.2403 26.7621 35.482 26.744C35.827 26.7737 36.171 26.677 36.45 26.472C36.666 26.3132 36.8268 26.0908 36.91 25.836L38.74 26.35C38.6341 26.7446 38.4429 27.1112 38.18 27.424C37.9 27.742 37.538 27.992 37.138 28.134C36.6031 28.3305 36.0356 28.4228 35.466 28.406C34.7665 28.4279 34.0743 28.2585 33.464 27.916C32.8876 27.594 32.4235 27.1034 32.134 26.51C31.8176 25.8661 31.6618 25.1552 31.68 24.438C31.6207 23.4162 31.9655 22.4119 32.64 21.642C33.3525 21.0003 34.2813 20.6517 35.24 20.666ZM16.026 20.712C16.35 20.72 16.676 20.764 16.986 20.87C17.4 21 17.786 21.218 18.112 21.498C18.632 22.102 18.898 22.882 18.844 23.674V28.226H17.06L16.842 26.804H16.712C16.584 27.13 16.402 27.424 16.168 27.682C15.9576 27.9076 15.703 28.0873 15.42 28.21C15.1346 28.3335 14.8247 28.3903 14.514 28.376C13.8928 28.4073 13.2802 28.2205 12.782 27.848C12.5551 27.6507 12.3775 27.4031 12.2632 27.125C12.149 26.8468 12.1013 26.5458 12.124 26.246C12.11 25.951 12.1619 25.6565 12.276 25.384C12.3831 25.1099 12.5482 24.8623 12.76 24.658C13.3532 24.1986 14.099 23.982 14.846 24.052H16.75V23.69C16.7684 23.3649 16.6721 23.0435 16.478 22.782C16.3631 22.6703 16.2252 22.5848 16.0739 22.5316C15.9227 22.4785 15.7616 22.4588 15.602 22.474C15.3388 22.4585 15.0766 22.5181 14.846 22.646C14.6632 22.7664 14.527 22.9456 14.46 23.154L12.48 22.866C12.5551 22.4538 12.7317 22.0668 12.994 21.74C13.274 21.392 13.636 21.136 14.06 20.984C14.582 20.802 15.14 20.712 15.7 20.726C15.806 20.72 15.912 20.712 16.026 20.712ZM24.794 20.726C25.142 20.726 25.488 20.802 25.806 20.954C26.17 21.12 26.486 21.376 26.722 21.702C27.236 22.548 27.476 23.524 27.424 24.514C27.4836 25.5288 27.2362 26.5379 26.714 27.41C26.4959 27.7423 26.1953 28.0123 25.8416 28.1935C25.4878 28.3748 25.0931 28.4611 24.696 28.444C24.288 28.444 23.894 28.354 23.532 28.172C23.1219 27.9787 22.7852 27.6582 22.572 27.258C22.4805 27.1101 22.4042 26.9533 22.344 26.79H22.254L22.262 30.358H20.144V20.932H21.952L22.186 22.542H22.3C22.436 22.126 22.654 21.74 22.956 21.422C23.1739 21.1966 23.4363 21.019 23.7266 20.9005C24.0169 20.7821 24.3286 20.7254 24.642 20.734H24.794V20.726ZM39.912 20.894H41.718L41.944 22.504H42.05C42.1412 22.1535 42.3009 21.8244 42.52 21.536C42.6857 21.3256 42.9007 21.1593 43.146 21.052C43.3896 20.9382 43.6575 20.886 43.926 20.9H44.394V23.002H43.592C43.3851 22.9572 43.1704 22.9627 42.966 23.018C42.7613 23.0734 42.574 23.1801 42.422 23.328C42.2662 23.4711 42.1469 23.6494 42.074 23.848C42.0073 24.0503 41.9888 24.2653 42.02 24.476V28.226H39.912V20.894ZM4.88202 20.9H11.406V22.692L7.46002 26.208L7.52802 26.434H11.474L11.558 28.234H4.80002V26.434L8.66202 22.926L8.57202 22.692H4.88202V20.9ZM28.512 20.9H30.622V28.218H28.512V20.9ZM35.398 22.268L35.436 22.3C35.1982 22.2685 34.9562 22.2995 34.734 22.39C34.5132 22.4789 34.3166 22.6187 34.16 22.798C33.94 23.108 33.812 23.47 33.782 23.842H36.872C36.804 22.79 36.358 22.268 35.392 22.268H35.398ZM23.962 22.594C23.91 22.594 23.848 22.594 23.796 22.602C23.5843 22.5949 23.3734 22.631 23.176 22.708C22.9794 22.7955 22.8041 22.9244 22.662 23.086C22.3599 23.4835 22.2146 23.9783 22.254 24.476V24.604C22.224 25.118 22.368 25.618 22.662 26.026C22.7944 26.1978 22.9686 26.3328 23.168 26.418C23.3636 26.5114 23.5797 26.5533 23.796 26.54C24.0181 26.5593 24.2414 26.5205 24.444 26.4276C24.6466 26.3347 24.8217 26.1908 24.952 26.01C25.232 25.564 25.36 25.05 25.33 24.53C25.3586 24.0301 25.2322 23.5334 24.968 23.108C24.8472 22.955 24.6948 22.8298 24.5212 22.7411C24.3476 22.6524 24.1568 22.6022 23.962 22.594ZM14.944 25.126C14.7483 25.1357 14.5607 25.2071 14.408 25.33C14.334 25.4014 14.2756 25.4872 14.2364 25.5822C14.1971 25.6772 14.178 25.7793 14.18 25.882C14.18 25.988 14.196 26.094 14.234 26.192C14.2726 26.2914 14.3319 26.3814 14.408 26.456C14.6365 26.6247 14.9193 26.7031 15.202 26.676V26.684C15.6085 26.6992 16.0073 26.5702 16.328 26.32C16.4633 26.2098 16.5716 26.0702 16.6448 25.9118C16.7179 25.7534 16.7539 25.5804 16.75 25.406V25.126H14.944Z" fill="#69FF00"/>
</g>
<defs>
<clipPath id="clip0_66_374">
<rect width="48" height="48" fill="white"/>
</clipPath>
</defs>
</svg>
