<svg width="40" height="40" viewBox="0 0 40 40" fill="none" xmlns="http://www.w3.org/2000/svg">
<path fill-rule="evenodd" clip-rule="evenodd" d="M6.81938 20.8234C7.24553 21.032 7.68602 21.21 8.1375 21.356C8.74945 21.5592 8.45 22.4989 7.82797 22.2941C7.33094 22.1331 6.84617 21.9366 6.37742 21.7059C5.79211 21.4134 6.23492 20.5316 6.81938 20.8231V20.8234ZM6.37797 27.8126C6.8466 28.0431 7.33131 28.2394 7.82828 28.3999C8.43617 28.607 8.76117 27.6686 8.13773 27.4628C7.68629 27.3172 7.24591 27.1392 6.82 26.9303C6.2375 26.6346 5.80141 27.5241 6.37859 27.8132L6.37797 27.8126ZM8.13742 33.5686C7.68567 33.4229 7.245 33.2448 6.81883 33.0357C6.23125 32.7209 5.7818 33.6373 6.37844 33.9185C6.8472 34.1484 7.33167 34.3448 7.8282 34.5062C8.44883 34.7103 8.74852 33.7718 8.13805 33.5687H8.13742V33.5686ZM35.6858 27.9835C36.0413 26.5785 35.1447 25.0735 33.7341 24.7217L31.0752 24.0535L32.4004 19.0652C32.469 18.8059 32.4319 18.5299 32.2973 18.2979C32.1627 18.0659 31.9416 17.8967 31.6824 17.8275L30.4237 17.4928C30.1644 17.4245 29.8885 17.4616 29.6565 17.5962C29.4246 17.7308 29.2554 17.9518 29.186 18.2108L27.8484 23.2428L25.5418 22.6632V16.0934C25.5355 14.9042 24.36 13.8303 22.2293 13.0687C20.2527 12.362 17.6412 11.9728 14.8764 11.9728C12.1116 11.9728 9.50031 12.362 7.52344 13.0687C6.26406 13.5189 4.21094 14.5038 4.21094 16.0986V34.6455C4.21094 35.9785 6.49883 37.0891 7.51797 37.4534C9.49109 38.1588 12.1045 38.5471 14.8766 38.5471C17.4699 38.5471 19.9409 38.2034 21.865 37.5784C23.1962 38.148 24.6396 38.4069 26.0858 38.3354C27.5319 38.2639 28.9428 37.8639 30.2113 37.1657C31.4797 36.4676 32.5725 35.4896 33.4067 34.3061C34.2408 33.1226 34.7943 31.7646 35.0253 30.3353C35.0863 30.2732 35.1296 30.196 35.1509 30.1116L35.6858 27.9835ZM33.4934 25.6788H33.4941C33.9304 25.7904 34.305 26.07 34.5362 26.4565C34.7674 26.843 34.8365 27.3053 34.7284 27.7425L34.314 29.3918L22.3777 26.3926L22.7922 24.7432C22.9036 24.3067 23.183 23.932 23.5696 23.7007C23.9561 23.4693 24.4185 23.4002 24.8558 23.5084L33.493 25.6785L33.4934 25.6788ZM28.8064 23.4835C28.923 23.0447 30.1216 18.4466 30.1658 18.4466C30.2649 18.4466 31.4534 18.7794 31.447 18.8117L30.1175 23.8126L28.8064 23.4832V23.4835ZM5.19906 16.0984C5.20305 15.3768 6.19563 14.5921 7.85641 13.9986C9.7293 13.3291 12.2226 12.9603 14.877 12.9603C17.5315 12.9603 20.0247 13.3288 21.8977 13.9984C23.5575 14.5917 24.5499 15.3759 24.5549 16.0973C24.5513 16.8215 23.5608 17.6071 21.9033 18.1997C20.0341 18.8679 17.5387 19.236 14.877 19.236C12.2152 19.236 9.71984 18.8679 7.85062 18.1997C6.19437 17.6075 5.20375 16.8224 5.19906 16.0982V16.0984ZM5.19906 22.2049C5.19906 22.9303 6.19039 23.7176 7.85078 24.3112C9.72 24.9795 12.2153 25.3478 14.8771 25.3478C17.5073 25.3478 20.0441 24.9728 21.8901 24.3159C22.0721 23.7683 22.4252 23.2935 22.8972 22.9615C23.3693 22.6295 23.9354 22.4578 24.5123 22.4717C24.5405 22.3856 24.5549 22.2956 24.5551 22.2051V17.9004C24.0004 18.3675 23.2204 18.7871 22.2356 19.1392C19.965 19.9509 17.2819 20.2329 14.8771 20.2329C12.4723 20.2329 9.78852 19.9506 7.51836 19.1392C6.53398 18.7871 5.75375 18.3675 5.19898 17.9004V22.2051L5.19906 22.2049ZM5.19906 28.3111V24.0021C5.75375 24.4694 6.53375 24.8891 7.51859 25.2412C9.49172 25.9467 12.1051 26.335 14.8773 26.335C17.372 26.335 19.717 26.0243 21.5967 25.4521L21.3004 26.6318C21.2733 26.7398 21.2837 26.8538 21.3299 26.955C20.4978 28.9173 18.9571 30.4942 17.0147 31.3717C16.3161 31.4264 15.598 31.4544 14.8773 31.4544C12.2155 31.4544 9.72016 31.086 7.85094 30.4178C6.19055 29.824 5.19922 29.0367 5.19922 28.3115L5.19906 28.3111ZM20.5903 36.9176C18.9308 37.3344 16.9482 37.5598 14.877 37.5598C12.2153 37.5598 9.71992 37.1914 7.85078 36.5232C6.19031 35.9294 5.19906 35.1422 5.19906 34.4168V30.108C5.75375 30.5752 6.53367 30.9947 7.51836 31.3467C9.49156 32.0521 12.1049 32.4405 14.877 32.4405C15.5105 32.4405 16.142 32.4189 16.7614 32.378C17.3892 33.9393 18.4211 35.3054 19.7513 36.336C19.9292 36.5122 20.3685 36.7814 20.5903 36.9178V36.9176ZM22.2245 27.3723L34.0231 30.3376C33.6668 32.2998 32.6358 34.0757 31.1084 35.3581C29.5811 36.6405 27.6536 37.3487 25.6593 37.3601C26.8069 36.6392 27.7866 35.6807 28.5326 34.5492C28.8941 34.0008 28.0625 33.4696 27.7085 34.0053C26.8026 35.3797 25.5177 36.4621 24.0095 37.1215C23.4909 37.3514 21.5676 36.366 21.0676 36.0543C22.0164 35.534 22.8688 34.8545 23.5874 34.0454C23.6305 33.997 23.6636 33.9406 23.6849 33.8793C23.7062 33.8181 23.7152 33.7533 23.7114 33.6886C23.7077 33.6239 23.6912 33.5605 23.6629 33.5022C23.6347 33.4438 23.5952 33.3916 23.5468 33.3485C23.4984 33.3055 23.4419 33.2723 23.3807 33.251C23.3195 33.2298 23.2547 33.2208 23.1899 33.2245C23.1252 33.2283 23.0619 33.2448 23.0036 33.273C22.9452 33.3013 22.893 33.3407 22.8499 33.3892C22.0997 34.2338 21.1879 34.9197 20.1684 35.4064C19.0993 34.5278 18.2606 33.4019 17.7248 32.1262C19.743 31.1277 21.3387 29.4419 22.2248 27.372L22.2245 27.3723ZM24.0309 33.1471C23.966 33.1476 23.9016 33.1351 23.8415 33.1104C23.7814 33.0858 23.7268 33.0494 23.6808 33.0035C23.6349 32.9576 23.5985 32.903 23.5739 32.8429C23.5492 32.7828 23.5368 32.7184 23.5372 32.6534C23.539 32.5163 23.5934 32.3852 23.6892 32.2872C23.7851 32.1893 23.915 32.1319 24.052 32.1271C24.1829 32.1272 24.3084 32.1792 24.401 32.2717C24.4935 32.3643 24.5455 32.4898 24.5455 32.6207C24.5438 32.7578 24.4893 32.8889 24.3935 32.9869C24.2977 33.0849 24.1679 33.1423 24.0309 33.1471ZM26.2318 8.94768C27.3033 8.94673 28.3306 8.5207 29.0883 7.76309C29.8459 7.00549 30.2721 5.97821 30.2731 4.90675C30.2731 4.25714 31.2604 4.25729 31.2604 4.90675C31.2615 5.97811 31.6877 7.00526 32.4452 7.76281C33.2028 8.52037 34.23 8.94647 35.3013 8.94761C35.9504 8.94761 35.9505 9.93487 35.3013 9.93487C34.2301 9.93628 33.2031 10.3625 32.4456 11.12C31.6881 11.8775 31.2619 12.9045 31.2605 13.9758C31.2605 14.6248 30.2733 14.625 30.2733 13.9758C30.2721 12.9045 29.846 11.8774 29.0884 11.1198C28.3308 10.3623 27.3037 9.93624 26.2323 9.93511C25.5852 9.93511 25.5815 8.94815 26.2323 8.94815L26.2318 8.94768ZM28.4037 9.44128C29.4361 9.93843 30.2691 10.7714 30.7663 11.8039C31.2635 10.7714 32.0964 9.93841 33.1288 9.4412C32.0965 8.94411 31.2635 8.11119 30.7663 7.07886C30.2691 8.11113 29.4362 8.94402 28.4039 9.4412L28.4037 9.44128ZM13.8713 5.33495C14.7696 5.33398 15.6309 4.97672 16.2661 4.34156C16.9013 3.7064 17.2586 2.8452 17.2597 1.9469C17.2589 1.88156 17.271 1.8167 17.2955 1.75608C17.3199 1.69547 17.3561 1.64032 17.4021 1.59382C17.448 1.54732 17.5027 1.5104 17.563 1.4852C17.6233 1.46 17.688 1.44702 17.7533 1.44702C17.8187 1.44702 17.8834 1.46 17.9437 1.4852C18.004 1.5104 18.0587 1.54732 18.1046 1.59382C18.1505 1.64032 18.1867 1.69547 18.2112 1.75608C18.2356 1.8167 18.2478 1.88156 18.247 1.9469C18.2479 2.8452 18.6052 3.70643 19.2403 4.34165C19.8755 4.97686 20.7367 5.33417 21.635 5.33519C22.2846 5.33519 22.2845 6.32245 21.635 6.32245C20.7367 6.32346 19.8755 6.68075 19.2403 7.31592C18.6051 7.9511 18.2478 8.81229 18.2468 9.71058C18.2468 10.3602 17.2595 10.36 17.2595 9.71058C17.2585 8.81228 16.9013 7.95106 16.2661 7.31585C15.6309 6.68064 14.7697 6.32333 13.8714 6.32229C13.1279 6.21604 13.3031 5.33495 13.8713 5.33495ZM15.8891 5.82862C16.6862 6.24538 17.3367 6.89594 17.7534 7.693C18.1702 6.896 18.8208 6.24551 19.6179 5.82878C18.8209 5.4119 18.1704 4.76128 17.7537 3.96417C17.3368 4.76111 16.6862 5.41154 15.8891 5.82823V5.82862Z" fill="#65FF00"/>
</svg>
