<svg width="40" height="41" viewBox="0 0 40 41" fill="none" xmlns="http://www.w3.org/2000/svg">
<g clip-path="url(#clip0_532_453)">
<path d="M23.5938 9.875H28.9676L21.5934 17.2496L23.2504 18.9066L30.625 11.5324V16.9062H32.9688V7.53125H23.5938V9.875ZM35.3125 0.5V2.84375H37.6562V5.1875H40V0.5H35.3125ZM37.6562 30.9688H35.3125V33.3125H40V28.625H37.6562V30.9688ZM37.6562 7.53125H40V12.2188H37.6562V7.53125ZM37.6562 14.5625H40V19.25H37.6562V14.5625ZM37.6562 21.5938H40V26.2812H37.6562V21.5938ZM9.53125 2.84375H11.875V0.5H7.1875V5.1875H9.53125V2.84375ZM7.1875 7.53125H9.53125V12.2188H7.1875V7.53125ZM7.1875 14.5625H9.53125V19.25H7.1875V14.5625ZM14.2188 0.5H18.9062V2.84375H14.2188V0.5ZM21.25 0.5H25.9375V2.84375H21.25V0.5ZM28.2812 0.5H32.9688V2.84375H28.2812V0.5ZM21.25 30.9688H25.9375V33.3125H21.25V30.9688ZM28.2812 30.9688H32.9688V33.3125H28.2812V30.9688ZM0 40.5H18.75V21.75H0V40.5ZM2.34375 24.0938H16.4062V38.1562H2.34375V24.0938Z" fill="#65FF00"/>
</g>
<defs>
<clipPath id="clip0_532_453">
<rect width="40" height="40" fill="white" transform="translate(0 0.5)"/>
</clipPath>
</defs>
</svg>
