<svg width="40" height="41" viewBox="0 0 40 41" fill="none" xmlns="http://www.w3.org/2000/svg">
<path d="M7.47344 13.9687C7.47344 13.7102 7.68359 13.5 7.94219 13.5H17.7617C18.0203 13.5 18.2305 13.7102 18.2305 13.9687C18.2305 14.2273 18.0203 14.4375 17.7617 14.4375H7.94219C7.68359 14.4375 7.47344 14.2281 7.47344 13.9687ZM22.7836 18.4102H7.94219C7.68359 18.4102 7.47344 18.6203 7.47344 18.8789C7.47344 19.1375 7.68359 19.3477 7.94219 19.3477H22.7836C23.0422 19.3477 23.2523 19.1375 23.2523 18.8789C23.2523 18.6203 23.0422 18.4102 22.7836 18.4102ZM22.7836 23.3195H7.94219C7.68359 23.3195 7.47344 23.5297 7.47344 23.7883C7.47344 24.0469 7.68359 24.257 7.94219 24.257H22.7836C23.0422 24.257 23.2523 24.0469 23.2523 23.7883C23.2523 23.5297 23.0422 23.3195 22.7836 23.3195ZM22.7836 28.2289H7.94219C7.68359 28.2289 7.47344 28.4391 7.47344 28.6977C7.47344 28.9562 7.68359 29.1664 7.94219 29.1664H22.7836C23.0422 29.1664 23.2523 28.9562 23.2523 28.6977C23.2523 28.4391 23.0422 28.2289 22.7836 28.2289ZM22.7836 33.1391H7.94219C7.68359 33.1391 7.47344 33.3492 7.47344 33.6078C7.47344 33.8664 7.68359 34.0766 7.94219 34.0766H22.7836C23.0422 34.0766 23.2523 33.8664 23.2523 33.6078C23.2523 33.3492 23.0422 33.1391 22.7836 33.1391ZM37.2687 32.7227C37.2687 36.3648 34.3055 39.3281 30.6633 39.3281C29.6203 39.3281 28.6336 39.0844 27.7555 38.6523H3.19922C3.13766 38.6524 3.0767 38.6403 3.01985 38.6167C2.963 38.5931 2.91138 38.5585 2.86797 38.5148C2.78012 38.427 2.73068 38.3079 2.73047 38.1836V8.16641C2.73047 7.90781 2.94063 7.69766 3.19922 7.69766H5.57578V5.15313C5.57578 4.89453 5.78594 4.68438 6.04453 4.68438H8.42109V2.14062C8.42109 1.88203 8.63125 1.67188 8.88984 1.67188H26.4086C26.5312 1.67188 26.65 1.72031 26.7375 1.80625L33.8789 8.83594C33.9233 8.87957 33.9585 8.93162 33.9825 8.98904C34.0065 9.04645 34.0188 9.10808 34.0187 9.17031V27.0359C35.9633 28.1875 37.2687 30.3047 37.2687 32.7227ZM9.35938 4.68438H23.5641C23.6867 4.68438 23.8055 4.73281 23.893 4.81875L31.0344 11.8484C31.0787 11.8921 31.114 11.9441 31.138 12.0015C31.162 12.059 31.1743 12.1206 31.1742 12.1828V26.1375C31.843 26.1891 32.4836 26.3398 33.082 26.5766V9.36719L26.218 2.60938H9.35938V4.68438ZM6.51406 7.69766H20.7188V7.69844C20.8398 7.69844 20.9578 7.74375 21.0477 7.83203L28.1891 14.8617C28.2333 14.9054 28.2684 14.9575 28.2923 15.0149C28.3162 15.0723 28.3283 15.1339 28.3281 15.1961H28.3289V26.5437C28.9407 26.3118 29.5838 26.173 30.2367 26.132V12.3797L23.3719 5.62187H6.51406V7.69766ZM21.1875 9.28594V14.7281H26.7156L21.1875 9.28594ZM26.3445 37.7148C24.9453 36.5023 24.0578 34.7148 24.0578 32.7227C24.0578 30.2703 25.4023 28.1273 27.3914 26.9875V15.6648H20.7188C20.4602 15.6648 20.25 15.4547 20.25 15.1961V8.63516H3.66875V37.7148H26.3445ZM36.3312 32.7227C36.3312 29.5969 33.7883 27.0547 30.6633 27.0547C27.5375 27.0547 24.9953 29.5977 24.9953 32.7227C24.9953 35.8477 27.5383 38.3906 30.6633 38.3906C33.7891 38.3906 36.3312 35.8477 36.3312 32.7227ZM33.2172 32.2539H31.132V30.1688C31.132 29.9102 30.9219 29.7 30.6633 29.7C30.4047 29.7 30.1945 29.9102 30.1945 30.1688V32.2539H28.1094C27.8508 32.2539 27.6406 32.4641 27.6406 32.7227C27.6406 32.9813 27.8508 33.1914 28.1094 33.1914H30.1945V35.2766C30.1945 35.5352 30.4047 35.7453 30.6633 35.7453C30.9219 35.7453 31.132 35.5352 31.132 35.2766V33.1914H33.2172C33.4758 33.1914 33.6859 32.9813 33.6859 32.7227C33.6859 32.4641 33.4758 32.2539 33.2172 32.2539Z" fill="#65FF00"/>
</svg>
