<svg width="40" height="40" viewBox="0 0 40 40" fill="none" xmlns="http://www.w3.org/2000/svg">
<g clip-path="url(#clip0_532_836)">
<path d="M34.9863 24.8255C35.4904 23.2694 35.7464 21.6464 35.7464 19.9927C35.7464 18.345 35.4923 16.7279 34.9912 15.1767C36.0931 14.7629 37.0951 14.1003 37.927 13.2193C39.3646 11.6974 40.1233 9.70641 40.0635 7.61383C39.9396 3.29352 36.3245 -0.119922 32.0035 0.00335938C29.9105 0.0632031 27.9666 0.934453 26.5289 2.45664C25.8029 3.22539 25.2505 4.11375 24.8889 5.07445C23.3373 4.57367 21.7203 4.31945 20.072 4.31945C18.4228 4.31945 16.8045 4.5743 15.2521 5.0757C14.1324 2.11273 11.2668 0 7.91656 0C3.59437 0 0.078125 3.51625 0.078125 7.83813C0.078125 11.188 2.19117 14.0534 5.15414 15.1727C4.65242 16.7255 4.39789 18.3438 4.39789 19.9927C4.39789 21.6464 4.65391 23.2694 5.15805 24.8255C2.19297 25.9439 0.078125 28.8104 0.078125 32.1619C0.078125 33.3416 0.333828 34.476 0.838281 35.5331C0.871411 35.6026 0.917901 35.6648 0.975095 35.7163C1.03229 35.7678 1.09907 35.8076 1.17162 35.8332C1.24417 35.8589 1.32106 35.8701 1.39792 35.866C1.47477 35.862 1.55008 35.8428 1.61953 35.8097C1.75972 35.7427 1.86758 35.6228 1.91943 35.4763C1.97129 35.3298 1.96289 35.1687 1.89609 35.0284C1.46727 34.13 1.25 33.1656 1.25 32.1619C1.25 28.4863 4.2407 25.4959 7.91656 25.4959C11.5927 25.4959 14.5834 28.4863 14.5834 32.1619C14.5834 35.8377 11.5927 38.8281 7.91656 38.8281C6.24 38.8281 4.63742 38.2034 3.40453 37.0691C3.16625 36.85 2.79539 36.8655 2.57656 37.1036C2.52445 37.1602 2.48401 37.2265 2.45754 37.2988C2.43108 37.3711 2.4191 37.4478 2.42231 37.5247C2.42552 37.6016 2.44384 37.6771 2.47623 37.7469C2.50862 37.8167 2.55445 37.8794 2.61109 37.9315C4.06094 39.2655 5.94516 40 7.91656 40C11.2716 40 14.1409 37.8809 15.257 34.9112C16.8076 35.4117 18.4244 35.6659 20.072 35.6659C21.72 35.6659 23.3371 35.4117 24.8877 34.9115C26.0038 37.8812 28.873 40 32.2281 40C36.5503 40 40.0666 36.4837 40.0666 32.1619C40.0666 28.8104 37.9517 25.9436 34.9863 24.8255ZM27.381 3.26109C28.6035 1.96656 30.2573 1.22563 32.0373 1.17461C32.1018 1.17278 32.1663 1.17187 32.2309 1.17188C35.8191 1.17188 38.7887 4.03781 38.8919 7.64711C38.9429 9.42688 38.2977 11.12 37.0752 12.4148C35.8527 13.7094 34.1989 14.4504 32.4188 14.5013C32.3543 14.5032 32.2898 14.5041 32.2253 14.5041C28.637 14.5041 25.6674 11.6382 25.5643 8.02891C25.513 6.24906 26.1584 4.5557 27.381 3.26109ZM24.559 33.786C23.1152 34.2554 21.6086 34.494 20.072 34.494C18.5361 34.494 17.0295 34.2554 15.5856 33.786C15.6985 33.252 15.7554 32.7076 15.7553 32.1618C15.7553 27.8399 12.2388 24.3241 7.91656 24.3241C7.35656 24.3241 6.81031 24.3835 6.28328 24.4955C5.80992 23.0466 5.56977 21.5345 5.56977 19.9927C5.56977 18.4558 5.80875 16.9485 6.27898 15.5032C6.81725 15.6182 7.36615 15.6761 7.91656 15.6759C9.25937 15.6759 10.5841 15.3305 11.7484 14.6771C12.0304 14.5188 12.1307 14.1617 11.9723 13.8795C11.814 13.5972 11.4569 13.497 11.1747 13.6554C10.1852 14.2105 9.05852 14.5041 7.91656 14.5041C4.24039 14.5041 1.25 11.5137 1.25 7.83781C1.25 4.16227 4.2407 1.17188 7.91656 1.17188C11.5927 1.17188 14.5834 4.16227 14.5834 7.83813C14.5834 9.37594 14.0473 10.8762 13.0737 12.063C12.8683 12.313 12.905 12.6822 13.1552 12.8876C13.2754 12.9861 13.4298 13.0328 13.5844 13.0175C13.739 13.0023 13.8812 12.9262 13.9798 12.8061C15.1245 11.4105 15.7553 9.64594 15.7553 7.83781C15.7553 7.27664 15.6952 6.72883 15.5826 6.20055C17.0276 5.73023 18.5352 5.49133 20.072 5.49133C21.6086 5.49133 23.1155 5.73 24.5599 6.19961C24.4307 6.81175 24.3746 7.43706 24.3927 8.06242C24.5145 12.3065 28.0057 15.6762 32.225 15.6759C32.7764 15.676 33.3262 15.6185 33.8656 15.5045C34.3356 16.9491 34.5746 18.4564 34.5746 19.9927C34.5746 21.5345 34.3341 23.0466 33.8611 24.4955C33.3243 24.3813 32.777 24.3238 32.2281 24.3241C27.9059 24.3241 24.3897 27.84 24.3897 32.1619C24.3897 32.7188 24.4483 33.262 24.559 33.786ZM32.2281 38.8281C28.552 38.8281 25.5616 35.8377 25.5616 32.1622C25.5616 28.4863 28.552 25.4959 32.2281 25.4959C35.9042 25.4959 38.8947 28.4863 38.8947 32.1622C38.8947 35.8377 35.9042 38.8281 32.2281 38.8281Z" fill="#65FF00"/>
<path d="M11.9066 4.37951C11.808 4.3124 11.6913 4.277 11.572 4.27803C11.4527 4.27906 11.3366 4.31649 11.2392 4.38529C11.0402 4.52557 10.8263 4.64337 10.6014 4.73654C9.79636 4.10662 8.62964 4.11396 7.83042 4.80889C7.41814 5.16683 7.15558 5.66675 7.09488 6.20936C6.66577 6.14551 6.25417 5.99493 5.88517 5.76679C5.51617 5.53865 5.19751 5.23774 4.94863 4.8824C4.88895 4.79768 4.80791 4.73026 4.71373 4.68701C4.61956 4.64376 4.51561 4.62621 4.41246 4.63615C4.30923 4.64615 4.2105 4.68337 4.12636 4.74401C4.04222 4.80465 3.97569 4.88654 3.93355 4.98131C3.91683 5.01912 3.52253 5.91998 3.57285 7.02264C3.61136 7.86639 3.91316 8.95404 5.01394 9.79389C4.61635 9.9226 4.19919 9.98025 3.7816 9.9642C3.64997 9.95911 3.52046 9.99851 3.41397 10.076C3.30747 10.1536 3.23021 10.2647 3.19463 10.3916C3.15905 10.5184 3.16724 10.6535 3.21788 10.7751C3.26851 10.8967 3.35863 10.9977 3.47371 11.0619C4.39292 11.5725 5.37769 11.8283 6.33988 11.8283C7.26425 11.8283 8.16761 11.592 8.97144 11.1193C9.97941 10.5263 10.7118 9.6185 11.1095 8.50975C11.122 8.48162 11.1324 8.4524 11.1407 8.42217C11.3451 7.82006 11.4522 7.16053 11.4522 6.46107C11.4522 6.43061 11.4513 6.39975 11.4501 6.3692C11.7853 5.97401 12.0238 5.5061 12.1465 5.00264C12.1746 4.8867 12.1667 4.76496 12.1239 4.65363C12.081 4.5423 12.0053 4.44668 11.9067 4.37951H11.9066ZM10.2623 6.27826C10.2739 6.33936 10.28 6.40248 10.28 6.46295C10.28 7.03725 10.1946 7.5692 10.0319 8.04982C10.023 8.07211 10.0156 8.09494 10.0096 8.11818C9.70543 8.96967 9.15152 9.65357 8.3773 10.1092C7.66871 10.5264 6.85542 10.704 6.02652 10.6438C6.21646 10.5498 6.39977 10.443 6.57519 10.324C6.6616 10.2653 6.73075 10.1845 6.7755 10.0901C6.82025 9.99568 6.83897 9.89102 6.82972 9.78693C6.82044 9.68284 6.78348 9.58312 6.72268 9.49812C6.66188 9.41311 6.57945 9.34592 6.48394 9.3035C5.38988 8.81732 4.80488 8.04404 4.74535 7.00553C4.73448 6.80399 4.74164 6.60188 4.76675 6.40162C5.57269 7.07506 6.60511 7.44256 7.68269 7.41475C7.83544 7.41085 7.98062 7.34745 8.08729 7.23805C8.19396 7.12865 8.25367 6.98192 8.25371 6.82912V6.46568C8.25155 6.31952 8.28137 6.17465 8.34109 6.04122C8.4008 5.90779 8.48897 5.78903 8.59941 5.69326C9.01816 5.3292 9.65472 5.37342 10.0188 5.79217C10.0903 5.87431 10.1833 5.93486 10.2874 5.96701C10.2512 6.06661 10.2425 6.17415 10.2624 6.27826H10.2623ZM30.3002 8.30037H31.1309V11.7944C31.1309 11.9498 31.1926 12.0988 31.3025 12.2087C31.4124 12.3186 31.5614 12.3803 31.7168 12.3803C31.8722 12.3803 32.0213 12.3186 32.1312 12.2087C32.241 12.0988 32.3028 11.9498 32.3028 11.7944V8.30037H33.2076C33.531 8.30037 33.7935 8.03787 33.7935 7.71443C33.7935 7.391 33.531 7.1285 33.2076 7.1285H32.3028V5.48912C32.3028 4.92639 32.7608 4.46826 33.3239 4.46826H34.0825C34.406 4.46826 34.6684 4.20584 34.6684 3.88232C34.6684 3.72692 34.6067 3.57789 34.4968 3.468C34.3869 3.35812 34.2379 3.29639 34.0825 3.29639H33.3239C32.1147 3.29639 31.1309 4.27998 31.1309 5.48912V7.1285H30.3002C29.9768 7.1285 29.7143 7.391 29.7143 7.71443C29.7143 8.03787 29.9768 8.30037 30.3002 8.30037ZM6.58738 35.1924C6.72691 35.1924 6.86628 35.1565 6.9905 35.0847L10.9789 32.781C11.1013 32.7101 11.203 32.6083 11.2737 32.4857C11.3445 32.3632 11.3818 32.2242 11.382 32.0827C11.382 31.7958 11.2276 31.5283 10.9789 31.3848L6.99058 29.081C6.86801 29.0104 6.72904 28.9732 6.58757 28.9732C6.44611 28.9732 6.30713 29.0104 6.18457 29.081C6.06208 29.1519 5.96036 29.2537 5.88956 29.3762C5.81876 29.4988 5.78137 29.6378 5.78113 29.7793V34.3865C5.78113 34.6737 5.93582 34.9413 6.18457 35.0847C6.30699 35.1555 6.44596 35.1927 6.58738 35.1925V35.1924ZM6.953 30.4128L9.84488 32.0831L6.953 33.7533V30.4128ZM34.7744 28.0123H29.6822C28.7978 28.0123 28.0782 28.7319 28.0782 29.6166V34.7079C28.0782 35.5926 28.7978 36.3122 29.6822 36.3122H34.7744C35.6588 36.3122 36.3783 35.5926 36.3783 34.7079V29.6166C36.3783 28.7319 35.6588 28.0123 34.7744 28.0123ZM35.2064 34.7079C35.2064 34.8225 35.1609 34.9324 35.0799 35.0135C34.9989 35.0945 34.889 35.1401 34.7744 35.1403H29.6822C29.5676 35.1402 29.4577 35.0946 29.3766 35.0135C29.2956 34.9324 29.2501 34.8225 29.25 34.7079V29.6166C29.2501 29.502 29.2957 29.3921 29.3767 29.311C29.4577 29.23 29.5676 29.1844 29.6822 29.1842H34.7744C34.889 29.1844 34.9988 29.23 35.0798 29.3111C35.1608 29.3922 35.2063 29.502 35.2064 29.6166V34.7079Z" fill="#65FF00"/>
<path d="M32.2278 30.391C31.2513 30.391 30.4566 31.1857 30.4566 32.1622C30.4566 33.1388 31.2513 33.9332 32.2278 33.9332C33.2044 33.9332 33.999 33.1388 33.999 32.1622C33.999 31.1857 33.2044 30.391 32.2278 30.391ZM32.2278 32.7613C31.8974 32.7613 31.6285 32.4924 31.6285 32.1622C31.6285 31.8318 31.8973 31.5629 32.2278 31.5629C32.5584 31.5629 32.8271 31.8317 32.8271 32.1622C32.8271 32.4924 32.5583 32.7613 32.2278 32.7613ZM24.3125 13.9137C24.1571 13.9137 24.008 13.9754 23.8981 14.0853C23.7883 14.1952 23.7265 14.3442 23.7265 14.4996V14.7623C22.9001 15.2496 22.0349 15.668 21.1398 16.0133C20.4224 16.2891 19.6876 16.5174 18.9401 16.6965C18.8219 16.6049 18.6765 16.5551 18.5269 16.5549H15.8441C15.196 16.5549 14.6689 17.0822 14.6689 17.7301V20.8072C14.6689 21.4554 15.196 21.9825 15.8442 21.9825H16.3804L16.5836 25.8894C16.5876 25.9662 16.6067 26.0415 16.6398 26.1109C16.6729 26.1804 16.7194 26.2426 16.7765 26.2941C16.8337 26.3456 16.9004 26.3853 16.973 26.411C17.0455 26.4367 17.1223 26.4478 17.1992 26.4438C17.3543 26.4357 17.4999 26.3664 17.604 26.2509C17.708 26.1355 17.7619 25.9835 17.7539 25.8283L17.5537 21.9825H18.5269C18.6823 21.9825 18.8254 21.9294 18.9399 21.8412C19.4156 21.9558 19.8862 22.0903 20.3507 22.2443C20.4237 22.2685 20.5008 22.2781 20.5775 22.2725C20.6543 22.267 20.7292 22.2463 20.798 22.2118C20.8667 22.1773 20.9281 22.1296 20.9784 22.0714C21.0287 22.0132 21.0671 21.9456 21.0913 21.8726C21.1156 21.7996 21.1252 21.7225 21.1196 21.6457C21.114 21.569 21.0934 21.4941 21.0589 21.4253C21.0244 21.3565 20.9766 21.2952 20.9184 21.2449C20.8602 21.1945 20.7927 21.1562 20.7196 21.1319C20.2209 20.9665 19.7153 20.8222 19.2044 20.6992V17.8388C20.0052 17.647 20.7924 17.4024 21.561 17.1067C22.3033 16.8205 23.0265 16.4871 23.7263 16.1087V22.4301C23.4695 22.2913 23.2094 22.1586 22.9463 22.0322C22.877 21.9988 22.8017 21.9794 22.7249 21.9751C22.6481 21.9708 22.5712 21.9817 22.4985 22.0071C22.4259 22.0326 22.359 22.0721 22.3017 22.1234C22.2444 22.1747 22.1977 22.2369 22.1644 22.3062C22.131 22.3756 22.1117 22.4508 22.1074 22.5277C22.1031 22.6045 22.114 22.6814 22.1394 22.7541C22.1649 22.8267 22.2044 22.8936 22.2557 22.9509C22.307 23.0083 22.3691 23.055 22.4385 23.0883C22.877 23.2999 23.3066 23.5294 23.7263 23.7762V24.0378C23.7263 24.1932 23.788 24.3422 23.8979 24.4521C24.0078 24.562 24.1568 24.6237 24.3122 24.6237C24.4676 24.6237 24.6167 24.562 24.7265 24.4521C24.8364 24.3422 24.8982 24.1932 24.8982 24.0378V14.4995C24.8982 14.4226 24.8831 14.3464 24.8537 14.2753C24.8243 14.2042 24.7811 14.1396 24.7267 14.0852C24.6724 14.0308 24.6078 13.9876 24.5367 13.9582C24.4656 13.9287 24.3895 13.9136 24.3125 13.9136L24.3125 13.9137ZM18.0329 20.8103L15.8408 20.8072L15.8442 17.7268H18.0329V20.8103Z" fill="#65FF00"/>
</g>
<defs>
<clipPath id="clip0_532_836">
<rect width="40" height="40" fill="white"/>
</clipPath>
</defs>
</svg>
