<svg width="40" height="40" viewBox="0 0 40 40" fill="none" xmlns="http://www.w3.org/2000/svg">
<g clip-path="url(#clip0_532_837)">
<path d="M0.708515 29.2044C0.856171 28.6349 1.37336 28.2145 1.98898 28.2145H14.71C15.4405 28.2145 16.0327 28.8067 16.0327 29.5372V32.1231C16.0327 32.8536 15.4405 33.4458 14.71 33.4458H1.98898C1.25851 33.4458 0.666328 32.8536 0.666328 32.1231V31.9309M27.4147 22.4325L25.7492 21.1854C25.8304 20.7956 25.8712 20.3984 25.8709 20.0002C25.8711 19.6018 25.8304 19.2044 25.7492 18.8143L27.4147 17.5672C27.712 17.345 27.7958 16.9353 27.6102 16.6133L26.7781 15.172C26.6884 15.0166 26.5449 14.8994 26.3746 14.8428C26.2043 14.7861 26.0191 14.794 25.8542 14.8648L23.9399 15.6842C23.3451 15.1514 22.6465 14.7473 21.888 14.4976L21.6405 12.4316C21.6192 12.2535 21.5333 12.0893 21.399 11.9702C21.2648 11.8511 21.0916 11.7852 20.9122 11.7852H19.2474C18.8762 11.7852 18.5636 12.0632 18.519 12.4316L18.2722 14.4976C17.5134 14.7472 16.8145 15.1512 16.2196 15.6842L14.306 14.8648C14.1411 14.794 13.956 14.7861 13.7857 14.8428C13.6154 14.8994 13.4718 15.0166 13.3821 15.172L12.5494 16.6133C12.3639 16.9353 12.4476 17.345 12.745 17.5672L14.4111 18.8143C14.33 19.2044 14.2892 19.6018 14.2894 20.0002C14.2894 20.4066 14.3313 20.803 14.4111 21.1854L12.7451 22.4325C12.6015 22.5401 12.5023 22.6966 12.4663 22.8723C12.4302 23.0481 12.4599 23.231 12.5496 23.3864L13.3823 24.8284C13.4721 24.9837 13.6156 25.1008 13.7859 25.1574C13.9562 25.2141 14.1413 25.2063 14.3062 25.1357L16.2198 24.3162C16.8147 24.8492 17.5136 25.2532 18.2724 25.5028L18.5191 27.5688C18.5406 27.7468 18.6266 27.9109 18.7608 28.0299C18.895 28.1489 19.0681 28.2146 19.2475 28.2146H20.9123C21.2835 28.2146 21.5968 27.9373 21.6407 27.5688L21.8881 25.5028C22.6466 25.2531 23.3453 24.8491 23.9401 24.3162L25.8544 25.1357C26.0193 25.2063 26.2044 25.214 26.3746 25.1574C26.5449 25.1008 26.6885 24.9837 26.7783 24.8284L27.6104 23.3864C27.7 23.2309 27.7295 23.0481 27.6935 22.8723C27.6574 22.6966 27.5582 22.5401 27.4147 22.4325ZM20.0802 23.0178C18.4134 23.0178 17.0625 21.6663 17.0625 20.0001C17.0625 18.3333 18.4134 16.9824 20.0802 16.9824C21.7464 16.9824 23.0973 18.3333 23.0973 20.0001C23.0973 21.6663 21.7464 23.0178 20.0802 23.0178ZM14.7098 38.6768H1.98874C1.2582 38.6768 0.666016 38.0847 0.666016 37.3541V34.7685C0.666016 34.038 1.2582 33.4458 1.98874 33.4458H14.7098C15.4403 33.4458 16.0325 34.038 16.0325 34.7685V37.3541C16.0325 38.0847 15.4403 38.6768 14.7098 38.6768Z" stroke="#65FF00" stroke-miterlimit="10" stroke-linecap="round" stroke-linejoin="round"/>
<path d="M3.58781 31.9339C4.19722 31.9339 4.69125 31.4399 4.69125 30.8305C4.69125 30.2211 4.19722 29.7271 3.58781 29.7271C2.9784 29.7271 2.48438 30.2211 2.48438 30.8305C2.48438 31.4399 2.9784 31.9339 3.58781 31.9339Z" stroke="#65FF00" stroke-miterlimit="10" stroke-linecap="round" stroke-linejoin="round"/>
<path d="M7.24602 31.9339C7.85543 31.9339 8.34945 31.4399 8.34945 30.8305C8.34945 30.2211 7.85543 29.7271 7.24602 29.7271C6.6366 29.7271 6.14258 30.2211 6.14258 30.8305C6.14258 31.4399 6.6366 31.9339 7.24602 31.9339Z" stroke="#65FF00" stroke-miterlimit="10" stroke-linecap="round" stroke-linejoin="round"/>
<path d="M3.58781 37.1649C4.19722 37.1649 4.69125 36.6709 4.69125 36.0614C4.69125 35.452 4.19722 34.958 3.58781 34.958C2.9784 34.958 2.48438 35.452 2.48438 36.0614C2.48438 36.6709 2.9784 37.1649 3.58781 37.1649Z" stroke="#65FF00" stroke-miterlimit="10" stroke-linecap="round" stroke-linejoin="round"/>
<path d="M7.24602 37.1649C7.85543 37.1649 8.34945 36.6709 8.34945 36.0614C8.34945 35.452 7.85543 34.958 7.24602 34.958C6.6366 34.958 6.14258 35.452 6.14258 36.0614C6.14258 36.6709 6.6366 37.1649 7.24602 37.1649Z" stroke="#65FF00" stroke-miterlimit="10" stroke-linecap="round" stroke-linejoin="round"/>
<path d="M10.5762 30.8304H14.0372M10.5762 36.0615H14.0372M35.2447 0.585938H38.0103C38.7407 0.585938 39.3329 1.17812 39.3329 1.90859V4.49452C39.3329 5.22498 38.7407 5.81717 38.0103 5.81717H25.2892C24.5588 5.81717 23.9666 5.22498 23.9666 4.49452V1.90859C23.9666 1.17812 24.5588 0.585938 25.2892 0.585938H32.5103" stroke="#65FF00" stroke-miterlimit="10" stroke-linecap="round" stroke-linejoin="round"/>
<path d="M38.0106 11.0481H25.2895C24.559 11.0481 23.9668 10.4559 23.9668 9.72533V7.13963C23.9668 6.40908 24.559 5.81689 25.2895 5.81689H38.0106C38.7412 5.81689 39.3334 6.40908 39.3334 7.13963V9.72525C39.3334 10.4559 38.7412 11.0481 38.0106 11.0481Z" stroke="#65FF00" stroke-miterlimit="10" stroke-linecap="round" stroke-linejoin="round"/>
<path d="M26.8896 4.30502C27.499 4.30502 27.993 3.81099 27.993 3.20158C27.993 2.59217 27.499 2.09814 26.8896 2.09814C26.2802 2.09814 25.7861 2.59217 25.7861 3.20158C25.7861 3.81099 26.2802 4.30502 26.8896 4.30502Z" stroke="#65FF00" stroke-miterlimit="10" stroke-linecap="round" stroke-linejoin="round"/>
<path d="M30.5468 4.30502C31.1562 4.30502 31.6502 3.81099 31.6502 3.20158C31.6502 2.59217 31.1562 2.09814 30.5468 2.09814C29.9374 2.09814 29.4434 2.59217 29.4434 3.20158C29.4434 3.81099 29.9374 4.30502 30.5468 4.30502Z" stroke="#65FF00" stroke-miterlimit="10" stroke-linecap="round" stroke-linejoin="round"/>
<path d="M26.8896 9.53598C27.499 9.53598 27.993 9.04195 27.993 8.43254C27.993 7.82313 27.499 7.3291 26.8896 7.3291C26.2802 7.3291 25.7861 7.82313 25.7861 8.43254C25.7861 9.04195 26.2802 9.53598 26.8896 9.53598Z" stroke="#65FF00" stroke-miterlimit="10" stroke-linecap="round" stroke-linejoin="round"/>
<path d="M30.5468 9.53598C31.1562 9.53598 31.6502 9.04195 31.6502 8.43254C31.6502 7.82313 31.1562 7.3291 30.5468 7.3291C29.9374 7.3291 29.4434 7.82313 29.4434 8.43254C29.4434 9.04195 29.9374 9.53598 30.5468 9.53598Z" stroke="#65FF00" stroke-miterlimit="10" stroke-linecap="round" stroke-linejoin="round"/>
<path d="M33.8776 3.20142H37.3386M33.8776 8.43257H37.3386M24.4387 38.9411L25.602 39.3747C26.0434 39.5388 26.4965 39.1638 26.4184 38.6997L26.2059 37.438C29.602 36.2404 32.6371 34.0302 34.8223 31.1427C37.2668 27.9138 38.559 24.0607 38.559 19.9998C38.559 19.2303 38.5113 18.4576 38.4168 17.7037C38.3371 17.067 37.7566 16.6154 37.1191 16.6951C36.4824 16.7748 36.0308 17.3561 36.1105 17.9928C36.1926 18.6514 36.2347 19.3264 36.2347 19.9998C36.2347 23.5498 35.1058 26.9185 32.9691 29.7404C31.1395 32.1576 28.6285 34.0333 25.8129 35.1068L25.6145 33.9318C25.5364 33.4677 24.9848 33.2622 24.6223 33.5622L20.8957 36.6427C20.5332 36.9419 20.6309 37.5224 21.0715 37.6864L21.9098 37.9989M19.0876 2.31322L14.5571 0.62526C14.1161 0.460963 13.6626 0.835728 13.7409 1.29979L13.9537 2.56213C10.5573 3.75923 7.52205 5.96993 5.33698 8.85671C2.89261 12.086 1.60059 15.9393 1.60059 20C1.60059 20.7697 1.64848 21.5422 1.74285 22.2958C1.81644 22.8836 2.31699 23.3136 2.89449 23.3136C2.94261 23.3136 2.99136 23.3106 3.04035 23.3045C3.67714 23.2247 4.12878 22.6438 4.04901 22.007C3.96608 21.3412 3.92459 20.6708 3.9248 19.9999C3.9248 16.4498 5.05393 13.0815 7.19017 10.2594C9.02009 7.84179 11.5308 5.96664 14.3467 4.89306L14.5448 6.06789C14.623 6.53196 15.1743 6.73727 15.537 6.43742L19.2637 3.3572C19.6264 3.05744 19.5286 2.47744 19.0876 2.31322Z" stroke="#65FF00" stroke-miterlimit="10" stroke-linecap="round" stroke-linejoin="round"/>
</g>
<defs>
<clipPath id="clip0_532_837">
<rect width="40" height="40" fill="white"/>
</clipPath>
</defs>
</svg>
