<svg width="40" height="40" viewBox="0 0 40 40" fill="none" xmlns="http://www.w3.org/2000/svg">
<path d="M32.329 25.8733C32.2901 25.8719 32.2513 25.8703 32.2121 25.8703C30.7809 25.8703 29.4663 26.378 28.4382 27.2226L26.838 25.6224C28.2502 24.0174 29.1081 21.9136 29.1081 19.6128C29.1081 17.312 28.2502 15.2081 26.838 13.6031L28.4382 12.003C29.4663 12.8474 30.7809 13.3552 32.2121 13.3552C35.4957 13.3552 38.1671 10.6839 38.1671 7.40031C38.1671 4.11672 35.4957 1.44531 32.212 1.44531C28.9285 1.44531 26.2571 4.11664 26.2571 7.40023C26.2571 8.83141 26.7649 10.1461 27.6095 11.1742L26.0093 12.7744C24.4043 11.3622 22.3004 10.5042 19.9995 10.5042C17.7862 10.5034 15.6484 11.3093 13.9864 12.7711L12.3896 11.1743C13.2341 10.1463 13.742 8.83156 13.742 7.40031C13.742 4.1168 11.0706 1.44539 7.78703 1.44539C4.50344 1.44539 1.83203 4.11672 1.83203 7.40031C1.83203 10.6839 4.50336 13.3552 7.78703 13.3552C9.2182 13.3552 10.5328 12.8475 11.5609 12.003L13.158 13.6001C11.9837 14.9357 11.22 16.5898 10.9764 18.3609C10.9571 18.514 10.9989 18.6685 11.0928 18.7909C11.1866 18.9133 11.325 18.9938 11.4778 19.0148C11.6307 19.0358 11.7856 18.9957 11.9091 18.9032C12.0325 18.8107 12.1145 18.6733 12.1373 18.5207C12.674 14.6187 16.0541 11.6762 19.9995 11.6762C24.3759 11.6762 27.9362 15.2366 27.9362 19.6129C27.9362 23.9892 24.3759 27.5494 19.9996 27.5494C16.0541 27.5494 12.6741 24.6069 12.1373 20.7048C12.1276 20.628 12.1028 20.5538 12.0642 20.4865C12.0256 20.4193 11.9741 20.3604 11.9126 20.3133C11.8511 20.2661 11.7808 20.2316 11.7059 20.2118C11.631 20.192 11.5529 20.1872 11.4761 20.1978C11.3994 20.2083 11.3254 20.234 11.2587 20.2734C11.1919 20.3127 11.1336 20.3649 11.0871 20.4269C11.0406 20.4889 11.0069 20.5595 10.9879 20.6347C10.969 20.7098 10.9651 20.788 10.9765 20.8646C11.2201 22.6359 11.9837 24.2899 13.1582 25.6255L11.5611 27.2226C10.533 26.378 9.21836 25.8703 7.78719 25.8703C7.74797 25.8703 7.70906 25.8719 7.67023 25.8733C4.44062 25.936 1.83219 28.5809 1.83219 31.8252C1.83219 35.1087 4.50352 37.7802 7.78719 37.7802C11.0707 37.7802 13.7421 35.1088 13.7421 31.8252C13.7421 30.394 13.2343 29.0793 12.3898 28.0513L13.9866 26.4545L13.9898 26.4574C14.9564 27.3067 16.0922 27.9413 17.3222 28.3191V31.1911C16.1441 31.5715 15.2893 32.6781 15.2893 33.9813V37.9688C15.2893 38.2924 15.5516 38.5547 15.8752 38.5547H18.8277C19.1514 38.5547 19.4137 38.2924 19.4137 37.9688C19.4137 37.6451 19.1514 37.3828 18.8277 37.3828H16.4611V33.9811C16.4611 33.0108 17.2505 32.2214 18.2208 32.2214H21.7784C22.7487 32.2214 23.538 33.0108 23.538 33.9811V37.3828H21.1715C20.8478 37.3828 20.5855 37.6451 20.5855 37.9688C20.5855 38.2924 20.8478 38.5547 21.1715 38.5547H24.1241C24.4477 38.5547 24.71 38.2924 24.71 37.9688V33.9811C24.71 32.678 23.8552 31.5713 22.6771 31.1909V28.3195C23.9223 27.9358 25.0541 27.2916 26.0094 26.4511L27.6095 28.0513C26.765 29.0793 26.2572 30.394 26.2572 31.8252C26.2572 35.1087 28.9285 37.7802 32.2121 37.7802C35.4957 37.7802 38.1671 35.1088 38.1671 31.8252C38.167 28.5809 35.5587 25.936 32.329 25.8733ZM12.5702 7.40023C12.5702 8.07289 12.4299 8.71313 12.1782 9.29438C11.6353 8.38627 10.8227 7.67012 9.85359 7.2457C10.5822 6.64719 11.0478 5.73977 11.0478 4.72547C11.0479 4.40507 11.0006 4.08641 10.9075 3.77984C11.9245 4.65758 12.5702 5.95453 12.5702 7.40023ZM5.69828 4.72539C5.69828 3.57367 6.63531 2.63664 7.78711 2.63664C8.93883 2.63664 9.87586 3.57367 9.87586 4.72539C9.87586 5.87719 8.93883 6.81422 7.78711 6.81422C6.63539 6.8143 5.69828 5.87727 5.69828 4.72539ZM4.66672 3.77984C4.57358 4.08641 4.5263 4.40507 4.52641 4.72547C4.52641 5.73977 4.99203 6.64727 5.7207 7.24578C4.75156 7.67021 3.93892 8.38636 3.39602 9.29445C3.13695 8.6966 3.00354 8.05188 3.00406 7.40031C3.00406 5.95453 3.64969 4.65758 4.66672 3.77984ZM4.12 10.4667C4.71578 8.97117 6.15336 7.98617 7.78711 7.98617C9.42086 7.98617 10.8584 8.97125 11.4542 10.4666C10.5761 11.515 9.25836 12.1832 7.78711 12.1832C6.31586 12.1832 4.99813 11.515 4.12 10.4667ZM32.212 12.1832C30.7408 12.1832 29.423 11.515 28.5449 10.4666C29.1408 8.97117 30.5784 7.98617 32.212 7.98617C33.8458 7.98617 35.2834 8.97117 35.8791 10.4667C35.0011 11.515 33.6834 12.1832 32.212 12.1832ZM30.1233 4.72539C30.1233 3.57367 31.0603 2.63664 32.212 2.63664C33.3638 2.63664 34.3009 3.57367 34.3009 4.72539C34.3009 5.87719 33.3638 6.81422 32.212 6.81422C31.0603 6.8143 30.1233 5.87727 30.1233 4.72539ZM36.9952 7.40023C36.9952 8.07289 36.8549 8.71313 36.6032 9.29438C36.0603 8.38626 35.2477 7.67011 34.2785 7.2457C35.0071 6.64719 35.4728 5.73969 35.4728 4.72539C35.4729 4.40499 35.4256 4.08633 35.3325 3.77977C36.3495 4.65758 36.9952 5.95453 36.9952 7.40023ZM29.0917 3.77977C28.9986 4.08633 28.9513 4.40499 28.9514 4.72539C28.9514 5.73969 29.417 6.64719 30.1456 7.24563C29.1765 7.67007 28.3639 8.38621 27.821 9.2943C27.562 8.69644 27.4285 8.05172 27.4291 7.40016C27.4291 5.95453 28.0747 4.65758 29.0917 3.77977ZM34.301 29.131C34.301 30.2827 33.364 31.2198 32.2122 31.2198C31.0604 31.2198 30.1234 30.2827 30.1234 29.131C30.1234 27.9792 31.0604 27.0422 32.2122 27.0422C32.2482 27.0422 32.2838 27.0441 32.3196 27.0449C33.4216 27.1009 34.301 28.0152 34.301 29.131ZM7.78711 31.2198C6.63531 31.2198 5.69828 30.2827 5.69828 29.131C5.69828 28.0152 6.57766 27.1009 7.67977 27.0449C7.71562 27.0441 7.75117 27.0422 7.78719 27.0422C8.93898 27.0422 9.87602 27.9792 9.87602 29.131C9.87594 30.2827 8.93891 31.2198 7.78711 31.2198ZM4.6593 28.2113C4.57113 28.5099 4.52635 28.8196 4.52633 29.131C4.52633 30.1453 4.99195 31.0527 5.72062 31.6512C4.74846 32.0771 3.9339 32.7965 3.39109 33.7085C3.13518 33.1137 3.00348 32.4728 3.00406 31.8252C3.00406 30.383 3.64656 29.0889 4.6593 28.2113ZM7.78719 36.6082C6.31305 36.6082 4.99297 35.9375 4.11484 34.8856C4.70742 33.3827 6.14852 32.3916 7.78711 32.3916C9.42578 32.3916 10.8669 33.3827 11.4594 34.8857C10.5812 35.9375 9.26125 36.6082 7.78719 36.6082ZM12.1831 33.7084C11.6403 32.7964 10.8257 32.077 9.85352 31.6512C10.5821 31.0528 11.0477 30.1453 11.0477 29.131C11.0477 28.8116 11.0008 28.503 10.9148 28.2111C11.9276 29.0887 12.5702 30.383 12.5702 31.8252C12.5702 32.4936 12.4319 33.1301 12.1831 33.7084ZM21.5052 31.0495H18.494V28.5957C18.9915 28.6791 19.4951 28.7211 19.9995 28.7212C20.5123 28.7212 21.0152 28.678 21.5051 28.5961V31.0495H21.5052ZM29.0844 28.2111C28.9962 28.5098 28.9514 28.8196 28.9514 29.131C28.9514 30.1453 29.417 31.0527 30.1456 31.6512C29.1734 32.0771 28.3589 32.7964 27.816 33.7084C27.5601 33.1136 27.4284 32.4728 27.429 31.8252C27.4291 30.383 28.0716 29.0888 29.0844 28.2111ZM32.212 36.6082C30.738 36.6082 29.4179 35.9376 28.5398 34.8858C29.1323 33.3827 30.5735 32.3917 32.2121 32.3917C33.8507 32.3917 35.2918 33.3827 35.8844 34.8857C35.0063 35.9375 33.6862 36.6082 32.212 36.6082ZM36.6081 33.7084C36.0653 32.7964 35.2508 32.077 34.2786 31.6512C35.0072 31.0527 35.4729 30.1452 35.4729 29.1309C35.4729 28.8196 35.4281 28.5098 35.3399 28.2112C36.3527 29.0888 36.9952 30.383 36.9952 31.8252C36.9957 32.4727 36.864 33.1136 36.6081 33.7084ZM14.2874 18.0436C14.1535 18.0692 14.0327 18.1406 13.9458 18.2457C13.8589 18.3507 13.8114 18.4828 13.8114 18.6191V20.6063C13.8114 20.7426 13.8589 20.8746 13.9458 20.9797C14.0327 21.0848 14.1535 21.1562 14.2874 21.1818L15.1859 21.3534C15.239 21.5001 15.2988 21.6443 15.3651 21.7855L14.851 22.5423C14.7744 22.6551 14.7395 22.791 14.7524 22.9268C14.7652 23.0625 14.825 23.1895 14.9213 23.2859L16.3263 24.6909C16.4227 24.7873 16.5497 24.8471 16.6855 24.8599C16.8212 24.8728 16.9572 24.8379 17.0699 24.7612L17.8267 24.2472C17.968 24.3135 18.1122 24.3733 18.259 24.4264L18.4305 25.3248C18.4562 25.4587 18.5276 25.5795 18.6327 25.6664C18.7377 25.7533 18.8698 25.8008 19.0061 25.8009H20.9931C21.2744 25.8009 21.5159 25.601 21.5687 25.3248L21.7402 24.4264C21.887 24.3733 22.0312 24.3135 22.1724 24.2472L22.9293 24.7612C23.0421 24.8378 23.178 24.8727 23.3137 24.8598C23.4495 24.847 23.5765 24.7873 23.6729 24.6909L25.0779 23.2859C25.1743 23.1895 25.234 23.0625 25.2469 22.9268C25.2597 22.791 25.2248 22.6551 25.1482 22.5423L24.6341 21.7855C24.7004 21.6443 24.7602 21.5001 24.8133 21.3534L25.7118 21.1818C25.8457 21.1562 25.9665 21.0847 26.0534 20.9797C26.1402 20.8746 26.1878 20.7426 26.1878 20.6063V18.6191C26.1878 18.3379 25.988 18.0964 25.7118 18.0436L24.8133 17.872C24.7602 17.7253 24.7004 17.5811 24.6341 17.4398L25.1482 16.683C25.2248 16.5702 25.2597 16.4342 25.2468 16.2985C25.234 16.1628 25.1742 16.0358 25.0778 15.9394L23.6728 14.5345C23.5764 14.4381 23.4494 14.3783 23.3137 14.3655C23.178 14.3527 23.0421 14.3875 22.9293 14.4641L22.1724 14.9782C22.0312 14.9119 21.8869 14.8521 21.7402 14.799L21.5687 13.9005C21.5431 13.7666 21.4716 13.6458 21.3666 13.559C21.2615 13.4721 21.1295 13.4245 20.9931 13.4245H19.0061C18.8698 13.4245 18.7377 13.4721 18.6326 13.559C18.5276 13.6458 18.4561 13.7666 18.4305 13.9005L18.259 14.799C18.1123 14.8521 17.9681 14.9119 17.8268 14.9782L17.0699 14.4641C16.9571 14.3876 16.8212 14.3527 16.6855 14.3655C16.5498 14.3784 16.4228 14.4381 16.3263 14.5345L14.9213 15.9395C14.8249 16.0359 14.7652 16.1629 14.7523 16.2986C14.7395 16.4344 14.7744 16.5703 14.851 16.6831L15.3651 17.4398C15.2988 17.5811 15.239 17.7253 15.1859 17.872L14.2874 18.0436ZM15.7469 18.9579C15.8538 18.9375 15.9529 18.8877 16.0331 18.8141C16.1133 18.7404 16.1714 18.646 16.2009 18.5412C16.2851 18.2427 16.4043 17.9553 16.556 17.6848C16.6093 17.5899 16.6351 17.4819 16.6305 17.3731C16.6259 17.2642 16.591 17.1589 16.5298 17.0687L16.0927 16.4255L16.8123 15.7058L17.4557 16.1428C17.5458 16.204 17.6511 16.2388 17.7599 16.2435C17.8687 16.2481 17.9767 16.2224 18.0716 16.1691C18.3421 16.0174 18.6295 15.8982 18.928 15.8141C19.0328 15.7846 19.1273 15.7265 19.2009 15.6463C19.2745 15.5661 19.3244 15.4669 19.3448 15.36L19.4907 14.5964H20.5084L20.6543 15.36C20.6748 15.4669 20.7246 15.5661 20.7982 15.6463C20.8719 15.7265 20.9664 15.7846 21.0712 15.8141C21.3696 15.8982 21.6571 16.0174 21.9275 16.1691C22.0225 16.2225 22.1304 16.2483 22.2392 16.2436C22.348 16.2389 22.4534 16.204 22.5434 16.1428L23.1868 15.7058L23.9065 16.4255L23.4694 17.0687C23.4082 17.1589 23.3733 17.2642 23.3686 17.3731C23.364 17.4819 23.3898 17.5899 23.4431 17.6848C23.5948 17.9552 23.714 18.2426 23.798 18.541C23.8276 18.6458 23.8857 18.7403 23.9659 18.814C24.0461 18.8876 24.1452 18.9374 24.2522 18.9579L25.0159 19.1038V20.1216L24.2522 20.2674C24.1452 20.2879 24.0461 20.3377 23.9659 20.4113C23.8857 20.485 23.8276 20.5795 23.798 20.6843C23.714 20.9827 23.5948 21.2701 23.4431 21.5405C23.3898 21.6355 23.364 21.7434 23.3686 21.8522C23.3733 21.9611 23.4082 22.0665 23.4694 22.1566L23.9065 22.7998L23.1868 23.5195L22.5434 23.0825C22.4533 23.0213 22.3479 22.9864 22.2391 22.9818C22.1303 22.9771 22.0224 23.0029 21.9274 23.0562C21.657 23.2079 21.3696 23.3271 21.0712 23.4112C20.9664 23.4407 20.8719 23.4988 20.7982 23.579C20.7246 23.6592 20.6748 23.7584 20.6543 23.8653L20.5084 24.6289H19.4907L19.3448 23.8653C19.3244 23.7584 19.2745 23.6592 19.2009 23.579C19.1273 23.4988 19.0328 23.4407 18.928 23.4112C18.6295 23.3271 18.3421 23.208 18.0717 23.0562C17.9767 23.0029 17.8688 22.9771 17.76 22.9818C17.6512 22.9864 17.5458 23.0213 17.4557 23.0825L16.8123 23.5195L16.0927 22.7998L16.5298 22.1566C16.591 22.0665 16.6259 21.9611 16.6305 21.8522C16.6351 21.7434 16.6093 21.6355 16.556 21.5405C16.4043 21.27 16.2851 20.9826 16.2009 20.6841C16.1714 20.5794 16.1133 20.4849 16.0331 20.4113C15.9529 20.3377 15.8538 20.2878 15.7469 20.2674L14.9833 20.1216V19.1038L15.7469 18.9579ZM19.9996 22.5793C21.6354 22.5793 22.9662 21.2485 22.9662 19.6127C22.9662 17.977 21.6354 16.6461 19.9996 16.6461C18.3638 16.6461 17.033 17.9769 17.033 19.6127C17.033 21.2484 18.3639 22.5793 19.9996 22.5793ZM19.9996 17.818C20.9892 17.818 21.7943 18.6231 21.7943 19.6127C21.7943 20.6023 20.9892 21.4074 19.9996 21.4074C19.01 21.4074 18.2049 20.6023 18.2049 19.6127C18.2049 18.6231 19.01 17.818 19.9996 17.818Z" fill="#65FF00"/>
</svg>
