<svg width="40" height="40" viewBox="0 0 40 40" fill="none" xmlns="http://www.w3.org/2000/svg">
<g clip-path="url(#clip0_532_839)">
<path d="M34.4486 12.8178C34.6109 12.2793 34.693 11.72 34.6924 11.1576C34.6924 8.14277 32.3572 5.66309 29.401 5.4334C29.1721 2.91777 27.0518 0.94043 24.4775 0.94043C22.501 0.94043 20.7908 2.10527 20.0002 3.78496C19.2096 2.10605 17.5002 0.94043 15.5244 0.94043C12.9502 0.94043 10.8291 2.91777 10.601 5.4334C7.64395 5.6623 5.30801 8.14199 5.30801 11.1576C5.30801 11.7256 5.39004 12.2818 5.55176 12.8178C2.65332 13.9568 0.741602 16.7193 0.637695 19.9834V20.0131C0.741602 23.2787 2.65332 26.0412 5.55176 27.1811C5.38944 27.7195 5.30731 28.2789 5.30801 28.8412C5.30801 31.8561 7.64395 34.3357 10.601 34.5654C10.8299 37.0811 12.9502 39.0584 15.5244 39.0584C17.5002 39.0584 19.2096 37.8936 20.0002 36.2139C20.7916 37.8928 22.501 39.0584 24.4775 39.0584C27.0518 39.0584 29.1728 37.0811 29.401 34.5654C32.3572 34.3365 34.6924 31.8568 34.6924 28.8412C34.6924 28.2732 34.6104 27.717 34.4486 27.1811C37.3463 26.0428 39.2588 23.2795 39.3643 20.0131V19.9826C39.258 16.7186 37.3463 13.9561 34.4486 12.8178ZM33.7088 26.4514C33.6478 26.4711 33.5915 26.5031 33.5434 26.5455C33.4952 26.5878 33.4563 26.6396 33.429 26.6976C33.4017 26.7556 33.3866 26.8186 33.3846 26.8826C33.3826 26.9467 33.3937 27.0105 33.4174 27.0701C33.6408 27.6326 33.7541 28.2287 33.7541 28.842C33.7541 31.3443 31.8322 33.4045 29.3885 33.6256C29.1471 31.7146 27.5127 30.2318 25.5369 30.2318C25.2783 30.2318 25.0682 30.4412 25.0682 30.7006C25.0682 30.96 25.2775 31.1693 25.5369 31.1693C27.1619 31.1693 28.483 32.4912 28.483 34.1162C28.483 36.3256 26.6854 38.1232 24.476 38.1232C22.265 38.1232 20.4666 36.3256 20.4666 34.1162C20.4666 33.8576 20.2572 33.6475 19.9979 33.6475C19.7385 33.6475 19.5291 33.8568 19.5291 34.1162C19.5291 36.3256 17.7314 38.1232 15.5221 38.1232C13.3127 38.1232 11.515 36.3256 11.515 34.1162C11.515 32.4912 12.8361 31.1693 14.4596 31.1693C14.7182 31.1693 14.9283 30.96 14.9283 30.7006C14.9283 30.4412 14.7189 30.2318 14.4596 30.2318C12.4854 30.2318 10.8518 31.7146 10.6104 33.6264C8.16504 33.4053 6.24238 31.3443 6.24238 28.8428C6.24238 28.2303 6.35566 27.6342 6.5791 27.0709C6.62676 26.9506 6.62285 26.8154 6.56738 26.699C6.51191 26.5826 6.41113 26.4928 6.2877 26.4529C3.52363 25.5576 1.67363 23.0256 1.57129 19.9998C1.67363 16.9756 3.52285 14.4451 6.2877 13.549C6.41113 13.5092 6.51191 13.4201 6.56738 13.3029C6.62285 13.1857 6.62676 13.0514 6.5791 12.9311C6.35566 12.3686 6.24238 11.7725 6.24238 11.1592C6.24238 8.65684 8.16504 6.59668 10.6104 6.37559C10.8518 8.28652 12.4854 9.77012 14.4596 9.77012C14.7182 9.77012 14.9283 9.56074 14.9283 9.30137C14.9283 9.04199 14.7189 8.83262 14.4596 8.83262C12.8361 8.83262 11.515 7.51074 11.515 5.88574C11.515 3.67637 13.3127 1.87871 15.5221 1.87871C17.7314 1.87871 19.5291 3.67637 19.5291 5.88574C19.5291 6.14434 19.7385 6.35449 19.9979 6.35449C20.2572 6.35449 20.4666 6.14512 20.4666 5.88574C20.4666 3.67637 22.265 1.87871 24.476 1.87871C26.6854 1.87871 28.483 3.67637 28.483 5.88574C28.483 7.51074 27.1611 8.83262 25.5369 8.83262C25.2783 8.83262 25.0682 9.04199 25.0682 9.30137C25.0682 9.56074 25.2775 9.77012 25.5369 9.77012C27.5127 9.77012 29.1471 8.2873 29.3885 6.37637C31.8322 6.59746 33.7541 8.6584 33.7541 11.16C33.7541 11.7725 33.6408 12.3686 33.4174 12.9318C33.3937 12.9914 33.3825 13.0552 33.3845 13.1193C33.3865 13.1834 33.4016 13.2464 33.4289 13.3044C33.4562 13.3624 33.4952 13.4142 33.5433 13.4565C33.5915 13.4989 33.6478 13.5309 33.7088 13.5506C36.4721 14.4451 38.3228 16.9764 38.4268 20.0014C38.3236 23.0248 36.4729 25.5568 33.7088 26.4514ZM24.9439 14.585H15.0533C14.7947 14.585 14.5846 14.7943 14.5846 15.0537V24.9459C14.5846 25.2045 14.7939 25.4146 15.0533 25.4146H24.9439C25.2025 25.4146 25.4127 25.2053 25.4127 24.9459V15.0537C25.4127 14.7951 25.2025 14.585 24.9439 14.585ZM24.476 24.4779H15.5229V15.5217H24.476V24.4779ZM29.101 15.4287C29.3596 15.4287 29.5697 15.2193 29.5697 14.96C29.5697 14.7006 29.3603 14.4912 29.101 14.4912H27.1885V13.2787C27.1885 13.0201 26.9791 12.81 26.7197 12.81H25.508V10.8975C25.508 10.6389 25.2986 10.4287 25.0393 10.4287C24.7799 10.4287 24.5705 10.6381 24.5705 10.8975V12.81H22.1486V10.8975C22.1486 10.6389 21.9393 10.4287 21.6799 10.4287C21.4205 10.4287 21.2111 10.6381 21.2111 10.8975V12.81H18.7885V10.8975C18.7885 10.6389 18.5791 10.4287 18.3197 10.4287C18.0604 10.4287 17.851 10.6381 17.851 10.8975V12.81H15.426V10.8975C15.426 10.6389 15.2166 10.4287 14.9572 10.4287C14.6979 10.4287 14.4885 10.6381 14.4885 10.8975V12.81H13.2783C13.0197 12.81 12.8096 13.0193 12.8096 13.2787V14.4912H10.8947C10.6361 14.4912 10.426 14.7006 10.426 14.96C10.426 15.2193 10.6354 15.4287 10.8947 15.4287H12.8096V17.8514H10.8947C10.6361 17.8514 10.426 18.0607 10.426 18.3201C10.426 18.5795 10.6354 18.7889 10.8947 18.7889H12.8096V21.2115H10.8947C10.6361 21.2115 10.426 21.4209 10.426 21.6803C10.426 21.9396 10.6354 22.149 10.8947 22.149H12.8096V24.5717H10.8947C10.6361 24.5717 10.426 24.7811 10.426 25.0404C10.426 25.2998 10.6354 25.5092 10.8947 25.5092H12.8096V26.7217C12.8096 26.9803 13.0189 27.1904 13.2783 27.1904H14.4885V29.1029C14.4885 29.3615 14.6979 29.5717 14.9572 29.5717C15.2166 29.5717 15.426 29.3623 15.426 29.1029V27.1904H17.851V29.1029C17.851 29.3615 18.0604 29.5717 18.3197 29.5717C18.5791 29.5717 18.7885 29.3623 18.7885 29.1029V27.1904H21.2111V29.1029C21.2111 29.3615 21.4205 29.5717 21.6799 29.5717C21.9393 29.5717 22.1486 29.3623 22.1486 29.1029V27.1904H24.5713V29.1029C24.5713 29.3615 24.7807 29.5717 25.04 29.5717C25.2994 29.5717 25.5088 29.3623 25.5088 29.1029V27.1904H26.7213C26.9799 27.1904 27.19 26.9811 27.19 26.7217V25.5076H29.1025C29.3611 25.5076 29.5713 25.2982 29.5713 25.0389C29.5713 24.7795 29.3619 24.5701 29.1025 24.5701H27.19V22.1482H29.1025C29.3611 22.1482 29.5713 21.9389 29.5713 21.6795C29.5713 21.4201 29.3619 21.2107 29.1025 21.2107H27.19V18.7881H29.1025C29.3611 18.7881 29.5713 18.5787 29.5713 18.3193C29.5713 18.06 29.3619 17.8506 29.1025 17.8506H27.19V15.4279H29.101V15.4287ZM26.2518 26.2514H13.7486V13.7482H26.2518V26.2514Z" fill="#65FF00"/>
</g>
<defs>
<clipPath id="clip0_532_839">
<rect width="40" height="40" fill="white"/>
</clipPath>
</defs>
</svg>
