<svg width="40" height="40" viewBox="0 0 40 40" fill="none" xmlns="http://www.w3.org/2000/svg">
<path d="M30.1383 23.2437H22.8133C22.2945 23.2437 21.8758 22.8249 21.8758 22.3062C21.8758 21.7874 22.2945 21.3687 22.8133 21.3687H30.032C30.057 21.3687 30.1445 21.3687 30.1695 21.3749C32.532 21.3749 34.482 19.4249 34.482 17.0312C34.482 14.6374 32.532 12.6874 30.1383 12.6874C29.9883 12.6874 29.8383 12.6999 29.6945 12.7124C29.2383 12.7624 28.8258 12.4749 28.6945 12.0437C28.157 10.1999 26.4445 8.90615 24.5258 8.90615C23.8883 8.90615 23.2695 9.04365 22.6945 9.31865C22.432 9.44365 22.132 9.44365 21.8695 9.3124C21.6133 9.18115 21.4258 8.94365 21.3695 8.65615C20.832 5.9874 18.4758 4.0499 15.757 4.0499C12.6008 4.0499 10.032 6.61865 10.032 9.7749C10.032 10.3562 10.1195 10.9312 10.2883 11.4937C10.3695 11.7624 10.3258 12.0562 10.1695 12.2937C10.0133 12.5312 9.75703 12.6812 9.47578 12.7062C7.25703 12.8999 5.51953 14.7999 5.51953 17.0312C5.51953 19.4249 7.46953 21.3749 9.86328 21.3749H17.1883C17.707 21.3749 18.1258 21.7937 18.1258 22.3124C18.1258 22.8312 17.707 23.2499 17.1883 23.2499H9.86328C6.43203 23.2499 3.64453 20.4624 3.64453 17.0312C3.64453 14.1999 5.60078 11.7437 8.25703 11.0249C8.18828 10.6124 8.15703 10.1937 8.15703 9.78115C8.15703 5.5874 11.5695 2.18115 15.757 2.18115C19.0008 2.18115 21.857 4.25615 22.9195 7.24365C23.4383 7.0999 23.9758 7.03115 24.5258 7.03115C27.0195 7.03115 29.2758 8.55615 30.2445 10.8124C33.6258 10.8687 36.357 13.6374 36.357 17.0312C36.357 20.4249 33.5695 23.2499 30.1383 23.2499V23.2437Z" fill="#65FF00"/>
<path d="M10.4367 28.8812H6.63672C6.11797 28.8812 5.69922 28.4624 5.69922 27.9437C5.69922 27.4249 6.11797 27.0062 6.63672 27.0062H10.4367C10.9555 27.0062 11.3742 26.5874 11.3742 26.0687V22.3062C11.3742 21.7874 11.793 21.3687 12.3117 21.3687C12.8305 21.3687 13.2492 21.7874 13.2492 22.3062V26.0687C13.2492 27.6187 11.9867 28.8812 10.4367 28.8812Z" fill="#65FF00"/>
<path d="M4.88125 30.6375C4.16682 30.6375 3.48166 30.3537 2.97648 29.8485C2.4713 29.3433 2.1875 28.6582 2.1875 27.9437C2.1875 27.2293 2.4713 26.5442 2.97648 26.039C3.48166 25.5338 4.16682 25.25 4.88125 25.25C5.59568 25.25 6.28084 25.5338 6.78602 26.039C7.29119 26.5442 7.575 27.2293 7.575 27.9437C7.575 28.6582 7.29119 29.3433 6.78602 29.8485C6.28084 30.3537 5.59568 30.6375 4.88125 30.6375ZM4.88125 27.1312C4.43125 27.1312 4.0625 27.5 4.0625 27.95C4.0625 28.4 4.43125 28.7687 4.88125 28.7687C5.33125 28.7687 5.7 28.4 5.7 27.95C5.7 27.5 5.33125 27.1312 4.88125 27.1312ZM14.2313 33.675H11.6937C11.175 33.675 10.7562 33.2563 10.7562 32.7375C10.7562 32.2188 11.175 31.8 11.6937 31.8H14.2313C14.75 31.8 15.1688 31.3813 15.1688 30.8625V22.3125C15.1688 21.7938 15.5875 21.375 16.1063 21.375C16.625 21.375 17.0438 21.7938 17.0438 22.3125V30.8625C17.0438 32.4125 15.7812 33.675 14.2313 33.675Z" fill="#65FF00"/>
<path d="M9.93203 35.4312C9.2176 35.4312 8.53244 35.1473 8.02726 34.6422C7.52209 34.137 7.23828 33.4518 7.23828 32.7374C7.23828 32.023 7.52209 31.3378 8.02726 30.8326C8.53244 30.3275 9.2176 30.0437 9.93203 30.0437C10.6465 30.0437 11.3316 30.3275 11.8368 30.8326C12.342 31.3378 12.6258 32.023 12.6258 32.7374C12.6258 33.4518 12.342 34.137 11.8368 34.6422C11.3316 35.1473 10.6465 35.4312 9.93203 35.4312ZM9.93203 31.9187C9.48203 31.9187 9.11328 32.2874 9.11328 32.7374C9.11328 33.1874 9.48203 33.5562 9.93203 33.5562C10.382 33.5562 10.7508 33.1874 10.7508 32.7374C10.7508 32.2874 10.382 31.9187 9.93203 31.9187ZM20.0008 37.8249C19.2864 37.8249 18.6012 37.5411 18.096 37.0359C17.5908 36.5307 17.307 35.8456 17.307 35.1312C17.307 34.4167 17.5908 33.7316 18.096 33.2264C18.6012 32.7212 19.2864 32.4374 20.0008 32.4374C20.7152 32.4374 21.4004 32.7212 21.9056 33.2264C22.4107 33.7316 22.6945 34.4167 22.6945 35.1312C22.6945 35.8456 22.4107 36.5307 21.9056 37.0359C21.4004 37.5411 20.7152 37.8249 20.0008 37.8249ZM20.0008 34.3124C19.5508 34.3124 19.182 34.6812 19.182 35.1312C19.182 35.5812 19.5508 35.9499 20.0008 35.9499C20.4508 35.9499 20.8195 35.5812 20.8195 35.1312C20.8195 34.6812 20.4508 34.3124 20.0008 34.3124ZM33.3633 28.8812H29.5633C28.0133 28.8812 26.7508 27.6187 26.7508 26.0687V22.3062C26.7508 21.7874 27.1695 21.3687 27.6883 21.3687C28.207 21.3687 28.6258 21.7874 28.6258 22.3062V26.0687C28.6258 26.5874 29.0445 27.0062 29.5633 27.0062H33.3633C33.882 27.0062 34.3008 27.4249 34.3008 27.9437C34.3008 28.4624 33.882 28.8812 33.3633 28.8812Z" fill="#65FF00"/>
<path d="M35.1191 30.6375C34.4047 30.6375 33.7195 30.3537 33.2144 29.8485C32.7092 29.3433 32.4254 28.6582 32.4254 27.9437C32.4254 27.2293 32.7092 26.5442 33.2144 26.039C33.7195 25.5338 34.4047 25.25 35.1191 25.25C35.8336 25.25 36.5187 25.5338 37.0239 26.039C37.5291 26.5442 37.8129 27.2293 37.8129 27.9437C37.8129 28.6582 37.5291 29.3433 37.0239 29.8485C36.5187 30.3537 35.8336 30.6375 35.1191 30.6375ZM35.1191 27.1312C34.6691 27.1312 34.3004 27.5 34.3004 27.95C34.3004 28.4 34.6691 28.7687 35.1191 28.7687C35.5691 28.7687 35.9379 28.4 35.9379 27.95C35.9379 27.5 35.5691 27.1312 35.1191 27.1312ZM28.3129 33.675H25.7754C24.2254 33.675 22.9629 32.4125 22.9629 30.8625V22.3125C22.9629 21.7938 23.3816 21.375 23.9004 21.375C24.4191 21.375 24.8379 21.7938 24.8379 22.3125V30.8625C24.8379 31.3813 25.2566 31.8 25.7754 31.8H28.3129C28.8316 31.8 29.2504 32.2188 29.2504 32.7375C29.2504 33.2563 28.8316 33.675 28.3129 33.675Z" fill="#65FF00"/>
<path d="M30.0688 35.4311C29.3544 35.4311 28.6692 35.1472 28.1641 34.6421C27.6589 34.1369 27.3751 33.4517 27.3751 32.7373C27.3751 32.0229 27.6589 31.3377 28.1641 30.8325C28.6692 30.3274 29.3544 30.0436 30.0688 30.0436C30.7833 30.0436 31.4684 30.3274 31.9736 30.8325C32.4788 31.3377 32.7626 32.0229 32.7626 32.7373C32.7626 33.4517 32.4788 34.1369 31.9736 34.6421C31.4684 35.1472 30.7833 35.4311 30.0688 35.4311ZM30.0688 31.9186C29.6188 31.9186 29.2501 32.2873 29.2501 32.7373C29.2501 33.1873 29.6188 33.5561 30.0688 33.5561C30.5188 33.5561 30.8876 33.1873 30.8876 32.7373C30.8876 32.2873 30.5188 31.9186 30.0688 31.9186ZM20.0001 30.6373C19.4813 30.6373 19.0626 30.2186 19.0626 29.6998V22.3061C19.0626 21.7873 19.4813 21.3686 20.0001 21.3686C20.5188 21.3686 20.9376 21.7873 20.9376 22.3061V29.6998C20.9376 30.2186 20.5188 30.6373 20.0001 30.6373ZM17.3251 19.5123C16.9938 19.5123 16.6688 19.3373 16.5001 19.0248L14.1063 14.6311L11.7126 19.0248C11.4626 19.4811 10.8938 19.6498 10.4438 19.3998C9.98758 19.1498 9.81883 18.5811 10.0688 18.1311L13.2876 12.2248C13.4501 11.9248 13.7688 11.7373 14.1126 11.7373C14.4563 11.7373 14.7688 11.9248 14.9376 12.2248L18.1563 18.1311C18.4063 18.5873 18.2376 19.1561 17.7813 19.3998C17.6376 19.4748 17.4876 19.5123 17.3313 19.5123H17.3251Z" fill="#65FF00"/>
<path d="M16.2617 17.5685H11.9492C11.4305 17.5685 11.0117 17.1497 11.0117 16.631C11.0117 16.1122 11.4305 15.6935 11.9492 15.6935H16.2617C16.7805 15.6935 17.1992 16.1122 17.1992 16.631C17.1992 17.1497 16.7805 17.5685 16.2617 17.5685ZM20.1367 19.5122C19.618 19.5122 19.1992 19.0935 19.1992 18.5747V12.6685C19.1992 12.1497 19.618 11.731 20.1367 11.731C20.6555 11.731 21.0742 12.1497 21.0742 12.6685V18.5747C21.0742 19.0935 20.6555 19.5122 20.1367 19.5122Z" fill="#65FF00"/>
<path d="M21.9367 16.6935H20.1367C19.618 16.6935 19.1992 16.2747 19.1992 15.756C19.1992 15.2372 19.618 14.8185 20.1367 14.8185H21.9367C22.0975 14.8185 22.2517 14.7546 22.3654 14.6409C22.4791 14.5272 22.543 14.373 22.543 14.2122C22.543 14.0514 22.4791 13.8972 22.3654 13.7835C22.2517 13.6698 22.0975 13.606 21.9367 13.606H20.1367C19.618 13.606 19.1992 13.1872 19.1992 12.6685C19.1992 12.1497 19.618 11.731 20.1367 11.731H21.9367C23.3055 11.731 24.418 12.8435 24.418 14.2122C24.418 15.581 23.3055 16.6935 21.9367 16.6935ZM26.5367 19.5122C26.018 19.5122 25.5992 19.0935 25.5992 18.5747V12.6685C25.5992 12.1497 26.018 11.731 26.5367 11.731C27.0555 11.731 27.4742 12.1497 27.4742 12.6685V18.5747C27.4742 19.0935 27.0555 19.5122 26.5367 19.5122Z" fill="#65FF00"/>
</svg>
