<svg width="40" height="41" viewBox="0 0 40 41" fill="none" xmlns="http://www.w3.org/2000/svg">
<path d="M15 8.63916H13.75C13.405 8.63916 13.125 8.35854 13.125 8.01416H11.875C11.875 9.04791 12.7162 9.88916 13.75 9.88916H15C16.0338 9.88916 16.875 9.04791 16.875 8.01416C16.875 6.98041 16.0338 6.13916 15 6.13916H13.75C13.5891 6.13196 13.4371 6.06297 13.3258 5.94655C13.2145 5.83012 13.1523 5.67525 13.1523 5.51416C13.1523 5.35307 13.2145 5.1982 13.3258 5.08177C13.4371 4.96535 13.5891 4.89636 13.75 4.88916H15C15.345 4.88916 15.625 5.16979 15.625 5.51416H16.875C16.875 4.48041 16.0338 3.63916 15 3.63916H13.75C12.7162 3.63916 11.875 4.48041 11.875 5.51416C11.875 6.54791 12.7162 7.38916 13.75 7.38916H15C15.1609 7.39636 15.3129 7.46535 15.4242 7.58177C15.5355 7.6982 15.5977 7.85307 15.5977 8.01416C15.5977 8.17525 15.5355 8.33012 15.4242 8.44655C15.3129 8.56297 15.1609 8.63196 15 8.63916ZM20 9.88916H21.875V8.63916H20C19.655 8.63916 19.375 8.35854 19.375 8.01416V7.38916H21.875V6.13916H19.375V5.51416C19.375 5.16979 19.655 4.88916 20 4.88916H21.875V3.63916H20C18.9662 3.63916 18.125 4.48041 18.125 5.51416V8.01416C18.125 9.04791 18.9662 9.88916 20 9.88916ZM25 9.88916H26.25C27.2838 9.88916 28.125 9.04791 28.125 8.01416V5.51416C28.125 4.48041 27.2838 3.63916 26.25 3.63916H25C23.9662 3.63916 23.125 4.48041 23.125 5.51416V8.01416C23.125 9.04791 23.9662 9.88916 25 9.88916ZM24.375 5.51416C24.375 5.16979 24.655 4.88916 25 4.88916H26.25C26.595 4.88916 26.875 5.16979 26.875 5.51416V8.01416C26.875 8.35854 26.595 8.63916 26.25 8.63916H25C24.655 8.63916 24.375 8.35854 24.375 8.01416V5.51416Z" fill="#65FF00"/>
<path d="M39.375 14.8748H36.875V12.9998C36.875 11.2767 35.4731 9.87479 33.75 9.87479H30.625V3.01416C30.625 1.98041 29.7838 1.13916 28.75 1.13916H11.25C10.2162 1.13916 9.375 1.98041 9.375 3.01416V9.87479H6.25C4.52688 9.87479 3.125 11.2767 3.125 12.9998V16.801C1.63312 17.6673 0.625 19.2792 0.625 21.1248C0.625 22.9704 1.63312 24.5823 3.125 25.4485V30.4998C3.125 32.2229 4.52688 33.6248 6.25 33.6248H13.75V36.1248H13.125C11.4019 36.1248 10 37.5267 10 39.2498V39.8748H30V39.2498C30 37.5267 28.5981 36.1248 26.875 36.1248H26.25V33.6248H33.75C35.4731 33.6248 36.875 32.2229 36.875 30.4998V26.1248H39.375V14.8748ZM10.625 3.01416C10.625 2.66979 10.905 2.38916 11.25 2.38916H28.75C29.095 2.38916 29.375 2.66979 29.375 3.01416V10.5142C29.375 10.8585 29.095 11.1392 28.75 11.1392H22.3113L18.6456 13.5692C18.4375 13.7092 18.125 13.5404 18.125 13.2892V11.1392H11.25C10.905 11.1392 10.625 10.8585 10.625 10.5142V3.01416ZM4.375 12.9998C4.375 11.966 5.21625 11.1248 6.25 11.1248H9.48563C9.61187 11.4927 9.84963 11.8122 10.1658 12.0388C10.482 12.2654 10.861 12.3879 11.25 12.3892H16.875V13.2892C16.8756 13.5755 16.9537 13.8563 17.1009 14.1019C17.2482 14.3475 17.4591 14.5487 17.7114 14.6842C17.9636 14.8197 18.2478 14.8844 18.5339 14.8715C18.8199 14.8586 19.0972 14.7686 19.3363 14.611L22.6881 12.3892H28.75C29.5687 12.3892 30.2594 11.8579 30.5144 11.1248H33.75C34.7838 11.1248 35.625 11.966 35.625 12.9998V14.8748H30.625V20.4998H26.875V17.3748H23.125V24.8748H21.875V16.1248H18.125V24.8748H16.875V18.6248H13.125V20.4998H10.5819C10.2725 18.0373 8.17 16.1248 5.625 16.1248C5.1925 16.1248 4.77562 16.1854 4.375 16.2892V12.9998ZM24.375 24.8748V18.6248H25.625V24.8748H24.375ZM20.625 24.8748H19.375V17.3748H20.625V24.8748ZM15.625 24.8748H14.375V19.8748H15.625V24.8748ZM1.875 21.1248C1.875 19.0567 3.55687 17.3748 5.625 17.3748C7.69313 17.3748 9.375 19.0567 9.375 21.1248C9.375 23.1929 7.69313 24.8748 5.625 24.8748C3.55687 24.8748 1.875 23.1929 1.875 21.1248ZM28.6431 38.6248H11.3569C11.4866 38.2595 11.7262 37.9432 12.0427 37.7194C12.3593 37.4956 12.7373 37.3753 13.125 37.3748H26.875C27.69 37.3748 28.385 37.8973 28.6431 38.6248ZM25 36.1248H15V33.6248H25V36.1248ZM33.75 32.3748H6.25C5.21625 32.3748 4.375 31.5335 4.375 30.4998V28.6248H35.625V30.4998C35.625 31.5335 34.7838 32.3748 33.75 32.3748ZM35.625 27.3748H4.375V25.9604C4.783 26.068 5.20305 26.1233 5.625 26.1248C8.17 26.1248 10.2725 24.2123 10.5819 21.7498H13.125V24.8748H11.875V26.1248H28.125V24.8748H26.875V21.7498H30.625V26.1248H35.625V27.3748ZM38.125 24.8748H31.875V16.1248H38.125V24.8748Z" fill="#65FF00"/>
<path d="M17.5 31.125C17.8452 31.125 18.125 30.8452 18.125 30.5C18.125 30.1548 17.8452 29.875 17.5 29.875C17.1548 29.875 16.875 30.1548 16.875 30.5C16.875 30.8452 17.1548 31.125 17.5 31.125Z" fill="#65FF00"/>
<path d="M20 31.125C20.3452 31.125 20.625 30.8452 20.625 30.5C20.625 30.1548 20.3452 29.875 20 29.875C19.6548 29.875 19.375 30.1548 19.375 30.5C19.375 30.8452 19.6548 31.125 20 31.125Z" fill="#65FF00"/>
<path d="M22.5 31.125C22.8452 31.125 23.125 30.8452 23.125 30.5C23.125 30.1548 22.8452 29.875 22.5 29.875C22.1548 29.875 21.875 30.1548 21.875 30.5C21.875 30.8452 22.1548 31.125 22.5 31.125Z" fill="#65FF00"/>
<path d="M8.125 21.125C8.125 19.7462 7.00375 18.625 5.625 18.625C4.24625 18.625 3.125 19.7462 3.125 21.125C3.125 22.5038 4.24625 23.625 5.625 23.625C7.00375 23.625 8.125 22.5038 8.125 21.125ZM4.375 21.125C4.375 20.4356 4.93562 19.875 5.625 19.875C6.31438 19.875 6.875 20.4356 6.875 21.125C6.875 21.8144 6.31438 22.375 5.625 22.375C4.93562 22.375 4.375 21.8144 4.375 21.125ZM33.125 17.375H36.875V18.625H33.125V17.375ZM33.125 19.875H36.875V21.125H33.125V19.875ZM33.125 22.375H36.875V23.625H33.125V22.375Z" fill="#65FF00"/>
</svg>
