<svg width="40" height="40" viewBox="0 0 40 40" fill="none" xmlns="http://www.w3.org/2000/svg">
<g clip-path="url(#clip0_532_83)">
<path d="M23.5938 9.375H28.9676L21.5934 16.7496L23.2504 18.4066L30.625 11.0324V16.4062H32.9688V7.03125H23.5938V9.375ZM35.3125 0V2.34375H37.6562V4.6875H40V0H35.3125ZM37.6562 30.4688H35.3125V32.8125H40V28.125H37.6562V30.4688ZM37.6562 7.03125H40V11.7188H37.6562V7.03125ZM37.6562 14.0625H40V18.75H37.6562V14.0625ZM37.6562 21.0938H40V25.7812H37.6562V21.0938ZM9.53125 2.34375H11.875V0H7.1875V4.6875H9.53125V2.34375ZM7.1875 7.03125H9.53125V11.7188H7.1875V7.03125ZM7.1875 14.0625H9.53125V18.75H7.1875V14.0625ZM14.2188 0H18.9062V2.34375H14.2188V0ZM21.25 0H25.9375V2.34375H21.25V0ZM28.2812 0H32.9688V2.34375H28.2812V0ZM21.25 30.4688H25.9375V32.8125H21.25V30.4688ZM28.2812 30.4688H32.9688V32.8125H28.2812V30.4688ZM0 40H18.75V21.25H0V40ZM2.34375 23.5938H16.4062V37.6562H2.34375V23.5938Z" fill="#65FF00"/>
</g>
<defs>
<clipPath id="clip0_532_83">
<rect width="40" height="40" fill="white"/>
</clipPath>
</defs>
</svg>
