<svg width="40" height="40" viewBox="0 0 40 40" fill="none" xmlns="http://www.w3.org/2000/svg">
<g clip-path="url(#clip0_532_84)">
<path d="M37.3193 16.6668C37.3113 16.6528 37.2967 16.6448 37.288 16.6308C35.537 13.6278 33.0384 11.1292 30.0353 9.37815C30.022 9.36881 30.014 9.35481 29.9993 9.34681C29.9847 9.33815 29.9687 9.33881 29.9533 9.33148C27.0193 7.64015 23.622 6.66748 19.9993 6.66748C16.3767 6.66748 12.9793 7.64081 10.0453 9.33148C10.0307 9.33881 10.014 9.33815 9.99934 9.34681C9.98467 9.35481 9.97667 9.36948 9.96334 9.37815C6.96031 11.1292 4.4617 13.6278 2.71067 16.6308C2.70134 16.6441 2.68734 16.6521 2.67934 16.6668C2.67067 16.6815 2.67134 16.6981 2.66401 16.7128C0.916094 19.7388 -0.00280998 23.1723 6.4548e-06 26.6668V28.0001C6.4548e-06 29.1028 0.89734 30.0001 2.00001 30.0001H13.8613C15.172 32.0041 17.432 33.3335 20 33.3335C22.568 33.3335 24.828 32.0041 26.1387 30.0001H38C38.2612 30.0023 38.5202 29.9519 38.7615 29.852C39.0028 29.752 39.2216 29.6044 39.4047 29.4181C39.5944 29.2341 39.7449 29.0136 39.8472 28.77C39.9495 28.5263 40.0015 28.2644 40 28.0001V26.6668C40.0026 23.1723 39.0837 19.7389 37.336 16.7128C37.3287 16.6981 37.3287 16.6815 37.3207 16.6668H37.3193ZM19.9993 32.0001C16.6907 32.0001 13.9993 29.3088 13.9993 26.0001C13.9993 22.6915 16.6907 20.0001 19.9993 20.0001C23.308 20.0001 25.9993 22.6915 25.9993 26.0001C25.9993 29.3088 23.308 32.0001 19.9993 32.0001ZM24.2087 20.0048C27.2767 17.4708 28.8573 16.7001 29.4367 16.5628C29.2993 17.1421 28.528 18.7228 25.9947 21.7908C25.5065 21.0976 24.9025 20.4937 24.2093 20.0055L24.2087 20.0048ZM38.4613 28.4755C38.4012 28.5368 38.3292 28.5854 38.2498 28.6182C38.1705 28.6511 38.0853 28.6676 37.9993 28.6668H26.8233C27.148 27.8388 27.3327 26.9415 27.3327 26.0001C27.3327 24.9421 27.1027 23.9388 26.698 23.0295C31.842 16.9081 30.85 15.9081 30.4707 15.5288C30.0913 15.1495 29.0913 14.1575 22.97 19.3015C22.0354 18.8836 21.0231 18.6674 19.9993 18.6668C15.956 18.6668 12.666 21.9568 12.666 26.0001C12.666 26.9415 12.8507 27.8388 13.1753 28.6668H1.99934C1.82253 28.6668 1.65296 28.5966 1.52794 28.4716C1.40291 28.3465 1.33267 28.177 1.33267 28.0001V27.3335H3.33267C3.50948 27.3335 3.67905 27.2632 3.80408 27.1382C3.9291 27.0132 3.99934 26.8436 3.99934 26.6668C3.99934 26.49 3.9291 26.3204 3.80408 26.1954C3.67905 26.0704 3.50948 26.0001 3.33267 26.0001H1.34934C1.44607 23.1767 2.18694 20.4128 3.51534 17.9195L5.23201 18.9108C5.30778 18.9548 5.39148 18.9833 5.47832 18.9948C5.56515 19.0064 5.65341 19.0006 5.73802 18.9779C5.82263 18.9553 5.90193 18.9161 5.97137 18.8627C6.04081 18.8093 6.09903 18.7428 6.14267 18.6668C6.23108 18.5137 6.25503 18.3317 6.20927 18.1609C6.16351 17.9902 6.05179 17.8446 5.89867 17.7561L4.18467 16.7668C5.68719 14.3766 7.70849 12.3553 10.0987 10.8528L11.088 12.5668C11.1315 12.6432 11.1896 12.7103 11.2591 12.7642C11.3286 12.8181 11.408 12.8577 11.4929 12.8807C11.5777 12.9037 11.6663 12.9097 11.7535 12.8984C11.8407 12.8871 11.9248 12.8586 12.0009 12.8147C12.077 12.7707 12.1437 12.7121 12.1971 12.6423C12.2505 12.5724 12.2896 12.4927 12.3121 12.4077C12.3345 12.3227 12.34 12.2341 12.3281 12.147C12.3162 12.0599 12.2871 11.976 12.2427 11.9001L11.2513 10.1835C13.7447 8.8553 16.5086 8.11444 19.332 8.01748V10.0008C19.332 10.1776 19.4022 10.3472 19.5273 10.4722C19.6523 10.5972 19.8219 10.6675 19.9987 10.6675C20.1755 10.6675 20.3451 10.5972 20.4701 10.4722C20.5951 10.3472 20.6653 10.1776 20.6653 10.0008V8.01748C23.4888 8.11421 26.2527 8.85508 28.746 10.1835L27.7547 11.9001C27.6677 12.0532 27.6447 12.2344 27.6908 12.4043C27.737 12.5742 27.8484 12.719 28.0009 12.807C28.1533 12.895 28.3344 12.9192 28.5046 12.8742C28.6748 12.8292 28.8203 12.7187 28.9093 12.5668L29.8987 10.8528C32.2889 12.3553 34.3102 14.3766 35.8127 16.7668L34.0987 17.7561C33.971 17.8292 33.8711 17.9425 33.8146 18.0783C33.7581 18.2141 33.7482 18.3648 33.7863 18.5069C33.8244 18.6489 33.9085 18.7743 34.0255 18.8636C34.1424 18.9528 34.2856 19.0008 34.4327 19.0001C34.546 19.0001 34.6607 18.9715 34.7653 18.9108L36.482 17.9195C37.8105 20.4127 38.5514 23.1767 38.648 26.0001H36.6647C36.4879 26.0001 36.3183 26.0704 36.1933 26.1954C36.0682 26.3204 35.998 26.49 35.998 26.6668C35.998 26.8436 36.0682 27.0132 36.1933 27.1382C36.3183 27.2632 36.4879 27.3335 36.6647 27.3335H38.6647V28.0001C38.6648 28.0892 38.6468 28.1773 38.6116 28.259C38.5764 28.3408 38.5248 28.4144 38.46 28.4755H38.4613Z" fill="#65FF00"/>
<path d="M20.666 25.3715V24.0522C21.512 24.1782 21.9834 24.5135 22.0254 24.6595C22.074 24.8294 22.1881 24.9731 22.3426 25.0588C22.4972 25.1446 22.6794 25.1655 22.8494 25.1168C23.0193 25.0682 23.1629 24.9541 23.2487 24.7995C23.3344 24.645 23.3553 24.4627 23.3067 24.2928C23.0707 23.4668 22.0233 22.8582 20.666 22.7062V22.0002C20.666 21.8234 20.5958 21.6538 20.4708 21.5288C20.3457 21.4037 20.1762 21.3335 19.9993 21.3335C19.8225 21.3335 19.653 21.4037 19.5279 21.5288C19.4029 21.6538 19.3327 21.8234 19.3327 22.0002V22.7048C17.774 22.8802 16.666 23.6648 16.666 24.6668C16.666 25.6688 17.774 26.4535 19.3327 26.6288V27.9482C18.4867 27.8228 18.0153 27.4868 17.9733 27.3408C17.9493 27.2567 17.9089 27.1781 17.8544 27.1096C17.8 27.0411 17.7326 26.984 17.6561 26.9415C17.5796 26.899 17.4954 26.8721 17.4085 26.8621C17.3215 26.8522 17.2335 26.8594 17.1493 26.8835C17.0652 26.9076 16.9866 26.948 16.9181 27.0024C16.8496 27.0569 16.7925 27.1243 16.75 27.2008C16.7076 27.2773 16.6806 27.3614 16.6706 27.4484C16.6607 27.5353 16.6679 27.6234 16.692 27.7075C16.928 28.5335 17.9753 29.1422 19.3327 29.2942V30.0002C19.3327 30.177 19.4029 30.3465 19.5279 30.4716C19.653 30.5966 19.8225 30.6668 19.9993 30.6668C20.1762 30.6668 20.3457 30.5966 20.4708 30.4716C20.5958 30.3465 20.666 30.177 20.666 30.0002V29.2955C22.2247 29.1202 23.3327 28.3355 23.3327 27.3335C23.3327 26.3315 22.2247 25.5468 20.666 25.3715ZM17.9993 24.6668C17.9993 24.5322 18.4713 24.1828 19.3327 24.0528V25.2808C18.4713 25.1508 17.9993 24.8015 17.9993 24.6668ZM20.666 27.9475V26.7195C21.5273 26.8495 21.9993 27.1988 21.9993 27.3335C21.9993 27.4682 21.5273 27.8175 20.666 27.9475Z" fill="#65FF00"/>
</g>
<defs>
<clipPath id="clip0_532_84">
<rect width="40" height="40" fill="white"/>
</clipPath>
</defs>
</svg>
