<svg width="40" height="40" viewBox="0 0 40 40" fill="none" xmlns="http://www.w3.org/2000/svg">
<path d="M26.7562 0H14.2031C9.67984 0 6 3.67984 6 8.20312V31.7969C6 36.3202 9.67984 40 14.2031 40H26.7562C31.2795 40 34.9594 36.3202 34.9594 31.7969V8.20312C34.9594 3.67984 31.2795 0 26.7562 0ZM32.6156 31.7969C32.6156 35.0277 29.9871 37.6562 26.7562 37.6562H14.2031C10.9723 37.6562 8.34375 35.0277 8.34375 31.7969V8.20312C8.34375 4.97227 10.9723 2.34375 14.2031 2.34375H26.7562C29.9871 2.34375 32.6156 4.97227 32.6156 8.20312V31.7969Z" fill="#65FF00"/>
<path d="M28.3818 24.1887C28.5148 24.0788 28.6218 23.9409 28.6952 23.7848C28.7686 23.6288 28.8065 23.4584 28.8063 23.2859C28.8063 22.6389 28.2817 22.114 27.6344 22.114H26.7086L21.986 16.258L24.008 13.7504C24.4145 13.2465 24.3355 12.509 23.8316 12.1024C23.3278 11.6962 22.5899 11.7753 22.1837 12.2791L20.4805 14.3912L18.777 12.2791C18.3708 11.7752 17.6329 11.6962 17.1293 12.1024C16.6255 12.5089 16.5465 13.2465 16.9527 13.7504L18.9751 16.258L14.2522 22.114H13.3266C12.6793 22.114 12.1547 22.6389 12.1547 23.2859C12.1547 23.649 12.3198 23.9737 12.5792 24.1886L12.0665 24.8246C11.6601 25.3281 11.739 26.066 12.2429 26.4723C12.4509 26.6406 12.7104 26.7323 12.978 26.7319C13.3202 26.7319 13.6593 26.583 13.8908 26.2958L15.3731 24.4578H25.5879L27.0702 26.2958C27.18 26.4322 27.319 26.5422 27.477 26.6177C27.635 26.6932 27.8079 26.7322 27.9829 26.7319C28.2415 26.7319 28.5015 26.6471 28.7178 26.4723C29.2217 26.066 29.3007 25.3281 28.8945 24.8246L28.3818 24.1887ZM17.2631 22.114L20.4805 18.1248L23.6979 22.114H17.2631Z" fill="#65FF00"/>
</svg>
