<svg width="40" height="40" viewBox="0 0 40 40" fill="none" xmlns="http://www.w3.org/2000/svg">
<path d="M32.5 2.5H7.5C7.16848 2.5 6.85054 2.6317 6.61612 2.86612C6.3817 3.10054 6.25 3.41848 6.25 3.75V14.375C6.25144 15.2995 6.48021 16.2095 6.91617 17.0247C7.35214 17.84 7.98191 18.5355 8.75 19.05V36.25C8.75 36.5815 8.8817 36.8995 9.11612 37.1339C9.35054 37.3683 9.66848 37.5 10 37.5H30C30.3315 37.5 30.6495 37.3683 30.8839 37.1339C31.1183 36.8995 31.25 36.5815 31.25 36.25V19.05C32.0181 18.5355 32.6479 17.84 33.0838 17.0247C33.5198 16.2095 33.7486 15.2995 33.75 14.375V3.75C33.75 3.41848 33.6183 3.10054 33.3839 2.86612C33.1495 2.6317 32.8315 2.5 32.5 2.5ZM31.25 12.5H25V5H31.25V12.5ZM28.125 17.5C27.4046 17.5001 26.7063 17.2514 26.1482 16.7958C25.5901 16.3402 25.2066 15.7059 25.0625 15H31.25C31.1039 15.7165 30.7112 16.3591 30.1402 16.8159C29.5692 17.2726 28.8561 17.5147 28.125 17.5ZM8.8125 15H15C14.8566 15.7064 14.4733 16.3415 13.9152 16.7977C13.357 17.2539 12.6583 17.5031 11.9375 17.5031C11.2167 17.5031 10.518 17.2539 9.95984 16.7977C9.40171 16.3415 9.01845 15.7064 8.875 15H8.8125ZM22.5625 12.5H17.5V5H22.5L22.5625 12.5ZM22.5625 15C22.5625 15.663 22.2991 16.2989 21.8303 16.7678C21.3614 17.2366 20.7255 17.5 20.0625 17.5C19.3995 17.5 18.7636 17.2366 18.2947 16.7678C17.8259 16.2989 17.5625 15.663 17.5625 15H22.5625ZM8.75 5H15.0625V12.5H8.75V5ZM11.25 35V30H28.75V35H11.25ZM28.75 27.5H11.25V20C11.4569 20.0332 11.6656 20.0541 11.875 20.0625C12.6734 20.0582 13.4619 19.8844 14.1881 19.5526C14.9143 19.2207 15.5617 18.7384 16.0875 18.1375C16.5558 18.726 17.1508 19.2013 17.8282 19.5279C18.5056 19.8546 19.2479 20.0242 20 20.0242C20.7521 20.0242 21.4944 19.8546 22.1718 19.5279C22.8492 19.2013 23.4442 18.726 23.9125 18.1375C24.444 18.727 25.0939 19.1976 25.8199 19.5186C26.5458 19.8395 27.3313 20.0036 28.125 20C28.3332 20.0123 28.5418 20.0123 28.75 20V27.5ZM21.25 32.5C21.25 32.7472 21.1767 32.9889 21.0393 33.1945C20.902 33.4 20.7068 33.5602 20.4784 33.6548C20.2499 33.7495 19.9986 33.7742 19.7561 33.726C19.5137 33.6778 19.2909 33.5587 19.1161 33.3839C18.9413 33.2091 18.8222 32.9863 18.774 32.7439C18.7258 32.5014 18.7505 32.2501 18.8452 32.0216C18.9398 31.7932 19.1 31.598 19.3055 31.4607C19.5111 31.3233 19.7528 31.25 20 31.25C20.3315 31.25 20.6495 31.3817 20.8839 31.6161C21.1183 31.8505 21.25 32.1685 21.25 32.5ZM27.5 32.5C27.5 32.8315 27.3683 33.1495 27.1339 33.3839C26.8995 33.6183 26.5815 33.75 26.25 33.75H23.75C23.4185 33.75 23.1005 33.6183 22.8661 33.3839C22.6317 33.1495 22.5 32.8315 22.5 32.5C22.5 32.1685 22.6317 31.8505 22.8661 31.6161C23.1005 31.3817 23.4185 31.25 23.75 31.25H26.25C26.5815 31.25 26.8995 31.3817 27.1339 31.6161C27.3683 31.8505 27.5 32.1685 27.5 32.5ZM17.5 32.5C17.5 32.8315 17.3683 33.1495 17.1339 33.3839C16.8995 33.6183 16.5815 33.75 16.25 33.75H13.75C13.4185 33.75 13.1005 33.6183 12.8661 33.3839C12.6317 33.1495 12.5 32.8315 12.5 32.5C12.5 32.1685 12.6317 31.8505 12.8661 31.6161C13.1005 31.3817 13.4185 31.25 13.75 31.25H16.25C16.5815 31.25 16.8995 31.3817 17.1339 31.6161C17.3683 31.8505 17.5 32.1685 17.5 32.5Z" fill="#65FF00"/>
</svg>
