<svg width="40" height="40" viewBox="0 0 40 40" fill="none" xmlns="http://www.w3.org/2000/svg">
<g clip-path="url(#clip0_532_409)">
<path d="M14.0894 8.87207C14.0713 8.90767 14.0538 8.94357 14.0368 8.97974C13.8378 9.40502 13.3718 9.62997 12.9088 9.55191C9.35419 8.95216 6.45589 12.4097 7.6647 15.7991C7.85543 16.3338 7.64298 16.9298 7.15058 17.2123C5.91976 17.9168 4.93889 18.9872 4.34418 20.2747C3.74946 21.5622 3.57042 23.003 3.83192 24.3969M10.3982 36.463C11.2028 36.7803 12.0713 36.864 12.9088 36.7228C13.3769 36.6438 13.8399 36.8783 14.0427 37.3075C14.6235 38.5363 15.8654 39.3914 17.3094 39.4137C19.3625 39.4455 21.0429 37.7256 21.0429 35.6723V28.2364M37.8772 20.5884C38.7478 22.763 38.4843 25.3404 36.9271 27.3347M27.9964 8.87207C28.0145 8.90762 28.032 8.94349 28.049 8.97974C28.248 9.40502 28.714 9.62997 29.177 9.55191C32.7317 8.95216 35.63 12.4097 34.4211 15.7991C34.2304 16.3338 34.4429 16.9298 34.9353 17.2123C35.4303 17.4955 35.8882 17.8391 36.2985 18.2353M34.4593 33.5311C33.7492 35.6832 31.55 37.1231 29.177 36.7228C28.7089 36.6438 28.246 36.8783 28.0431 37.3075C27.4624 38.5363 26.2204 39.3914 24.7764 39.4137C22.7233 39.4455 21.043 37.7256 21.043 35.6723" stroke="#65FF00" stroke-width="2" stroke-miterlimit="10" stroke-linecap="round" stroke-linejoin="round"/>
<path d="M14.5255 28.7906C14.519 28.7288 14.5275 28.6665 14.5502 28.6087C14.5728 28.5509 14.609 28.4995 14.6557 28.4586L15.2182 27.9632C15.7765 27.4715 15.9109 26.6531 15.5392 26.008L15.0565 25.1701C14.6848 24.525 13.9105 24.2325 13.2063 24.4712C11.7975 24.9488 12.6845 24.7545 11.0683 24.0352C11.0118 24.0097 10.9623 23.9712 10.9238 23.9227C10.8854 23.8742 10.8591 23.8172 10.8471 23.7565L10.7004 23.0214C10.5546 22.291 9.91461 21.7651 9.17132 21.7651H8.20582C7.46253 21.7651 6.82254 22.2909 6.67674 23.0214C6.386 24.4781 6.65658 23.6177 5.23282 24.6589C5.1827 24.6953 5.12456 24.7191 5.06329 24.7284C5.00203 24.7376 4.93945 24.7319 4.88083 24.7119L4.17083 24.4712C3.46668 24.2325 2.69238 24.5251 2.32069 25.1701L1.8379 26.0081C1.46622 26.6532 1.60061 27.4716 2.15895 27.9633C3.27744 28.9483 2.66308 28.2724 2.85169 30.0355C2.85812 30.0973 2.84964 30.1596 2.82698 30.2174C2.80431 30.2752 2.76812 30.3266 2.72144 30.3675L2.15895 30.8629C1.60061 31.3546 1.46622 32.173 1.8379 32.8181L2.32069 33.656C2.69238 34.3011 3.46668 34.5936 4.17083 34.3549C5.57966 33.8773 4.69268 34.0716 6.30889 34.791C6.36532 34.8164 6.41485 34.855 6.45332 34.9035C6.49179 34.952 6.51809 35.009 6.53 35.0697L6.67674 35.8048C6.82254 36.5352 7.46253 37.061 8.20582 37.061H9.1714C9.91469 37.061 10.5547 36.5353 10.7005 35.8048L10.8472 35.0697C10.8591 35.009 10.8854 34.952 10.9239 34.9035C10.9624 34.855 11.0119 34.8164 11.0683 34.791C11.4482 34.6219 11.8089 34.4128 12.1445 34.1673C12.1946 34.1309 12.2527 34.107 12.314 34.0978C12.3753 34.0886 12.4379 34.0942 12.4965 34.1143L13.2065 34.3549C13.9106 34.5936 14.6849 34.3011 15.0566 33.656L15.5394 32.8181C15.9111 32.173 15.7767 31.3546 15.2183 30.8629C14.0997 29.8778 14.7141 30.5537 14.5255 28.7906Z" stroke="#65FF00" stroke-width="2" stroke-miterlimit="10" stroke-linecap="round" stroke-linejoin="round"/>
<path d="M8.68956 32.3542C10.3141 32.3542 11.6311 31.0373 11.6311 29.4127C11.6311 27.7882 10.3141 26.4712 8.68956 26.4712C7.06501 26.4712 5.74805 27.7882 5.74805 29.4127C5.74805 31.0373 7.06501 32.3542 8.68956 32.3542Z" stroke="#65FF00" stroke-width="2" stroke-miterlimit="10" stroke-linecap="round" stroke-linejoin="round"/>
<path d="M15.2029 21.1765V22.1141M26.8811 21.1765V22.1141M17.2851 13.6236C15.3009 12.374 13.9824 10.1638 13.9824 7.64558C13.9824 3.74661 17.1431 0.585938 21.0421 0.585938C24.941 0.585938 28.1017 3.74661 28.1017 7.64558C28.1017 10.1638 26.7833 12.374 24.799 13.6236M22.8933 22.8923C22.8933 21.7481 22.0644 21.6406 21.0421 21.6406C20.0196 21.6406 19.1908 21.7481 19.1908 22.8923C19.1908 24.0364 20.0196 24.9638 21.0421 24.9638C22.0644 24.9638 22.8933 24.0364 22.8933 22.8923Z" stroke="#65FF00" stroke-width="2" stroke-miterlimit="10" stroke-linecap="round" stroke-linejoin="round"/>
<path d="M22.8071 16.4701C23.4569 16.4701 23.9837 16.9969 23.9837 17.6468C23.9837 18.2966 23.4569 18.8234 22.8071 18.8234H19.2773C18.6274 18.8234 18.1007 18.2966 18.1007 17.6468C18.1007 16.9969 18.6274 16.4701 19.2773 16.4701H17.8065C16.9942 16.4701 16.3357 15.8116 16.3357 14.9994C16.3357 14.1872 16.9942 13.5286 17.8065 13.5286H24.2779C25.0901 13.5286 25.7486 14.1871 25.7486 14.9994C25.7486 15.8116 25.0901 16.4701 24.2779 16.4701H21.6305M17.5123 9.41051C17.5123 8.76067 18.0391 8.23389 18.6889 8.23389C19.3388 8.23389 19.8655 8.76067 19.8655 9.41051V13.5286M24.5719 9.41051C24.5719 8.76067 24.0452 8.23389 23.3953 8.23389C22.7455 8.23389 22.2187 8.76067 22.2187 9.41051V13.5286M26.3368 31.1777V27.6433C26.3368 26.996 26.8616 26.4713 27.5089 26.4713H28.6946C29.3419 26.4713 29.8666 26.996 29.8666 27.6433V26.4667C29.8666 25.8194 30.3914 25.2947 31.0386 25.2947H32.2244C32.8717 25.2947 33.3964 25.8194 33.3964 26.4667V31.1777V24.1135C33.3964 23.4662 33.9212 22.9414 34.5684 22.9414H35.7542C36.4014 22.9414 36.9262 23.4662 36.9262 24.1135V31.1777M26.3368 31.1777H36.9263C37.5761 31.1777 38.1029 31.7045 38.1029 32.3543C38.1029 33.0042 37.5761 33.5309 36.9263 33.5309H26.3368C25.687 33.5309 25.1602 33.0042 25.1602 32.3543C25.1602 31.7045 25.687 31.1777 26.3368 31.1777ZM11.6293 18.8234C12.6348 18.4212 13.1168 17.3402 12.8059 16.4701C12.5614 15.7859 11.8527 15.305 11.041 15.2935" stroke="#65FF00" stroke-width="2" stroke-miterlimit="10" stroke-linecap="round" stroke-linejoin="round"/>
<path d="M12.8059 16.4703C12.7329 15.7203 13.2321 15.0496 13.9825 15.2937M30.455 18.8236C29.4495 18.4213 28.9675 17.3404 29.2784 16.4703C29.5229 15.786 30.2317 15.3052 31.0433 15.2937" stroke="#65FF00" stroke-width="2" stroke-miterlimit="10" stroke-linecap="round" stroke-linejoin="round"/>
<path d="M29.2789 16.4703C29.3519 15.7203 28.8527 15.0496 28.1023 15.2937M18.6895 34.1194C19.9377 34.5397 20.975 33.6133 21.0427 32.3545M23.3959 28.9273C22.1476 28.507 21.1103 29.4334 21.0426 30.6922" stroke="#65FF00" stroke-width="2" stroke-miterlimit="10" stroke-linecap="round" stroke-linejoin="round"/>
</g>
<defs>
<clipPath id="clip0_532_409">
<rect width="40" height="40" fill="white"/>
</clipPath>
</defs>
</svg>
