<svg width="40" height="40" viewBox="0 0 40 40" fill="none" xmlns="http://www.w3.org/2000/svg">
<path d="M11.3333 29.6665C11.3333 29.2665 11.0667 28.9998 10.6667 28.9998H5.33333V24.3332C5.33333 23.9332 5.06667 23.6665 4.66667 23.6665H1.33333V15.6665H4.66667C5.06667 15.6665 5.33333 15.3998 5.33333 14.9998V10.9998H10.6667C11.0667 10.9998 11.3333 10.7332 11.3333 10.3332V6.99984H20V5.6665H10.6667C10.2667 5.6665 10 5.93317 10 6.33317V9.6665H4.66667C4.26667 9.6665 4 9.93317 4 10.3332V14.3332H0.666667C0.266667 14.3332 0 14.5998 0 14.9998V24.3332C0 24.7332 0.266667 24.9998 0.666667 24.9998H4V29.6665C4 30.0665 4.26667 30.3332 4.66667 30.3332H10V33.6665C10 34.0665 10.2667 34.3332 10.6667 34.3332H20V32.9998H11.3333V29.6665Z" fill="#65FF00"/>
<path d="M39.3333 15.6665C39.7333 15.6665 40 15.3998 40 14.9998V10.3332C40 9.93317 39.7333 9.6665 39.3333 9.6665H34V6.33317C34 5.93317 33.7333 5.6665 33.3333 5.6665H24C23.6 5.6665 23.3333 5.93317 23.3333 6.33317V9.6665H18C17.6 9.6665 17.3333 9.93317 17.3333 10.3332V14.3332H14V15.6665H18C18.4 15.6665 18.6667 15.3998 18.6667 14.9998V10.9998H24C24.4 10.9998 24.6667 10.7332 24.6667 10.3332V6.99984H32.6667V10.3332C32.6667 10.7332 32.9333 10.9998 33.3333 10.9998H38.6667V14.3332H35.3333C34.9333 14.3332 34.6667 14.5998 34.6667 14.9998V24.3332C34.6667 24.7332 34.9333 24.9998 35.3333 24.9998H38.6667V28.9998H33.3333C32.9333 28.9998 32.6667 29.2665 32.6667 29.6665V32.9998H24.6667V29.6665C24.6667 29.2665 24.4 28.9998 24 28.9998H18.6667V24.3332C18.6667 23.9332 18.4 23.6665 18 23.6665H14V24.9998H17.3333V29.6665C17.3333 30.0665 17.6 30.3332 18 30.3332H23.3333V33.6665C23.3333 34.0665 23.6 34.3332 24 34.3332H33.3333C33.7333 34.3332 34 34.0665 34 33.6665V30.3332H39.3333C39.7333 30.3332 40 30.0665 40 29.6665V24.3332C40 23.9332 39.7333 23.6665 39.3333 23.6665H36V15.6665H39.3333Z" fill="#65FF00"/>
<path d="M9.79935 16.8L8.86602 15.8667L6.86602 17.8667C6.59935 18.1334 6.59935 18.5334 6.86602 18.8L8.86602 20.8L9.79935 19.8667L8.93268 19H22.666V17.6667H8.93268L9.79935 16.8Z" fill="#65FF00"/>
<path d="M16 21.6665H31.0667L30.2 22.5332L31.1333 23.4665L33.1333 21.4665C33.4 21.1999 33.4 20.7999 33.1333 20.5332L31.1333 18.5332L30.2 19.4665L31.0667 20.3332H16V21.6665Z" fill="#65FF00"/>
</svg>
