<svg width="40" height="40" viewBox="0 0 40 40" fill="none" xmlns="http://www.w3.org/2000/svg">
<path d="M6.81003 20.4001H14.71C14.8035 20.9818 15.1011 21.5112 15.5493 21.8935C15.9976 22.2758 16.5673 22.486 17.1564 22.4865H22.8428C23.432 22.486 24.0017 22.2758 24.4499 21.8935C24.8982 21.5112 25.1957 20.9818 25.2892 20.4001H33.1892C34.0404 20.3993 34.8565 20.0608 35.4584 19.4589C36.0603 18.857 36.3988 18.0409 36.3996 17.1897V13.4665C36.3974 12.6487 36.0827 11.8627 35.52 11.2693C34.9572 10.6759 34.189 10.32 33.3724 10.2745C33.2768 9.6945 32.9786 9.16718 32.5308 8.78633C32.083 8.40548 31.5147 8.19578 30.9268 8.19452H25.2404C24.6562 8.19648 24.0913 8.40421 23.6449 8.78121C23.1986 9.15822 22.8993 9.68041 22.7996 10.2561H17.7596V9.19372C17.7606 9.09666 17.7262 9.00256 17.6629 8.92896C17.5996 8.85537 17.5117 8.8073 17.4156 8.79372L15.778 8.56252L16.7724 7.24252C16.8304 7.16559 16.8588 7.07032 16.8521 6.97419C16.8455 6.87807 16.8044 6.78757 16.7364 6.71932L14.6332 4.62332C14.5651 4.55519 14.4746 4.51396 14.3785 4.5072C14.2824 4.50044 14.187 4.5286 14.11 4.58652L12.7892 5.58172L12.5596 3.94412C12.546 3.84801 12.498 3.76011 12.4244 3.69682C12.3508 3.63353 12.2567 3.59916 12.1596 3.60012H9.19323C9.09617 3.59916 9.00207 3.63353 8.92848 3.69682C8.85488 3.76011 8.80681 3.84801 8.79323 3.94412L8.56203 5.58172L7.24603 4.58652C7.16901 4.5286 7.07368 4.50044 6.97756 4.5072C6.88143 4.51396 6.79098 4.55519 6.72283 4.62332L4.62283 6.72012C4.5547 6.78827 4.51347 6.87872 4.50671 6.97484C4.49995 7.07097 4.52811 7.1663 4.58603 7.24332L5.58123 8.56332L3.94363 8.80012C3.84752 8.8137 3.75963 8.86177 3.69634 8.93536C3.63304 9.00896 3.59867 9.10306 3.59963 9.20012V12.1601C3.59964 12.2565 3.63445 12.3496 3.69766 12.4224C3.76086 12.4951 3.8482 12.5426 3.94363 12.5561L5.58123 12.7865L4.58603 14.1105C4.52811 14.1875 4.49995 14.2829 4.50671 14.379C4.51347 14.4751 4.5547 14.5656 4.62283 14.6337L6.71963 16.7337C6.78778 16.8018 6.87823 16.8431 6.97436 16.8498C7.07048 16.8566 7.16581 16.8284 7.24283 16.7705L8.56283 15.7761L8.79963 17.4129C8.81321 17.509 8.86128 17.5969 8.93488 17.6602C9.00847 17.7235 9.10257 17.7579 9.19963 17.7569H12.1596C12.256 17.7569 12.3491 17.7221 12.4219 17.6589C12.4946 17.5957 12.5421 17.5083 12.5556 17.4129L12.786 15.7753L14.1068 16.7705C14.1838 16.8284 14.2792 16.8566 14.3753 16.8498C14.4714 16.8431 14.5619 16.8018 14.63 16.7337L16.73 14.6337C16.798 14.5655 16.8391 14.475 16.8457 14.3788C16.8524 14.2827 16.824 14.1874 16.766 14.1105L15.7716 12.7897L17.4092 12.5593C17.5047 12.5458 17.592 12.4983 17.6552 12.4256C17.7184 12.3528 17.7532 12.2597 17.7532 12.1633V11.0561H22.7916C22.8804 11.6423 23.1762 12.1773 23.6254 12.5641C24.0746 12.951 24.6476 13.1641 25.2404 13.1649H30.9268C31.5166 13.1642 32.0867 12.9535 32.5351 12.5704C32.9834 12.1873 33.2806 11.6569 33.3732 11.0745C33.9773 11.1198 34.542 11.3913 34.9547 11.8347C35.3674 12.2781 35.5977 12.8608 35.5996 13.4665V17.1897C35.5988 17.8287 35.3446 18.4413 34.8927 18.8932C34.4408 19.345 33.8282 19.5993 33.1892 19.6001H25.2892C25.1957 19.0184 24.8982 18.4891 24.4499 18.1068C24.0017 17.7245 23.432 17.5142 22.8428 17.5137H17.1564C16.5673 17.5142 15.9976 17.7245 15.5493 18.1068C15.1011 18.4891 14.8035 19.0184 14.71 19.6001H6.81003C5.95884 19.601 5.14275 19.9395 4.54087 20.5414C3.93899 21.1432 3.60048 21.9593 3.59963 22.8105V26.5337C3.60183 27.3515 3.91651 28.1376 4.47927 28.7309C5.04202 29.3243 5.81029 29.6802 6.62683 29.7257C6.72244 30.3057 7.02065 30.8331 7.46844 31.2139C7.91623 31.5948 8.48458 31.8045 9.07243 31.8057H14.7588C15.3431 31.8037 15.908 31.596 16.3543 31.219C16.8007 30.842 17.1 30.3198 17.1996 29.7441H22.1132C22.2397 31.6058 23.0874 33.3448 24.476 34.5912C25.8646 35.8377 27.6847 36.4934 29.5492 36.4189C31.4137 36.3445 33.1756 35.5457 34.4604 34.1924C35.7452 32.8392 36.4514 31.0381 36.429 29.1723C36.4066 27.3064 35.6574 25.5229 34.3405 24.2008C33.0236 22.8788 31.243 22.1225 29.3773 22.0928C27.5115 22.0631 25.7077 22.7622 24.3494 24.0417C22.9911 25.3211 22.1854 27.0799 22.1036 28.9441H17.2076C17.1189 28.3579 16.8231 27.823 16.3739 27.4361C15.9246 27.0492 15.3517 26.8361 14.7588 26.8353H9.07243C8.4827 26.836 7.91251 27.0468 7.46417 27.4299C7.01583 27.813 6.71867 28.3433 6.62603 28.9257C6.02199 28.8804 5.45725 28.609 5.04455 28.1656C4.63186 27.7222 4.40156 27.1395 4.39963 26.5337V22.8105C4.40048 22.1715 4.6547 21.5589 5.10655 21.107C5.55841 20.6552 6.17101 20.401 6.81003 20.4001ZM10.678 13.5345C10.1132 13.5345 9.56099 13.367 9.09132 13.0532C8.62165 12.7394 8.25559 12.2933 8.03943 11.7715C7.82327 11.2496 7.76671 10.6753 7.87691 10.1213C7.98711 9.56733 8.25911 9.05844 8.65853 8.65902C9.05795 8.2596 9.56684 7.98759 10.1209 7.87739C10.6749 7.76719 11.2491 7.82375 11.771 8.03992C12.2928 8.25608 12.7389 8.62214 13.0527 9.09181C13.3665 9.56148 13.534 10.1137 13.534 10.6785C13.5332 11.4357 13.232 12.1617 12.6966 12.6971C12.1612 13.2325 11.4352 13.5337 10.678 13.5345Z" fill="#65FF00"/>
<path d="M30.9275 12.365H25.2411C24.7938 12.365 24.3649 12.1873 24.0486 11.8711C23.7324 11.5548 23.5547 11.1258 23.5547 10.6786C23.5547 10.2313 23.7324 9.80238 24.0486 9.48612C24.3649 9.16986 24.7938 8.99219 25.2411 8.99219H30.9275C31.3747 8.99219 31.8037 9.16986 32.12 9.48612C32.4362 9.80238 32.6139 10.2313 32.6139 10.6786C32.6139 11.1258 32.4362 11.5548 32.12 11.8711C31.8037 12.1873 31.3747 12.365 30.9275 12.365Z" fill="black"/>
<path d="M17.1567 18.3135H22.8431C23.2855 18.3141 23.71 18.4885 24.025 18.7992C24.34 19.1098 24.5203 19.5319 24.5271 19.9743C24.5271 19.9831 24.5223 19.9911 24.5223 19.9999C24.5223 20.0087 24.5271 20.0167 24.5271 20.0255C24.5203 20.4679 24.34 20.8899 24.025 21.2006C23.71 21.5113 23.2855 21.6857 22.8431 21.6863H17.1567C16.7142 21.6857 16.2897 21.5113 15.9747 21.2006C15.6597 20.8899 15.4794 20.4679 15.4727 20.0255C15.4727 20.0167 15.4775 20.0087 15.4775 19.9999C15.4775 19.9911 15.4727 19.9831 15.4727 19.9743C15.4794 19.5319 15.6597 19.1098 15.9747 18.7992C16.2897 18.4885 16.7142 18.3141 17.1567 18.3135Z" fill="black"/>
<path d="M9.07312 27.6353H14.7595C15.2068 27.6353 15.6357 27.8129 15.952 28.1292C16.2682 28.4455 16.4459 28.8744 16.4459 29.3217C16.4459 29.7689 16.2682 30.1979 15.952 30.5141C15.6357 30.8304 15.2068 31.0081 14.7595 31.0081H9.07312C8.62586 31.0081 8.19692 30.8304 7.88065 30.5141C7.56439 30.1979 7.38672 29.7689 7.38672 29.3217C7.38672 28.8744 7.56439 28.4455 7.88065 28.1292C8.19692 27.8129 8.62586 27.6353 9.07312 27.6353Z" fill="#121212"/>
<path d="M17.9856 20.4018C18.2074 20.4018 18.3872 20.222 18.3872 20.0002C18.3872 19.7784 18.2074 19.5986 17.9856 19.5986C17.7638 19.5986 17.584 19.7784 17.584 20.0002C17.584 20.222 17.7638 20.4018 17.9856 20.4018Z" fill="#65FF00"/>
<path d="M20.0188 20.4018C20.2406 20.4018 20.4204 20.222 20.4204 20.0002C20.4204 19.7784 20.2406 19.5986 20.0188 19.5986C19.797 19.5986 19.6172 19.7784 19.6172 20.0002C19.6172 20.222 19.797 20.4018 20.0188 20.4018Z" fill="#65FF00"/>
<path d="M22.0149 20.4018C22.2367 20.4018 22.4165 20.222 22.4165 20.0002C22.4165 19.7784 22.2367 19.5986 22.0149 19.5986C21.7931 19.5986 21.6133 19.7784 21.6133 20.0002C21.6133 20.222 21.7931 20.4018 22.0149 20.4018Z" fill="#65FF00"/>
<path d="M26.0696 11.0801C26.2914 11.0801 26.4712 10.9003 26.4712 10.6785C26.4712 10.4567 26.2914 10.2769 26.0696 10.2769C25.8478 10.2769 25.668 10.4567 25.668 10.6785C25.668 10.9003 25.8478 11.0801 26.0696 11.0801Z" fill="#65FF00"/>
<path d="M28.1028 11.0801C28.3246 11.0801 28.5044 10.9003 28.5044 10.6785C28.5044 10.4567 28.3246 10.2769 28.1028 10.2769C27.881 10.2769 27.7012 10.4567 27.7012 10.6785C27.7012 10.9003 27.881 11.0801 28.1028 11.0801Z" fill="#65FF00"/>
<path d="M30.0969 11.0801C30.3187 11.0801 30.4985 10.9003 30.4985 10.6785C30.4985 10.4567 30.3187 10.2769 30.0969 10.2769C29.8751 10.2769 29.6953 10.4567 29.6953 10.6785C29.6953 10.9003 29.8751 11.0801 30.0969 11.0801Z" fill="#65FF00"/>
<path d="M13.9309 29.7231C14.1527 29.7231 14.3325 29.5433 14.3325 29.3215C14.3325 29.0997 14.1527 28.9199 13.9309 28.9199C13.7091 28.9199 13.5293 29.0997 13.5293 29.3215C13.5293 29.5433 13.7091 29.7231 13.9309 29.7231Z" fill="#65FF00"/>
<path d="M11.8977 29.7231C12.1195 29.7231 12.2993 29.5433 12.2993 29.3215C12.2993 29.0997 12.1195 28.9199 11.8977 28.9199C11.6759 28.9199 11.4961 29.0997 11.4961 29.3215C11.4961 29.5433 11.6759 29.7231 11.8977 29.7231Z" fill="#65FF00"/>
<path d="M9.9016 29.7231C10.1234 29.7231 10.3032 29.5433 10.3032 29.3215C10.3032 29.0997 10.1234 28.9199 9.9016 28.9199C9.6798 28.9199 9.5 29.0997 9.5 29.3215C9.5 29.5433 9.6798 29.7231 9.9016 29.7231Z" fill="#65FF00"/>
<path d="M29.2462 22.8921C30.503 22.8919 31.7317 23.2645 32.7768 23.9627C33.8219 24.6608 34.6365 25.6532 35.1175 26.8144C35.5986 27.9755 35.7245 29.2533 35.4793 30.486C35.2342 31.7187 34.6289 32.851 33.7402 33.7397C32.8515 34.6285 31.7192 35.2337 30.4865 35.4788C29.2538 35.724 27.976 35.5981 26.8149 35.117C25.6537 34.636 24.6613 33.8214 23.9632 32.7763C23.265 31.7312 22.8924 30.5025 22.8926 29.2457C22.8947 27.5613 23.5648 25.9464 24.7558 24.7554C25.9469 23.5643 27.5617 22.8942 29.2462 22.8921Z" fill="#65FF00"/>
<path d="M14.9924 12.0919L16.9604 11.8159V9.5415L14.9956 9.2647C14.9261 9.25536 14.8603 9.22791 14.8047 9.1851C14.7492 9.14229 14.7059 9.08563 14.6791 9.0208C14.6524 8.95597 14.6431 8.88525 14.6524 8.81573C14.6616 8.74621 14.6889 8.68033 14.7316 8.6247L15.9204 7.0399L14.3124 5.4311L12.7292 6.6287C12.6736 6.67141 12.6077 6.69873 12.5382 6.70794C12.4686 6.71715 12.3979 6.70793 12.3331 6.68118C12.2683 6.65444 12.2116 6.61112 12.1688 6.55558C12.126 6.50003 12.0985 6.43421 12.0892 6.3647L11.8164 4.3999H9.54119L9.26519 6.3647C9.25585 6.43421 9.22839 6.50003 9.18559 6.55558C9.14278 6.61112 9.08612 6.65444 9.02129 6.68118C8.95646 6.70793 8.88574 6.71715 8.81622 6.70794C8.7467 6.69873 8.68082 6.67141 8.62519 6.6287L7.04039 5.4343L5.43479 7.0399L6.62919 8.6247C6.67189 8.68033 6.69922 8.74621 6.70843 8.81573C6.71764 8.88525 6.70841 8.95597 6.68167 9.0208C6.65493 9.08563 6.61161 9.14229 6.55607 9.1851C6.50052 9.22791 6.43469 9.25536 6.36519 9.2647L4.40039 9.5415V11.8159L6.36519 12.0919C6.43469 12.1012 6.50052 12.1287 6.55607 12.1715C6.61161 12.2143 6.65493 12.271 6.68167 12.3358C6.70841 12.4006 6.71764 12.4714 6.70843 12.5409C6.69922 12.6104 6.67189 12.6763 6.62919 12.7319L5.43479 14.3135L7.04039 15.9199L8.62519 14.7255C8.68082 14.6828 8.7467 14.6555 8.81622 14.6463C8.88574 14.6371 8.95646 14.6463 9.02129 14.673C9.08612 14.6998 9.14278 14.7431 9.18559 14.7986C9.22839 14.8542 9.25585 14.92 9.26519 14.9895L9.54119 16.9543H11.8164L12.0924 14.9895C12.1017 14.92 12.1292 14.8542 12.172 14.7986C12.2148 14.7431 12.2715 14.6998 12.3363 14.673C12.4011 14.6463 12.4718 14.6371 12.5414 14.6463C12.6109 14.6555 12.6768 14.6828 12.7324 14.7255L14.314 15.9199L15.922 14.3111L14.7284 12.7287C14.6857 12.6731 14.6584 12.6072 14.6491 12.5377C14.6399 12.4682 14.6492 12.3974 14.6759 12.3326C14.7027 12.2678 14.746 12.2111 14.8015 12.1683C14.8571 12.1255 14.9229 12.098 14.9924 12.0887V12.0919ZM10.6788 13.5319C10.1139 13.5319 9.56175 13.3644 9.09208 13.0506C8.62242 12.7368 8.25635 12.2907 8.04019 11.7688C7.82403 11.247 7.76747 10.6727 7.87767 10.1187C7.98787 9.56471 8.25987 9.05582 8.65929 8.65641C9.05871 8.25699 9.5676 7.98498 10.1216 7.87478C10.6756 7.76458 11.2499 7.82114 11.7717 8.0373C12.2936 8.25347 12.7396 8.61953 13.0535 9.08919C13.3673 9.55886 13.5348 10.111 13.5348 10.6759C13.5346 11.4335 13.2337 12.1601 12.6982 12.696C12.1627 13.232 11.4364 13.5335 10.6788 13.5343V13.5319Z" fill="black"/>
<path d="M10.6775 7.02246C9.9544 7.02246 9.24755 7.23688 8.64632 7.63861C8.0451 8.04033 7.5765 8.61132 7.29978 9.27937C7.02307 9.94742 6.95067 10.6825 7.09174 11.3917C7.2328 12.1009 7.581 12.7523 8.0923 13.2636C8.6036 13.7749 9.25504 14.1231 9.96424 14.2642C10.6734 14.4053 11.4085 14.3329 12.0766 14.0562C12.7446 13.7795 13.3156 13.3109 13.7173 12.7096C14.1191 12.1084 14.3335 11.4015 14.3335 10.6785C14.3324 9.70915 13.9469 8.77985 13.2615 8.09445C12.5761 7.40904 11.6468 7.02352 10.6775 7.02246ZM10.6775 13.5345C10.1126 13.5345 9.56044 13.367 9.09078 13.0531C8.62111 12.7393 8.25505 12.2933 8.03889 11.7714C7.82272 11.2495 7.76616 10.6753 7.87636 10.1213C7.98656 9.56727 8.25857 9.05838 8.65799 8.65896C9.05741 8.25955 9.5663 7.98754 10.1203 7.87734C10.6743 7.76714 11.2486 7.8237 11.7704 8.03986C12.2923 8.25603 12.7383 8.62209 13.0522 9.09175C13.366 9.56142 13.5335 10.1136 13.5335 10.6785C13.5326 11.4357 13.2315 12.1616 12.696 12.697C12.1606 13.2324 11.4347 13.5336 10.6775 13.5345Z" fill="#65FF00"/>
<path d="M28.6013 31.0103C28.6763 31.0853 28.7781 31.1274 28.8841 31.1274C28.9902 31.1274 29.0919 31.0853 29.1669 31.0103L32.4661 27.7111C32.539 27.6356 32.5793 27.5346 32.5784 27.4297C32.5775 27.3248 32.5354 27.2245 32.4612 27.1504C32.3871 27.0762 32.2868 27.0341 32.1819 27.0332C32.077 27.0323 31.976 27.0726 31.9005 27.1455L28.8805 30.1599L27.4181 28.6959C27.3427 28.623 27.2416 28.5827 27.1368 28.5836C27.0319 28.5845 26.9316 28.6266 26.8574 28.7008C26.7832 28.7749 26.7412 28.8752 26.7402 28.9801C26.7393 29.085 26.7797 29.186 26.8525 29.2615L28.6013 31.0103Z" fill="black"/>
</svg>
