<svg width="40" height="40" viewBox="0 0 40 40" fill="none" xmlns="http://www.w3.org/2000/svg">
<g clip-path="url(#clip0_532_408)">
<path d="M3.33398 28.3335H5.00065V36.6668H13.334V38.3335H3.33398V28.3335ZM38.334 28.3335H36.6673V36.6668H28.334V38.3335H38.334V28.3335ZM5.00065 5.00016H13.334V3.3335H3.33398V13.3335H5.00065V5.00016ZM38.334 3.3335H28.334V5.00016H36.6673V13.3335H38.334V3.3335ZM22.084 23.3335H19.584C19.2525 23.3335 18.9345 23.2018 18.7001 22.9674C18.4657 22.733 18.334 22.415 18.334 22.0835V19.5835C18.334 19.252 18.4657 18.934 18.7001 18.6996C18.9345 18.4652 19.2525 18.3335 19.584 18.3335H22.084C22.4155 18.3335 22.7334 18.4652 22.9679 18.6996C23.2023 18.934 23.334 19.252 23.334 19.5835V22.0835C23.334 22.415 23.2023 22.733 22.9679 22.9674C22.7334 23.2018 22.4155 23.3335 22.084 23.3335ZM21.6673 20.0002H20.0007V21.6668H21.6673V20.0002ZM33.334 20.0002H25.0007V21.6668H33.334V20.0002ZM16.6673 20.0002H8.33398V21.6668H16.6673V20.0002ZM21.6673 33.3335V25.0002H20.0007V33.3335H21.6673ZM20.0007 16.6668H21.6673V8.3335H20.0007V16.6668Z" fill="#65FF00"/>
</g>
<defs>
<clipPath id="clip0_532_408">
<rect width="40" height="40" fill="white"/>
</clipPath>
</defs>
</svg>
