<svg width="144" height="75" viewBox="0 0 144 75" fill="none" xmlns="http://www.w3.org/2000/svg">
<path d="M1.47902 63.6481V66.2947H4.59274V67.5013H1.47902V70.2647H4.98195V71.4713H0V62.4415H4.98195V63.6481H1.47902ZM15.4572 64.206C16.0194 64.206 16.5211 64.3227 16.9622 64.5562C17.412 64.7898 17.7623 65.1357 18.0131 65.5942C18.2726 66.0526 18.4023 66.6061 18.4023 67.2548V71.4713H16.9363V67.4754C16.9363 66.8353 16.7762 66.3466 16.4562 66.0093C16.1362 65.6633 15.6994 65.4904 15.1459 65.4904C14.5923 65.4904 14.1512 65.6633 13.8225 66.0093C13.5025 66.3466 13.3425 66.8353 13.3425 67.4754V71.4713H11.8765V67.4754C11.8765 66.8353 11.7165 66.3466 11.3964 66.0093C11.0764 65.6633 10.6396 65.4904 10.0861 65.4904C9.53252 65.4904 9.09138 65.6633 8.76271 66.0093C8.44269 66.3466 8.28268 66.8353 8.28268 67.4754V71.4713H6.80366V64.3227H8.28268V65.1401C8.52486 64.846 8.8319 64.6168 9.20382 64.4525C9.57577 64.2881 9.97363 64.206 10.3974 64.206C10.9683 64.206 11.4786 64.327 11.9284 64.5692C12.3781 64.8114 12.7241 65.1617 12.9663 65.6201C13.1825 65.1876 13.5198 64.846 13.9782 64.5952C14.4366 64.3357 14.9296 64.206 15.4572 64.206ZM21.7633 65.3736C22.0141 65.0449 22.3558 64.7682 22.7882 64.5433C23.2207 64.3184 23.7094 64.206 24.2543 64.206C24.877 64.206 25.4435 64.3616 25.9538 64.673C26.4728 64.9757 26.8793 65.4039 27.1734 65.9574C27.4674 66.511 27.6145 67.1467 27.6145 67.8646C27.6145 68.5825 27.4674 69.2268 27.1734 69.7977C26.8793 70.3599 26.4728 70.801 25.9538 71.121C25.4435 71.4324 24.877 71.5881 24.2543 71.5881C23.7094 71.5881 23.225 71.4799 22.8012 71.2637C22.3774 71.0388 22.0314 70.7621 21.7633 70.4334V74.8704H20.2843V64.3227H21.7633V65.3736ZM26.1095 67.8646C26.1095 67.3716 26.0057 66.9478 25.7981 66.5931C25.5992 66.2299 25.3311 65.9574 24.9938 65.7758C24.6651 65.5855 24.3105 65.4904 23.9299 65.4904C23.558 65.4904 23.2034 65.5855 22.8661 65.7758C22.5374 65.9661 22.2693 66.2428 22.0617 66.6061C21.8627 66.9694 21.7633 67.3975 21.7633 67.8905C21.7633 68.3835 21.8627 68.816 22.0617 69.1879C22.2693 69.5512 22.5374 69.8279 22.8661 70.0182C23.2034 70.2085 23.558 70.3037 23.9299 70.3037C24.3105 70.3037 24.6651 70.2085 24.9938 70.0182C25.3311 69.8193 25.5992 69.5339 25.7981 69.162C26.0057 68.79 26.1095 68.3576 26.1095 67.8646ZM32.1778 71.5881C31.5032 71.5881 30.8934 71.4367 30.3485 71.134C29.8036 70.8226 29.3755 70.3901 29.0641 69.8366C28.7527 69.2744 28.597 68.6257 28.597 67.8905C28.597 67.164 28.757 66.5196 29.0771 65.9574C29.3971 65.3952 29.8339 64.9628 30.3874 64.66C30.941 64.3573 31.5594 64.206 32.2427 64.206C32.926 64.206 33.5444 64.3573 34.0979 64.66C34.6515 64.9628 35.0883 65.3952 35.4083 65.9574C35.7283 66.5196 35.8883 67.164 35.8883 67.8905C35.8883 68.6171 35.724 69.2614 35.3953 69.8236C35.0666 70.3858 34.6169 70.8226 34.046 71.134C33.4838 71.4367 32.8611 71.5881 32.1778 71.5881ZM32.1778 70.3037C32.5584 70.3037 32.913 70.2128 33.2417 70.0312C33.579 69.8496 33.8514 69.5771 34.059 69.2139C34.2666 68.8506 34.3704 68.4095 34.3704 67.8905C34.3704 67.3716 34.2709 66.9348 34.072 66.5802C33.8731 66.2169 33.6093 65.9444 33.2806 65.7628C32.9519 65.5812 32.5973 65.4904 32.2167 65.4904C31.8362 65.4904 31.4815 65.5812 31.1529 65.7628C30.8329 65.9444 30.5777 66.2169 30.3874 66.5802C30.1971 66.9348 30.102 67.3716 30.102 67.8905C30.102 68.6603 30.2966 69.2571 30.6858 69.6809C31.0837 70.0961 31.581 70.3037 32.1778 70.3037ZM46.9511 64.3227L44.7326 71.4713H43.1757L41.7356 66.1909L40.2955 71.4713H38.7387L36.5072 64.3227H38.0121L39.5041 70.0701L41.0221 64.3227H42.566L44.019 70.0442L45.498 64.3227H46.9511ZM54.6082 67.7219C54.6082 67.99 54.5909 68.2322 54.5563 68.4484H49.0943C49.1375 69.0192 49.3494 69.4776 49.73 69.8236C50.1106 70.1696 50.5776 70.3426 51.1312 70.3426C51.9269 70.3426 52.4891 70.0096 52.8178 69.3436H54.4135C54.1973 70.0009 53.8038 70.5415 53.2329 70.9653C52.6707 71.3805 51.9701 71.5881 51.1312 71.5881C50.4479 71.5881 49.8338 71.4367 49.2889 71.134C48.7526 70.8226 48.3288 70.3901 48.0175 69.8366C47.7147 69.2744 47.5634 68.6257 47.5634 67.8905C47.5634 67.1553 47.7104 66.511 48.0045 65.9574C48.3072 65.3952 48.7267 64.9628 49.2629 64.66C49.8078 64.3573 50.4306 64.206 51.1312 64.206C51.8058 64.206 52.4069 64.353 52.9345 64.6471C53.4621 64.9411 53.873 65.3563 54.167 65.8925C54.4611 66.4201 54.6082 67.0299 54.6082 67.7219ZM53.0643 67.2548C53.0556 66.7099 52.861 66.2731 52.4804 65.9444C52.0999 65.6158 51.6285 65.4514 51.0663 65.4514C50.556 65.4514 50.1192 65.6158 49.7559 65.9444C49.3927 66.2645 49.1764 66.7013 49.1073 67.2548H53.0643ZM57.5427 65.3606C57.759 64.9974 58.0444 64.7163 58.399 64.5173C58.7623 64.3097 59.1904 64.206 59.6834 64.206V65.7369H59.3072C58.7277 65.7369 58.2866 65.8839 57.9838 66.178C57.6898 66.472 57.5427 66.9823 57.5427 67.7089V71.4713H56.0637V64.3227H57.5427V65.3606ZM67.5946 67.7219C67.5946 67.99 67.5773 68.2322 67.5427 68.4484H62.0808C62.124 69.0192 62.3359 69.4776 62.7165 69.8236C63.097 70.1696 63.5641 70.3426 64.1176 70.3426C64.9134 70.3426 65.4756 70.0096 65.8042 69.3436H67.4C67.1838 70.0009 66.7903 70.5415 66.2194 70.9653C65.6572 71.3805 64.9566 71.5881 64.1176 71.5881C63.4344 71.5881 62.8203 71.4367 62.2754 71.134C61.7391 70.8226 61.3153 70.3901 61.0039 69.8366C60.7012 69.2744 60.5498 68.6257 60.5498 67.8905C60.5498 67.1553 60.6969 66.511 60.991 65.9574C61.2937 65.3952 61.7132 64.9628 62.2494 64.66C62.7943 64.3573 63.4171 64.206 64.1176 64.206C64.7923 64.206 65.3934 64.353 65.921 64.6471C66.4486 64.9411 66.8595 65.3563 67.1535 65.8925C67.4476 66.4201 67.5946 67.0299 67.5946 67.7219ZM66.0508 67.2548C66.0421 66.7099 65.8475 66.2731 65.4669 65.9444C65.0864 65.6158 64.615 65.4514 64.0528 65.4514C63.5425 65.4514 63.1057 65.6158 62.7424 65.9444C62.3792 66.2645 62.1629 66.7013 62.0937 67.2548H66.0508ZM68.5572 67.8646C68.5572 67.1467 68.7042 66.511 68.9983 65.9574C69.301 65.4039 69.7075 64.9757 70.2178 64.673C70.7368 64.3616 71.312 64.206 71.9434 64.206C72.4104 64.206 72.8688 64.3097 73.3186 64.5173C73.777 64.7163 74.1403 64.9844 74.4084 65.3217V61.8707H75.9004V71.4713H74.4084V70.3945C74.1662 70.7404 73.8289 71.0259 73.3964 71.2507C72.9726 71.4756 72.4839 71.5881 71.9304 71.5881C71.3076 71.5881 70.7368 71.4324 70.2178 71.121C69.7075 70.801 69.301 70.3599 68.9983 69.7977C68.7042 69.2268 68.5572 68.5825 68.5572 67.8646ZM74.4084 67.8905C74.4084 67.3975 74.3046 66.9694 74.097 66.6061C73.8981 66.2428 73.6343 65.9661 73.3056 65.7758C72.9769 65.5855 72.6223 65.4904 72.2418 65.4904C71.8612 65.4904 71.5066 65.5855 71.1779 65.7758C70.8492 65.9574 70.5811 66.2299 70.3735 66.5931C70.1746 66.9478 70.0751 67.3716 70.0751 67.8646C70.0751 68.3576 70.1746 68.79 70.3735 69.162C70.5811 69.5339 70.8492 69.8193 71.1779 70.0182C71.5152 70.2085 71.8698 70.3037 72.2418 70.3037C72.6223 70.3037 72.9769 70.2085 73.3056 70.0182C73.6343 69.8279 73.8981 69.5512 74.097 69.1879C74.3046 68.816 74.4084 68.3835 74.4084 67.8905ZM82.6922 70.2777H85.741V71.4713H81.2132V62.4545H82.6922V70.2777ZM93.5297 67.7219C93.5297 67.99 93.5124 68.2322 93.4778 68.4484H88.0158C88.059 69.0192 88.2709 69.4776 88.6515 69.8236C89.0321 70.1696 89.4991 70.3426 90.0527 70.3426C90.8484 70.3426 91.4106 70.0096 91.7393 69.3436H93.335C93.1188 70.0009 92.7253 70.5415 92.1544 70.9653C91.5922 71.3805 90.8916 71.5881 90.0527 71.5881C89.3694 71.5881 88.7553 71.4367 88.2104 71.134C87.6741 70.8226 87.2503 70.3901 86.9389 69.8366C86.6362 69.2744 86.4849 68.6257 86.4849 67.8905C86.4849 67.1553 86.6319 66.511 86.926 65.9574C87.2287 65.3952 87.6482 64.9628 88.1844 64.66C88.7293 64.3573 89.3521 64.206 90.0527 64.206C90.7273 64.206 91.3284 64.353 91.856 64.6471C92.3836 64.9411 92.7945 65.3563 93.0885 65.8925C93.3826 66.4201 93.5297 67.0299 93.5297 67.7219ZM91.9858 67.2548C91.9771 66.7099 91.7825 66.2731 91.4019 65.9444C91.0214 65.6158 90.55 65.4514 89.9878 65.4514C89.4775 65.4514 89.0407 65.6158 88.6774 65.9444C88.3142 66.2645 88.0979 66.7013 88.0287 67.2548H91.9858ZM94.4922 67.8646C94.4922 67.1467 94.6392 66.511 94.9333 65.9574C95.236 65.4039 95.6426 64.9757 96.1529 64.673C96.6718 64.3616 97.2427 64.206 97.8654 64.206C98.4276 64.206 98.9163 64.3184 99.3314 64.5433C99.7553 64.7595 100.093 65.032 100.343 65.3606V64.3227H101.835V71.4713H100.343V70.4074C100.093 70.7448 99.7509 71.0259 99.3185 71.2507C98.886 71.4756 98.393 71.5881 97.8395 71.5881C97.2254 71.5881 96.6632 71.4324 96.1529 71.121C95.6426 70.801 95.236 70.3599 94.9333 69.7977C94.6392 69.2268 94.4922 68.5825 94.4922 67.8646ZM100.343 67.8905C100.343 67.3975 100.24 66.9694 100.032 66.6061C99.8331 66.2428 99.5693 65.9661 99.2406 65.7758C98.912 65.5855 98.5573 65.4904 98.1768 65.4904C97.7962 65.4904 97.4416 65.5855 97.1129 65.7758C96.7842 65.9574 96.5161 66.2299 96.3085 66.5931C96.1096 66.9478 96.0101 67.3716 96.0101 67.8646C96.0101 68.3576 96.1096 68.79 96.3085 69.162C96.5161 69.5339 96.7842 69.8193 97.1129 70.0182C97.4502 70.2085 97.8048 70.3037 98.1768 70.3037C98.5573 70.3037 98.912 70.2085 99.2406 70.0182C99.5693 69.8279 99.8331 69.5512 100.032 69.1879C100.24 68.816 100.343 68.3835 100.343 67.8905ZM105.257 65.3606C105.473 64.9974 105.759 64.7163 106.113 64.5173C106.477 64.3097 106.904 64.206 107.397 64.206V65.7369H107.021C106.442 65.7369 106.001 65.8839 105.698 66.178C105.404 66.472 105.257 66.9823 105.257 67.7089V71.4713H103.778V64.3227H105.257V65.3606ZM112.364 64.206C112.926 64.206 113.428 64.3227 113.869 64.5562C114.319 64.7898 114.669 65.1357 114.92 65.5942C115.171 66.0526 115.296 66.6061 115.296 67.2548V71.4713H113.83V67.4754C113.83 66.8353 113.67 66.3466 113.35 66.0093C113.03 65.6633 112.593 65.4904 112.04 65.4904C111.486 65.4904 111.045 65.6633 110.717 66.0093C110.396 66.3466 110.236 66.8353 110.236 67.4754V71.4713H108.757V64.3227H110.236V65.1401C110.479 64.846 110.786 64.6168 111.158 64.4525C111.538 64.2881 111.94 64.206 112.364 64.206ZM117.935 63.3756C117.667 63.3756 117.442 63.2848 117.261 63.1032C117.079 62.9215 116.988 62.6967 116.988 62.4285C116.988 62.1604 117.079 61.9355 117.261 61.7539C117.442 61.5723 117.667 61.4814 117.935 61.4814C118.195 61.4814 118.415 61.5723 118.597 61.7539C118.779 61.9355 118.869 62.1604 118.869 62.4285C118.869 62.6967 118.779 62.9215 118.597 63.1032C118.415 63.2848 118.195 63.3756 117.935 63.3756ZM118.662 64.3227V71.4713H117.183V64.3227H118.662ZM124.21 64.206C124.773 64.206 125.274 64.3227 125.715 64.5562C126.165 64.7898 126.515 65.1357 126.766 65.5942C127.017 66.0526 127.142 66.6061 127.142 67.2548V71.4713H125.676V67.4754C125.676 66.8353 125.516 66.3466 125.196 66.0093C124.876 65.6633 124.44 65.4904 123.886 65.4904C123.332 65.4904 122.891 65.6633 122.563 66.0093C122.243 66.3466 122.083 66.8353 122.083 67.4754V71.4713H120.604V64.3227H122.083V65.1401C122.325 64.846 122.632 64.6168 123.004 64.4525C123.384 64.2881 123.787 64.206 124.21 64.206ZM131.909 64.206C132.463 64.206 132.952 64.3184 133.375 64.5433C133.808 64.7595 134.145 65.032 134.387 65.3606V64.3227H135.879V71.5881C135.879 72.2454 135.741 72.8292 135.464 73.3395C135.187 73.8585 134.785 74.265 134.258 74.5591C133.739 74.8531 133.116 75.0002 132.389 75.0002C131.421 75.0002 130.616 74.771 129.976 74.3126C129.336 73.8628 128.973 73.2487 128.886 72.4703H130.352C130.465 72.8422 130.703 73.1406 131.066 73.3655C131.438 73.599 131.879 73.7158 132.389 73.7158C132.986 73.7158 133.466 73.5341 133.829 73.1709C134.201 72.8076 134.387 72.28 134.387 71.5881V70.3945C134.136 70.7318 133.795 71.0172 133.362 71.2507C132.939 71.4756 132.454 71.5881 131.909 71.5881C131.287 71.5881 130.716 71.4324 130.197 71.121C129.686 70.801 129.28 70.3599 128.977 69.7977C128.683 69.2268 128.536 68.5825 128.536 67.8646C128.536 67.1467 128.683 66.511 128.977 65.9574C129.28 65.4039 129.686 64.9757 130.197 64.673C130.716 64.3616 131.287 64.206 131.909 64.206ZM134.387 67.8905C134.387 67.3975 134.283 66.9694 134.076 66.6061C133.877 66.2428 133.613 65.9661 133.285 65.7758C132.956 65.5855 132.601 65.4904 132.221 65.4904C131.84 65.4904 131.485 65.5855 131.157 65.7758C130.828 65.9574 130.56 66.2299 130.352 66.5931C130.153 66.9478 130.054 67.3716 130.054 67.8646C130.054 68.3576 130.153 68.79 130.352 69.162C130.56 69.5339 130.828 69.8193 131.157 70.0182C131.494 70.2085 131.849 70.3037 132.221 70.3037C132.601 70.3037 132.956 70.2085 133.285 70.0182C133.613 69.8279 133.877 69.5512 134.076 69.1879C134.283 68.816 134.387 68.3835 134.387 67.8905ZM140.417 71.5881C139.855 71.5881 139.349 71.4886 138.899 71.2897C138.458 71.0821 138.108 70.8053 137.848 70.4593C137.589 70.1047 137.45 69.7112 137.433 69.2787H138.964C138.99 69.5814 139.132 69.8366 139.392 70.0442C139.66 70.2431 139.993 70.3426 140.391 70.3426C140.806 70.3426 141.126 70.2647 141.351 70.109C141.585 69.9447 141.701 69.7371 141.701 69.4863C141.701 69.2182 141.572 69.0192 141.312 68.8895C141.061 68.7598 140.659 68.6171 140.105 68.4614C139.569 68.3143 139.132 68.1716 138.795 68.0332C138.458 67.8948 138.164 67.6829 137.913 67.3975C137.671 67.1121 137.55 66.7359 137.55 66.2688C137.55 65.8882 137.662 65.5423 137.887 65.2309C138.112 64.9109 138.432 64.66 138.847 64.4784C139.271 64.2968 139.755 64.206 140.3 64.206C141.113 64.206 141.766 64.4135 142.259 64.8287C142.761 65.2352 143.029 65.7931 143.064 66.5023H141.585C141.559 66.1823 141.429 65.9271 141.195 65.7369C140.962 65.5466 140.646 65.4514 140.248 65.4514C139.859 65.4514 139.561 65.525 139.353 65.672C139.145 65.819 139.042 66.0136 139.042 66.2558C139.042 66.4461 139.111 66.6061 139.249 66.7359C139.388 66.8656 139.556 66.9694 139.755 67.0472C139.954 67.1164 140.248 67.2072 140.637 67.3197C141.156 67.4581 141.58 67.6008 141.909 67.7478C142.246 67.8862 142.536 68.0938 142.778 68.3706C143.02 68.6473 143.146 69.0149 143.154 69.4733C143.154 69.8798 143.042 70.2431 142.817 70.5631C142.592 70.8832 142.272 71.134 141.857 71.3156C141.45 71.4972 140.97 71.5881 140.417 71.5881Z" fill="#A98BFF"/>
<path d="M71.4555 42.4124C81.6084 42.4124 89.8388 33.8592 89.8388 23.3083C89.8388 12.7573 81.6084 4.2041 71.4555 4.2041C61.3028 4.2041 53.0723 12.7573 53.0723 23.3083C53.0723 33.8592 61.3028 42.4124 71.4555 42.4124Z" fill="#7C4DFF"/>
<path d="M50.1312 19.5159L50.634 19.6032L50.7984 18.5812L51.4497 18.6944L51.2851 19.7164L51.8403 19.813L52.0267 18.6546L52.713 18.7739L52.3833 20.8226L49.3018 20.287L49.6314 18.2383L50.3176 18.3575L50.1312 19.5159Z" fill="#CDCDCD"/>
<path d="M50.9507 13.8047L53.907 14.8554L53.6259 15.7096L51.9948 15.1297L53.4352 16.2891L53.2 17.0038L51.364 17.0035L53.0078 17.5877L52.7268 18.4419L49.7705 17.3912L50.1104 16.3584L52.2847 16.2696L50.6123 14.8332L50.9507 13.8047Z" fill="#CDCDCD"/>
<path d="M53.8684 11.6127C53.9638 11.777 54.011 11.9667 54.0037 12.1585C53.9933 12.3902 53.9283 12.6158 53.8144 12.8152L53.6067 13.2064L54.5301 13.7361L54.1104 14.5264L51.375 12.9575L52.0024 11.776C52.1035 11.5718 52.2493 11.395 52.4283 11.2601C52.5784 11.1489 52.7575 11.0874 52.9419 11.084C53.1307 11.0844 53.3161 11.1363 53.4796 11.2345C53.6386 11.3232 53.7727 11.4536 53.8684 11.6127ZM53.0512 12.0409C52.8521 11.9267 52.6932 11.9812 52.5748 12.2043L52.4077 12.5188L53.0014 12.8592L53.1684 12.5447C53.2869 12.3217 53.2478 12.1537 53.0512 12.0409Z" fill="#CDCDCD"/>
<path d="M55.7069 11.3882C55.4518 11.5009 55.1722 11.5399 54.8977 11.5008C54.6118 11.455 54.3418 11.3339 54.1136 11.149C53.8853 10.9642 53.7064 10.7219 53.5938 10.445C53.4902 10.1783 53.4587 9.88731 53.5027 9.60351C53.5498 9.31452 53.665 9.04228 53.8383 8.81113C54.0116 8.58009 54.2375 8.39727 54.4955 8.27932C54.7491 8.16677 55.0274 8.1286 55.3002 8.16893C55.5857 8.21618 55.855 8.33781 56.083 8.52247C56.311 8.70702 56.4904 8.94866 56.6042 9.22478C56.7087 9.49096 56.7412 9.78179 56.6984 10.0658C56.653 10.3549 56.5384 10.6276 56.3652 10.8586C56.1919 11.0898 55.9655 11.2718 55.7069 11.3882ZM55.8804 9.77433C55.8453 9.57648 55.7321 9.40015 55.5409 9.24543C55.3451 9.08694 55.1513 9.0145 54.9593 9.02834C54.7671 9.04218 54.6031 9.13991 54.4669 9.32155C54.3288 9.50567 54.2774 9.69552 54.3123 9.89121C54.3473 10.0869 54.4627 10.264 54.6584 10.4225C54.8519 10.5791 55.0441 10.6511 55.2352 10.6385C55.4263 10.626 55.5909 10.5277 55.7289 10.3435C55.8652 10.1618 55.9156 9.97208 55.8804 9.77433Z" fill="#CDCDCD"/>
<path d="M58.7898 3.86719L60.2273 6.85809L59.4131 7.57651L57.8464 6.34876L58.7509 8.16066L57.9367 8.87898L55.3369 6.91334L56.0532 6.28151L57.7126 7.72939L56.7052 5.70623L57.4316 5.06543L59.1674 6.42173L58.0735 4.49908L58.7898 3.86719Z" fill="#CDCDCD"/>
<path d="M60.6092 3.65993L60.8649 4.11809L61.7275 3.59833L62.0587 4.192L61.196 4.71181L61.4784 5.21777L62.456 4.62871L62.805 5.25424L61.0759 6.29619L59.5088 3.48717L61.2379 2.44531L61.5869 3.07086L60.6092 3.65993Z" fill="#CDCDCD"/>
<path d="M64.5591 4.46135L63.5455 3.60099L63.4595 3.63792L63.8997 4.74459L63.0969 5.08942L61.9033 2.08882L63.1689 1.54509C63.3697 1.45143 63.5887 1.40769 63.8086 1.41732C63.9901 1.42696 64.1647 1.49244 64.3103 1.60546C64.4524 1.71934 64.5624 1.87092 64.6287 2.04426C64.7088 2.23573 64.7272 2.44902 64.681 2.65225C64.6276 2.86461 64.5072 3.05225 64.3392 3.1853L65.456 4.07602L64.5591 4.46135ZM63.2326 3.06762L63.6299 2.89694C63.7391 2.85003 63.8103 2.78789 63.8435 2.71051C63.8598 2.6673 63.8672 2.62102 63.8653 2.57465C63.8633 2.52828 63.8521 2.48285 63.8323 2.44126C63.8177 2.39838 63.7947 2.35916 63.7646 2.32614C63.7346 2.29312 63.6981 2.26704 63.6577 2.2496C63.5663 2.21906 63.467 2.22684 63.381 2.27124L62.9837 2.44191L63.2326 3.06762Z" fill="#CDCDCD"/>
<path d="M65.949 1.33748L66.0789 1.84959L67.0431 1.58538L67.2115 2.24895L66.2472 2.51317L66.3908 3.07871L67.4835 2.77932L67.6609 3.47851L65.7282 4.00808L64.9316 0.868459L66.8643 0.338867L67.0417 1.03802L65.949 1.33748Z" fill="#7C4DFF"/>
<path d="M69.7254 0.118457C69.9777 0.218475 70.1963 0.392822 70.3545 0.620123C70.518 0.860301 70.6185 1.1407 70.6457 1.43357C70.6829 1.72403 70.6457 2.01957 70.5379 2.29033C70.432 2.54982 70.2571 2.7726 70.0339 2.93269C69.7873 3.10734 69.5022 3.21416 69.2051 3.24316L67.9768 3.39061L67.6182 0.165185L68.8465 0.0176834C69.143 -0.0249032 69.445 0.00971505 69.7254 0.118457ZM69.6215 2.17319C69.7493 2.01258 69.7987 1.80111 69.7695 1.53876C69.7401 1.27342 69.6453 1.07695 69.4854 0.949334C69.3255 0.821715 69.1193 0.773063 68.8669 0.803368L68.5675 0.839327L68.7518 2.49554L69.0511 2.45954C69.3035 2.42925 69.4936 2.33377 69.6215 2.17319Z" fill="#7C4DFF"/>
<path d="M75.3482 2.77605L76.3019 2.96375L76.1782 3.64251L74.3711 3.28694L74.9524 0.0966797L75.8059 0.264648L75.3482 2.77605Z" fill="#CDCDCD"/>
<path d="M77.9754 1.56527L77.8238 2.07094L78.7759 2.37908L78.5795 3.03426L77.6275 2.72612L77.4601 3.28458L78.539 3.63386L78.3322 4.32419L76.4238 3.70652L77.353 0.606445L79.2613 1.22413L79.0544 1.91451L77.9754 1.56527Z" fill="#CDCDCD"/>
<path d="M80.6467 4.83131L79.6476 4.33384L79.2755 4.73581L78.4521 4.32583L80.8294 1.90918L81.7327 2.35894L81.4056 5.79659L80.5783 5.38461L80.6467 4.83131ZM80.7381 4.11085L80.871 3.01263L80.1346 3.81031L80.7381 4.11085Z" fill="#CDCDCD"/>
<path d="M82.8392 6.84839L82.983 5.49664L82.9065 5.44173L82.252 6.42718L81.5371 5.91449L83.3118 3.24219L84.4388 4.05056C84.6237 4.17479 84.7781 4.34204 84.8899 4.53905C84.9807 4.70259 85.0227 4.8905 85.0105 5.07891C84.9958 5.26483 84.9332 5.44319 84.8292 5.59523C84.7182 5.76919 84.5559 5.9012 84.3667 5.97136C84.1662 6.04012 83.9492 6.0372 83.7503 5.96293L83.638 7.4213L82.8392 6.84839ZM83.2438 4.9338L83.5976 5.18753C83.6949 5.25724 83.7837 5.28554 83.8643 5.27244C83.9081 5.26316 83.9495 5.24449 83.9858 5.2176C84.0222 5.19072 84.0528 5.15622 84.0757 5.11632C84.1024 5.08033 84.1215 5.0389 84.1319 4.99472C84.1421 4.95055 84.1434 4.90461 84.1356 4.85989C84.1106 4.76354 84.0502 4.68116 83.9676 4.63032L83.6139 4.37655L83.2438 4.9338Z" fill="#CDCDCD"/>
<path d="M85.9415 9.66159L85.3128 9.03885L85.6801 6.8959L84.4755 8.2095L83.8467 7.58675L86.0023 5.23633L86.6311 5.85907L86.2483 8.01867L87.4683 6.68842L88.0971 7.31128L85.9415 9.66159Z" fill="#CDCDCD"/>
<path d="M89.1392 8.6406L86.7326 10.7112L86.1787 10.0159L88.5854 7.94531L89.1392 8.6406Z" fill="#CDCDCD"/>
<path d="M88.5929 13.5439L88.1216 12.7856L88.9604 10.7913L87.4938 11.776L87.0225 11.0178L89.6467 9.25586L90.1181 10.0141L89.2607 12.0209L90.7458 11.0237L91.2172 11.7819L88.5929 13.5439Z" fill="#CDCDCD"/>
<path d="M91.4825 14.9333C91.5382 14.8528 91.5707 14.7574 91.5762 14.6584C91.5809 14.5478 91.5601 14.4377 91.5157 14.3371C91.4293 14.1283 91.2962 13.9931 91.1164 13.9314C90.9365 13.8696 90.7366 13.8879 90.5168 13.9861C90.2697 14.0964 90.1082 14.2445 90.0324 14.4305C89.9565 14.6163 89.9693 14.832 90.0708 15.0776C90.1909 15.3681 90.4029 15.519 90.7067 15.5305L90.3621 14.6969L90.9362 14.4404L91.5765 15.9892L90.8029 16.3346C90.6171 16.3365 90.4325 16.3043 90.2573 16.2399C90.0628 16.1679 89.8844 16.0558 89.7326 15.9103C89.559 15.7435 89.4227 15.5392 89.3331 15.3116C89.2135 15.0373 89.1643 14.7355 89.1904 14.4356C89.2165 14.1564 89.3194 13.8911 89.487 13.6714C89.6706 13.4429 89.9033 13.2625 90.1665 13.145C90.4298 13.0275 90.7158 12.9761 91.0017 12.995C91.2699 13.0198 91.5256 13.1239 91.7385 13.2952C91.9656 13.4811 92.1422 13.7253 92.2508 14.0038C92.406 14.3788 92.4475 14.7279 92.3752 15.051C92.3052 15.3708 92.1172 15.6492 91.8516 15.8263L91.4825 14.9333Z" fill="#CDCDCD"/>
<path d="M90.2921 17.2327C90.401 16.9528 90.6091 16.7621 90.9165 16.6606L91.1484 17.5925C91.0619 17.6161 90.9876 17.6735 90.9411 17.7529C90.9112 17.8238 90.9037 17.9027 90.9196 17.9783C90.9356 18.0538 90.9741 18.1223 91.0298 18.1737C91.055 18.1942 91.0845 18.2081 91.1158 18.2142C91.1473 18.2202 91.1796 18.2183 91.2101 18.2086C91.2528 18.1977 91.2917 18.1747 91.3224 18.1421C91.3531 18.1094 91.3744 18.0684 91.384 18.0239C91.4182 17.872 91.4379 17.7169 91.4427 17.561C91.4525 17.3767 91.475 17.1934 91.5099 17.0125C91.542 16.865 91.6065 16.7273 91.698 16.6099C91.7934 16.4843 91.937 16.3958 92.1286 16.3443C92.3052 16.2914 92.4932 16.2974 92.6662 16.3616C92.8342 16.4287 92.9801 16.5448 93.0859 16.696C93.208 16.8688 93.2958 17.0651 93.3441 17.2736C93.4351 17.6391 93.4255 17.9533 93.3154 18.216C93.2053 18.4787 93.0033 18.6575 92.7096 18.7523L92.4732 17.8026C92.5119 17.7938 92.5484 17.7765 92.5801 17.752C92.6119 17.7274 92.6383 17.6962 92.6576 17.6602C92.69 17.5881 92.6956 17.5061 92.6734 17.4299C92.661 17.3703 92.6266 17.3181 92.5778 17.2844C92.5517 17.2684 92.5227 17.2584 92.4927 17.255C92.4626 17.2516 92.4322 17.2549 92.4035 17.2647C92.3755 17.2721 92.3493 17.2856 92.3267 17.3044C92.3041 17.3231 92.2857 17.3468 92.2727 17.3736C92.2408 17.4363 92.219 17.504 92.2081 17.574C92.195 17.6505 92.1823 17.7617 92.1698 17.9078C92.1582 18.091 92.1338 18.2732 92.0972 18.4529C92.0643 18.6012 92.0004 18.7402 91.9102 18.8601C91.8073 18.9915 91.6646 19.0827 91.5053 19.1187C91.3346 19.1673 91.1542 19.1638 90.9855 19.1085C90.8131 19.0491 90.6605 18.9399 90.5455 18.7938C90.4098 18.6209 90.3139 18.4181 90.2653 18.2009C90.1743 17.8351 90.1832 17.5125 90.2921 17.2327Z" fill="#CDCDCD"/>
<path d="M50.3909 29.8877L50.6157 30.5467L50.3844 30.6319L50.0547 29.6651L51.8892 28.9893L51.9942 29.2972L50.3909 29.8877Z" fill="#DBD5D5"/>
<path d="M51.6923 31.9903L51.2309 30.8742C51.0896 30.9436 51.0001 31.0323 50.9628 31.1403C50.9255 31.2492 50.9308 31.3689 50.9777 31.4737C51.0124 31.5657 51.0751 31.6433 51.156 31.6949C51.2303 31.7418 51.3194 31.7564 51.4038 31.7355L51.5366 32.0567C51.4331 32.0818 51.3252 32.08 51.2225 32.0512C51.1198 32.0226 51.0255 31.968 50.948 31.8923C50.8612 31.8084 50.7928 31.706 50.7475 31.592C50.6914 31.4634 50.668 31.322 50.6797 31.1812C50.6923 31.0477 50.7421 30.921 50.8228 30.8163C50.9165 30.7027 51.0339 30.613 51.166 30.5539C51.2982 30.495 51.4417 30.4683 51.5854 30.4759C51.7139 30.4871 51.8366 30.5368 51.9386 30.6191C52.0427 30.7093 52.125 30.8237 52.1786 30.953C52.2323 31.0824 52.256 31.2229 52.2478 31.3636C52.2368 31.4905 52.191 31.6116 52.116 31.7124C52.0386 31.8153 51.9369 31.8956 51.8207 31.9456C51.7793 31.9646 51.7363 31.9795 51.6923 31.9903ZM51.9123 31.4884C51.9577 31.4287 51.9842 31.3558 51.9882 31.2798C51.9918 31.2031 51.978 31.1264 51.9482 31.0561C51.9066 30.9462 51.8257 30.8571 51.7225 30.8077C51.6205 30.7595 51.5006 30.762 51.3626 30.8155L51.7032 31.6394C51.7851 31.6101 51.8574 31.5578 51.9123 31.4884Z" fill="#DBD5D5"/>
<path d="M52.9502 32.8369C52.9372 32.9571 52.8879 33.0697 52.8093 33.1588L53.1205 32.986L53.2687 33.2742L51.9288 34.0179L51.7807 33.7298L52.0919 33.557C51.977 33.5754 51.8595 33.5553 51.7562 33.4998C51.6454 33.4386 51.5558 33.3429 51.5 33.2263C51.4395 33.1132 51.4103 32.9848 51.4157 32.8555C51.4229 32.727 51.4657 32.6034 51.5391 32.4996C51.6269 32.3824 51.7374 32.2857 51.8635 32.2156C51.9897 32.1457 52.1285 32.104 52.2711 32.0934C52.3949 32.0877 52.5176 32.1194 52.6243 32.1847C52.7307 32.2519 52.8171 32.3485 52.8739 32.4635C52.9362 32.5767 52.9629 32.7073 52.9502 32.8369ZM52.4005 32.4455C52.2824 32.4125 52.1544 32.4342 52.0167 32.5106C51.8789 32.5872 51.7904 32.6856 51.7512 32.8058C51.7319 32.8673 51.7255 32.9323 51.7325 32.9965C51.7393 33.0607 51.7593 33.1228 51.791 33.1784C51.8291 33.2552 51.8866 33.3199 51.9574 33.3653C52.0275 33.4093 52.1079 33.4321 52.1898 33.4313C52.2812 33.4276 52.3705 33.4024 52.4512 33.3576C52.5319 33.3128 52.6017 33.2496 52.6555 33.1727C52.7024 33.1025 52.7293 33.0201 52.7332 32.9347C52.7363 32.8483 52.7166 32.7627 52.6762 32.687C52.6494 32.6287 52.6109 32.577 52.5634 32.5353C52.5159 32.4937 52.4603 32.463 52.4005 32.4455Z" fill="#DBD5D5"/>
<path d="M53.6886 34.0902C53.7919 34.1458 53.8781 34.23 53.9378 34.3337L53.6482 34.5223L53.5983 34.4397C53.5402 34.3316 53.4477 34.2478 53.3367 34.2026C53.2355 34.166 53.1194 34.1903 52.9887 34.2755L52.3367 34.6997L52.1699 34.423L53.4573 33.585L53.6242 33.8617L53.3718 34.026C53.4811 34.0161 53.5909 34.0384 53.6886 34.0902Z" fill="#DBD5D5"/>
<path d="M54.66 35.6947C54.6304 35.8539 54.5301 35.998 54.359 36.127L53.6429 36.6672L53.4582 36.4028L54.1477 35.8829C54.2449 35.8189 54.3145 35.7183 54.3416 35.6021C54.3505 35.5478 54.3481 35.4921 54.3346 35.4387C54.3212 35.3854 54.2969 35.3356 54.2636 35.2928C54.2328 35.2444 54.1925 35.2034 54.1454 35.1724C54.0982 35.1415 54.0452 35.1214 53.99 35.1132C53.8811 35.0988 53.7641 35.1385 53.6391 35.2327L52.9853 35.7258L52.8008 35.4615L54.0302 34.5342L54.2148 34.7985L53.9449 35.0022C54.0541 34.9664 54.1718 34.97 54.2788 35.0123C54.388 35.0565 54.4821 35.1334 54.549 35.2333C54.5981 35.2975 54.6334 35.372 54.6526 35.4515C54.6717 35.5311 54.6743 35.614 54.66 35.6947Z" fill="#DBD5D5"/>
<path d="M55.4687 38.1832L54.9115 37.5557L54.5006 37.7392L54.2725 37.4823L56.1669 36.6797L56.4117 36.9556L55.4876 38.8512L55.2596 38.5942L55.4687 38.1832ZM55.5871 37.945L56.0371 37.0574L55.1497 37.4522L55.5871 37.945Z" fill="#DBD5D5"/>
<path d="M57.5986 38.9284C57.6007 39.0905 57.5305 39.2528 57.3881 39.4152L56.7922 40.095L56.5598 39.8751L57.1336 39.2207C57.2163 39.1375 57.2647 39.0243 57.2687 38.9049C57.2667 38.8497 57.2535 38.7957 57.2299 38.7464C57.2064 38.697 57.1729 38.6534 57.132 38.6184C57.0924 38.5775 57.0449 38.5458 56.9927 38.5255C56.9405 38.5051 56.8847 38.4965 56.829 38.5003C56.7194 38.5088 56.6127 38.5725 56.5088 38.6911L55.9648 39.3117L55.7324 39.0918L56.7554 37.9248L56.9877 38.1447L56.7631 38.4011C56.8631 38.3429 56.9791 38.3216 57.0922 38.3404C57.2077 38.3607 57.3148 38.4163 57.3999 38.5C57.4604 38.5525 57.5095 38.6179 57.5438 38.6919C57.5781 38.7657 57.5968 38.8464 57.5986 38.9284Z" fill="#DBD5D5"/>
<path d="M58.2207 39.2674L57.8972 40.4744L58.9142 39.825L59.1911 40.0476L57.0933 41.3059L56.8164 41.0833L57.5398 40.6688L57.9417 39.043L58.2207 39.2674Z" fill="#DBD5D5"/>
<path d="M59.283 41.6662L59.1298 41.9009L58.9702 41.7884C58.8362 41.6941 58.7566 41.589 58.7312 41.473C58.7058 41.357 58.7442 41.2208 58.8464 41.0644L59.2641 40.4241L59.0839 40.2971L59.234 40.0671L59.4142 40.194L59.6262 39.8691L59.8886 40.0541L59.6767 40.379L59.9802 40.5928L59.83 40.8228L59.5265 40.609L59.1057 41.254C59.0572 41.3283 59.037 41.389 59.0451 41.4363C59.0531 41.4834 59.0906 41.5307 59.1575 41.5778L59.283 41.6662Z" fill="#DBD5D5"/>
<path d="M61.233 41.5528C61.2675 41.711 61.2314 41.8848 61.1248 42.0745L60.678 42.8684L60.4067 42.7035L60.8366 41.9393C60.901 41.8401 60.9257 41.7189 60.9056 41.6011C60.8926 41.5477 60.869 41.4977 60.836 41.4545C60.803 41.4113 60.7616 41.3759 60.7145 41.3506C60.6675 41.3192 60.6148 41.2984 60.5596 41.2898C60.5045 41.2811 60.4482 41.2848 60.3944 41.3005C60.289 41.3327 60.1973 41.4181 60.1195 41.5566L59.7118 42.2812L59.4404 42.1164L60.4702 40.2861L60.7415 40.451L60.3101 41.2177C60.3963 41.1393 60.5054 41.0934 60.6198 41.0874C60.7368 41.0822 60.8527 41.1133 60.9527 41.1768C61.0225 41.2151 61.0836 41.2685 61.1319 41.3333C61.1802 41.3982 61.2147 41.473 61.233 41.5528Z" fill="#DBD5D5"/>
<path d="M62.0385 41.8123L61.3494 43.2191L61.0693 43.0709L61.7585 41.6641L62.0385 41.8123ZM62.0284 41.1382C62.0803 41.1236 62.1357 41.131 62.1824 41.1586C62.2317 41.1819 62.2703 41.2243 62.2901 41.2767C62.2989 41.3008 62.3026 41.3266 62.3009 41.3524C62.2993 41.3781 62.2922 41.4032 62.2804 41.4259C62.2701 41.4489 62.2548 41.4692 62.236 41.4854C62.2171 41.5015 62.195 41.513 62.1712 41.5192C62.1189 41.5315 62.064 41.5231 62.0173 41.4956C61.9686 41.4729 61.9301 41.4318 61.9096 41.3807C61.9008 41.3571 61.8972 41.3318 61.8988 41.3066C61.9004 41.2815 61.9074 41.2569 61.9192 41.2347C61.9298 41.2115 61.9451 41.191 61.9639 41.1743C61.9827 41.1577 62.0046 41.1453 62.0284 41.1382Z" fill="#DBD5D5"/>
<path d="M63.4646 42.6574C63.5165 42.8104 63.5001 42.9875 63.4153 43.1886L63.0602 44.0311L62.7723 43.9L63.1141 43.0891C63.1668 42.9828 63.1779 42.8594 63.1448 42.7449C63.126 42.6933 63.0968 42.6466 63.0593 42.6077C63.0216 42.5687 62.9766 42.5385 62.9269 42.5191C62.8769 42.4935 62.8222 42.4793 62.7664 42.4774C62.7107 42.4754 62.6551 42.4858 62.6036 42.5079C62.5025 42.5525 62.421 42.6484 62.359 42.7955L62.0349 43.5644L61.7471 43.4333L62.3565 41.9873L62.6443 42.1183L62.5106 42.4359C62.5873 42.3475 62.6906 42.2887 62.8036 42.2689C62.9193 42.2497 63.0379 42.2667 63.1442 42.3176C63.2179 42.3473 63.2845 42.393 63.3397 42.4516C63.395 42.5102 63.4376 42.5803 63.4646 42.6574Z" fill="#DBD5D5"/>
<path d="M64.8707 43.1169C64.9401 43.2138 64.9782 43.3311 64.9794 43.4518L65.0931 43.1047L65.3906 43.2098L64.8965 44.7207C64.8568 44.8501 64.787 44.9674 64.6931 45.062C64.6047 45.1494 64.4939 45.2084 64.374 45.2322C64.2413 45.2565 64.1048 45.2439 63.9784 45.1953C63.7765 45.1241 63.6296 45.0167 63.5377 44.8732C63.4459 44.7302 63.4096 44.5564 63.4363 44.3866L63.7312 44.4907C63.7252 44.5828 63.7511 44.6741 63.8043 44.748C63.8665 44.8287 63.9508 44.8875 64.0462 44.9167C64.099 44.9376 64.1555 44.9474 64.212 44.9456C64.2686 44.9437 64.3242 44.9302 64.3758 44.9059C64.4772 44.857 64.5515 44.7603 64.5989 44.6156L64.7178 44.2521C64.6459 44.3471 64.547 44.416 64.4351 44.4489C64.314 44.4829 64.1856 44.4768 64.0681 44.4313C63.9495 44.3916 63.8439 44.3187 63.7628 44.2204C63.6834 44.1216 63.6334 44.0009 63.6188 43.8731C63.6057 43.7251 63.6227 43.576 63.6687 43.4353C63.7147 43.2946 63.7886 43.1656 63.8857 43.0566C63.9723 42.9645 64.0828 42.9005 64.2037 42.8723C64.3255 42.8458 64.4521 42.8548 64.5692 42.8985C64.6891 42.9368 64.7945 43.0132 64.8707 43.1169ZM64.2118 43.2216C64.1039 43.2813 64.0248 43.3881 63.9746 43.5418C63.9243 43.6955 63.9244 43.8303 63.9749 43.9458C64.0013 44.0044 64.0395 44.0564 64.0867 44.0984C64.134 44.1404 64.1893 44.1715 64.2491 44.1895C64.3274 44.2186 64.4119 44.2249 64.4936 44.2077C64.5736 44.1901 64.6473 44.1495 64.7064 44.0908C64.7707 44.0231 64.8194 43.9413 64.8488 43.8513C64.8782 43.7614 64.8876 43.6656 64.8764 43.5713C64.8643 43.4868 64.8297 43.4074 64.7765 43.3423C64.7219 43.2771 64.6512 43.2286 64.5719 43.202C64.514 43.1785 64.4519 43.168 64.3899 43.1715C64.3277 43.1749 64.2671 43.1919 64.2118 43.2216Z" fill="#DBD5D5"/>
<path d="M65.5513 44.9363C65.5306 45.0283 65.4794 45.1098 65.4065 45.1665C65.3683 45.192 65.325 45.208 65.2799 45.2132C65.2348 45.2185 65.1892 45.2129 65.1465 45.1968L65.1805 45.0698C65.1981 45.0765 65.2167 45.0793 65.2352 45.078C65.2538 45.0767 65.272 45.0715 65.2884 45.0624C65.3224 45.0344 65.3453 44.9945 65.3529 44.9501L65.3596 44.9254L65.2055 44.8807L65.287 44.5771L65.5738 44.6602C65.5831 44.7529 65.5754 44.8466 65.5513 44.9363Z" fill="#DBD5D5"/>
<path d="M67.7984 45.1364C67.7341 45.2132 67.6495 45.2686 67.5551 45.2959C67.4399 45.3283 67.3189 45.3309 67.2026 45.3033C67.0823 45.2813 66.9678 45.2327 66.8669 45.1611C66.7775 45.0978 66.7056 45.0113 66.6584 44.9102C66.6131 44.8108 66.5958 44.6999 66.6086 44.5907L66.9388 44.6576C66.9314 44.7443 66.9545 44.831 67.0041 44.9013C67.0319 44.94 67.0668 44.9725 67.1068 44.9971C67.1467 45.0217 67.191 45.0379 67.237 45.0447C67.276 45.0553 67.3168 45.0577 67.3567 45.0517C67.3966 45.0459 67.4351 45.0316 67.4697 45.0101C67.5001 44.9889 67.5262 44.9614 67.546 44.9291C67.5658 44.897 67.579 44.8609 67.5847 44.8232C67.5991 44.7598 67.5905 44.6932 67.5608 44.6359C67.5309 44.5817 67.4898 44.535 67.4404 44.4992C67.3893 44.4617 67.3183 44.4161 67.2272 44.3627C67.1333 44.311 67.0435 44.2519 66.9584 44.1856C66.8899 44.13 66.8356 44.0579 66.7998 43.9756C66.7603 43.8771 66.7522 43.7681 66.7766 43.6644C66.7932 43.5646 66.8378 43.4721 66.9051 43.3986C66.9737 43.3263 67.0611 43.2766 67.1566 43.2553C67.2676 43.2301 67.3826 43.23 67.4937 43.255C67.6886 43.2943 67.8341 43.3743 67.9304 43.495C67.9776 43.5531 68.0128 43.6203 68.0342 43.6928C68.0556 43.7654 68.0627 43.8417 68.0549 43.9172L67.7221 43.8498C67.7237 43.7732 67.7007 43.6981 67.6567 43.6366C67.6048 43.5679 67.5291 43.5227 67.4458 43.5109C67.3713 43.4917 67.2927 43.5013 67.2245 43.5376C67.1931 43.5569 67.1665 43.5833 67.1464 43.6149C67.1264 43.6466 67.1135 43.6825 67.1089 43.72C67.0953 43.7803 67.1034 43.8438 67.1316 43.8983C67.1606 43.9508 67.2006 43.9959 67.2488 44.0299C67.2991 44.0664 67.3689 44.1111 67.4582 44.1642C67.5539 44.2163 67.6456 44.2763 67.7321 44.3437C67.802 44.4007 67.8576 44.4745 67.894 44.5588C67.9339 44.6603 67.942 44.7723 67.9169 44.8788C67.8997 44.9739 67.8589 45.0628 67.7984 45.1364Z" fill="#DBD5D5"/>
<path d="M69.7843 44.0693L69.6124 45.6379L69.2974 45.6005L69.3348 45.259C69.2879 45.3658 69.2068 45.4525 69.1054 45.5043C68.9992 45.5574 68.8803 45.5769 68.7635 45.5605C68.6848 45.5547 68.6082 45.5315 68.5387 45.4925C68.4692 45.4535 68.4087 45.3994 68.361 45.334C68.268 45.2038 68.2334 45.0297 68.2573 44.8114L68.3572 43.9004L68.6695 43.9374L68.5733 44.8142C68.5578 44.9565 68.5805 45.0702 68.6414 45.1553C68.6741 45.1987 68.7152 45.2345 68.7621 45.2602C68.809 45.2859 68.8607 45.3009 68.9137 45.3043C68.9689 45.3133 69.0254 45.31 69.0792 45.2945C69.133 45.279 69.1831 45.2517 69.226 45.2144C69.3099 45.1397 69.3607 45.0226 69.3783 44.8633L69.4693 44.0321L69.7843 44.0693Z" fill="#DBD5D5"/>
<path d="M71.2925 44.2737C71.419 44.3882 71.4997 44.5477 71.5187 44.721L71.1853 44.7101C71.1736 44.6171 71.1283 44.5322 71.0588 44.4724C70.9836 44.4115 70.8908 44.3786 70.7955 44.3792C70.7388 44.3759 70.682 44.3852 70.6291 44.4064C70.5762 44.4276 70.5282 44.4604 70.4883 44.5023C70.4047 44.5885 70.3604 44.7174 70.3551 44.8893C70.3499 45.0611 70.3863 45.1932 70.4645 45.2856C70.5015 45.3305 70.5473 45.3666 70.5989 45.3916C70.6505 45.4164 70.7066 45.4296 70.7634 45.4301C70.8588 45.4369 70.9535 45.4096 71.032 45.353C71.105 45.2971 71.1553 45.2149 71.1728 45.1225L71.5062 45.1334C71.4765 45.3055 71.3862 45.4599 71.253 45.5666C71.1106 45.6745 70.9361 45.7266 70.7603 45.7138C70.6244 45.7121 70.4912 45.6742 70.3734 45.6036C70.2624 45.5352 70.173 45.4346 70.1161 45.3143C70.0567 45.178 70.0282 45.0295 70.0327 44.8801C70.0372 44.7307 70.0748 44.5843 70.1422 44.4523C70.2064 44.3359 70.3018 44.2416 70.4167 44.1805C70.5385 44.1177 70.6738 44.0886 70.8095 44.0958C70.9855 44.0946 71.1565 44.1575 71.2925 44.2737Z" fill="#DBD5D5"/>
<path d="M72.9823 44.2171C73.1173 44.3207 73.2102 44.473 73.2425 44.6442L72.9093 44.6612C72.8905 44.5694 72.8388 44.4885 72.7649 44.4347C72.6852 44.3803 72.5902 44.3552 72.4951 44.3637C72.4384 44.3652 72.3826 44.3792 72.3315 44.4048C72.2803 44.4303 72.235 44.467 72.1985 44.5122C72.1218 44.6049 72.0875 44.7373 72.0957 44.9089C72.1038 45.0806 72.1503 45.2093 72.2353 45.2948C72.2757 45.3364 72.3241 45.3687 72.3775 45.3892C72.4308 45.4097 72.4878 45.4182 72.5445 45.414C72.6401 45.4128 72.7325 45.3777 72.8062 45.3146C72.8746 45.2529 72.9184 45.1667 72.9287 45.0732L73.2619 45.0562C73.2456 45.2302 73.1676 45.3916 73.0431 45.5091C72.9094 45.6285 72.7396 45.6951 72.5634 45.697C72.4277 45.7067 72.2919 45.68 72.1691 45.6194C72.0532 45.5605 71.9563 45.4677 71.8902 45.3524C71.8205 45.2217 71.7806 45.0761 71.7736 44.9267C71.7666 44.7774 71.7926 44.6284 71.8497 44.4912C71.9047 44.3699 71.9924 44.2677 72.1023 44.1972C72.2188 44.1246 72.3514 44.0842 72.4873 44.0801C72.6626 44.0641 72.8379 44.1127 72.9823 44.2171Z" fill="#DBD5D5"/>
<path d="M74.9861 44.6929L73.827 44.8498C73.8526 45.0101 73.9104 45.1236 74.0004 45.1904C74.091 45.2574 74.2032 45.2848 74.3129 45.2665C74.4075 45.2569 74.4965 45.2154 74.5665 45.1483C74.6301 45.0869 74.6679 45.0018 74.6716 44.9117L75.0051 44.8666C75.0001 44.9769 74.9689 45.0843 74.9144 45.1792C74.8598 45.274 74.7836 45.3533 74.6924 45.4102C74.591 45.4742 74.4776 45.5147 74.3597 45.5289C74.2254 45.55 74.088 45.5347 73.9608 45.4847C73.8407 45.4356 73.7369 45.3513 73.6621 45.242C73.5824 45.1175 73.5314 44.9757 73.5128 44.8275C73.4942 44.6791 73.5086 44.5284 73.5548 44.3869C73.6002 44.2614 73.6798 44.1522 73.7837 44.0727C73.8956 43.9932 74.0239 43.9422 74.1582 43.9237C74.2926 43.9053 74.4293 43.9199 74.5572 43.9664C74.6718 44.0122 74.7713 44.0909 74.8442 44.1935C74.9429 44.3393 74.9928 44.5147 74.9861 44.6929ZM74.5813 44.336C74.5384 44.2743 74.4782 44.228 74.4089 44.2033C74.3388 44.1788 74.2642 44.1716 74.1909 44.1823C74.0777 44.1939 73.9732 44.2506 73.8993 44.3403C73.827 44.4291 73.7967 44.5496 73.8085 44.7022L74.6641 44.5862C74.6593 44.4964 74.6307 44.4098 74.5813 44.336Z" fill="#DBD5D5"/>
<path d="M76.7034 44.3246L75.5603 44.5786C75.5984 44.7361 75.6649 44.8445 75.7597 44.9035C75.8551 44.9626 75.9691 44.9804 76.0771 44.953C76.1706 44.9354 76.2561 44.8866 76.3206 44.8141C76.3793 44.7475 76.4103 44.6595 76.407 44.5693L76.7358 44.4962C76.7394 44.6066 76.7167 44.7163 76.6698 44.8154C76.6228 44.9145 76.5529 45 76.4665 45.0644C76.3704 45.1367 76.2605 45.1866 76.1441 45.2106C76.0118 45.2429 75.8736 45.2393 75.743 45.2001C75.6196 45.1612 75.5095 45.0859 75.4265 44.9833C75.3374 44.8659 75.2754 44.7288 75.2454 44.5825C75.2153 44.4363 75.2179 44.285 75.253 44.1399C75.2886 44.011 75.3593 43.8955 75.4567 43.8075C75.562 43.719 75.6859 43.6572 75.8185 43.6276C75.9509 43.5979 76.0883 43.601 76.2194 43.6367C76.3371 43.6726 76.4425 43.7428 76.5232 43.8388C76.6328 43.9759 76.6962 44.1466 76.7034 44.3246ZM76.2722 44.003C76.2247 43.9452 76.161 43.9041 76.0901 43.8853C76.0183 43.8667 75.9434 43.8658 75.8711 43.8826C75.7592 43.9036 75.6596 43.9688 75.5927 44.0645C75.5277 44.1591 75.5068 44.2819 75.5304 44.4329L76.3742 44.2455C76.3624 44.1564 76.3272 44.0724 76.2722 44.003Z" fill="#DBD5D5"/>
<path d="M77.7551 43.2069C77.8656 43.2432 77.9616 43.316 78.0288 43.414L77.7751 42.5449L78.0784 42.4492L78.6708 44.478L78.3673 44.5737L78.2649 44.2227C78.2615 44.3431 78.2205 44.459 78.1482 44.553C78.0688 44.654 77.9611 44.7268 77.84 44.7609C77.7216 44.8006 77.5947 44.8054 77.4739 44.7746C77.3538 44.7423 77.2455 44.6746 77.1619 44.5795C77.0683 44.4672 76.9986 44.3357 76.9571 44.1935C76.9155 44.0514 76.9032 43.9017 76.921 43.7543C76.9397 43.627 76.9936 43.5081 77.076 43.412C77.1602 43.3166 77.2681 43.2474 77.3878 43.2119C77.5067 43.1705 77.6352 43.1687 77.7551 43.2069ZM77.2785 43.691C77.2243 43.805 77.2199 43.9396 77.2653 44.0948C77.3106 44.2503 77.3863 44.3596 77.4922 44.4231C77.5465 44.4546 77.6066 44.4738 77.6686 44.4793C77.7305 44.4848 77.7929 44.4765 77.8515 44.455C77.9315 44.4312 78.0038 44.3851 78.0604 44.3218C78.1155 44.2589 78.1527 44.1813 78.1679 44.0978C78.1822 44.0039 78.1758 43.9078 78.1493 43.8169C78.1228 43.726 78.0767 43.6425 78.0145 43.5728C77.9575 43.5112 77.8849 43.4678 77.8051 43.4471C77.7241 43.4271 77.6394 43.4306 77.5601 43.457C77.4999 43.473 77.4436 43.502 77.395 43.5425C77.3465 43.5828 77.3067 43.6334 77.2785 43.691Z" fill="#DBD5D5"/>
<path d="M79.3766 42.312L79.6067 42.8764L80.2667 42.5858L80.3614 42.8181L79.7014 43.1086L79.9369 43.6863L80.673 43.3622L80.7731 43.6076L79.7476 44.0591L78.9883 42.1966L80.0139 41.7451L80.1128 41.9878L79.3766 42.312Z" fill="#DBD5D5"/>
<path d="M81.5199 42.8496L81.3628 41.5411L81.6627 41.3828L81.8344 43.0628L81.4952 43.2419L80.291 42.1069L80.5909 41.9486L81.5199 42.8496Z" fill="#DBD5D5"/>
<path d="M83.4657 41.2465L82.4677 41.8789C82.5538 42.0145 82.6509 42.0939 82.7592 42.1171C82.8681 42.14 82.9815 42.1176 83.0747 42.0547C83.1574 42.0059 83.2224 41.9306 83.2602 41.8399C83.2943 41.7568 83.2956 41.6632 83.2637 41.5792L83.551 41.3973C83.5895 41.5002 83.6029 41.6114 83.5901 41.7212C83.5773 41.8308 83.5387 41.9356 83.4775 42.0259C83.4099 42.1272 83.322 42.2121 83.2198 42.2748C83.1052 42.3507 82.9738 42.3948 82.8381 42.4027C82.7091 42.4085 82.5813 42.3752 82.4703 42.3069C82.3488 42.2267 82.2467 42.1186 82.1718 41.991C82.097 41.8633 82.0512 41.7195 82.0383 41.5706C82.0307 41.4367 82.0607 41.3035 82.1246 41.187C82.1959 41.0672 82.2932 40.9664 82.4088 40.8928C82.5243 40.8193 82.6549 40.7751 82.7901 40.7636C82.9126 40.757 83.0344 40.7869 83.141 40.85C83.2882 40.9417 83.4021 41.081 83.4657 41.2465ZM82.9564 41.0912C82.8931 41.0528 82.8199 41.0358 82.7471 41.0425C82.6733 41.0498 82.6023 41.0746 82.5395 41.1153C82.4407 41.1737 82.3674 41.2695 82.3347 41.3827C82.3034 41.4943 82.3228 41.6174 82.3931 41.7518L83.1299 41.2849C83.0904 41.2048 83.0303 41.1378 82.9564 41.0912Z" fill="#DBD5D5"/>
<path d="M83.7484 40.0726C83.7961 39.9625 83.8724 39.8684 83.9688 39.8008L84.1657 40.0913L84.0891 40.1474C83.9883 40.2137 83.9128 40.3141 83.8754 40.4317C83.8457 40.5388 83.8752 40.6579 83.9642 40.7891L84.4071 41.4425L84.1503 41.6305L83.2754 40.3401L83.5323 40.1519L83.7037 40.4049C83.6884 40.2919 83.7039 40.1768 83.7484 40.0726Z" fill="#DBD5D5"/>
<path d="M84.2953 39.5748L85.3498 40.1823L84.9784 39.0035L85.2512 38.7754L85.9413 41.1881L85.6685 41.4163L85.4487 40.5887L84.0205 39.8046L84.2953 39.5748Z" fill="#DBD5D5"/>
<path d="M86.9154 37.1191L87.6715 38.5567L87.4224 38.8083L86.335 38.2046L86.8807 39.3554L86.6336 39.605L85.2725 38.7784L85.4998 38.5487L86.5643 39.2555L85.9802 38.0635L86.2175 37.8239L87.3512 38.4607L86.7019 37.3347L86.9154 37.1191Z" fill="#DBD5D5"/>
<path d="M87.9598 36.0514C88.1157 36.0433 88.2743 36.1103 88.4357 36.252L89.1114 36.846L88.9085 37.0952L88.258 36.5236C88.1751 36.4408 88.0643 36.3946 87.9493 36.3949C87.8964 36.3989 87.845 36.4147 87.7984 36.441C87.7517 36.4673 87.711 36.5036 87.6789 36.5475C87.6411 36.5901 87.6123 36.6404 87.5947 36.6955C87.5771 36.7504 87.5708 36.8087 87.5764 36.8663C87.5889 36.9798 87.6539 37.0884 87.7719 37.1919L88.3887 37.734L88.1857 37.9835L86.6279 36.6144L86.8309 36.365L87.4835 36.9385C87.424 36.8368 87.3992 36.7171 87.4131 36.5989C87.4284 36.4783 87.4778 36.365 87.5552 36.2736C87.6035 36.2087 87.6646 36.1553 87.7344 36.1171C87.8042 36.0787 87.8811 36.0563 87.9598 36.0514Z" fill="#DBD5D5"/>
<path d="M89.6391 34.8574L88.9603 35.8465C89.0907 35.9361 89.2101 35.9694 89.3184 35.9465C89.4273 35.9231 89.523 35.8563 89.5849 35.7604C89.6425 35.6818 89.6739 35.5859 89.6743 35.4871C89.6744 35.3968 89.6402 35.3101 89.5791 35.2459L89.7743 34.9613C89.8487 35.0403 89.9032 35.1371 89.9328 35.2432C89.9626 35.3494 89.9666 35.4614 89.9445 35.5695C89.9206 35.6902 89.8718 35.8042 89.8017 35.9034C89.7249 36.0201 89.6207 36.1144 89.4988 36.177C89.3824 36.2349 89.2523 36.2564 89.1243 36.239C88.9824 36.2148 88.8477 36.1571 88.7306 36.0704C88.6134 35.9836 88.5171 35.8699 88.4487 35.7384C88.3912 35.6182 88.3685 35.4834 88.3833 35.3502C88.4034 35.211 88.4548 35.0785 88.5333 34.9637C88.6119 34.8489 88.7152 34.7549 88.8351 34.6893C88.9453 34.6331 89.0687 34.6109 89.1905 34.6254C89.3605 34.6496 89.518 34.7311 89.6391 34.8574ZM89.1119 34.9225C89.0393 34.9132 88.9656 34.9275 88.9011 34.9633C88.836 35 88.7801 35.0519 88.7377 35.115C88.6689 35.209 88.6376 35.327 88.6505 35.4444C88.6638 35.5599 88.7282 35.665 88.8437 35.76L89.3447 35.0299C89.2781 34.9724 89.1975 34.9353 89.1119 34.9225Z" fill="#DBD5D5"/>
<path d="M89.456 33.6632C89.4584 33.5424 89.493 33.4247 89.5561 33.3232L89.8469 33.5101L89.7976 33.5929C89.73 33.6949 89.6985 33.8181 89.7086 33.9416C89.7217 34.0522 89.7939 34.1497 89.9253 34.2339L90.5795 34.6542L90.4143 34.9321L89.1221 34.1021L89.2873 33.8242L89.5406 33.9869C89.4838 33.8893 89.4545 33.7772 89.456 33.6632Z" fill="#DBD5D5"/>
<path d="M91.0695 32.2628L90.5215 33.3359C90.6621 33.4069 90.7846 33.4237 90.8891 33.3862C90.994 33.3482 91.0805 33.2689 91.1298 33.1653C91.177 33.0795 91.196 32.9802 91.1839 32.8821C91.1725 32.7926 91.1277 32.7114 91.059 32.6559L91.2168 32.3473C91.3004 32.4154 91.3666 32.5041 91.4094 32.6051C91.4522 32.7062 91.4704 32.8168 91.4622 32.927C91.4537 33.0499 91.4198 33.1695 91.3627 33.2776C91.3014 33.4037 91.2099 33.5113 91.0971 33.59C90.989 33.6633 90.8628 33.7024 90.7337 33.7026C90.5899 33.698 90.449 33.659 90.322 33.589C90.195 33.5189 90.085 33.4195 90.0007 33.2984C89.9286 33.1871 89.889 33.0566 89.8867 32.9225C89.8892 32.7817 89.9235 32.6434 89.9867 32.5189C90.0501 32.3943 90.1407 32.2871 90.2513 32.2056C90.3534 32.1351 90.4729 32.0962 90.5955 32.0938C90.7671 32.0947 90.9336 32.1541 91.0695 32.2628ZM90.5551 32.3992C90.4819 32.3998 90.4106 32.4239 90.3512 32.4684C90.2914 32.5136 90.2424 32.5727 90.2085 32.6409C90.152 32.7436 90.1359 32.8648 90.1635 32.9795C90.1913 33.0921 90.2685 33.1876 90.3949 33.2659L90.7993 32.4739C90.7261 32.426 90.6416 32.4 90.5551 32.3992Z" fill="#DBD5D5"/>
<path d="M90.1996 30.9541L91.4546 31.5951L91.3449 31.8455L90.0557 31.2827L90.1996 30.9541ZM91.7135 31.661L92.0296 31.8106L91.8811 32.1495L91.565 31.9999L91.7135 31.661Z" fill="#DBD5D5"/>
<path d="M71.3651 40.7424C80.6439 40.7424 88.1659 32.9255 88.1659 23.2828C88.1659 13.6401 80.6439 5.82324 71.3651 5.82324C62.0864 5.82324 54.5645 13.6401 54.5645 23.2828C54.5645 32.9255 62.0864 40.7424 71.3651 40.7424Z" fill="white"/>
<path d="M71.3643 40.8855C67.1785 40.8799 63.1438 39.2589 60.043 36.3368C56.9422 33.4146 54.9963 29.3999 54.5827 25.0712C54.1691 20.7424 55.3173 16.4083 57.8047 12.9097C60.292 9.411 63.9412 6.99711 68.0443 6.13619C72.1473 5.2753 76.4119 6.02883 80.0105 8.2506C83.6092 10.4723 86.2856 14.0038 87.5205 18.1603C88.7555 22.3167 88.4609 26.8016 86.6939 30.7451C84.9268 34.6885 81.8135 37.8093 77.9576 39.5022C75.8717 40.4196 73.6292 40.8902 71.3643 40.8855ZM71.3643 5.96645C62.1763 5.96645 54.7015 13.7344 54.7015 23.2827C54.7015 32.831 62.1763 40.599 71.3643 40.599C80.5523 40.599 88.0271 32.831 88.0271 23.2827C88.0271 13.7344 80.5523 5.96645 71.3643 5.96645Z" fill="white"/>
<mask id="mask0_23_2896" style="mask-type:luminance" maskUnits="userSpaceOnUse" x="59" y="10" width="25" height="25">
<path d="M83.0888 10.2285H59.8564V34.3719H83.0888V10.2285Z" fill="white"/>
</mask>
<g mask="url(#mask0_23_2896)">
<path d="M74.2251 29.8788H68.7219C68.3662 29.8788 68.1012 29.5845 68.1012 29.196V29.03C68.1012 27.6191 67.5386 26.2421 66.5185 25.1481C65.8622 24.4491 65.3514 23.617 65.018 22.7039C64.6844 21.7907 64.5353 20.816 64.58 19.8403C64.7325 16.1698 67.6184 13.1632 71.1468 12.9972C72.5351 12.9294 73.9107 13.2988 75.0935 14.0571C76.2763 14.8154 77.2112 15.9273 77.7758 17.2471C78.3403 18.5668 78.5082 20.033 78.2574 21.4535C78.0067 22.8741 77.3491 24.1829 76.3705 25.2086C75.3868 26.2384 74.8422 27.5512 74.8422 28.9017V29.2375C74.8423 29.3217 74.8264 29.4052 74.7954 29.483C74.7645 29.5609 74.7189 29.6316 74.6616 29.6911C74.6043 29.7507 74.5362 29.7978 74.4614 29.8301C74.3865 29.8623 74.3062 29.8788 74.2251 29.8788ZM71.4772 13.3556C71.3719 13.3556 71.2703 13.3593 71.165 13.3631C67.818 13.5215 65.0846 16.3735 64.9394 19.8517C64.8966 20.7776 65.0379 21.7026 65.3545 22.5691C65.6712 23.4356 66.1564 24.2249 66.7798 24.8879C67.8653 26.0498 68.4606 27.521 68.4606 29.0262V29.1922C68.4606 29.3733 68.5731 29.5053 68.7256 29.5053H74.2287C74.2989 29.5049 74.3661 29.4758 74.4157 29.4242C74.4653 29.3726 74.4933 29.3028 74.4937 29.2299V28.8942C74.4937 27.4456 75.0745 26.0422 76.1237 24.9407C77.0339 23.9878 77.6522 22.7763 77.9006 21.4587C78.1489 20.1411 78.0161 18.7767 77.5191 17.5374C77.0221 16.2981 76.183 15.2396 75.1077 14.4953C74.0324 13.7511 72.7691 13.3545 71.4772 13.3556Z" fill="black"/>
<path d="M73.699 31.0752H69.2485C68.8057 31.0752 68.4463 30.7243 68.4463 30.2905C68.4463 29.8605 68.8057 29.5059 69.2485 29.5059C69.2957 29.5059 69.3409 29.5253 69.3743 29.5599C69.4076 29.5946 69.4263 29.6417 69.4263 29.6906C69.4263 29.7397 69.4076 29.7867 69.3743 29.8213C69.3409 29.856 69.2957 29.8755 69.2485 29.8755C69.0053 29.8755 68.802 30.0604 68.802 30.2867C68.802 30.5131 69.0017 30.6979 69.2485 30.6979H73.699C73.9458 30.6979 74.1455 30.5131 74.1455 30.2867C74.1455 30.0604 73.9458 29.8755 73.699 29.8755C73.6518 29.8755 73.6065 29.856 73.5732 29.8213C73.5398 29.7867 73.5211 29.7397 73.5211 29.6906C73.5211 29.6417 73.5398 29.5946 73.5732 29.5599C73.6065 29.5253 73.6518 29.5059 73.699 29.5059C74.1418 29.5059 74.5012 29.8567 74.5012 30.2905C74.5012 30.7243 74.1418 31.0752 73.699 31.0752Z" fill="black"/>
<path d="M73.699 32.2666H69.2485C68.8057 32.2666 68.4463 31.9157 68.4463 31.482C68.4463 31.0519 68.8057 30.6973 69.2485 30.6973C69.272 30.6972 69.2952 30.7018 69.3168 30.7111C69.3386 30.7203 69.3582 30.7339 69.3749 30.7511C69.3915 30.7683 69.4047 30.7887 69.4137 30.8112C69.4227 30.8337 69.4273 30.8578 69.4273 30.8821C69.4273 30.9065 69.4227 30.9306 69.4137 30.9531C69.4047 30.9756 69.3915 30.996 69.3749 31.0132C69.3582 31.0304 69.3386 31.044 69.3168 31.0532C69.2952 31.0624 69.272 31.0671 69.2485 31.067C69.0053 31.067 68.802 31.2518 68.802 31.4782C68.802 31.7046 69.0017 31.8893 69.2485 31.8893H73.699C73.9458 31.8893 74.1455 31.7045 74.1455 31.4782C74.1455 31.2518 73.9458 31.067 73.699 31.067C73.6755 31.0671 73.6524 31.0624 73.6306 31.0532C73.6089 31.044 73.5892 31.0304 73.5726 31.0132C73.556 30.996 73.5428 30.9756 73.5339 30.9531C73.5248 30.9306 73.5202 30.9065 73.5202 30.8821C73.5202 30.8578 73.5248 30.8337 73.5339 30.8112C73.5428 30.7887 73.556 30.7683 73.5726 30.7511C73.5892 30.7339 73.6089 30.7203 73.6306 30.7111C73.6524 30.7018 73.6755 30.6972 73.699 30.6973C74.1418 30.6973 74.5012 31.0481 74.5012 31.482C74.5012 31.9157 74.1418 32.2666 73.699 32.2666Z" fill="black"/>
<path d="M73.5894 33.3808H69.3568C69.1671 33.3808 68.9852 33.3025 68.8511 33.1632C68.717 33.0238 68.6416 32.8347 68.6416 32.6376C68.6416 32.4405 68.717 32.2515 68.8511 32.1122C68.9852 31.9728 69.1671 31.8945 69.3568 31.8945H73.5894C73.7791 31.8945 73.961 31.9728 74.095 32.1122C74.2292 32.2515 74.3046 32.4405 74.3046 32.6376C74.3046 32.8347 74.2292 33.0238 74.095 33.1632C73.961 33.3025 73.7791 33.3808 73.5894 33.3808ZM69.3568 32.268C69.2624 32.268 69.1719 32.3069 69.1052 32.3763C69.0385 32.4456 69.001 32.5397 69.001 32.6376C69.001 32.7357 69.0385 32.8297 69.1052 32.899C69.1719 32.9684 69.2624 33.0074 69.3568 33.0074H73.5894C73.6838 33.0074 73.7743 32.9684 73.841 32.899C73.9077 32.8297 73.9452 32.7357 73.9452 32.6376C73.9452 32.5397 73.9077 32.4456 73.841 32.3763C73.7743 32.3069 73.6838 32.268 73.5894 32.268H69.3568Z" fill="black"/>
<path d="M71.8266 34.3718H71.126C70.458 34.3718 69.9136 33.8437 69.9136 33.1948C69.9136 33.1458 69.9323 33.0988 69.9656 33.0641C69.999 33.0295 70.0442 33.0099 70.0914 33.0099C70.1386 33.0099 70.1839 33.0295 70.2172 33.0641C70.2506 33.0988 70.2693 33.1458 70.2693 33.1948C70.2693 33.64 70.654 33.9983 71.126 33.9983H71.8266C72.2985 33.9983 72.6833 33.6362 72.6833 33.1948C72.6833 33.1458 72.702 33.0988 72.7354 33.0641C72.7687 33.0295 72.814 33.0099 72.8611 33.0099C72.9084 33.0099 72.9535 33.0295 72.987 33.0641C73.0203 33.0988 73.039 33.1458 73.039 33.1948C73.039 33.8437 72.4945 34.3718 71.8266 34.3718ZM73.1733 29.8789C73.15 29.8789 73.1269 29.8741 73.1052 29.8648C73.0837 29.8555 73.064 29.8419 73.0475 29.8247C73.0311 29.8075 73.0179 29.7872 73.009 29.7647C73 29.7423 72.9955 29.7182 72.9955 29.694V28.0982C72.9955 27.8116 72.8175 27.5814 72.5998 27.5814H70.3492C70.1313 27.5814 69.9535 27.8153 69.9535 28.0982V29.694C69.9535 29.743 69.9348 29.79 69.9014 29.8247C69.8681 29.8593 69.8227 29.8788 69.7756 29.8788C69.7284 29.8788 69.6832 29.8593 69.6498 29.8247C69.6165 29.79 69.5977 29.743 69.5977 29.694V28.0982C69.5977 27.6078 69.9353 27.208 70.3527 27.208H72.6034C73.0172 27.208 73.3584 27.6078 73.3584 28.0982V29.694C73.3567 29.7437 73.3365 29.7909 73.3019 29.8254C73.2673 29.8599 73.2212 29.879 73.1733 29.8789Z" fill="black"/>
<path d="M70.4759 27.5825C70.4354 27.5827 70.3962 27.5686 70.3645 27.5426C70.3328 27.5165 70.3107 27.4801 70.3016 27.4391L69.9967 26.0886C69.9861 26.0406 69.9943 25.9901 70.0195 25.9484C70.0446 25.9067 70.0848 25.8771 70.131 25.866C70.1771 25.855 70.2257 25.8635 70.2659 25.8897C70.306 25.9159 70.3346 25.9576 70.3452 26.0056L70.65 27.3562C70.6553 27.38 70.6561 27.4046 70.6522 27.4286C70.6483 27.4527 70.6399 27.4758 70.6274 27.4964C70.6149 27.5172 70.5987 27.535 70.5794 27.5492C70.5603 27.5633 70.5387 27.5733 70.5158 27.5787C70.5027 27.5817 70.4893 27.583 70.4759 27.5825ZM72.4723 27.5825C72.4589 27.5833 72.4455 27.582 72.4324 27.5787C72.3866 27.567 72.3469 27.5373 72.3218 27.4958C72.2967 27.4541 72.2882 27.4041 72.2982 27.3562L72.603 26.0056C72.6137 25.9577 72.6423 25.9161 72.6824 25.8899C72.7226 25.8639 72.771 25.8552 72.8172 25.866C72.8631 25.8777 72.9027 25.9074 72.9278 25.9491C72.9529 25.9906 72.9613 26.0406 72.9515 26.0886L72.6466 27.4391C72.638 27.4803 72.6159 27.5171 72.5841 27.5432C72.5523 27.5694 72.5129 27.5832 72.4723 27.5825Z" fill="black"/>
</g>
<path d="M64.2814 16.041C64.2494 16.0411 64.2179 16.032 64.1907 16.0146L63.2541 15.4525C63.2336 15.4406 63.2156 15.4245 63.2012 15.4053C63.1867 15.3861 63.1761 15.364 63.1701 15.3404C63.164 15.3169 63.1625 15.2923 63.1657 15.2681C63.1689 15.244 63.1768 15.2207 63.1888 15.1998C63.2124 15.1574 63.2514 15.1265 63.2969 15.1138C63.3425 15.1011 63.391 15.1075 63.4319 15.1319L64.3685 15.694C64.3891 15.7059 64.407 15.7219 64.4214 15.7411C64.4359 15.7603 64.4465 15.7824 64.4525 15.806C64.4586 15.8295 64.4601 15.8542 64.4568 15.8783C64.4537 15.9025 64.4458 15.9258 64.4338 15.9467C64.4192 15.9755 64.3973 15.9995 64.3704 16.0161C64.3435 16.0328 64.3127 16.0414 64.2814 16.041Z" fill="#FFD700"/>
<path d="M63.1715 20.353H62.0862C62.0389 20.353 61.9937 20.3336 61.9603 20.2989C61.927 20.2643 61.9082 20.2173 61.9082 20.1682C61.9082 20.1192 61.927 20.0722 61.9603 20.0375C61.9937 20.0029 62.0389 19.9834 62.0862 19.9834H63.1679C63.215 19.9834 63.2602 20.003 63.2936 20.0376C63.3269 20.0723 63.3457 20.1192 63.3457 20.1682C63.3465 20.1924 63.3424 20.2164 63.3339 20.2389C63.3255 20.2614 63.3127 20.2819 63.2964 20.2991C63.2802 20.3164 63.2607 20.33 63.2393 20.3393C63.2178 20.3486 63.1948 20.3533 63.1715 20.353Z" fill="#FFD700"/>
<path d="M67.3208 12.8804C67.289 12.8804 67.2578 12.8716 67.2305 12.8551C67.203 12.8385 67.1803 12.8146 67.1646 12.7861L66.6274 11.8127C66.6156 11.7917 66.6081 11.7685 66.605 11.7444C66.602 11.7203 66.6035 11.6957 66.6096 11.6723C66.6156 11.6488 66.6261 11.6268 66.6404 11.6075C66.6547 11.5883 66.6724 11.5721 66.6927 11.56C66.7129 11.5477 66.7353 11.5399 66.7584 11.5367C66.7817 11.5336 66.8053 11.5352 66.8279 11.5416C66.8505 11.5478 66.8716 11.5588 66.8901 11.5736C66.9087 11.5884 66.9243 11.6069 66.936 11.628L67.4768 12.6012C67.489 12.6221 67.497 12.6454 67.5003 12.6695C67.5037 12.6938 67.5023 12.7185 67.4961 12.7421C67.4901 12.7658 67.4794 12.7878 67.4649 12.8071C67.4503 12.8263 67.4321 12.8422 67.4115 12.854C67.3843 12.8718 67.3528 12.881 67.3208 12.8804Z" fill="#FFD700"/>
<path d="M71.4728 11.7261C71.4494 11.7261 71.4263 11.7214 71.4047 11.7121C71.383 11.7028 71.3635 11.6892 71.3469 11.6721C71.3305 11.6549 71.3173 11.6344 71.3084 11.6121C71.2995 11.5896 71.2948 11.5656 71.2949 11.5414V10.4134C71.2949 10.3643 71.3136 10.3173 71.3469 10.2827C71.3803 10.248 71.4255 10.2285 71.4728 10.2285C71.5199 10.2285 71.5652 10.248 71.5985 10.2827C71.6319 10.3173 71.6506 10.3643 71.6506 10.4134V11.5376C71.6509 11.5621 71.6466 11.5864 71.6379 11.6093C71.629 11.6321 71.616 11.6528 71.5995 11.6703C71.5829 11.6879 71.5633 11.7018 71.5415 11.7114C71.5197 11.721 71.4963 11.726 71.4728 11.7261Z" fill="#FFD700"/>
<path d="M78.6637 16.0414C78.6321 16.0414 78.6009 16.0326 78.5735 16.0161C78.5461 15.9994 78.5234 15.9756 78.5077 15.947C78.4955 15.9261 78.4875 15.9029 78.4842 15.8786C78.4808 15.8544 78.4823 15.8298 78.4884 15.8061C78.4945 15.7825 78.5051 15.7605 78.5197 15.7412C78.5342 15.722 78.5524 15.706 78.573 15.6943L79.5096 15.1322C79.5299 15.12 79.5522 15.1122 79.5754 15.109C79.5986 15.1058 79.6222 15.1075 79.6447 15.1137C79.6673 15.1201 79.6885 15.1309 79.7071 15.1457C79.7255 15.1605 79.7411 15.179 79.7528 15.2001C79.7645 15.2211 79.772 15.2443 79.7751 15.2684C79.7781 15.2926 79.7766 15.3171 79.7705 15.3406C79.7645 15.364 79.754 15.386 79.7397 15.4052C79.7254 15.4246 79.7077 15.4407 79.6875 15.4529L78.7509 16.015C78.7244 16.0311 78.6945 16.0402 78.6637 16.0414Z" fill="#FFD700"/>
<path d="M80.8612 20.353H79.7794C79.7323 20.353 79.687 20.3336 79.6537 20.2989C79.6203 20.2643 79.6016 20.2173 79.6016 20.1682C79.6016 20.1192 79.6203 20.0722 79.6537 20.0375C79.687 20.0029 79.7323 19.9834 79.7794 19.9834H80.8612C80.9084 19.9834 80.9535 20.0029 80.9869 20.0375C81.0202 20.0722 81.0391 20.1192 81.0391 20.1682C81.0391 20.2173 81.0202 20.2643 80.9869 20.2989C80.9535 20.3336 80.9084 20.353 80.8612 20.353Z" fill="#FFD700"/>
<path d="M75.625 12.8809C75.593 12.881 75.5617 12.8719 75.5343 12.8545C75.5139 12.8426 75.4958 12.8265 75.4815 12.8073C75.467 12.788 75.4564 12.766 75.4503 12.7424C75.4443 12.7189 75.4428 12.6943 75.446 12.6702C75.4491 12.646 75.457 12.6227 75.469 12.6017L76.0099 11.6285C76.0336 11.5861 76.0725 11.5552 76.118 11.5425C76.1636 11.5298 76.2121 11.5363 76.2531 11.5606C76.2736 11.5725 76.2916 11.5885 76.306 11.6077C76.3204 11.627 76.331 11.649 76.3371 11.6726C76.3431 11.6962 76.3447 11.7207 76.3414 11.7449C76.3383 11.769 76.3304 11.7924 76.3184 11.8132L75.7776 12.7866C75.7632 12.8156 75.7414 12.8398 75.7143 12.8566C75.6874 12.8732 75.6565 12.8816 75.625 12.8809Z" fill="#FFD700"/>
<path d="M70.042 26.2347C69.8317 26.2344 69.6255 26.1747 69.4454 26.0619C69.2654 25.9492 69.1181 25.7875 69.0197 25.5945C68.9212 25.4014 68.8752 25.1842 68.8864 24.9661C68.8977 24.7479 68.9658 24.537 69.0836 24.356C69.1104 24.316 69.1513 24.2883 69.1974 24.2792C69.2435 24.27 69.2913 24.28 69.3305 24.307C69.3499 24.3205 69.3666 24.3378 69.3794 24.3581C69.3924 24.3783 69.4013 24.4011 69.4057 24.4249C69.4101 24.4488 69.4099 24.4734 69.4051 24.4972C69.4002 24.5209 69.3909 24.5434 69.3776 24.5634C69.2872 24.6999 69.2391 24.8618 69.2396 25.0275C69.2394 25.1371 69.26 25.2458 69.3002 25.3472C69.3404 25.4486 69.3994 25.5407 69.474 25.6183C69.5485 25.6959 69.6371 25.7576 69.7345 25.7995C69.8319 25.8416 69.9364 25.8632 70.042 25.8632C70.1475 25.8632 70.2519 25.8416 70.3493 25.7995C70.4469 25.7576 70.5354 25.6959 70.6099 25.6183C70.6844 25.5407 70.7434 25.4486 70.7836 25.3472C70.8238 25.2458 70.8444 25.1371 70.8442 25.0275V15.4229C70.8439 15.3397 70.8246 15.2576 70.788 15.1837C70.7513 15.1096 70.6983 15.0456 70.6334 14.9969C70.5684 14.9482 70.4932 14.9162 70.4141 14.9033C70.335 14.8906 70.254 14.8975 70.1779 14.9235C70.1018 14.9494 70.0327 14.9937 69.9761 15.0528C69.9196 15.1118 69.8773 15.1838 69.8528 15.263C69.8282 15.3423 69.8219 15.4264 69.8347 15.5087C69.8474 15.5908 69.8786 15.6688 69.9257 15.736C69.9503 15.7762 69.9591 15.8245 69.9506 15.8712C69.942 15.9179 69.9165 15.9594 69.8796 15.9873C69.8425 16.0152 69.7967 16.0274 69.7512 16.0214C69.7059 16.0153 69.6644 15.9915 69.6353 15.9549C69.5546 15.8398 69.5012 15.7066 69.4794 15.5661C69.4577 15.4255 69.4683 15.2816 69.5104 15.1461C69.5524 15.0106 69.6249 14.8874 69.7215 14.7866C69.8183 14.6857 69.9366 14.6101 70.0668 14.566C70.197 14.5218 70.3355 14.5103 70.4709 14.5324C70.6061 14.5546 70.7346 14.6097 70.8454 14.6933C70.9563 14.7768 71.0466 14.8866 71.1088 15.0134C71.1711 15.1402 71.2036 15.2806 71.2036 15.4229V25.0313C71.2019 25.3505 71.0789 25.6563 70.8613 25.8817C70.6437 26.1071 70.3492 26.2339 70.042 26.2347Z" fill="#989898"/>
<path d="M72.903 26.2347C72.596 26.2345 72.3016 26.1076 72.0845 25.882C71.8674 25.6564 71.7453 25.3504 71.7451 25.0314V15.4229C71.7451 15.2806 71.7775 15.1402 71.8398 15.0134C71.9021 14.8866 71.9924 14.7768 72.1032 14.6933C72.2141 14.6097 72.3424 14.5546 72.4778 14.5324C72.6132 14.5103 72.7517 14.5218 72.8818 14.566C73.0121 14.6101 73.1304 14.6857 73.2272 14.7866C73.3238 14.8874 73.3962 15.0106 73.4383 15.1462C73.4804 15.2816 73.491 15.4255 73.4692 15.5661C73.4475 15.7067 73.3941 15.8399 73.3132 15.9549C73.2841 15.9916 73.2427 16.0154 73.1973 16.0214C73.152 16.0274 73.1061 16.0153 73.0691 15.9873C73.032 15.9594 73.0067 15.9179 72.9981 15.8712C72.9895 15.8246 72.9984 15.7763 73.0228 15.736C73.0704 15.6688 73.102 15.5907 73.1149 15.5084C73.1278 15.426 73.1217 15.3415 73.0972 15.262C73.0727 15.1825 73.0304 15.1102 72.9737 15.0509C72.9172 14.9917 72.8479 14.9472 72.7715 14.9212C72.6951 14.8951 72.6139 14.8883 72.5346 14.9012C72.4552 14.914 72.3799 14.9463 72.3148 14.9952C72.2497 15.0442 72.1967 15.1084 72.1602 15.1828C72.1236 15.2572 72.1045 15.3395 72.1045 15.4229V25.0314C72.1042 25.141 72.1248 25.2496 72.1649 25.351C72.2051 25.4524 72.2643 25.5445 72.3388 25.6221C72.4133 25.6997 72.5018 25.7614 72.5992 25.8034C72.6967 25.8454 72.8012 25.867 72.9067 25.867C73.0122 25.867 73.1167 25.8454 73.2142 25.8034C73.3116 25.7614 73.4001 25.6997 73.4746 25.6221C73.5491 25.5445 73.6083 25.4524 73.6485 25.351C73.6886 25.2496 73.7092 25.141 73.7089 25.0314C73.7096 24.8656 73.6615 24.7038 73.571 24.5673C73.5446 24.5268 73.5346 24.4771 73.5435 24.4289C73.5524 24.3808 73.5792 24.3383 73.6182 24.3108C73.6572 24.2833 73.7051 24.273 73.7514 24.2822C73.7977 24.2914 73.8385 24.3193 73.865 24.3599C73.9833 24.5407 74.0518 24.7519 74.063 24.9703C74.0742 25.1887 74.0279 25.4062 73.9288 25.5992C73.8298 25.7922 73.6819 25.9534 73.5011 26.0654C73.3204 26.1774 73.1135 26.236 72.903 26.2347Z" fill="#989898"/>
<path d="M74.3844 25.3371C74.1862 25.337 73.9905 25.2919 73.8108 25.2051C73.7892 25.1951 73.7698 25.1809 73.7536 25.163C73.7374 25.1452 73.7248 25.1242 73.7164 25.1013C73.7082 25.0784 73.7043 25.054 73.7052 25.0295C73.706 25.0051 73.7115 24.981 73.7213 24.9588C73.7313 24.9365 73.7452 24.9165 73.7626 24.9C73.78 24.8833 73.8003 24.8706 73.8225 24.8622C73.8447 24.8539 73.8682 24.8502 73.8917 24.8514C73.9153 24.8526 73.9384 24.8588 73.9596 24.8693C74.0834 24.9286 74.2174 24.9613 74.3537 24.9654C74.49 24.9695 74.6256 24.9449 74.7525 24.8933C74.8794 24.8416 74.995 24.7639 75.0923 24.6646C75.1896 24.5654 75.2666 24.4468 75.3187 24.3158C75.3708 24.185 75.3969 24.0445 75.3955 23.9028C75.3941 23.7612 75.3651 23.6213 75.3104 23.4916C75.2557 23.3618 75.1763 23.2449 75.0771 23.1477C74.9778 23.0507 74.8607 22.9754 74.7328 22.9265C74.7106 22.9185 74.6901 22.906 74.6727 22.8896C74.6552 22.8731 74.6411 22.8532 74.6313 22.8311C74.6215 22.8088 74.6161 22.7848 74.6154 22.7604C74.6148 22.7359 74.6189 22.7116 74.6275 22.6888C74.6354 22.6659 74.6476 22.6448 74.6635 22.6269C74.6793 22.6089 74.6985 22.5943 74.7198 22.5841C74.741 22.574 74.7641 22.5683 74.7875 22.5675C74.811 22.5666 74.8344 22.5707 74.8563 22.5795C75.1581 22.6946 75.4111 22.9165 75.5713 23.2061C75.7314 23.4958 75.7884 23.8348 75.732 24.1637C75.6758 24.4926 75.5099 24.7905 75.2635 25.005C75.0171 25.2196 74.7058 25.3371 74.3844 25.3371Z" fill="#989898"/>
<path d="M74.9728 22.2459C74.6425 22.2453 74.3171 22.1634 74.0231 22.0068C73.7292 21.8504 73.4751 21.6237 73.2817 21.3454C73.0883 21.0671 72.9611 20.7452 72.9105 20.406C72.86 20.0668 72.8875 19.72 72.9907 19.394C73.0056 19.3474 73.0378 19.309 73.08 19.2871C73.1222 19.2652 73.1711 19.2616 73.2158 19.277C73.2606 19.2925 73.2976 19.3259 73.3187 19.3698C73.3398 19.4136 73.3433 19.4644 73.3284 19.5109C73.2402 19.7888 73.2184 20.0848 73.2649 20.3733C73.3114 20.6618 73.4247 20.9343 73.5952 21.1671C73.7656 21.4 73.9881 21.5862 74.2432 21.7097C74.4984 21.8333 74.7787 21.8904 75.0599 21.8762C75.0836 21.8746 75.1073 21.878 75.1298 21.8861C75.1522 21.8942 75.1728 21.9068 75.1904 21.9234C75.208 21.9399 75.2222 21.9599 75.2323 21.9823C75.2422 22.0047 75.2479 22.0289 75.2487 22.0536C75.2507 22.103 75.2339 22.1512 75.202 22.1879C75.1701 22.2246 75.1256 22.2468 75.0781 22.2497C75.0431 22.2465 75.0079 22.2452 74.9728 22.2459ZM75.3975 23.4493C75.3586 23.4498 75.3206 23.4367 75.2897 23.412C75.2587 23.3874 75.2366 23.3528 75.2269 23.3135C75.2148 23.2661 75.2209 23.2155 75.2439 23.1725C75.2669 23.1296 75.305 23.0977 75.3503 23.0835C75.578 23.0168 75.7844 22.8881 75.9484 22.7109C76.1123 22.5336 76.2278 22.3141 76.283 22.0751C76.338 21.836 76.3307 21.586 76.2619 21.3507C76.1931 21.1155 76.0651 20.9036 75.8911 20.737C75.8736 20.7205 75.8595 20.7005 75.8494 20.6782C75.8394 20.6558 75.8336 20.6317 75.8325 20.6072C75.8315 20.5825 75.8351 20.558 75.8431 20.5349C75.8512 20.5117 75.8637 20.4905 75.8797 20.4724C75.8957 20.4542 75.915 20.4396 75.9365 20.4292C75.958 20.4188 75.9812 20.413 76.0049 20.412C76.0286 20.411 76.0522 20.4148 76.0744 20.4234C76.0967 20.4319 76.117 20.4449 76.1344 20.4617C76.3554 20.6728 76.518 20.9416 76.6056 21.24C76.6931 21.5385 76.7024 21.8558 76.6325 22.1593C76.5626 22.4627 76.4159 22.7412 76.2078 22.966C75.9996 23.1908 75.7374 23.3537 75.4483 23.4381C75.4323 23.4454 75.415 23.4492 75.3975 23.4493ZM74.0217 24.1963C73.7889 24.1911 73.5613 24.1245 73.3602 24.0028C73.159 23.8809 72.9909 23.7079 72.8719 23.5C72.7528 23.2921 72.6865 23.0562 72.6794 22.8144C72.6722 22.5725 72.7244 22.3328 72.831 22.1177C72.8528 22.0744 72.8902 22.0418 72.9351 22.0271C72.9799 22.0123 73.0286 22.0166 73.0703 22.0391C73.1121 22.0616 73.1436 22.1003 73.158 22.1469C73.1723 22.1933 73.1684 22.2439 73.1468 22.2874C73.0715 22.4379 73.0321 22.605 73.0322 22.7747C73.0324 22.9443 73.0718 23.1114 73.1474 23.2617C73.223 23.4121 73.3323 23.5413 73.4662 23.6383C73.6001 23.7354 73.7546 23.7973 73.9164 23.8191C73.96 23.8229 74.0036 23.8266 74.0434 23.8266C74.0671 23.8244 74.0909 23.8273 74.1134 23.8353C74.1358 23.8432 74.1564 23.8559 74.1738 23.8726C74.1913 23.8893 74.2052 23.9097 74.2146 23.9323C74.224 23.9549 74.2289 23.9793 74.2287 24.004C74.2305 24.0529 74.2135 24.1007 74.1815 24.1367C74.1496 24.1728 74.1052 24.1942 74.058 24.1963H74.0217Z" fill="#989898"/>
<path d="M74.0026 20.7863H73.9953C73.9482 20.7843 73.9038 20.7629 73.8718 20.7269C73.8398 20.6907 73.8228 20.643 73.8247 20.594C73.8266 20.533 73.8339 20.4725 73.8465 20.4129C73.9409 19.9413 74.3329 19.598 74.8267 19.5603C74.8737 19.5571 74.9201 19.5729 74.956 19.6046C74.992 19.6363 75.0146 19.6813 75.019 19.73C75.0228 19.7791 75.0076 19.8277 74.977 19.8651C74.9464 19.9026 74.9028 19.9259 74.8556 19.93C74.5253 19.9564 74.2603 20.1827 74.1986 20.4921C74.1914 20.5335 74.1877 20.5751 74.1841 20.6128C74.1815 20.6606 74.1611 20.7055 74.1273 20.7379C74.0933 20.7702 74.0487 20.7876 74.0026 20.7863ZM72.6087 21.9105H72.6014C72.5543 21.9085 72.5097 21.887 72.4778 21.851C72.4458 21.8149 72.4289 21.7671 72.4308 21.7182C72.4327 21.6572 72.4399 21.5966 72.4525 21.5371C72.4927 21.3454 72.5826 21.1687 72.7125 21.0264C72.8424 20.8841 73.0074 20.7815 73.1895 20.7298C73.2346 20.7157 73.2834 20.721 73.325 20.7444C73.3666 20.7677 73.3974 20.8072 73.4109 20.8542C73.4244 20.9012 73.4193 20.952 73.3968 20.9951C73.3743 21.0382 73.3364 21.0703 73.2911 21.0844C73.171 21.117 73.0619 21.1838 72.976 21.2771C72.8902 21.3703 72.8308 21.4864 72.8047 21.6125C72.7967 21.6522 72.7918 21.6927 72.7902 21.7332C72.7872 21.7812 72.7667 21.8262 72.7331 21.8592C72.6994 21.892 72.6549 21.9104 72.6087 21.9105ZM75.5708 20.975C75.5288 20.9751 75.488 20.9596 75.456 20.9312C75.4241 20.9029 75.4029 20.8635 75.3965 20.8203C75.3887 20.7718 75.3997 20.7221 75.4268 20.6819C75.4539 20.6417 75.4952 20.6142 75.5417 20.6052C75.7342 20.5707 75.9114 20.4745 76.0486 20.3301C76.1858 20.1856 76.276 20.0003 76.3069 19.8C76.3377 19.5995 76.3074 19.3942 76.2204 19.2126C76.1332 19.031 75.9938 18.8821 75.8212 18.7869C75.7817 18.7622 75.753 18.7225 75.7409 18.6762C75.7287 18.63 75.7342 18.5806 75.7561 18.5384C75.7781 18.4962 75.8147 18.4644 75.8586 18.4496C75.9025 18.4347 75.9503 18.4381 75.9919 18.4588C76.2301 18.5905 76.4226 18.7964 76.5428 19.0474C76.6628 19.2985 76.7044 19.5824 76.6616 19.8592C76.6188 20.1361 76.4938 20.3921 76.304 20.5915C76.1143 20.7909 75.8693 20.9236 75.6035 20.9712C75.5925 20.9712 75.5816 20.975 75.5708 20.975Z" fill="#989898"/>
<path d="M75.5316 19.3235C75.5053 19.3235 75.4792 19.3173 75.4554 19.3056C75.4315 19.2939 75.4104 19.2768 75.3937 19.2556C75.3643 19.2177 75.3501 19.1694 75.3542 19.1209C75.3582 19.0724 75.3803 19.0274 75.4155 18.9953C75.6074 18.8305 75.7458 18.6083 75.8116 18.3588C75.8775 18.1094 75.8677 17.8448 75.7834 17.6013C75.6993 17.3579 75.5449 17.1474 75.3412 16.9985C75.1377 16.8496 74.8948 16.7697 74.646 16.7696C74.44 16.7683 74.2373 16.8229 74.0579 16.928C74.0374 16.9399 74.0148 16.9475 73.9915 16.9504C73.9682 16.9532 73.9446 16.9512 73.922 16.9445C73.8994 16.9378 73.8783 16.9267 73.8598 16.9116C73.8415 16.8964 73.8261 16.8776 73.8147 16.8563C73.8032 16.835 73.7959 16.8117 73.7932 16.7873C73.7904 16.7631 73.7924 16.7386 73.7988 16.7151C73.8051 16.6917 73.8159 16.6697 73.8305 16.6506C73.845 16.6314 73.8631 16.6155 73.8836 16.6036C74.2256 16.4069 74.626 16.3497 75.0063 16.4434C75.3867 16.5372 75.7198 16.7749 75.9403 17.1103C76.1609 17.4456 76.2532 17.8545 76.1991 18.2568C76.145 18.6591 75.9484 19.0261 75.6479 19.2858C75.613 19.309 75.5729 19.322 75.5316 19.3235Z" fill="#989898"/>
<path d="M74.4889 16.7768C74.4507 16.777 74.4136 16.7637 74.3837 16.739C74.3452 16.7099 74.3194 16.6663 74.312 16.6175C74.3044 16.5686 74.3159 16.5188 74.3437 16.4788C74.4242 16.3636 74.4675 16.2249 74.4671 16.0827C74.4671 15.9006 74.3975 15.7259 74.2736 15.5972C74.1497 15.4685 73.9817 15.3961 73.8064 15.396C73.6615 15.3945 73.5204 15.4451 73.4072 15.5394C73.3701 15.57 73.3228 15.5839 73.2759 15.5782C73.2289 15.5726 73.1861 15.5477 73.1567 15.5092C73.1274 15.4707 73.1139 15.4216 73.1194 15.3729C73.1248 15.324 73.1487 15.2795 73.1857 15.249C73.3628 15.1046 73.5815 15.0263 73.8064 15.0264C73.9938 15.0272 74.1773 15.0816 74.3367 15.1836C74.4963 15.2856 74.6257 15.4314 74.7108 15.6047C74.7959 15.7781 74.8334 15.9725 74.8193 16.1667C74.8051 16.3607 74.7398 16.547 74.6305 16.7051C74.6137 16.7275 74.5922 16.7455 74.5677 16.7579C74.5431 16.7704 74.5162 16.7769 74.4889 16.7768Z" fill="#989898"/>
<path d="M72.3146 17.577C72.2841 17.577 72.2541 17.5691 72.2274 17.5539C72.2007 17.5386 72.1781 17.5166 72.1618 17.4899C72.1456 17.4632 72.1361 17.4326 72.1341 17.4009C72.1323 17.3693 72.1381 17.3377 72.1512 17.3092C72.2483 17.1014 72.4076 16.932 72.6054 16.8266C72.8031 16.7211 73.0284 16.6853 73.2475 16.7244C73.2706 16.7285 73.2929 16.7373 73.3128 16.7504C73.3326 16.7633 73.3499 16.7804 73.3634 16.8004C73.3768 16.8204 73.3864 16.843 73.3914 16.8669C73.3965 16.8908 73.3969 16.9155 73.3927 16.9395C73.3836 16.9876 73.3571 17.0302 73.3185 17.0583C73.2799 17.0864 73.2324 17.098 73.1858 17.0904C73.047 17.0648 72.9041 17.0862 72.7779 17.1514C72.6519 17.2166 72.5492 17.3221 72.4852 17.4526C72.4722 17.4888 72.449 17.5201 72.4185 17.5424C72.388 17.5646 72.3518 17.5767 72.3146 17.577Z" fill="#989898"/>
<path d="M68.5619 25.3373C68.2403 25.3367 67.9291 25.2187 67.6828 25.0037C67.4365 24.7888 67.2708 24.4907 67.2145 24.1617C67.1583 23.8326 67.2151 23.4935 67.3752 23.2036C67.5352 22.9138 67.7882 22.6915 68.09 22.5759C68.1343 22.5589 68.1833 22.5609 68.2262 22.5813C68.269 22.6019 68.3023 22.6393 68.3188 22.6853C68.3351 22.7313 68.3331 22.7822 68.3135 22.8267C68.2937 22.8714 68.2577 22.906 68.2135 22.923C68.085 22.9715 67.9675 23.0466 67.8677 23.1436C67.768 23.2407 67.6882 23.3577 67.6331 23.4876C67.5781 23.6176 67.5489 23.7578 67.5474 23.8998C67.5458 24.0417 67.5719 24.1826 67.6241 24.3138C67.6763 24.445 67.7536 24.5638 67.8512 24.6632C67.9488 24.7627 68.0647 24.8404 68.1921 24.892C68.3193 24.9435 68.4553 24.9679 68.592 24.9633C68.7285 24.9588 68.8628 24.9256 68.9866 24.8658C69.0078 24.8554 69.0308 24.8496 69.0542 24.8486C69.0775 24.8475 69.1009 24.8513 69.1228 24.8597C69.1448 24.8682 69.1649 24.881 69.1821 24.8976C69.1991 24.9142 69.213 24.9341 69.2226 24.9563C69.233 24.9782 69.2389 25.0021 69.2401 25.0266C69.2413 25.051 69.2377 25.0753 69.2295 25.0982C69.2214 25.1212 69.2089 25.1421 69.1927 25.1599C69.1766 25.1777 69.1571 25.1918 69.1355 25.2015C68.9566 25.2912 68.7605 25.3377 68.5619 25.3373Z" fill="#989898"/>
<path d="M67.974 22.2467C67.9388 22.2473 67.9037 22.2461 67.8687 22.2429C67.8212 22.24 67.7767 22.2177 67.7448 22.1811C67.7129 22.1444 67.6961 22.0961 67.6981 22.0467C67.6989 22.022 67.7045 21.9978 67.7145 21.9755C67.7246 21.9532 67.7387 21.9331 67.7563 21.9165C67.774 21.9 67.7946 21.8873 67.817 21.8792C67.8394 21.8711 67.8632 21.8679 67.8868 21.8695C68.3131 21.8933 68.7327 21.7507 69.063 21.4696C69.3363 21.2391 69.5358 20.9277 69.635 20.5766C69.7341 20.2257 69.7284 19.8516 69.6184 19.5041C69.6111 19.4811 69.608 19.4568 69.6098 19.4326C69.6114 19.4084 69.6177 19.3847 69.628 19.3629C69.6385 19.3412 69.653 19.3219 69.6706 19.306C69.6883 19.2901 69.7088 19.278 69.731 19.2703C69.7531 19.2626 69.7765 19.2595 69.7998 19.2612C69.8231 19.2629 69.8459 19.2694 69.8668 19.2802C69.8876 19.2912 69.9063 19.3062 69.9216 19.3246C69.9369 19.3428 69.9486 19.3641 69.956 19.3872C70.0879 19.8063 70.0942 20.2572 69.9743 20.6801C69.8544 21.1032 69.6139 21.4783 69.2844 21.7563C68.9163 22.074 68.4525 22.2476 67.974 22.2467ZM67.5492 23.45C67.5333 23.4494 67.5174 23.4469 67.5021 23.4426C67.213 23.3582 66.9508 23.1953 66.7427 22.9704C66.5344 22.7457 66.3878 22.4671 66.3179 22.1637C66.2479 21.8603 66.2572 21.543 66.3448 21.2445C66.4324 20.9461 66.595 20.6773 66.816 20.466C66.8512 20.4328 66.8976 20.4154 66.9451 20.4176C66.9926 20.4199 67.0374 20.4416 67.0695 20.4779C67.1016 20.5144 67.1186 20.5626 67.1167 20.6119C67.1148 20.6613 67.094 20.7079 67.0592 20.7415C66.8853 20.9081 66.7573 21.12 66.6885 21.3552C66.6196 21.5904 66.6124 21.8405 66.6674 22.0796C66.7226 22.3186 66.838 22.5381 67.0019 22.7154C67.1659 22.8926 67.3723 23.0212 67.6001 23.0879C67.6229 23.0942 67.6443 23.1054 67.6629 23.1204C67.6816 23.1355 67.6972 23.1543 67.7087 23.1758C67.7202 23.1972 67.7275 23.2209 67.73 23.2454C67.7326 23.2698 67.7303 23.2946 67.7235 23.318C67.7112 23.3561 67.6878 23.3893 67.6566 23.4129C67.6254 23.4365 67.5879 23.4495 67.5492 23.45ZM68.9251 24.197H68.8851C68.8399 24.1932 68.7977 24.1716 68.7672 24.1366C68.7369 24.1015 68.7204 24.0558 68.7213 24.0087C68.7223 23.9614 68.7404 23.9164 68.7722 23.8827C68.804 23.8491 68.847 23.8292 68.8924 23.8273H68.9251C69.0962 23.822 69.2634 23.7717 69.4107 23.6812C69.5582 23.5906 69.6811 23.4627 69.7682 23.3094C69.8551 23.1561 69.9033 22.9823 69.9083 22.8044C69.9131 22.6265 69.8747 22.4502 69.7963 22.2919C69.7748 22.2484 69.7709 22.1978 69.7851 22.1513C69.7995 22.1047 69.831 22.066 69.8728 22.0436C69.9145 22.0212 69.9632 22.0167 70.0081 22.0315C70.0529 22.0463 70.0903 22.0789 70.1121 22.1222C70.1862 22.2692 70.2342 22.429 70.2537 22.5937C70.3 22.9684 70.2014 23.3468 69.9795 23.6459C69.7577 23.9451 69.4306 24.1406 69.0703 24.1894C69.023 24.1932 68.9759 24.197 68.9251 24.197Z" fill="#989898"/>
<path d="M70.631 17.5766C70.5947 17.5768 70.5591 17.5653 70.5292 17.5438C70.4994 17.5221 70.4766 17.4914 70.4641 17.456C70.3998 17.3258 70.2971 17.2205 70.171 17.1554C70.0449 17.0902 69.9021 17.0686 69.7635 17.0938C69.7168 17.1021 69.6688 17.091 69.6301 17.0626C69.5913 17.0344 69.5649 16.9914 69.5566 16.943C69.5524 16.9189 69.5528 16.8942 69.5578 16.8703C69.5629 16.8464 69.5724 16.8238 69.5859 16.8038C69.5994 16.7838 69.6166 16.7668 69.6365 16.7538C69.6564 16.7408 69.6785 16.7319 69.7018 16.7279C69.9208 16.6879 70.1465 16.7234 70.3444 16.8289C70.5423 16.9344 70.7016 17.1043 70.7981 17.3126C70.8106 17.3415 70.8162 17.373 70.8143 17.4046C70.8123 17.4362 70.803 17.4668 70.7872 17.4937C70.7689 17.5189 70.7453 17.5394 70.7183 17.5538C70.6913 17.5682 70.6614 17.576 70.631 17.5766Z" fill="#989898"/>
<path d="M68.4562 16.7775C68.4281 16.7774 68.4004 16.7705 68.3753 16.7574C68.3501 16.7443 68.3281 16.7254 68.311 16.7021C68.1671 16.4959 68.0997 16.2427 68.1211 15.9889C68.1424 15.7352 68.2511 15.498 68.4273 15.3209C68.6035 15.1438 68.8352 15.0387 69.08 15.025C69.3246 15.0112 69.5659 15.0896 69.7595 15.246C69.7965 15.2765 69.8204 15.321 69.8258 15.3699C69.8314 15.4186 69.8178 15.4677 69.7885 15.5063C69.7591 15.5448 69.7163 15.5696 69.6693 15.5753C69.6224 15.5809 69.5751 15.567 69.538 15.5365C69.4404 15.458 69.3235 15.4094 69.2007 15.3966C69.0779 15.3837 68.954 15.4068 68.8433 15.4634C68.7325 15.5199 68.6392 15.6077 68.574 15.7167C68.5088 15.8256 68.4743 15.9514 68.4744 16.0796C68.4735 16.222 68.5169 16.361 68.5979 16.4758C68.6257 16.5158 68.6371 16.5657 68.6297 16.6145C68.6221 16.6632 68.5963 16.707 68.558 16.7361C68.5446 16.7497 68.5287 16.7604 68.5112 16.7676C68.4938 16.7747 68.4751 16.7781 68.4562 16.7775Z" fill="#989898"/>
<path d="M67.414 19.3235C67.3731 19.323 67.3335 19.3084 67.3015 19.282C67.0013 19.0222 66.8052 18.6554 66.7513 18.2533C66.6975 17.8511 66.7898 17.4427 67.0103 17.1075C67.2307 16.7723 67.5635 16.5346 67.9435 16.4408C68.3236 16.3468 68.7237 16.4036 69.0656 16.5999C69.107 16.6239 69.1376 16.664 69.1505 16.7114C69.1635 16.7588 69.1577 16.8096 69.1346 16.8527C69.1116 16.8956 69.073 16.9274 69.0274 16.9408C68.9817 16.9543 68.9329 16.9484 68.8915 16.9244C68.6279 16.772 68.319 16.7276 68.0255 16.7997C67.732 16.8718 67.475 17.0554 67.305 17.3142C67.135 17.5732 67.0642 17.8886 67.1066 18.199C67.1489 18.5093 67.3013 18.792 67.5339 18.9916C67.552 19.007 67.567 19.026 67.5781 19.0475C67.5891 19.069 67.5958 19.0926 67.5979 19.1169C67.5999 19.1413 67.5972 19.1657 67.59 19.1888C67.5826 19.2121 67.5709 19.2335 67.5556 19.2519C67.5381 19.2734 67.5163 19.2908 67.492 19.3031C67.4677 19.3154 67.4411 19.3225 67.414 19.3235Z" fill="#989898"/>
<path d="M68.9386 20.7863C68.8928 20.7861 68.8488 20.7675 68.8157 20.7345C68.7826 20.7016 68.7629 20.6567 68.7608 20.609C68.7615 20.5696 68.7567 20.5301 68.7463 20.4921C68.6846 20.179 68.4196 19.9526 68.0892 19.9263C68.0421 19.922 67.9986 19.8987 67.9681 19.8613C67.9376 19.8238 67.9227 19.7753 67.9265 19.7264C67.9304 19.6775 67.9526 19.6321 67.9886 19.6003C68.0245 19.5685 68.0711 19.5527 68.1183 19.5565C68.6119 19.5942 69.0039 19.9376 69.0983 20.4129C69.1095 20.4727 69.1167 20.5332 69.1202 20.594C69.122 20.643 69.105 20.6907 69.0731 20.7267C69.0411 20.7629 68.9967 20.7843 68.9496 20.7863H68.9386ZM70.3362 21.9105C70.2904 21.9102 70.2464 21.8917 70.2133 21.8587C70.1802 21.8257 70.1606 21.7808 70.1584 21.7332C70.1591 21.6937 70.1542 21.6543 70.1438 21.6163C70.1171 21.4899 70.0577 21.3736 69.972 21.2799C69.8863 21.1861 69.7774 21.1185 69.6574 21.0844C69.635 21.0775 69.6141 21.066 69.596 21.0507C69.5778 21.0353 69.5628 21.0165 69.5516 20.9951C69.5292 20.952 69.5241 20.9012 69.5376 20.8542C69.5511 20.8072 69.582 20.7677 69.6235 20.7444C69.6651 20.721 69.7138 20.7157 69.759 20.7298C69.9416 20.7817 70.1069 20.8848 70.237 21.028C70.3669 21.171 70.4565 21.3484 70.4959 21.5409C70.5072 21.6006 70.5145 21.6611 70.5178 21.722C70.5196 21.7709 70.5026 21.8187 70.4706 21.8547C70.4387 21.8908 70.3943 21.9122 70.3472 21.9143L70.3421 21.9112L70.3362 21.9105ZM67.3741 20.975C67.3643 20.9758 67.3543 20.9746 67.345 20.9712C67.0792 20.9236 66.8342 20.7909 66.6444 20.5915C66.4547 20.3921 66.3297 20.1361 66.2869 19.8592C66.2441 19.5824 66.2857 19.2985 66.4057 19.0474C66.5258 18.7964 66.7184 18.5905 66.9567 18.4588C66.9983 18.4381 67.046 18.4347 67.0899 18.4496C67.1338 18.4644 67.1704 18.4962 67.1924 18.5384C67.2143 18.5806 67.2198 18.63 67.2076 18.6762C67.1955 18.7225 67.1667 18.7622 67.1273 18.7869C66.9547 18.8821 66.8152 19.031 66.7281 19.2126C66.6411 19.3942 66.6108 19.5995 66.6416 19.8C66.6724 20.0003 66.7628 20.1856 66.8999 20.3301C67.0371 20.4745 67.2143 20.5707 67.4067 20.6052C67.4299 20.6093 67.4522 20.6181 67.4721 20.6312C67.4919 20.6443 67.5091 20.6612 67.5226 20.6812C67.5362 20.7012 67.5457 20.7238 67.5508 20.7477C67.5557 20.7716 67.5562 20.7963 67.5519 20.8203C67.5437 20.8633 67.5216 20.902 67.4892 20.9301C67.4568 20.9583 67.4163 20.9741 67.3741 20.975Z" fill="#989898"/>
<path d="M68.8111 18.2869C68.6412 18.287 68.4735 18.247 68.3207 18.17C68.1679 18.0928 68.034 17.9806 67.929 17.8418C67.9144 17.8227 67.9037 17.8008 67.8972 17.7774C67.8908 17.754 67.8889 17.7296 67.8916 17.7054C67.8943 17.6812 67.9015 17.6578 67.913 17.6365C67.9244 17.6153 67.9397 17.5966 67.958 17.5815C67.9764 17.5663 67.9974 17.5552 68.0199 17.5485C68.0424 17.5418 68.066 17.5399 68.0892 17.5427C68.1126 17.5455 68.1351 17.553 68.1555 17.5648C68.1759 17.5767 68.194 17.5926 68.2085 17.6116C68.3258 17.7657 68.4939 17.8692 68.6803 17.9018C68.8667 17.9346 69.0582 17.8944 69.2176 17.789C69.3018 17.733 69.3743 17.66 69.4311 17.5746C69.4877 17.489 69.5275 17.3926 69.548 17.291C69.5768 17.1533 69.5698 17.0102 69.5276 16.8762C69.4855 16.7423 69.4099 16.6224 69.3085 16.529C69.2734 16.4964 69.2521 16.4507 69.2494 16.4019C69.2467 16.3532 69.2627 16.3053 69.2939 16.2686C69.326 16.2322 69.3705 16.2101 69.418 16.2073C69.4654 16.2045 69.5121 16.2211 69.548 16.2536C69.6773 16.373 69.7785 16.5217 69.8435 16.6883C69.9084 16.8551 69.9354 17.035 69.9224 17.2143C69.9095 17.3936 69.8568 17.5673 69.7685 17.722C69.6803 17.8766 69.5588 18.008 69.4136 18.1058C69.233 18.2235 69.0243 18.2863 68.8111 18.2869ZM67.5696 20.1618C67.4469 20.1621 67.3256 20.1351 67.2138 20.0826C67.166 20.0599 67.1199 20.0334 67.076 20.0034C67.037 19.9758 67.01 19.9334 67.0012 19.8853C66.9924 19.8372 67.0022 19.7874 67.0287 19.7468C67.0552 19.7063 67.0961 19.6784 67.1424 19.6692C67.1886 19.66 67.2366 19.6703 67.2756 19.6978C67.3001 19.7165 67.327 19.7318 67.3555 19.743C67.4236 19.7738 67.4971 19.7897 67.5715 19.7897C67.6457 19.7897 67.7193 19.7738 67.7874 19.743C67.9373 19.676 68.0568 19.5518 68.1214 19.396C68.138 19.3558 68.1513 19.314 68.1613 19.2715C68.1721 19.2235 68.2006 19.182 68.2407 19.1559C68.2808 19.1297 68.3293 19.1212 68.3755 19.132C68.4214 19.1436 68.4609 19.1734 68.486 19.2149C68.5111 19.2565 68.5196 19.3066 68.5098 19.3545C68.4959 19.4207 68.4751 19.4852 68.4481 19.5469C68.3462 19.7893 68.1593 19.9822 67.9253 20.0864C67.8127 20.1356 67.6918 20.1612 67.5696 20.1618Z" fill="#989898"/>
</svg>
