<svg width="150" height="75" viewBox="0 0 150 75" fill="none" xmlns="http://www.w3.org/2000/svg">
<path d="M74.9926 52.1733C85.5046 52.1733 94.0263 42.8185 94.0263 31.2789C94.0263 19.7392 85.5046 10.3844 74.9926 10.3844C64.4806 10.3844 55.959 19.7392 55.959 31.2789C55.959 42.8185 64.4806 52.1733 74.9926 52.1733Z" fill="#4A148C"/>
<path d="M52.9126 27.1313L53.433 27.2268L53.6033 26.109L54.2777 26.2328L54.1073 27.3507L54.6821 27.4562L54.8751 26.1893L55.5857 26.3197L55.2443 28.5604L52.0537 27.9746L52.395 25.7339L53.1056 25.8644L52.9126 27.1313Z" fill="black"/>
<path d="M53.761 20.8853L56.8219 22.0345L56.5309 22.9687L54.842 22.3346L56.3334 23.6026L56.0899 24.3842L54.189 24.3839L55.891 25.0229L55.6 25.957L52.5391 24.8079L52.891 23.6784L55.1423 23.5813L53.4106 22.0102L53.761 20.8853Z" fill="black"/>
<path d="M56.7809 18.488C56.8797 18.6677 56.9284 18.8752 56.921 19.0849C56.9102 19.3384 56.8429 19.585 56.7249 19.8032L56.5099 20.231L57.4661 20.8103L57.0315 21.6747L54.1992 19.9588L54.8488 18.6666C54.9535 18.4432 55.1045 18.2499 55.2897 18.1023C55.4453 17.9807 55.6307 17.9135 55.8216 17.9097C56.0171 17.9101 56.209 17.9669 56.3782 18.0743C56.543 18.1713 56.6818 18.3139 56.7809 18.488ZM55.9348 18.9563C55.7286 18.8314 55.5642 18.891 55.4415 19.135L55.2685 19.4789L55.8832 19.8513L56.0561 19.5074C56.1788 19.2634 56.1383 19.0797 55.9348 18.9563Z" fill="black"/>
<path d="M58.6869 18.2427C58.4228 18.366 58.1333 18.4086 57.8491 18.3659C57.553 18.3157 57.2736 18.1833 57.0373 17.9812C56.8009 17.7791 56.6157 17.514 56.499 17.2111C56.3918 16.9194 56.3592 16.6012 56.4047 16.2908C56.4534 15.9748 56.5728 15.677 56.7523 15.4242C56.9317 15.1714 57.1655 14.9715 57.4327 14.8425C57.6952 14.7194 57.9833 14.6777 58.2659 14.7217C58.5614 14.7734 58.8403 14.9065 59.0763 15.1084C59.3124 15.3103 59.4981 15.5746 59.616 15.8766C59.7242 16.1677 59.7579 16.4858 59.7135 16.7964C59.6665 17.1126 59.5479 17.4108 59.3685 17.6636C59.1891 17.9163 58.9547 18.1154 58.6869 18.2427ZM58.8666 16.4776C58.8302 16.2612 58.713 16.0684 58.5151 15.8991C58.3124 15.7258 58.1116 15.6466 57.9128 15.6617C57.714 15.6769 57.544 15.7838 57.403 15.9824C57.2601 16.1838 57.2068 16.3915 57.243 16.6054C57.2792 16.8195 57.3986 17.0132 57.6013 17.1865C57.8016 17.3579 58.0007 17.4366 58.1985 17.4228C58.3964 17.4091 58.5668 17.3015 58.7097 17.1001C58.8507 16.9014 58.903 16.6939 58.8666 16.4776Z" fill="black"/>
<path d="M61.8778 10.0168L63.3662 13.288L62.5232 14.0737L60.901 12.731L61.8375 14.7127L60.9945 15.4983L58.3027 13.3485L59.0443 12.6574L60.7625 14.241L59.7194 12.0282L60.4715 11.3274L62.2688 12.8108L61.1362 10.708L61.8778 10.0168Z" fill="black"/>
<path d="M63.7614 9.78979L64.0261 10.2909L64.9193 9.72242L65.2623 10.3717L64.3691 10.9402L64.6614 11.4936L65.6736 10.8493L66.035 11.5335L64.2447 12.673L62.6221 9.60083L64.4123 8.46135L64.7737 9.14551L63.7614 9.78979Z" fill="black"/>
<path d="M67.8523 10.6668L66.8028 9.72585L66.7137 9.76624L67.1695 10.9766L66.3384 11.3538L65.1025 8.07197L66.4128 7.47729C66.6207 7.37486 66.8475 7.32701 67.0752 7.33755C67.2631 7.34808 67.4439 7.41971 67.5946 7.54332C67.7418 7.66788 67.8557 7.83366 67.9243 8.02324C68.0073 8.23266 68.0263 8.46593 67.9785 8.6882C67.9231 8.92046 67.7985 9.12569 67.6246 9.2712L68.7809 10.2454L67.8523 10.6668ZM66.4789 9.1425L66.8902 8.95583C67.0032 8.90452 67.0769 8.83655 67.1113 8.75193C67.1282 8.70466 67.1359 8.65405 67.1339 8.60334C67.1319 8.55262 67.1202 8.50293 67.0997 8.45744C67.0847 8.41054 67.0608 8.36765 67.0297 8.33153C66.9985 8.29542 66.9608 8.2669 66.919 8.24782C66.8243 8.21443 66.7215 8.22292 66.6325 8.27149L66.2212 8.45816L66.4789 9.1425Z" fill="black"/>
<path d="M69.2906 7.24964L69.4252 7.80974L70.4235 7.52077L70.5978 8.24652L69.5995 8.53549L69.7481 9.15404L70.8795 8.82658L71.0631 9.5913L69.0621 10.1705L68.2373 6.73666L70.2383 6.15744L70.422 6.92211L69.2906 7.24964Z" fill="#4A148C"/>
<path d="M73.2013 5.91611C73.4624 6.02549 73.6888 6.21618 73.8526 6.46479C74.022 6.72746 74.1259 7.03414 74.1541 7.35445C74.1926 7.67214 74.1542 7.99536 74.0425 8.29151C73.9328 8.5753 73.7518 8.81897 73.5207 8.99405C73.2654 9.18508 72.9702 9.30191 72.6626 9.33362L71.3908 9.49489L71.0195 5.96721L72.2913 5.80589C72.5982 5.7593 72.911 5.79718 73.2013 5.91611ZM73.0937 8.16338C73.226 7.98773 73.2771 7.75644 73.247 7.4695C73.2165 7.1793 73.1184 6.96441 72.9528 6.82484C72.7872 6.68526 72.5737 6.63205 72.3124 6.6652L72.0025 6.70453L72.1931 8.51595L72.5031 8.47658C72.7644 8.44344 72.9613 8.33902 73.0937 8.16338Z" fill="#4A148C"/>
<path d="M79.0224 8.82243L80.0098 9.02772L79.8818 9.77009L78.0107 9.38121L78.6126 5.89198L79.4963 6.07569L79.0224 8.82243Z" fill="black"/>
<path d="M81.7422 7.49958L81.5853 8.05265L82.571 8.38967L82.3677 9.10624L81.3819 8.76923L81.2086 9.38002L82.3258 9.76202L82.1116 10.5171L80.1357 9.8415L81.0978 6.45091L83.0736 7.12648L82.8593 7.88156L81.7422 7.49958Z" fill="black"/>
<path d="M84.5076 11.07L83.4731 10.5259L83.0878 10.9655L82.2354 10.5171L84.6968 7.87402L85.632 8.36593L85.2934 12.1257L84.4368 11.6751L84.5076 11.07ZM84.6022 10.282L84.7398 9.08088L83.9774 9.95331L84.6022 10.282Z" fill="black"/>
<path d="M86.7779 13.2775L86.9268 11.799L86.8475 11.739L86.1699 12.8168L85.4297 12.2561L87.2672 9.33331L88.4341 10.2174C88.6254 10.3533 88.7853 10.5362 88.901 10.7517C88.9951 10.9306 89.0386 11.1361 89.026 11.3422C89.0108 11.5455 88.946 11.7406 88.8383 11.9069C88.7233 12.0972 88.5553 12.2415 88.3594 12.3182C88.1517 12.3935 87.9271 12.3902 87.7213 12.3091L87.605 13.9041L86.7779 13.2775ZM87.1968 11.1834L87.5631 11.4609C87.6638 11.5372 87.7558 11.5682 87.8392 11.5538C87.8845 11.5437 87.9274 11.5233 87.9651 11.4938C88.0028 11.4644 88.0345 11.4267 88.0581 11.3831C88.0858 11.3437 88.1056 11.2984 88.1163 11.2501C88.127 11.2018 88.1283 11.1515 88.1201 11.1026C88.0942 10.9972 88.0318 10.9071 87.9462 10.8515L87.5799 10.574L87.1968 11.1834Z" fill="black"/>
<path d="M89.9903 16.3544L89.3393 15.6733L89.7196 13.3295L88.4723 14.7663L87.8213 14.0851L90.0532 11.5145L90.7042 12.1956L90.308 14.5575L91.5711 13.1026L92.2222 13.7838L89.9903 16.3544Z" fill="black"/>
<path d="M93.2997 15.2369L90.8079 17.5016L90.2344 16.7411L92.7262 14.4765L93.2997 15.2369Z" fill="black"/>
<path d="M92.7354 20.6006L92.2474 19.7713L93.1159 17.59L91.5974 18.667L91.1094 17.8378L93.8265 15.9107L94.3146 16.7399L93.4267 18.9349L94.9645 17.8441L95.4526 18.6734L92.7354 20.6006Z" fill="black"/>
<path d="M95.7269 22.1199C95.7846 22.0318 95.8182 21.9275 95.824 21.8192C95.8287 21.6982 95.8073 21.5777 95.7613 21.4677C95.6719 21.2394 95.5341 21.0915 95.3479 21.024C95.1616 20.9564 94.9547 20.9764 94.727 21.0838C94.4713 21.2045 94.3041 21.3665 94.2256 21.5699C94.147 21.7732 94.1602 22.0091 94.2653 22.2776C94.3897 22.5952 94.6092 22.7604 94.9237 22.7729L94.5668 21.8612L95.1613 21.5808L95.8243 23.2746L95.0233 23.6525C94.8309 23.6544 94.6397 23.6193 94.4584 23.5489C94.257 23.4701 94.0723 23.3474 93.9152 23.1883C93.7354 23.0059 93.5942 22.7824 93.5016 22.5336C93.3776 22.2336 93.3267 21.9034 93.3537 21.5754C93.3807 21.2701 93.4874 20.98 93.6609 20.7397C93.8509 20.4897 94.0919 20.2924 94.3644 20.1639C94.6369 20.0353 94.9332 19.9792 95.2292 19.9999C95.5068 20.0269 95.7716 20.1409 95.9919 20.3282C96.2271 20.5315 96.41 20.7986 96.5225 21.1031C96.6832 21.5134 96.7261 21.8952 96.6513 22.2485C96.5788 22.5982 96.3841 22.9027 96.1091 23.0964L95.7269 22.1199Z" fill="black"/>
<path d="M94.4945 24.6336C94.6072 24.3275 94.8227 24.1189 95.1409 24.0078L95.381 25.0271C95.2915 25.0528 95.2146 25.1157 95.1664 25.2025C95.1355 25.28 95.1277 25.3663 95.1442 25.449C95.1607 25.5317 95.2006 25.6065 95.2583 25.6628C95.2843 25.6852 95.3149 25.7003 95.3474 25.707C95.3799 25.7136 95.4134 25.7115 95.445 25.7008C95.4892 25.689 95.5294 25.6638 95.5612 25.6281C95.593 25.5924 95.6151 25.5477 95.6249 25.4989C95.6604 25.3327 95.6808 25.1631 95.6857 24.9925C95.6959 24.791 95.7192 24.5906 95.7553 24.3927C95.7886 24.2314 95.8553 24.0808 95.9502 23.9523C96.0489 23.8151 96.1975 23.7183 96.396 23.6619C96.5788 23.604 96.7735 23.6106 96.9526 23.6808C97.1266 23.7541 97.2775 23.8811 97.3871 24.0465C97.5135 24.2356 97.6044 24.4503 97.6544 24.6783C97.7486 25.0781 97.7387 25.4217 97.6247 25.709C97.5107 25.9963 97.3016 26.1918 96.9974 26.2955L96.7527 25.2568C96.7928 25.2472 96.8305 25.2284 96.8635 25.2015C96.8964 25.1747 96.9237 25.1405 96.9436 25.1011C96.9772 25.0223 96.9831 24.9326 96.9601 24.8493C96.9472 24.7841 96.9116 24.727 96.861 24.6901C96.834 24.6726 96.804 24.6617 96.7729 24.658C96.7418 24.6542 96.7103 24.6578 96.6805 24.6685C96.6515 24.6766 96.6244 24.6914 96.601 24.7119C96.5777 24.7325 96.5586 24.7583 96.5451 24.7876C96.5121 24.8562 96.4895 24.9303 96.4783 25.0069C96.4648 25.0905 96.4516 25.2122 96.4386 25.3719C96.4265 25.5724 96.4014 25.7716 96.3635 25.9681C96.3293 26.1303 96.2632 26.2823 96.1697 26.4134C96.0633 26.5572 95.9155 26.657 95.7506 26.6962C95.5739 26.7494 95.3871 26.7456 95.2124 26.6851C95.0339 26.6201 94.8759 26.5007 94.7569 26.341C94.6163 26.1519 94.5171 25.9301 94.4666 25.6924C94.3725 25.2925 94.3817 24.9396 94.4945 24.6336Z" fill="black"/>
<path d="M53.1812 38.4755L53.4139 39.1961L53.1745 39.2893L52.833 38.232L54.7325 37.4928L54.8412 37.8295L53.1812 38.4755Z" fill="black"/>
<path d="M54.528 40.7747L54.0503 39.5539C53.904 39.6298 53.8115 39.7269 53.7728 39.8451C53.7342 39.9641 53.7397 40.095 53.7881 40.2096C53.8241 40.3102 53.889 40.3951 53.9729 40.4515C54.0498 40.5028 54.142 40.5188 54.2295 40.496L54.3669 40.8472C54.2597 40.8747 54.148 40.8726 54.0417 40.8413C53.9354 40.8099 53.8378 40.7502 53.7575 40.6674C53.6675 40.5757 53.5967 40.4637 53.5498 40.3391C53.4917 40.1984 53.4675 40.0436 53.4796 39.8897C53.4928 39.7437 53.5443 39.605 53.6279 39.4906C53.7248 39.3664 53.8463 39.2682 53.9832 39.2037C54.12 39.1391 54.2686 39.1099 54.4173 39.1183C54.5505 39.1306 54.6775 39.185 54.7831 39.2749C54.8909 39.3736 54.976 39.4987 55.0316 39.6401C55.0872 39.7816 55.1118 39.9354 55.1033 40.0892C55.0918 40.228 55.0445 40.3604 54.9667 40.4707C54.8866 40.5832 54.7813 40.671 54.6611 40.7257C54.6182 40.7465 54.5737 40.7629 54.528 40.7747ZM54.7559 40.2256C54.8029 40.1603 54.8303 40.0806 54.8344 39.9975C54.8381 39.9136 54.8239 39.8298 54.793 39.7528C54.7499 39.6326 54.6662 39.5352 54.5593 39.4811C54.4538 39.4285 54.3296 39.4313 54.1867 39.4896L54.5394 40.3908C54.6241 40.3587 54.699 40.3016 54.7559 40.2256Z" fill="black"/>
<path d="M55.8316 41.7006C55.8182 41.8319 55.7671 41.9552 55.6857 42.0525L56.008 41.8636L56.1614 42.1787L54.774 42.9922L54.6207 42.6771L54.943 42.488C54.824 42.5081 54.7023 42.4862 54.5954 42.4255C54.4807 42.3586 54.3879 42.254 54.3301 42.1263C54.2674 42.0027 54.2372 41.8623 54.2428 41.7209C54.2502 41.5803 54.2946 41.4451 54.3706 41.3316C54.4615 41.2034 54.5759 41.0976 54.7065 41.021C54.8371 40.9445 54.9808 40.8989 55.1285 40.8873C55.2566 40.8811 55.3836 40.9158 55.4942 40.9872C55.6043 41.0607 55.6938 41.1663 55.7526 41.2922C55.8171 41.4159 55.8447 41.5587 55.8316 41.7006ZM55.2624 41.2723C55.1402 41.2363 55.0077 41.2601 54.8651 41.3437C54.7224 41.4274 54.6308 41.535 54.5901 41.6665C54.5702 41.7338 54.5636 41.8049 54.5708 41.8751C54.5779 41.9454 54.5986 42.0131 54.6314 42.0739C54.6708 42.1581 54.7304 42.2288 54.8038 42.2784C54.8763 42.3265 54.9596 42.3515 55.0443 42.3506C55.1389 42.3465 55.2315 42.319 55.315 42.27C55.3985 42.221 55.4708 42.1519 55.5265 42.0678C55.575 41.991 55.6028 41.9008 55.6069 41.8075C55.6101 41.713 55.5897 41.6193 55.5479 41.5366C55.5202 41.4728 55.4804 41.4162 55.4311 41.3707C55.3819 41.3251 55.3244 41.2916 55.2624 41.2723Z" fill="black"/>
<path d="M56.5959 43.0717C56.7028 43.1324 56.7921 43.2246 56.8539 43.338L56.554 43.5443L56.5025 43.454C56.4422 43.3358 56.3465 43.2441 56.2315 43.1947C56.1267 43.1546 56.0065 43.1812 55.8711 43.2743L55.1962 43.7384L55.0234 43.4357L56.3563 42.5191L56.5291 42.8219L56.2678 43.0015C56.381 42.9907 56.4947 43.015 56.5959 43.0717Z" fill="black"/>
<path d="M57.6008 44.8269C57.5702 45.0011 57.4663 45.1587 57.2892 45.2998L56.5476 45.8906L56.3565 45.6015L57.0703 45.0327C57.171 44.9628 57.243 44.8527 57.2711 44.7257C57.2803 44.6662 57.2778 44.6053 57.2639 44.547C57.2499 44.4886 57.2249 44.4342 57.1903 44.3874C57.1585 44.3345 57.1168 44.2896 57.0679 44.2557C57.0191 44.2219 56.9643 44.1998 56.9071 44.191C56.7942 44.1751 56.6731 44.2186 56.5438 44.3217L55.8669 44.861L55.6758 44.5719L56.9487 43.5577L57.1398 43.8468L56.8603 44.0695C56.9734 44.0304 57.0953 44.0343 57.2061 44.0805C57.3192 44.1289 57.4165 44.213 57.4859 44.3223C57.5367 44.3925 57.5732 44.4739 57.5931 44.561C57.6129 44.648 57.6155 44.7387 57.6008 44.8269Z" fill="black"/>
<path d="M58.4386 47.5485L57.8619 46.8622L57.4363 47.0629L57.2002 46.7819L59.1616 45.9041L59.4152 46.2058L58.4583 48.279L58.2221 47.998L58.4386 47.5485ZM58.5613 47.2879L59.0272 46.3172L58.1084 46.7489L58.5613 47.2879Z" fill="black"/>
<path d="M60.6441 48.3644C60.6462 48.5417 60.5735 48.7191 60.4262 48.8968L59.8091 49.6404L59.5686 49.3998L60.1626 48.684C60.2482 48.5932 60.2984 48.4693 60.3025 48.3386C60.3005 48.2784 60.2868 48.2193 60.2624 48.1653C60.238 48.1113 60.2034 48.0636 60.1609 48.0254C60.12 47.9806 60.0708 47.946 60.0168 47.9237C59.9627 47.9014 59.9049 47.892 59.8473 47.8961C59.7338 47.9056 59.6233 47.9752 59.5157 48.1049L58.9525 48.7837L58.7119 48.5431L59.7711 47.2667L60.0116 47.5073L59.7791 47.7876C59.8826 47.7241 60.0026 47.7007 60.1197 47.7213C60.2393 47.7435 60.3502 47.8043 60.4383 47.8958C60.501 47.9533 60.5519 48.0249 60.5873 48.1057C60.6228 48.1865 60.6422 48.2747 60.6441 48.3644Z" fill="black"/>
<path d="M61.2871 48.7337L60.9521 50.0538L62.005 49.3434L62.2917 49.587L60.1197 50.9633L59.833 50.7197L60.5821 50.2664L60.9981 48.4882L61.2871 48.7337Z" fill="black"/>
<path d="M62.3877 51.3581L62.2291 51.6148L62.0638 51.4917C61.9252 51.3886 61.8427 51.2736 61.8165 51.1467C61.7901 51.0199 61.8299 50.8709 61.9357 50.6997L62.3682 49.9995L62.1816 49.8606L62.3369 49.609L62.5236 49.7479L62.7431 49.3926L63.0148 49.5949L62.7953 49.9502L63.1095 50.184L62.9541 50.4356L62.6399 50.2018L62.2041 50.9072C62.1539 50.9884 62.133 51.0549 62.1413 51.1065C62.1496 51.1581 62.1885 51.2097 62.2578 51.2614L62.3877 51.3581Z" fill="black"/>
<path d="M64.4067 51.2339C64.4424 51.4069 64.405 51.5971 64.2946 51.8045L63.8321 52.6728L63.5512 52.4925L63.9964 51.6566C64.063 51.5482 64.0886 51.4156 64.0678 51.2868C64.0544 51.2283 64.0298 51.1737 63.9957 51.1264C63.9615 51.0792 63.9187 51.0404 63.8699 51.0128C63.8213 50.9784 63.7667 50.9557 63.7096 50.9463C63.6525 50.9368 63.5942 50.9408 63.5386 50.958C63.4294 50.9932 63.3345 51.0866 63.2539 51.2381L62.8317 52.0306L62.5508 51.8503L63.617 49.8486L63.8979 50.0289L63.4512 50.8674C63.5405 50.7817 63.6534 50.7315 63.7719 50.7248C63.8931 50.7192 64.013 50.7533 64.1166 50.8227C64.1888 50.8646 64.2521 50.9229 64.3021 50.9939C64.3522 51.0648 64.3878 51.1466 64.4067 51.2339Z" fill="black"/>
<path d="M65.2399 51.5175L64.5263 53.0561L64.2363 52.894L64.9499 51.3554L65.2399 51.5175ZM65.2294 50.7802C65.2831 50.7642 65.3404 50.7722 65.3888 50.8025C65.4399 50.828 65.4798 50.8743 65.5003 50.9317C65.5094 50.9581 65.5132 50.9863 65.5115 51.0145C65.5098 51.0426 65.5026 51.07 65.4903 51.0949C65.4796 51.12 65.4639 51.1422 65.4443 51.1599C65.4248 51.1775 65.4019 51.1902 65.3773 51.1969C65.3231 51.2104 65.2662 51.2012 65.2179 51.1711C65.1676 51.1463 65.1277 51.1014 65.1064 51.0455C65.0973 51.0197 65.0935 50.992 65.0952 50.9644C65.0969 50.9368 65.1041 50.91 65.1163 50.8858C65.1273 50.8604 65.1431 50.8379 65.1625 50.8197C65.182 50.8015 65.2048 50.788 65.2294 50.7802Z" fill="black"/>
<path d="M66.7177 52.4419C66.7714 52.6092 66.7544 52.8029 66.6667 53.0229L66.2991 53.9443L66.001 53.8009L66.3549 52.914C66.4095 52.7978 66.4209 52.6628 66.3866 52.5376C66.3671 52.4812 66.3369 52.4301 66.298 52.3875C66.2592 52.3449 66.2125 52.3119 66.1611 52.2906C66.1092 52.2627 66.0526 52.2471 65.9949 52.245C65.9371 52.2429 65.8797 52.2543 65.8263 52.2784C65.7216 52.3273 65.6371 52.4321 65.573 52.5929L65.2375 53.4339L64.9395 53.2906L65.5704 51.709L65.8685 51.8523L65.7299 52.1996C65.8095 52.1031 65.9164 52.0387 66.0334 52.017C66.1531 51.996 66.2759 52.0146 66.3861 52.0703C66.4623 52.1028 66.5313 52.1527 66.5885 52.2168C66.6457 52.2809 66.6897 52.3576 66.7177 52.4419Z" fill="black"/>
<path d="M68.1736 52.944C68.2455 53.05 68.285 53.1782 68.2863 53.3104L68.4039 52.9306L68.712 53.0456L68.2004 54.6981C68.1593 54.8397 68.087 54.9679 67.9899 55.0714C67.8983 55.1669 67.7836 55.2315 67.6594 55.2575C67.522 55.2842 67.3807 55.2703 67.2498 55.2172C67.0408 55.1392 66.8887 55.0218 66.7936 54.865C66.6985 54.7086 66.6609 54.5183 66.6885 54.3327L66.9939 54.4466C66.9876 54.5473 67.0145 54.6472 67.0696 54.728C67.1339 54.8162 67.2213 54.8806 67.32 54.9124C67.3748 54.9353 67.4332 54.9461 67.4917 54.944C67.5503 54.942 67.6079 54.9273 67.6613 54.9007C67.7663 54.8473 67.8433 54.7414 67.8923 54.5832L68.0154 54.1856C67.941 54.2896 67.8385 54.3649 67.7226 54.4008C67.5973 54.438 67.4644 54.4313 67.3427 54.3815C67.22 54.3382 67.1106 54.2584 67.0266 54.151C66.9445 54.0429 66.8926 53.9109 66.8775 53.771C66.8639 53.6092 66.8816 53.4461 66.9292 53.2923C66.9768 53.1384 67.0534 52.9973 67.1539 52.878C67.2436 52.7773 67.3579 52.7073 67.4831 52.6765C67.6093 52.6475 67.7403 52.6574 67.8616 52.7051C67.9858 52.7471 68.0948 52.8306 68.1736 52.944ZM67.4915 53.0585C67.3798 53.1239 67.2979 53.2407 67.2459 53.4087C67.1938 53.5769 67.194 53.7242 67.2462 53.8507C67.2736 53.9147 67.313 53.9716 67.362 54.0175C67.4109 54.0635 67.4682 54.0974 67.5301 54.1171C67.6112 54.1489 67.6987 54.1558 67.7832 54.1371C67.8661 54.1177 67.9424 54.0734 68.0036 54.0092C68.0702 53.9352 68.1206 53.8457 68.151 53.7473C68.1815 53.6489 68.1913 53.5442 68.1795 53.441C68.1671 53.3486 68.1313 53.2618 68.0761 53.1906C68.0196 53.1192 67.9464 53.0662 67.8644 53.0372C67.8044 53.0114 67.7401 53 67.6758 53.0037C67.6115 53.0074 67.5487 53.0261 67.4915 53.0585Z" fill="black"/>
<path d="M68.879 54.9341C68.8577 55.0348 68.8046 55.1239 68.7291 55.1858C68.6896 55.2137 68.6448 55.2312 68.5981 55.2369C68.5514 55.2427 68.5041 55.2365 68.46 55.2189L68.4952 55.0801C68.5133 55.0874 68.5326 55.0905 68.5519 55.0891C68.5711 55.0877 68.5899 55.0819 68.6069 55.072C68.6421 55.0414 68.6658 54.9977 68.6737 54.9492L68.6805 54.9221L68.5211 54.8733L68.6054 54.5413L68.9024 54.6321C68.912 54.7335 68.904 54.8359 68.879 54.9341Z" fill="black"/>
<path d="M71.2039 55.1527C71.1373 55.2367 71.0497 55.2973 70.952 55.3272C70.8328 55.3626 70.7075 55.3654 70.587 55.3353C70.4624 55.3111 70.344 55.2581 70.2395 55.1797C70.1469 55.1106 70.0724 55.0159 70.0235 54.9053C69.9766 54.7965 69.9587 54.6754 69.9721 54.5559L70.3139 54.629C70.3062 54.7239 70.3302 54.8187 70.3815 54.8956C70.4103 54.9379 70.4465 54.9735 70.4878 55.0004C70.5292 55.0273 70.575 55.045 70.6227 55.0525C70.6631 55.0641 70.7052 55.0667 70.7466 55.0602C70.7879 55.0537 70.8277 55.0382 70.8635 55.0146C70.8951 54.9914 70.922 54.9613 70.9425 54.9261C70.963 54.8909 70.9767 54.8515 70.9826 54.8102C70.9975 54.7409 70.9887 54.668 70.9579 54.6054C70.9269 54.546 70.8843 54.4949 70.8332 54.4558C70.7804 54.4147 70.7068 54.365 70.6125 54.3065C70.5153 54.25 70.4222 54.1853 70.3342 54.1129C70.2634 54.052 70.207 53.9732 70.1699 53.8831C70.1291 53.7754 70.1207 53.6562 70.146 53.5428C70.1631 53.4336 70.2094 53.3324 70.279 53.252C70.35 53.1731 70.4405 53.1186 70.5394 53.0954C70.6544 53.0678 70.7734 53.0677 70.8884 53.0949C71.0902 53.138 71.2409 53.2255 71.3406 53.3576C71.3894 53.421 71.426 53.4946 71.4481 53.5739C71.4703 53.6533 71.4776 53.7367 71.4695 53.8193L71.1249 53.7456C71.1266 53.6618 71.1028 53.5797 71.0572 53.5125C71.0034 53.4372 70.9251 53.3878 70.8387 53.3749C70.7617 53.3539 70.6803 53.3643 70.6097 53.4041C70.5772 53.4252 70.5496 53.4541 70.5289 53.4887C70.5081 53.5232 70.4948 53.5625 70.49 53.6035C70.4759 53.6695 70.4842 53.7389 70.5135 53.7986C70.5435 53.8561 70.585 53.9053 70.6348 53.9426C70.6869 53.9824 70.7592 54.0314 70.8516 54.0895C70.9508 54.1465 71.0456 54.2121 71.1352 54.2857C71.2077 54.3481 71.2652 54.4289 71.3029 54.5211C71.3443 54.632 71.3526 54.7545 71.3266 54.8709C71.3088 54.975 71.2665 55.0722 71.2039 55.1527Z" fill="black"/>
<path d="M73.2614 53.9857L73.0834 55.7012L72.7573 55.6604L72.796 55.2868C72.7474 55.4037 72.6635 55.4985 72.5585 55.5551C72.4485 55.6132 72.3254 55.6345 72.2045 55.6165C72.123 55.6103 72.0436 55.5849 71.9717 55.5422C71.8999 55.4995 71.8371 55.4404 71.7878 55.3689C71.6915 55.2265 71.6557 55.036 71.6804 54.7973L71.7838 53.8009L72.1071 53.8414L72.0076 54.8003C71.9915 54.956 72.015 55.0803 72.0781 55.1734C72.1119 55.2209 72.1545 55.26 72.2031 55.2881C72.2517 55.3162 72.3052 55.3326 72.36 55.3363C72.4172 55.3462 72.4756 55.3426 72.5314 55.3257C72.5872 55.3087 72.639 55.2788 72.6834 55.2381C72.7703 55.1564 72.8229 55.0283 72.841 54.854L72.9353 53.9449L73.2614 53.9857Z" fill="black"/>
<path d="M74.8233 54.2097C74.9544 54.335 75.0379 54.5095 75.0577 54.699L74.7125 54.6871C74.7003 54.5853 74.6535 54.4924 74.5814 54.427C74.5035 54.3604 74.4075 54.3246 74.3088 54.3251C74.2501 54.3215 74.1914 54.3317 74.1366 54.3549C74.0817 54.3782 74.032 54.4139 73.9907 54.4599C73.9042 54.554 73.8583 54.6951 73.8529 54.883C73.8475 55.0709 73.8852 55.2154 73.9661 55.3165C74.0044 55.3656 74.0519 55.4051 74.1053 55.4324C74.1587 55.4596 74.2168 55.474 74.2757 55.4745C74.3744 55.482 74.4725 55.4522 74.5537 55.3901C74.6293 55.3291 74.6813 55.2391 74.6995 55.1381L75.0447 55.1501C75.0139 55.3382 74.9205 55.5071 74.7826 55.6238C74.6351 55.7418 74.4544 55.7988 74.2724 55.7848C74.1317 55.783 73.9937 55.7415 73.8718 55.6643C73.7569 55.5894 73.6643 55.4794 73.6053 55.3478C73.5438 55.1989 73.5143 55.0364 73.519 54.873C73.5237 54.7095 73.5626 54.5495 73.6325 54.4051C73.699 54.2779 73.7977 54.1746 73.9166 54.1078C74.0427 54.0391 74.1828 54.0073 74.3234 54.0152C74.5056 54.0139 74.6825 54.0827 74.8233 54.2097Z" fill="black"/>
<path d="M76.573 54.1472C76.7128 54.2605 76.8089 54.4271 76.8424 54.6143L76.4975 54.6329C76.4779 54.5325 76.4245 54.444 76.3478 54.3852C76.2653 54.3256 76.167 54.2983 76.0686 54.3076C76.0098 54.3092 75.952 54.3245 75.8991 54.3525C75.8461 54.3805 75.7992 54.4205 75.7615 54.47C75.6821 54.5714 75.6466 54.7161 75.655 54.9039C75.6634 55.0917 75.7115 55.2323 75.7995 55.3259C75.8413 55.3715 75.8915 55.4067 75.9468 55.4292C76.002 55.4517 76.061 55.4609 76.1197 55.4562C76.2187 55.4549 76.3143 55.4166 76.3907 55.3476C76.4615 55.2801 76.5068 55.1859 76.5175 55.0835L76.8625 55.0649C76.8456 55.2552 76.7648 55.4318 76.6359 55.5603C76.4976 55.6909 76.3217 55.7637 76.1392 55.7658C75.9988 55.7764 75.8582 55.7472 75.731 55.6809C75.611 55.6164 75.5107 55.515 75.4422 55.389C75.3701 55.246 75.3287 55.0867 75.3215 54.9233C75.3142 54.76 75.3412 54.597 75.4003 54.447C75.4573 54.3143 75.5481 54.2026 75.6618 54.1255C75.7825 54.046 75.9198 54.0019 76.0604 53.9974C76.242 53.98 76.4234 54.033 76.573 54.1472Z" fill="black"/>
<path d="M78.6469 54.6679L77.4468 54.8396C77.4733 55.0149 77.5332 55.139 77.6263 55.2121C77.7201 55.2854 77.8363 55.3153 77.9499 55.2954C78.0479 55.2848 78.14 55.2394 78.2124 55.1661C78.2783 55.0989 78.3174 55.0059 78.3213 54.9072L78.6666 54.8579C78.6614 54.9786 78.6291 55.096 78.5726 55.1997C78.5161 55.3035 78.4372 55.3903 78.3428 55.4524C78.2379 55.5225 78.1204 55.5668 77.9984 55.5823C77.8592 55.6054 77.717 55.5887 77.5853 55.5339C77.461 55.4802 77.3535 55.388 77.276 55.2685C77.1936 55.1324 77.1407 54.9772 77.1214 54.8151C77.1022 54.6529 77.1171 54.4881 77.165 54.3333C77.212 54.196 77.2944 54.0766 77.402 53.9897C77.5178 53.9027 77.6507 53.8469 77.7898 53.8267C77.9289 53.8066 78.0704 53.8225 78.2028 53.8734C78.3214 53.9234 78.4245 54.0095 78.5 54.1217C78.6022 54.2812 78.6538 54.4731 78.6469 54.6679ZM78.2278 54.2775C78.1834 54.2101 78.121 54.1595 78.0494 54.1325C77.9767 54.1057 77.8994 54.0978 77.8235 54.1095C77.7064 54.1222 77.5982 54.1841 77.5217 54.2823C77.4468 54.3793 77.4154 54.5113 77.4276 54.6781L78.3135 54.5513C78.3086 54.4531 78.2789 54.3583 78.2278 54.2775Z" fill="black"/>
<path d="M80.4257 54.2643L79.2421 54.542C79.2815 54.7143 79.3503 54.8327 79.4485 54.8973C79.5473 54.9619 79.6654 54.9814 79.7772 54.9515C79.874 54.9322 79.9625 54.8789 80.0293 54.7995C80.09 54.7266 80.1222 54.6304 80.1187 54.5318L80.4593 54.4519C80.463 54.5727 80.4394 54.6926 80.3908 54.801C80.3421 54.9094 80.2698 55.0029 80.1803 55.0732C80.0809 55.1524 79.9671 55.2069 79.8466 55.2332C79.7096 55.2685 79.5666 55.2646 79.4313 55.2217C79.3034 55.1792 79.1895 55.0968 79.1035 54.9846C79.0113 54.8561 78.9472 54.7062 78.916 54.5463C78.8849 54.3864 78.8876 54.2208 78.924 54.0622C78.9608 53.9212 79.034 53.7949 79.1349 53.6987C79.2439 53.6018 79.3722 53.5343 79.5094 53.5019C79.6466 53.4694 79.7888 53.4728 79.9245 53.5118C80.0464 53.5511 80.1555 53.6278 80.239 53.7329C80.3525 53.8828 80.4181 54.0695 80.4257 54.2643ZM79.9792 53.9124C79.9299 53.8492 79.8641 53.8042 79.7907 53.7836C79.7163 53.7633 79.6387 53.7623 79.5639 53.7807C79.4481 53.8038 79.3448 53.8751 79.2757 53.9797C79.2083 54.0831 79.1867 54.2174 79.2111 54.3826L80.0848 54.1777C80.0726 54.0802 80.0361 53.9884 79.9792 53.9124Z" fill="black"/>
<path d="M81.5144 53.042C81.6287 53.0818 81.7281 53.1613 81.7977 53.2685L81.535 52.3179L81.8491 52.2134L82.4624 54.4323L82.1483 54.5369L82.0422 54.1531C82.0387 54.2847 81.9963 54.4115 81.9213 54.5143C81.8392 54.6247 81.7277 54.7043 81.6023 54.7417C81.4796 54.785 81.3484 54.7902 81.2232 54.7566C81.099 54.7213 80.9868 54.6472 80.9002 54.5433C80.8033 54.4204 80.731 54.2766 80.6881 54.1211C80.6451 53.9656 80.6324 53.8019 80.6507 53.6407C80.6701 53.5015 80.7259 53.3715 80.8113 53.2663C80.8984 53.1621 81.0101 53.0863 81.1341 53.0474C81.2572 53.0022 81.3902 53.0002 81.5144 53.042ZM81.0209 53.5715C80.9648 53.6961 80.9603 53.8434 81.0072 54.0132C81.0542 54.1831 81.1325 54.3028 81.2422 54.3721C81.2984 54.4066 81.3606 54.4276 81.4248 54.4336C81.4889 54.4396 81.5535 54.4306 81.6142 54.407C81.6971 54.381 81.7719 54.3306 81.8305 54.2613C81.8876 54.1926 81.9261 54.1077 81.9418 54.0163C81.9566 53.9137 81.95 53.8086 81.9225 53.7092C81.895 53.6097 81.8473 53.5184 81.783 53.4421C81.7239 53.3749 81.6487 53.3273 81.5661 53.3047C81.4823 53.2829 81.3946 53.2866 81.3126 53.3155C81.2502 53.333 81.1919 53.3648 81.1416 53.409C81.0913 53.4531 81.0501 53.5085 81.0209 53.5715Z" fill="black"/>
<path d="M83.1931 52.0635L83.4314 52.681L84.1148 52.3631L84.2128 52.6171L83.5294 52.9348L83.7732 53.5668L84.5355 53.2123L84.639 53.4806L83.5772 53.9744L82.791 51.9374L83.8529 51.4436L83.9553 51.709L83.1931 52.0635Z" fill="black"/>
<path d="M85.412 52.6518L85.2493 51.2207L85.5598 51.0476L85.7376 52.885L85.3864 53.0808L84.1396 51.8394L84.4502 51.6663L85.412 52.6518Z" fill="black"/>
<path d="M87.4255 50.8983L86.3921 51.59C86.4813 51.7383 86.5819 51.8252 86.694 51.8505C86.8068 51.8756 86.924 51.8511 87.0205 51.7823C87.1062 51.729 87.1736 51.6465 87.2126 51.5473C87.248 51.4565 87.2494 51.3541 87.2164 51.2622L87.5137 51.0632C87.5536 51.1758 87.5675 51.2975 87.5543 51.4175C87.541 51.5374 87.501 51.6519 87.4377 51.7508C87.3677 51.8616 87.2767 51.9545 87.1709 52.023C87.0523 52.1061 86.9161 52.1542 86.7756 52.1629C86.6421 52.1692 86.5098 52.1328 86.3948 52.0581C86.2691 51.9704 86.1633 51.8522 86.0858 51.7126C86.0082 51.573 85.9609 51.4157 85.9475 51.2528C85.9397 51.1064 85.9708 50.9606 86.037 50.8332C86.1107 50.7022 86.2115 50.592 86.3312 50.5115C86.4508 50.4311 86.5861 50.3827 86.7259 50.3702C86.8528 50.3629 86.9789 50.3957 87.0893 50.4646C87.2416 50.5649 87.3597 50.7173 87.4255 50.8984L87.4255 50.8983ZM86.8981 50.7284C86.8326 50.6865 86.7569 50.668 86.6814 50.6753C86.6051 50.6831 86.5315 50.7104 86.4665 50.7548C86.3641 50.8187 86.2882 50.9235 86.2545 51.0473C86.222 51.1694 86.2421 51.304 86.3149 51.451L87.0777 50.9403C87.0369 50.8528 86.9747 50.7794 86.8981 50.7284Z" fill="black"/>
<path d="M87.7192 49.6143C87.7686 49.4938 87.8477 49.3909 87.9474 49.317L88.1513 49.6346L88.0719 49.696C87.9677 49.7685 87.8895 49.8784 87.8507 50.007C87.8199 50.1241 87.8506 50.2544 87.9426 50.3978L88.4013 51.1125L88.1353 51.3182L87.2295 49.9067L87.4955 49.701L87.673 49.9777C87.6571 49.8542 87.6731 49.7283 87.7192 49.6143Z" fill="black"/>
<path d="M88.2846 49.0697L89.3764 49.7342L88.9918 48.4449L89.2742 48.1954L89.9887 50.8343L89.7063 51.0838L89.4788 50.1787L88 49.3212L88.2846 49.0697Z" fill="black"/>
<path d="M90.9989 46.3837L91.7819 47.956L91.524 48.2312L90.3981 47.5709L90.9631 48.8296L90.7072 49.1025L89.2979 48.1984L89.5333 47.9473L90.6354 48.7203L90.0307 47.4166L90.2763 47.1546L91.4502 47.8511L90.7778 46.6195L90.9989 46.3837Z" fill="black"/>
<path d="M92.0792 45.2168C92.2406 45.208 92.4048 45.2811 92.5719 45.4362L93.2716 46.0858L93.0614 46.3584L92.388 45.7332C92.3021 45.6426 92.1875 45.5921 92.0684 45.5925C92.0136 45.5969 91.9603 45.6141 91.912 45.6428C91.8638 45.6716 91.8216 45.7113 91.7884 45.7593C91.7492 45.8059 91.7195 45.8611 91.7012 45.9212C91.6829 45.9813 91.6765 46.045 91.6823 46.1081C91.6951 46.2322 91.7625 46.3509 91.8846 46.4642L92.5232 47.0571L92.3131 47.3299L90.7002 45.8325L90.9104 45.5597L91.586 46.187C91.5244 46.0757 91.4987 45.9449 91.5132 45.8157C91.529 45.6836 91.5802 45.5598 91.6603 45.4598C91.7103 45.3888 91.7736 45.3305 91.8458 45.2886C91.9181 45.2467 91.9977 45.2222 92.0792 45.2168Z" fill="black"/>
<path d="M93.8184 43.911L93.1157 44.9927C93.2507 45.0907 93.3743 45.1272 93.4864 45.102C93.5991 45.0766 93.6982 45.0035 93.7623 44.8985C93.822 44.8126 93.8545 44.7077 93.8549 44.5996C93.855 44.5009 93.8196 44.4061 93.7563 44.3358L93.9585 44.0245C94.0355 44.1109 94.0919 44.2168 94.1226 44.3329C94.1534 44.4489 94.1575 44.5715 94.1347 44.6897C94.11 44.8218 94.0595 44.9464 93.9868 45.055C93.9074 45.1826 93.7994 45.2856 93.6732 45.3542C93.5527 45.4175 93.418 45.4411 93.2855 45.422C93.1385 45.3956 92.999 45.3324 92.8778 45.2375C92.7565 45.1426 92.6567 45.0184 92.586 44.8744C92.5265 44.7431 92.5029 44.5957 92.5182 44.4499C92.5391 44.2976 92.5923 44.1528 92.6736 44.0272C92.7548 43.9016 92.8619 43.7988 92.9861 43.727C93.1001 43.6656 93.2278 43.6414 93.354 43.6572C93.53 43.6837 93.6931 43.7729 93.8184 43.911ZM93.2726 43.9821C93.1974 43.9719 93.1212 43.9875 93.0543 44.0267C92.987 44.0669 92.9291 44.1237 92.8852 44.1926C92.8139 44.2954 92.7816 44.4245 92.7949 44.5529C92.8087 44.6792 92.8753 44.7943 92.9949 44.8981L93.5136 44.0995C93.4447 44.0367 93.3613 43.996 93.2726 43.9821Z" fill="black"/>
<path d="M93.629 42.604C93.6314 42.472 93.6673 42.3432 93.7326 42.2323L94.0337 42.4366L93.9826 42.5272C93.9127 42.6388 93.8801 42.7735 93.8904 42.9085C93.904 43.0295 93.9788 43.1361 94.1148 43.2283L94.7922 43.688L94.6211 43.9919L93.2832 43.0841L93.4543 42.7802L93.7165 42.9581C93.6577 42.8514 93.6274 42.7287 93.629 42.604Z" fill="black"/>
<path d="M95.2988 41.0722L94.7314 42.2458C94.877 42.3235 95.0038 42.3418 95.112 42.3008C95.2207 42.2593 95.3102 42.1726 95.3612 42.0593C95.4101 41.9655 95.4298 41.8567 95.4172 41.7496C95.4055 41.6517 95.359 41.5628 95.288 41.5022L95.4513 41.1646C95.5379 41.2391 95.6064 41.336 95.6508 41.4466C95.6951 41.5572 95.7139 41.6781 95.7054 41.7986C95.6967 41.9331 95.6615 42.0639 95.6024 42.1821C95.5389 42.32 95.4442 42.4377 95.3274 42.5238C95.2155 42.6039 95.0847 42.6467 94.9511 42.6469C94.8022 42.6418 94.6564 42.5993 94.5248 42.5227C94.3933 42.446 94.2795 42.3373 94.1922 42.2048C94.1175 42.0832 94.0765 41.9404 94.0742 41.7937C94.0767 41.6397 94.1122 41.4885 94.1778 41.3523C94.2433 41.2161 94.3371 41.0987 94.4516 41.0096C94.5574 40.9324 94.6811 40.89 94.8081 40.8873C94.9857 40.8883 95.158 40.9533 95.2988 41.0722ZM94.7662 41.2213C94.6904 41.222 94.6167 41.2485 94.5551 41.297C94.4931 41.3465 94.4425 41.4111 94.4073 41.4858C94.3489 41.598 94.3322 41.7307 94.3608 41.8561C94.3896 41.9792 94.4694 42.0836 94.6003 42.1694L95.0191 41.3031C94.9433 41.2506 94.8558 41.2223 94.7662 41.2213Z" fill="black"/>
<path d="M94.399 39.6415L95.6984 40.3427L95.5849 40.6164L94.25 40.0008L94.399 39.6415ZM95.9665 40.4146L96.2938 40.5783L96.1401 40.949L95.8127 40.7854L95.9665 40.4146Z" fill="black"/>
<path d="M74.8981 50.3474C84.5051 50.3474 92.2932 41.798 92.2932 31.2517C92.2932 20.7054 84.5051 12.156 74.8981 12.156C65.291 12.156 57.5029 20.7054 57.5029 31.2517C57.5029 41.798 65.291 50.3474 74.8981 50.3474Z" fill="black"/>
<path d="M74.8985 50.5041C70.5645 50.498 66.3871 48.725 63.1766 45.5291C59.9661 42.3332 57.9513 37.9421 57.5231 33.2078C57.0949 28.4734 58.2838 23.7332 60.8591 19.9066C63.4345 16.0801 67.2127 13.4399 71.4609 12.4984C75.7092 11.5568 80.1245 12.3809 83.8506 14.8109C87.5766 17.2408 90.3477 21.1034 91.6263 25.6493C92.9049 30.1952 92.5999 35.1003 90.7704 39.4133C88.9409 43.7263 85.7173 47.1396 81.725 48.9911C79.5654 49.9945 77.2435 50.5091 74.8985 50.5041ZM74.8985 12.3127C65.3854 12.3127 57.6461 20.8087 57.6461 31.2517C57.6461 41.6948 65.3855 50.1908 74.8985 50.1908C84.4115 50.1908 92.1509 41.6948 92.1509 31.2517C92.1509 20.8087 84.4115 12.3127 74.8985 12.3127Z" fill="black"/>
<mask id="mask0_76_359" style="mask-type:luminance" maskUnits="userSpaceOnUse" x="62" y="16" width="26" height="28">
<path d="M87.0358 16.9732H62.9814V43.3792H87.0358V16.9732Z" fill="white"/>
</mask>
<g mask="url(#mask0_76_359)">
<path d="M77.8586 38.4653H72.1607C71.7924 38.4653 71.518 38.1435 71.518 37.7185V37.537C71.518 35.9939 70.9354 34.4879 69.8793 33.2914C69.1998 32.5268 68.6709 31.6167 68.3256 30.618C67.9804 29.6193 67.826 28.5533 67.8723 27.4862C68.0301 23.4717 71.0181 20.1833 74.6714 20.0018C76.1087 19.9276 77.533 20.3317 78.7577 21.1611C79.9823 21.9904 80.9503 23.2065 81.5348 24.6499C82.1193 26.0933 82.2932 27.6969 82.0336 29.2506C81.774 30.8043 81.093 32.2357 80.0798 33.3574C79.0613 34.4838 78.4975 35.9196 78.4975 37.3967V37.7639C78.4976 37.8561 78.4811 37.9473 78.449 38.0324C78.4169 38.1176 78.3699 38.1949 78.3105 38.2601C78.2512 38.3252 78.1807 38.3769 78.1032 38.4121C78.0256 38.4473 77.9425 38.4654 77.8586 38.4653ZM75.0134 20.3938C74.9044 20.3938 74.7992 20.3979 74.6902 20.402C71.2248 20.5753 68.3947 23.6945 68.2444 27.4986C68.2 28.5112 68.3463 29.523 68.6742 30.4707C69.0021 31.4184 69.5044 32.2817 70.1499 33.0067C71.2737 34.2775 71.8901 35.8866 71.8901 37.5329V37.7144C71.8901 37.9125 72.0066 38.0569 72.1645 38.0569H77.8623C77.935 38.0564 78.0045 38.0245 78.0559 37.9682C78.1073 37.9118 78.1363 37.8354 78.1367 37.7557V37.3885C78.1367 35.8041 78.738 34.2693 79.8243 33.0645C80.7667 32.0224 81.4069 30.6973 81.664 29.2562C81.9212 27.8152 81.7838 26.3228 81.2691 24.9674C80.7545 23.612 79.8857 22.4543 78.7724 21.6403C77.6591 20.8263 76.3511 20.3926 75.0134 20.3938Z" fill="white"/>
<path d="M77.3135 39.7733H72.7056C72.2471 39.7733 71.875 39.3896 71.875 38.9151C71.875 38.4448 72.2471 38.0569 72.7056 38.0569C72.7545 38.0569 72.8013 38.0782 72.8358 38.1161C72.8704 38.154 72.8898 38.2055 72.8898 38.2591C72.8898 38.3127 72.8704 38.3641 72.8358 38.402C72.8013 38.44 72.7545 38.4613 72.7056 38.4613C72.4538 38.4613 72.2433 38.6634 72.2433 38.911C72.2433 39.1585 72.45 39.3607 72.7056 39.3607H77.3135C77.5691 39.3607 77.7758 39.1585 77.7758 38.911C77.7758 38.6634 77.5691 38.4613 77.3135 38.4613C77.2647 38.4613 77.2178 38.44 77.1833 38.402C77.1488 38.3641 77.1294 38.3127 77.1294 38.2591C77.1294 38.2055 77.1488 38.154 77.1833 38.1161C77.2178 38.0782 77.2647 38.0569 77.3135 38.0569C77.7721 38.0569 78.1442 38.4406 78.1442 38.9151C78.1442 39.3896 77.7721 39.7733 77.3135 39.7733Z" fill="white"/>
<path d="M77.3135 41.077H72.7056C72.2471 41.077 71.875 40.6933 71.875 40.2188C71.875 39.7484 72.2471 39.3606 72.7056 39.3606C72.7299 39.3605 72.7539 39.3656 72.7764 39.3757C72.7988 39.3858 72.8193 39.4007 72.8365 39.4194C72.8537 39.4382 72.8673 39.4606 72.8766 39.4852C72.8859 39.5098 72.8907 39.5361 72.8907 39.5628C72.8907 39.5894 72.8859 39.6158 72.8766 39.6404C72.8673 39.665 72.8537 39.6873 72.8365 39.7061C72.8193 39.7249 72.7988 39.7398 72.7764 39.7499C72.7539 39.76 72.7299 39.7651 72.7056 39.7649C72.4538 39.7649 72.2433 39.9671 72.2433 40.2147C72.2433 40.4622 72.45 40.6644 72.7056 40.6644H77.3135C77.5691 40.6644 77.7758 40.4622 77.7758 40.2147C77.7758 39.9671 77.5691 39.7649 77.3135 39.7649C77.2893 39.7651 77.2652 39.76 77.2428 39.7499C77.2203 39.7398 77.1999 39.7249 77.1827 39.7061C77.1655 39.6873 77.1519 39.665 77.1425 39.6404C77.1332 39.6158 77.1284 39.5894 77.1284 39.5628C77.1284 39.5361 77.1332 39.5098 77.1425 39.4852C77.1519 39.4606 77.1655 39.4382 77.1827 39.4194C77.1999 39.4007 77.2203 39.3858 77.2428 39.3757C77.2652 39.3656 77.2893 39.3605 77.3135 39.3606C77.7721 39.3606 78.1442 39.7443 78.1442 40.2188C78.1442 40.6933 77.7721 41.077 77.3135 41.077Z" fill="white"/>
<path d="M77.2009 42.2943H72.8185C72.6222 42.2943 72.4338 42.2087 72.295 42.0562C72.1561 41.9038 72.0781 41.6971 72.0781 41.4815C72.0781 41.2659 72.1561 41.0592 72.295 40.9068C72.4338 40.7543 72.6222 40.6687 72.8185 40.6687H77.2009C77.3973 40.6687 77.5856 40.7543 77.7245 40.9068C77.8634 41.0592 77.9414 41.2659 77.9414 41.4815C77.9414 41.6971 77.8634 41.9038 77.7245 42.0562C77.5856 42.2087 77.3973 42.2943 77.2009 42.2943ZM72.8185 41.0772C72.7209 41.0772 72.6272 41.1198 72.5581 41.1956C72.489 41.2714 72.4502 41.3743 72.4502 41.4815C72.4502 41.5887 72.489 41.6916 72.5581 41.7674C72.6272 41.8432 72.7209 41.8858 72.8185 41.8858H77.2009C77.2986 41.8858 77.3923 41.8432 77.4614 41.7674C77.5305 41.6916 77.5693 41.5887 77.5693 41.4815C77.5693 41.3743 77.5305 41.2714 77.4614 41.1956C77.3923 41.1198 77.2986 41.0772 77.2009 41.0772H72.8185Z" fill="white"/>
<path d="M75.3741 43.3795H74.6487C73.9572 43.3795 73.3934 42.8019 73.3934 42.0922C73.3934 42.0386 73.4128 41.9871 73.4473 41.9492C73.4819 41.9113 73.5287 41.89 73.5776 41.89C73.6264 41.89 73.6732 41.9113 73.7078 41.9492C73.7423 41.9871 73.7617 42.0386 73.7617 42.0922C73.7617 42.579 74.1601 42.971 74.6487 42.971H75.3741C75.8627 42.971 76.2611 42.5749 76.2611 42.0922C76.2611 42.0386 76.2805 41.9871 76.3151 41.9492C76.3496 41.9113 76.3964 41.89 76.4453 41.89C76.4941 41.89 76.541 41.9113 76.5755 41.9492C76.6101 41.9871 76.6295 42.0386 76.6295 42.0922C76.6295 42.8018 76.0657 43.3795 75.3741 43.3795ZM76.7685 38.4655C76.7443 38.4655 76.7204 38.4603 76.6981 38.4501C76.6757 38.44 76.6554 38.4251 76.6383 38.4063C76.6212 38.3875 76.6076 38.3652 76.5984 38.3407C76.5891 38.3162 76.5844 38.2899 76.5844 38.2633V36.518C76.5844 36.2045 76.4002 35.9528 76.1747 35.9528H73.8444C73.6189 35.9528 73.4347 36.2086 73.4347 36.518V38.2633C73.4347 38.3169 73.4153 38.3683 73.3808 38.4063C73.3463 38.4442 73.2994 38.4655 73.2506 38.4655C73.2017 38.4655 73.1549 38.4442 73.1203 38.4063C73.0858 38.3683 73.0664 38.3169 73.0664 38.2633V36.518C73.0664 35.9817 73.4159 35.5443 73.8482 35.5443H76.1784C76.6069 35.5443 76.9602 35.9817 76.9602 36.518V38.2633C76.9584 38.3177 76.9374 38.3693 76.9016 38.407C76.8659 38.4447 76.8181 38.4657 76.7685 38.4655Z" fill="white"/>
<path d="M73.9754 35.9527C73.9336 35.953 73.8929 35.9376 73.8601 35.9091C73.8273 35.8806 73.8044 35.8407 73.795 35.796L73.4793 34.3189C73.4683 34.2664 73.4768 34.2112 73.5029 34.1655C73.529 34.1199 73.5705 34.0875 73.6184 34.0754C73.6662 34.0634 73.7164 34.0727 73.758 34.1014C73.7996 34.13 73.8291 34.1756 73.8401 34.2281L74.1558 35.7052C74.1613 35.7312 74.1621 35.7581 74.158 35.7845C74.154 35.8108 74.1453 35.836 74.1324 35.8586C74.1194 35.8812 74.1026 35.9008 74.0827 35.9163C74.0629 35.9317 74.0405 35.9427 74.0168 35.9486C74.0032 35.9519 73.9893 35.9532 73.9754 35.9527ZM76.0426 35.9527C76.0287 35.9536 76.0147 35.9522 76.0012 35.9486C75.9538 35.9359 75.9127 35.9033 75.8867 35.8579C75.8608 35.8124 75.852 35.7577 75.8622 35.7052L76.1779 34.2281C76.189 34.1757 76.2185 34.1302 76.2601 34.1016C76.3016 34.073 76.3518 34.0636 76.3996 34.0754C76.4471 34.0882 76.4882 34.1208 76.5141 34.1662C76.5401 34.2117 76.5489 34.2664 76.5387 34.3189L76.223 35.796C76.2141 35.841 76.1912 35.8812 76.1583 35.9098C76.1254 35.9384 76.0845 35.9536 76.0426 35.9527Z" fill="white"/>
</g>
<path d="M67.5631 23.3314C67.53 23.3315 67.4974 23.3215 67.4692 23.3025L66.4995 22.6878C66.4782 22.6747 66.4596 22.6572 66.4447 22.6362C66.4297 22.6151 66.4188 22.591 66.4125 22.5652C66.4062 22.5394 66.4046 22.5126 66.408 22.4861C66.4113 22.4597 66.4194 22.4343 66.4318 22.4113C66.4564 22.365 66.4966 22.3312 66.5438 22.3173C66.591 22.3034 66.6412 22.3105 66.6836 22.3371L67.6533 22.9518C67.6745 22.9648 67.6932 22.9824 67.7081 23.0034C67.723 23.0245 67.734 23.0486 67.7403 23.0744C67.7466 23.1001 67.7481 23.127 67.7448 23.1535C67.7415 23.1799 67.7334 23.2053 67.721 23.2283C67.7059 23.2597 67.6831 23.286 67.6553 23.3042C67.6274 23.3224 67.5955 23.3318 67.5631 23.3314Z" fill="#FFD700"/>
<path d="M66.4134 28.0473H65.2896C65.2408 28.0473 65.1939 28.026 65.1594 27.9881C65.1249 27.9502 65.1055 27.8988 65.1055 27.8452C65.1055 27.7916 65.1249 27.7401 65.1594 27.7022C65.1939 27.6643 65.2408 27.643 65.2896 27.643H66.4097C66.4585 27.6431 66.5053 27.6644 66.5398 27.7023C66.5743 27.7402 66.5938 27.7916 66.5938 27.8452C66.5945 27.8716 66.5904 27.8979 66.5816 27.9225C66.5728 27.9471 66.5596 27.9695 66.5428 27.9884C66.526 28.0073 66.5058 28.0222 66.4836 28.0323C66.4614 28.0425 66.4375 28.0476 66.4134 28.0473Z" fill="#FFD700"/>
<path d="M70.7094 19.8738C70.6765 19.8738 70.6443 19.8643 70.6159 19.8462C70.5875 19.828 70.564 19.802 70.5477 19.7707L69.9915 18.7062C69.9794 18.6832 69.9715 18.6578 69.9684 18.6314C69.9652 18.605 69.9668 18.5782 69.9731 18.5526C69.9794 18.5269 69.9902 18.5028 70.005 18.4817C70.0197 18.4606 70.0381 18.4429 70.0591 18.4297C70.0801 18.4164 70.1032 18.4078 70.1273 18.4043C70.1513 18.4009 70.1757 18.4027 70.1991 18.4096C70.2224 18.4165 70.2444 18.4284 70.2636 18.4446C70.2828 18.4608 70.2989 18.481 70.311 18.504L70.871 19.5685C70.8836 19.5914 70.8919 19.6168 70.8954 19.6433C70.8988 19.6698 70.8973 19.6968 70.891 19.7226C70.8847 19.7485 70.8736 19.7726 70.8586 19.7936C70.8435 19.8147 70.8247 19.8321 70.8033 19.845C70.7753 19.8645 70.7426 19.8745 70.7094 19.8738Z" fill="#FFD700"/>
<path d="M75.0094 18.6112C74.9852 18.6112 74.9612 18.606 74.9389 18.5958C74.9165 18.5857 74.8962 18.5708 74.8791 18.552C74.862 18.5332 74.8485 18.5109 74.8392 18.4864C74.83 18.4619 74.8252 18.4356 74.8252 18.409V17.1754C74.8252 17.1218 74.8446 17.0703 74.8791 17.0324C74.9137 16.9945 74.9605 16.9732 75.0094 16.9732C75.0582 16.9732 75.105 16.9945 75.1396 17.0324C75.1741 17.0703 75.1935 17.1218 75.1935 17.1754V18.4049C75.1939 18.4318 75.1894 18.4584 75.1803 18.4833C75.1712 18.5083 75.1577 18.531 75.1406 18.5502C75.1235 18.5693 75.1031 18.5846 75.0805 18.5951C75.058 18.6056 75.0338 18.611 75.0094 18.6112Z" fill="#FFD700"/>
<path d="M82.4553 23.3314C82.4225 23.3313 82.3903 23.3218 82.3619 23.3037C82.3335 23.2856 82.31 23.2595 82.2937 23.2282C82.2811 23.2053 82.2728 23.1799 82.2694 23.1534C82.2659 23.1269 82.2674 23.1 82.2738 23.0741C82.2801 23.0483 82.2911 23.0241 82.3062 23.0031C82.3212 22.9821 82.34 22.9646 82.3614 22.9518L83.3311 22.337C83.352 22.3237 83.3752 22.3151 83.3992 22.3117C83.4232 22.3082 83.4476 22.31 83.471 22.3169C83.4944 22.3238 83.5163 22.3357 83.5355 22.3519C83.5547 22.3681 83.5708 22.3882 83.5829 22.4113C83.595 22.4343 83.6028 22.4597 83.606 22.4861C83.6091 22.5124 83.6075 22.5392 83.6012 22.5649C83.5949 22.5905 83.5841 22.6146 83.5694 22.6357C83.5546 22.6568 83.5362 22.6744 83.5152 22.6877L82.5455 23.3025C82.5181 23.3201 82.4871 23.33 82.4553 23.3314Z" fill="#FFD700"/>
<path d="M84.728 28.0473H83.608C83.5592 28.0473 83.5123 28.026 83.4778 27.9881C83.4432 27.9502 83.4238 27.8988 83.4238 27.8452C83.4238 27.7916 83.4432 27.7401 83.4778 27.7022C83.5123 27.6643 83.5592 27.643 83.608 27.643H84.728C84.7769 27.643 84.8237 27.6643 84.8582 27.7022C84.8928 27.7401 84.9122 27.7916 84.9122 27.8452C84.9122 27.8988 84.8928 27.9502 84.8582 27.9881C84.8237 28.026 84.7769 28.0473 84.728 28.0473Z" fill="#FFD700"/>
<path d="M79.3083 19.8738C79.2751 19.8739 79.2426 19.8639 79.2143 19.8449C79.1931 19.8319 79.1745 19.8143 79.1595 19.7933C79.1446 19.7722 79.1336 19.7481 79.1273 19.7223C79.121 19.6966 79.1195 19.6697 79.1228 19.6432C79.1261 19.6168 79.1342 19.5914 79.1467 19.5684L79.7067 18.504C79.7313 18.4576 79.7715 18.4239 79.8187 18.4099C79.8658 18.396 79.9161 18.4031 79.9585 18.4297C79.9797 18.4427 79.9983 18.4603 80.0133 18.4813C80.0282 18.5024 80.0392 18.5265 80.0455 18.5522C80.0518 18.578 80.0533 18.6049 80.05 18.6313C80.0467 18.6578 80.0386 18.6832 80.0262 18.7061L79.4661 19.7706C79.4513 19.8024 79.4287 19.8289 79.4007 19.8471C79.3728 19.8654 79.3408 19.8746 79.3083 19.8738Z" fill="#FFD700"/>
<path d="M73.5282 34.4797C73.3105 34.4793 73.097 34.414 72.9106 34.2907C72.7241 34.1674 72.5718 33.9907 72.4698 33.7795C72.3678 33.5684 72.3201 33.3308 72.3318 33.0922C72.3435 32.8535 72.414 32.6229 72.536 32.4249C72.5637 32.3811 72.606 32.3509 72.6538 32.3409C72.7016 32.3309 72.751 32.3418 72.7916 32.3713C72.8117 32.3861 72.8289 32.4051 72.8423 32.4272C72.8557 32.4494 72.8649 32.4743 72.8695 32.5004C72.874 32.5265 72.8738 32.5533 72.8688 32.5793C72.8638 32.6053 72.8542 32.63 72.8404 32.6519C72.7468 32.8011 72.697 32.9782 72.6976 33.1594C72.6973 33.2793 72.7186 33.3981 72.7603 33.509C72.8019 33.6199 72.863 33.7206 72.9402 33.8055C73.0173 33.8904 73.109 33.9578 73.2099 34.0038C73.3108 34.0497 73.419 34.0734 73.5282 34.0734C73.6375 34.0734 73.7456 34.0497 73.8465 34.0038C73.9475 33.9578 74.0391 33.8904 74.1163 33.8055C74.1934 33.7206 74.2546 33.6199 74.2962 33.509C74.3378 33.3981 74.3591 33.2793 74.3588 33.1594V22.6547C74.3585 22.5637 74.3386 22.474 74.3006 22.393C74.2627 22.312 74.2079 22.2421 74.1406 22.1888C74.0733 22.1355 73.9955 22.1005 73.9136 22.0865C73.8316 22.0726 73.7478 22.0801 73.669 22.1085C73.5902 22.1368 73.5186 22.1853 73.4601 22.2498C73.4016 22.3144 73.3578 22.3932 73.3324 22.4799C73.3069 22.5665 73.3005 22.6586 73.3136 22.7485C73.3268 22.8384 73.3591 22.9236 73.4079 22.9972C73.4333 23.0411 73.4425 23.0939 73.4336 23.145C73.4247 23.1961 73.3984 23.2415 73.3601 23.272C73.3217 23.3025 73.2743 23.3158 73.2273 23.3092C73.1803 23.3026 73.1374 23.2766 73.1073 23.2365C73.0236 23.1107 72.9683 22.965 72.9458 22.8113C72.9233 22.6576 72.9343 22.5002 72.9778 22.352C73.0214 22.2038 73.0963 22.069 73.1965 21.9588C73.2966 21.8485 73.4191 21.7658 73.554 21.7175C73.6888 21.6692 73.8322 21.6566 73.9723 21.6808C74.1124 21.705 74.2453 21.7653 74.3601 21.8567C74.4749 21.9481 74.5684 22.0681 74.6329 22.2068C74.6973 22.3455 74.7309 22.499 74.7309 22.6547V33.1635C74.7293 33.5127 74.6019 33.847 74.3766 34.0936C74.1513 34.3401 73.8463 34.4789 73.5282 34.4797Z" fill="#989898"/>
<path d="M76.49 34.4797C76.1721 34.4795 75.8672 34.3407 75.6424 34.0939C75.4176 33.8472 75.2912 33.5125 75.291 33.1635V22.6548C75.291 22.4991 75.3246 22.3456 75.3891 22.2069C75.4535 22.0681 75.547 21.9482 75.6618 21.8567C75.7766 21.7653 75.9096 21.705 76.0497 21.6808C76.1898 21.6566 76.3332 21.6692 76.468 21.7175C76.6029 21.7658 76.7254 21.8485 76.8255 21.9588C76.9257 22.0691 77.0006 22.2038 77.0442 22.352C77.0877 22.5002 77.0987 22.6576 77.0762 22.8114C77.0537 22.9651 76.9984 23.1108 76.9147 23.2366C76.8846 23.2767 76.8417 23.3027 76.7947 23.3093C76.7477 23.3159 76.7002 23.3026 76.6619 23.2721C76.6235 23.2415 76.5972 23.1961 76.5883 23.1451C76.5794 23.094 76.5886 23.0411 76.614 22.9972C76.6633 22.9236 76.6959 22.8383 76.7093 22.7481C76.7227 22.658 76.7164 22.5657 76.691 22.4787C76.6656 22.3918 76.6218 22.3126 76.5632 22.2478C76.5046 22.183 76.4328 22.1344 76.3537 22.106C76.2747 22.0775 76.1906 22.07 76.1084 22.0841C76.0263 22.0982 75.9483 22.1334 75.8809 22.187C75.8135 22.2405 75.7586 22.3108 75.7208 22.3921C75.6829 22.4735 75.6632 22.5635 75.6631 22.6548V33.1635C75.6629 33.2835 75.6841 33.4023 75.7258 33.5132C75.7674 33.624 75.8285 33.7248 75.9057 33.8097C75.9829 33.8946 76.0745 33.962 76.1754 34.0079C76.2763 34.0539 76.3845 34.0776 76.4937 34.0776C76.603 34.0776 76.7112 34.0539 76.8121 34.0079C76.913 33.962 77.0046 33.8946 77.0818 33.8097C77.1589 33.7248 77.2201 33.624 77.2617 33.5132C77.3033 33.4023 77.3246 33.2835 77.3244 33.1635C77.325 32.9824 77.2752 32.8053 77.1815 32.6561C77.1541 32.6117 77.1439 32.5573 77.153 32.5047C77.1622 32.452 77.19 32.4056 77.2304 32.3755C77.2708 32.3454 77.3204 32.3341 77.3683 32.3442C77.4162 32.3543 77.4586 32.3848 77.486 32.4291C77.6085 32.627 77.6793 32.8579 77.691 33.0968C77.7026 33.3357 77.6546 33.5735 77.5521 33.7846C77.4495 33.9957 77.2964 34.172 77.1092 34.2945C76.922 34.4171 76.7079 34.4811 76.49 34.4797Z" fill="#989898"/>
<path d="M78.0227 33.4979C77.8175 33.4977 77.6149 33.4484 77.4288 33.3535C77.4065 33.3426 77.3864 33.327 77.3696 33.3075C77.3529 33.288 77.3398 33.2651 77.3312 33.24C77.3226 33.215 77.3186 33.1883 77.3195 33.1615C77.3203 33.1347 77.326 33.1084 77.3362 33.0841C77.3464 33.0597 77.361 33.0379 77.3789 33.0197C77.3969 33.0016 77.418 32.9876 77.4409 32.9785C77.4639 32.9694 77.4883 32.9654 77.5126 32.9667C77.537 32.9681 77.5609 32.9747 77.5829 32.9862C77.7111 33.0511 77.8499 33.0868 77.991 33.0913C78.132 33.0958 78.2725 33.069 78.4039 33.0125C78.5353 32.956 78.655 32.8709 78.7557 32.7624C78.8564 32.6539 78.9361 32.5241 78.9901 32.381C79.044 32.2378 79.071 32.0841 79.0696 31.9292C79.0681 31.7743 79.0382 31.6213 78.9815 31.4794C78.9249 31.3375 78.8427 31.2096 78.7399 31.1034C78.6372 30.9972 78.5159 30.9149 78.3835 30.8614C78.3605 30.8527 78.3393 30.8389 78.3212 30.821C78.3032 30.8031 78.2886 30.7813 78.2784 30.757C78.2682 30.7327 78.2626 30.7064 78.2619 30.6797C78.2613 30.6529 78.2655 30.6263 78.2745 30.6015C78.2827 30.5763 78.2953 30.5533 78.3117 30.5336C78.3281 30.514 78.3479 30.4981 78.37 30.4869C78.392 30.4758 78.4159 30.4696 78.4401 30.4687C78.4644 30.4678 78.4886 30.4723 78.5113 30.4818C78.8237 30.6077 79.0858 30.8504 79.2516 31.1672C79.4174 31.484 79.4763 31.8548 79.4181 32.2145C79.3598 32.5743 79.188 32.9 78.9329 33.1347C78.6778 33.3693 78.3555 33.4979 78.0227 33.4979Z" fill="#989898"/>
<path d="M78.632 30.1185C78.29 30.1179 77.9531 30.0283 77.6487 29.8571C77.3444 29.6859 77.0813 29.4379 76.8811 29.1336C76.6809 28.8293 76.5492 28.4772 76.4968 28.1062C76.4445 27.7352 76.4729 27.3559 76.5799 26.9993C76.5953 26.9484 76.6286 26.9064 76.6723 26.8824C76.716 26.8584 76.7666 26.8544 76.8129 26.8714C76.8593 26.8884 76.8976 26.9248 76.9194 26.9728C76.9413 27.0208 76.9449 27.0763 76.9294 27.1272C76.8381 27.4311 76.8156 27.7548 76.8637 28.0704C76.9118 28.386 77.0292 28.684 77.2057 28.9386C77.3821 29.1933 77.6124 29.397 77.8767 29.5321C78.1409 29.6672 78.4311 29.7297 78.7222 29.7142C78.7467 29.7124 78.7713 29.716 78.7945 29.7249C78.8178 29.7337 78.8391 29.7476 78.8573 29.7657C78.8756 29.7838 78.8903 29.8057 78.9007 29.8302C78.911 29.8546 78.9168 29.8811 78.9177 29.9081C78.9197 29.9621 78.9024 30.0149 78.8693 30.055C78.8363 30.0952 78.7902 30.1194 78.741 30.1226C78.7048 30.1191 78.6684 30.1178 78.632 30.1185ZM79.0718 31.4347C79.0314 31.4352 78.9921 31.4208 78.9601 31.3939C78.9281 31.367 78.9052 31.329 78.8951 31.2862C78.8826 31.2342 78.8889 31.1789 78.9127 31.132C78.9366 31.0851 78.9761 31.0501 79.0229 31.0345C79.2587 30.9615 79.4724 30.8209 79.6421 30.627C79.8119 30.4331 79.9314 30.1931 79.9885 29.9316C80.0456 29.6701 80.0381 29.3967 79.9668 29.1394C79.8955 28.8822 79.763 28.6505 79.5829 28.4682C79.5648 28.4501 79.5501 28.4282 79.5397 28.4038C79.5292 28.3795 79.5233 28.3531 79.5222 28.3262C79.5211 28.2993 79.5248 28.2724 79.5332 28.2471C79.5416 28.2218 79.5544 28.1986 79.571 28.1787C79.5876 28.1589 79.6076 28.1429 79.6298 28.1315C79.6521 28.1202 79.6762 28.1138 79.7007 28.1127C79.7252 28.1116 79.7496 28.1159 79.7726 28.1252C79.7956 28.1345 79.8167 28.1487 79.8347 28.167C80.0635 28.398 80.2319 28.6919 80.3226 29.0183C80.4133 29.3448 80.4229 29.6918 80.3505 30.0237C80.2781 30.3555 80.1262 30.6602 79.9107 30.906C79.6951 31.1519 79.4237 31.3302 79.1244 31.4224C79.1078 31.4304 79.0899 31.4346 79.0718 31.4347ZM77.6473 32.2516C77.4063 32.246 77.1706 32.1731 76.9623 32.0399C76.754 31.9067 76.5801 31.7175 76.4568 31.4901C76.3335 31.2628 76.2649 31.0047 76.2575 30.7402C76.2501 30.4757 76.3041 30.2135 76.4145 29.9783C76.437 29.9309 76.4758 29.8952 76.5222 29.8791C76.5686 29.863 76.619 29.8677 76.6623 29.8923C76.7055 29.9168 76.7381 29.9592 76.753 30.0101C76.7678 30.061 76.7637 30.1163 76.7415 30.1639C76.6634 30.3285 76.6227 30.5113 76.6228 30.6968C76.6229 30.8823 76.6638 31.0651 76.742 31.2295C76.8203 31.394 76.9335 31.5353 77.0721 31.6414C77.2108 31.7475 77.3707 31.8153 77.5383 31.8391C77.5834 31.8432 77.6285 31.8473 77.6698 31.8473C77.6943 31.8449 77.7189 31.8481 77.7422 31.8568C77.7654 31.8654 77.7868 31.8794 77.8048 31.8976C77.8229 31.9159 77.8373 31.9381 77.847 31.9628C77.8568 31.9876 77.8617 32.0143 77.8615 32.0412C77.8634 32.0948 77.8459 32.1471 77.8128 32.1865C77.7797 32.2259 77.7337 32.2494 77.6849 32.2516L77.6473 32.2516Z" fill="#989898"/>
<path d="M77.6286 28.5217H77.621C77.5722 28.5194 77.5262 28.496 77.4931 28.4565C77.46 28.4171 77.4425 28.3648 77.4444 28.3112C77.4463 28.2446 77.4539 28.1783 77.4669 28.1132C77.5647 27.5975 77.9706 27.222 78.4817 27.1807C78.5304 27.1771 78.5785 27.1945 78.6157 27.2292C78.6529 27.2638 78.6763 27.3131 78.6809 27.3664C78.6848 27.42 78.6692 27.4731 78.6375 27.5141C78.6058 27.5551 78.5606 27.5806 78.5118 27.5851C78.1698 27.614 77.8954 27.8615 77.8315 28.1998C77.824 28.2452 77.8202 28.2906 77.8165 28.3319C77.8138 28.3841 77.7927 28.4332 77.7576 28.4686C77.7225 28.504 77.6762 28.5231 77.6286 28.5217ZM76.1853 29.7512H76.1778C76.1289 29.7489 76.0829 29.7255 76.0498 29.6861C76.0167 29.6466 75.9992 29.5944 76.0011 29.5408C76.0031 29.4741 76.0106 29.4078 76.0237 29.3427C76.0652 29.1331 76.1583 28.9399 76.2928 28.7842C76.4273 28.6286 76.5981 28.5164 76.7866 28.4598C76.8335 28.4444 76.884 28.4502 76.927 28.4757C76.97 28.5013 77.002 28.5445 77.0159 28.5959C77.0299 28.6474 77.0246 28.7028 77.0014 28.75C76.9781 28.7972 76.9387 28.8323 76.8919 28.8476C76.7675 28.8834 76.6546 28.9563 76.5657 29.0583C76.4768 29.1603 76.4154 29.2873 76.3882 29.4252C76.38 29.4687 76.375 29.5129 76.3732 29.5572C76.3701 29.6097 76.349 29.6589 76.3141 29.6949C76.2792 29.7309 76.2332 29.751 76.1853 29.7512ZM79.2522 28.728C79.2087 28.7281 79.1665 28.7112 79.1334 28.6801C79.1003 28.6491 79.0785 28.606 79.0718 28.5588C79.0638 28.5058 79.075 28.4514 79.1031 28.4074C79.1313 28.3634 79.174 28.3333 79.2221 28.3236C79.4214 28.2858 79.6048 28.1806 79.7469 28.0226C79.8889 27.8647 79.9824 27.662 80.0143 27.4428C80.0462 27.2237 80.0149 26.999 79.9247 26.8004C79.8346 26.6017 79.6901 26.439 79.5116 26.3349C79.4707 26.3078 79.4408 26.2644 79.4283 26.2138C79.4157 26.1632 79.4214 26.1092 79.4441 26.0631C79.4668 26.0169 79.5048 25.9821 79.5503 25.9659C79.5957 25.9497 79.6451 25.9533 79.6882 25.976C79.9348 26.12 80.1342 26.3452 80.2586 26.6198C80.3829 26.8944 80.4259 27.2049 80.3816 27.5077C80.3373 27.8104 80.2078 28.0905 80.0114 28.3085C79.815 28.5266 79.5614 28.6718 79.286 28.7238C79.2748 28.7238 79.2635 28.728 79.2522 28.728Z" fill="#989898"/>
<path d="M79.2104 26.9209C79.1831 26.9208 79.1561 26.9141 79.1314 26.9013C79.1067 26.8884 79.0849 26.8698 79.0676 26.8466C79.0371 26.8051 79.0225 26.7523 79.0267 26.6993C79.0309 26.6462 79.0536 26.597 79.0901 26.5619C79.2889 26.3817 79.4321 26.1386 79.5003 25.8658C79.5685 25.5929 79.5583 25.3036 79.4711 25.0373C79.384 24.7711 79.2241 24.5408 79.0133 24.378C78.8025 24.2152 78.5511 24.1277 78.2933 24.1276C78.0801 24.1263 77.8702 24.186 77.6845 24.3009C77.6632 24.3139 77.6399 24.3222 77.6158 24.3253C77.5916 24.3284 77.5672 24.3262 77.5438 24.319C77.5204 24.3117 77.4985 24.2994 77.4795 24.2829C77.4604 24.2663 77.4445 24.2458 77.4326 24.2225C77.4208 24.1992 77.4133 24.1736 77.4104 24.1471C77.4076 24.1206 77.4096 24.0937 77.4162 24.0681C77.4228 24.0424 77.434 24.0184 77.4491 23.9975C77.4642 23.9765 77.4828 23.9591 77.5041 23.9461C77.8582 23.7309 78.2726 23.6684 78.6665 23.7709C79.0603 23.8734 79.4051 24.1335 79.6335 24.5003C79.8619 24.8671 79.9575 25.3142 79.9014 25.7543C79.8454 26.1943 79.6419 26.5956 79.3307 26.8796C79.2947 26.905 79.2532 26.9192 79.2104 26.9209Z" fill="#989898"/>
<path d="M78.1322 24.1359C78.0926 24.1361 78.0542 24.1216 78.0232 24.0946C77.9834 24.0628 77.9567 24.015 77.9489 23.9617C77.9412 23.9083 77.953 23.8538 77.9818 23.8099C78.0652 23.6841 78.1099 23.5324 78.1096 23.3767C78.1096 23.1776 78.0375 22.9866 77.9092 22.8458C77.7809 22.705 77.607 22.6258 77.4256 22.6258C77.2754 22.6241 77.1293 22.6795 77.0121 22.7826C76.9738 22.816 76.9249 22.8312 76.8762 22.825C76.8276 22.8189 76.7832 22.7917 76.7528 22.7496C76.7224 22.7075 76.7085 22.6538 76.7141 22.6004C76.7198 22.547 76.7445 22.4983 76.7829 22.4649C76.9662 22.3071 77.1926 22.2214 77.4256 22.2215C77.6195 22.2224 77.8095 22.2819 77.9746 22.3934C78.1398 22.505 78.2738 22.6644 78.3619 22.854C78.4501 23.0437 78.4889 23.2563 78.4742 23.4686C78.4596 23.6809 78.3919 23.8846 78.2787 24.0575C78.2614 24.082 78.2391 24.1018 78.2137 24.1154C78.1883 24.129 78.1604 24.136 78.1322 24.1359Z" fill="#989898"/>
<path d="M75.8815 25.0106C75.8499 25.0106 75.8189 25.0019 75.7912 24.9853C75.7636 24.9686 75.7402 24.9445 75.7234 24.9153C75.7065 24.886 75.6966 24.8526 75.6947 24.818C75.6928 24.7835 75.6988 24.7489 75.7123 24.7176C75.8128 24.4904 75.9778 24.3051 76.1826 24.1898C76.3873 24.0744 76.6206 24.0353 76.8474 24.0781C76.8714 24.0826 76.8944 24.0922 76.915 24.1064C76.9356 24.1207 76.9534 24.1393 76.9674 24.1612C76.9813 24.1831 76.9912 24.2078 76.9964 24.2339C77.0017 24.26 77.0021 24.287 76.9977 24.3133C76.9884 24.3659 76.9609 24.4125 76.9209 24.4432C76.881 24.474 76.8317 24.4866 76.7835 24.4783C76.6399 24.4503 76.4919 24.4737 76.3613 24.545C76.2307 24.6163 76.1244 24.7318 76.0581 24.8744C76.0447 24.9141 76.0206 24.9484 75.9891 24.9727C75.9575 24.997 75.92 25.0102 75.8815 25.0106Z" fill="#989898"/>
<path d="M71.9951 33.4976C71.6621 33.497 71.3399 33.3679 71.0849 33.1328C70.8299 32.8978 70.6582 32.5718 70.6 32.2119C70.5418 31.852 70.6007 31.4811 70.7664 31.164C70.9321 30.847 71.194 30.6039 71.5065 30.4775C71.5523 30.4589 71.603 30.461 71.6474 30.4835C71.6918 30.5059 71.7263 30.5468 71.7433 30.5971C71.7602 30.6475 71.7582 30.7031 71.7378 30.7519C71.7174 30.8006 71.6801 30.8384 71.6343 30.8571C71.5013 30.9102 71.3796 30.9923 71.2763 31.0984C71.1731 31.2046 71.0904 31.3326 71.0334 31.4747C70.9764 31.6168 70.9462 31.7701 70.9446 31.9254C70.943 32.0807 70.9701 32.2347 71.0241 32.3782C71.0782 32.5217 71.1582 32.6517 71.2592 32.7604C71.3603 32.8691 71.4803 32.9542 71.6121 33.0106C71.7439 33.067 71.8847 33.0935 72.0261 33.0886C72.1675 33.0837 72.3065 33.0474 72.4348 32.9819C72.4568 32.9706 72.4805 32.9642 72.5047 32.9631C72.5289 32.962 72.5531 32.9661 72.5758 32.9754C72.5985 32.9846 72.6194 32.9986 72.6371 33.0168C72.6548 33.0349 72.6691 33.0567 72.6791 33.0809C72.6898 33.1049 72.696 33.1311 72.6972 33.1578C72.6985 33.1845 72.6948 33.2112 72.6863 33.2362C72.6779 33.2613 72.6649 33.2842 72.6482 33.3036C72.6314 33.323 72.6113 33.3385 72.5889 33.3491C72.4037 33.4473 72.2007 33.4981 71.9951 33.4976Z" fill="#989898"/>
<path d="M71.3868 30.1186C71.3504 30.1194 71.314 30.118 71.2778 30.1145C71.2286 30.1113 71.1825 30.087 71.1495 30.0469C71.1164 30.0067 71.0991 29.954 71.1011 29.9C71.102 29.873 71.1078 29.8465 71.1181 29.8221C71.1285 29.7976 71.1432 29.7757 71.1615 29.7576C71.1797 29.7395 71.201 29.7256 71.2243 29.7168C71.2475 29.7079 71.2721 29.7043 71.2966 29.706C71.738 29.7322 72.1723 29.5762 72.5143 29.2687C72.7973 29.0166 73.0038 28.676 73.1065 28.2921C73.2092 27.9082 73.2032 27.4992 73.0894 27.1191C73.0817 27.0939 73.0787 27.0673 73.0804 27.0408C73.0821 27.0143 73.0885 26.9885 73.0994 26.9647C73.1102 26.9409 73.1252 26.9198 73.1434 26.9024C73.1617 26.885 73.1829 26.8717 73.2059 26.8633C73.2288 26.8549 73.2531 26.8515 73.2772 26.8534C73.3013 26.8553 73.3249 26.8624 73.3465 26.8743C73.3682 26.8861 73.3875 26.9026 73.4033 26.9226C73.4192 26.9427 73.4313 26.966 73.4389 26.9912C73.5754 27.4496 73.582 27.9427 73.4579 28.4053C73.3337 28.8679 73.0846 29.2783 72.7436 29.5823C72.3624 29.9298 71.8823 30.1196 71.3868 30.1186ZM70.947 31.4348C70.9305 31.4341 70.9141 31.4313 70.8982 31.4266C70.5988 31.3344 70.3274 31.1561 70.1118 30.9103C69.8963 30.6644 69.7445 30.3598 69.672 30.0279C69.5996 29.696 69.6093 29.349 69.6999 29.0226C69.7906 28.6961 69.959 28.4022 70.1878 28.1712C70.2242 28.1348 70.2723 28.1158 70.3215 28.1182C70.3707 28.1206 70.417 28.1444 70.4503 28.1842C70.4836 28.224 70.5011 28.2767 70.4991 28.3307C70.4971 28.3847 70.4757 28.4357 70.4396 28.4724C70.2596 28.6547 70.127 28.8864 70.0557 29.1436C69.9844 29.4009 69.9769 29.6744 70.034 29.9358C70.0911 30.1973 70.2106 30.4374 70.3804 30.6313C70.5501 30.8251 70.7639 30.9658 70.9996 31.0387C71.0233 31.0457 71.0454 31.0577 71.0647 31.0743C71.0841 31.0908 71.1002 31.1114 71.1121 31.1349C71.124 31.1583 71.1315 31.1842 71.1341 31.2109C71.1368 31.2376 71.1345 31.2647 71.1274 31.2904C71.1147 31.332 71.0905 31.3683 71.0582 31.3941C71.0258 31.42 70.987 31.4342 70.947 31.4348ZM72.3715 32.2517H72.3301C72.2833 32.2476 72.2396 32.2239 72.2081 32.1856C72.1766 32.1473 72.1596 32.0973 72.1605 32.0457C72.1615 31.9941 72.1804 31.9448 72.2133 31.908C72.2462 31.8711 72.2907 31.8495 72.3377 31.8474H72.3715C72.5487 31.8416 72.7217 31.7866 72.8744 31.6875C73.027 31.5885 73.1543 31.4486 73.2444 31.2809C73.3345 31.1132 73.3844 30.9232 73.3895 30.7286C73.3946 30.534 73.3547 30.3412 73.2735 30.1681C73.2513 30.1206 73.2472 30.0653 73.262 30.0144C73.2769 29.9634 73.3095 29.9211 73.3528 29.8965C73.396 29.8719 73.4464 29.8672 73.4928 29.8833C73.5392 29.8994 73.578 29.9351 73.6005 29.9825C73.6773 30.1433 73.727 30.318 73.7471 30.4982C73.7951 30.908 73.693 31.3218 73.4633 31.649C73.2336 31.9762 72.895 32.19 72.5218 32.2435C72.473 32.2476 72.4241 32.2517 72.3715 32.2517Z" fill="#989898"/>
<path d="M74.137 25.0108C74.0993 25.0109 74.0625 24.9983 74.0315 24.9747C74.0006 24.9511 73.9771 24.9176 73.9641 24.8787C73.8975 24.7364 73.7911 24.6212 73.6606 24.55C73.5301 24.4787 73.3823 24.4551 73.2387 24.4826C73.1904 24.4917 73.1407 24.4795 73.1006 24.4486C73.0605 24.4177 73.0331 24.3706 73.0245 24.3176C73.0201 24.2913 73.0205 24.2643 73.0257 24.2382C73.031 24.2121 73.0408 24.1874 73.0548 24.1655C73.0688 24.1436 73.0866 24.125 73.1072 24.1107C73.1278 24.0965 73.1508 24.0869 73.1748 24.0824C73.4016 24.0387 73.6353 24.0774 73.8402 24.1929C74.0451 24.3083 74.21 24.4941 74.3099 24.7219C74.3229 24.7534 74.3287 24.788 74.3267 24.8225C74.3247 24.857 74.3151 24.8905 74.2986 24.92C74.2796 24.9475 74.2552 24.97 74.2273 24.9857C74.1993 25.0014 74.1684 25.01 74.137 25.0108Z" fill="#989898"/>
<path d="M71.8853 24.1359C71.8561 24.1357 71.8274 24.1282 71.8014 24.1139C71.7753 24.0996 71.7526 24.0789 71.7349 24.0534C71.5859 23.8279 71.5161 23.551 71.5382 23.2735C71.5603 22.9959 71.6729 22.7365 71.8553 22.5428C72.0377 22.3491 72.2776 22.2342 72.531 22.2191C72.7844 22.2041 73.0342 22.2899 73.2346 22.4608C73.273 22.4942 73.2977 22.5429 73.3033 22.5963C73.309 22.6497 73.295 22.7034 73.2646 22.7455C73.2342 22.7876 73.1898 22.8148 73.1412 22.821C73.0926 22.8272 73.0437 22.8119 73.0053 22.7785C72.9042 22.6927 72.7832 22.6397 72.656 22.6255C72.5289 22.6114 72.4006 22.6367 72.2859 22.6986C72.1712 22.7605 72.0746 22.8565 72.0071 22.9756C71.9396 23.0948 71.9039 23.2323 71.9041 23.3726C71.9032 23.5284 71.948 23.6803 72.0319 23.8059C72.0607 23.8497 72.0725 23.9042 72.0647 23.9576C72.057 24.0109 72.0303 24.0587 71.9905 24.0906C71.9767 24.1055 71.9602 24.1172 71.9421 24.125C71.924 24.1328 71.9047 24.1365 71.8853 24.1359Z" fill="#989898"/>
<path d="M70.8071 26.9212C70.7648 26.9206 70.7238 26.9046 70.6906 26.8758C70.3799 26.5915 70.1768 26.1904 70.121 25.7506C70.0652 25.3108 70.1608 24.864 70.3891 24.4974C70.6173 24.1308 70.9619 23.8708 71.3554 23.7682C71.7489 23.6655 72.1632 23.7276 72.5172 23.9422C72.5601 23.9685 72.5917 24.0124 72.6051 24.0642C72.6185 24.1161 72.6126 24.1716 72.5887 24.2187C72.5647 24.2657 72.5248 24.3004 72.4775 24.3151C72.4303 24.3298 72.3797 24.3233 72.3368 24.2971C72.0639 24.1305 71.7441 24.0819 71.4403 24.1608C71.1364 24.2397 70.8703 24.4404 70.6943 24.7236C70.5183 25.0067 70.445 25.3518 70.4888 25.6912C70.5326 26.0306 70.6904 26.3398 70.9312 26.5581C70.95 26.5749 70.9656 26.5957 70.977 26.6192C70.9884 26.6428 70.9954 26.6686 70.9975 26.6952C70.9996 26.7217 70.9968 26.7485 70.9893 26.7739C70.9818 26.7992 70.9697 26.8227 70.9537 26.8428C70.9355 26.8663 70.9131 26.8853 70.8879 26.8988C70.8627 26.9123 70.8352 26.9199 70.8071 26.9212Z" fill="#989898"/>
<path d="M72.3865 28.5217C72.3391 28.5213 72.2935 28.501 72.2592 28.465C72.225 28.4289 72.2046 28.3798 72.2024 28.3277C72.2032 28.2845 72.1981 28.2414 72.1873 28.1998C72.1234 27.8574 71.8491 27.6098 71.507 27.581C71.4583 27.5764 71.4132 27.5508 71.3816 27.5099C71.3501 27.4689 71.3346 27.4158 71.3385 27.3624C71.3425 27.3089 71.3657 27.2593 71.4029 27.2245C71.4401 27.1896 71.4884 27.1724 71.5371 27.1766C72.0483 27.2179 72.4542 27.5933 72.5519 28.1132C72.5633 28.1786 72.5709 28.2448 72.5744 28.3113C72.5764 28.3648 72.5588 28.4171 72.5257 28.4565C72.4926 28.496 72.4466 28.5194 72.3978 28.5217L72.3865 28.5217ZM73.8335 29.7512C73.7861 29.7509 73.7405 29.7306 73.7063 29.6945C73.672 29.6584 73.6516 29.6093 73.6494 29.5573C73.6502 29.5141 73.6451 29.4709 73.6343 29.4294C73.6067 29.2912 73.5452 29.164 73.4564 29.0614C73.3676 28.9589 73.255 28.8849 73.1307 28.8476C73.1075 28.84 73.0859 28.8275 73.0671 28.8107C73.0483 28.794 73.0327 28.7733 73.0212 28.75C72.9979 28.7028 72.9927 28.6474 73.0067 28.5959C73.0206 28.5445 73.0526 28.5013 73.0956 28.4757C73.1386 28.4502 73.1891 28.4445 73.2359 28.4598C73.425 28.5166 73.5962 28.6294 73.7308 28.7859C73.8653 28.9423 73.9581 29.1364 73.9989 29.3468C74.0106 29.4122 74.0181 29.4784 74.0215 29.5449C74.0234 29.5985 74.0059 29.6507 73.9727 29.6902C73.9396 29.7296 73.8936 29.753 73.8448 29.7553C73.8433 29.7537 73.8416 29.7526 73.8396 29.7518C73.8377 29.7511 73.8356 29.7509 73.8335 29.7512ZM70.7666 28.728C70.7564 28.7289 70.7462 28.7275 70.7365 28.7238C70.4612 28.6718 70.2076 28.5266 70.0112 28.3085C69.8147 28.0905 69.6853 27.8104 69.641 27.5077C69.5967 27.2049 69.6397 26.8944 69.764 26.6198C69.8883 26.3452 70.0878 26.12 70.3344 25.976C70.3775 25.9533 70.4268 25.9497 70.4723 25.9659C70.5177 25.9821 70.5558 26.0169 70.5785 26.0631C70.6012 26.1092 70.6068 26.1632 70.5943 26.2138C70.5817 26.2644 70.5519 26.3078 70.511 26.3349C70.3324 26.439 70.188 26.6017 70.0978 26.8004C70.0077 26.999 69.9764 27.2237 70.0083 27.4428C70.0401 27.662 70.1337 27.8647 70.2757 28.0226C70.4177 28.1806 70.6012 28.2858 70.8004 28.3236C70.8244 28.328 70.8474 28.3377 70.868 28.3519C70.8886 28.3662 70.9064 28.3848 70.9204 28.4067C70.9344 28.4286 70.9443 28.4533 70.9495 28.4794C70.9547 28.5055 70.9551 28.5325 70.9508 28.5588C70.9422 28.6058 70.9193 28.6482 70.8858 28.679C70.8523 28.7097 70.8103 28.727 70.7666 28.728Z" fill="#989898"/>
<path d="M72.2541 25.7863C72.0783 25.7865 71.9046 25.7427 71.7464 25.6584C71.5882 25.574 71.4495 25.4513 71.3408 25.2995C71.3258 25.2786 71.3146 25.2547 71.308 25.2291C71.3013 25.2035 71.2994 25.1767 71.3022 25.1503C71.3049 25.1239 71.3125 25.0983 71.3243 25.075C71.336 25.0518 71.3519 25.0313 71.3709 25.0148C71.3899 24.9983 71.4117 24.986 71.435 24.9787C71.4583 24.9714 71.4827 24.9693 71.5068 24.9723C71.5309 24.9754 71.5542 24.9836 71.5754 24.9966C71.5965 25.0095 71.6152 25.0269 71.6302 25.0478C71.7517 25.2163 71.9257 25.3294 72.1187 25.3652C72.3117 25.401 72.5099 25.357 72.6751 25.2417C72.7622 25.1804 72.8373 25.1007 72.896 25.0072C72.9547 24.9137 72.9959 24.8083 73.0171 24.6971C73.0469 24.5465 73.0396 24.3899 72.996 24.2434C72.9524 24.097 72.8741 23.9659 72.7691 23.8637C72.7328 23.828 72.7108 23.7781 72.708 23.7247C72.7052 23.6714 72.7217 23.619 72.754 23.579C72.7872 23.539 72.8333 23.5149 72.8825 23.5118C72.9317 23.5088 72.98 23.5269 73.0171 23.5625C73.1511 23.693 73.2558 23.8557 73.323 24.038C73.3903 24.2203 73.4183 24.4171 73.4048 24.6132C73.3914 24.8093 73.3368 24.9993 73.2454 25.1685C73.1541 25.3376 73.0283 25.4813 72.878 25.5883C72.691 25.717 72.4749 25.7856 72.2541 25.7863ZM70.9687 27.8369C70.8417 27.8373 70.7161 27.8077 70.6004 27.7503C70.5508 27.7255 70.5031 27.6965 70.4576 27.6636C70.4172 27.6335 70.3894 27.5871 70.3802 27.5345C70.3711 27.4818 70.3813 27.4274 70.4087 27.3831C70.4361 27.3388 70.4785 27.3082 70.5264 27.2981C70.5743 27.2881 70.6239 27.2993 70.6643 27.3294C70.6897 27.3499 70.7175 27.3666 70.747 27.3789C70.8176 27.4126 70.8937 27.43 70.9706 27.43C71.0476 27.43 71.1237 27.4126 71.1943 27.3789C71.3494 27.3055 71.4732 27.1697 71.54 26.9994C71.5572 26.9553 71.571 26.9097 71.5814 26.8632C71.5925 26.8108 71.6221 26.7653 71.6636 26.7367C71.7051 26.7081 71.7553 26.6987 71.8031 26.7105C71.8506 26.7233 71.8917 26.7559 71.9176 26.8013C71.9436 26.8468 71.9524 26.9015 71.9422 26.954C71.9277 27.0264 71.9063 27.0969 71.8783 27.1644C71.7728 27.4295 71.5793 27.6405 71.3371 27.7544C71.2204 27.8082 71.0953 27.8362 70.9687 27.8369Z" fill="#989898"/>
<path d="M2.53881 60.6156V63.3559H5.76269V64.6051H2.53881V67.4663H6.16567V68.7156H1.00746V59.3663H6.16567V60.6156H2.53881ZM17.0115 61.1932C17.5936 61.1932 18.113 61.3141 18.5697 61.5559C19.0354 61.7977 19.3981 62.1559 19.6578 62.6305C19.9265 63.1051 20.0608 63.6783 20.0608 64.3499V68.7156H18.5429V64.5783C18.5429 63.9156 18.3772 63.4096 18.0459 63.0604C17.7145 62.7021 17.2623 62.523 16.6891 62.523C16.116 62.523 15.6593 62.7021 15.319 63.0604C14.9877 63.4096 14.822 63.9156 14.822 64.5783V68.7156H13.3041V64.5783C13.3041 63.9156 13.1384 63.4096 12.8071 63.0604C12.4757 62.7021 12.0235 62.523 11.4503 62.523C10.8772 62.523 10.4205 62.7021 10.0802 63.0604C9.74885 63.4096 9.58317 63.9156 9.58317 64.5783V68.7156H8.05183V61.3141H9.58317V62.1604C9.83392 61.8559 10.1518 61.6186 10.5369 61.4484C10.922 61.2783 11.3339 61.1932 11.7727 61.1932C12.3638 61.1932 12.8921 61.3186 13.3578 61.5693C13.8235 61.8201 14.1817 62.1827 14.4324 62.6574C14.6563 62.2096 15.0056 61.8559 15.4802 61.5962C15.9548 61.3275 16.4653 61.1932 17.0115 61.1932ZM23.5407 62.4021C23.8004 62.0618 24.1542 61.7753 24.6019 61.5424C25.0497 61.3096 25.5557 61.1932 26.1198 61.1932C26.7646 61.1932 27.3512 61.3544 27.8795 61.6768C28.4169 61.9902 28.8377 62.4335 29.1422 63.0066C29.4467 63.5798 29.5989 64.238 29.5989 64.9812C29.5989 65.7245 29.4467 66.3917 29.1422 66.9827C28.8377 67.5648 28.4169 68.0215 27.8795 68.3529C27.3512 68.6753 26.7646 68.8365 26.1198 68.8365C25.5557 68.8365 25.0542 68.7245 24.6154 68.5007C24.1766 68.2678 23.8183 67.9812 23.5407 67.6409V72.235H22.0094V61.3141H23.5407V62.4021ZM28.0407 64.9812C28.0407 64.4708 27.9333 64.032 27.7183 63.6648C27.5124 63.2887 27.2348 63.0066 26.8855 62.8186C26.5452 62.6215 26.178 62.523 25.784 62.523C25.3989 62.523 25.0318 62.6215 24.6825 62.8186C24.3422 63.0156 24.0646 63.3021 23.8497 63.6783C23.6437 64.0544 23.5407 64.4977 23.5407 65.0081C23.5407 65.5186 23.6437 65.9663 23.8497 66.3514C24.0646 66.7275 24.3422 67.0141 24.6825 67.2111C25.0318 67.4081 25.3989 67.5066 25.784 67.5066C26.178 67.5066 26.5452 67.4081 26.8855 67.2111C27.2348 67.0051 27.5124 66.7096 27.7183 66.3245C27.9333 65.9395 28.0407 65.4917 28.0407 64.9812ZM34.3237 68.8365C33.6252 68.8365 32.9939 68.6798 32.4297 68.3663C31.8655 68.0439 31.4222 67.5962 31.0998 67.023C30.7775 66.4409 30.6163 65.7693 30.6163 65.0081C30.6163 64.2559 30.7819 63.5887 31.1133 63.0066C31.4446 62.4245 31.8969 61.9768 32.47 61.6633C33.0431 61.3499 33.6834 61.1932 34.3909 61.1932C35.0984 61.1932 35.7387 61.3499 36.3118 61.6633C36.8849 61.9768 37.3372 62.4245 37.6685 63.0066C37.9999 63.5887 38.1655 64.2559 38.1655 65.0081C38.1655 65.7604 37.9954 66.4275 37.6551 67.0096C37.3148 67.5917 36.8491 68.0439 36.2581 68.3663C35.676 68.6798 35.0312 68.8365 34.3237 68.8365ZM34.3237 67.5066C34.7178 67.5066 35.0849 67.4126 35.4252 67.2245C35.7745 67.0365 36.0566 66.7544 36.2715 66.3783C36.4864 66.0021 36.5939 65.5454 36.5939 65.0081C36.5939 64.4708 36.4909 64.0186 36.2849 63.6514C36.079 63.2753 35.8058 62.9932 35.4655 62.8051C35.1252 62.6171 34.7581 62.523 34.364 62.523C33.97 62.523 33.6028 62.6171 33.2625 62.8051C32.9312 62.9932 32.667 63.2753 32.47 63.6514C32.273 64.0186 32.1745 64.4708 32.1745 65.0081C32.1745 65.8051 32.376 66.423 32.779 66.8618C33.1909 67.2917 33.7058 67.5066 34.3237 67.5066ZM49.6196 61.3141L47.3226 68.7156H45.7107L44.2196 63.2484L42.7286 68.7156H41.1167L38.8062 61.3141H40.3644L41.9092 67.2648L43.4808 61.3141H45.0793L46.5838 67.238L48.1152 61.3141H49.6196ZM57.5476 64.8335C57.5476 65.1111 57.5297 65.3618 57.4939 65.5857H51.8387C51.8835 66.1768 52.1029 66.6514 52.4969 67.0096C52.8909 67.3678 53.3745 67.5469 53.9476 67.5469C54.7715 67.5469 55.3536 67.2021 55.6939 66.5126H57.3461C57.1223 67.1932 56.7148 67.7529 56.1238 68.1917C55.5417 68.6215 54.8163 68.8365 53.9476 68.8365C53.2402 68.8365 52.6044 68.6798 52.0402 68.3663C51.485 68.0439 51.0461 67.5962 50.7238 67.023C50.4103 66.4409 50.2536 65.7693 50.2536 65.0081C50.2536 64.2469 50.4058 63.5798 50.7103 63.0066C51.0238 62.4245 51.4581 61.9768 52.0133 61.6633C52.5775 61.3499 53.2223 61.1932 53.9476 61.1932C54.6461 61.1932 55.2685 61.3454 55.8148 61.6499C56.3611 61.9544 56.7864 62.3842 57.0909 62.9395C57.3954 63.4857 57.5476 64.1171 57.5476 64.8335ZM55.9491 64.3499C55.9402 63.7857 55.7387 63.3335 55.3447 62.9932C54.9506 62.6529 54.4626 62.4827 53.8805 62.4827C53.3521 62.4827 52.8999 62.6529 52.5238 62.9932C52.1476 63.3245 51.9238 63.7768 51.8521 64.3499H55.9491ZM60.586 62.3887C60.8099 62.0126 61.1054 61.7215 61.4725 61.5156C61.8487 61.3007 62.2919 61.1932 62.8024 61.1932V62.7783H62.4128C61.8128 62.7783 61.3561 62.9305 61.0427 63.235C60.7382 63.5395 60.586 64.0678 60.586 64.8201V68.7156H59.0546V61.3141H60.586V62.3887ZM70.9936 64.8335C70.9936 65.1111 70.9757 65.3618 70.9399 65.5857H65.2846C65.3294 66.1768 65.5488 66.6514 65.9428 67.0096C66.3369 67.3678 66.8205 67.5469 67.3936 67.5469C68.2175 67.5469 68.7996 67.2021 69.1399 66.5126H70.7921C70.5682 67.1932 70.1608 67.7529 69.5697 68.1917C68.9876 68.6215 68.2622 68.8365 67.3936 68.8365C66.6861 68.8365 66.0503 68.6798 65.4861 68.3663C64.9309 68.0439 64.4921 67.5962 64.1697 67.023C63.8563 66.4409 63.6996 65.7693 63.6996 65.0081C63.6996 64.2469 63.8518 63.5798 64.1563 63.0066C64.4697 62.4245 64.904 61.9768 65.4593 61.6633C66.0234 61.3499 66.6682 61.1932 67.3936 61.1932C68.0921 61.1932 68.7145 61.3454 69.2608 61.6499C69.807 61.9544 70.2324 62.3842 70.5369 62.9395C70.8414 63.4857 70.9936 64.1171 70.9936 64.8335ZM69.3951 64.3499C69.3861 63.7857 69.1846 63.3335 68.7906 62.9932C68.3966 62.6529 67.9085 62.4827 67.3264 62.4827C66.7981 62.4827 66.3458 62.6529 65.9697 62.9932C65.5936 63.3245 65.3697 63.7768 65.2981 64.3499H69.3951ZM71.9901 64.9812C71.9901 64.238 72.1424 63.5798 72.4469 63.0066C72.7603 62.4335 73.1812 61.9902 73.7095 61.6768C74.2469 61.3544 74.8424 61.1932 75.4961 61.1932C75.9797 61.1932 76.4543 61.3007 76.92 61.5156C77.3946 61.7215 77.7707 61.9992 78.0484 62.3484V58.7753H79.5931V68.7156H78.0484V67.6007C77.7976 67.9589 77.4484 68.2544 77.0006 68.4872C76.5618 68.7201 76.0558 68.8365 75.4827 68.8365C74.8379 68.8365 74.2469 68.6753 73.7095 68.3529C73.1812 68.0215 72.7603 67.5648 72.4469 66.9827C72.1424 66.3917 71.9901 65.7245 71.9901 64.9812ZM78.0484 65.0081C78.0484 64.4977 77.9409 64.0544 77.726 63.6783C77.52 63.3021 77.2469 63.0156 76.9066 62.8186C76.5663 62.6215 76.1991 62.523 75.8051 62.523C75.411 62.523 75.0439 62.6215 74.7036 62.8186C74.3633 63.0066 74.0857 63.2887 73.8707 63.6648C73.6648 64.032 73.5618 64.4708 73.5618 64.9812C73.5618 65.4917 73.6648 65.9395 73.8707 66.3245C74.0857 66.7096 74.3633 67.0051 74.7036 67.2111C75.0528 67.4081 75.42 67.5066 75.8051 67.5066C76.1991 67.5066 76.5663 67.4081 76.9066 67.2111C77.2469 67.0141 77.52 66.7275 77.726 66.3514C77.9409 65.9663 78.0484 65.5186 78.0484 65.0081ZM86.6252 67.4798H89.7819V68.7156H85.0939V59.3798H86.6252V67.4798ZM97.8461 64.8335C97.8461 65.1111 97.8282 65.3618 97.7924 65.5857H92.1372C92.182 66.1768 92.4014 66.6514 92.7954 67.0096C93.1894 67.3678 93.673 67.5469 94.2461 67.5469C95.07 67.5469 95.6521 67.2021 95.9924 66.5126H97.6447C97.4208 67.1932 97.0133 67.7529 96.4223 68.1917C95.8402 68.6215 95.1148 68.8365 94.2461 68.8365C93.5387 68.8365 92.9029 68.6798 92.3387 68.3663C91.7835 68.0439 91.3447 67.5962 91.0223 67.023C90.7088 66.4409 90.5521 65.7693 90.5521 65.0081C90.5521 64.2469 90.7044 63.5798 91.0088 63.0066C91.3223 62.4245 91.7566 61.9768 92.3118 61.6633C92.876 61.3499 93.5208 61.1932 94.2461 61.1932C94.9447 61.1932 95.567 61.3454 96.1133 61.6499C96.6596 61.9544 97.085 62.3842 97.3894 62.9395C97.6939 63.4857 97.8461 64.1171 97.8461 64.8335ZM96.2476 64.3499C96.2387 63.7857 96.0372 63.3335 95.6432 62.9932C95.2491 62.6529 94.7611 62.4827 94.179 62.4827C93.6506 62.4827 93.1984 62.6529 92.8223 62.9932C92.4461 63.3245 92.2223 63.7768 92.1506 64.3499H96.2476ZM98.8427 64.9812C98.8427 64.238 98.9949 63.5798 99.2994 63.0066C99.6128 62.4335 100.034 61.9902 100.562 61.6768C101.099 61.3544 101.69 61.1932 102.335 61.1932C102.917 61.1932 103.423 61.3096 103.853 61.5424C104.292 61.7663 104.641 62.0484 104.901 62.3887V61.3141H106.446V68.7156H104.901V67.6141C104.641 67.9633 104.287 68.2544 103.84 68.4872C103.392 68.7201 102.882 68.8365 102.308 68.8365C101.673 68.8365 101.09 68.6753 100.562 68.3529C100.034 68.0215 99.6128 67.5648 99.2994 66.9827C98.9949 66.3917 98.8427 65.7245 98.8427 64.9812ZM104.901 65.0081C104.901 64.4977 104.793 64.0544 104.579 63.6783C104.373 63.3021 104.099 63.0156 103.759 62.8186C103.419 62.6215 103.052 62.523 102.658 62.523C102.264 62.523 101.896 62.6215 101.556 62.8186C101.216 63.0066 100.938 63.2887 100.723 63.6648C100.517 64.032 100.414 64.4708 100.414 64.9812C100.414 65.4917 100.517 65.9395 100.723 66.3245C100.938 66.7096 101.216 67.0051 101.556 67.2111C101.905 67.4081 102.273 67.5066 102.658 67.5066C103.052 67.5066 103.419 67.4081 103.759 67.2111C104.099 67.0141 104.373 66.7275 104.579 66.3514C104.793 65.9663 104.901 65.5186 104.901 65.0081ZM109.988 62.3887C110.212 62.0126 110.508 61.7215 110.875 61.5156C111.251 61.3007 111.694 61.1932 112.205 61.1932V62.7783H111.815C111.215 62.7783 110.759 62.9305 110.445 63.235C110.141 63.5395 109.988 64.0678 109.988 64.8201V68.7156H108.457V61.3141H109.988V62.3887ZM117.347 61.1932C117.929 61.1932 118.448 61.3141 118.905 61.5559C119.371 61.7977 119.733 62.1559 119.993 62.6305C120.253 63.1051 120.383 63.6783 120.383 64.3499V68.7156H118.865V64.5783C118.865 63.9156 118.699 63.4096 118.368 63.0604C118.036 62.7021 117.584 62.523 117.011 62.523C116.438 62.523 115.981 62.7021 115.641 63.0604C115.309 63.4096 115.144 63.9156 115.144 64.5783V68.7156H113.612V61.3141H115.144V62.1604C115.395 61.8559 115.712 61.6186 116.097 61.4484C116.492 61.2783 116.908 61.1932 117.347 61.1932ZM123.115 60.3335C122.837 60.3335 122.605 60.2395 122.416 60.0514C122.228 59.8633 122.134 59.6305 122.134 59.3529C122.134 59.0753 122.228 58.8424 122.416 58.6544C122.605 58.4663 122.837 58.3723 123.115 58.3723C123.384 58.3723 123.612 58.4663 123.8 58.6544C123.988 58.8424 124.082 59.0753 124.082 59.3529C124.082 59.6305 123.988 59.8633 123.8 60.0514C123.612 60.2395 123.384 60.3335 123.115 60.3335ZM123.867 61.3141V68.7156H122.336V61.3141H123.867ZM129.612 61.1932C130.194 61.1932 130.714 61.3141 131.17 61.5559C131.636 61.7977 131.999 62.1559 132.258 62.6305C132.518 63.1051 132.648 63.6783 132.648 64.3499V68.7156H131.13V64.5783C131.13 63.9156 130.964 63.4096 130.633 63.0604C130.302 62.7021 129.849 62.523 129.276 62.523C128.703 62.523 128.246 62.7021 127.906 63.0604C127.575 63.4096 127.409 63.9156 127.409 64.5783V68.7156H125.878V61.3141H127.409V62.1604C127.66 61.8559 127.978 61.6186 128.363 61.4484C128.757 61.2783 129.173 61.1932 129.612 61.1932ZM137.583 61.1932C138.156 61.1932 138.662 61.3096 139.101 61.5424C139.549 61.7663 139.898 62.0484 140.149 62.3887V61.3141H141.694V68.8365C141.694 69.5171 141.55 70.1215 141.264 70.6499C140.977 71.1872 140.561 71.6081 140.015 71.9126C139.477 72.2171 138.833 72.3693 138.08 72.3693C137.077 72.3693 136.244 72.132 135.582 71.6574C134.919 71.1917 134.543 70.5559 134.453 69.7499H135.971C136.088 70.135 136.334 70.4439 136.71 70.6768C137.095 70.9186 137.552 71.0395 138.08 71.0395C138.698 71.0395 139.195 70.8514 139.571 70.4753C139.956 70.0992 140.149 69.5529 140.149 68.8365V67.6007C139.889 67.9499 139.536 68.2454 139.088 68.4872C138.649 68.7201 138.147 68.8365 137.583 68.8365C136.939 68.8365 136.347 68.6753 135.81 68.3529C135.282 68.0215 134.861 67.5648 134.547 66.9827C134.243 66.3917 134.091 65.7245 134.091 64.9812C134.091 64.238 134.243 63.5798 134.547 63.0066C134.861 62.4335 135.282 61.9902 135.81 61.6768C136.347 61.3544 136.939 61.1932 137.583 61.1932ZM140.149 65.0081C140.149 64.4977 140.042 64.0544 139.827 63.6783C139.621 63.3021 139.347 63.0156 139.007 62.8186C138.667 62.6215 138.3 62.523 137.906 62.523C137.512 62.523 137.144 62.6215 136.804 62.8186C136.464 63.0066 136.186 63.2887 135.971 63.6648C135.765 64.032 135.662 64.4708 135.662 64.9812C135.662 65.4917 135.765 65.9395 135.971 66.3245C136.186 66.7096 136.464 67.0051 136.804 67.2111C137.153 67.4081 137.521 67.5066 137.906 67.5066C138.3 67.5066 138.667 67.4081 139.007 67.2111C139.347 67.0141 139.621 66.7275 139.827 66.3514C140.042 65.9663 140.149 65.5186 140.149 65.0081ZM146.392 68.8365C145.81 68.8365 145.286 68.7335 144.82 68.5275C144.363 68.3126 144.001 68.026 143.732 67.6678C143.463 67.3007 143.32 66.8932 143.302 66.4454H144.887C144.914 66.7589 145.062 67.023 145.33 67.238C145.608 67.4439 145.953 67.5469 146.365 67.5469C146.795 67.5469 147.126 67.4663 147.359 67.3051C147.601 67.135 147.722 66.9201 147.722 66.6604C147.722 66.3827 147.587 66.1768 147.319 66.0424C147.059 65.9081 146.642 65.7604 146.069 65.5992C145.514 65.4469 145.062 65.2992 144.713 65.1559C144.363 65.0126 144.059 64.7932 143.799 64.4977C143.548 64.2021 143.423 63.8126 143.423 63.329C143.423 62.935 143.539 62.5768 143.772 62.2544C144.005 61.923 144.336 61.6633 144.766 61.4753C145.205 61.2872 145.707 61.1932 146.271 61.1932C147.113 61.1932 147.789 61.4081 148.299 61.838C148.819 62.2589 149.096 62.8365 149.132 63.5708H147.601C147.574 63.2395 147.439 62.9753 147.198 62.7783C146.956 62.5812 146.629 62.4827 146.217 62.4827C145.814 62.4827 145.505 62.5589 145.29 62.7111C145.075 62.8633 144.968 63.0648 144.968 63.3156C144.968 63.5126 145.039 63.6783 145.183 63.8126C145.326 63.9469 145.501 64.0544 145.707 64.135C145.913 64.2066 146.217 64.3007 146.62 64.4171C147.157 64.5604 147.596 64.7081 147.936 64.8604C148.286 65.0036 148.586 65.2186 148.836 65.5051C149.087 65.7917 149.217 66.1723 149.226 66.6469C149.226 67.0678 149.11 67.4439 148.877 67.7753C148.644 68.1066 148.313 68.3663 147.883 68.5544C147.462 68.7424 146.965 68.8365 146.392 68.8365Z" fill="#4A148C"/>
</svg>
