<svg width="91" height="75" viewBox="0 0 91 75" fill="none" xmlns="http://www.w3.org/2000/svg">
<path d="M1.55833 61.9599V71.4602H0V61.9599H1.55833ZM12.7219 63.8053C13.3143 63.8053 13.8429 63.9283 14.3076 64.1743C14.7815 64.4204 15.1506 64.7849 15.4149 65.2679C15.6882 65.7509 15.8249 66.3341 15.8249 67.0176V71.4602H14.2803V67.25C14.2803 66.5756 14.1117 66.0607 13.7745 65.7053C13.4373 65.3408 12.9771 65.1585 12.3939 65.1585C11.8106 65.1585 11.3459 65.3408 10.9996 65.7053C10.6624 66.0607 10.4938 66.5756 10.4938 67.25V71.4602H8.94909V67.25C8.94909 66.5756 8.7805 66.0607 8.44332 65.7053C8.10614 65.3408 7.64593 65.1585 7.06269 65.1585C6.47945 65.1585 6.01469 65.3408 5.66839 65.7053C5.33121 66.0607 5.16262 66.5756 5.16262 67.25V71.4602H3.60428V63.9283H5.16262V64.7895C5.41778 64.4796 5.7413 64.2381 6.13316 64.065C6.52502 63.8918 6.94422 63.8053 7.39076 63.8053C7.99222 63.8053 8.52989 63.9328 9.00377 64.188C9.47765 64.4432 9.84217 64.8122 10.0973 65.2952C10.3252 64.8396 10.6806 64.4796 11.1636 64.2153C11.6466 63.9419 12.1661 63.8053 12.7219 63.8053ZM26.9255 63.8053C27.5178 63.8053 28.0464 63.9283 28.5111 64.1743C28.985 64.4204 29.3541 64.7849 29.6184 65.2679C29.8918 65.7509 30.0284 66.3341 30.0284 67.0176V71.4602H28.4838V67.25C28.4838 66.5756 28.3152 66.0607 27.978 65.7053C27.6408 65.3408 27.1806 65.1585 26.5974 65.1585C26.0141 65.1585 25.5494 65.3408 25.2031 65.7053C24.8659 66.0607 24.6973 66.5756 24.6973 67.25V71.4602H23.1526V67.25C23.1526 66.5756 22.9841 66.0607 22.6469 65.7053C22.3097 65.3408 21.8495 65.1585 21.2662 65.1585C20.683 65.1585 20.2182 65.3408 19.8719 65.7053C19.5348 66.0607 19.3662 66.5756 19.3662 67.25V71.4602H17.8078V63.9283H19.3662V64.7895C19.6213 64.4796 19.9448 64.2381 20.3367 64.065C20.7286 63.8918 21.1478 63.8053 21.5943 63.8053C22.1958 63.8053 22.7334 63.9328 23.2073 64.188C23.6812 64.4432 24.0457 64.8122 24.3009 65.2952C24.5287 64.8396 24.8841 64.4796 25.3671 64.2153C25.8501 63.9419 26.3696 63.8053 26.9255 63.8053ZM38.9146 67.5097C38.9146 67.7922 38.8964 68.0474 38.8599 68.2752H33.105C33.1506 68.8767 33.3739 69.3597 33.7748 69.7242C34.1758 70.0887 34.6679 70.271 35.2511 70.271C36.0895 70.271 36.6819 69.9201 37.0282 69.2184H38.7095C38.4817 69.911 38.0671 70.4806 37.4656 70.9271C36.8733 71.3645 36.1351 71.5833 35.2511 71.5833C34.5312 71.5833 33.8842 71.4238 33.3101 71.1048C32.7451 70.7767 32.2985 70.3211 31.9704 69.7379C31.6515 69.1455 31.492 68.462 31.492 67.6874C31.492 66.9128 31.6469 66.2339 31.9568 65.6507C32.2757 65.0583 32.7177 64.6026 33.2827 64.2837C33.8568 63.9647 34.513 63.8053 35.2511 63.8053C35.962 63.8053 36.5953 63.9602 37.1512 64.27C37.7071 64.5799 38.14 65.0173 38.4498 65.5823C38.7597 66.1382 38.9146 66.7807 38.9146 67.5097ZM37.2879 67.0176C37.2788 66.4435 37.0738 65.9833 36.6728 65.637C36.2718 65.2907 35.7751 65.1175 35.1828 65.1175C34.6451 65.1175 34.1849 65.2907 33.8022 65.637C33.4194 65.9742 33.1916 66.4344 33.1187 67.0176H37.2879ZM42.0064 65.0218C42.2343 64.6391 42.535 64.3429 42.9086 64.1333C43.2914 63.9146 43.7425 63.8053 44.2619 63.8053V65.4183H43.8655C43.2549 65.4183 42.7901 65.5732 42.4712 65.883C42.1613 66.1929 42.0064 66.7305 42.0064 67.496V71.4602H40.4481V63.9283H42.0064V65.0218ZM48.4283 71.5833C47.8359 71.5833 47.3028 71.4785 46.8289 71.2689C46.3642 71.0501 45.9951 70.7585 45.7217 70.394C45.4483 70.0204 45.3025 69.6057 45.2843 69.1501H46.8973C46.9246 69.469 47.075 69.7379 47.3484 69.9566C47.6309 70.1662 47.9817 70.271 48.4009 70.271C48.8384 70.271 49.1756 70.189 49.4125 70.0249C49.6586 69.8518 49.7816 69.6331 49.7816 69.3688C49.7816 69.0863 49.6449 68.8767 49.3715 68.74C49.1072 68.6033 48.6835 68.4529 48.1002 68.2889C47.5352 68.134 47.075 67.9836 46.7196 67.8378C46.3642 67.692 46.0543 67.4687 45.7901 67.168C45.5349 66.8672 45.4073 66.4708 45.4073 65.9787C45.4073 65.5777 45.5258 65.2132 45.7627 64.8852C45.9997 64.548 46.3368 64.2837 46.7743 64.0923C47.2208 63.9009 47.7311 63.8053 48.3053 63.8053C49.1619 63.8053 49.8499 64.024 50.3694 64.4614C50.8979 64.8897 51.1804 65.4775 51.2169 66.2248H49.6585C49.6312 65.8876 49.4945 65.6188 49.2485 65.4183C49.0024 65.2178 48.6698 65.1175 48.2506 65.1175C47.8405 65.1175 47.5261 65.195 47.3074 65.3499C47.0887 65.5048 46.9793 65.7099 46.9793 65.9651C46.9793 66.1655 47.0522 66.3341 47.198 66.4708C47.3438 66.6075 47.5215 66.7169 47.7311 66.7989C47.9407 66.8718 48.2506 66.9675 48.6607 67.086C49.2074 67.2318 49.654 67.3821 50.0003 67.5371C50.3557 67.6829 50.661 67.9016 50.9162 68.1932C51.1713 68.4848 51.3035 68.8721 51.3126 69.3551C51.3126 69.7834 51.1941 70.1662 50.9572 70.5034C50.7202 70.8405 50.383 71.1048 49.9456 71.2962C49.5173 71.4876 49.0115 71.5833 48.4283 71.5833ZM52.4769 67.6601C52.4769 66.9037 52.6318 66.2339 52.9416 65.6507C53.2606 65.0674 53.6889 64.6163 54.2266 64.2974C54.7734 63.9693 55.3748 63.8053 56.031 63.8053C56.6233 63.8053 57.1382 63.9237 57.5756 64.1607C58.0222 64.3885 58.3776 64.6756 58.6419 65.0218V63.9283H60.2139V71.4602H58.6419V70.3393C58.3776 70.6947 58.0176 70.9909 57.562 71.2278C57.1063 71.4648 56.5869 71.5833 56.0036 71.5833C55.3566 71.5833 54.7643 71.4192 54.2266 71.0911C53.6889 70.754 53.2606 70.2892 52.9416 69.6968C52.6318 69.0954 52.4769 68.4165 52.4769 67.6601ZM58.6419 67.6874C58.6419 67.168 58.5325 66.7169 58.3138 66.3341C58.1042 65.9514 57.8262 65.6598 57.4799 65.4593C57.1337 65.2588 56.76 65.1585 56.359 65.1585C55.9581 65.1585 55.5844 65.2588 55.2381 65.4593C54.8918 65.6507 54.6093 65.9377 54.3906 66.3205C54.181 66.6941 54.0762 67.1406 54.0762 67.6601C54.0762 68.1795 54.181 68.6352 54.3906 69.027C54.6093 69.4189 54.8918 69.7196 55.2381 69.9292C55.5935 70.1297 55.9672 70.23 56.359 70.23C56.76 70.23 57.1337 70.1297 57.4799 69.9292C57.8262 69.7287 58.1042 69.4371 58.3138 69.0544C58.5325 68.6625 58.6419 68.2069 58.6419 67.6874ZM63.8191 61.3447V71.4602H62.2608V61.3447H63.8191ZM72.6451 63.9283L68.0248 75.0007H66.4118L67.9428 71.3372L64.9765 63.9283H66.7125L68.8313 69.6695L71.0321 63.9283H72.6451ZM77.6213 63.8053C78.2136 63.8053 78.7422 63.9283 79.207 64.1743C79.6808 64.4204 80.0499 64.7849 80.3142 65.2679C80.5785 65.7509 80.7106 66.3341 80.7106 67.0176V71.4602H79.166V67.25C79.166 66.5756 78.9974 66.0607 78.6602 65.7053C78.323 65.3408 77.8628 65.1585 77.2796 65.1585C76.6963 65.1585 76.2316 65.3408 75.8853 65.7053C75.5481 66.0607 75.3795 66.5756 75.3795 67.25V71.4602H73.8211V63.9283H75.3795V64.7895C75.6346 64.4796 75.9582 64.2381 76.35 64.065C76.751 63.8918 77.1748 63.8053 77.6213 63.8053ZM87.059 66.7169L90.0116 71.4602H88.2619L86.1158 68.0155L84.1064 71.4602H82.3703L85.323 66.7169L82.3567 61.9599H84.1064L86.2662 65.4319L88.2893 61.9599H90.0253L87.059 66.7169Z" fill="#FF0000"/>
<mask id="mask0_23_2986" style="mask-type:luminance" maskUnits="userSpaceOnUse" x="15" y="0" width="60" height="51">
<path d="M74.0474 -0.000129418L15.9521 0.250977L16.1713 50.9523L74.2665 50.7012L74.0474 -0.000129418Z" fill="white"/>
</mask>
<g mask="url(#mask0_23_2986)">
<g filter="url(#filter0_d_23_2986)">
<path d="M20.6544 49.1847C20.6227 49.1857 20.5438 49.1879 20.4645 49.1824L20.3367 49.139C20.2886 49.1167 20.2318 49.0632 20.2137 48.9851L19.8104 48.4464C19.7621 48.4163 19.6973 48.3631 19.6943 48.2609C19.6916 48.1666 20.1145 47.2109 20.4922 46.3348L21.3379 44.4228C21.3602 44.3752 21.4118 44.2476 21.4714 44.1204C21.5759 43.905 21.5909 43.881 21.606 43.8569C21.6214 43.8407 21.6518 43.8005 21.6988 43.7834C21.73 43.7667 21.7613 43.7579 21.7771 43.7575C21.8008 43.757 21.8243 43.7482 22.5353 43.7279C22.567 43.7269 22.6146 43.7334 22.6546 43.7478C22.7584 43.7844 22.8002 43.8616 22.802 43.9245L23.1968 44.4478C23.2849 44.4848 23.3188 44.5625 23.3204 44.6175C23.3243 44.7507 22.767 45.9782 22.7452 46.0415C22.6802 46.2557 22.3386 47.0125 22.3091 47.0843L21.568 48.7886C21.5236 48.8921 21.4715 49.004 21.3715 49.101L21.3255 49.1497L21.2624 49.1515C21.0569 49.1574 20.8598 49.1787 20.6544 49.1847ZM19.8523 48.2564C19.8546 48.335 20.0208 48.3381 20.1314 48.3348C20.329 48.3289 20.5419 48.3072 20.7393 48.3016C20.8161 48.2207 20.8609 48.1329 20.9054 48.0293C21.0315 47.7426 21.6822 46.1983 21.7513 46.1253C21.8085 45.9191 22.0627 45.4165 22.0754 45.306C22.0975 45.2504 22.6479 44.0626 22.644 43.929C22.6101 43.8513 22.2869 43.8843 22.2078 43.8865C22.1289 43.8888 21.8286 43.8976 21.7661 43.923C21.6959 43.9564 21.5119 44.4257 21.4822 44.4895C21.3412 44.808 20.2432 47.2858 20.2368 47.3408C20.1994 47.4129 19.8505 48.1935 19.8523 48.2564ZM23.4222 49.0733L22.6084 49.0969L22.0901 48.4039L22.0931 48.2388L24.0922 44.3905C24.1826 44.2384 24.2656 44.1024 24.3334 43.9827C24.4082 43.8389 24.4298 43.7673 24.4493 43.6253L24.5837 43.6216C25.1131 43.6063 25.6338 43.5675 26.1631 43.5522C26.2106 43.5508 26.2974 43.5481 26.3767 43.5537L26.44 43.5522C26.456 43.5596 26.4797 43.5587 26.4955 43.5582C26.5352 43.5652 26.5831 43.5795 26.623 43.5939L26.6791 43.616L26.885 43.9009L26.9002 43.8768C26.9151 43.845 26.9297 43.8052 26.9524 43.7733C26.9752 43.7409 26.9897 43.6933 27.0125 43.6613C27.058 43.5971 27.1043 43.5564 27.1436 43.5476C27.1593 43.5472 27.1986 43.538 27.254 43.5365L27.3092 43.5347C27.3407 43.5259 27.3722 43.525 27.4117 43.5241L27.9016 43.5097C28.2648 43.4913 28.6362 43.4807 28.7073 43.4787C28.7625 43.4769 28.8416 43.4746 28.9209 43.4802C28.9998 43.4779 29.0949 43.4834 29.175 43.5203L29.247 43.5496L29.7654 44.2422L29.8012 44.3827C29.8062 44.5557 29.7794 44.7216 29.7442 44.8719C29.7091 45.0226 29.6659 45.1654 29.6465 45.3153C29.5884 45.7652 29.4509 46.2017 29.369 46.6446C29.2592 47.2217 29.1416 47.7991 29.0241 48.3766L28.9671 48.5907L28.9154 48.7178C28.9008 48.7576 28.8707 48.8136 28.8088 48.8547L28.6832 48.8898L28.5729 48.9009L27.6406 48.9278L27.1222 48.2351L27.1145 47.9757L26.7706 48.654C26.7327 48.7104 26.6867 48.7589 26.6565 48.807L26.5193 48.9837L25.0893 49.0253L24.5141 48.2869L24.5324 48.0977L24.2628 48.6166L24.0896 48.9125L24.0283 48.9772C23.9975 49.0096 23.9662 49.0183 23.9425 49.0188L23.8639 49.0369L23.6985 49.0576C23.5881 49.0687 23.4695 49.072 23.4222 49.0733ZM24.5883 43.7783L22.2514 48.242L22.7964 48.2263C22.8755 48.224 23.3498 48.2184 23.4113 48.1616C23.5576 48.0233 24.2944 46.4453 24.4598 46.1493C24.5723 45.9418 24.7002 45.7179 24.8046 45.5025C24.8569 45.3985 24.9377 45.1839 25.0223 45.103C25.0439 45.0314 25.1556 44.7923 25.2346 44.79C25.3057 44.7882 25.3317 44.8658 25.3333 44.9209C25.336 45.0152 24.7194 47.7302 24.6965 48.0298L24.7875 48.169L25.9173 48.1362C25.9401 48.1042 26.1087 47.9184 26.1078 47.8869L27.7865 44.7165C27.8339 44.7151 27.8679 44.7928 27.869 44.8321C27.8713 44.9107 27.8581 44.9972 27.4993 46.5253C27.415 46.8896 27.2653 47.7196 27.2756 48.0733L27.7181 48.0604C27.797 48.058 28.1449 48.0562 28.2072 48.0228C28.2774 47.9892 28.3326 47.7126 28.3465 47.6493C28.4644 47.0796 28.582 46.5022 28.6917 45.9247C28.7736 45.4822 28.9032 45.0457 28.9692 44.5959C29.0084 44.3114 29.133 43.9777 29.1248 43.6947L29.1159 43.6633C29.0358 43.6262 28.7988 43.6332 28.7118 43.6359C28.2062 43.6503 27.701 43.6808 27.1953 43.6952C27.141 43.7284 27.0289 43.9518 27.007 44.0155C26.7006 44.3545 26.6049 44.8686 26.3066 45.2153C26.3501 45.0803 26.5688 43.9023 26.5656 43.7922C26.5651 43.7765 26.5645 43.7529 26.556 43.7372C26.4917 43.6998 26.231 43.7076 26.1678 43.7094C25.6385 43.7247 25.1176 43.7631 24.5883 43.7783ZM30.4512 48.87L29.6374 48.8936L29.119 48.2009L29.122 48.0358L31.1211 44.1876C31.2115 44.0355 31.2946 43.8995 31.3623 43.7793C31.4372 43.6356 31.4589 43.5644 31.4783 43.4223L31.6128 43.4182C32.1421 43.403 32.6628 43.3641 33.1922 43.349C33.2395 43.3475 33.3265 43.3452 33.4057 43.3508L33.469 43.3489C33.4849 43.3563 33.5086 43.3558 33.5244 43.3554C33.5642 43.3618 33.612 43.3762 33.652 43.391L33.7081 43.4128L33.914 43.698L33.9291 43.674C33.944 43.6421 33.9587 43.6023 33.9815 43.57C34.0042 43.538 34.0187 43.4903 34.0415 43.4581C34.0871 43.3937 34.1333 43.3535 34.1726 43.3443C34.1883 43.3438 34.2276 43.335 34.283 43.3333L34.3382 43.3318C34.3697 43.323 34.4012 43.3221 34.4408 43.3207L34.9306 43.3068C35.2939 43.2884 35.6651 43.2777 35.7363 43.2754C35.7915 43.274 35.8706 43.2717 35.9498 43.2772C36.0288 43.2749 36.1238 43.2801 36.204 43.3171L36.276 43.3466L36.7944 44.0393L36.8302 44.1799C36.8352 44.3527 36.8083 44.5187 36.7733 44.669C36.7381 44.8193 36.6948 44.9621 36.6755 45.1124C36.6174 45.5623 36.4799 45.9987 36.3979 46.4413C36.2882 47.0187 36.1706 47.5962 36.0531 48.1737L35.996 48.3874L35.9444 48.5149C35.9297 48.5547 35.8998 48.6106 35.8377 48.6518L35.7123 48.6865L35.6019 48.6977L34.6695 48.7249L34.1511 48.0318L34.1436 47.7728L33.7997 48.4512C33.7617 48.5071 33.7157 48.5556 33.6855 48.6037L33.5484 48.7808L32.1183 48.8219L31.5432 48.0836L31.5614 47.8945L31.2919 48.4132L31.1186 48.7095L31.0572 48.7739C31.0266 48.8062 30.9952 48.815 30.9715 48.8159L30.8929 48.8339L30.7274 48.8543C30.617 48.8653 30.4986 48.8686 30.4512 48.87ZM31.6173 43.5754L29.2804 48.0391L29.8255 48.0234C29.9045 48.021 30.3787 48.0151 30.4404 47.9582C30.5866 47.8204 31.3234 46.2419 31.4887 45.9464C31.6014 45.7384 31.7292 45.5146 31.8336 45.2992C31.8859 45.1956 31.9667 44.981 32.0513 44.8997C32.073 44.8285 32.1846 44.5894 32.2635 44.5871C32.3346 44.5848 32.3607 44.663 32.3623 44.718C32.365 44.8123 31.7483 47.5273 31.7254 47.8269L31.8164 47.9657L32.9463 47.9332C32.9691 47.9009 33.1377 47.715 33.1367 47.6836L34.8155 44.5132C34.8629 44.5118 34.8969 44.5895 34.898 44.6288C34.9003 44.7074 34.8871 44.7943 34.5282 46.3223C34.4441 46.6867 34.2943 47.5167 34.3045 47.8704L34.7471 47.8574C34.826 47.8552 35.1739 47.8529 35.2362 47.8196C35.3064 47.7862 35.3616 47.5093 35.3755 47.446C35.4933 46.8763 35.611 46.2989 35.7206 45.7218C35.8026 45.2789 35.9322 44.8428 35.9982 44.3925C36.0374 44.1082 36.162 43.7743 36.1538 43.4914L36.1449 43.4604C36.0647 43.4234 35.8278 43.4303 35.7409 43.4326C35.2352 43.4474 34.73 43.4775 34.2243 43.4923C34.17 43.5251 34.0579 43.7488 34.036 43.8123C33.7296 44.1515 33.6338 44.6652 33.3356 45.012C33.3791 44.877 33.5978 43.6989 33.5946 43.5889C33.594 43.5732 33.5934 43.55 33.585 43.5343C33.5207 43.4968 33.2599 43.5042 33.1968 43.5061C32.6674 43.5213 32.1467 43.5602 31.6173 43.5754ZM39.301 48.6773L36.8754 48.7476L36.6892 48.5955L36.1708 47.9028L36.1917 47.808C36.198 47.7525 36.2201 47.697 36.2424 47.649C36.265 47.6092 36.2875 47.569 36.31 47.5213L36.6549 46.6068C36.7141 46.4717 36.7817 46.3438 36.8249 46.2008C36.9126 45.9549 37.0083 45.708 37.2827 45.087C37.2896 45.0551 37.2965 45.0158 37.3111 44.976C37.3404 44.8965 37.3932 44.8082 37.7376 43.8783L37.7826 43.7905L37.7972 43.7507L37.8416 43.6472C37.8926 43.4964 38.0154 43.367 38.1079 43.2856L38.1541 43.245L38.2173 43.243C38.6763 43.2536 39.1346 43.2403 39.6007 43.2269L40.288 43.207C40.3197 43.2061 40.4223 43.2029 40.5176 43.2158C40.5651 43.2144 40.6288 43.2287 40.6766 43.243C40.7086 43.2578 40.8286 43.3014 40.8324 43.435L41.211 43.9431C41.259 43.9654 41.3475 44.0176 41.3509 44.1277C41.3556 44.2927 41.0198 44.9788 40.9437 45.0833L40.8982 45.1476L40.037 45.1725L40.0865 45.2419L40.4815 45.7727C40.5934 45.8167 40.6046 45.9267 40.6055 45.9582L40.5924 46.0529L40.5634 46.1403L40.4832 46.3705C40.4245 46.5295 40.3582 46.6965 40.3361 46.752L40.3142 46.8158L40.2613 46.8958C40.2233 46.9522 40.1543 47.0248 40.0358 47.0285L39.4116 47.0465L39.8066 47.5773L39.8491 47.6786C39.851 47.7415 39.8298 47.8284 39.8077 47.8843L39.6514 48.2191L39.5996 48.3384L39.5637 48.4655L39.5188 48.553C39.5036 48.577 39.4656 48.6254 39.4028 48.6431L39.301 48.6773ZM36.343 47.8427L36.4078 47.8958L38.6832 47.8302C38.7465 47.8284 38.8334 47.826 38.8327 47.8024C38.8801 47.801 38.9229 47.6425 38.9296 47.6027C38.9725 47.4442 39.1694 47.1478 39.1732 47.0058L39.1564 46.9748C39.092 46.9296 37.8988 46.9642 38.1675 46.9564C38.0648 46.9596 37.9144 46.9559 37.9131 46.9088C37.9087 46.7594 38.1022 46.3451 38.1934 46.2165C38.5015 46.2077 38.8178 46.2064 39.1259 46.1976C39.2523 46.1938 39.3864 46.1819 39.5128 46.1782C39.5997 46.1758 39.6441 46.0723 39.6737 46.0006C39.7177 45.8814 39.9314 45.3483 39.9291 45.2697C39.9286 45.2539 39.9201 45.2308 39.904 45.2234C39.7776 45.2271 38.5841 45.2456 38.5521 45.2308C38.5503 45.1679 38.8991 44.3874 38.9603 44.3148C39.1817 44.3162 39.4034 44.3256 39.6246 44.3191L40.2962 44.2996C40.3722 44.1956 40.6774 43.5418 40.6744 43.4396C40.6719 43.3532 40.348 43.3624 40.2926 43.3642L39.5974 43.3842C39.1391 43.3975 38.6808 43.4105 38.214 43.4007C38.1678 43.4414 37.9913 43.6273 37.9934 43.698C37.9487 43.7937 37.0927 45.8943 36.9767 46.2517C36.8822 46.5374 36.3777 47.6767 36.343 47.8427ZM45.4346 45.8892C45.1593 46.4792 44.831 46.882 44.7303 46.9555L44.7482 47.0258L44.9891 47.6952C45.0665 47.9052 45.1607 48.154 45.1655 48.319C45.1672 48.374 45.1454 48.4457 45.0915 48.4943C45.0841 48.5104 45.0373 48.5353 44.9586 48.5456L44.8482 48.5563L44.5405 48.5811C44.3117 48.5955 44.0668 48.6024 44.0114 48.6043L43.9561 48.6057L43.8764 48.5844C43.8127 48.5705 43.764 48.5247 43.7381 48.4549C43.73 48.4471 43.7298 48.4392 43.722 48.4396L43.2198 47.7619C43.1462 47.6777 42.9991 47.2416 42.964 47.1246L42.5768 47.1358L42.4882 47.3507L42.2959 47.8043C42.2296 47.9713 42.1628 48.123 42.103 48.2427L42.0052 48.4105C41.9824 48.4425 41.9289 48.5072 41.8585 48.5326L41.78 48.5506L40.9029 48.576C40.8632 48.5692 40.8075 48.5553 40.7671 48.5247C40.719 48.5025 40.6701 48.4567 40.6602 48.3864L40.2408 47.8325C40.1924 47.8024 40.1353 47.741 40.1326 47.6467C40.1308 47.5917 40.1451 47.5362 40.1674 47.4886C40.1821 47.4488 40.1968 47.4091 40.2272 47.3687L40.3167 47.1852C40.4121 46.931 40.7802 45.9923 41.1651 45.0925C41.5198 44.2409 41.9279 43.3245 42.0749 43.2103C42.0903 43.1942 42.1214 43.1774 42.1685 43.1682C42.1844 43.1677 42.2081 43.1673 42.2315 43.1585C42.2789 43.1571 42.334 43.1479 42.4051 43.1456C42.5471 43.134 42.7209 43.1289 42.9106 43.1233L43.7559 43.0988C43.8113 43.0975 44.0327 43.0988 44.2379 43.085L44.5297 43.061L44.6088 43.0586L44.8792 43.1136L45.204 43.4031L45.7224 44.0958C45.8206 44.211 45.8798 44.3431 45.8855 44.5393C45.8896 44.6807 45.6807 45.3788 45.4346 45.8892ZM44.1289 46.1237C44.5086 45.8611 44.6705 45.4473 44.8113 45.1208C44.961 44.8333 45.2186 44.1734 45.2091 43.8512C45.2007 43.5604 45.0146 43.4165 44.8044 43.2575L44.7156 43.1969C44.5972 43.2005 44.3282 43.2002 44.0122 43.2094C43.2775 43.2306 42.2745 43.2755 42.1734 43.3333C42.0023 43.4327 40.6132 46.7756 40.4685 47.236C40.4321 47.3471 40.2874 47.5321 40.2906 47.642C40.2947 47.7835 40.7042 47.7248 40.7989 47.722C40.8622 47.7202 41.2414 47.7091 41.2883 47.692C41.4527 47.6323 41.8233 46.5126 41.959 46.2887L42.2909 46.279C42.3858 46.2762 42.8036 46.2328 42.8698 46.3332L43.3599 47.6874C43.3695 47.7419 43.4174 47.7563 43.4647 47.7549C43.5595 47.7522 44.4439 47.7109 44.467 47.6866C44.4823 47.6704 44.4897 47.6546 44.4891 47.631C44.4854 47.5052 44.2881 46.9763 44.2536 46.875C44.202 46.7349 44.1433 46.6184 44.1073 46.4704C44.1066 46.4468 44.0981 46.4233 44.0894 46.4001C44.0644 46.3534 44.0313 46.3073 44.0298 46.2523C44.0277 46.1815 44.0824 46.1565 44.1289 46.1237ZM43.5476 44.0879C43.7846 44.081 43.9591 44.0994 43.9639 44.2645C43.9687 44.4296 43.8055 44.7962 43.7387 44.9474C43.6422 45.1625 43.6271 45.1865 43.3994 45.2402C43.1715 45.2942 42.9343 45.2932 42.6973 45.2997C42.563 45.3038 42.3888 45.3011 42.3863 45.2146C42.3859 45.1989 42.7846 44.2279 42.8291 44.1244C42.9159 44.1221 43.0102 44.1035 43.0973 44.1008C43.2555 44.1041 43.4133 44.0916 43.5476 44.0879ZM47.9205 48.4833C47.5886 48.493 47.2404 48.4795 46.9059 48.4027C46.8026 48.3819 46.5229 48.2798 46.2745 48.1692C46.1463 48.11 46.018 48.0509 45.9293 47.9903L45.7999 47.8918C45.7755 47.8692 45.7509 47.8382 45.726 47.7998L45.2814 47.1991C45.249 47.1686 45.1918 47.1072 45.1893 47.0207C45.1881 46.9818 45.2026 46.9342 45.2096 46.9024C45.2165 46.8708 45.5833 46.1602 45.6139 46.1279C45.637 46.1039 45.691 46.0549 45.7699 46.0525C45.8253 46.0511 45.8733 46.0733 45.8975 46.0881C45.9298 46.1108 45.9539 46.1261 45.9784 46.1487L46.0436 46.2175L46.0519 46.2333C46.264 46.4552 46.7731 46.5584 47.1286 46.5481C47.1919 46.5463 47.3812 46.533 47.5498 46.3471C47.3396 46.188 47.128 45.9819 46.7251 45.7261L46.2513 45.205C46.1532 45.0978 46.0941 44.966 46.0585 44.8333C46.0402 44.7473 46.0377 44.6608 46.0354 44.5822L46.0281 44.3307C46.0267 44.2835 46.0252 44.2285 46.0319 44.1892L46.0301 44.1263C46.0372 44.1023 46.0366 44.0787 46.044 44.063C46.0437 44.0551 46.1324 43.8401 46.1391 43.8008C46.2053 43.6256 46.3822 43.4554 46.5448 43.3408C46.6222 43.2834 46.6922 43.2422 46.7466 43.209C47.0272 43.0675 47.5632 43.0125 47.8318 43.0046C48.3218 42.9907 49.0638 43.2206 49.4155 43.6195L49.4894 43.7116L50.0077 44.4046L49.9473 44.5009L49.5589 45.2827L49.4601 45.4191L49.1539 45.2235L48.9199 45.065C48.7592 44.9752 48.6314 44.9318 48.3785 44.9392C48.2363 44.9433 48.1264 44.9701 48.0569 45.027L48.3796 45.2457C48.5002 45.3132 48.6213 45.396 48.7348 45.495C48.7999 45.5559 48.8649 45.617 48.9224 45.6942L49.4409 46.3868C49.5642 46.5487 49.6412 46.7508 49.6486 47.0023C49.6552 47.2302 49.5822 47.4364 49.4924 47.6122C49.3724 47.8359 49.2192 48.0055 49.0411 48.1364C48.7239 48.3736 48.3313 48.4717 47.9205 48.4833ZM45.3473 47.0165C45.3518 47.1733 46.2636 47.5247 46.4227 47.5593C46.7253 47.6292 47.0893 47.6421 47.3976 47.6334C47.998 47.6163 48.5453 47.4036 48.8295 46.845C48.9118 46.6855 48.9777 46.5024 48.9722 46.3138C48.9713 46.2824 48.9627 46.2592 48.9617 46.2278C48.8893 45.6401 48.4093 45.4495 47.9426 45.1722C47.7897 45.0821 47.2825 44.7741 47.2765 44.5698C47.2663 44.2164 47.5554 44.0981 47.8555 44.0893C48.4561 44.0718 48.7847 44.4948 48.9114 44.499C48.9418 44.4588 49.2618 43.7735 49.2921 43.7255C48.9892 43.3722 48.2947 43.1485 47.8364 43.1618C47.5756 43.1692 47.0475 43.2238 46.8218 43.3485C46.6506 43.4398 46.3567 43.6685 46.2912 43.8591C46.2618 43.9386 46.2408 44.0338 46.1955 44.1059C46.1829 44.216 46.1861 44.326 46.1893 44.4361L46.1946 44.6168C46.2168 45.3793 47.6882 45.942 47.6997 46.335C47.7054 46.5315 47.2755 46.7012 47.1175 46.7058C46.7382 46.7165 46.0746 46.4686 45.7978 46.1935C45.6357 46.3318 45.3434 46.8829 45.3473 47.0165ZM50.5686 48.3048C50.5369 48.3057 50.45 48.308 50.3626 48.295L50.2196 48.2673C50.1878 48.2603 50.0678 48.2169 50.064 48.0833L49.6772 47.5678L49.5455 47.3906C49.5451 47.3749 49.5442 47.3435 49.5591 47.3116L49.581 47.2478C49.6035 47.208 49.6256 47.1521 49.6554 47.0883C49.7149 46.9611 49.7973 46.8011 49.8795 46.6416C50.0439 46.3143 50.2163 45.987 50.2616 45.9148C50.2842 45.875 50.3142 45.8191 50.3523 45.771L50.4125 45.6669C50.45 45.5949 50.4714 45.5157 50.509 45.4515C50.6059 45.2444 50.7263 45.0363 50.839 44.8366L50.9302 44.7081L50.9904 44.604C51.14 44.3089 51.2659 44.0145 51.4314 43.7264C51.4839 43.6307 51.552 43.5262 51.6125 43.4301C51.6355 43.4059 51.6585 43.3816 51.6734 43.3497L51.719 43.2858C51.7569 43.2294 51.779 43.1739 51.8166 43.1096C51.8465 43.0459 51.892 42.9816 51.9452 42.9094L51.9913 42.8609L54.1245 42.7993L54.6429 43.4921L54.6475 43.6493C54.6509 43.7672 54.6469 43.9008 54.6345 44.0191C54.628 44.0667 54.6135 44.1144 54.6068 44.1537L54.5778 44.241L54.4676 44.8024L54.3904 45.1353L54.3624 45.2616L54.3478 45.3013C54.3421 45.3803 54.3282 45.4436 54.3142 45.5069C54.2925 45.5783 54.2786 45.6416 54.2646 45.7049C54.2504 45.7604 54.2523 45.8233 54.246 45.8783L54.2027 46.0212L54.1391 46.2825C54.1184 46.3854 54.0518 46.8118 53.9687 47.2154C53.9272 47.4211 53.8858 47.627 53.8427 47.7777L53.7853 47.9756L53.748 48.0555C53.7178 48.1036 53.6871 48.136 53.6636 48.1444C53.6248 48.1693 53.5774 48.1707 53.5461 48.179L53.4357 48.1902L52.5113 48.2169L51.9929 47.5242L51.9888 47.3828L51.9258 47.3926L51.8653 47.4887L51.7909 47.6482C51.7309 47.7597 51.6862 47.8554 51.6488 47.9275C51.6037 48.0075 51.5584 48.0796 51.4968 48.1364C51.3579 48.2581 51.1688 48.2794 50.9081 48.2868C50.7975 48.29 50.6792 48.3015 50.5686 48.3048ZM50.0456 47.4545C50.9147 47.4295 50.8061 47.5035 51.128 46.8807C51.1729 46.7928 51.2324 46.6652 51.2933 46.5851C51.3315 46.5367 51.4971 46.5242 51.6631 46.5192C51.8054 46.5154 51.9556 46.5186 51.9951 46.5177C52.0742 46.5154 52.1616 46.5284 52.2407 46.5339C52.1763 46.7641 52.1392 47.1188 52.1463 47.3625L52.5809 47.35C52.6598 47.3477 52.9999 47.3459 53.07 47.3121C53.2104 47.245 53.4353 45.4695 53.5686 45.1588C53.5629 44.9623 53.6681 44.7705 53.6702 44.574C53.7165 44.5332 53.8846 43.5217 53.9575 43.3075C53.9541 43.1896 53.9745 43.0787 53.9711 42.9608L52.067 43.0162C52.0286 43.0564 51.8623 43.3208 51.8558 43.3681C51.5587 43.7542 51.3433 44.2323 51.1348 44.6709C51.0975 44.7506 51.0211 44.8393 50.9758 44.9193C50.8784 45.1029 50.6143 45.5352 50.5569 45.7335C50.4418 45.8547 49.7015 47.3153 49.7035 47.3861C49.7055 47.4488 49.8876 47.4591 50.0456 47.4545ZM51.7401 45.6365C51.7399 45.6286 52.1669 44.8139 52.2344 44.6863C52.2715 44.6064 52.5557 44.0477 52.6585 44.045C52.7217 44.0432 52.7079 44.1144 52.709 44.1537C52.7127 44.279 52.6585 44.5873 52.6063 44.6992C52.6083 44.7699 52.5707 44.8338 52.5567 44.8972C52.5226 45.0789 52.5363 45.2832 52.4545 45.4584C52.4552 45.482 52.4421 45.5768 52.4108 45.5855C52.3798 45.61 51.8354 45.6493 51.7485 45.6517C51.7403 45.6443 51.7403 45.6443 51.7401 45.6365ZM56.6333 46.2893L56.8183 46.4017L57.3446 47.0943L57.339 47.1652C57.3348 47.2913 57.2688 47.474 57.2102 47.633C57.1517 47.7999 57.0777 47.9672 57.0331 48.0626L56.9958 48.1504L54.9332 48.1864C54.8778 48.1879 54.7514 48.1915 54.6248 48.1873L54.4345 48.1693L54.3469 48.1481C54.3227 48.1332 54.2747 48.111 54.2418 48.0727L53.7235 47.38L53.7345 47.2145C53.7499 47.1983 53.7996 47.0079 53.8148 46.9838L54.0397 46.5608C54.1202 46.3383 54.696 44.9374 54.8956 44.4597C54.9913 44.2133 55.0788 43.9591 55.1902 43.7121C55.4483 43.0755 55.5222 42.9003 55.6697 42.8096C55.6856 42.8013 55.7088 42.7851 55.7558 42.7758C55.7794 42.775 55.8031 42.7665 55.8348 42.7656L56.4899 42.731C56.5295 42.7296 56.5852 42.7361 56.6335 42.7661L56.7484 42.9122L57.1519 43.4588C57.224 43.4961 57.2653 43.5578 57.2676 43.6442C57.2705 43.7307 57.2415 43.8259 57.2198 43.8893L57.1383 44.0806C56.8432 44.8125 56.5324 45.5371 56.2373 46.269C56.2925 46.2677 56.5543 46.2838 56.6333 46.2893ZM54.4102 47.3366L56.3701 47.3034C56.4445 47.136 56.6593 46.6422 56.6622 46.4692C56.6217 46.4309 56.4236 46.4211 56.2103 46.4271C55.9652 46.4341 55.7053 46.4577 55.5866 46.4609C55.5471 46.4622 55.2152 46.4716 55.2132 46.4008C55.2109 46.3226 55.3167 46.1543 55.3543 46.0901C55.43 45.9699 55.5009 45.6929 55.5601 45.5495C55.8546 44.8098 56.1731 44.069 56.4759 43.3288C56.5126 43.2336 56.5945 43.0661 56.5912 42.9561C56.5907 42.9404 56.5815 42.8933 56.5582 42.8942L56.3131 42.9012C56.0839 42.9077 55.7837 42.9164 55.7529 42.9409C55.6595 42.9987 55.5924 43.1341 55.5638 43.2373L55.3344 43.7787C55.223 44.0256 55.1431 44.272 55.0397 44.5185C54.848 44.996 53.8786 47.2733 53.8471 47.2821C53.8887 47.3514 54.3312 47.3389 54.4102 47.3366ZM55.4158 46.3009L55.4609 46.221C55.4459 46.245 55.4308 46.269 55.4158 46.3009ZM58.8598 48.0727L58.7649 48.0756C58.5674 48.0815 58.3614 48.0792 58.1642 48.0853L58.061 48.0801C58.021 48.0658 57.9012 48.0219 57.8974 47.8883L57.5106 47.3727L57.379 47.1956C57.3786 47.1799 57.3777 47.1563 57.3926 47.1165C57.3921 47.1008 57.3991 47.0772 58.0868 45.4372C58.1021 45.4132 58.1397 45.3489 58.1695 45.2855L58.2067 45.2135V45.2056L58.1989 45.206L58.1556 45.0813L57.986 44.6928C57.8061 44.2185 57.3278 42.9978 57.3026 42.9511L57.1772 42.7189L57.4384 42.7194L57.6829 42.7121C57.9201 42.7051 58.165 42.6903 58.4091 42.6677L58.5197 42.6566L59.0382 43.3492L59.0804 43.4505C59.1222 43.5277 59.1566 43.6133 59.1986 43.6987C59.2906 43.6016 59.4059 43.4879 59.5212 43.3746C59.8053 43.0833 60.1046 42.768 60.1814 42.6871L60.2349 42.6306L60.314 42.6362C60.3297 42.6358 60.3381 42.6432 60.346 42.6432L60.4014 42.6492L60.465 42.6552L61.0337 42.6391C61.1285 42.6362 61.2233 42.6256 61.3103 42.6229C61.3655 42.6215 61.4209 42.62 61.4763 42.6261L61.6668 42.6521L62.1852 43.3451L62.127 43.5272L62.082 43.6072C61.1423 44.7354 61.4245 44.3813 60.0632 45.9542L59.8799 46.1798L59.8343 46.2441L59.82 46.2991L59.7753 46.387L59.4378 47.2932C59.3717 47.4684 59.3132 47.6274 59.2457 47.7551L59.156 47.9308C59.1253 47.9631 59.0718 48.0353 58.9858 48.0612L58.8598 48.0727ZM57.5371 47.191C57.5385 47.2382 57.6176 47.2358 57.6412 47.2354C57.8384 47.2294 58.0444 47.2313 58.2419 47.2257C58.3051 47.2238 58.3684 47.222 58.4311 47.2123C58.626 47.1124 59.0227 45.8035 59.1337 45.5486C59.1561 45.5006 61.4372 42.9104 61.4571 42.7837C61.4093 42.7774 61.3623 42.7787 61.3148 42.7801C61.2279 42.7828 61.1252 42.7935 61.0383 42.7963L60.4696 42.8124C60.4144 42.8143 60.3507 42.8004 60.2949 42.7939C60.2182 42.8749 59.1059 44.0552 59.0112 44.058C58.94 44.0599 58.8973 43.9434 58.8721 43.8888C58.7271 43.5314 58.59 43.1735 58.4217 42.8244C58.1772 42.8471 57.9326 42.8623 57.6876 42.8693L57.4429 42.8762C57.6267 43.2091 58.3713 45.1617 58.3731 45.2246C58.3741 45.2481 58.2533 45.4558 58.231 45.5039C58.143 45.7345 57.5335 47.0731 57.5371 47.191ZM62.2776 47.9979L61.6058 48.0094L61.4789 47.9896C61.3669 47.9535 61.325 47.8758 61.3232 47.805L60.936 47.2816L60.8048 47.1124C60.8043 47.0967 60.8034 47.0653 60.8178 47.0255C60.8252 47.0093 60.8323 46.9779 60.8392 46.946C60.8616 46.8905 60.8908 46.811 60.9197 46.7157C60.9857 46.5409 61.074 46.3103 61.1698 46.0795C61.346 45.6181 61.546 45.1405 62.4547 42.9595C62.5137 42.8083 62.5583 42.713 62.6359 42.6557C62.7131 42.5984 62.8154 42.5795 62.9892 42.5747L63.8583 42.5494L64.3766 43.242L64.4119 43.359C64.4561 43.2558 64.4999 43.1287 64.5598 43.0089C64.604 42.8975 64.656 42.794 64.7011 42.7139C64.7239 42.6738 64.7541 42.6336 64.7849 42.6011C64.8081 42.5771 64.8615 42.5203 64.9486 42.518C65.1856 42.511 65.4302 42.4962 65.6672 42.4893C65.6909 42.4888 65.7463 42.487 65.7941 42.4935C65.8179 42.5008 65.8578 42.5074 65.8979 42.5299L65.9964 42.6608L66.4162 43.2226C66.4567 43.2452 66.5134 43.2984 66.5157 43.3849C66.5161 43.3927 66.5092 43.4321 66.4952 43.4876L66.458 43.5676L66.406 43.6868L65.914 44.9828L65.17 46.8526L65.0742 47.0991L65.0095 47.3132L64.8905 47.5683L64.8156 47.7201L64.7701 47.7843L64.6851 47.8495C64.6463 47.8741 64.5832 47.8837 64.5442 47.893L63.7063 47.917C63.6111 47.904 63.5073 47.8679 63.4414 47.7677L62.9555 47.1129L62.9476 47.1055C62.7844 47.4874 62.6515 47.8061 62.6212 47.8541C62.5682 47.9341 62.4901 47.96 62.4427 47.9693C62.3878 47.9867 62.325 47.9965 62.2776 47.9979ZM60.9628 47.1078C60.9652 47.1942 61.4384 47.149 61.4938 47.1475C61.5255 47.1466 61.6124 47.1517 61.6993 47.1495C61.8179 47.1458 61.9439 47.1268 61.9662 47.0787C62.055 46.8716 62.825 45.072 62.8297 44.962L62.845 44.9537C62.9004 44.9523 62.9231 45.1872 62.9292 45.3994C62.9342 45.5645 62.9306 45.7138 62.931 45.7295C62.938 45.9653 62.9765 46.2002 62.9988 46.4277C63.0652 47.0783 62.9076 47.0908 63.587 47.0713C63.6739 47.0686 64.0374 47.0583 64.0992 47.0172C64.1624 47.0075 64.2937 46.6339 64.3391 46.5618C64.3531 46.4985 64.3982 46.4263 64.4043 46.3635C64.5814 45.9182 64.7419 45.465 64.9427 45.0267C64.947 44.8931 65.5775 43.4751 65.5755 43.4043C65.5975 43.3484 65.7379 43.0062 65.736 42.9512C65.7514 42.9272 65.8397 42.7047 65.8392 42.6968C65.8383 42.6497 65.7351 42.6446 65.6719 42.6465C65.4349 42.6534 65.1903 42.6682 64.9531 42.6752C64.8583 42.6779 64.6666 43.1472 64.6369 43.211C64.5848 43.3229 64.5649 43.4648 64.4965 43.5611C64.4607 43.6803 64.0999 44.6027 64.0325 44.7229C64.0246 44.7309 64.0097 44.7549 63.9938 44.7553C63.9702 44.7558 63.9609 44.717 63.9525 44.6938C63.8925 44.5301 63.8632 44.0669 63.8577 43.8787L63.847 43.5171C63.8392 43.242 63.8229 42.9674 63.7444 42.7098L62.788 42.7297C62.5778 43.1055 60.9592 46.9899 60.9628 47.1078ZM69.3891 45.3463L70.8515 47.7737L69.2062 47.7501L68.6874 47.0497L68.3788 46.5004C68.2639 46.6215 68.1184 46.7829 67.9728 46.9446C67.6896 47.2674 67.3912 47.6141 67.2996 47.727L67.254 47.7829L66.1792 47.8144L66.0684 47.8097C65.9815 47.8042 65.9328 47.7663 65.9082 47.7353L65.7933 47.5975L65.2749 46.9044L65.4302 46.8056C65.4771 46.7805 65.8826 46.3209 66.349 45.7726C66.7544 45.2968 67.1748 44.8049 67.3663 44.5871C67.244 44.1973 66.6006 43.0127 66.377 42.6576L66.2436 42.4255L67.5946 42.3866L68.2762 43.5306C68.3762 43.4256 69.2415 42.4648 69.3182 42.3839L69.3563 42.3354L70.9287 42.29L71.447 42.9827L71.1862 43.2578C70.75 43.7502 69.5942 45.0652 69.3891 45.3463ZM65.5135 46.9446C65.5218 46.9604 65.5455 46.9595 65.5534 46.9595C65.6408 46.9646 65.7273 46.9622 65.8143 46.9599L66.6599 46.9354C66.7134 46.8707 67.8599 45.5164 67.985 45.4656L68.7781 46.8976L70.0515 46.9161L68.6886 44.6513C68.7169 44.5325 70.3084 42.7169 70.5539 42.4583L69.4321 42.4908C69.4014 42.5231 68.2845 43.8135 68.2293 43.815L67.5044 42.5462L66.5169 42.5748C66.6667 42.8301 67.5091 44.3392 67.5416 44.6291C67.2807 44.9121 65.5995 46.9109 65.5135 46.9446Z" fill="#FF0000"/>
</g>
<g filter="url(#filter1_d_23_2986)">
<path d="M54.4552 33.9669L51.1064 29.5395L52.1047 27.7705L57.9281 35.4675L54.4552 33.9669Z" fill="url(#paint0_linear_23_2986)"/>
<path d="M46.1171 12.0737L39.9218 13.2272L37.002 11.5019L42.9175 10.3564L46.1171 12.0737Z" fill="url(#paint1_linear_23_2986)"/>
<path d="M56.7085 10.4453L51.7912 19.4272L49.2402 15.9511L53.369 8.7321L59.0749 7.59277L62.3422 9.23847L56.7085 10.4453Z" fill="url(#paint2_linear_23_2986)"/>
<path d="M40.4425 38.2701L37.1811 36.8331L45.3027 22.5384L36.8643 11.5759L39.92 13.1582L46.0475 12.0762L51.8609 19.4255L56.6383 10.4477L62.3462 9.37793L54.9713 22.8855L63.8435 34.3226L57.856 35.4004L52.1044 27.771L46.7838 37.3212L40.6515 38.2388L40.4425 38.2701Z" fill="url(#paint3_linear_23_2986)"/>
</g>
<g filter="url(#filter2_d_23_2986)">
<path d="M28.5111 39.5191C31.176 39.4421 33.2955 37.9785 33.245 36.2501C33.1947 34.5217 30.9934 33.183 28.3285 33.26C25.6637 33.337 23.5443 34.8006 23.5946 36.529C23.6451 38.2574 25.8462 39.5961 28.5111 39.5191Z" fill="#060302"/>
<path d="M29.56 39.4893C32.8041 39.3956 35.3932 37.9185 35.3428 36.1901C35.2923 34.4617 32.6215 33.1365 29.3774 33.2303C26.1331 33.324 23.5441 34.8011 23.5945 36.5295C23.6449 38.2579 26.3157 39.5831 29.56 39.4893Z" fill="#181310"/>
<path d="M34.598 36.0959C30.2838 38.965 26.2135 37.6893 24.2436 36.3929C23.928 36.1852 23.8518 35.773 24.0053 35.4289C25.3039 32.5185 26.9185 25.2045 24.9446 14.5322C24.8777 14.1697 25.3388 13.8653 25.6762 14.0174C27.1395 14.6775 29.6709 15.075 32.7343 13.5872C33.0312 13.443 33.3846 13.6882 33.339 14.0138C31.7678 25.2317 33.5049 32.3046 34.8444 35.0503C35.023 35.4165 34.9383 35.8696 34.598 36.0959Z" fill="#890008"/>
<path d="M29.1822 15.3126C31.5423 15.2443 33.4345 14.4652 33.4084 13.5723C33.3824 12.6793 31.4479 12.0108 29.0879 12.079C26.7277 12.1472 24.8355 12.9263 24.8616 13.8193C24.8877 14.7121 26.822 15.3808 29.1822 15.3126Z" fill="#FFBC2B"/>
<path d="M28.1209 14.5961C29.5242 14.5555 30.6489 14.0772 30.6328 13.5278C30.6168 12.9783 29.4661 12.5657 28.0629 12.6063C26.6596 12.6468 25.5349 13.1251 25.551 13.6747C25.5669 14.2241 26.7175 14.6367 28.1209 14.5961Z" fill="#FFD258"/>
<path d="M32.5053 36.5297L25.4763 32.9661C25.2088 32.8306 24.8611 33.0323 24.7497 33.3096C24.5535 33.7976 24.1613 34.4186 23.7119 35.7268C23.7602 37.3838 29.2389 38.6613 32.5134 37.17C32.7917 37.0432 32.7782 36.668 32.5053 36.5297Z" fill="#710007"/>
<path d="M29.1077 28.7839C29.571 28.7705 29.9366 28.4172 29.9243 27.9949C29.912 27.5725 29.5264 27.2409 29.063 27.2543C28.5998 27.2677 28.2341 27.621 28.2464 28.0434C28.2588 28.4658 28.6444 28.7973 29.1077 28.7839Z" fill="#FFA700"/>
<path d="M29.1691 20.2922L28.7723 20.3037C28.5541 20.3099 28.3825 20.4909 28.3888 20.7078L28.4819 23.9009C28.4883 24.1178 28.6702 24.2886 28.8884 24.2823L29.2852 24.2708C29.5034 24.2645 29.675 24.0835 29.6687 23.8666L29.5756 20.6735C29.5692 20.4566 29.3873 20.2859 29.1691 20.2922Z" fill="#D9D9D9"/>
<path d="M27.0002 21.9923L27.0136 22.45C27.0199 22.667 27.2018 22.8377 27.4199 22.8314L30.4277 22.7445C30.6457 22.7382 30.8175 22.5572 30.8111 22.3403L30.7978 21.8825C30.7914 21.6656 30.6095 21.4949 30.3914 21.5011L27.3837 21.5881C27.1656 21.5944 26.9939 21.7753 27.0002 21.9923Z" fill="#D9D9D9"/>
<path d="M28.7366 11.2543C31.2855 11.1806 33.292 9.06585 33.2181 6.53086C33.1441 3.99588 31.0178 2.00058 28.4688 2.07424C25.9198 2.1479 23.9134 4.26261 23.9873 6.7976C24.0613 9.33258 26.1876 11.3278 28.7366 11.2543Z" fill="#890008"/>
<path d="M31.1188 7.24414C32.053 6.87512 32.4494 5.67221 32.0042 4.55736C31.5589 3.4425 30.4408 2.8379 29.5066 3.20692C28.5724 3.57594 28.1759 4.77886 28.6212 5.8937C29.0664 7.00856 30.1846 7.61317 31.1188 7.24414Z" fill="#710007"/>
</g>
</g>
<defs>
<filter id="filter0_d_23_2986" x="15.1378" y="37.7335" width="60.866" height="16.0086" filterUnits="userSpaceOnUse" color-interpolation-filters="sRGB">
<feFlood flood-opacity="0" result="BackgroundImageFix"/>
<feColorMatrix in="SourceAlpha" type="matrix" values="0 0 0 0 0 0 0 0 0 0 0 0 0 0 0 0 0 0 127 0" result="hardAlpha"/>
<feOffset/>
<feGaussianBlur stdDeviation="2.27827"/>
<feComposite in2="hardAlpha" operator="out"/>
<feColorMatrix type="matrix" values="0 0 0 0 0.992157 0 0 0 0 0.772549 0 0 0 0 0 0 0 0 0.3 0"/>
<feBlend mode="normal" in2="BackgroundImageFix" result="effect1_dropShadow_23_2986"/>
<feBlend mode="normal" in="SourceGraphic" in2="effect1_dropShadow_23_2986" result="shape"/>
</filter>
<filter id="filter1_d_23_2986" x="26.9538" y="2.23885" width="46.8004" height="50.4986" filterUnits="userSpaceOnUse" color-interpolation-filters="sRGB">
<feFlood flood-opacity="0" result="BackgroundImageFix"/>
<feColorMatrix in="SourceAlpha" type="matrix" values="0 0 0 0 0 0 0 0 0 0 0 0 0 0 0 0 0 0 127 0" result="hardAlpha"/>
<feOffset dy="4.55653"/>
<feGaussianBlur stdDeviation="4.95523"/>
<feComposite in2="hardAlpha" operator="out"/>
<feColorMatrix type="matrix" values="0 0 0 0 1 0 0 0 0 0.823529 0 0 0 0 0.345098 0 0 0 0.25 0"/>
<feBlend mode="normal" in2="BackgroundImageFix" result="effect1_dropShadow_23_2986"/>
<feBlend mode="normal" in="SourceGraphic" in2="effect1_dropShadow_23_2986" result="shape"/>
</filter>
<filter id="filter2_d_23_2986" x="15.5059" y="-2.59818" width="27.9257" height="53.6259" filterUnits="userSpaceOnUse" color-interpolation-filters="sRGB">
<feFlood flood-opacity="0" result="BackgroundImageFix"/>
<feColorMatrix in="SourceAlpha" type="matrix" values="0 0 0 0 0 0 0 0 0 0 0 0 0 0 0 0 0 0 127 0" result="hardAlpha"/>
<feOffset dy="3.4174"/>
<feGaussianBlur stdDeviation="4.04392"/>
<feComposite in2="hardAlpha" operator="out"/>
<feColorMatrix type="matrix" values="0 0 0 0 1 0 0 0 0 0.823529 0 0 0 0 0.345098 0 0 0 0.25 0"/>
<feBlend mode="normal" in2="BackgroundImageFix" result="effect1_dropShadow_23_2986"/>
<feBlend mode="normal" in="SourceGraphic" in2="effect1_dropShadow_23_2986" result="shape"/>
</filter>
<linearGradient id="paint0_linear_23_2986" x1="49.5994" y1="7.86651" x2="50.4033" y2="35.685" gradientUnits="userSpaceOnUse">
<stop stop-color="#C0000D"/>
<stop offset="1" stop-color="#690102"/>
</linearGradient>
<linearGradient id="paint1_linear_23_2986" x1="49.5988" y1="7.86642" x2="50.4027" y2="35.6848" gradientUnits="userSpaceOnUse">
<stop stop-color="#C0000D"/>
<stop offset="1" stop-color="#690102"/>
</linearGradient>
<linearGradient id="paint2_linear_23_2986" x1="49.5993" y1="7.86658" x2="50.4032" y2="35.685" gradientUnits="userSpaceOnUse">
<stop stop-color="#C0000D"/>
<stop offset="1" stop-color="#690102"/>
</linearGradient>
<linearGradient id="paint3_linear_23_2986" x1="45.7678" y1="16.887" x2="52.0841" y2="43.7244" gradientUnits="userSpaceOnUse">
<stop stop-color="#FFD258"/>
<stop offset="0.262119" stop-color="#FFA700"/>
</linearGradient>
</defs>
</svg>
