<svg width="97" height="76" viewBox="0 0 97 76" fill="none" xmlns="http://www.w3.org/2000/svg">
<g clip-path="url(#clip0_76_383)">
<g filter="url(#filter0_d_76_383)">
<path d="M21.6753 51.6236C21.6421 51.6246 21.5592 51.627 21.4761 51.6212L21.3419 51.5755C21.2915 51.5523 21.2318 51.496 21.2127 51.414L20.7896 50.8486C20.7388 50.817 20.6708 50.7612 20.6677 50.654C20.6648 50.555 21.1086 49.5519 21.5051 48.6323L22.3927 46.6256C22.4161 46.5756 22.4703 46.4417 22.5328 46.3082C22.6424 46.082 22.6583 46.0568 22.6742 46.0316C22.6903 46.0146 22.7222 45.9724 22.7715 45.9544C22.8042 45.937 22.8371 45.9277 22.8537 45.9273C22.8786 45.9267 22.9032 45.9176 23.6496 45.8962C23.6828 45.8952 23.7327 45.902 23.7747 45.9171C23.8837 45.9554 23.9276 46.0365 23.9295 46.1025L24.3439 46.6518C24.4363 46.6906 24.4719 46.7721 24.4736 46.8299C24.4777 46.9697 23.8927 48.2581 23.8698 48.3246C23.8017 48.5493 23.4431 49.3438 23.4121 49.419L22.6343 51.2078C22.5877 51.3165 22.533 51.4339 22.428 51.5358L22.3797 51.5867L22.3134 51.5887C22.0978 51.595 21.891 51.6173 21.6753 51.6236ZM20.8335 50.6491C20.836 50.7316 21.0103 50.735 21.1264 50.7316C21.3337 50.7254 21.5572 50.7025 21.7645 50.6967C21.845 50.6118 21.8921 50.5196 21.9388 50.4109C22.0711 50.11 22.7541 48.4891 22.8266 48.4125C22.8867 48.196 23.1535 47.6685 23.1667 47.5525C23.1899 47.4942 23.7677 46.2476 23.7636 46.1073C23.728 46.0258 23.3888 46.0603 23.3058 46.0627C23.2229 46.0651 22.9078 46.0743 22.8422 46.101C22.7685 46.136 22.5754 46.6285 22.5442 46.6955C22.3962 47.0299 21.2437 49.6305 21.2371 49.6883C21.1978 49.7639 20.8316 50.5831 20.8335 50.6491ZM24.5804 51.5067L23.7262 51.5314L23.1821 50.804L23.1854 50.6307L25.2836 46.5917C25.3785 46.432 25.4656 46.2893 25.5367 46.1636C25.6152 46.0127 25.6379 45.9375 25.6585 45.7885L25.7995 45.7846C26.3551 45.7686 26.9017 45.7278 27.4573 45.7118C27.507 45.7104 27.5982 45.7075 27.6814 45.7133L27.7478 45.7118C27.7646 45.7196 27.7895 45.7186 27.8061 45.7182C27.8477 45.7254 27.898 45.7404 27.9399 45.7555L27.9987 45.7788L28.2149 46.0778L28.2308 46.0525C28.2464 46.019 28.2618 45.9773 28.2857 45.9438C28.3096 45.9099 28.3248 45.8599 28.3487 45.8264C28.3965 45.7589 28.4451 45.7162 28.4863 45.707C28.5029 45.7065 28.5441 45.6968 28.6022 45.6953L28.6602 45.6934C28.6931 45.6842 28.7263 45.6832 28.7678 45.6822L29.2819 45.6672C29.6631 45.6478 30.0529 45.6367 30.1275 45.6347C30.1855 45.6328 30.2685 45.6304 30.3517 45.6362C30.4346 45.6338 30.5343 45.6395 30.6185 45.6784L30.6941 45.709L31.2382 46.436L31.2756 46.5835C31.2809 46.765 31.2528 46.9392 31.2159 47.0969C31.179 47.2551 31.1336 47.405 31.1133 47.5623C31.0524 48.0345 30.9081 48.4926 30.822 48.9575C30.7069 49.5632 30.5835 50.1693 30.4601 50.7754L30.4002 51.0001L30.346 51.1336C30.3306 51.1753 30.2992 51.234 30.234 51.2772L30.1023 51.3141L29.9864 51.3257L29.0079 51.3539L28.4638 50.6269L28.4559 50.3546L28.0949 51.0666C28.0551 51.1257 28.0067 51.1767 27.975 51.2272L27.8311 51.4126L26.3301 51.4562L25.7265 50.6812L25.7456 50.4827L25.4627 51.0272L25.2809 51.3378L25.2165 51.4058C25.1843 51.4397 25.1513 51.4489 25.1264 51.4495L25.044 51.4684L24.8704 51.4902C24.7545 51.5018 24.6301 51.5052 24.5804 51.5067ZM25.8043 45.9492L23.3515 50.6341L23.9236 50.6176C24.0066 50.6152 24.5044 50.6093 24.569 50.5497C24.7225 50.4046 25.4959 48.7483 25.6694 48.4377C25.7875 48.2198 25.9218 47.9849 26.0314 47.7588C26.0863 47.6496 26.171 47.4244 26.2598 47.3395C26.2825 47.2643 26.3997 47.0134 26.4826 47.011C26.5573 47.009 26.5845 47.0906 26.5862 47.1483C26.5891 47.2473 25.9419 50.097 25.9179 50.4114L26.0134 50.5574L27.1992 50.523C27.2231 50.4895 27.4 50.2944 27.3991 50.2614L29.1612 46.9338C29.2109 46.9323 29.2465 47.0139 29.2477 47.0551C29.2501 47.1376 29.2361 47.2284 28.8597 48.8323C28.7712 49.2147 28.614 50.0858 28.6249 50.4571L29.0892 50.4435C29.1722 50.4411 29.5373 50.4391 29.6027 50.4041C29.6763 50.3688 29.7342 50.0785 29.7489 50.012C29.8726 49.4141 29.996 48.808 30.1111 48.2019C30.1971 47.7375 30.3332 47.2794 30.4024 46.8071C30.4435 46.5087 30.5744 46.1583 30.5657 45.8613L30.5564 45.8284C30.4723 45.7895 30.2235 45.7968 30.1323 45.7997C29.6016 45.8148 29.0713 45.8468 28.5406 45.8618C28.4835 45.8967 28.3659 46.1311 28.3429 46.1981C28.0213 46.5538 27.9209 47.0934 27.6078 47.4574C27.6534 47.3157 27.883 46.0792 27.8796 45.9637C27.8791 45.9472 27.8784 45.9225 27.8696 45.906C27.8021 45.8667 27.5285 45.8749 27.4621 45.8768C26.9065 45.8928 26.3599 45.9331 25.8043 45.9492ZM31.9579 51.2933L31.1037 51.318L30.5597 50.591L30.5629 50.4177L32.6611 46.3787C32.756 46.219 32.8432 46.0763 32.9142 45.9502C32.9928 45.7993 33.0155 45.7245 33.036 45.5755L33.177 45.5712C33.7326 45.5552 34.2792 45.5144 34.8348 45.4984C34.8845 45.497 34.9758 45.4945 35.0589 45.5003L35.1253 45.4984C35.1421 45.5062 35.167 45.5056 35.1836 45.5052C35.2253 45.512 35.2755 45.527 35.3175 45.5425L35.3762 45.5654L35.5924 45.8648L35.6083 45.8395C35.624 45.8061 35.6393 45.7643 35.6632 45.7304C35.6872 45.6969 35.7023 45.6469 35.7262 45.613C35.774 45.5455 35.8226 45.5032 35.8638 45.4936C35.8804 45.4931 35.9216 45.4838 35.9797 45.4819L36.0377 45.4804C36.0707 45.4712 36.1038 45.4702 36.1453 45.4688L36.6594 45.4542C37.0407 45.4348 37.4304 45.4237 37.505 45.4213C37.5631 45.4198 37.646 45.4174 37.7292 45.4232C37.8121 45.4208 37.9119 45.4261 37.996 45.465L38.0716 45.496L38.6157 46.223L38.6532 46.3705C38.6584 46.552 38.6303 46.7262 38.5935 46.8839C38.5566 47.0417 38.5111 47.1916 38.4908 47.3493C38.4299 47.8215 38.2856 48.2796 38.1995 48.7441C38.0844 49.3502 37.961 49.9563 37.8376 50.5624L37.7777 50.7867L37.7236 50.9206C37.7081 50.9623 37.6767 51.021 37.6115 51.0642L37.4798 51.1007L37.364 51.1123L36.3854 51.1409L35.8413 50.4135L35.8334 50.1417L35.4724 50.8536C35.4326 50.9124 35.3843 50.9633 35.3526 51.0138L35.2086 51.1996L33.7076 51.2428L33.1041 50.4678L33.1232 50.2693L32.8402 50.8138L32.6584 51.1248L32.594 51.1924C32.5618 51.2263 32.5289 51.2355 32.504 51.2365L32.4215 51.2554L32.2479 51.2768C32.132 51.2884 32.0076 51.2918 31.9579 51.2933ZM33.1818 45.7362L30.729 50.4211L31.3012 50.4046C31.3841 50.4022 31.8819 50.3959 31.9465 50.3363C32.1 50.1916 32.8734 48.5349 33.0469 48.2247C33.1651 48.0064 33.2993 47.7715 33.4089 47.5454C33.4638 47.4366 33.5485 47.2114 33.6373 47.1261C33.6601 47.0513 33.7772 46.8004 33.8602 46.798C33.9348 46.7956 33.9621 46.8776 33.9637 46.9353C33.9666 47.0343 33.3194 49.884 33.2954 50.1984L33.3909 50.344L34.5768 50.31C34.6007 50.2761 34.7776 50.081 34.7766 50.048L36.5387 46.7204C36.5884 46.7189 36.624 46.8005 36.6252 46.8417C36.6276 46.9242 36.6137 47.0154 36.2372 48.6193C36.1487 49.0017 35.9915 49.8728 36.0024 50.2441L36.4668 50.2305C36.5497 50.2281 36.9148 50.2257 36.9802 50.1907C37.0539 50.1558 37.1118 49.8651 37.1264 49.7986C37.2501 49.2007 37.3735 48.5946 37.4886 47.9889C37.5747 47.5241 37.7107 47.0664 37.7799 46.5937C37.821 46.2953 37.9519 45.9449 37.9432 45.6479L37.934 45.6154C37.8498 45.5766 37.6011 45.5838 37.5098 45.5863C36.9791 45.6018 36.4489 45.6334 35.9182 45.6488C35.8611 45.6833 35.7434 45.9182 35.7205 45.9847C35.3989 46.3408 35.2984 46.88 34.9853 47.244C35.031 47.1023 35.2605 45.8658 35.2571 45.7503C35.2567 45.7338 35.2559 45.7095 35.2472 45.693C35.1796 45.6537 34.906 45.6615 34.8396 45.6634C34.284 45.6794 33.7374 45.7202 33.1818 45.7362ZM41.2466 51.091L38.7007 51.1647L38.5052 51.0051L37.9611 50.2781L37.9831 50.1786C37.9897 50.1204 38.0129 50.0621 38.0363 50.0117C38.06 49.9699 38.0837 49.9277 38.1071 49.8777L38.4692 48.9178C38.5315 48.7761 38.6023 48.6417 38.6477 48.4918C38.7397 48.2335 38.8401 47.9744 39.1281 47.3226C39.1355 47.2892 39.1425 47.2479 39.158 47.2062C39.1887 47.1227 39.2441 47.0301 39.6057 46.0541L39.6528 45.9619L39.6682 45.9202L39.7148 45.8115C39.7683 45.6532 39.8972 45.5174 39.9943 45.432L40.0428 45.3893L40.1091 45.3873C40.5908 45.3985 41.0718 45.3844 41.5611 45.3703L42.2825 45.3495C42.3157 45.3485 42.4235 45.3452 42.5235 45.3588C42.5733 45.3573 42.6401 45.3723 42.6903 45.3873C42.724 45.4029 42.8498 45.4485 42.8539 45.5888L43.2512 46.1221C43.3017 46.1454 43.3946 46.2003 43.398 46.3158C43.4031 46.489 43.0506 47.2091 42.9708 47.3188L42.9229 47.3863L42.019 47.4124L42.071 47.4852L42.4856 48.0424C42.6031 48.0885 42.6148 48.204 42.6158 48.237L42.602 48.3365L42.5715 48.4282L42.4873 48.6699C42.4257 48.8368 42.3562 49.012 42.333 49.0703L42.31 49.1372L42.2544 49.2212C42.2146 49.2804 42.1421 49.3566 42.0178 49.3604L41.3626 49.3793L41.7773 49.9365L41.8219 50.0428C41.8238 50.1088 41.8015 50.2 41.7784 50.2587L41.6143 50.6101L41.5599 50.7353L41.5223 50.8687L41.4751 50.9605C41.4593 50.9857 41.4193 51.0366 41.3534 51.0551L41.2466 51.091ZM38.1419 50.215L38.2099 50.2708L40.5981 50.2019C40.6645 50.2 40.7557 50.1975 40.755 50.1728C40.8048 50.1713 40.8497 50.0049 40.8568 49.9632C40.9017 49.7967 41.1085 49.4856 41.1124 49.3367L41.0949 49.3042C41.0271 49.2566 39.7749 49.293 40.0568 49.2847C39.949 49.2881 39.7912 49.2842 39.7898 49.2347C39.7852 49.078 39.9883 48.6431 40.084 48.5082C40.4074 48.499 40.7393 48.4976 41.0628 48.4883C41.1954 48.4845 41.3362 48.4719 41.4688 48.468C41.5601 48.4656 41.6067 48.3569 41.6377 48.2816C41.6839 48.1564 41.9082 47.5969 41.9058 47.5144C41.9053 47.4979 41.8963 47.4736 41.8795 47.4659C41.7468 47.4697 40.4941 47.4892 40.4605 47.4736C40.4586 47.4076 40.8247 46.5884 40.8889 46.5122C41.1214 46.5137 41.354 46.5234 41.5862 46.5166L42.2911 46.4963C42.3709 46.387 42.6912 45.7008 42.688 45.5936C42.6854 45.5029 42.3454 45.5126 42.2874 45.5145L41.5576 45.5354C41.0766 45.5494 40.5956 45.563 40.1057 45.5528C40.0571 45.5955 39.8719 45.7906 39.8741 45.8648C39.8272 45.9653 38.9288 48.17 38.8069 48.5451C38.7078 48.845 38.1783 50.0408 38.1419 50.215ZM47.6843 48.1648C47.3953 48.784 47.0507 49.2066 46.9451 49.2838L46.9639 49.3576L47.2167 50.0603C47.2979 50.2806 47.3968 50.5418 47.4018 50.715C47.4035 50.7727 47.3808 50.8479 47.3242 50.8989C47.3164 50.9159 47.2673 50.9421 47.1847 50.9527L47.0688 50.9639L46.7459 50.9901C46.5056 51.0052 46.2486 51.0125 46.1905 51.0144L46.1324 51.0158L46.0488 50.9935C45.982 50.979 45.9308 50.9309 45.9037 50.8576C45.8952 50.8494 45.895 50.8411 45.8867 50.8416L45.3597 50.1302C45.2824 50.0418 45.1279 49.5842 45.0912 49.4614L44.6848 49.4731L44.5918 49.6987L44.3899 50.1748C44.3203 50.35 44.2503 50.5091 44.1875 50.6348L44.0848 50.811C44.0609 50.8445 44.0047 50.9124 43.9308 50.9391L43.8484 50.9581L42.9279 50.9847C42.8862 50.9775 42.8277 50.9629 42.7852 50.9309C42.7348 50.9076 42.6836 50.8596 42.6731 50.7858L42.2329 50.2043C42.1821 50.1728 42.1222 50.1083 42.1193 50.0093C42.1176 49.9515 42.1325 49.8933 42.1559 49.8433C42.1713 49.8016 42.1867 49.7598 42.2187 49.7176L42.3127 49.525C42.4128 49.258 42.799 48.2729 43.2031 47.3285C43.5753 46.4346 44.0038 45.4728 44.1579 45.3529C44.1741 45.3359 44.2067 45.3185 44.2563 45.3088C44.2729 45.3083 44.2978 45.3078 44.3224 45.2986C44.3721 45.2971 44.4299 45.2874 44.5046 45.285C44.6536 45.2728 44.836 45.2675 45.035 45.2617L45.9224 45.236C45.9804 45.2345 46.2129 45.236 46.4282 45.2214L46.7346 45.1962L46.8175 45.1937L47.1014 45.2515L47.4422 45.5553L47.9863 46.2823C48.0894 46.4031 48.1516 46.5419 48.1576 46.7477C48.1619 46.8962 47.9426 47.629 47.6843 48.1648ZM46.3138 48.4108C46.7124 48.1351 46.8823 47.7008 47.03 47.3582C47.1872 47.0564 47.4575 46.3638 47.4476 46.0256C47.4387 45.7203 47.2435 45.5694 47.0228 45.4024L46.9296 45.3389C46.8053 45.3427 46.5231 45.3423 46.1913 45.352C45.4201 45.3743 44.3674 45.4213 44.2613 45.482C44.0818 45.5863 42.6238 49.095 42.4719 49.5783C42.4338 49.6948 42.2818 49.889 42.2852 50.0045C42.2895 50.1529 42.7193 50.0913 42.8188 50.0884C42.8851 50.0864 43.2832 50.0748 43.3324 50.0569C43.5049 49.9942 43.8939 48.8189 44.0364 48.584L44.3847 48.5738C44.4842 48.5709 44.9228 48.5253 44.9922 48.6306L45.5068 50.052C45.5168 50.1093 45.567 50.1243 45.6168 50.1229C45.7163 50.12 46.6445 50.0768 46.6687 50.0511C46.6848 50.0341 46.6926 50.0176 46.6919 49.9928C46.688 49.8608 46.481 49.3056 46.4447 49.1994C46.3906 49.0523 46.3289 48.9301 46.2912 48.7747C46.2904 48.75 46.2815 48.7253 46.2724 48.701C46.2461 48.652 46.2115 48.6034 46.2098 48.5457C46.2076 48.4715 46.265 48.4452 46.3138 48.4108ZM45.7037 46.274C45.9524 46.2668 46.1356 46.2862 46.1407 46.4594C46.1457 46.6327 45.9743 47.0175 45.9043 47.1762C45.803 47.4019 45.7871 47.4271 45.5481 47.4834C45.309 47.5401 45.06 47.5391 44.8112 47.546C44.6702 47.5503 44.4875 47.5474 44.4849 47.4567C44.4844 47.4402 44.9029 46.421 44.9495 46.3123C45.0407 46.3099 45.1398 46.2905 45.231 46.2876C45.3971 46.291 45.5627 46.2779 45.7037 46.274ZM50.2934 50.8873C49.9452 50.8975 49.5796 50.8834 49.2286 50.8028C49.1201 50.781 48.8265 50.6738 48.5658 50.5577C48.4312 50.4956 48.2966 50.4335 48.2035 50.37L48.0676 50.2666C48.042 50.2428 48.0162 50.2103 47.9901 50.17L47.5236 49.5396C47.4894 49.5076 47.4294 49.443 47.4268 49.3523C47.4256 49.3115 47.4407 49.2615 47.4481 49.228C47.4554 49.195 47.8403 48.4491 47.8725 48.4152C47.8967 48.3899 47.9533 48.3385 48.0362 48.3361C48.0943 48.3346 48.1447 48.3579 48.1701 48.3735C48.204 48.3972 48.2293 48.4132 48.255 48.437L48.3235 48.5093L48.3322 48.5258C48.5548 48.7587 49.0892 48.867 49.4623 48.8563C49.5287 48.8544 49.7275 48.8403 49.9044 48.6452C49.6837 48.4783 49.4616 48.2619 49.0388 47.9935L48.5415 47.4465C48.4386 47.334 48.3764 47.1956 48.3392 47.0563C48.3199 46.9661 48.3173 46.8753 48.3149 46.7928L48.3072 46.5289C48.3057 46.4794 48.3041 46.4216 48.3112 46.3803L48.3092 46.3143C48.3168 46.2891 48.3161 46.2644 48.3239 46.2478C48.3237 46.2396 48.4167 46.014 48.4238 45.9727C48.4931 45.7888 48.6788 45.6102 48.8495 45.4898C48.9308 45.4297 49.0042 45.3864 49.0613 45.3515C49.3558 45.203 49.9185 45.1453 50.2004 45.137C50.7146 45.1224 51.4934 45.3637 51.8626 45.7825L51.9401 45.8791L52.4842 46.6065L52.4207 46.7074L52.0131 47.5281L51.9094 47.6713L51.588 47.466L51.3424 47.2995C51.1737 47.2054 51.0396 47.1598 50.7742 47.1675C50.6249 47.1719 50.5096 47.2 50.4366 47.2597L50.7753 47.4893C50.9018 47.5601 51.0289 47.647 51.1481 47.7509C51.2164 47.8149 51.2846 47.879 51.3451 47.96L51.8892 48.687C52.0186 48.8568 52.0995 49.0689 52.1072 49.3329C52.1142 49.5721 52.0375 49.7886 51.9433 49.973C51.8174 50.2079 51.6565 50.386 51.4697 50.5233C51.1367 50.7723 50.7247 50.8751 50.2934 50.8873ZM47.5927 49.3479C47.5974 49.5124 48.5544 49.8812 48.7214 49.9176C49.0389 49.9909 49.4211 50.0046 49.7446 49.9953C50.3748 49.9773 50.9492 49.7541 51.2475 49.1679C51.334 49.0004 51.4031 48.8083 51.3973 48.6103C51.3963 48.5773 51.3873 48.553 51.3863 48.52C51.3103 47.9032 50.8064 47.7032 50.3166 47.4121C50.1561 47.3175 49.6238 46.9943 49.6175 46.7798C49.6067 46.409 49.9102 46.2847 50.2253 46.2755C50.8556 46.2571 51.2005 46.7012 51.3334 46.7055C51.3654 46.6633 51.7013 45.9441 51.733 45.8936C51.4151 45.5229 50.6862 45.288 50.2052 45.302C49.9315 45.3098 49.3771 45.3671 49.1403 45.4981C48.9605 45.5937 48.6521 45.8339 48.5833 46.0339C48.5525 46.1173 48.5305 46.2173 48.4829 46.293C48.4697 46.4085 48.4731 46.524 48.4764 46.6395L48.482 46.8292C48.5053 47.6295 50.0496 48.2201 50.0617 48.6326C50.0677 48.8388 49.6164 49.0169 49.4506 49.0218C49.0525 49.033 48.356 48.7728 48.0654 48.4841C47.8954 48.6292 47.5886 49.2076 47.5927 49.3479ZM53.0728 50.7C53.0397 50.7009 52.9484 50.7034 52.8567 50.6898L52.7065 50.6607C52.6731 50.6534 52.5473 50.6078 52.5432 50.4675L52.1373 49.9264L51.9991 49.7405C51.9986 49.724 51.9976 49.691 52.0133 49.6575L52.0362 49.5906C52.0599 49.5489 52.0831 49.4902 52.1143 49.4232C52.1768 49.2897 52.2632 49.1218 52.3496 48.9544C52.5222 48.6108 52.7031 48.2672 52.7507 48.1915C52.7744 48.1498 52.8058 48.091 52.8459 48.0405L52.9091 47.9314C52.9483 47.8557 52.9708 47.7727 53.0104 47.7053C53.1119 47.4878 53.2383 47.2695 53.3567 47.0598L53.4524 46.9249L53.5156 46.8157C53.6726 46.5061 53.8046 46.1969 53.9784 45.8946C54.0336 45.7941 54.1051 45.6845 54.1685 45.5836C54.1927 45.5583 54.2168 45.5326 54.2324 45.4991L54.2803 45.4321C54.3201 45.3729 54.3433 45.3147 54.3828 45.2473C54.414 45.1803 54.4619 45.1129 54.5178 45.0371L54.5661 44.9862L56.8051 44.9216L57.3492 45.6486L57.354 45.8136C57.3576 45.9374 57.3534 46.0776 57.3404 46.2019C57.3336 46.2518 57.3184 46.3018 57.3113 46.3431L57.2808 46.4348L57.1652 47.024L57.0841 47.3733L57.0548 47.5059L57.0394 47.5476C57.0335 47.6305 57.0188 47.697 57.0042 47.7635C56.9815 47.8383 56.9668 47.9048 56.9521 47.9712C56.9372 48.0295 56.9392 48.0955 56.9325 48.1532L56.8872 48.3032L56.8204 48.5774C56.7987 48.6856 56.7288 49.1331 56.6415 49.5567C56.598 49.7726 56.5545 49.9886 56.5093 50.1468L56.449 50.3545L56.4099 50.4384C56.3782 50.4889 56.346 50.5229 56.3214 50.5316C56.2806 50.5578 56.2308 50.5593 56.1979 50.5681L56.0821 50.5797L55.1119 50.6078L54.5678 49.8808L54.5634 49.7323L54.4973 49.7425L54.4339 49.8434L54.3558 50.0109C54.2928 50.1279 54.2459 50.2283 54.2066 50.304C54.1592 50.3879 54.1117 50.4636 54.047 50.5233C53.9013 50.651 53.7028 50.6733 53.4292 50.6811C53.3131 50.6845 53.1889 50.6966 53.0728 50.7ZM52.5239 49.8076C53.4361 49.7813 53.3222 49.859 53.66 49.2053C53.7071 49.1131 53.7696 48.9792 53.8335 48.8952C53.8735 48.8442 54.0474 48.8311 54.2216 48.8258C54.3709 48.8219 54.5287 48.8253 54.5701 48.8243C54.6531 48.8219 54.7448 48.8355 54.8279 48.8414C54.7603 49.083 54.7213 49.4553 54.7288 49.711L55.1849 49.6979C55.2678 49.6955 55.6246 49.6935 55.6983 49.6581C55.8456 49.5878 56.0818 47.7242 56.2217 47.3981C56.2156 47.1918 56.326 46.9905 56.3282 46.7842C56.3768 46.7415 56.5533 45.6797 56.6298 45.455C56.6262 45.3312 56.6476 45.2148 56.644 45.091L54.6455 45.1492C54.6053 45.1914 54.4308 45.469 54.4239 45.5185C54.112 45.9237 53.886 46.4255 53.667 46.886C53.628 46.9695 53.5477 47.0627 53.5003 47.1467C53.3981 47.3393 53.1208 47.7931 53.0605 48.0013C52.9397 48.1284 52.1628 49.6614 52.1649 49.7357C52.1669 49.8017 52.3581 49.8124 52.5239 49.8076ZM54.3025 47.8994C54.3022 47.8911 54.7504 47.0361 54.8212 46.9021C54.8602 46.8182 55.1585 46.2319 55.2663 46.229C55.3326 46.227 55.3182 46.3018 55.3194 46.343C55.3233 46.4746 55.2663 46.7983 55.2116 46.9157C55.2138 46.9899 55.1742 47.0569 55.1596 47.1234C55.1237 47.3141 55.1382 47.5286 55.0523 47.7125C55.053 47.7373 55.0393 47.8368 55.0064 47.846C54.9739 47.8717 54.4025 47.9129 54.3113 47.9154C54.3027 47.9076 54.3027 47.9076 54.3025 47.8994ZM59.4383 48.5846L59.6325 48.7026L60.1849 49.4296L60.179 49.5039C60.1746 49.6363 60.1053 49.828 60.0438 49.9949C59.9823 50.1701 59.9047 50.3458 59.8578 50.4458L59.8188 50.538L57.6538 50.5758C57.5958 50.5773 57.4631 50.5812 57.3302 50.5768L57.1304 50.5578L57.0385 50.5356C57.0131 50.52 56.9627 50.4967 56.9283 50.4564L56.3842 49.7294L56.3957 49.5557C56.4118 49.5387 56.4641 49.3388 56.48 49.3136L56.716 48.8695C56.8005 48.6361 57.405 47.1657 57.6144 46.6644C57.7148 46.4057 57.8066 46.1388 57.9235 45.8796C58.1945 45.2114 58.2721 45.0275 58.427 44.9324C58.4435 44.9236 58.4679 44.9066 58.5172 44.8969C58.5421 44.896 58.567 44.8872 58.6001 44.8862L59.2877 44.8498C59.3292 44.8484 59.3877 44.8552 59.4385 44.8867L59.559 45.0401L59.9825 45.6137C60.0582 45.653 60.1016 45.7176 60.1041 45.8083C60.107 45.8991 60.0767 45.999 60.0538 46.0656L59.9684 46.2664C59.6585 47.0346 59.3324 47.7951 59.0226 48.5633C59.0806 48.5618 59.3553 48.5788 59.4383 48.5846ZM57.1049 49.6838L59.1621 49.6489C59.2401 49.4733 59.4656 48.955 59.4686 48.7735C59.4261 48.7332 59.2182 48.723 58.9942 48.7293C58.7371 48.7366 58.4642 48.7613 58.3397 48.7647C58.2982 48.7661 57.9499 48.7759 57.9478 48.7016C57.9453 48.6196 58.0564 48.4429 58.0959 48.3755C58.1752 48.2494 58.2498 47.9586 58.3117 47.8082C58.621 47.0317 58.9553 46.2543 59.273 45.4774C59.3116 45.3774 59.3975 45.2017 59.3941 45.0862C59.3936 45.0697 59.3839 45.0202 59.3594 45.0211L59.1023 45.0284C58.8617 45.0353 58.5465 45.0445 58.5142 45.0702C58.4162 45.1308 58.3457 45.273 58.3157 45.3813L58.0749 45.9495C57.958 46.2087 57.8743 46.4673 57.7656 46.726C57.5644 47.2273 56.5469 49.6173 56.514 49.6265C56.5576 49.6994 57.022 49.6862 57.1049 49.6838ZM58.1605 48.5968L58.2078 48.5128C58.192 48.538 58.1761 48.5633 58.1605 48.5968ZM61.7751 50.4565L61.6756 50.4594C61.4682 50.4657 61.2521 50.4633 61.0451 50.4696L60.9368 50.4643C60.8949 50.4492 60.769 50.4031 60.7651 50.2629L60.3591 49.7217L60.221 49.5359C60.2205 49.5194 60.2196 49.4946 60.2352 49.4529C60.2347 49.4364 60.242 49.4116 60.9638 47.6903C60.9799 47.6651 61.0194 47.5976 61.0507 47.5311L61.0897 47.4554L61.0897 47.4472L61.0814 47.4476L61.036 47.3166L60.858 46.909C60.6692 46.4111 60.1671 45.1299 60.1408 45.0809L60.009 44.8372L60.2832 44.8377L60.54 44.83C60.7888 44.8227 61.0459 44.8072 61.3022 44.7834L61.4183 44.7717L61.9623 45.4987L62.0068 45.605C62.0507 45.6861 62.0867 45.7758 62.1307 45.8656C62.2273 45.7637 62.3483 45.6443 62.4694 45.5254C62.7675 45.2197 63.0818 44.8887 63.1623 44.8038L63.2184 44.7446L63.3014 44.7504C63.318 44.7499 63.3268 44.7577 63.3351 44.7577L63.3932 44.764L63.46 44.7703L64.0568 44.7533C64.1564 44.7504 64.2559 44.7393 64.3471 44.7364C64.4052 44.7349 64.4632 44.7334 64.5213 44.7398L64.7214 44.7669L65.2655 45.4944L65.2045 45.6856L65.1571 45.7696C64.1709 46.9537 64.4671 46.5819 63.0381 48.2329L62.8459 48.4697L62.798 48.5371L62.7829 48.5949L62.7361 48.6871L62.3818 49.6383C62.3125 49.8222 62.251 49.9891 62.1802 50.1231L62.086 50.3075C62.0538 50.3414 61.9977 50.4172 61.9074 50.4444L61.7751 50.4565ZM60.3869 49.531C60.3884 49.5805 60.4713 49.5781 60.4962 49.5776C60.7032 49.5713 60.9193 49.5733 61.1267 49.5674C61.193 49.5655 61.2594 49.5635 61.3253 49.5534C61.5298 49.4485 61.9461 48.0746 62.0627 47.8072C62.0862 47.7568 64.4803 45.0382 64.5013 44.9053C64.4511 44.8985 64.4017 44.8999 64.352 44.9014C64.2607 44.9042 64.1529 44.9154 64.0617 44.9183L63.4648 44.9353C63.4068 44.9372 63.3399 44.9227 63.2814 44.9159C63.2009 45.0008 62.0336 46.2397 61.934 46.2427C61.8594 46.2446 61.8145 46.1223 61.7881 46.0651C61.6359 45.6899 61.492 45.3143 61.3153 44.9479C61.0587 44.9717 60.802 44.9877 60.5448 44.995L60.2881 45.0023C60.4808 45.3517 61.2625 47.401 61.2644 47.467C61.2654 47.4918 61.1385 47.7097 61.1151 47.7602C61.0228 48.0023 60.383 49.4073 60.3869 49.531ZM65.3625 50.3779L64.6573 50.39L64.5241 50.3691C64.4065 50.3313 64.3626 50.2498 64.3607 50.1755L63.9543 49.6261L63.8166 49.4485C63.8161 49.432 63.8151 49.399 63.8303 49.3573C63.8381 49.3404 63.8454 49.3073 63.8528 49.2739C63.8762 49.2156 63.9069 49.1321 63.9372 49.0322C64.0065 48.8487 64.0992 48.6066 64.1998 48.3644C64.3848 47.8801 64.5946 47.3788 65.5483 45.0897C65.6102 44.931 65.6571 44.831 65.7385 44.7708C65.8196 44.7106 65.9269 44.6908 66.1094 44.6859L67.0215 44.6592L67.5655 45.3862L67.6025 45.509C67.649 45.4007 67.6948 45.2673 67.7578 45.1416C67.8041 45.0247 67.8588 44.9159 67.9062 44.832C67.93 44.7898 67.9618 44.7476 67.994 44.7136C68.0184 44.6883 68.0745 44.6287 68.1658 44.6262C68.4146 44.619 68.6713 44.6034 68.9202 44.5962C68.9451 44.5956 69.0031 44.5937 69.0534 44.6005C69.0783 44.6083 69.1202 44.6151 69.1622 44.6388L69.2657 44.7762L69.7063 45.3658C69.7487 45.3896 69.8082 45.4454 69.8107 45.5362C69.8112 45.5444 69.8039 45.5857 69.7892 45.6439L69.7501 45.7279L69.6955 45.8531L69.1791 47.2134L68.3982 49.1758L68.2977 49.4345L68.2298 49.6592L68.1049 49.9271L68.0264 50.0863L67.9785 50.1537L67.8892 50.2222C67.8487 50.2479 67.7824 50.2581 67.7413 50.2678L66.8621 50.293C66.762 50.2794 66.6532 50.2415 66.5839 50.1362L66.074 49.4491L66.0657 49.4413C65.8944 49.8422 65.7548 50.1765 65.7231 50.227C65.6675 50.311 65.5855 50.3381 65.5357 50.3478C65.4781 50.3662 65.4122 50.3764 65.3625 50.3779ZM63.9825 49.4437C63.985 49.5344 64.4817 49.4869 64.5398 49.4854C64.573 49.4845 64.6642 49.4898 64.7555 49.4874C64.8799 49.4835 65.0121 49.4636 65.0356 49.4131C65.1288 49.1958 65.937 47.307 65.9419 47.1915L65.958 47.1827C66.0161 47.1812 66.04 47.4278 66.0463 47.6506C66.0516 47.8238 66.0477 47.9806 66.0482 47.9971C66.0555 48.2446 66.096 48.4911 66.1194 48.7299C66.1892 49.4127 66.0237 49.4258 66.7367 49.4054C66.8279 49.4025 67.2095 49.3918 67.2744 49.3486C67.3408 49.3384 67.4784 48.9463 67.5262 48.8706C67.5409 48.8042 67.5883 48.7285 67.5946 48.6624C67.7805 48.195 67.9489 47.7195 68.1597 47.2594C68.1641 47.1192 68.8259 45.6308 68.824 45.5565C68.8469 45.4979 68.9943 45.1387 68.9924 45.081C69.0085 45.0558 69.1012 44.8223 69.1007 44.814C69.0997 44.7645 68.9914 44.7592 68.9251 44.7612C68.6762 44.7684 68.4195 44.784 68.1706 44.7912C68.0711 44.7941 67.87 45.2867 67.8387 45.3537C67.7841 45.4711 67.7631 45.6201 67.6914 45.7211C67.6538 45.8462 67.2751 46.8144 67.2043 46.9406C67.196 46.9488 67.1804 46.9741 67.1638 46.9746C67.1389 46.9751 67.1292 46.9343 67.1204 46.91C67.0574 46.7382 67.0267 46.252 67.0209 46.0544L67.0097 45.6749C67.0014 45.3862 66.9844 45.0979 66.9019 44.8277L65.8981 44.8485C65.6775 45.243 63.9787 49.3199 63.9825 49.4437ZM72.8266 47.5949L74.3616 50.1426L72.6346 50.1179L72.0901 49.3827L71.7661 48.8061C71.6456 48.9333 71.4928 49.1027 71.3401 49.2725C71.0429 49.6112 70.7296 49.9752 70.6335 50.0936L70.5856 50.1523L69.4575 50.1853L69.3413 50.1804C69.25 50.1746 69.1988 50.1348 69.173 50.1023L69.0525 49.9577L68.5084 49.2302L68.6714 49.1264C68.7206 49.1002 69.1462 48.6178 69.6357 48.0422C70.0612 47.5429 70.5024 47.0265 70.7034 46.798C70.5751 46.3889 69.8999 45.1455 69.6651 44.7728L69.5251 44.5292L70.9432 44.4884L71.6585 45.6891C71.7634 45.5789 72.6716 44.5705 72.7521 44.4855L72.7922 44.4346L74.4425 44.3871L74.9865 45.1141L74.7128 45.4028C74.255 45.9196 73.0418 47.2998 72.8266 47.5949ZM68.7587 49.2725C68.7675 49.2889 68.7924 49.288 68.8007 49.288C68.8924 49.2933 68.9832 49.2909 69.0745 49.2884L69.962 49.2627C70.0182 49.1948 71.2216 47.7734 71.3529 47.72L72.1852 49.223L73.5218 49.2424L72.0913 46.8654C72.121 46.7407 73.7915 44.835 74.0492 44.5637L72.8717 44.5976C72.8395 44.6316 71.6673 45.9861 71.6092 45.9876L70.8485 44.6559L69.812 44.686C69.9691 44.9538 70.8533 46.5378 70.8874 46.8421C70.6137 47.1391 68.849 49.237 68.7587 49.2725Z" fill="#FF0000"/>
</g>
<g filter="url(#filter1_d_76_383)">
<path d="M57.1516 35.6511L53.6369 31.0041L54.6847 29.1474L60.7968 37.2261L57.1516 35.6511Z" fill="url(#paint0_linear_76_383)"/>
<path d="M48.4004 12.6724L41.8978 13.883L38.8332 12.0722L45.0421 10.87L48.4004 12.6724Z" fill="url(#paint1_linear_76_383)"/>
<path d="M59.517 10.9631L54.3559 20.3903L51.6783 16.7418L56.0118 9.16496L62.0008 7.96914L65.43 9.69643L59.517 10.9631Z" fill="url(#paint2_linear_76_383)"/>
<path d="M42.4438 40.1674L39.0207 38.6591L47.5451 23.6556L38.6882 12.1496L41.8954 13.8102L48.3267 12.6747L54.4284 20.3884L59.4428 10.9654L65.4336 9.84261L57.6931 24.0198L67.0052 36.0241L60.7207 37.1554L54.6839 29.1476L49.0996 39.1715L42.6632 40.1346L42.4438 40.1674Z" fill="url(#paint3_linear_76_383)"/>
</g>
<g filter="url(#filter2_d_76_383)">
<path d="M29.9201 41.4789C32.7171 41.3981 34.9417 39.862 34.8887 38.0478C34.8358 36.2337 32.5255 34.8286 29.7285 34.9095C26.9315 34.9903 24.707 36.5264 24.7599 38.3405C24.8128 40.1546 27.1231 41.5597 29.9201 41.4789Z" fill="#060302"/>
<path d="M31.0211 41.4471C34.4261 41.3487 37.1436 39.7983 37.0907 37.9842C37.0378 36.1701 34.2345 34.7793 30.8295 34.8776C27.4244 34.976 24.707 36.5264 24.7599 38.3405C24.8128 40.1546 27.616 41.5455 31.0211 41.4471Z" fill="#181310"/>
<path d="M36.3089 37.8847C31.7807 40.8961 27.5086 39.5572 25.4411 38.1965C25.1098 37.9784 25.0297 37.5459 25.1909 37.1848C26.5539 34.13 28.2486 26.4533 26.1768 15.2518C26.1065 14.8714 26.5905 14.5518 26.9447 14.7115C28.4805 15.4043 31.1375 15.8216 34.3527 14.26C34.6644 14.1086 35.0353 14.366 34.9875 14.7077C33.3383 26.4819 35.1615 33.9055 36.5674 36.7873C36.7549 37.1716 36.6659 37.6472 36.3089 37.8847Z" fill="#890008"/>
<path d="M30.6234 16.0714C33.1005 15.9998 35.0865 15.182 35.0592 14.2448C35.0319 13.3076 33.0016 12.6059 30.5244 12.6775C28.0472 12.7491 26.0612 13.5669 26.0886 14.504C26.1159 15.4412 28.1462 16.1429 30.6234 16.0714Z" fill="#FFBC2B"/>
<path d="M29.5091 15.3198C30.982 15.2772 32.1624 14.7752 32.1456 14.1984C32.1288 13.6217 30.9211 13.1887 29.4482 13.2312C27.9753 13.2738 26.7949 13.7758 26.8117 14.3526C26.8285 14.9293 28.0362 15.3623 29.5091 15.3198Z" fill="#FFD258"/>
<path d="M34.1113 38.3397L26.7337 34.5995C26.453 34.4572 26.088 34.669 25.971 34.96C25.7651 35.4722 25.3535 36.124 24.8818 37.4971C24.9326 39.2362 30.6829 40.5772 34.1197 39.0119C34.4119 38.8788 34.3976 38.4849 34.1113 38.3397Z" fill="#710007"/>
<path d="M30.5465 30.2097C31.0328 30.1956 31.4165 29.8249 31.4036 29.3815C31.3907 28.9382 30.986 28.5902 30.4997 28.6043C30.0134 28.6183 29.6296 28.9891 29.6426 29.4324C29.6555 29.8758 30.0602 30.2238 30.5465 30.2097Z" fill="#FFA700"/>
<path d="M30.6104 21.2975L30.1938 21.3095C29.9649 21.3162 29.7847 21.5061 29.7913 21.7338L29.8891 25.0852C29.8957 25.3129 30.0867 25.4921 30.3156 25.4855L30.7322 25.4734C30.9611 25.4668 31.1413 25.2769 31.1347 25.0492L31.0369 21.6978C31.0303 21.4701 30.8393 21.2909 30.6104 21.2975Z" fill="#D9D9D9"/>
<path d="M28.3343 23.0825L28.3483 23.563C28.355 23.7907 28.5459 23.9699 28.7749 23.9633L31.9317 23.8721C32.1606 23.8655 32.3408 23.6755 32.3342 23.4478L32.3202 22.9674C32.3135 22.7397 32.1226 22.5605 31.8936 22.5671L28.7368 22.6583C28.5079 22.6649 28.3277 22.8549 28.3343 23.0825Z" fill="#D9D9D9"/>
<path d="M30.1565 11.8113C32.8319 11.734 34.9378 9.51446 34.8602 6.85378C34.7826 4.1931 32.5509 2.09886 29.8755 2.17617C27.2001 2.25348 25.0942 4.47305 25.1718 7.13373C25.2494 9.79441 27.4811 11.8887 30.1565 11.8113Z" fill="#890008"/>
<path d="M32.6571 7.60284C33.6376 7.21552 34.0536 5.95296 33.5863 4.78283C33.119 3.6127 31.9453 2.9781 30.9648 3.36542C29.9843 3.75274 29.5683 5.0153 30.0356 6.18544C30.5029 7.35557 31.6765 7.99016 32.6571 7.60284Z" fill="#710007"/>
</g>
</g>
<path d="M2.71166 59.5075V69.4789H1.07606V59.5075H2.71166ZM14.4288 61.4444C15.0505 61.4444 15.6053 61.5735 16.0931 61.8317C16.5905 62.09 16.9778 62.4726 17.2552 62.9795C17.5422 63.4865 17.6856 64.0986 17.6856 64.816V69.4789H16.0644V65.0599C16.0644 64.3521 15.8874 63.8117 15.5335 63.4386C15.1796 63.056 14.6966 62.8647 14.0844 62.8647C13.4723 62.8647 12.9845 63.056 12.621 63.4386C12.2671 63.8117 12.0902 64.3521 12.0902 65.0599V69.4789H10.4689V65.0599C10.4689 64.3521 10.2919 63.8117 9.93804 63.4386C9.58414 63.056 9.10111 62.8647 8.48895 62.8647C7.8768 62.8647 7.38899 63.056 7.02552 63.4386C6.67162 63.8117 6.49466 64.3521 6.49466 65.0599V69.4789H4.85906V61.5735H6.49466V62.4774C6.76248 62.1522 7.10204 61.8987 7.51333 61.717C7.92462 61.5352 8.36461 61.4444 8.83329 61.4444C9.46458 61.4444 10.0289 61.5783 10.5263 61.8461C11.0237 62.1139 11.4063 62.5013 11.6741 63.0082C11.9132 62.53 12.2862 62.1522 12.7932 61.8748C13.3001 61.5878 13.8453 61.4444 14.4288 61.4444ZM29.3366 61.4444C29.9583 61.4444 30.5131 61.5735 31.0009 61.8317C31.4983 62.09 31.8857 62.4726 32.1631 62.9795C32.45 63.4865 32.5935 64.0986 32.5935 64.816V69.4789H30.9722V65.0599C30.9722 64.3521 30.7953 63.8117 30.4414 63.4386C30.0875 63.056 29.6044 62.8647 28.9923 62.8647C28.3801 62.8647 27.8923 63.056 27.5289 63.4386C27.175 63.8117 26.998 64.3521 26.998 65.0599V69.4789H25.3767V65.0599C25.3767 64.3521 25.1998 63.8117 24.8459 63.4386C24.492 63.056 24.009 62.8647 23.3968 62.8647C22.7846 62.8647 22.2968 63.056 21.9334 63.4386C21.5795 63.8117 21.4025 64.3521 21.4025 65.0599V69.4789H19.7669V61.5735H21.4025V62.4774C21.6703 62.1522 22.0099 61.8987 22.4212 61.717C22.8325 61.5352 23.2725 61.4444 23.7411 61.4444C24.3724 61.4444 24.9368 61.5783 25.4341 61.8461C25.9315 62.1139 26.3141 62.5013 26.5819 63.0082C26.821 62.53 27.1941 62.1522 27.701 61.8748C28.208 61.5878 28.7532 61.4444 29.3366 61.4444ZM41.9202 65.3325C41.9202 65.629 41.9011 65.8968 41.8628 66.136H35.8225C35.8704 66.7672 36.1047 67.2742 36.5256 67.6568C36.9464 68.0394 37.4629 68.2307 38.0751 68.2307C38.9551 68.2307 39.5768 67.8624 39.9402 67.1259H41.705C41.4659 67.8529 41.0307 68.4507 40.3994 68.9193C39.7776 69.3785 39.0029 69.608 38.0751 69.608C37.3195 69.608 36.6403 69.4406 36.0378 69.1059C35.4447 68.7615 34.976 68.2833 34.6317 67.6711C34.2969 67.0494 34.1296 66.332 34.1296 65.519C34.1296 64.706 34.2922 63.9934 34.6174 63.3813C34.9521 62.7595 35.416 62.2813 36.0091 61.9465C36.6117 61.6117 37.3003 61.4444 38.0751 61.4444C38.8212 61.4444 39.4859 61.607 40.0694 61.9322C40.6528 62.2574 41.1072 62.7165 41.4324 63.3095C41.7576 63.893 41.9202 64.5673 41.9202 65.3325ZM40.2128 64.816C40.2033 64.2134 39.9881 63.7304 39.5672 63.3669C39.1464 63.0034 38.6251 62.8217 38.0033 62.8217C37.439 62.8217 36.956 63.0034 36.5543 63.3669C36.1525 63.7208 35.9134 64.2038 35.8369 64.816H40.2128ZM45.1654 62.7213C45.4045 62.3195 45.7202 62.0087 46.1123 61.7887C46.5141 61.5591 46.9875 61.4444 47.5327 61.4444V63.1373H47.1166C46.4758 63.1373 45.988 63.2999 45.6532 63.6252C45.328 63.9504 45.1654 64.5147 45.1654 65.3182V69.4789H43.5298V61.5735H45.1654V62.7213ZM51.9056 69.608C51.2839 69.608 50.7244 69.498 50.227 69.278C49.7392 69.0485 49.3518 68.7424 49.0649 68.3598C48.7779 67.9676 48.6249 67.5324 48.6057 67.0542H50.2987C50.3274 67.389 50.4853 67.6711 50.7722 67.9007C51.0687 68.1207 51.437 68.2307 51.877 68.2307C52.3361 68.2307 52.69 68.1446 52.9387 67.9724C53.1969 67.7907 53.326 67.5611 53.326 67.2837C53.326 66.9872 53.1826 66.7672 52.8956 66.6238C52.6182 66.4803 52.1735 66.3225 51.5613 66.1503C50.9683 65.9877 50.4853 65.8299 50.1122 65.6768C49.7392 65.5238 49.414 65.2895 49.1366 64.9738C48.8688 64.6582 48.7349 64.2421 48.7349 63.7256C48.7349 63.3047 48.8592 62.9221 49.1079 62.5778C49.3566 62.2239 49.7105 61.9465 50.1696 61.7456C50.6383 61.5448 51.1739 61.4444 51.7765 61.4444C52.6756 61.4444 53.3978 61.6739 53.943 62.133C54.4977 62.5826 54.7943 63.1995 54.8325 63.9838H53.1969C53.1682 63.6299 53.0247 63.3478 52.7665 63.1373C52.5082 62.9269 52.1591 62.8217 51.7191 62.8217C51.2887 62.8217 50.9587 62.903 50.7292 63.0656C50.4996 63.2282 50.3848 63.4434 50.3848 63.7112C50.3848 63.9217 50.4613 64.0986 50.6144 64.2421C50.7674 64.3856 50.9539 64.5003 51.1739 64.5864C51.3939 64.663 51.7191 64.7634 52.1496 64.8877C52.7234 65.0408 53.1921 65.1986 53.5556 65.3612C53.9286 65.5142 54.2491 65.7438 54.5169 66.0499C54.7847 66.3559 54.9234 66.7625 54.9329 67.2694C54.9329 67.7189 54.8086 68.1207 54.5599 68.4746C54.3112 68.8285 53.9573 69.1059 53.4982 69.3067C53.0487 69.5076 52.5178 69.608 51.9056 69.608ZM56.1551 65.4903C56.1551 64.6964 56.3177 63.9934 56.6429 63.3813C56.9776 62.7691 57.4272 62.2956 57.9915 61.9609C58.5654 61.6165 59.1967 61.4444 59.8854 61.4444C60.5071 61.4444 61.0475 61.5687 61.5066 61.8174C61.9753 62.0565 62.3484 62.3578 62.6257 62.7213V61.5735H64.2757V69.4789H62.6257V68.3024C62.3484 68.6754 61.9705 68.9863 61.4923 69.235C61.014 69.4837 60.4688 69.608 59.8567 69.608C59.1776 69.608 58.5559 69.4359 57.9915 69.0915C57.4272 68.7376 56.9776 68.2498 56.6429 67.6281C56.3177 66.9968 56.1551 66.2842 56.1551 65.4903ZM62.6257 65.519C62.6257 64.9738 62.511 64.5003 62.2814 64.0986C62.0614 63.6969 61.7697 63.3908 61.4062 63.1804C61.0427 62.97 60.6506 62.8647 60.2297 62.8647C59.8089 62.8647 59.4167 62.97 59.0532 63.1804C58.6898 63.3813 58.3933 63.6825 58.1637 64.0843C57.9437 64.4764 57.8337 64.9451 57.8337 65.4903C57.8337 66.0355 57.9437 66.5138 58.1637 66.9251C58.3933 67.3364 58.6898 67.652 59.0532 67.872C59.4263 68.0824 59.8184 68.1876 60.2297 68.1876C60.6506 68.1876 61.0427 68.0824 61.4062 67.872C61.7697 67.6616 62.0614 67.3555 62.2814 66.9538C62.511 66.5425 62.6257 66.0642 62.6257 65.519ZM68.0596 58.8618V69.4789H66.424V58.8618H68.0596ZM77.3233 61.5735L72.4739 73.1949H70.7809L72.3878 69.3498L69.2744 61.5735H71.0965L73.3204 67.5994L75.6303 61.5735H77.3233ZM82.5462 61.4444C83.1679 61.4444 83.7227 61.5735 84.2105 61.8317C84.7079 62.09 85.0953 62.4726 85.3726 62.9795C85.65 63.4865 85.7887 64.0986 85.7887 64.816V69.4789H84.1675V65.0599C84.1675 64.3521 83.9905 63.8117 83.6366 63.4386C83.2827 63.056 82.7997 62.8647 82.1875 62.8647C81.5754 62.8647 81.0875 63.056 80.7241 63.4386C80.3702 63.8117 80.1932 64.3521 80.1932 65.0599V69.4789H78.5576V61.5735H80.1932V62.4774C80.461 62.1522 80.8006 61.8987 81.2119 61.717C81.6327 61.5352 82.0775 61.4444 82.5462 61.4444ZM92.4518 64.5003L95.5509 69.4789H93.7144L91.4619 65.8634L89.3528 69.4789H87.5307L90.6297 64.5003L87.5163 59.5075H89.3528L91.6197 63.1517L93.7431 59.5075H95.5652L92.4518 64.5003Z" fill="#FF0000"/>
<defs>
<filter id="filter0_d_76_383" x="15.8855" y="39.6046" width="63.8833" height="16.8028" filterUnits="userSpaceOnUse" color-interpolation-filters="sRGB">
<feFlood flood-opacity="0" result="BackgroundImageFix"/>
<feColorMatrix in="SourceAlpha" type="matrix" values="0 0 0 0 0 0 0 0 0 0 0 0 0 0 0 0 0 0 127 0" result="hardAlpha"/>
<feOffset/>
<feGaussianBlur stdDeviation="2.39123"/>
<feComposite in2="hardAlpha" operator="out"/>
<feColorMatrix type="matrix" values="0 0 0 0 0.992157 0 0 0 0 0.772549 0 0 0 0 0 0 0 0 0.3 0"/>
<feBlend mode="normal" in2="BackgroundImageFix" result="effect1_dropShadow_76_383"/>
<feBlend mode="normal" in="SourceGraphic" in2="effect1_dropShadow_76_383" result="shape"/>
</filter>
<filter id="filter1_d_76_383" x="28.2866" y="2.34973" width="49.1201" height="53.002" filterUnits="userSpaceOnUse" color-interpolation-filters="sRGB">
<feFlood flood-opacity="0" result="BackgroundImageFix"/>
<feColorMatrix in="SourceAlpha" type="matrix" values="0 0 0 0 0 0 0 0 0 0 0 0 0 0 0 0 0 0 127 0" result="hardAlpha"/>
<feOffset dy="4.78247"/>
<feGaussianBlur stdDeviation="5.20093"/>
<feComposite in2="hardAlpha" operator="out"/>
<feColorMatrix type="matrix" values="0 0 0 0 1 0 0 0 0 0.823529 0 0 0 0 0.345098 0 0 0 0.25 0"/>
<feBlend mode="normal" in2="BackgroundImageFix" result="effect1_dropShadow_76_383"/>
<feBlend mode="normal" in="SourceGraphic" in2="effect1_dropShadow_76_383" result="shape"/>
</filter>
<filter id="filter2_d_76_383" x="16.2699" y="-2.72793" width="29.3108" height="56.2859" filterUnits="userSpaceOnUse" color-interpolation-filters="sRGB">
<feFlood flood-opacity="0" result="BackgroundImageFix"/>
<feColorMatrix in="SourceAlpha" type="matrix" values="0 0 0 0 0 0 0 0 0 0 0 0 0 0 0 0 0 0 127 0" result="hardAlpha"/>
<feOffset dy="3.58685"/>
<feGaussianBlur stdDeviation="4.24444"/>
<feComposite in2="hardAlpha" operator="out"/>
<feColorMatrix type="matrix" values="0 0 0 0 1 0 0 0 0 0.823529 0 0 0 0 0.345098 0 0 0 0.25 0"/>
<feBlend mode="normal" in2="BackgroundImageFix" result="effect1_dropShadow_76_383"/>
<feBlend mode="normal" in="SourceGraphic" in2="effect1_dropShadow_76_383" result="shape"/>
</filter>
<linearGradient id="paint0_linear_76_383" x1="52.0551" y1="8.2565" x2="52.8989" y2="37.4543" gradientUnits="userSpaceOnUse">
<stop stop-color="#C0000D"/>
<stop offset="1" stop-color="#690102"/>
</linearGradient>
<linearGradient id="paint1_linear_76_383" x1="52.0547" y1="8.2565" x2="52.8985" y2="37.4543" gradientUnits="userSpaceOnUse">
<stop stop-color="#C0000D"/>
<stop offset="1" stop-color="#690102"/>
</linearGradient>
<linearGradient id="paint2_linear_76_383" x1="52.0552" y1="8.25651" x2="52.899" y2="37.4543" gradientUnits="userSpaceOnUse">
<stop stop-color="#C0000D"/>
<stop offset="1" stop-color="#690102"/>
</linearGradient>
<linearGradient id="paint3_linear_76_383" x1="48.0332" y1="17.724" x2="54.6627" y2="45.8922" gradientUnits="userSpaceOnUse">
<stop stop-color="#FFD258"/>
<stop offset="0.262119" stop-color="#FFA700"/>
</linearGradient>
<clipPath id="clip0_76_383">
<rect width="60.9765" height="53.2158" fill="white" transform="translate(16.7393 0.26355) rotate(-0.247649)"/>
</clipPath>
</defs>
</svg>
