<svg width="185" height="75" viewBox="0 0 185 75" fill="none" xmlns="http://www.w3.org/2000/svg">
<path d="M108.425 22.4213C107.688 20.0454 106.024 18.4229 103.993 16.4421C102.871 15.348 102.585 15.2793 100.865 13.6608C99.8352 12.6923 98.5026 11.4375 97.0017 9.65748C96.1769 8.61738 95.5122 7.70734 95.0156 7.00221C94.6878 6.39443 94.4567 5.98665 94.2752 5.68031C93.7904 4.86229 93.5577 4.44593 93.5241 4.38089C93.5241 4.38089 92.7267 2.84426 92.3878 1.01191C92.3198 0.643807 92.319 0.632766 92.319 0.632766C92.3115 0.534424 92.2945 0.437035 92.2682 0.34196C92.2534 0.294179 92.2308 0.249141 92.2014 0.208627C92.2014 0.208627 92.1895 0.191856 92.176 0.176723C92.0561 0.0626746 91.8966 -0.000642593 91.731 3.20536e-05C91.5622 -0.00163976 91.3992 0.0621432 91.2766 0.177951C91.2626 0.193084 91.2503 0.209443 91.2503 0.209443C91.2205 0.249548 91.1973 0.294145 91.1815 0.341554C91.1536 0.436223 91.1346 0.533314 91.125 0.631537C91.1073 0.726427 91.084 0.856081 91.0496 1.00946C91.0496 1.00946 90.7037 2.60908 89.9645 4.08723C89.8826 4.25083 89.7978 4.40871 89.7978 4.40871C89.6748 4.6173 89.5019 4.91628 89.2856 5.2713C88.6795 6.26437 87.7064 7.85949 86.2792 9.56832C84.877 11.2452 83.526 12.426 82.3414 13.4985C80.5918 15.0834 80.3037 15.1463 79.1613 16.2196C77.0929 18.1603 75.3989 19.7554 74.6163 22.1154C74.4171 22.7174 73.0666 27.0345 75.8279 30.2779C77.5682 32.323 80.3881 33.2412 82.6426 32.8477C83.7993 32.6461 84.7438 32.109 84.85 32.0473C86.1378 31.3021 86.9315 30.3119 87.1856 29.8247C87.8846 28.4869 87.9965 26.8734 89.1524 26.4991C89.2819 26.4582 89.6097 26.356 89.9096 26.4991C90.6914 26.8717 90.5845 28.5687 90.5152 29.5221C90.4362 30.6092 90.1731 33.689 88.0157 36.7026C87.4266 37.5134 86.7685 38.2721 86.0489 38.9701C85.3933 39.5865 84.4603 40.3493 83.9288 40.7841C82.7815 41.7219 82.2677 42.0876 82.3386 42.2201C82.4094 42.3526 82.9897 42.0814 84.4586 41.7665C85.0847 41.6323 85.5597 41.5554 86.1247 41.4642C86.3427 41.4291 87.0577 41.3154 88.0383 41.2021C88.7291 41.1869 89.4343 41.3084 89.908 41.807C90.2128 42.1276 90.5357 42.9178 90.8447 43.7035C91.0959 44.342 91.1885 44.8578 91.3532 44.8524C91.4946 44.8479 91.5368 44.4663 91.7814 43.7305C92.0723 42.8565 92.4046 42.2274 92.8787 41.8606C93.0721 41.7109 93.3196 41.5894 93.9224 41.4863C94.5091 41.3869 95.1059 41.3606 95.6991 41.4082C96.1244 41.4753 96.4248 41.5289 96.5526 41.5518C97.116 41.6536 97.5893 41.7395 98.2125 41.8851C99.6753 42.2279 100.25 42.5105 100.324 42.3784C100.398 42.2463 99.8905 41.872 98.7612 40.9129C98.2375 40.4683 97.3192 39.6883 96.6751 39.0597C95.9682 38.3482 95.3239 37.5774 94.7493 36.7558C92.6497 33.7025 92.4444 30.6182 92.3858 29.5299C92.3346 28.5752 92.2596 26.8766 93.0484 26.5183C93.3508 26.3813 93.6765 26.4885 93.8052 26.5327C94.9562 26.929 95.0377 28.5442 95.7114 29.8947C95.9572 30.3855 96.7312 31.3912 98.006 32.1606C98.1109 32.2244 99.0451 32.7786 100.198 33.0023C102.444 33.4375 105.281 32.5716 107.06 30.5601C109.882 27.3687 108.613 23.0275 108.425 22.4213Z" fill="#981B25"/>
<path d="M19.1767 53.9056V53.9358C18.7261 54.7406 18.4914 55.6422 18.4941 56.5579V72.3417C18.4918 73.2573 18.7265 74.1589 19.1767 74.9638V74.991H14.9816V74.9638C15.4344 74.1597 15.6703 73.2578 15.6673 72.3417V56.6787L9.07876 74.5711H8.76709L1.77335 56.4461V70.6047C1.77335 72.9821 2.58058 74.4895 3.20391 74.9729V75.0001H0V74.9729C0.623327 74.4895 1.4274 72.9821 1.4274 70.6047V58.3069C1.4274 55.9265 0.62021 54.4222 0 53.9388V53.9086H3.63401L10.1633 70.6289L16.2844 53.9086L19.1767 53.9056Z" fill="#981B25"/>
<path d="M35.0356 72.3496C35.3209 73.3098 35.8073 74.2027 36.4645 74.9729V75.0001H32.2277V74.9729C32.467 74.1124 32.4562 73.2045 32.1965 72.3496L29.7411 63.3981H24.8241L22.8336 70.6029C22.1784 72.9813 22.584 74.4893 23.052 74.9729V75.0001H19.8447V74.9729C20.5935 74.4893 21.8383 72.9813 22.4904 70.6029L27.0954 53.9056H29.9252L35.0356 72.3496ZM29.6537 63.0989L27.2888 54.5402L24.9239 63.0989H29.6537Z" fill="#981B25"/>
<path d="M56.9179 53.9056V53.9358C56.4673 54.7406 56.2326 55.6422 56.2353 56.5579V72.3417C56.233 73.2573 56.4677 74.1589 56.9179 74.9638V74.991H52.7229V74.9638C53.1757 74.1597 53.4115 73.2578 53.4085 72.3417V56.6787L46.8169 74.5711H46.5052L39.5114 56.4461V70.6047C39.5114 72.9821 40.3186 74.4895 40.942 74.9729V75.0001H37.7412V74.9729C38.3645 74.4895 39.1686 72.9821 39.1686 70.6047V58.3069C39.1686 55.9265 38.3614 54.4222 37.7412 53.9388V53.9086H41.3752L47.9014 70.6289L54.0257 53.9086L56.9179 53.9056Z" fill="#981B25"/>
<path d="M76.0715 64.1233C76.0715 70.1077 73.2113 74.9901 67.4267 74.9901C61.6422 74.9901 58.8125 70.1077 58.8125 64.1233C58.8125 58.1389 61.7368 53.2565 67.4267 53.2565C73.1167 53.2565 76.0715 58.142 76.0715 64.1233ZM73.0892 64.1233C73.0892 57.5603 70.6472 53.5626 67.4267 53.5626C64.2063 53.5626 61.7978 57.5603 61.7978 64.1233C61.7978 70.6863 64.2399 74.6565 67.4267 74.6565C70.6136 74.6565 73.0892 70.6863 73.0892 64.1233Z" fill="#981B25"/>
<path d="M95.905 64.1233C95.905 70.1077 92.9357 74.9901 86.9401 74.9901C80.9445 74.9901 78.0068 70.1077 78.0068 64.1233C78.0068 58.1389 81.0363 53.2565 86.9401 53.2565C92.8439 53.2565 95.905 58.142 95.905 64.1233ZM92.8091 64.1233C92.8091 57.5603 90.2766 53.5626 86.9401 53.5626C83.6036 53.5626 81.0996 57.5603 81.0996 64.1233C81.0996 70.6863 83.6321 74.6565 86.9401 74.6565C90.2481 74.6565 92.8091 70.6863 92.8091 64.1233Z" fill="#981B25"/>
<path d="M112.481 53.9328C111.907 54.4164 111.089 55.9217 111.089 58.3034V75.0001H108.177L99.5061 55.9821V70.6023C99.5061 72.981 100.297 74.4893 100.902 74.9729V75.0001H97.7793V74.9729C98.3873 74.4893 99.1747 72.981 99.1747 70.6023V58.3065C99.1747 55.9247 98.3843 54.4195 97.7793 53.9359V53.9056H101.476L110.755 74.2505V58.3065C110.755 55.9247 109.967 54.4195 109.359 53.9359V53.9056H112.481V53.9328Z" fill="#981B25"/>
<path d="M135.658 53.9056H138.728V53.9358C138.01 54.4194 136.813 55.9244 136.183 58.3058L131.756 75.0001H129.001L124.095 56.5651C123.83 55.6064 123.371 54.7132 122.747 53.9419V53.9116H126.786V53.9419C126.571 54.8057 126.592 55.7122 126.847 56.5651L131.576 74.3745L135.856 58.3119C136.483 55.9304 136.096 54.4254 135.646 53.9419L135.658 53.9056Z" fill="#981B25"/>
<path d="M151.356 72.3496C151.643 73.31 152.13 74.203 152.789 74.9729V75.0001H148.557V74.9729C148.793 74.112 148.782 73.205 148.525 72.3496L146.066 63.3981H141.147L139.156 70.6029C138.503 72.9813 138.906 74.4893 139.374 74.9729V75.0001H136.169V74.9729C136.915 74.4893 138.16 72.9813 138.812 70.6029L143.419 53.9056H146.259L151.356 72.3496ZM145.972 63.0989L143.606 54.5402L141.241 63.0989H145.972Z" fill="#981B25"/>
<path d="M167.371 72.3496C167.647 73.3095 168.116 74.2022 168.748 74.9729V75.0001H164.679V74.9729C164.909 74.1124 164.899 73.2045 164.649 72.3496L162.284 63.3981H157.554L155.64 70.6029C155.012 72.9813 155.399 74.4893 155.85 74.9729V75.0001H152.768V74.9729C153.485 74.4893 154.682 72.9813 155.312 70.6029L159.739 53.9056H162.455L167.371 72.3496ZM162.194 63.0989L159.919 54.5402L157.644 63.0989H162.194Z" fill="#981B25"/>
<path d="M184.705 53.9328C184.127 54.4164 183.309 55.9217 183.309 58.3034V75.0001H180.401L171.732 55.9821V70.6023C171.732 72.981 172.519 74.4892 173.124 74.9729V75.0001H170.015V74.9729C170.623 74.4892 171.41 72.981 171.41 70.6023V58.3065C171.41 55.9247 170.623 54.4195 170.015 53.9359V53.9056H173.714L182.987 74.2505V58.3065C182.987 55.9247 182.2 54.4195 181.592 53.9359V53.9056H184.717L184.705 53.9328Z" fill="#981B25"/>
</svg>
