<svg width="160" height="75" viewBox="0 0 160 75" fill="none" xmlns="http://www.w3.org/2000/svg">
<path d="M94.1924 19.3288C93.5566 17.2806 92.1225 15.8818 90.3718 14.1742C89.4046 13.2311 89.1574 13.1718 87.6748 11.7766C86.7872 10.9417 85.6384 9.85993 84.3445 8.32545C83.6334 7.4288 83.0604 6.64429 82.6323 6.03642C82.3498 5.51246 82.1505 5.16093 81.9941 4.89684C81.5762 4.19165 81.3755 3.83272 81.3466 3.77665C81.3466 3.77665 80.6591 2.45196 80.367 0.872342C80.3083 0.555008 80.3076 0.54549 80.3076 0.54549C80.3012 0.460712 80.2866 0.376755 80.2639 0.294795C80.2511 0.253603 80.2317 0.214778 80.2063 0.179851C80.2063 0.179851 80.1961 0.165395 80.1844 0.152348C80.081 0.0540301 79.9436 -0.000553962 79.8007 2.76324e-05C79.6552 -0.00141359 79.5148 0.053572 79.409 0.153407C79.397 0.166453 79.3865 0.180554 79.3865 0.180554C79.3607 0.215129 79.3406 0.253575 79.3271 0.294444C79.303 0.376056 79.2867 0.459755 79.2783 0.544431C79.2631 0.626233 79.243 0.738004 79.2133 0.870227C79.2133 0.870227 78.9152 2.24922 78.2779 3.52349C78.2073 3.66453 78.1341 3.80062 78.1341 3.80062C78.0282 3.98045 77.8792 4.23819 77.6926 4.54424C77.1702 5.40034 76.3312 6.77546 75.1009 8.24859C73.8922 9.69421 72.7275 10.7122 71.7063 11.6367C70.198 13.0029 69.9496 13.0572 68.9648 13.9825C67.1816 15.6556 65.7214 17.0306 65.0467 19.0651C64.875 19.5841 63.7107 23.3057 66.0912 26.1018C67.5914 27.8647 70.0224 28.6564 71.9659 28.3171C72.9631 28.1433 73.7773 27.6803 73.8688 27.627C74.9791 26.9847 75.6632 26.131 75.8822 25.7111C76.485 24.5578 76.5814 23.1668 77.5779 22.8442C77.6894 22.8089 77.972 22.7207 78.2307 22.8442C78.9046 23.1653 78.8124 24.6283 78.7527 25.4501C78.6845 26.3874 78.4578 29.0424 76.5979 31.6403C76.0901 32.3392 75.5228 32.9933 74.9024 33.5951C74.3372 34.1264 73.5329 34.784 73.0747 35.1588C72.0857 35.9674 71.6427 36.2825 71.7039 36.3968C71.7649 36.511 72.2651 36.2772 73.5315 36.0058C74.0712 35.8901 74.4806 35.8238 74.9678 35.7452C75.1556 35.7148 75.7721 35.6168 76.6173 35.5191C77.213 35.5062 77.8209 35.6108 78.2292 36.0407C78.492 36.3171 78.7704 36.9983 79.0367 37.6757C79.2533 38.2261 79.3331 38.6707 79.4751 38.6661C79.597 38.6622 79.6333 38.3333 79.8442 37.6989C80.095 36.9454 80.3814 36.4031 80.7902 36.0868C80.9569 35.9578 81.1702 35.8531 81.6898 35.7642C82.1957 35.6785 82.7102 35.6558 83.2216 35.6969C83.5882 35.7547 83.8471 35.8009 83.9574 35.8206C84.4431 35.9085 84.851 35.9825 85.3884 36.108C86.6494 36.4035 87.1446 36.6471 87.2086 36.5333C87.2725 36.4194 86.8349 36.0967 85.8613 35.2699C85.4099 34.8867 84.6183 34.2143 84.0629 33.6723C83.4535 33.0589 82.8981 32.3945 82.4027 31.6861C80.5927 29.054 80.4158 26.3952 80.3652 25.4568C80.3211 24.634 80.2565 23.1696 80.9364 22.8608C81.1972 22.7426 81.478 22.835 81.5889 22.8731C82.5811 23.2147 82.6514 24.6072 83.2322 25.7714C83.4441 26.1945 84.1114 27.0615 85.2103 27.7247C85.3007 27.7797 86.1062 28.2575 87.0997 28.4504C89.0366 28.8255 91.4821 28.0792 93.0151 26.3451C95.4486 23.5938 94.3546 19.8513 94.1924 19.3288Z" fill="#981B25"/>
<path d="M16.5317 56.8154V56.8414C16.1433 57.5352 15.941 58.3125 15.9433 59.1019V72.7087C15.9413 73.4979 16.1436 74.2752 16.5317 74.969V74.9925H12.9153V74.969C13.3056 74.2759 13.509 73.4984 13.5064 72.7087V59.206L7.82654 74.6306H7.55787L1.52875 59.0055V71.2113C1.52875 73.2607 2.22465 74.5603 2.762 74.9769V75.0003H0V74.9769C0.537357 74.5603 1.23052 73.2607 1.23052 71.2113V60.6096C1.23052 58.5576 0.534665 57.2607 0 56.844V56.818H3.13278L8.76153 71.2321L14.0383 56.818L16.5317 56.8154Z" fill="#981B25"/>
<path d="M30.202 72.7155C30.448 73.5432 30.8674 74.313 31.4339 74.9769V75.0003H27.7814V74.9769C27.9877 74.2351 27.9784 73.4525 27.7545 72.7155L25.6378 64.9986H21.399L19.683 71.2096C19.1182 73.26 19.4679 74.5601 19.8712 74.9769V75.0003H17.1064V74.9769C17.7519 74.5601 18.8251 73.26 19.3871 71.2096L23.357 56.8154H25.7965L30.202 72.7155ZM25.5624 64.7407L23.5238 57.3625L21.485 64.7407H25.5624Z" fill="#981B25"/>
<path d="M49.0668 56.8154V56.8414C48.6783 57.5352 48.476 58.3125 48.4784 59.1019V72.7087C48.4764 73.4979 48.6787 74.2752 49.0668 74.969V74.9925H45.4504V74.969C45.8408 74.2759 46.044 73.4984 46.0414 72.7087V59.206L40.3591 74.6306H40.0903L34.0611 59.0055V71.2113C34.0611 73.2607 34.7571 74.5603 35.2944 74.9769V75.0003H32.5352V74.9769C33.0725 74.5603 33.7656 73.2607 33.7656 71.2113V60.6096C33.7656 58.5576 33.0698 57.2607 32.5352 56.844V56.818H35.6679L41.294 71.2321L46.5735 56.818L49.0668 56.8154Z" fill="#981B25"/>
<path d="M65.5768 65.6238C65.5768 70.7829 63.111 74.9918 58.1243 74.9918C53.1376 74.9918 50.6982 70.7829 50.6982 65.6238C50.6982 60.4648 53.2192 56.2559 58.1243 56.2559C63.0296 56.2559 65.5768 60.4675 65.5768 65.6238ZM63.0058 65.6238C63.0058 59.9661 60.9006 56.5198 58.1243 56.5198C55.3481 56.5198 53.2719 59.9661 53.2719 65.6238C53.2719 71.2816 55.3771 74.7042 58.1243 74.7042C60.8717 74.7042 63.0058 71.2816 63.0058 65.6238Z" fill="#981B25"/>
<path d="M82.6767 65.6238C82.6767 70.7829 80.1168 74.9918 74.9482 74.9918C69.7796 74.9918 67.2471 70.7829 67.2471 65.6238C67.2471 60.4648 69.8587 56.2559 74.9482 56.2559C80.0377 56.2559 82.6767 60.4675 82.6767 65.6238ZM80.0077 65.6238C80.0077 59.9661 77.8245 56.5198 74.9482 56.5198C72.0719 56.5198 69.9132 59.9661 69.9132 65.6238C69.9132 71.2816 72.0965 74.7042 74.9482 74.7042C77.7999 74.7042 80.0077 71.2816 80.0077 65.6238Z" fill="#981B25"/>
<path d="M96.9663 56.8388C96.471 57.2558 95.766 58.5534 95.766 60.6067V75.0003H93.2552L85.7806 58.6056V71.2091C85.7806 73.2598 86.4621 74.5599 86.9835 74.9769V75.0003H84.292V74.9769C84.8162 74.5599 85.4949 73.2598 85.4949 71.2091V60.6093C85.4949 58.556 84.8136 57.2584 84.292 56.8415V56.8154H87.4789L95.4776 74.3541V60.6093C95.4776 58.556 94.7989 57.2584 94.2747 56.8415V56.8154H96.9663V56.8388Z" fill="#981B25"/>
<path d="M116.946 56.8154H119.593V56.8414C118.975 57.2583 117.943 58.5557 117.398 60.6087L113.583 75.0003H111.208L106.978 59.108C106.75 58.2816 106.354 57.5116 105.816 56.8467V56.8206H109.299V56.8467C109.113 57.5913 109.131 58.3728 109.35 59.108L113.428 74.4611L117.117 60.6139C117.658 58.5609 117.324 57.2636 116.936 56.8467L116.946 56.8154Z" fill="#981B25"/>
<path d="M130.479 72.7155C130.726 73.5434 131.146 74.3132 131.713 74.9769V75.0003H128.066V74.9769C128.269 74.2348 128.26 73.4529 128.039 72.7155L125.918 64.9986H121.678L119.961 71.2096C119.398 73.26 119.746 74.5601 120.149 74.9769V75.0003H117.386V74.9769C118.029 74.5601 119.103 73.26 119.665 71.2096L123.636 56.8154H126.085L130.479 72.7155ZM125.838 64.7407L123.798 57.3625L121.759 64.7407H125.838Z" fill="#981B25"/>
<path d="M144.285 72.7155C144.524 73.543 144.927 74.3125 145.473 74.9769V75.0003H141.965V74.9769C142.162 74.2351 142.154 73.4525 141.939 72.7155L139.899 64.9986H135.822L134.172 71.2096C133.631 73.26 133.965 74.5601 134.353 74.9769V75.0003H131.696V74.9769C132.315 74.5601 133.347 73.26 133.89 71.2096L137.706 56.8154H140.047L144.285 72.7155ZM139.822 64.7407L137.861 57.3625L135.9 64.7407H139.822Z" fill="#981B25"/>
<path d="M159.229 56.8388C158.73 57.2558 158.026 58.5534 158.026 60.6067V75.0003H155.519L148.046 58.6056V71.2091C148.046 73.2598 148.724 74.5599 149.245 74.9769V75.0003H146.564V74.9769C147.089 74.5599 147.767 73.2598 147.767 71.2091V60.6093C147.767 58.556 147.089 57.2584 146.564 56.8415V56.8154H149.754L157.749 74.3541V60.6093C157.749 58.556 157.069 57.2584 156.545 56.8415V56.8154H159.239L159.229 56.8388Z" fill="#981B25"/>
</svg>
