<svg width="338" height="75" viewBox="0 0 338 75" fill="none" xmlns="http://www.w3.org/2000/svg">
<g clip-path="url(#clip0_76_227)">
<path d="M60.2808 0.102445C60.4594 0.101388 60.6381 0.100332 60.8222 0.0992432C63.2398 0.104124 63.2398 0.104124 63.6813 0.546434C63.6299 1.21627 63.4778 1.61982 63.1359 2.18578C63.1015 2.55593 63.1015 2.55593 63.1359 2.86884C63.2259 2.91392 63.3159 2.959 63.4086 3.00545C63.8226 2.81238 64.2169 2.59076 64.6167 2.36988C65.0763 2.1723 65.3688 2.12847 65.8631 2.18578C66.2657 2.58903 66.2841 2.99932 66.4086 3.5519C66.4849 3.55047 66.5613 3.54904 66.6399 3.54756C66.9861 3.54188 67.3323 3.53833 67.6785 3.53482C67.7986 3.53253 67.9188 3.53024 68.0426 3.52788C68.1581 3.527 68.2737 3.52612 68.3928 3.52522C68.4992 3.52379 68.6056 3.52236 68.7152 3.52088C68.9995 3.5519 68.9995 3.5519 69.4086 3.82512C69.3186 4.32102 69.2286 4.81693 69.1359 5.32786C70.1906 5.16491 70.1906 5.16491 71.1984 4.83264C71.7607 4.6045 72.355 4.51779 72.9541 4.64479C73.2136 5.03479 73.2898 5.24854 73.3802 5.695C73.403 5.80542 73.4259 5.91583 73.4494 6.02959C73.466 6.11359 73.4825 6.19759 73.4995 6.28414C73.6807 6.27938 73.6807 6.27938 73.8655 6.27453C78.5106 6.20674 78.5106 6.20674 79.8889 7.30553C80.045 7.51365 80.045 7.51365 80.0364 7.84664C79.9086 8.19671 79.9086 8.19671 79.6188 8.47847C79.5345 8.56582 79.4501 8.65316 79.3631 8.74316C79.409 9.19477 79.5661 9.4068 79.9054 9.6957C80.4661 10.1519 81.0736 10.4293 81.7325 10.7155C83.4114 11.4843 84.5344 12.2411 85.231 14.0203C85.5386 15.0004 85.7766 16.2921 85.3605 17.2649C85.2943 17.3745 85.2943 17.3745 85.2268 17.4863C85.1363 17.4685 85.0457 17.4508 84.9525 17.4324C84.1645 17.2935 84.1645 17.2935 83.4711 17.6315C83.3755 17.7639 83.2799 17.8963 83.1813 18.0328C83.0773 18.1652 82.9732 18.2976 82.866 18.4341C82.6132 18.8936 82.5868 19.1562 82.6359 19.6721C83.9052 20.5313 85.9423 19.7913 87.366 19.544C92.9561 18.5747 92.9561 18.5747 93.9541 19.1257C94.1043 19.5563 94.1043 19.5563 94.1756 20.0734C94.2514 20.7316 94.2514 20.7316 94.5704 21.2869C95.1731 21.5741 95.8277 21.6568 96.4813 21.7723C97.2979 21.9329 97.2979 21.9329 97.6417 22.2576C97.8654 22.7432 97.8044 22.9909 97.6359 23.4973C97.4342 23.6693 97.226 23.8337 97.0137 23.9925C96.6156 24.3215 96.4332 24.4901 96.3085 24.9968C96.2557 27.2104 97.3553 29.1163 98.8328 30.6827C99.2872 31.1748 99.6888 31.7048 100.09 32.2404C99.9903 32.5072 99.9903 32.5072 99.8177 32.7869C99.5514 32.8701 99.5514 32.8701 99.2381 32.8893C99.1362 32.8971 99.0342 32.9048 98.9292 32.9128C98.5433 32.925 98.1582 32.9257 97.7722 32.9235C97.7817 33.0785 97.7912 33.2334 97.801 33.3931C97.8834 35.2631 97.8834 35.2631 97.4825 35.8521C95.3199 38.1145 91.8366 39.6339 88.8143 40.2312C88.5061 40.2694 88.5061 40.2694 88.3631 40.4371C88.3453 40.6332 88.3318 40.8297 88.3205 41.0263C88.2752 41.4392 88.2349 41.6527 88.0222 42.0167C87.0886 42.5546 86.0073 42.1128 85.0374 41.8624C84.0889 41.6296 83.2034 41.6108 82.2268 41.6667C82.0447 42.0835 82.0447 42.0835 82.2268 42.5376C82.3602 43.0219 82.3782 43.2471 82.2268 43.7158C82.0904 43.8524 82.0904 43.8524 81.6728 43.8695C81.1194 43.8519 80.5928 43.7929 80.045 43.7158C80.0662 43.8227 80.0875 43.9296 80.1094 44.0398C80.136 44.178 80.1625 44.3162 80.1899 44.4587C80.2167 44.5966 80.2436 44.7344 80.2713 44.8765C80.2866 44.9894 80.3019 45.1023 80.3177 45.2186C80.1813 45.3552 80.1813 45.3552 79.7717 45.3851C79.151 45.3762 78.5958 45.2003 78.008 45.0136C77.8486 44.9648 77.8486 44.9648 77.686 44.9149C77.4265 44.8352 77.1675 44.7538 76.9086 44.6721C76.9536 44.7623 76.9986 44.8524 77.045 44.9453C77.0504 45.2185 77.0509 45.4919 77.045 45.765C76.4094 45.9387 76.129 45.8681 75.4086 45.765C75.4536 46.4412 75.4986 47.1175 75.545 47.8142C74.8223 47.959 74.8223 47.959 74.3177 47.6776C74.0914 47.6351 73.8639 47.5983 73.6359 47.5666C73.1765 47.4775 72.9899 47.4355 72.6302 47.1226C72.4474 46.7916 72.2994 46.471 72.1529 46.1236C71.8113 45.3215 71.3649 44.7537 70.6444 44.2623C70.0147 44.0563 69.5889 44.1173 68.9867 44.393C66.0625 46.1002 64.579 50.5942 63.757 53.6722C63.0708 56.2983 63.2672 58.8321 64.6359 61.2022C64.8018 61.4623 64.9694 61.7213 65.1387 61.9792C65.5558 62.6152 65.796 63.2027 65.9995 63.9344C63.8718 65.0002 60.0164 63.4243 57.9267 62.7962C56.6716 62.4209 55.4258 62.1174 54.1359 61.8852C54.3412 60.5291 55.0821 59.7764 56.1446 58.9523C56.8693 58.1426 56.9322 57.1168 56.9143 56.0707C56.9129 55.9519 56.9115 55.8332 56.9101 55.7109C56.834 52.4844 55.633 49.2755 53.3076 46.9897C53.0448 46.7536 52.7769 46.5301 52.4995 46.3115C52.3139 46.1635 52.3139 46.1635 52.1245 46.0126C51.7093 45.7807 51.3496 45.655 50.8972 45.5174C50.1512 45.2841 49.5942 44.9522 48.9754 44.4789C48.7038 44.2789 48.4414 44.1296 48.1359 43.9891C48.0909 44.0341 48.0459 44.0792 47.9995 44.1257C47.2063 44.2093 46.7404 44.1192 46.083 43.6646C45.6189 43.2762 45.2449 42.8172 44.8631 42.3497C44.4931 41.9141 44.3056 41.7013 43.7547 41.5477C43.0692 41.5248 42.6688 41.7399 42.0762 42.0594C41.1514 42.5508 40.4091 42.8865 39.3404 42.6571C39.1829 42.6007 39.0254 42.5444 38.8631 42.4863C38.7768 42.4559 38.6905 42.4255 38.6016 42.3941C37.8379 42.1178 37.094 41.7933 36.3583 41.4497C35.5219 41.0652 34.6892 40.8071 33.758 40.8128C33.6429 40.8121 33.5278 40.8114 33.4091 40.8107C33.059 40.8417 32.7538 40.9002 32.4136 40.982C29.5049 41.6561 26.278 40.7305 23.4626 40.0102C23.269 39.9608 23.269 39.9608 23.0714 39.9104C20.8818 39.321 19.9781 37.3772 18.8631 35.5444C18.7088 35.291 18.552 35.0391 18.3947 34.7875C17.9431 34.0273 17.6736 33.4024 17.8631 32.5136C18.461 30.7334 20.0831 29.6886 21.6643 28.8507C22.5544 28.4187 23.4367 28.1753 24.4086 28.0055C24.3791 27.9211 24.3495 27.8367 24.3191 27.7498C23.8231 26.2385 23.9842 25.2526 24.545 23.7705C24.4151 23.7752 24.2852 23.78 24.1513 23.7849C23.9803 23.7886 23.8092 23.7923 23.633 23.7961C23.4638 23.8008 23.2945 23.8056 23.1201 23.8105C22.6035 23.7678 22.3552 23.6838 21.9541 23.3606C21.8006 22.8996 21.8006 22.8996 21.8177 22.4044C22.3644 21.668 23.0172 21.5142 23.8631 21.2944C24.958 21.0434 24.958 21.0434 25.9086 20.4918C26.0302 20.0689 26.0302 20.0689 26.045 19.6721C25.9462 19.7297 25.8474 19.7873 25.7456 19.8466C25.6138 19.9215 25.4819 19.9963 25.3461 20.0734C25.2164 20.1479 25.0866 20.2224 24.953 20.2991C24.3713 20.5738 23.935 20.6979 23.3177 20.4918C23.5066 19.1667 24.8177 18.2928 25.8188 17.5173C27.6228 16.1804 27.6228 16.1804 28.4995 16.1202C28.9155 16.4556 29.1791 16.7998 29.4711 17.2473C29.6955 17.6585 29.6955 17.6585 30.1359 17.7595C30.3373 17.7722 30.5392 17.7773 30.741 17.7766C30.8449 17.777 30.9488 17.7773 31.0558 17.7777C31.3568 17.7599 31.6195 17.7061 31.9086 17.6229C31.9086 17.3524 31.9086 17.082 31.9086 16.8033C31.5486 16.8483 31.1886 16.8934 30.8177 16.9399C30.6638 16.4774 30.6958 16.4024 30.8603 15.9665C31.0838 15.3411 31.2292 14.7214 31.3631 14.071C30.9581 13.9358 30.5531 13.8005 30.1359 13.6612C30.0055 13.3128 29.9679 13.0679 30.0927 12.7134C30.3049 12.2768 30.5243 11.9102 30.8347 11.5352C31.179 11.0868 31.2992 10.8135 31.3631 10.2459C31.1822 9.71915 30.9448 9.23302 30.6813 8.74316C30.9817 8.33943 31.1663 8.09455 31.6725 8.00593C32.0429 7.99774 32.4079 8.00741 32.7779 8.02594C33.029 8.0344 33.28 8.04224 33.5311 8.04942C33.6497 8.05303 33.7683 8.05664 33.8905 8.06036C34.334 8.06001 34.7456 8.00285 35.1813 7.92348C35.0913 8.23906 35.0013 8.55463 34.9086 8.87977C35.7928 8.63092 35.7928 8.63092 36.6472 8.29917C37.0605 8.16116 37.3551 8.22884 37.7722 8.33332C37.9086 8.46993 37.9086 8.46993 37.9427 8.98223C38.0119 9.59783 38.2438 9.85203 38.7268 10.2459C38.9057 10.3863 39.0864 10.5247 39.2722 10.6557C39.2933 10.3937 39.2933 10.3937 39.3148 10.1264C39.3388 9.82858 39.3388 9.82858 39.4086 9.56283C39.8441 9.27193 39.8848 9.25761 40.3647 9.32269C40.468 9.3359 40.5713 9.3491 40.6777 9.36271C40.7848 9.37803 40.892 9.39335 41.0023 9.40914C41.1111 9.4234 41.2198 9.43767 41.3318 9.45236C41.6 9.48776 41.868 9.52511 42.1359 9.56283C42.1311 9.426 42.1264 9.28917 42.1215 9.14819C42.0732 7.17399 42.0732 7.17399 42.7005 6.35405C43.0785 6.04615 43.5146 5.90743 43.9683 5.74623C44.0659 5.71089 44.1635 5.67555 44.264 5.63913C44.4618 5.56787 44.6598 5.49714 44.858 5.42698C45.1016 5.34007 45.3439 5.24941 45.586 5.15816C46.755 4.73312 47.8535 4.64479 49.0904 4.64479C49.1804 4.14889 49.2704 3.65299 49.3631 3.14206C50.1461 2.77136 50.6578 2.94325 51.4427 3.18475C51.674 3.25037 51.9056 3.3153 52.1373 3.37953C52.3023 3.4254 52.3023 3.4254 52.4707 3.47219C53.2172 3.66955 53.9243 3.797 54.6728 3.56044C55.2331 3.18243 55.3504 2.83003 55.4995 2.18578C55.5146 2.07836 55.5297 1.97093 55.5453 1.86026C55.6651 1.05224 55.6651 1.05224 55.9837 0.766828C57.2992 0.0563577 58.8301 0.0938411 60.2808 0.102445ZM57.1359 39.3443C57.2815 39.7406 57.43 40.1359 57.5791 40.5311C57.62 40.6426 57.661 40.7542 57.7032 40.8691C57.9382 41.4879 58.1632 42.006 58.6359 42.4863C58.7259 42.4863 58.8159 42.4863 58.9086 42.4863C58.6698 41.8834 58.4263 41.2828 58.1756 40.6848C58.1161 40.5364 58.1161 40.5364 58.0553 40.3851C57.8236 39.8381 57.6839 39.5715 57.1359 39.3443ZM47.8631 39.8907C47.9382 42.1519 47.9382 42.1519 48.9541 44.1257C49.3712 44.422 49.8136 44.6576 50.2666 44.8941C50.3827 44.9575 50.4989 45.0209 50.6186 45.0862C51.3107 45.4575 52.0071 45.7726 52.7431 46.0461C54.1338 46.6393 55.2647 48.0171 56.1813 49.1803C56.6081 49.1345 56.7269 49.0436 57.0251 48.7193C57.4333 48.127 57.4971 47.5618 57.4086 46.8579C56.6193 44.9327 54.4664 44.1451 52.7259 43.2873C51.2786 42.5737 50.0531 41.8377 48.8667 40.7306C48.5429 40.4352 48.2078 40.1613 47.8631 39.8907ZM46.5677 40.3261C46.2135 40.6754 46.2135 40.6754 46.1075 41.0604C45.8718 41.5721 45.4952 41.6916 44.9995 41.9399C45.4297 42.4196 45.881 42.6984 46.4484 42.9986C46.683 43.1244 46.683 43.1244 46.9224 43.2526C47.2856 43.4623 47.2856 43.4623 47.5904 43.4426C47.5633 43.3132 47.5633 43.3132 47.5356 43.1811C47.329 42.1329 47.2404 41.0933 47.1813 40.0273C46.8673 39.9973 46.8673 39.9973 46.5677 40.3261ZM55.4995 40.7104C55.7638 41.5576 56.3454 42.2046 56.9185 42.8636C58.2292 44.3763 58.8398 45.6745 59.045 47.6776C59.2475 49.1851 59.2475 49.1851 59.9058 50.5379C60.2728 50.7694 60.5303 50.7425 60.9541 50.683C61.5143 50.3959 61.693 50.0659 61.883 49.4877C62.1828 48.3071 62.1211 47.384 61.4995 46.3115C60.5532 45.0774 59.3624 44.0841 58.1793 43.0869C57.8905 42.8423 57.6066 42.5922 57.3234 42.3412C57.0521 42.1023 56.7802 41.8742 56.4967 41.6496C56.1388 41.3589 55.8204 41.0411 55.4995 40.7104ZM52.7722 41.2568C53.0186 42.1345 53.6745 42.8244 54.4256 43.306C54.8179 43.4427 55.0896 43.4537 55.4995 43.4426C54.761 42.3748 54.0834 41.5249 52.7722 41.2568ZM60.9541 42.0765C61.1298 42.5728 61.3651 42.9997 61.6457 43.4441C62.5569 44.8884 63.248 46.3919 63.545 48.0874C64.367 47.5072 64.7787 46.8691 64.9656 45.8701C65.0289 44.9017 64.6377 44.0562 64.0121 43.33C63.1384 42.52 62.1251 42.1618 60.9541 42.0765ZM67.2353 44.6492C66.6912 45.2448 66.3078 45.8383 65.9995 46.5847C66.0445 46.6749 66.0895 46.765 66.1359 46.8579C66.7201 46.2102 67.304 45.5626 67.8745 44.9027C68.234 44.4888 68.6064 44.0977 68.9995 43.7158C68.2822 43.7158 67.7441 44.1672 67.2353 44.6492Z" fill="black"/>
<path d="M146.182 10.2459C146.227 10.832 146.272 11.418 146.318 12.0219C146.134 12.0565 145.95 12.0912 145.761 12.127C145.52 12.1744 145.28 12.2219 145.039 12.2695C144.918 12.2921 144.797 12.3147 144.672 12.338C144.556 12.3614 144.44 12.3847 144.32 12.4087C144.213 12.4295 144.106 12.4502 143.996 12.4716C143.676 12.5564 143.676 12.5564 143.454 12.9781C143.376 15.1332 143.804 17.3583 144.045 19.4994C144.106 20.0436 144.167 20.5879 144.227 21.1323C144.342 22.1595 144.457 23.1868 144.572 24.214C144.742 25.7258 144.911 27.2378 145.079 28.7497C145.092 28.8606 145.104 28.9716 145.117 29.0858C145.142 29.3069 145.166 29.5279 145.191 29.749C145.263 30.3959 145.336 31.0428 145.408 31.6897C145.453 32.0902 145.498 32.4906 145.543 32.8911C145.564 33.0772 145.584 33.2632 145.605 33.4492C145.634 33.7023 145.662 33.9555 145.691 34.2086C145.706 34.3504 145.722 34.4922 145.739 34.6383C145.772 34.9727 145.772 34.9727 145.772 35.2459C146.153 35.373 146.422 35.4081 146.818 35.4257C146.94 35.4315 147.062 35.4372 147.187 35.4431C147.314 35.4484 147.44 35.4538 147.571 35.4594C147.763 35.4682 147.763 35.4682 147.959 35.4772C148.276 35.4917 148.592 35.5055 148.909 35.5191C148.954 36.1052 148.999 36.6913 149.045 37.2951C147.825 37.4378 146.606 37.5804 145.386 37.7226C144.82 37.7886 144.253 37.8547 143.687 37.921C143.141 37.985 142.594 38.0488 142.048 38.1124C141.839 38.1367 141.63 38.1611 141.422 38.1856C141.13 38.2198 140.838 38.2538 140.546 38.2876C140.297 38.3168 140.297 38.3168 140.042 38.3465C139.636 38.388 139.636 38.388 139.227 38.388C139.182 37.8019 139.137 37.2158 139.091 36.612C140.002 36.3733 140.88 36.1559 141.818 36.0656C141.958 35.516 141.944 35.067 141.878 34.5054C141.858 34.3282 141.838 34.151 141.817 33.9685C141.794 33.7731 141.77 33.5777 141.747 33.3824C141.723 33.1759 141.699 32.9694 141.675 32.7629C141.61 32.2028 141.543 31.6429 141.477 31.083C141.407 30.497 141.339 29.9108 141.271 29.3247C141.156 28.3405 141.04 27.3565 140.923 26.3725C140.774 25.1094 140.626 23.8462 140.478 22.5829C140.351 21.4968 140.223 20.4107 140.096 19.3247C140.055 18.9756 140.014 18.6265 139.973 18.2774C139.909 17.7289 139.844 17.1805 139.779 16.6321C139.755 16.4307 139.731 16.2294 139.708 16.028C139.676 15.7533 139.643 15.4787 139.61 15.2041C139.592 15.0503 139.574 14.8966 139.555 14.7381C139.51 14.4152 139.451 14.1114 139.363 13.7978C137.45 21.127 135.59 28.4676 133.79 35.8254C133.514 36.9535 133.237 38.0812 132.954 39.2076C132.299 39.3212 131.708 39.3557 131.045 39.3443C130.302 38.0395 129.581 36.7235 128.872 35.3996C128.17 34.0903 127.46 32.787 126.736 31.4901C126.344 30.7875 125.955 30.0837 125.565 29.3801C125.433 29.1421 125.301 28.904 125.169 28.6659C124.773 27.9516 124.377 27.2371 123.981 26.5225C122.437 23.7358 120.886 20.9531 119.318 18.1805C119.248 18.0572 119.178 17.934 119.106 17.8071C119.014 17.6443 119.014 17.6443 118.92 17.4784C118.821 17.3011 118.727 17.1215 118.636 16.9399C118.927 19.2602 119.259 21.5734 119.605 23.886C119.677 24.3621 119.748 24.8382 119.819 25.3144C119.937 26.1102 120.056 26.9059 120.175 27.7016C120.313 28.6201 120.45 29.5388 120.587 30.4574C120.72 31.3473 120.853 32.2371 120.986 33.1269C121.042 33.5035 121.098 33.8802 121.154 34.2569C121.232 34.7802 121.311 35.3036 121.389 35.8269C121.412 35.9822 121.435 36.1375 121.459 36.2976C121.481 36.4398 121.502 36.582 121.524 36.7285C121.542 36.8518 121.561 36.9752 121.58 37.1023C121.666 37.7217 121.666 37.7217 122.013 38.2128C122.358 38.4113 122.572 38.4452 122.968 38.4579C123.089 38.4627 123.21 38.4676 123.335 38.4726C123.524 38.4772 123.524 38.4772 123.716 38.4819C123.843 38.4866 123.971 38.4912 124.102 38.496C124.417 38.5073 124.731 38.5162 125.045 38.5246C125.113 39.4037 125.113 39.4037 125.182 40.3005C124.142 40.4613 123.102 40.6217 122.063 40.7815C121.58 40.8557 121.097 40.93 120.615 41.0047C120.06 41.0906 119.504 41.1759 118.949 41.2611C118.69 41.3014 118.69 41.3014 118.425 41.3426C118.263 41.3672 118.102 41.3918 117.937 41.4172C117.795 41.439 117.653 41.4609 117.507 41.4834C117.136 41.53 117.136 41.53 116.591 41.53C116.501 40.944 116.411 40.3579 116.318 39.7541C116.49 39.7013 116.663 39.6484 116.84 39.594C117.067 39.5222 117.293 39.4504 117.52 39.3784C117.633 39.3439 117.747 39.3094 117.864 39.2738C117.973 39.2386 118.083 39.2034 118.196 39.1671C118.296 39.1356 118.397 39.1041 118.501 39.0717C118.849 38.8959 118.979 38.7208 119.182 38.388C119.212 38.0682 119.212 38.0682 119.157 37.7253C119.141 37.5921 119.124 37.4588 119.107 37.3215C119.087 37.1776 119.066 37.0336 119.045 36.8852C119.025 36.7371 119.005 36.589 118.984 36.4364C118.912 35.9303 118.836 35.425 118.759 34.9196C118.729 34.7267 118.7 34.5338 118.671 34.3409C118.593 33.8215 118.514 33.3022 118.435 32.783C118.368 32.3484 118.302 31.9138 118.236 31.4792C118.081 30.4542 117.925 29.4294 117.768 28.4046C117.607 27.3484 117.447 26.2922 117.287 25.2358C117.149 24.3267 117.011 23.4177 116.872 22.5087C116.79 21.9667 116.707 21.4247 116.625 20.8826C116.549 20.3736 116.471 19.8648 116.393 19.356C116.364 19.1695 116.336 18.983 116.308 18.7964C116.27 18.5415 116.23 18.2867 116.191 18.032C116.169 17.8895 116.148 17.747 116.125 17.6002C115.994 16.9428 115.994 16.9428 115.636 16.3934C115.413 16.3816 115.19 16.3788 114.966 16.3801C114.764 16.3808 114.764 16.3808 114.558 16.3814C114.345 16.3831 114.345 16.3831 114.128 16.3849C113.914 16.3858 113.914 16.3858 113.696 16.3868C113.343 16.3884 112.989 16.3906 112.636 16.3934C112.44 15.7102 112.346 15.3159 112.5 14.6175C113.534 14.4564 114.569 14.2961 115.604 14.1366C116.085 14.0625 116.566 13.9881 117.046 13.9133C117.599 13.8271 118.152 13.742 118.705 13.6569C118.877 13.63 119.049 13.6031 119.226 13.5754C119.387 13.5508 119.548 13.5262 119.714 13.5008C119.855 13.479 119.996 13.4572 120.141 13.4346C120.552 13.3871 120.95 13.3798 121.363 13.388C121.394 13.5641 121.424 13.7402 121.455 13.9216C121.623 14.6723 121.958 15.2616 122.352 15.9153C122.501 16.1688 122.649 16.4225 122.798 16.6763C122.915 16.8744 122.915 16.8744 123.034 17.0766C123.438 17.7712 123.828 18.4742 124.218 19.1769C124.761 20.1508 125.306 21.1232 125.856 22.093C126.617 23.4348 127.36 24.7852 128.091 26.1436C128.525 26.9496 128.963 27.7526 129.409 28.5519C130.242 30.0463 131.052 31.5537 131.863 33.0601C132.279 31.5215 132.672 29.9775 133.06 28.4315C133.168 28.0037 133.275 27.5759 133.383 27.1481C133.688 25.933 133.994 24.7178 134.299 23.5025C134.486 22.7572 134.673 22.0119 134.861 21.2666C134.934 20.9736 135.008 20.6805 135.082 20.3874C135.443 18.9469 135.808 17.5079 136.201 16.0757C136.245 15.914 136.245 15.914 136.29 15.749C136.423 15.2601 136.558 14.7718 136.698 14.2846C136.987 13.2332 137.112 12.2926 137.045 11.2022C138.116 11.0769 139.186 10.9522 140.256 10.8281C140.754 10.7705 141.251 10.7127 141.748 10.6545C142.228 10.5983 142.708 10.5425 143.188 10.4871C143.46 10.4556 143.731 10.4236 144.002 10.3917C144.169 10.3726 144.335 10.3534 144.507 10.3337C144.653 10.3167 144.799 10.2997 144.949 10.2822C145.359 10.2463 145.771 10.2459 146.182 10.2459Z" fill="black"/>
<path d="M94.7726 61.612C95.4821 62.6782 95.31 64.505 95.0933 65.7392C94.5553 68.3058 92.9963 70.4182 90.8181 71.8579C84.9254 75.4323 77.0814 75.8138 70.4999 74.223C67.2727 73.3954 64.2615 72.0182 61.2506 70.6151C56.7367 68.513 52.2399 66.6221 47.3181 65.7104C47.1446 65.6765 47.1446 65.6765 46.9676 65.642C42.7228 64.8463 37.9291 65.0325 33.6817 65.7104C33.5112 65.7368 33.3406 65.7632 33.1649 65.7904C29.7288 66.3302 26.2959 67.102 22.9994 68.2208C22.6293 68.3077 22.4429 68.2992 22.0908 68.1694C27.3542 65.7443 32.7638 63.8528 38.4885 62.8757C38.7254 62.835 38.7254 62.835 38.967 62.7934C41.4052 62.3967 43.8356 62.2425 46.3039 62.2524C46.4338 62.2526 46.5638 62.2529 46.6976 62.2532C52.4387 62.2716 57.7759 63.5271 63.2107 65.2899C66.8797 66.48 70.4812 67.533 74.3181 68.0328C74.4191 68.0468 74.5202 68.0608 74.6243 68.0752C80.5588 68.793 87.8456 68.1122 92.7006 64.3187C93.6102 63.5398 94.2517 62.6872 94.7726 61.612Z" fill="black"/>
<path d="M227.045 14.071C227.045 14.7472 227.045 15.4235 227.045 16.1202C227.184 16.0492 227.322 15.9783 227.465 15.9051C229.954 14.6378 232.478 13.3772 235.329 14.1479C236.561 14.5712 237.417 15.2841 238.091 16.3934C238.091 16.4836 238.091 16.5738 238.091 16.6666C238.178 16.6247 238.266 16.5828 238.356 16.5395C244.355 13.6865 244.355 13.6865 247.291 14.6121C248.573 15.1396 249.536 16.0583 250.107 17.3231C250.495 18.2961 250.541 19.2757 250.529 20.3119C250.529 20.4527 250.528 20.5934 250.527 20.7384C250.507 22.5738 250.398 24.4058 250.295 26.238C250.14 28.8363 250.14 28.8363 250.052 31.4373C250.049 31.5871 250.046 31.7368 250.043 31.8911C250.064 32.2421 250.064 32.2421 250.263 32.4874C250.533 32.6732 250.724 32.7289 251.047 32.7799C251.15 32.7971 251.253 32.8143 251.36 32.832C251.467 32.8481 251.574 32.8642 251.684 32.8808C251.847 32.9073 251.847 32.9073 252.014 32.9344C252.282 32.9778 252.55 33.0191 252.818 33.0601C252.773 33.6011 252.728 34.1421 252.681 34.6994C251.548 34.649 250.415 34.5981 249.282 34.5462C248.756 34.5221 248.23 34.4983 247.703 34.475C247.196 34.4525 246.688 34.4294 246.181 34.4059C245.987 34.397 245.793 34.3884 245.599 34.3799C245.328 34.3681 245.057 34.3554 244.786 34.3427C244.632 34.3358 244.477 34.3288 244.318 34.3216C243.954 34.2896 243.954 34.2896 243.681 34.153C243.726 33.6571 243.771 33.1612 243.818 32.6503C243.959 32.6385 244.1 32.6267 244.246 32.6145C244.433 32.5953 244.62 32.5759 244.806 32.5563C244.946 32.5454 244.946 32.5454 245.088 32.5342C245.564 32.481 245.818 32.422 246.161 32.0804C246.447 31.6336 246.487 31.3759 246.508 30.849C246.516 30.681 246.525 30.5129 246.533 30.3398C246.539 30.1567 246.545 29.9736 246.551 29.7905C246.56 29.5996 246.568 29.4086 246.577 29.2177C246.594 28.8164 246.61 28.4151 246.625 28.0137C246.643 27.5086 246.664 27.0036 246.686 26.4987C246.765 24.6936 246.832 22.8879 246.842 21.0809C246.844 20.9627 246.845 20.8445 246.846 20.7227C246.844 19.7448 246.711 18.8713 246.097 18.0803C245.314 17.3265 244.294 17.1859 243.255 17.1533C242.149 17.1756 241.189 17.4292 240.136 17.7595C239.898 17.8315 239.66 17.9031 239.422 17.9744C239.3 18.011 239.178 18.0476 239.053 18.0853C238.96 18.1131 238.868 18.1408 238.772 18.1694C238.773 18.2549 238.774 18.3405 238.775 18.4286C238.792 20.9324 238.728 23.4288 238.636 25.9307C238.616 26.4732 238.597 27.0157 238.578 27.5582C238.566 27.8916 238.554 28.2249 238.541 28.5582C238.525 29.0114 238.512 29.4647 238.5 29.918C238.494 30.0813 238.488 30.2447 238.482 30.4129C238.478 30.5722 238.474 30.7314 238.47 30.8955C238.464 31.1107 238.464 31.1107 238.458 31.3302C238.47 31.6945 238.47 31.6945 238.676 31.9407C239.06 32.2094 239.504 32.2568 239.957 32.3343C240.053 32.352 240.148 32.3697 240.247 32.388C240.483 32.4313 240.718 32.4727 240.954 32.5136C240.954 33.0095 240.954 33.5054 240.954 34.0164C240.506 34.166 240.206 34.1599 239.735 34.1434C239.569 34.1379 239.402 34.1325 239.231 34.1268C239.051 34.1201 238.871 34.1134 238.686 34.1066C238.5 34.1002 238.314 34.0939 238.128 34.0876C237.639 34.071 237.15 34.0534 236.661 34.0357C236.162 34.0178 235.663 34.0007 235.164 33.9836C234.185 33.9498 233.206 33.915 232.227 33.8798C232.227 33.3388 232.227 32.7978 232.227 32.2404C232.37 32.2254 232.513 32.2105 232.66 32.1951C232.848 32.1733 233.036 32.1514 233.224 32.1294C233.318 32.1198 233.412 32.1102 233.509 32.1003C233.904 32.0526 234.208 32.014 234.534 31.7778C234.862 31.287 234.843 30.8051 234.858 30.2323C234.862 30.0936 234.862 30.0936 234.866 29.9521C234.875 29.646 234.883 29.3399 234.891 29.0338C234.897 28.8202 234.903 28.6066 234.909 28.393C234.921 27.9445 234.933 27.4961 234.945 27.0476C234.96 26.476 234.975 25.9045 234.991 25.333C235.006 24.7849 235.021 24.2369 235.036 23.6888C235.039 23.5857 235.041 23.4825 235.044 23.3763C235.294 20.2027 235.294 20.2027 233.983 17.4522C232.532 16.5674 231.041 16.7123 229.449 17.0765C228.669 17.2919 227.929 17.5864 227.181 17.8962C227.069 19.3539 227.027 20.8097 227.007 22.2715C227.005 22.364 227.004 22.4566 227.003 22.5519C226.993 23.2285 226.985 23.905 226.977 24.5816C226.968 25.3513 226.958 26.121 226.947 26.8907C226.945 27.0284 226.945 27.0284 226.943 27.1689C226.923 28.5891 226.874 30.0041 226.772 31.4207C227.409 31.7463 228.012 31.9624 228.724 32.044C229.227 32.1038 229.227 32.1038 229.363 32.2404C229.373 32.4935 229.375 32.747 229.372 33.0003C229.371 33.1386 229.369 33.2768 229.368 33.4192C229.366 33.5261 229.365 33.633 229.363 33.7432C228.388 33.7466 227.413 33.749 226.439 33.7507C226.108 33.7513 225.777 33.7523 225.446 33.7535C223.745 33.7594 222.058 33.7649 220.363 33.6065C220.363 33.1106 220.363 32.6147 220.363 32.1038C220.513 32.0904 220.662 32.077 220.817 32.0632C221.015 32.0427 221.213 32.0221 221.412 32.0013C221.51 31.9929 221.608 31.9844 221.71 31.9757C221.806 31.9652 221.902 31.9546 222.001 31.9437C222.089 31.9351 222.177 31.9265 222.267 31.9177C222.697 31.783 222.914 31.6115 223.227 31.2841C223.329 30.8803 223.32 30.4842 223.315 30.0693C223.316 29.9466 223.317 29.8239 223.318 29.6975C223.322 29.2914 223.32 28.8854 223.319 28.4793C223.32 28.1961 223.322 27.9129 223.324 27.6297C223.328 26.8829 223.329 26.1361 223.329 25.3893C223.329 24.4869 223.334 23.5846 223.338 22.6822C223.342 21.9789 223.344 21.2756 223.345 20.5722C223.346 19.3066 223.367 18.0629 223.5 16.8033C222.51 16.8033 221.52 16.8033 220.5 16.8033C220.5 16.3524 220.5 15.9016 220.5 15.4371C221.484 15.0458 222.491 14.749 223.508 14.4552C223.677 14.405 223.847 14.3547 224.021 14.3029C224.185 14.2554 224.349 14.208 224.519 14.1591C224.667 14.1159 224.815 14.0727 224.967 14.0282C225.705 13.8714 226.307 13.9231 227.045 14.071Z" fill="black"/>
<path d="M191.683 9.49667C193.121 11.0308 193.462 12.9676 193.405 14.9926C193.323 16.501 192.75 17.7501 191.727 18.8525C190.506 19.9345 189.031 20.644 187.5 21.1749C187.592 21.2048 187.685 21.2347 187.78 21.2656C189.421 21.8257 190.81 22.5775 191.661 24.154C192.253 25.43 192.655 26.7291 193.044 28.0786C193.469 29.5108 193.919 30.7976 195.213 31.6513C196.483 32.137 197.883 32.1648 199.227 32.2404C199.227 32.7814 199.227 33.3224 199.227 33.8798C198.023 34.1628 196.861 34.3304 195.622 34.3323C195.511 34.333 195.4 34.3337 195.285 34.3344C193.842 34.318 192.546 34.0001 191.454 33.0174C190.109 31.5643 189.552 29.6609 188.956 27.8151C188.39 26.083 187.705 24.0707 185.991 23.1643C185.155 22.7847 184.336 22.6371 183.422 22.6509C183.275 22.6515 183.275 22.6515 183.124 22.6521C182.813 22.6536 182.501 22.657 182.19 22.6605C181.978 22.6619 181.765 22.6631 181.553 22.6643C181.035 22.6673 180.518 22.672 180 22.6776C180.007 22.7643 180.014 22.851 180.021 22.9403C180.192 25.1384 180.334 27.3364 180.45 29.538C180.456 29.6368 180.461 29.7357 180.466 29.8375C180.481 30.106 180.495 30.3746 180.509 30.6431C180.521 30.8096 180.533 30.976 180.545 31.1475C180.555 31.2945 180.555 31.2945 180.565 31.4445C180.591 31.7763 180.591 31.7763 180.682 32.2404C181.186 32.5774 181.605 32.5692 182.19 32.5905C183.24 32.634 183.24 32.634 183.545 32.7869C183.686 33.1876 183.696 33.5604 183.69 33.9822C183.689 34.0914 183.688 34.2006 183.687 34.3131C183.685 34.3955 183.683 34.4779 183.682 34.5628C182.52 34.6343 181.358 34.7056 180.197 34.7766C179.657 34.8096 179.118 34.8426 178.578 34.8758C178.058 34.9079 177.537 34.9398 177.016 34.9715C176.818 34.9836 176.619 34.9958 176.421 35.0081C176.142 35.0253 175.864 35.0422 175.585 35.0591C175.427 35.0688 175.269 35.0785 175.105 35.0886C174.735 35.1067 174.37 35.1241 174 35.1093C173.864 34.9727 173.864 34.9727 173.85 34.6007C173.852 34.4502 173.853 34.2996 173.855 34.1445C173.856 33.9936 173.857 33.8426 173.859 33.6871C173.86 33.5704 173.862 33.4536 173.864 33.3333C173.939 33.3168 174.015 33.3002 174.094 33.2832C174.426 33.21 174.759 33.1353 175.091 33.0601C175.193 33.0372 175.295 33.0143 175.401 32.9907C175.864 32.882 176.19 32.7811 176.591 32.5137C176.645 32.1546 176.645 32.1546 176.623 31.7333C176.62 31.5726 176.616 31.4119 176.612 31.2464C176.577 30.4113 176.534 29.5774 176.48 28.7433C176.468 28.5505 176.457 28.3578 176.445 28.165C176.413 27.6474 176.38 27.1298 176.347 26.6123C176.313 26.0682 176.279 25.5242 176.246 24.9802C176.189 24.0681 176.131 23.156 176.074 22.2439C176.008 21.1908 175.942 20.1377 175.876 19.0845C175.813 18.068 175.75 17.0516 175.686 16.0352C175.659 15.6038 175.632 15.1725 175.605 14.7412C175.574 14.2337 175.542 13.7263 175.51 13.2189C175.492 12.9447 175.475 12.6705 175.458 12.3963C175.443 12.1501 175.443 12.1501 175.427 11.899C175.418 11.757 175.409 11.615 175.399 11.4687C175.362 11.0512 175.325 10.654 175.227 10.2459C174.819 9.97305 174.678 9.93019 174.211 9.88623C174.096 9.87479 173.98 9.86334 173.861 9.85155C173.741 9.8408 173.621 9.83006 173.497 9.81899C173.375 9.80719 173.254 9.7954 173.128 9.78324C172.828 9.75429 172.528 9.72674 172.227 9.69946C172.182 9.11339 172.137 8.52733 172.091 7.9235C173.195 7.85434 174.299 7.78541 175.402 7.71684C175.915 7.68496 176.428 7.65301 176.941 7.62083C180.855 7.37544 180.855 7.37544 182.658 7.289C182.772 7.28328 182.886 7.27756 183.004 7.27166C186.001 7.13699 189.353 7.38574 191.683 9.49667ZM179.318 9.56285C179.285 11.4043 179.377 13.2335 179.485 15.0714C179.514 15.5586 179.542 16.0459 179.57 16.5333C179.588 16.8478 179.606 17.1622 179.624 17.4767C179.633 17.6201 179.641 17.7634 179.649 17.9111C179.703 18.8188 179.776 19.7234 179.864 20.6284C184.28 20.6208 184.28 20.6208 188.045 18.5792C189.106 17.189 189.256 15.7842 189.136 14.071C188.913 12.6194 188.415 11.3897 187.259 10.4508C185.75 9.43458 183.979 9.38327 182.224 9.39812C181.915 9.40064 181.606 9.40092 181.296 9.40089C180.292 9.37549 180.292 9.37549 179.318 9.56285Z" fill="black"/>
<path d="M209.343 13.7637C209.501 13.7608 209.658 13.758 209.821 13.7551C211.525 13.7475 213.212 14.0288 214.474 15.2707C215.552 16.5882 215.746 18.2025 215.748 19.8476C215.749 19.971 215.75 20.0944 215.75 20.2215C215.752 20.4879 215.753 20.7543 215.754 21.0207C215.755 21.4421 215.758 21.8635 215.761 22.2849C215.769 23.4825 215.777 24.6801 215.781 25.8776C215.784 26.6113 215.789 27.3449 215.795 28.0786C215.797 28.3581 215.798 28.6376 215.799 28.9172C215.799 29.307 215.802 29.6967 215.806 30.0865C215.806 30.2024 215.805 30.3182 215.805 30.4375C215.795 31.0152 215.795 31.0152 216.045 31.5134C216.468 31.8503 216.911 31.8597 217.431 31.8989C217.855 31.9308 218.186 31.9687 218.59 32.1038C218.59 32.5997 218.59 33.0956 218.59 33.6066C216.655 33.6066 214.72 33.6066 212.727 33.6066C212.457 32.5922 212.457 32.5922 212.181 31.5574C211.979 31.6701 211.776 31.7828 211.568 31.8989C206.578 34.6179 206.578 34.6179 203.616 33.8029C202.138 33.2878 201.305 32.3754 200.586 31.0189C200.082 29.8252 200.094 28.0616 200.514 26.8443C201.144 25.559 202.192 24.6668 203.454 24.0437C203.583 23.98 203.712 23.9162 203.845 23.8505C206.403 22.6788 209.187 21.9855 211.908 21.3115C211.921 20.8618 211.928 20.4122 211.934 19.9624C211.937 19.8371 211.941 19.7117 211.944 19.5825C211.955 18.5337 211.809 17.5789 211.252 16.6752C210.286 15.7628 209.095 15.7996 207.842 15.8155C206.996 15.846 206.124 16.0123 205.363 16.3934C205.318 17.5205 205.273 18.6475 205.227 19.8087C204.65 19.8272 204.074 19.8407 203.497 19.8514C203.333 19.8572 203.17 19.8629 203.001 19.8688C201.795 19.8856 201.795 19.8856 201.232 19.5046C200.862 18.9013 200.879 18.4461 200.999 17.7596C201.397 16.497 202.236 15.6517 203.385 15.0348C204.414 14.5161 205.454 14.1423 206.59 13.9344C206.794 13.8969 206.794 13.8969 207.002 13.8587C207.778 13.7527 208.562 13.7671 209.343 13.7637ZM209.684 23.5656C209.592 23.5965 209.499 23.6274 209.404 23.6592C206.346 24.6515 206.346 24.6515 204.212 26.9296C203.855 27.843 203.825 28.8376 204.129 29.7697C204.551 30.6757 205.08 31.2488 206.027 31.6198C208.129 32.1568 210.113 31.003 211.908 30.0546C211.998 30.0096 212.088 29.9645 212.181 29.918C212.181 27.6189 212.181 25.3197 212.181 22.9508C211.307 22.9508 210.506 23.29 209.684 23.5656Z" fill="black"/>
<path d="M297.615 19.988C298.896 21.2321 299.707 23.0023 299.751 24.7967C299.753 25.0324 299.754 25.2681 299.754 25.5037C299.754 25.6255 299.754 25.7472 299.754 25.8726C299.747 26.7073 299.671 27.4691 299.455 28.2787C297.955 28.1817 296.467 28.0081 294.974 27.8299C294.717 27.7994 294.459 27.769 294.202 27.7386C293.531 27.6592 292.859 27.5793 292.188 27.4994C291.5 27.4176 290.813 27.3363 290.126 27.2549C288.781 27.0956 287.436 26.9359 286.092 26.7759C286.103 27.3111 286.118 27.8461 286.134 28.3811C286.138 28.5303 286.141 28.6795 286.144 28.8331C286.209 30.8385 286.715 32.7008 288.095 34.2128C289.506 35.5168 291.399 35.9811 293.27 35.9578C294.936 35.853 296.425 35.3205 297.955 34.6994C298.089 34.6461 298.222 34.5927 298.359 34.5378C298.451 34.5009 298.543 34.4641 298.637 34.4262C298.647 34.6802 298.653 34.9347 298.645 35.1888C298.631 35.5217 298.631 35.5217 298.668 35.8622C298.662 36.3094 298.62 36.5131 298.365 36.8852C297.582 37.3724 296.655 37.5992 295.774 37.8415C295.521 37.9131 295.521 37.9131 295.264 37.9861C292.328 38.7085 289.127 38.5351 286.473 37.0058C284.366 35.5847 283.088 33.5181 282.495 31.0559C282.351 30.2814 282.343 29.5171 282.35 28.7312C282.352 28.5633 282.353 28.3955 282.354 28.2225C282.403 25.6449 283.104 23.1374 284.865 21.1749C284.959 21.066 285.054 20.9572 285.151 20.8451C288.309 17.4341 294.034 16.9627 297.615 19.988ZM288.232 21.4673C287.36 22.4257 286.599 23.6763 286.637 25C287.685 25.1254 288.733 25.2502 289.781 25.374C290.268 25.4316 290.755 25.4894 291.241 25.5477C291.711 25.6041 292.182 25.6598 292.652 25.7151C292.918 25.7465 293.183 25.7785 293.448 25.8105C294.275 25.9071 295.078 25.9818 295.91 25.9563C296.283 24.7315 296.137 23.296 295.637 22.1311C295.165 21.2518 294.492 20.5879 293.549 20.2442C291.551 19.6743 289.783 20.0653 288.232 21.4673Z" fill="black"/>
<path d="M304.501 19.9454C308.234 20.4222 311.963 20.9218 315.682 21.4993C315.836 21.5232 315.99 21.5471 316.149 21.5716C316.584 21.6394 317.02 21.7074 317.455 21.7758C317.584 21.7959 317.713 21.8161 317.845 21.8369C318.399 21.9246 318.952 22.0139 319.501 22.1312C319.532 22.9147 319.543 23.5529 319 24.1627C318.823 24.3392 318.643 24.5129 318.459 24.683C318.204 24.9346 317.977 25.1848 317.747 25.4579C316.869 26.4729 315.889 27.3959 314.937 28.3396C313.678 29.5831 313.678 29.5831 312.493 30.897C311.94 31.5272 311.325 32.1019 310.729 32.6898C310.157 33.2562 309.613 33.8332 309.089 34.4439C308.737 34.844 308.359 35.2149 307.978 35.5875C307.334 36.2242 306.72 36.8749 306.137 37.5683C306.092 37.6134 306.047 37.6585 306.001 37.7049C306.902 37.9154 307.802 38.0795 308.716 38.2188C308.854 38.24 308.993 38.2612 309.135 38.283C309.426 38.3272 309.716 38.3711 310.006 38.4148C310.449 38.4819 310.892 38.5509 311.335 38.6199C311.618 38.6628 311.902 38.7055 312.185 38.7482C312.316 38.769 312.448 38.7897 312.583 38.8111C313.291 38.9152 313.892 38.9653 314.592 38.7978C315.109 38.2356 315.239 37.3612 315.435 36.6377C315.473 36.5039 315.51 36.3702 315.548 36.2324C315.639 35.9038 315.729 35.575 315.819 35.2459C316.052 35.263 316.285 35.2801 316.518 35.2972C316.712 35.3114 316.712 35.3114 316.911 35.326C317.319 35.3825 317.319 35.3825 318.137 35.6558C317.665 38.5635 317.665 38.5635 317.182 41.5301C315.78 41.3648 314.386 41.1959 312.991 40.9852C312.738 40.9476 312.738 40.9476 312.481 40.9092C312.034 40.8426 311.588 40.7758 311.142 40.7088C310.309 40.5841 309.476 40.4605 308.643 40.3369C308.552 40.3234 308.461 40.3099 308.367 40.296C306.126 39.9633 303.882 39.6486 301.637 39.3443C301.383 38.5812 301.502 37.9063 301.773 37.1585C302.227 36.4878 302.833 35.9365 303.412 35.3757C303.855 34.9396 304.274 34.4815 304.697 34.025C304.867 33.843 305.037 33.6613 305.208 33.4796C305.565 33.0979 305.922 32.7158 306.278 32.3333C306.414 32.1877 306.414 32.1877 306.553 32.0392C306.724 31.8555 306.895 31.6717 307.066 31.4878C307.538 30.9821 308.019 30.4876 308.512 30.0024C308.734 29.7748 308.941 29.5383 309.146 29.2948C309.616 28.7463 310.124 28.2406 310.637 27.7323C311.371 27.0066 311.371 27.0066 312.06 26.2381C312.378 25.8679 312.706 25.5151 313.053 25.1713C313.146 25.0788 313.238 24.9862 313.334 24.8909C313.523 24.7038 313.712 24.5172 313.901 24.3309C313.988 24.2449 314.075 24.159 314.164 24.0704C314.243 23.993 314.322 23.9155 314.403 23.8357C314.606 23.6378 314.606 23.6378 314.728 23.3607C314.618 23.3549 314.507 23.3491 314.394 23.3431C313.061 23.2616 311.759 23.0808 310.441 22.874C310.035 22.8104 309.629 22.7477 309.223 22.6856C309.046 22.6579 308.869 22.6301 308.686 22.6015C307.772 22.4634 307.772 22.4634 306.923 22.7224C306.55 23.2886 306.409 23.904 306.239 24.556C306.203 24.6904 306.166 24.8248 306.129 24.9632C306.039 25.2938 305.951 25.625 305.864 25.9563C305.189 25.8661 304.514 25.776 303.819 25.6831C303.9 24.3542 304.04 23.0553 304.236 21.7384C304.262 21.5646 304.287 21.3908 304.313 21.2117C304.375 20.7895 304.438 20.3674 304.501 19.9454Z" fill="black"/>
<path d="M273.819 16.3934C273.774 17.5205 273.729 18.6475 273.683 19.8087C274.099 19.4932 274.515 19.1776 274.944 18.8525C275.319 18.5716 275.695 18.292 276.072 18.0124C276.35 17.8046 276.624 17.5935 276.898 17.3801C277.685 16.797 278.268 16.5222 279.259 16.593C281.168 16.9249 281.168 16.9249 281.728 17.4863C281.729 17.8601 281.715 18.2164 281.685 18.5878C281.678 18.6925 281.671 18.7971 281.663 18.905C281.612 19.6183 281.545 20.3287 281.455 21.0383C280.491 21.0348 279.914 20.9645 279.219 20.2784C278.73 19.8383 278.125 19.7791 277.492 19.8002C276.558 19.9405 275.691 20.3845 274.91 20.9016C274.784 20.9722 274.659 21.0427 274.53 21.1153C273.755 21.6527 273.405 22.0998 273.23 23.0193C273.1 23.9575 273.046 24.9001 272.992 25.8453C272.969 26.1679 272.945 26.4905 272.921 26.813C272.874 27.4484 272.831 28.0838 272.79 28.7197C272.724 29.7411 272.635 30.76 272.539 31.779C272.344 32.9897 272.344 32.9897 272.713 34.0612C273.288 34.3709 273.832 34.447 274.475 34.5287C274.596 34.5458 274.716 34.5629 274.84 34.5805C275.136 34.6221 275.432 34.6617 275.728 34.6995C275.732 34.8958 275.734 35.0922 275.737 35.2886C275.738 35.398 275.74 35.5073 275.741 35.62C275.728 35.929 275.728 35.929 275.592 36.3388C273.843 36.2477 272.099 36.113 270.354 35.9659C269.911 35.9286 269.468 35.892 269.025 35.8553C268.741 35.8315 268.456 35.8077 268.172 35.7838C267.975 35.7676 267.975 35.7676 267.775 35.751C267.103 35.694 266.439 35.6229 265.773 35.5191C265.764 34.9349 265.761 34.4447 265.91 33.8798C266.071 33.8731 266.232 33.8664 266.398 33.8595C266.61 33.8493 266.822 33.8389 267.035 33.8286C267.194 33.8222 267.194 33.8222 267.356 33.8157C267.459 33.8105 267.562 33.8052 267.668 33.7997C267.762 33.7954 267.856 33.7912 267.953 33.7867C268.268 33.7369 268.493 33.617 268.773 33.4699C268.781 33.3249 268.788 33.1798 268.796 33.0303C268.879 31.4228 268.997 29.8195 269.127 28.2152C269.148 27.9563 269.169 27.6974 269.19 27.4385C269.233 26.9017 269.277 26.3651 269.32 25.8284C269.376 25.1403 269.432 24.4522 269.487 23.764C269.53 23.2321 269.573 22.7001 269.616 22.1682C269.637 21.9143 269.657 21.6603 269.677 21.4063C269.706 21.0536 269.734 20.7009 269.763 20.3483C269.772 20.2438 269.78 20.1392 269.788 20.0316C269.823 19.6138 269.868 19.252 270.001 18.8525C269.898 18.854 269.796 18.8556 269.691 18.8573C268.782 18.8653 267.903 18.8222 267.001 18.7159C267.046 18.265 267.091 17.8142 267.137 17.3497C268.023 17.0406 268.923 16.8481 269.839 16.6496C270.007 16.6117 270.175 16.5739 270.348 16.5349C271.585 16.2664 272.561 16.1834 273.819 16.3934Z" fill="black"/>
<path d="M262.365 15.4371C262.29 17.4702 262.173 19.4972 262.021 21.5259C261.962 22.3102 261.907 23.0946 261.851 23.8791C261.78 24.8689 261.708 25.8586 261.633 26.8481C261.572 27.6567 261.514 28.4655 261.458 29.2745C261.436 29.581 261.413 29.8875 261.389 30.1939C261.356 30.6193 261.326 31.0448 261.298 31.4705C261.281 31.6594 261.281 31.6594 261.265 31.8521C261.213 32.5416 261.213 32.5416 261.529 33.1361C261.819 33.3329 262.007 33.4209 262.35 33.4763C262.447 33.4931 262.543 33.5098 262.643 33.527C262.742 33.542 262.842 33.557 262.944 33.5724C263.046 33.5895 263.148 33.6065 263.252 33.6241C263.502 33.6658 263.751 33.7047 264.001 33.7431C263.956 34.2841 263.911 34.8251 263.865 35.3825C261.829 35.2872 259.796 35.1648 257.763 35.0324C257.466 35.0133 257.17 34.9942 256.874 34.9751C256.159 34.9289 255.444 34.8826 254.729 34.836C254.729 34.2951 254.729 33.7541 254.729 33.1967C254.845 33.1916 254.962 33.1865 255.083 33.1812C255.957 33.1309 256.687 33.0876 257.456 32.6503C257.682 32.1979 257.651 31.6895 257.681 31.191C257.692 31.0067 257.692 31.0067 257.704 30.8187C257.73 30.4105 257.755 30.0023 257.78 29.5941C257.797 29.3102 257.815 29.0262 257.833 28.7423C257.88 27.9926 257.927 27.2428 257.973 26.493C258.047 25.2972 258.121 24.1015 258.196 22.9058C258.222 22.4895 258.248 22.073 258.274 21.6566C258.425 19.2088 258.425 19.2088 258.547 18.0328C258.357 18.0351 258.357 18.0351 258.163 18.0376C256.488 18.0498 256.488 18.0498 255.683 17.8962C255.683 17.4904 255.683 17.0847 255.683 16.6666C256.537 16.2578 257.414 16.0363 258.334 15.8214C258.49 15.7847 258.647 15.7481 258.808 15.7103C260.028 15.44 261.122 15.3619 262.365 15.4371Z" fill="black"/>
<path d="M59.735 70.8077C63.1351 72.3427 66.5298 73.7412 70.0901 74.8634C70.0901 74.9085 70.0901 74.9535 70.0901 75C68.6812 75.0546 67.32 75.043 65.931 74.778C65.8281 74.7589 65.7251 74.7397 65.619 74.72C63.4064 74.2621 61.2734 73.4726 59.166 72.6731C48.9901 68.821 39.3343 66.8841 28.4395 68.3658C28.3354 68.3799 28.2313 68.394 28.124 68.4085C26.8423 68.584 25.5757 68.7971 24.3092 69.0617C23.9103 69.1189 23.6886 69.1279 23.3174 68.9891C35.8796 65.3294 47.1847 65.1437 59.735 70.8077Z" fill="black"/>
<path d="M206.181 46.7213C213.246 46.7213 220.311 46.7213 227.59 46.7213C227.59 47.3074 227.59 47.8934 227.59 48.4973C227.453 48.6339 227.453 48.6339 227.104 48.6507C226.948 48.6506 226.791 48.6504 226.629 48.6503C226.45 48.6505 226.271 48.6507 226.086 48.6509C225.886 48.6504 225.686 48.6499 225.485 48.6494C225.276 48.6493 225.066 48.6494 224.856 48.6494C224.286 48.6495 223.715 48.6487 223.144 48.6477C222.548 48.6469 221.952 48.6468 221.356 48.6466C220.227 48.6462 219.098 48.6451 217.969 48.6437C216.684 48.6422 215.399 48.6414 214.114 48.6407C211.469 48.6393 208.825 48.6369 206.181 48.6339C206.181 48.0027 206.181 47.3716 206.181 46.7213Z" fill="black"/>
<path d="M287.183 61.0656C288.955 61.0656 288.955 61.0656 289.337 61.3613C289.412 61.4979 289.486 61.6346 289.563 61.7753C289.65 61.9269 289.737 62.0786 289.827 62.2348C289.912 62.3971 289.996 62.5595 290.08 62.722C290.254 63.0327 290.428 63.3433 290.602 63.6537C290.867 64.1308 290.867 64.1308 291.137 64.6175C291.745 65.5642 291.745 65.5642 292.364 66.5301C292.409 64.7268 292.454 62.9235 292.501 61.0656C292.951 61.0656 293.401 61.0656 293.864 61.0656C293.864 63.7254 293.864 66.3853 293.864 69.1257C292.228 69.1257 292.228 69.1257 291.876 68.8594C291.774 68.6742 291.774 68.6742 291.669 68.4853C291.588 68.3473 291.507 68.2092 291.424 68.0669C291.346 67.9204 291.268 67.7739 291.188 67.623C291.028 67.3411 290.867 67.0594 290.706 66.7777C290.533 66.4706 290.36 66.1634 290.183 65.847C289.733 65.1257 289.283 64.4044 288.819 63.6612C288.774 65.4645 288.729 67.2678 288.683 69.1257C288.188 69.1257 287.693 69.1257 287.183 69.1257C287.183 66.4659 287.183 63.806 287.183 61.0656Z" fill="black"/>
<path d="M241.363 61.0656C243.136 61.0656 243.136 61.0656 243.518 61.3613C243.592 61.4979 243.667 61.6346 243.743 61.7753C243.83 61.9269 243.918 62.0786 244.007 62.2348C244.092 62.3971 244.177 62.5595 244.261 62.722C244.435 63.0327 244.609 63.3433 244.783 63.6537C245.048 64.1308 245.048 64.1308 245.318 64.6175C245.925 65.5642 245.925 65.5642 246.545 66.5301C246.59 64.7268 246.635 62.9235 246.681 61.0656C247.131 61.0656 247.581 61.0656 248.045 61.0656C248.045 63.7254 248.045 66.3853 248.045 69.1257C246.409 69.1257 246.409 69.1257 246.057 68.8594C245.954 68.6742 245.954 68.6742 245.849 68.4853C245.769 68.3473 245.688 68.2092 245.604 68.0669C245.527 67.9204 245.449 67.7739 245.369 67.623C245.208 67.3411 245.047 67.0594 244.886 66.7777C244.714 66.4706 244.541 66.1634 244.363 65.847C243.913 65.1257 243.463 64.4044 243 63.6612C242.955 65.4645 242.91 67.2678 242.863 69.1257C242.368 69.1257 241.873 69.1257 241.363 69.1257C241.363 66.4659 241.363 63.806 241.363 61.0656Z" fill="black"/>
<path d="M151.227 61.0656C152.999 61.0656 152.999 61.0656 153.381 61.3613C153.456 61.4979 153.53 61.6346 153.607 61.7753C153.694 61.9269 153.781 62.0786 153.871 62.2348C153.955 62.3971 154.04 62.5595 154.124 62.722C154.298 63.0327 154.472 63.3433 154.646 63.6537C154.911 64.1308 154.911 64.1308 155.181 64.6175C155.789 65.5642 155.789 65.5642 156.408 66.5301C156.453 64.7268 156.498 62.9235 156.545 61.0656C156.995 61.0656 157.445 61.0656 157.908 61.0656C157.908 63.7254 157.908 66.3853 157.908 69.1257C156.272 69.1257 156.272 69.1257 155.92 68.8594C155.817 68.6742 155.817 68.6742 155.713 68.4853C155.632 68.3473 155.551 68.2092 155.468 68.0669C155.39 67.9204 155.312 67.7739 155.232 67.623C155.071 67.3411 154.911 67.0594 154.75 66.7777C154.577 66.4706 154.404 66.1634 154.227 65.847C153.777 65.1257 153.327 64.4044 152.863 63.6612C152.818 65.4645 152.773 67.2678 152.727 69.1257C152.232 69.1257 151.737 69.1257 151.227 69.1257C151.227 66.4659 151.227 63.806 151.227 61.0656Z" fill="black"/>
<path d="M261.272 61.3388C262.011 61.9671 262.387 62.5569 262.499 63.5246C261.985 63.5895 261.51 63.6212 260.999 63.5246C260.755 63.2689 260.631 63.0182 260.475 62.7028C260.317 62.384 260.317 62.384 259.874 62.1499C259.058 61.9457 258.443 62.0131 257.683 62.3719C256.866 63.1152 256.685 63.9496 256.631 65.0327C256.641 65.9452 256.815 66.7011 257.388 67.426C257.858 67.8846 258.379 68.0118 259.013 68.0926C259.624 68.0174 260.092 67.8524 260.59 67.4863C260.93 66.9688 261.012 66.6014 261.135 65.9836C260.415 65.9836 259.695 65.9836 258.953 65.9836C258.953 65.623 258.953 65.2623 258.953 64.8907C260.123 64.8907 261.293 64.8907 262.499 64.8907C262.499 66.2883 262.499 67.6858 262.499 69.1257C262.184 69.1257 261.869 69.1257 261.544 69.1257C261.454 68.9003 261.364 68.6749 261.272 68.4426C261.173 68.5272 261.075 68.6117 260.973 68.6988C260.052 69.3965 259.115 69.341 257.999 69.2623C257.097 69.1013 256.42 68.5692 255.817 67.8962C255.585 67.5464 255.42 67.1951 255.272 66.8033C255.215 66.6568 255.159 66.5103 255.101 66.3593C254.815 64.9256 254.94 63.4853 255.759 62.2417C257.067 60.6487 259.507 60.1553 261.272 61.3388Z" fill="black"/>
<path d="M165.273 61.0656C165.971 61.0571 166.668 61.0487 167.387 61.04C167.714 61.0344 167.714 61.0344 168.047 61.0287C170.165 61.0162 170.165 61.0162 171.094 61.7743C172.287 63.2267 172.377 64.5566 172.228 66.3935C171.991 67.4822 171.472 68.0959 170.583 68.75C169.921 69.1451 169.398 69.1421 168.629 69.139C168.453 69.1387 168.278 69.1384 168.096 69.138C167.762 69.1361 167.762 69.1361 167.421 69.1342C166.358 69.13 166.358 69.13 165.273 69.1257C165.273 66.4659 165.273 63.806 165.273 61.0656ZM166.773 62.1585C166.773 64.097 166.773 66.0355 166.773 68.0328C168.658 68.1139 168.658 68.1139 170.165 67.307C170.908 66.3662 170.808 65.2129 170.728 64.071C170.579 63.367 170.196 62.8772 169.637 62.4317C168.68 62.0032 167.887 62.1585 166.773 62.1585Z" fill="black"/>
<path d="M183.852 61.0426C184.432 61.4306 184.94 61.9254 185.134 62.6094C185.173 62.9098 185.173 62.9098 185.181 63.388C184.686 63.388 184.191 63.388 183.681 63.388C183.633 63.2386 183.586 63.0893 183.536 62.9354C183.348 62.5034 183.268 62.4292 182.846 62.1585C182.269 61.9592 181.672 61.9801 181.09 62.1585C180.737 62.4362 180.688 62.5175 180.63 62.9781C180.648 63.3729 180.648 63.3729 180.823 63.5972C181.22 63.8955 181.668 64.0048 182.139 64.1393C182.336 64.1987 182.534 64.2583 182.731 64.3181C182.825 64.3463 182.919 64.3744 183.016 64.4034C184.719 64.9181 184.719 64.9181 185.196 65.6778C185.443 66.2982 185.386 66.9686 185.318 67.6229C184.988 68.38 184.405 68.7703 183.681 69.1257C182.706 69.4665 181.215 69.4334 180.255 69.0488C179.551 68.6618 179.034 68.1757 178.798 67.394C178.73 67.063 178.682 66.7282 178.636 66.3934C179.176 66.3934 179.716 66.3934 180.272 66.3934C180.303 66.5399 180.334 66.6865 180.366 66.8374C180.572 67.4284 180.681 67.5998 181.227 67.8962C182.107 68.113 182.758 68.0757 183.545 67.6229C183.701 67.3105 183.695 67.1321 183.69 66.7862C183.687 66.6115 183.684 66.4368 183.681 66.2568C183.608 66.2352 183.535 66.2135 183.46 66.1912C183.227 66.1218 182.995 66.0514 182.762 65.9804C182.434 65.8819 182.105 65.7879 181.775 65.6965C180.754 65.4064 179.917 65.1528 179.181 64.3443C178.999 63.9786 179.017 63.6852 179.011 63.277C179.007 63.1352 179.004 62.9934 179 62.8474C179.072 62.1779 179.36 61.8385 179.837 61.3815C180.916 60.5972 182.629 60.4804 183.852 61.0426Z" fill="black"/>
<path d="M208.09 61.0656C208.675 61.0656 209.26 61.0656 209.863 61.0656C209.977 61.3575 210.092 61.6494 210.207 61.9413C210.243 62.0329 210.279 62.1246 210.317 62.219C210.516 62.7264 210.716 63.2338 210.915 63.7413C210.996 63.9485 211.078 64.1557 211.159 64.3629C211.2 64.4661 211.24 64.5693 211.282 64.6756C211.529 65.3037 211.777 65.9312 212.026 66.5583C212.083 66.7023 212.14 66.8462 212.199 66.9946C212.304 67.2603 212.41 67.5258 212.516 67.7911C212.562 67.9085 212.609 68.026 212.656 68.147C212.697 68.2478 212.737 68.3486 212.778 68.4524C212.863 68.7159 212.863 68.7159 212.863 69.1257C212.323 69.1257 211.783 69.1257 211.226 69.1257C211.112 68.8128 210.998 68.4997 210.885 68.1865C210.853 68.0976 210.82 68.0086 210.787 67.917C210.544 67.2441 210.544 67.2441 210.544 66.9399C209.509 66.9399 208.474 66.9399 207.408 66.9399C207.273 67.4358 207.138 67.9317 206.999 68.4426C206.864 68.7807 206.864 68.7807 206.726 69.1257C206.186 69.1257 205.646 69.1257 205.09 69.1257C205.372 68.2608 205.676 67.4088 206.002 66.5594C206.049 66.4364 206.096 66.3134 206.144 66.1866C206.292 65.7972 206.441 65.408 206.59 65.0188C206.739 64.6291 206.887 64.2393 207.036 63.8495C207.128 63.6082 207.22 63.3669 207.312 63.1256C207.574 62.4399 207.833 61.7533 208.09 61.0656ZM208.908 62.5683C208.548 63.6503 208.188 64.7322 207.817 65.847C208.582 65.847 209.347 65.847 210.135 65.847C209.816 64.7359 209.44 63.6541 209.044 62.5683C208.999 62.5683 208.954 62.5683 208.908 62.5683Z" fill="black"/>
<path d="M140.183 61.0656C140.768 61.0656 141.353 61.0656 141.955 61.0656C142.07 61.3575 142.185 61.6494 142.3 61.9413C142.336 62.0329 142.372 62.1246 142.409 62.219C142.609 62.7264 142.808 63.2338 143.008 63.7413C143.089 63.9485 143.17 64.1557 143.252 64.3629C143.292 64.4661 143.333 64.5693 143.375 64.6756C143.621 65.3037 143.87 65.9312 144.119 66.5583C144.176 66.7023 144.233 66.8462 144.292 66.9946C144.397 67.2603 144.503 67.5258 144.609 67.7911C144.655 67.9085 144.701 68.026 144.749 68.147C144.789 68.2478 144.829 68.3486 144.871 68.4524C144.955 68.7159 144.955 68.7159 144.955 69.1257C144.415 69.1257 143.875 69.1257 143.319 69.1257C143.205 68.8128 143.091 68.4997 142.978 68.1865C142.946 68.0976 142.913 68.0086 142.88 67.917C142.637 67.2441 142.637 67.2441 142.637 66.9399C141.602 66.9399 140.567 66.9399 139.501 66.9399C139.366 67.4358 139.231 67.9317 139.092 68.4426C138.957 68.7807 138.957 68.7807 138.819 69.1257C138.279 69.1257 137.739 69.1257 137.183 69.1257C137.464 68.2608 137.769 67.4088 138.095 66.5594C138.141 66.4364 138.188 66.3134 138.237 66.1866C138.385 65.7972 138.534 65.408 138.683 65.0188C138.831 64.6291 138.98 64.2393 139.129 63.8495C139.221 63.6082 139.313 63.3669 139.405 63.1256C139.667 62.4399 139.926 61.7533 140.183 61.0656ZM141.001 62.5683C140.641 63.6503 140.281 64.7322 139.91 65.847C140.675 65.847 141.44 65.847 142.228 65.847C141.909 64.7359 141.532 63.6541 141.137 62.5683C141.092 62.5683 141.047 62.5683 141.001 62.5683Z" fill="black"/>
<path d="M306.805 61.1563C307.473 61.584 307.978 62.2036 308.181 62.9781C308.185 63.2058 308.185 63.4335 308.181 63.6612C307.663 63.6758 307.184 63.6603 306.681 63.5246C306.444 63.2653 306.314 63.0112 306.157 62.698C305.998 62.384 305.998 62.384 305.556 62.1499C304.857 61.9747 304.223 61.9376 303.572 62.2924C302.93 62.7856 302.612 63.4291 302.454 64.2076C302.364 65.4193 302.442 66.411 303.178 67.401C303.641 67.8539 303.98 68.0205 304.629 68.0413C305.221 68.0052 305.652 67.8573 306.101 67.442C306.43 67.0022 306.54 66.5095 306.681 65.9836C307.176 65.9836 307.671 65.9836 308.181 65.9836C308.149 67.0059 307.918 67.6761 307.227 68.4426C306.134 69.3105 305.035 69.3787 303.681 69.2623C302.513 68.9423 301.663 68.1114 301.069 67.0738C300.602 65.9374 300.62 64.3305 301.031 63.1831C301.526 62.1548 302.234 61.3797 303.281 60.9081C304.434 60.5747 305.716 60.6443 306.805 61.1563Z" fill="black"/>
<path d="M197.851 61.1563C198.519 61.584 199.024 62.2036 199.227 62.9781C199.231 63.2058 199.231 63.4335 199.227 63.6612C198.709 63.6758 198.23 63.6603 197.727 63.5246C197.49 63.2653 197.36 63.0112 197.203 62.698C197.044 62.384 197.044 62.384 196.602 62.1499C195.903 61.9747 195.268 61.9376 194.618 62.2924C193.976 62.7856 193.658 63.4291 193.5 64.2076C193.41 65.4193 193.488 66.411 194.224 67.401C194.687 67.8539 195.026 68.0205 195.675 68.0413C196.267 68.0052 196.698 67.8573 197.147 67.442C197.476 67.0022 197.586 66.5095 197.727 65.9836C198.222 65.9836 198.717 65.9836 199.227 65.9836C199.195 67.0059 198.964 67.6761 198.273 68.4426C197.179 69.3105 196.081 69.3787 194.727 69.2623C193.559 68.9423 192.709 68.1114 192.114 67.0738C191.648 65.9374 191.666 64.3305 192.077 63.1831C192.572 62.1548 193.28 61.3797 194.327 60.9081C195.48 60.5747 196.762 60.6443 197.851 61.1563Z" fill="black"/>
<path d="M219.409 61.0656C220.152 61.0543 220.894 61.043 221.659 61.0314C221.891 61.0264 222.123 61.0215 222.363 61.0163C224.267 60.9923 224.267 60.9923 225.136 61.612C225.797 62.443 225.927 63.1722 225.818 64.2077C225.628 64.8454 225.376 65.2182 224.855 65.6335C224.31 65.9243 223.929 66.0003 223.32 65.9969C223.13 65.9964 223.13 65.9964 222.937 65.9959C222.777 65.9947 222.617 65.9934 222.452 65.9921C221.943 65.9893 221.434 65.9865 220.909 65.9836C220.909 67.0205 220.909 68.0574 220.909 69.1257C220.414 69.1257 219.919 69.1257 219.409 69.1257C219.409 66.4658 219.409 63.806 219.409 61.0656ZM220.909 62.1585C220.909 63.0601 220.909 63.9617 220.909 64.8907C221.275 64.8992 221.64 64.9076 222.017 64.9163C222.187 64.9219 222.187 64.9219 222.361 64.9276C223.021 64.935 223.482 64.8625 224.046 64.4809C224.333 64.0857 224.348 63.7892 224.293 63.3111C224.282 63.2067 224.272 63.1023 224.261 62.9947C224.166 62.6483 224.053 62.5154 223.773 62.2951C223.396 62.1691 223.175 62.1424 222.787 62.1451C222.639 62.1456 222.639 62.1456 222.488 62.1462C222.301 62.148 222.301 62.148 222.111 62.1499C221.714 62.1527 221.318 62.1556 220.909 62.1585Z" fill="black"/>
<path d="M156.732 31.8226C157.444 32.2505 157.911 32.7236 158.226 33.5041C158.374 34.3138 158.334 34.9544 157.953 35.6899C157.419 36.3257 156.912 36.8331 156.051 36.9226C155.08 36.955 154.412 36.8777 153.683 36.2022C153.03 35.3638 152.89 34.6467 153.001 33.6066C153.252 32.8312 153.845 32.2853 154.501 31.8306C155.217 31.5916 156.022 31.5387 156.732 31.8226Z" fill="black"/>
<path d="M262.688 6.79645C263.389 7.39822 263.781 7.95167 263.864 8.87978C263.804 9.70038 263.489 10.2251 262.91 10.7923C262.194 11.3049 261.44 11.3072 260.592 11.2022C259.93 11.0242 259.493 10.7158 259.092 10.1605C258.737 9.51741 258.711 8.91438 258.819 8.19672C259.101 7.36398 259.645 6.89517 260.421 6.50615C261.234 6.34955 261.951 6.41352 262.688 6.79645Z" fill="black"/>
<path d="M125.862 61.0656C126.357 61.0656 126.852 61.0656 127.362 61.0656C127.362 63.3197 127.362 65.5738 127.362 67.8962C128.712 67.8962 130.062 67.8962 131.453 67.8962C131.453 68.3019 131.453 68.7077 131.453 69.1257C129.608 69.1257 127.763 69.1257 125.862 69.1257C125.862 66.4659 125.862 63.806 125.862 61.0656Z" fill="black"/>
<path d="M278.455 61.0656C278.95 61.0656 279.445 61.0656 279.955 61.0656C279.955 63.7254 279.955 66.3853 279.955 69.1257C279.46 69.1257 278.965 69.1257 278.455 69.1257C278.455 66.4659 278.455 63.806 278.455 61.0656Z" fill="black"/>
<path d="M232.636 61.0656C233.131 61.0656 233.626 61.0656 234.136 61.0656C234.136 63.7254 234.136 66.3853 234.136 69.1257C233.641 69.1257 233.146 69.1257 232.636 69.1257C232.636 66.4659 232.636 63.806 232.636 61.0656Z" fill="black"/>
</g>
<defs>
<clipPath id="clip0_76_227">
<rect width="337.5" height="75" fill="white"/>
</clipPath>
</defs>
</svg>
