<svg width="190" height="75" viewBox="0 0 190 75" fill="none" xmlns="http://www.w3.org/2000/svg">
<mask id="mask0_23_2987" style="mask-type:luminance" maskUnits="userSpaceOnUse" x="0" y="0" width="168" height="44">
<path d="M167.1 0H0.388672V43.2411H167.1V0Z" fill="white"/>
</mask>
<g mask="url(#mask0_23_2987)">
<path d="M8.38966 26.7272C7.19833 26.3331 6.11528 25.9391 5.14054 25.5449C4.16579 25.1246 3.32644 24.6253 2.62245 24.0473C1.91848 23.4692 1.36342 22.7861 0.957271 21.9978C0.578205 21.1833 0.388672 20.198 0.388672 19.0419C0.388672 16.8086 1.26864 15.0219 3.0286 13.6819C4.81562 12.3419 7.30663 11.6719 10.5016 11.6719C11.6659 11.6719 12.749 11.7507 13.7508 11.9083C14.7526 12.0659 15.6055 12.3156 16.3095 12.6572C17.0405 12.9724 17.6092 13.3929 18.0153 13.9183C18.4214 14.4175 18.6244 15.0087 18.6244 15.6919C18.6244 16.375 18.4621 16.9662 18.1371 17.4655C17.8122 17.9384 17.4196 18.3457 16.9593 18.6872C16.3636 18.3194 15.5648 18.0041 14.5631 17.7413C13.5612 17.4523 12.4647 17.3077 11.2733 17.3077C10.0548 17.3077 9.16137 17.4786 8.59277 17.8202C8.02415 18.1354 7.73985 18.5427 7.73985 19.0419C7.73985 19.436 7.91588 19.7645 8.26783 20.0272C8.61986 20.2637 9.14782 20.487 9.85182 20.6972L12.0043 21.3673C14.5495 22.1554 16.499 23.167 17.8528 24.402C19.2338 25.6106 19.9241 27.2659 19.9241 29.3679C19.9241 31.6012 19.0171 33.4142 17.2029 34.8068C15.3889 36.173 12.7219 36.8561 9.20194 36.8561C7.95644 36.8561 6.79218 36.7511 5.70914 36.5409C4.65317 36.3569 3.71903 36.081 2.90675 35.7132C2.12155 35.319 1.4988 34.8461 1.0385 34.2945C0.605282 33.7164 0.388672 33.0596 0.388672 32.3237C0.388672 31.5618 0.61882 30.9181 1.07911 30.3926C1.53941 29.8408 2.04031 29.4203 2.58184 29.1314C3.33997 29.7095 4.26056 30.2087 5.3436 30.6291C6.45373 31.0494 7.65862 31.2596 8.95826 31.2596C10.285 31.2596 11.2191 31.0626 11.7607 30.6685C12.3022 30.2743 12.5729 29.8145 12.5729 29.289C12.5729 28.7635 12.3564 28.3694 11.9231 28.1067C11.4899 27.8177 10.8807 27.5418 10.0955 27.279L8.38966 26.7272Z" fill="black"/>
<path d="M42.7418 36.1858C42.4709 36.2647 42.0377 36.3434 41.442 36.4223C40.8734 36.5012 40.2778 36.5404 39.655 36.5404C39.0593 36.5404 38.5178 36.5012 38.0304 36.4223C37.5701 36.3434 37.1776 36.1858 36.8526 35.9493C36.5277 35.7129 36.2705 35.3976 36.0809 35.0035C35.9185 34.583 35.8373 34.0445 35.8373 33.3876V24.6381C35.8373 23.5608 35.553 22.812 34.9844 22.3915C34.4428 21.9449 33.766 21.7216 32.9536 21.7216C32.4122 21.7216 31.8977 21.7873 31.4102 21.9186C30.923 22.05 30.5304 22.2076 30.2324 22.3915V36.1858C29.9617 36.2647 29.5285 36.3434 28.9328 36.4223C28.3643 36.5012 27.7686 36.5404 27.1458 36.5404C26.5501 36.5404 26.0087 36.5012 25.5212 36.4223C25.0609 36.3434 24.6684 36.1858 24.3434 35.9493C24.0185 35.7129 23.7613 35.3976 23.5718 35.0035C23.4093 34.583 23.3281 34.0445 23.3281 33.3876V10.5286C23.626 10.4759 24.0592 10.4103 24.6277 10.3314C25.2234 10.2264 25.8191 10.1738 26.4148 10.1738C27.0104 10.1738 27.5383 10.2133 27.9987 10.292C28.4861 10.3709 28.8923 10.5286 29.2171 10.765C29.5421 11.0015 29.7857 11.3299 29.9482 11.7503C30.1377 12.1444 30.2324 12.6699 30.2324 13.3268V17.1892C30.5845 17.0579 31.1126 16.9133 31.8165 16.7557C32.5475 16.5718 33.3462 16.4798 34.2127 16.4798C36.8933 16.4798 38.9781 17.1366 40.4673 18.4503C41.9836 19.7378 42.7418 21.669 42.7418 24.2439V36.1858Z" fill="black"/>
<path d="M67.4332 26.6478C67.4332 28.2768 67.176 29.735 66.6615 31.0225C66.147 32.2838 65.4161 33.3478 64.4684 34.2149C63.5478 35.0819 62.4376 35.7389 61.138 36.1855C59.8383 36.6321 58.3896 36.8556 56.7922 36.8556C55.1948 36.8556 53.7462 36.619 52.4465 36.1461C51.1468 35.6731 50.0233 35.0032 49.0755 34.136C48.1549 33.2428 47.4374 32.1655 46.9229 30.9043C46.4085 29.6431 46.1514 28.2242 46.1514 26.6478C46.1514 25.0976 46.4085 23.6918 46.9229 22.4306C47.4374 21.1694 48.1549 20.1053 49.0755 19.2383C50.0233 18.3449 51.1468 17.6618 52.4465 17.1889C53.7462 16.7159 55.1948 16.4795 56.7922 16.4795C58.3896 16.4795 59.8383 16.7291 61.138 17.2283C62.4376 17.7012 63.5478 18.3843 64.4684 19.2776C65.4161 20.1447 66.147 21.2089 66.6615 22.4701C67.176 23.7313 67.4332 25.1239 67.4332 26.6478ZM53.2182 26.6478C53.2182 28.2505 53.5295 29.4854 54.1523 30.3525C54.8022 31.1933 55.6957 31.6137 56.8329 31.6137C57.97 31.6137 58.8366 31.1802 59.4322 30.3131C60.0549 29.4461 60.3662 28.2242 60.3662 26.6478C60.3662 25.0713 60.0549 23.8627 59.4322 23.0218C58.8095 22.1547 57.9295 21.7213 56.7922 21.7213C55.6551 21.7213 54.7751 22.1547 54.1523 23.0218C53.5295 23.8627 53.2182 25.0713 53.2182 26.6478Z" fill="black"/>
<path d="M79.8576 16.4795C81.4823 16.4795 82.9848 16.6897 84.3663 17.11C85.7736 17.5042 86.9786 18.1216 87.9803 18.9624C88.9829 19.8031 89.768 20.8674 90.3366 22.1547C90.9053 23.4159 91.1896 24.9267 91.1896 26.6871C91.1896 28.3688 90.9455 29.8402 90.4579 31.1013C89.9705 32.3625 89.2806 33.4267 88.3867 34.2938C87.4936 35.1345 86.41 35.765 85.138 36.1855C83.8921 36.606 82.4974 36.8162 80.9545 36.8162C79.7898 36.8162 78.707 36.6453 77.7053 36.3038V42.8462C77.4344 42.9249 77.0012 43.0038 76.4058 43.0827C75.8096 43.1877 75.2007 43.2402 74.578 43.2402C73.9823 43.2402 73.4408 43.2008 72.9534 43.1221C72.4931 43.0432 72.1004 42.8855 71.7754 42.649C71.4507 42.4127 71.207 42.0842 71.0446 41.6637C70.8821 41.2697 70.8008 40.7442 70.8008 40.0874V21.1694C70.8008 20.4601 70.9497 19.882 71.2475 19.4353C71.5725 18.9887 72.0057 18.5815 72.5473 18.2136C73.3866 17.6881 74.429 17.2676 75.6749 16.9524C76.92 16.6371 78.3148 16.4795 79.8576 16.4795ZM79.9387 31.5348C82.7282 31.5348 84.1222 29.919 84.1222 26.6871C84.1222 25.0056 83.7701 23.7575 83.066 22.943C82.3895 22.1284 81.4011 21.7213 80.1017 21.7213C79.5875 21.7213 79.1267 21.787 78.7204 21.9183C78.3148 22.0234 77.9628 22.1547 77.6643 22.3125V30.9832C77.9895 31.1407 78.3416 31.2721 78.7204 31.3772C79.0999 31.4824 79.5055 31.5348 79.9387 31.5348Z" fill="black"/>
<path d="M104.996 36.8556C103.399 36.8556 101.91 36.6453 100.529 36.225C99.1756 35.7783 97.984 35.1213 96.9547 34.2542C95.9529 33.3872 95.1544 32.2968 94.5589 30.9832C93.9903 29.6694 93.7061 28.1323 93.7061 26.3719C93.7061 24.6378 93.9903 23.1532 94.5589 21.9183C95.1544 20.6571 95.9261 19.6324 96.8735 18.8441C97.8217 18.0297 98.9047 17.4385 100.123 17.0707C101.341 16.6765 102.587 16.4795 103.859 16.4795C105.295 16.4795 106.594 16.6897 107.758 17.11C108.95 17.5305 109.965 18.1084 110.804 18.8441C111.671 19.5798 112.335 20.4601 112.795 21.4848C113.282 22.5095 113.525 23.6261 113.525 24.8348C113.525 25.7281 113.269 26.4112 112.754 26.8843C112.239 27.3572 111.522 27.6594 110.601 27.7907L100.57 29.2489C100.867 30.1161 101.477 30.773 102.397 31.2195C103.318 31.64 104.374 31.8502 105.565 31.8502C106.675 31.8502 107.718 31.7187 108.692 31.4561C109.694 31.167 110.507 30.8386 111.13 30.4708C111.563 30.7334 111.928 31.1013 112.226 31.5743C112.524 32.0472 112.672 32.5464 112.672 33.0719C112.672 34.2542 112.104 35.1345 110.967 35.7126C110.1 36.1592 109.125 36.4614 108.043 36.619C106.96 36.7767 105.945 36.8556 104.996 36.8556ZM103.859 21.3665C103.209 21.3665 102.641 21.4716 102.153 21.6818C101.693 21.892 101.314 22.1679 101.016 22.5095C100.718 22.8248 100.488 23.1926 100.326 23.6131C100.191 24.0072 100.11 24.4145 100.082 24.8348L107.027 23.7313C106.946 23.2057 106.649 22.6804 106.134 22.1547C105.619 21.6292 104.862 21.3665 103.859 21.3665Z" fill="black"/>
<path d="M123.753 36.1852C123.482 36.2639 123.049 36.3428 122.453 36.4217C121.884 36.5005 121.289 36.5398 120.666 36.5398C120.07 36.5398 119.529 36.5005 119.041 36.4217C118.581 36.3428 118.189 36.1852 117.864 35.9487C117.539 35.7121 117.282 35.3969 117.092 35.0029C116.93 34.5824 116.849 34.0437 116.849 33.3869V21.5632C116.849 20.959 116.957 20.4466 117.173 20.0261C117.417 19.5795 117.755 19.1854 118.189 18.8438C118.622 18.5023 119.15 18.2001 119.773 17.9374C120.423 17.6483 121.113 17.3987 121.844 17.1886C122.575 16.9784 123.333 16.8206 124.119 16.7156C124.904 16.5842 125.689 16.5186 126.474 16.5186C127.774 16.5186 128.803 16.7682 129.56 17.2673C130.319 17.7402 130.698 18.5286 130.698 19.632C130.698 20 130.644 20.3679 130.535 20.7356C130.427 21.0771 130.292 21.3924 130.129 21.6815C129.56 21.6815 128.978 21.7078 128.383 21.7602C127.787 21.8128 127.205 21.8917 126.636 21.9968C126.068 22.102 125.527 22.2202 125.012 22.3514C124.525 22.4566 124.105 22.5879 123.753 22.7456V36.1852Z" fill="black"/>
<path d="M134.356 36.2242C133.923 35.8564 133.571 35.4228 133.3 34.9236C133.057 34.4244 132.935 33.8594 132.935 33.2289C132.935 32.7034 133.057 32.1912 133.3 31.6918C133.571 31.1663 133.896 30.6802 134.275 30.2336L141.261 22.2723H133.788C133.626 21.9834 133.463 21.6155 133.3 21.1687C133.165 20.7221 133.097 20.236 133.097 19.7105C133.097 18.7909 133.3 18.1341 133.707 17.7399C134.14 17.3194 134.709 17.1094 135.413 17.1094H148.206C148.639 17.4772 148.977 17.9108 149.221 18.41C149.492 18.9091 149.628 19.474 149.628 20.1047C149.628 20.6302 149.492 21.1557 149.221 21.6812C148.977 22.1804 148.666 22.6533 148.287 23.1L141.464 31.0613H149.425C149.587 31.3502 149.736 31.7181 149.871 32.1649C150.033 32.6114 150.114 33.0976 150.114 33.6231C150.114 34.5426 149.898 35.2126 149.465 35.6331C149.059 36.0272 148.504 36.2242 147.8 36.2242H134.356Z" fill="black"/>
<path d="M145.5 2.54359C145.5 1.13881 146.676 0 148.127 0C149.577 0 150.753 1.13881 150.753 2.54359V7.63077C150.753 9.03561 149.577 10.1744 148.127 10.1744C146.676 10.1744 145.5 9.03561 145.5 7.63077V2.54359Z" fill="#E4B200"/>
<path d="M135.124 8.8119C134.097 7.81858 134.097 6.20806 135.124 5.21473C136.149 4.22139 137.813 4.22139 138.838 5.21473L142.553 8.8119C143.579 9.80523 143.579 11.4158 142.553 12.4091C141.527 13.4025 139.864 13.4025 138.838 12.4091L135.124 8.8119Z" fill="#E4B200"/>
<path d="M153.698 26.7971C152.672 25.8039 152.672 24.1934 153.698 23.2C154.724 22.2068 156.387 22.2068 157.413 23.2L161.128 26.7971C162.154 27.7905 162.154 29.401 161.128 30.3944C160.102 31.3878 158.439 31.3878 157.413 30.3944L153.698 26.7971Z" fill="#E4B200"/>
<path d="M158.634 20.3489C157.183 20.3489 156.007 19.2101 156.007 17.8053C156.007 16.4005 157.183 15.2617 158.634 15.2617H163.887C165.338 15.2617 166.515 16.4005 166.515 17.8053C166.515 19.2101 165.338 20.3489 163.887 20.3489H158.634Z" fill="#E4B200"/>
<path d="M157.413 12.4091C156.388 13.4025 154.724 13.4025 153.698 12.4091C152.672 11.4158 152.672 9.8053 153.698 8.8119L157.413 5.21473C158.439 4.22139 160.102 4.22139 161.128 5.21473C162.154 6.20806 162.154 7.81858 161.128 8.8119L157.413 12.4091Z" fill="#E4B200"/>
</g>
<path d="M1.17969 72.3602V62.973H4.46153C5.11545 62.973 5.65479 63.0861 6.07953 63.3121C6.50428 63.5353 6.82055 63.8363 7.02834 64.2152C7.23612 64.5911 7.34002 65.0082 7.34002 65.4665C7.34002 65.8699 7.26821 66.2029 7.12458 66.4657C6.98402 66.7286 6.79762 66.9364 6.56538 67.0892C6.33621 67.242 6.08717 67.3549 5.81827 67.4283V67.52C6.10551 67.5383 6.39426 67.6392 6.68457 67.8225C6.97485 68.0058 7.21779 68.2686 7.41335 68.6108C7.60891 68.9532 7.7067 69.3717 7.7067 69.8667C7.7067 70.3373 7.59975 70.7605 7.38586 71.1364C7.17195 71.5122 6.83429 71.8102 6.37289 72.0303C5.91146 72.2502 5.31101 72.3602 4.57153 72.3602H1.17969ZM2.31641 71.3518H4.57153C5.31408 71.3518 5.84118 71.2082 6.15286 70.921C6.46761 70.6306 6.62498 70.2792 6.62498 69.8667C6.62498 69.549 6.54401 69.2557 6.38205 68.9867C6.2201 68.7147 5.98939 68.4978 5.68993 68.3359C5.39046 68.1708 5.03601 68.0884 4.62654 68.0884H2.31641V71.3518ZM2.31641 67.0982H4.42486C4.7671 67.0982 5.07573 67.0311 5.35074 66.8965C5.62881 66.7621 5.84883 66.5727 6.01077 66.3283C6.17579 66.0837 6.25829 65.7965 6.25829 65.4665C6.25829 65.054 6.11467 64.704 5.82744 64.4169C5.5402 64.1266 5.08489 63.9814 4.46153 63.9814H2.31641V67.0982ZM12.3797 72.5069C11.7013 72.5069 11.1161 72.3571 10.6242 72.0577C10.1352 71.7552 9.75786 71.3334 9.492 70.7926C9.22922 70.2487 9.09783 69.6161 9.09783 68.8951C9.09783 68.1739 9.22922 67.5383 9.492 66.9883C9.75786 66.4353 10.1276 66.0043 10.6012 65.6957C11.0779 65.3839 11.6341 65.2281 12.2697 65.2281C12.6363 65.2281 12.9984 65.2892 13.356 65.4115C13.7135 65.5337 14.0389 65.7323 14.3323 66.0074C14.6257 66.2794 14.8594 66.6398 15.0335 67.0892C15.2078 67.5383 15.2947 68.0914 15.2947 68.7484V69.2068H9.86786V68.2716H14.1948C14.1948 67.8744 14.1153 67.52 13.9564 67.2082C13.8006 66.8965 13.5775 66.6506 13.2872 66.4703C13 66.29 12.6608 66.1999 12.2697 66.1999C11.8388 66.1999 11.466 66.3068 11.1513 66.5208C10.8396 66.7316 10.5997 67.0066 10.4316 67.3457C10.2636 67.685 10.1795 68.0487 10.1795 68.4367V69.06C10.1795 69.5917 10.2712 70.0424 10.4546 70.4122C10.641 70.7789 10.8992 71.0585 11.2292 71.251C11.5592 71.4404 11.9427 71.5351 12.3797 71.5351C12.6638 71.5351 12.9205 71.4954 13.1497 71.416C13.3819 71.3334 13.5821 71.2113 13.7502 71.0493C13.9182 70.8843 14.0481 70.6795 14.1398 70.4351L15.1849 70.7284C15.0748 71.0829 14.8899 71.3946 14.6302 71.6635C14.3704 71.9294 14.0496 72.1371 13.6676 72.2868C13.2857 72.4336 12.8564 72.5069 12.3797 72.5069ZM21.9272 66.8965L20.9556 67.1716C20.8945 67.0096 20.8043 66.8523 20.6852 66.6995C20.569 66.5437 20.4101 66.4152 20.2084 66.3144C20.0067 66.2136 19.7486 66.1632 19.4338 66.1632C19.0029 66.1632 18.6439 66.2624 18.3567 66.4612C18.0724 66.6568 17.9304 66.9057 17.9304 67.2082C17.9304 67.4772 18.0282 67.6895 18.2238 67.8454C18.4193 68.0012 18.7249 68.1311 19.1405 68.235L20.1855 68.4917C20.8149 68.6445 21.2841 68.8783 21.5927 69.1929C21.9012 69.5046 22.0556 69.9065 22.0556 70.3985C22.0556 70.8018 21.9395 71.1624 21.7073 71.4801C21.478 71.7979 21.1573 72.0485 20.7447 72.2319C20.3322 72.4152 19.8525 72.5069 19.3054 72.5069C18.5874 72.5069 17.993 72.351 17.5224 72.0393C17.0519 71.7278 16.7539 71.2724 16.6286 70.6734L17.6553 70.4169C17.7531 70.7957 17.938 71.0798 18.21 71.2694C18.485 71.4588 18.8441 71.5535 19.2872 71.5535C19.7914 71.5535 20.1916 71.4465 20.488 71.2326C20.7875 71.0158 20.9372 70.756 20.9372 70.4535C20.9372 70.209 20.8517 70.0043 20.6805 69.8392C20.5095 69.6711 20.2467 69.5459 19.8922 69.4633L18.7188 69.1884C18.074 69.0356 17.6003 68.7987 17.2978 68.478C16.9984 68.154 16.8486 67.7491 16.8486 67.2633C16.8486 66.866 16.9601 66.5146 17.1833 66.209C17.4095 65.9035 17.7165 65.6635 18.1045 65.4895C18.4956 65.3152 18.9388 65.2281 19.4338 65.2281C20.1305 65.2281 20.6774 65.3809 21.0747 65.6865C21.475 65.992 21.7592 66.3954 21.9272 66.8965ZM26.7457 65.3199V66.2365H23.0973V65.3199H26.7457ZM24.1607 63.6331H25.2423V70.3434C25.2423 70.649 25.2867 70.8781 25.3752 71.0309C25.4669 71.1806 25.5831 71.2815 25.7236 71.3334C25.8672 71.3823 26.0185 71.4068 26.1774 71.4068C26.2965 71.4068 26.3943 71.4007 26.4708 71.3885C26.5471 71.3733 26.6082 71.361 26.654 71.3518L26.8741 72.3236C26.8007 72.351 26.6984 72.3786 26.5671 72.406C26.4356 72.4365 26.2691 72.4519 26.0674 72.4519C25.7618 72.4519 25.4624 72.3862 25.169 72.2549C24.8786 72.1234 24.6373 71.9233 24.4448 71.6543C24.2554 71.3854 24.1607 71.0462 24.1607 70.6368V63.6331ZM35.0466 72.3602H32.1498V62.973H35.175C36.0856 62.973 36.8647 63.161 37.5125 63.5367C38.1605 63.9096 38.6569 64.4459 39.0022 65.1456C39.3476 65.8423 39.5203 66.6766 39.5203 67.6482C39.5203 68.6261 39.346 69.468 38.9977 70.1739C38.6493 70.8767 38.1421 71.4175 37.4759 71.7965C36.8097 72.1723 35.9999 72.3602 35.0466 72.3602ZM33.2865 71.3518H34.9733C35.7494 71.3518 36.3927 71.2021 36.903 70.9026C37.4133 70.6032 37.7937 70.1769 38.0443 69.6239C38.2949 69.0708 38.4201 68.4122 38.4201 67.6482C38.4201 66.8904 38.2963 66.2381 38.0488 65.6911C37.8013 65.1411 37.4317 64.7194 36.9396 64.4261C36.4477 64.1297 35.8351 63.9814 35.1016 63.9814H33.2865V71.3518ZM44.2321 72.5069C43.5538 72.5069 42.9686 72.3571 42.4765 72.0577C41.9877 71.7552 41.6103 71.3334 41.3444 70.7926C41.0817 70.2487 40.9502 69.6161 40.9502 68.8951C40.9502 68.1739 41.0817 67.5383 41.3444 66.9883C41.6103 66.4353 41.9801 66.0043 42.4536 65.6957C42.9304 65.3839 43.4865 65.2281 44.1221 65.2281C44.4888 65.2281 44.8508 65.2892 45.2084 65.4115C45.5659 65.5337 45.8913 65.7323 46.1847 66.0074C46.4781 66.2794 46.7118 66.6398 46.886 67.0892C47.0603 67.5383 47.1472 68.0914 47.1472 68.7484V69.2068H41.7203V68.2716H46.0472C46.0472 67.8744 45.9678 67.52 45.8089 67.2082C45.653 66.8965 45.4299 66.6506 45.1397 66.4703C44.8525 66.29 44.5133 66.1999 44.1221 66.1999C43.6913 66.1999 43.3184 66.3068 43.0038 66.5208C42.6921 66.7316 42.4522 67.0066 42.2841 67.3457C42.1161 67.685 42.032 68.0487 42.032 68.4367V69.06C42.032 69.5917 42.1237 70.0424 42.307 70.4122C42.4935 70.7789 42.7516 71.0585 43.0816 71.251C43.4117 71.4404 43.7952 71.5351 44.2321 71.5351C44.5164 71.5351 44.7729 71.4954 45.0022 71.416C45.2344 71.3334 45.4346 71.2113 45.6025 71.0493C45.7707 70.8843 45.9005 70.6795 45.9922 70.4351L47.0374 70.7284C46.9273 71.0829 46.7424 71.3946 46.4827 71.6635C46.2229 71.9294 45.9022 72.1371 45.5201 72.2868C45.1382 72.4336 44.7089 72.5069 44.2321 72.5069ZM50.8646 72.5253C50.4184 72.5253 50.0135 72.4412 49.65 72.2731C49.2863 72.1021 48.9975 71.856 48.7836 71.5351C48.5698 71.2113 48.4628 70.8202 48.4628 70.3618C48.4628 69.9585 48.5422 69.6314 48.7011 69.3809C48.86 69.1272 49.0724 68.9286 49.3383 68.785C49.6041 68.6414 49.8975 68.5345 50.2182 68.4641C50.5422 68.3909 50.8676 68.3328 51.1947 68.29C51.6224 68.235 51.9693 68.1937 52.235 68.1663C52.5039 68.1356 52.6995 68.0853 52.8218 68.0149C52.947 67.9448 53.0098 67.8225 53.0098 67.6482V67.6116C53.0098 67.1594 52.886 66.8079 52.6383 66.5574C52.3939 66.3068 52.0227 66.1816 51.5246 66.1816C51.0081 66.1816 50.6033 66.2946 50.31 66.5208C50.0165 66.7468 49.8103 66.9883 49.6911 67.2449L48.6645 66.8783C48.8478 66.4504 49.0922 66.1174 49.3978 65.8791C49.7064 65.6376 50.0425 65.4696 50.4062 65.3749C50.7729 65.277 51.1335 65.2281 51.488 65.2281C51.714 65.2281 51.9738 65.2557 52.2671 65.3107C52.5635 65.3626 52.8492 65.4711 53.1243 65.6361C53.4023 65.8012 53.633 66.0501 53.8165 66.3833C53.9998 66.7163 54.0914 67.1624 54.0914 67.7216V72.3602H53.0098V71.4068H52.9547C52.8813 71.5596 52.7592 71.7231 52.588 71.8973C52.4168 72.0714 52.1892 72.2197 51.9051 72.3418C51.6209 72.4641 51.274 72.5253 50.8646 72.5253ZM51.0296 71.5535C51.4573 71.5535 51.8179 71.4694 52.1112 71.3015C52.4076 71.1334 52.6308 70.9164 52.7805 70.6505C52.9333 70.3847 53.0098 70.1051 53.0098 69.8118V68.8217C52.9638 68.8767 52.8629 68.9272 52.7072 68.973C52.5545 69.0158 52.3771 69.054 52.1755 69.0875C51.9768 69.118 51.7828 69.1456 51.5933 69.17C51.407 69.1915 51.2556 69.2097 51.1396 69.225C50.8584 69.2616 50.5956 69.3213 50.3512 69.4038C50.1098 69.4833 49.9142 69.604 49.7645 69.7658C49.6179 69.9248 49.5445 70.1418 49.5445 70.4169C49.5445 70.7926 49.6835 71.0767 49.9617 71.2694C50.2427 71.4588 50.5987 71.5535 51.0296 71.5535ZM57.1475 62.973V72.3602H56.0657V62.973H57.1475ZM70.8261 67.6666C70.8261 68.6566 70.6474 69.5122 70.2898 70.2334C69.9323 70.9546 69.4418 71.5107 68.8185 71.9018C68.1951 72.2929 67.4831 72.4885 66.6825 72.4885C65.882 72.4885 65.17 72.2929 64.5465 71.9018C63.9233 71.5107 63.4328 70.9546 63.0752 70.2334C62.7177 69.5122 62.539 68.6566 62.539 67.6666C62.539 66.6766 62.7177 65.821 63.0752 65.0998C63.4328 64.3786 63.9233 63.8225 64.5465 63.4314C65.17 63.0403 65.882 62.8447 66.6825 62.8447C67.4831 62.8447 68.1951 63.0403 68.8185 63.4314C69.4418 63.8225 69.9323 64.3786 70.2898 65.0998C70.6474 65.821 70.8261 66.6766 70.8261 67.6666ZM69.7261 67.6666C69.7261 66.8538 69.5901 66.1677 69.3181 65.6085C69.0491 65.0495 68.684 64.6261 68.2225 64.3389C67.7642 64.0517 67.2509 63.9081 66.6825 63.9081C66.1141 63.9081 65.5993 64.0517 65.1378 64.3389C64.6795 64.6261 64.3144 65.0495 64.0423 65.6085C63.7735 66.1677 63.639 66.8538 63.639 67.6666C63.639 68.4795 63.7735 69.1655 64.0423 69.7247C64.3144 70.2839 64.6795 70.7071 65.1378 70.9943C65.5993 71.2815 66.1141 71.4252 66.6825 71.4252C67.2509 71.4252 67.7642 71.2815 68.2225 70.9943C68.684 70.7071 69.0491 70.2839 69.3181 69.7247C69.5901 69.1655 69.7261 68.4795 69.7261 67.6666ZM73.6725 68.125V72.3602H72.5907V65.3199H73.6357V66.4199H73.7275C73.8924 66.0624 74.143 65.7752 74.4792 65.5582C74.8153 65.3381 75.2492 65.2281 75.7809 65.2281C76.2575 65.2281 76.6748 65.326 77.0323 65.5216C77.3898 65.714 77.6678 66.0074 77.8665 66.4015C78.0651 66.7926 78.1645 67.2878 78.1645 67.8867V72.3602H77.0826V67.9599C77.0826 67.4069 76.9391 66.9761 76.6519 66.6674C76.3645 66.3557 75.9704 66.1999 75.4692 66.1999C75.124 66.1999 74.8153 66.2747 74.5433 66.4244C74.2745 66.5742 74.0622 66.7926 73.9063 67.08C73.7504 67.3672 73.6725 67.7155 73.6725 68.125ZM81.2229 62.973V72.3602H80.141V62.973H81.2229ZM83.204 72.3602V65.3199H84.2858V72.3602H83.204ZM83.7541 64.1464C83.5433 64.1464 83.3614 64.0747 83.2086 63.9311C83.0589 63.7875 82.9841 63.6147 82.9841 63.413C82.9841 63.2113 83.0589 63.0387 83.2086 62.8951C83.3614 62.7515 83.5433 62.6797 83.7541 62.6797C83.9649 62.6797 84.1452 62.7515 84.295 62.8951C84.4478 63.0387 84.5241 63.2113 84.5241 63.413C84.5241 63.6147 84.4478 63.7875 84.295 63.9311C84.1452 64.0747 83.9649 64.1464 83.7541 64.1464ZM87.3487 68.125V72.3602H86.267V65.3199H87.3121V66.4199H87.4037C87.5688 66.0624 87.8193 65.7752 88.1554 65.5582C88.4916 65.3381 88.9255 65.2281 89.4573 65.2281C89.9339 65.2281 90.3509 65.326 90.7085 65.5216C91.066 65.714 91.3442 66.0074 91.5428 66.4015C91.7414 66.7926 91.8406 67.2878 91.8406 67.8867V72.3602H90.759V67.9599C90.759 67.4069 90.6154 66.9761 90.328 66.6674C90.0408 66.3557 89.6467 66.1999 89.1456 66.1999C88.8003 66.1999 88.4916 66.2747 88.2196 66.4244C87.9507 66.5742 87.7383 66.7926 87.5825 67.08C87.4266 67.3672 87.3487 67.7155 87.3487 68.125ZM96.7691 72.5069C96.0908 72.5069 95.5057 72.3571 95.0136 72.0577C94.5247 71.7552 94.1473 71.3334 93.8814 70.7926C93.6188 70.2487 93.4873 69.6161 93.4873 68.8951C93.4873 68.1739 93.6188 67.5383 93.8814 66.9883C94.1473 66.4353 94.5171 66.0043 94.9907 65.6957C95.4674 65.3839 96.0236 65.2281 96.6591 65.2281C97.0258 65.2281 97.3879 65.2892 97.7454 65.4115C98.1029 65.5337 98.4284 65.7323 98.7217 66.0074C99.0152 66.2794 99.2488 66.6398 99.423 67.0892C99.5973 67.5383 99.6843 68.0914 99.6843 68.7484V69.2068H94.2574V68.2716H98.5842C98.5842 67.8744 98.5048 67.52 98.3459 67.2082C98.1901 66.8965 97.9669 66.6506 97.6767 66.4703C97.3895 66.29 97.0503 66.1999 96.6591 66.1999C96.2283 66.1999 95.8554 66.3068 95.5408 66.5208C95.2291 66.7316 94.9892 67.0066 94.8211 67.3457C94.6531 67.685 94.5691 68.0487 94.5691 68.4367V69.06C94.5691 69.5917 94.6607 70.0424 94.844 70.4122C95.0305 70.7789 95.2887 71.0585 95.6186 71.251C95.9487 71.4404 96.3322 71.5351 96.7691 71.5351C97.0534 71.5351 97.3099 71.4954 97.5392 71.416C97.7714 71.3334 97.9716 71.2113 98.1396 71.0493C98.3077 70.8843 98.4376 70.6795 98.5292 70.4351L99.5744 70.7284C99.4643 71.0829 99.2794 71.3946 99.0197 71.6635C98.7599 71.9294 98.4392 72.1371 98.0571 72.2868C97.6752 72.4336 97.2459 72.5069 96.7691 72.5069ZM107.82 72.5069C107.185 72.5069 106.627 72.3557 106.147 72.0532C105.671 71.7507 105.298 71.3273 105.029 70.7834C104.763 70.2395 104.63 69.604 104.63 68.8767C104.63 68.1434 104.763 67.5032 105.029 66.9562C105.298 66.4093 105.671 65.9845 106.147 65.6819C106.627 65.3794 107.185 65.2281 107.82 65.2281C108.456 65.2281 109.012 65.3794 109.489 65.6819C109.968 65.9845 110.341 66.4093 110.607 66.9562C110.876 67.5032 111.01 68.1434 111.01 68.8767C111.01 69.604 110.876 70.2395 110.607 70.7834C110.341 71.3273 109.968 71.7507 109.489 72.0532C109.012 72.3557 108.456 72.5069 107.82 72.5069ZM107.82 71.5351C108.303 71.5351 108.7 71.4114 109.012 71.1639C109.324 70.9164 109.554 70.5909 109.704 70.1876C109.854 69.7842 109.929 69.3473 109.929 68.8767C109.929 68.406 109.854 67.9677 109.704 67.5613C109.554 67.1548 109.324 66.8263 109.012 66.5758C108.7 66.3252 108.303 66.1999 107.82 66.1999C107.337 66.1999 106.94 66.3252 106.628 66.5758C106.317 66.8263 106.086 67.1548 105.936 67.5613C105.787 67.9677 105.712 68.406 105.712 68.8767C105.712 69.3473 105.787 69.7842 105.936 70.1876C106.086 70.5909 106.317 70.9164 106.628 71.1639C106.94 71.4114 107.337 71.5351 107.82 71.5351ZM113.743 68.125V72.3602H112.662V65.3199H113.707V66.4199H113.798C113.963 66.0624 114.214 65.7752 114.55 65.5582C114.886 65.3381 115.32 65.2281 115.852 65.2281C116.328 65.2281 116.746 65.326 117.103 65.5216C117.461 65.714 117.739 66.0074 117.937 66.4015C118.136 66.7926 118.235 67.2878 118.235 67.8867V72.3602H117.153V67.9599C117.153 67.4069 117.01 66.9761 116.723 66.6674C116.435 66.3557 116.041 66.1999 115.54 66.1999C115.195 66.1999 114.886 66.2747 114.614 66.4244C114.345 66.5742 114.133 66.7926 113.977 67.08C113.821 67.3672 113.743 67.7155 113.743 68.125ZM131.543 65.9065H130.406C130.339 65.5795 130.221 65.2923 130.053 65.0448C129.888 64.7973 129.686 64.5895 129.448 64.4214C129.212 64.2504 128.951 64.1219 128.664 64.0364C128.377 63.9509 128.077 63.9081 127.766 63.9081C127.197 63.9081 126.682 64.0517 126.221 64.3389C125.763 64.6261 125.398 65.0495 125.125 65.6085C124.857 66.1677 124.722 66.8538 124.722 67.6666C124.722 68.4795 124.857 69.1655 125.125 69.7247C125.398 70.2839 125.763 70.7071 126.221 70.9943C126.682 71.2815 127.197 71.4252 127.766 71.4252C128.077 71.4252 128.377 71.3823 128.664 71.2968C128.951 71.2113 129.212 71.0845 129.448 70.9164C129.686 70.7453 129.888 70.5359 130.053 70.2884C130.221 70.0379 130.339 69.7507 130.406 69.4267H131.543C131.457 69.9065 131.301 70.3359 131.075 70.7147C130.849 71.0937 130.568 71.416 130.232 71.6818C129.895 71.9446 129.518 72.1448 129.1 72.2823C128.684 72.4197 128.239 72.4885 127.766 72.4885C126.965 72.4885 126.253 72.2929 125.63 71.9018C125.006 71.5107 124.516 70.9546 124.158 70.2334C123.801 69.5122 123.622 68.6566 123.622 67.6666C123.622 66.6766 123.801 65.821 124.158 65.0998C124.516 64.3786 125.006 63.8225 125.63 63.4314C126.253 63.0403 126.965 62.8447 127.766 62.8447C128.239 62.8447 128.684 62.9135 129.1 63.0509C129.518 63.1884 129.895 63.3901 130.232 63.656C130.568 63.9188 130.849 64.2397 131.075 64.6185C131.301 64.9945 131.457 65.4238 131.543 65.9065ZM136.093 72.5069C135.457 72.5069 134.9 72.3557 134.42 72.0532C133.943 71.7507 133.57 71.3273 133.301 70.7834C133.036 70.2395 132.903 69.604 132.903 68.8767C132.903 68.1434 133.036 67.5032 133.301 66.9562C133.57 66.4093 133.943 65.9845 134.42 65.6819C134.9 65.3794 135.457 65.2281 136.093 65.2281C136.728 65.2281 137.285 65.3794 137.761 65.6819C138.241 65.9845 138.614 66.4093 138.88 66.9562C139.149 67.5032 139.283 68.1434 139.283 68.8767C139.283 69.604 139.149 70.2395 138.88 70.7834C138.614 71.3273 138.241 71.7507 137.761 72.0532C137.285 72.3557 136.728 72.5069 136.093 72.5069ZM136.093 71.5351C136.576 71.5351 136.973 71.4114 137.285 71.1639C137.596 70.9164 137.827 70.5909 137.977 70.1876C138.126 69.7842 138.201 69.3473 138.201 68.8767C138.201 68.406 138.126 67.9677 137.977 67.5613C137.827 67.1548 137.596 66.8263 137.285 66.5758C136.973 66.3252 136.576 66.1999 136.093 66.1999C135.61 66.1999 135.213 66.3252 134.901 66.5758C134.589 66.8263 134.359 67.1548 134.209 67.5613C134.059 67.9677 133.984 68.406 133.984 68.8767C133.984 69.3473 134.059 69.7842 134.209 70.1876C134.359 70.5909 134.589 70.9164 134.901 71.1639C135.213 71.4114 135.61 71.5351 136.093 71.5351ZM140.934 72.3602V65.3199H141.979V66.4199H142.071C142.218 66.044 142.454 65.7523 142.781 65.5445C143.108 65.3336 143.501 65.2281 143.959 65.2281C144.424 65.2281 144.811 65.3336 145.119 65.5445C145.431 65.7523 145.674 66.044 145.848 66.4199H145.921C146.101 66.0563 146.372 65.7675 146.732 65.5535C147.093 65.3367 147.525 65.2281 148.03 65.2281C148.659 65.2281 149.174 65.4252 149.574 65.8194C149.975 66.2105 150.175 66.8202 150.175 67.6482V72.3602H149.093V67.6482C149.093 67.1289 148.951 66.7576 148.667 66.5345C148.383 66.3113 148.048 66.1999 147.663 66.1999C147.168 66.1999 146.784 66.3496 146.513 66.649C146.24 66.9454 146.104 67.3213 146.104 67.7766V72.3602H145.004V67.5383C145.004 67.1381 144.875 66.8155 144.615 66.5711C144.355 66.3236 144.021 66.1999 143.611 66.1999C143.33 66.1999 143.067 66.2747 142.823 66.4244C142.581 66.5742 142.386 66.782 142.236 67.0479C142.089 67.3107 142.016 67.6147 142.016 67.9599V72.3602H140.934ZM152.153 75.0004V65.3199H153.198V66.4381H153.326C153.405 66.316 153.515 66.1602 153.656 65.9707C153.8 65.7783 154.004 65.6071 154.27 65.4574C154.539 65.3046 154.903 65.2281 155.361 65.2281C155.954 65.2281 156.476 65.3764 156.929 65.6727C157.381 65.9691 157.734 66.3893 157.987 66.9333C158.241 67.4772 158.368 68.1188 158.368 68.8583C158.368 69.604 158.241 70.2502 157.987 70.7971C157.734 71.3412 157.382 71.7628 156.933 72.0622C156.484 72.3588 155.966 72.5069 155.379 72.5069C154.927 72.5069 154.565 72.432 154.293 72.2823C154.021 72.1295 153.812 71.9569 153.665 71.7644C153.518 71.5688 153.405 71.4068 153.326 71.2784H153.234V75.0004H152.153ZM153.216 68.8401C153.216 69.3717 153.294 69.8407 153.45 70.2471C153.606 70.6505 153.833 70.9669 154.133 71.196C154.432 71.4222 154.799 71.5351 155.233 71.5351C155.685 71.5351 156.062 71.416 156.365 71.1776C156.67 70.9362 156.9 70.6124 157.053 70.206C157.208 69.7965 157.286 69.3412 157.286 68.8401C157.286 68.3451 157.21 67.8988 157.057 67.5016C156.907 67.1013 156.68 66.785 156.374 66.5529C156.072 66.3175 155.691 66.1999 155.233 66.1999C154.793 66.1999 154.423 66.3113 154.124 66.5345C153.824 66.7545 153.598 67.0632 153.445 67.4604C153.292 67.8546 153.216 68.3144 153.216 68.8401ZM164.456 69.4817V65.3199H165.537V72.3602H164.456V71.1685H164.381C164.217 71.5261 163.96 71.83 163.612 72.0806C163.263 72.3281 162.823 72.4519 162.292 72.4519C161.852 72.4519 161.46 72.3557 161.118 72.1631C160.775 71.9675 160.508 71.6742 160.311 71.2831C160.116 70.8889 160.019 70.3923 160.019 69.7934V65.3199H161.1V69.72C161.1 70.2334 161.243 70.6429 161.531 70.9485C161.821 71.2541 162.19 71.4068 162.641 71.4068C162.908 71.4068 163.183 71.3381 163.46 71.2005C163.741 71.063 163.977 70.8521 164.167 70.568C164.359 70.2839 164.456 69.9217 164.456 69.4817ZM170.58 65.3199V66.2365H166.931V65.3199H170.58ZM167.994 63.6331H169.077V70.3434C169.077 70.649 169.12 70.8781 169.209 71.0309C169.301 71.1806 169.417 71.2815 169.557 71.3334C169.701 71.3823 169.853 71.4068 170.011 71.4068C170.13 71.4068 170.229 71.4007 170.304 71.3885C170.382 71.3733 170.441 71.361 170.488 71.3518L170.708 72.3236C170.635 72.351 170.532 72.3786 170.401 72.406C170.269 72.4365 170.103 72.4519 169.901 72.4519C169.596 72.4519 169.296 72.3862 169.002 72.2549C168.712 72.1234 168.471 71.9233 168.279 71.6543C168.089 71.3854 167.994 71.0462 167.994 70.6368V63.6331ZM175.083 72.5069C174.404 72.5069 173.82 72.3571 173.328 72.0577C172.839 71.7552 172.461 71.3334 172.195 70.7926C171.932 70.2487 171.802 69.6161 171.802 68.8951C171.802 68.1739 171.932 67.5383 172.195 66.9883C172.461 66.4353 172.831 66.0043 173.305 65.6957C173.781 65.3839 174.338 65.2281 174.974 65.2281C175.34 65.2281 175.701 65.2892 176.059 65.4115C176.418 65.5337 176.742 65.7323 177.036 66.0074C177.329 66.2794 177.563 66.6398 177.737 67.0892C177.912 67.5383 177.999 68.0914 177.999 68.7484V69.2068H172.571V68.2716H176.898C176.898 67.8744 176.819 67.52 176.66 67.2082C176.505 66.8965 176.28 66.6506 175.99 66.4703C175.703 66.29 175.364 66.1999 174.974 66.1999C174.543 66.1999 174.17 66.3068 173.855 66.5208C173.542 66.7316 173.304 67.0066 173.134 67.3457C172.966 67.685 172.883 68.0487 172.883 68.4367V69.06C172.883 69.5917 172.975 70.0424 173.158 70.4122C173.344 70.7789 173.602 71.0585 173.933 71.251C174.262 71.4404 174.646 71.5351 175.083 71.5351C175.367 71.5351 175.624 71.4954 175.853 71.416C176.085 71.3334 176.285 71.2113 176.453 71.0493C176.621 70.8843 176.752 70.6795 176.844 70.4351L177.889 70.7284C177.778 71.0829 177.594 71.3946 177.334 71.6635C177.074 71.9294 176.753 72.1371 176.371 72.2868C175.988 72.4336 175.559 72.5069 175.083 72.5069ZM179.644 72.3602V65.3199H180.688V66.3833H180.763C180.89 66.0348 181.122 65.7523 181.46 65.5353C181.795 65.3183 182.174 65.2099 182.595 65.2099C182.674 65.2099 182.774 65.2113 182.894 65.2144C183.013 65.2174 183.104 65.2221 183.163 65.2281V66.3283C183.128 66.3191 183.044 66.3054 182.912 66.287C182.784 66.2655 182.647 66.2549 182.503 66.2549C182.161 66.2549 181.856 66.3267 181.587 66.4703C181.321 66.6109 181.111 66.8065 180.955 67.0571C180.801 67.3046 180.725 67.5872 180.725 67.9049V72.3602H179.644ZM189.433 66.8965L188.462 67.1716C188.4 67.0096 188.31 66.8523 188.191 66.6995C188.075 66.5437 187.916 66.4152 187.715 66.3144C187.513 66.2136 187.255 66.1632 186.94 66.1632C186.51 66.1632 186.15 66.2624 185.863 66.4612C185.579 66.6568 185.437 66.9057 185.437 67.2082C185.437 67.4772 185.533 67.6895 185.73 67.8454C185.925 68.0012 186.23 68.1311 186.647 68.235L187.692 68.4917C188.321 68.6445 188.789 68.8783 189.099 69.1929C189.407 69.5046 189.562 69.9065 189.562 70.3985C189.562 70.8018 189.446 71.1624 189.214 71.4801C188.985 71.7979 188.663 72.0485 188.25 72.2319C187.837 72.4152 187.358 72.5069 186.811 72.5069C186.093 72.5069 185.5 72.351 185.028 72.0393C184.557 71.7278 184.26 71.2724 184.135 70.6734L185.161 70.4169C185.259 70.7957 185.445 71.0798 185.716 71.2694C185.992 71.4588 186.35 71.5535 186.793 71.5535C187.297 71.5535 187.697 71.4465 187.994 71.2326C188.294 71.0158 188.442 70.756 188.442 70.4535C188.442 70.209 188.357 70.0043 188.186 69.8392C188.015 69.6711 187.752 69.5459 187.399 69.4633L186.224 69.1884C185.58 69.0356 185.106 68.7987 184.804 68.478C184.504 68.154 184.354 67.7491 184.354 67.2633C184.354 66.866 184.465 66.5146 184.69 66.209C184.915 65.9035 185.222 65.6635 185.611 65.4895C186.001 65.3152 186.445 65.2281 186.94 65.2281C187.636 65.2281 188.183 65.3809 188.581 65.6865C188.981 65.992 189.265 66.3954 189.433 66.8965Z" fill="black"/>
</svg>
