<svg width="177" height="75" viewBox="0 0 177 75" fill="none" xmlns="http://www.w3.org/2000/svg">
<g clip-path="url(#clip0_76_408)">
<path d="M7.43853 24.8485C6.33094 24.4821 5.32403 24.1157 4.41782 23.7493C3.5116 23.3585 2.73124 22.8944 2.07675 22.3569C1.42226 21.8195 0.906221 21.1844 0.528627 20.4516C0.176209 19.6943 0 18.7783 0 17.7034C0 15.6271 0.818111 13.966 2.45434 12.7202C4.11574 11.4744 6.43163 10.8515 9.40202 10.8515C10.4845 10.8515 11.4914 10.9248 12.4228 11.0713C13.3541 11.2179 14.1471 11.45 14.8016 11.7676C15.4813 12.0606 16.0099 12.4515 16.3875 12.94C16.7651 13.4042 16.9538 13.9538 16.9538 14.5889C16.9538 15.2241 16.8028 15.7737 16.5007 16.2378C16.1986 16.6775 15.8337 17.0561 15.4057 17.3737C14.8519 17.0317 14.1093 16.7385 13.178 16.4943C12.2465 16.2256 11.2271 16.0912 10.1194 16.0912C8.98665 16.0912 8.15599 16.25 7.62736 16.5675C7.09872 16.8607 6.8344 17.2393 6.8344 17.7034C6.8344 18.0699 6.99805 18.3752 7.32526 18.6195C7.65254 18.8393 8.1434 19.047 8.7979 19.2424L10.7991 19.8653C13.1654 20.5981 14.9778 21.5386 16.2364 22.6867C17.5202 23.8103 18.1621 25.3493 18.1621 27.3035C18.1621 29.3798 17.3188 31.0654 15.6323 32.36C13.9457 33.6303 11.4662 34.2654 8.1937 34.2654C7.03576 34.2654 5.95336 34.1677 4.94644 33.9722C3.96471 33.8013 3.09624 33.5448 2.34106 33.2028C1.61106 32.8364 1.03208 32.3967 0.604146 31.8837C0.201382 31.3463 0 30.7356 0 30.0516C0 29.3433 0.213968 28.7447 0.641905 28.2562C1.06984 27.7432 1.53554 27.3524 2.03899 27.0837C2.74383 27.6211 3.5997 28.0852 4.60661 28.476C5.63869 28.8669 6.75888 29.0623 7.96716 29.0623C9.20067 29.0623 10.0691 28.8791 10.5726 28.5127C11.076 28.1463 11.3277 27.7188 11.3277 27.2302C11.3277 26.7417 11.1264 26.3753 10.7236 26.131C10.3208 25.8623 9.75442 25.6058 9.02443 25.3615L7.43853 24.8485Z" fill="black"/>
<path d="M39.3741 33.6426C39.1223 33.7158 38.7196 33.7891 38.1657 33.8624C37.6371 33.9357 37.0834 33.9723 36.5043 33.9723C35.9505 33.9723 35.4471 33.9357 34.994 33.8624C34.566 33.7891 34.201 33.6426 33.899 33.4227C33.5969 33.2028 33.3577 32.9097 33.1816 32.5433C33.0305 32.1524 32.955 31.6517 32.955 31.041V22.9066C32.955 21.905 32.6907 21.2089 32.1621 20.818C31.6586 20.4027 31.0292 20.1951 30.2741 20.1951C29.7706 20.1951 29.2924 20.2562 28.8392 20.3783C28.3861 20.5005 28.0211 20.647 27.7442 20.818V33.6426C27.4925 33.7158 27.0897 33.7891 26.5359 33.8624C26.0073 33.9357 25.4535 33.9723 24.8745 33.9723C24.3208 33.9723 23.8173 33.9357 23.3642 33.8624C22.9362 33.7891 22.5712 33.6426 22.2692 33.4227C21.9671 33.2028 21.728 32.9097 21.5517 32.5433C21.4007 32.1524 21.3252 31.6517 21.3252 31.041V9.78895C21.6021 9.74004 22.0049 9.679 22.5334 9.6057C23.0873 9.50801 23.6411 9.45917 24.1949 9.45917C24.7487 9.45917 25.2395 9.49582 25.6675 9.56905C26.1206 9.64235 26.4982 9.78895 26.8002 10.0088C27.1023 10.2286 27.3289 10.534 27.4799 10.9248C27.6562 11.2912 27.7442 11.7798 27.7442 12.3905V15.9814C28.0714 15.8592 28.5624 15.7248 29.2169 15.5783C29.8965 15.4073 30.6391 15.3218 31.4446 15.3218C33.9367 15.3218 35.875 15.9325 37.2595 17.1538C38.6692 18.3508 39.3741 20.1462 39.3741 22.5402V33.6426Z" fill="black"/>
<path d="M62.3307 24.7753C62.3307 26.2898 62.0915 27.6455 61.6133 28.8425C61.135 30.0151 60.4553 31.0043 59.5742 31.8105C58.7184 32.6166 57.6863 33.2273 56.478 33.6426C55.2697 34.0578 53.923 34.2654 52.4378 34.2654C50.9526 34.2654 49.6059 34.0456 48.3976 33.6059C47.1893 33.1662 46.1446 32.5433 45.2636 31.7372C44.4077 30.9067 43.7406 29.9051 43.2623 28.7326C42.7841 27.56 42.5449 26.241 42.5449 24.7753C42.5449 23.3341 42.7841 22.0272 43.2623 20.8546C43.7406 19.6821 44.4077 18.6928 45.2636 17.8867C46.1446 17.0561 47.1893 16.421 48.3976 15.9814C49.6059 15.5416 50.9526 15.3218 52.4378 15.3218C53.923 15.3218 55.2697 15.5538 56.478 16.0179C57.6863 16.4577 58.7184 17.0928 59.5742 17.9234C60.4553 18.7295 61.135 19.7188 61.6133 20.8913C62.0915 22.0638 62.3307 23.3585 62.3307 24.7753ZM49.115 24.7753C49.115 26.2654 49.4044 27.4135 49.9835 28.2196C50.5876 29.0012 51.4183 29.3921 52.4756 29.3921C53.5328 29.3921 54.3383 28.9891 54.8921 28.1829C55.4711 27.3768 55.7606 26.241 55.7606 24.7753C55.7606 23.3096 55.4711 22.186 54.8921 21.4043C54.3131 20.5982 53.4951 20.1951 52.4378 20.1951C51.3805 20.1951 50.5624 20.5982 49.9835 21.4043C49.4044 22.186 49.115 23.3096 49.115 24.7753Z" fill="black"/>
<path d="M73.883 15.3218C75.3935 15.3218 76.7905 15.5172 78.0747 15.9081C79.3832 16.2744 80.5034 16.8485 81.4347 17.6302C82.3668 18.4119 83.0967 19.4012 83.6254 20.5982C84.154 21.7707 84.4183 23.1753 84.4183 24.8119C84.4183 26.3753 84.1914 27.7433 83.7382 28.9158C83.2849 30.0883 82.6435 31.0777 81.8125 31.8838C80.9822 32.6654 79.9748 33.2517 78.7922 33.6426C77.634 34.0334 76.3373 34.2288 74.9029 34.2288C73.82 34.2288 72.8133 34.07 71.8819 33.7525V39.835C71.6301 39.9082 71.2274 39.9815 70.6738 40.0548C70.1196 40.1525 69.5536 40.2014 68.9745 40.2014C68.4208 40.2014 67.9173 40.1647 67.4642 40.0915C67.0362 40.0182 66.6712 39.8716 66.3691 39.6517C66.0671 39.4319 65.8405 39.1266 65.6895 38.7357C65.5384 38.3693 65.4629 37.8807 65.4629 37.2701V19.6821C65.4629 19.0226 65.6013 18.4852 65.8783 18.0699C66.1804 17.6546 66.5831 17.276 67.0866 16.934C67.8669 16.4455 68.8361 16.0546 69.9943 15.7615C71.1519 15.4683 72.4486 15.3218 73.883 15.3218ZM73.9584 29.3188C76.5518 29.3188 77.8478 27.8165 77.8478 24.8119C77.8478 23.2486 77.5205 22.0882 76.8659 21.331C76.2369 20.5737 75.3181 20.1951 74.11 20.1951C73.6318 20.1951 73.2035 20.2562 72.8257 20.3783C72.4486 20.476 72.1213 20.5982 71.8439 20.7448V28.8059C72.1463 28.9524 72.4735 29.0746 72.8257 29.1723C73.1786 29.27 73.5557 29.3188 73.9584 29.3188Z" fill="black"/>
<path d="M97.2534 34.2654C95.7685 34.2654 94.384 34.07 93.1005 33.6792C91.8418 33.2639 90.734 32.6532 89.7771 31.8471C88.8458 31.041 88.1033 30.0273 87.5498 28.8059C87.0212 27.5845 86.7568 26.1555 86.7568 24.5188C86.7568 22.9066 87.0212 21.5264 87.5498 20.3783C88.1033 19.2058 88.8209 18.2531 89.7017 17.5203C90.5832 16.763 91.59 16.2134 92.7227 15.8714C93.8554 15.505 95.0136 15.3218 96.1962 15.3218C97.5309 15.3218 98.739 15.5172 99.8212 15.9081C100.929 16.2989 101.873 16.8363 102.653 17.5203C103.459 18.2042 104.076 19.0226 104.503 19.9752C104.957 20.9279 105.183 21.9661 105.183 23.0898C105.183 23.9203 104.944 24.5554 104.465 24.9951C103.987 25.4349 103.32 25.7158 102.464 25.8379L93.1378 27.1937C93.4146 27.9998 93.9813 28.6104 94.8372 29.0257C95.6931 29.4165 96.675 29.612 97.7821 29.612C98.8144 29.612 99.7838 29.4898 100.69 29.2455C101.621 28.9769 102.376 28.6715 102.956 28.3296C103.358 28.5738 103.698 28.9158 103.975 29.3555C104.252 29.7952 104.39 30.2593 104.39 30.7479C104.39 31.8471 103.861 32.6654 102.804 33.2028C101.999 33.6181 101.092 33.899 100.086 34.0456C99.0787 34.1922 98.1349 34.2654 97.2534 34.2654ZM96.1962 19.8654C95.5921 19.8654 95.0635 19.963 94.6102 20.1585C94.1826 20.3539 93.8304 20.6103 93.553 20.9279C93.2762 21.2211 93.0624 21.5631 92.9116 21.9539C92.7856 22.3203 92.7102 22.6989 92.6846 23.0898L99.1417 22.0638C99.0663 21.5753 98.7895 21.0867 98.3107 20.5982C97.8326 20.1096 97.1282 19.8654 96.1962 19.8654Z" fill="black"/>
<path d="M114.692 33.6426C114.441 33.7158 114.038 33.7891 113.484 33.8624C112.955 33.9357 112.401 33.9723 111.822 33.9723C111.269 33.9723 110.765 33.9357 110.312 33.8624C109.884 33.7891 109.52 33.6426 109.217 33.4227C108.915 33.2028 108.676 32.9097 108.5 32.5433C108.349 32.1524 108.273 31.6517 108.273 31.041V20.0485C108.273 19.4867 108.374 19.0103 108.575 18.6195C108.802 18.2042 109.116 17.8379 109.52 17.5203C109.922 17.2027 110.413 16.9218 110.992 16.6775C111.596 16.4088 112.238 16.1767 112.918 15.9814C113.597 15.7859 114.302 15.6393 115.032 15.5416C115.762 15.4195 116.492 15.3584 117.222 15.3584C118.43 15.3584 119.387 15.5905 120.092 16.0546C120.797 16.4943 121.149 17.2271 121.149 18.2531C121.149 18.5951 121.099 18.9371 120.998 19.2791C120.897 19.5966 120.772 19.8897 120.62 20.1585C120.092 20.1585 119.551 20.1829 118.997 20.2317C118.443 20.2806 117.902 20.3539 117.373 20.4516C116.844 20.5493 116.341 20.6593 115.863 20.7813C115.41 20.8791 115.02 21.0012 114.692 21.1478V33.6426Z" fill="black"/>
<path d="M124.55 33.6792C124.147 33.3372 123.82 32.9342 123.568 32.47C123.342 32.0059 123.229 31.4807 123.229 30.8944C123.229 30.4059 123.342 29.9296 123.568 29.4654C123.82 28.9769 124.122 28.5249 124.475 28.1097L130.969 20.7081H124.021C123.871 20.4394 123.719 20.0974 123.568 19.6821C123.442 19.2668 123.379 18.815 123.379 18.3264C123.379 17.4714 123.568 16.8607 123.946 16.4944C124.349 16.1035 124.877 15.9081 125.532 15.9081H137.426C137.829 16.2501 138.143 16.6531 138.37 17.1172C138.622 17.5813 138.748 18.1066 138.748 18.6928C138.748 19.1813 138.622 19.6699 138.37 20.1585C138.143 20.6226 137.854 21.0623 137.502 21.4776L131.158 28.8792H138.559C138.71 29.1479 138.848 29.4898 138.974 29.9051C139.125 30.3204 139.2 30.7723 139.2 31.2609C139.2 32.1158 138.999 32.7387 138.596 33.1295C138.219 33.496 137.703 33.6792 137.048 33.6792H124.55Z" fill="black"/>
<path d="M134.909 2.36479C134.909 1.05875 136.003 0 137.352 0C138.7 0 139.794 1.05875 139.794 2.36479V7.09434C139.794 8.40041 138.7 9.45912 137.352 9.45912C136.003 9.45912 134.909 8.40041 134.909 7.09434V2.36479Z" fill="#E4B200"/>
<path d="M125.263 8.19275C124.308 7.26926 124.308 5.77196 125.263 4.84845C126.216 3.92495 127.762 3.92495 128.716 4.84845L132.169 8.19275C133.124 9.11624 133.124 10.6135 132.169 11.5371C131.216 12.4606 129.669 12.4606 128.716 11.5371L125.263 8.19275Z" fill="#E4B200"/>
<path d="M142.531 24.9143C141.577 23.9908 141.577 22.4935 142.531 21.57C143.485 20.6465 145.03 20.6465 145.985 21.57L149.438 24.9143C150.392 25.8378 150.392 27.3351 149.438 28.2586C148.485 29.1821 146.938 29.1821 145.985 28.2586L142.531 24.9143Z" fill="#E4B200"/>
<path d="M147.119 18.9183C145.77 18.9183 144.677 17.8595 144.677 16.5535C144.677 15.2474 145.77 14.1887 147.119 14.1887H152.003C153.351 14.1887 154.445 15.2474 154.445 16.5535C154.445 17.8595 153.351 18.9183 152.003 18.9183H147.119Z" fill="#E4B200"/>
<path d="M145.984 11.5371C145.031 12.4606 143.485 12.4606 142.531 11.5371C141.577 10.6136 141.577 9.1163 142.531 8.19274L145.984 4.84845C146.938 3.92495 148.484 3.92495 149.438 4.84845C150.392 5.77196 150.392 7.26925 149.438 8.19274L145.984 11.5371Z" fill="#E4B200"/>
</g>
<path d="M1.16232 60V51.2727H4.21345C4.82141 51.2727 5.32283 51.3778 5.71771 51.5881C6.1126 51.7955 6.40663 52.0753 6.59982 52.4276C6.793 52.777 6.88959 53.1648 6.88959 53.5909C6.88959 53.9659 6.82283 54.2756 6.6893 54.5199C6.55862 54.7642 6.38533 54.9574 6.16942 55.0994C5.95635 55.2415 5.72482 55.3466 5.47482 55.4148V55.5C5.74186 55.517 6.01033 55.6108 6.28021 55.7813C6.5501 55.9517 6.77595 56.196 6.95777 56.5142C7.13959 56.8324 7.2305 57.2216 7.2305 57.6818C7.2305 58.1193 7.13107 58.5128 6.9322 58.8622C6.73334 59.2116 6.41942 59.4886 5.99044 59.6932C5.56146 59.8977 5.00323 60 4.31573 60H1.16232ZM2.21914 59.0625H4.31573C5.00607 59.0625 5.49612 58.929 5.7859 58.6619C6.07851 58.392 6.22482 58.0653 6.22482 57.6818C6.22482 57.3864 6.14953 57.1136 5.99896 56.8636C5.8484 56.6108 5.63391 56.4091 5.3555 56.2585C5.07709 56.1051 4.74754 56.0284 4.36686 56.0284H2.21914V59.0625ZM2.21914 55.108H4.17936C4.49754 55.108 4.78448 55.0455 5.04016 54.9205C5.29868 54.7955 5.50322 54.6193 5.65379 54.392C5.8072 54.1648 5.88391 53.8977 5.88391 53.5909C5.88391 53.2074 5.75038 52.8821 5.48334 52.6151C5.21629 52.3452 4.793 52.2102 4.21345 52.2102H2.21914V55.108ZM11.575 60.1364C10.9443 60.1364 10.4002 59.9972 9.94285 59.7188C9.48831 59.4375 9.13746 59.0455 8.8903 58.5426C8.64598 58.0369 8.52382 57.4489 8.52382 56.7784C8.52382 56.108 8.64598 55.517 8.8903 55.0057C9.13746 54.4915 9.48121 54.0909 9.92155 53.804C10.3647 53.5142 10.8818 53.3693 11.4727 53.3693C11.8136 53.3693 12.1502 53.4261 12.4826 53.5398C12.815 53.6534 13.1176 53.8381 13.3903 54.0938C13.663 54.3466 13.8804 54.6818 14.0423 55.0994C14.2042 55.517 14.2852 56.0313 14.2852 56.642V57.0682H9.23973V56.1989H13.2625C13.2625 55.8295 13.1886 55.5 13.0409 55.2102C12.896 54.9205 12.6886 54.6918 12.4187 54.5241C12.1517 54.3565 11.8363 54.2727 11.4727 54.2727C11.0721 54.2727 10.7255 54.3722 10.4329 54.571C10.1431 54.767 9.92013 55.0227 9.76388 55.3381C9.60763 55.6534 9.5295 55.9915 9.5295 56.3523V56.9318C9.5295 57.4261 9.61473 57.8452 9.78518 58.1889C9.95848 58.5298 10.1985 58.7898 10.5054 58.9688C10.8122 59.1449 11.1687 59.233 11.575 59.233C11.8392 59.233 12.0778 59.196 12.2909 59.1222C12.5068 59.0455 12.6929 58.9318 12.8491 58.7813C13.0054 58.6278 13.1261 58.4375 13.2113 58.2102L14.1829 58.483C14.0806 58.8125 13.9088 59.1023 13.6673 59.3523C13.4258 59.5994 13.1275 59.7926 12.7724 59.9318C12.4173 60.0682 12.0181 60.1364 11.575 60.1364ZM20.4514 54.9205L19.548 55.1761C19.4911 55.0256 19.4073 54.8793 19.2965 54.7372C19.1886 54.5923 19.0409 54.473 18.8534 54.3793C18.6659 54.2855 18.4258 54.2386 18.1332 54.2386C17.7326 54.2386 17.3988 54.331 17.1318 54.5156C16.8676 54.6974 16.7355 54.929 16.7355 55.2102C16.7355 55.4602 16.8264 55.6577 17.0082 55.8026C17.19 55.9474 17.4741 56.0682 17.8605 56.1648L18.8321 56.4034C19.4173 56.5455 19.8534 56.7628 20.1403 57.0554C20.4272 57.3452 20.5707 57.7188 20.5707 58.1761C20.5707 58.5511 20.4627 58.8864 20.2468 59.1818C20.0338 59.4773 19.7355 59.7102 19.3519 59.8807C18.9684 60.0511 18.5224 60.1364 18.0139 60.1364C17.3463 60.1364 16.7937 59.9915 16.3562 59.7017C15.9187 59.4119 15.6417 58.9886 15.5252 58.4318L16.4798 58.1932C16.5707 58.5455 16.7426 58.8097 16.9954 58.9858C17.2511 59.1619 17.5849 59.25 17.9968 59.25C18.4656 59.25 18.8377 59.1506 19.1133 58.9517C19.3917 58.75 19.5309 58.5085 19.5309 58.2273C19.5309 58 19.4514 57.8097 19.2923 57.6563C19.1332 57.5 18.8889 57.3835 18.5593 57.3068L17.4684 57.0511C16.869 56.9091 16.4286 56.6889 16.1474 56.3906C15.869 56.0895 15.7298 55.7131 15.7298 55.2614C15.7298 54.892 15.8335 54.5653 16.0409 54.2813C16.2511 53.9972 16.5366 53.7741 16.8974 53.6122C17.261 53.4503 17.673 53.3693 18.1332 53.3693C18.7809 53.3693 19.2894 53.5114 19.6588 53.7955C20.0309 54.0795 20.2951 54.4545 20.4514 54.9205ZM24.9311 53.4545V54.3068H21.5391V53.4545H24.9311ZM22.5277 51.8864H23.5334V58.125C23.5334 58.4091 23.5746 58.6222 23.657 58.7642C23.7422 58.9034 23.8502 58.9972 23.9808 59.0455C24.1144 59.0909 24.255 59.1136 24.4027 59.1136C24.5135 59.1136 24.6044 59.108 24.6754 59.0966C24.7465 59.0824 24.8033 59.071 24.8459 59.0625L25.0504 59.9659C24.9823 59.9915 24.8871 60.017 24.7649 60.0426C24.6428 60.071 24.4879 60.0852 24.3004 60.0852C24.0164 60.0852 23.7379 60.0241 23.4652 59.902C23.1953 59.7798 22.9709 59.5938 22.7919 59.3438C22.6158 59.0938 22.5277 58.7784 22.5277 58.3977V51.8864ZM32.6485 60H29.9553V51.2727H32.7678C33.6144 51.2727 34.3388 51.4474 34.9411 51.7969C35.5433 52.1435 36.005 52.642 36.326 53.2926C36.647 53.9403 36.8075 54.7159 36.8075 55.6193C36.8075 56.5284 36.6456 57.3111 36.3218 57.9673C35.9979 58.6207 35.5263 59.1236 34.907 59.4759C34.2877 59.8253 33.5348 60 32.6485 60ZM31.0121 59.0625H32.5803C33.3019 59.0625 33.8999 58.9233 34.3743 58.6449C34.8487 58.3665 35.2024 57.9702 35.4354 57.456C35.6683 56.9418 35.7848 56.3295 35.7848 55.6193C35.7848 54.9148 35.6698 54.3082 35.4396 53.7997C35.2095 53.2884 34.8658 52.8963 34.4084 52.6236C33.951 52.348 33.3814 52.2102 32.6996 52.2102H31.0121V59.0625ZM41.1882 60.1364C40.5575 60.1364 40.0135 59.9972 39.5561 59.7188C39.1016 59.4375 38.7507 59.0455 38.5036 58.5426C38.2593 58.0369 38.1371 57.4489 38.1371 56.7784C38.1371 56.108 38.2593 55.517 38.5036 55.0057C38.7507 54.4915 39.0945 54.0909 39.5348 53.804C39.978 53.5142 40.495 53.3693 41.086 53.3693C41.4269 53.3693 41.7635 53.4261 42.0959 53.5398C42.4283 53.6534 42.7308 53.8381 43.0036 54.0938C43.2763 54.3466 43.4936 54.6818 43.6556 55.0994C43.8175 55.517 43.8985 56.0313 43.8985 56.642V57.0682H38.853V56.1989H42.8757C42.8757 55.8295 42.8019 55.5 42.6541 55.2102C42.5093 54.9205 42.3019 54.6918 42.032 54.5241C41.7649 54.3565 41.4496 54.2727 41.086 54.2727C40.6854 54.2727 40.3388 54.3722 40.0462 54.571C39.7564 54.767 39.5334 55.0227 39.3771 55.3381C39.2209 55.6534 39.1428 55.9915 39.1428 56.3523V56.9318C39.1428 57.4261 39.228 57.8452 39.3985 58.1889C39.5718 58.5298 39.8118 58.7898 40.1186 58.9688C40.4254 59.1449 40.782 59.233 41.1882 59.233C41.4524 59.233 41.6911 59.196 41.9041 59.1222C42.12 59.0455 42.3061 58.9318 42.4624 58.7813C42.6186 58.6278 42.7394 58.4375 42.8246 58.2102L43.7962 58.483C43.6939 58.8125 43.522 59.1023 43.2806 59.3523C43.0391 59.5994 42.7408 59.7926 42.3857 59.9318C42.0306 60.0682 41.6314 60.1364 41.1882 60.1364ZM47.3544 60.1534C46.9396 60.1534 46.5632 60.0753 46.2252 59.919C45.8871 59.7599 45.6186 59.5313 45.4198 59.233C45.2209 58.9318 45.1215 58.5682 45.1215 58.142C45.1215 57.767 45.1953 57.4631 45.3431 57.2301C45.4908 56.9943 45.6882 56.8097 45.9354 56.6761C46.1825 56.5426 46.4553 56.4432 46.7536 56.3778C47.0547 56.3097 47.3573 56.2557 47.6612 56.2159C48.059 56.1648 48.3814 56.1264 48.6286 56.1009C48.8786 56.0724 49.0604 56.0256 49.174 55.9602C49.2905 55.8949 49.3487 55.7813 49.3487 55.6193V55.5852C49.3487 55.1648 49.2337 54.8381 49.0036 54.6051C48.7763 54.3722 48.4311 54.2557 47.9681 54.2557C47.4879 54.2557 47.1115 54.3608 46.8388 54.571C46.5661 54.7813 46.3743 55.0057 46.2635 55.2443L45.309 54.9034C45.4794 54.5057 45.7067 54.196 45.9908 53.9744C46.2777 53.75 46.5902 53.5938 46.9283 53.5057C47.2692 53.4148 47.6044 53.3693 47.934 53.3693C48.1442 53.3693 48.3857 53.3949 48.6584 53.446C48.934 53.4943 49.1996 53.5952 49.4553 53.7486C49.7138 53.902 49.9283 54.1335 50.0987 54.4432C50.2692 54.7528 50.3544 55.1676 50.3544 55.6875V60H49.3487V59.1136H49.2976C49.2294 59.2557 49.1158 59.4077 48.9567 59.5696C48.7976 59.7315 48.586 59.8693 48.3217 59.983C48.0575 60.0966 47.7351 60.1534 47.3544 60.1534ZM47.5078 59.25C47.9056 59.25 48.2408 59.1719 48.5135 59.0156C48.7891 58.8594 48.9965 58.6577 49.1357 58.4105C49.2777 58.1634 49.3487 57.9034 49.3487 57.6307V56.7102C49.3061 56.7614 49.2124 56.8082 49.0675 56.8509C48.9254 56.8906 48.7607 56.9261 48.5732 56.9574C48.3885 56.9858 48.2081 57.0114 48.032 57.0341C47.8587 57.054 47.7181 57.071 47.6101 57.0852C47.3487 57.1193 47.1044 57.1747 46.8771 57.2514C46.6527 57.3253 46.4709 57.4375 46.3317 57.5881C46.1953 57.7358 46.1271 57.9375 46.1271 58.1932C46.1271 58.5426 46.2564 58.8068 46.5149 58.9858C46.7763 59.1619 47.1073 59.25 47.5078 59.25ZM53.1957 51.2727V60H52.19V51.2727H53.1957ZM65.9127 55.6364C65.9127 56.5568 65.7465 57.3523 65.4141 58.0227C65.0817 58.6932 64.6257 59.2102 64.0462 59.5739C63.4666 59.9375 62.8047 60.1193 62.0604 60.1193C61.3161 60.1193 60.6541 59.9375 60.0746 59.5739C59.495 59.2102 59.0391 58.6932 58.7067 58.0227C58.3743 57.3523 58.2081 56.5568 58.2081 55.6364C58.2081 54.7159 58.3743 53.9205 58.7067 53.25C59.0391 52.5795 59.495 52.0625 60.0746 51.6989C60.6541 51.3352 61.3161 51.1534 62.0604 51.1534C62.8047 51.1534 63.4666 51.3352 64.0462 51.6989C64.6257 52.0625 65.0817 52.5795 65.4141 53.25C65.7465 53.9205 65.9127 54.7159 65.9127 55.6364ZM64.8899 55.6364C64.8899 54.8807 64.7635 54.2429 64.5107 53.723C64.2607 53.2031 63.9212 52.8097 63.4922 52.5426C63.0661 52.2756 62.5888 52.142 62.0604 52.142C61.532 52.142 61.0533 52.2756 60.6243 52.5426C60.1982 52.8097 59.8587 53.2031 59.6058 53.723C59.3558 54.2429 59.2308 54.8807 59.2308 55.6364C59.2308 56.392 59.3558 57.0298 59.6058 57.5497C59.8587 58.0696 60.1982 58.4631 60.6243 58.7301C61.0533 58.9972 61.532 59.1307 62.0604 59.1307C62.5888 59.1307 63.0661 58.9972 63.4922 58.7301C63.9212 58.4631 64.2607 58.0696 64.5107 57.5497C64.7635 57.0298 64.8899 56.392 64.8899 55.6364ZM68.559 56.0625V60H67.5533V53.4545H68.5249V54.4773H68.6101C68.7635 54.1449 68.9965 53.8778 69.309 53.6761C69.6215 53.4716 70.0249 53.3693 70.5192 53.3693C70.9624 53.3693 71.3501 53.4602 71.6825 53.642C72.0149 53.821 72.2734 54.0938 72.4581 54.4602C72.6428 54.8239 72.7351 55.2841 72.7351 55.8409V60H71.7294V55.9091C71.7294 55.3949 71.5959 54.9943 71.3288 54.7074C71.0618 54.4176 70.6953 54.2727 70.2294 54.2727C69.9084 54.2727 69.6215 54.3423 69.3686 54.4815C69.1186 54.6207 68.9212 54.8239 68.7763 55.0909C68.6314 55.358 68.559 55.6818 68.559 56.0625ZM75.5785 51.2727V60H74.5728V51.2727H75.5785ZM77.4205 60V53.4545H78.4261V60H77.4205ZM77.9318 52.3636C77.7358 52.3636 77.5668 52.2969 77.4247 52.1634C77.2855 52.0298 77.2159 51.8693 77.2159 51.6818C77.2159 51.4943 77.2855 51.3338 77.4247 51.2003C77.5668 51.0668 77.7358 51 77.9318 51C78.1278 51 78.2955 51.0668 78.4347 51.2003C78.5767 51.3338 78.6477 51.4943 78.6477 51.6818C78.6477 51.8693 78.5767 52.0298 78.4347 52.1634C78.2955 52.2969 78.1278 52.3636 77.9318 52.3636ZM81.2738 56.0625V60H80.2681V53.4545H81.2397V54.4773H81.3249C81.4783 54.1449 81.7113 53.8778 82.0238 53.6761C82.3363 53.4716 82.7397 53.3693 83.234 53.3693C83.6772 53.3693 84.065 53.4602 84.3974 53.642C84.7298 53.821 84.9883 54.0938 85.1729 54.4602C85.3576 54.8239 85.4499 55.2841 85.4499 55.8409V60H84.4443V55.9091C84.4443 55.3949 84.3107 54.9943 84.0437 54.7074C83.7766 54.4176 83.4102 54.2727 82.9443 54.2727C82.6232 54.2727 82.3363 54.3423 82.0835 54.4815C81.8335 54.6207 81.636 54.8239 81.4911 55.0909C81.3462 55.358 81.2738 55.6818 81.2738 56.0625ZM90.032 60.1364C89.4013 60.1364 88.8572 59.9972 88.3999 59.7188C87.9453 59.4375 87.5945 59.0455 87.3473 58.5426C87.103 58.0369 86.9808 57.4489 86.9808 56.7784C86.9808 56.108 87.103 55.517 87.3473 55.0057C87.5945 54.4915 87.9382 54.0909 88.3786 53.804C88.8217 53.5142 89.3388 53.3693 89.9297 53.3693C90.2706 53.3693 90.6072 53.4261 90.9396 53.5398C91.272 53.6534 91.5746 53.8381 91.8473 54.0938C92.12 54.3466 92.3374 54.6818 92.4993 55.0994C92.6612 55.517 92.7422 56.0313 92.7422 56.642V57.0682H87.6967V56.1989H91.7195C91.7195 55.8295 91.6456 55.5 91.4979 55.2102C91.353 54.9205 91.1456 54.6918 90.8757 54.5241C90.6087 54.3565 90.2933 54.2727 89.9297 54.2727C89.5291 54.2727 89.1825 54.3722 88.8899 54.571C88.6001 54.767 88.3771 55.0227 88.2209 55.3381C88.0646 55.6534 87.9865 55.9915 87.9865 56.3523V56.9318C87.9865 57.4261 88.0717 57.8452 88.2422 58.1889C88.4155 58.5298 88.6555 58.7898 88.9624 58.9688C89.2692 59.1449 89.6257 59.233 90.032 59.233C90.2962 59.233 90.5348 59.196 90.7479 59.1222C90.9638 59.0455 91.1499 58.9318 91.3061 58.7813C91.4624 58.6278 91.5831 58.4375 91.6683 58.2102L92.6399 58.483C92.5376 58.8125 92.3658 59.1023 92.1243 59.3523C91.8828 59.5994 91.5845 59.7926 91.2294 59.9318C90.8743 60.0682 90.4751 60.1364 90.032 60.1364ZM100.306 60.1364C99.7152 60.1364 99.1967 59.9957 98.7507 59.7145C98.3075 59.4332 97.9609 59.0398 97.7109 58.5341C97.4638 58.0284 97.3402 57.4375 97.3402 56.7614C97.3402 56.0795 97.4638 55.4844 97.7109 54.9759C97.9609 54.4673 98.3075 54.0724 98.7507 53.7912C99.1967 53.5099 99.7152 53.3693 100.306 53.3693C100.897 53.3693 101.414 53.5099 101.857 53.7912C102.303 54.0724 102.65 54.4673 102.897 54.9759C103.147 55.4844 103.272 56.0795 103.272 56.7614C103.272 57.4375 103.147 58.0284 102.897 58.5341C102.65 59.0398 102.303 59.4332 101.857 59.7145C101.414 59.9957 100.897 60.1364 100.306 60.1364ZM100.306 59.233C100.755 59.233 101.124 59.1179 101.414 58.8878C101.704 58.6577 101.918 58.3551 102.058 57.9801C102.197 57.6051 102.266 57.1989 102.266 56.7614C102.266 56.3239 102.197 55.9162 102.058 55.5384C101.918 55.1605 101.704 54.8551 101.414 54.6222C101.124 54.3892 100.755 54.2727 100.306 54.2727C99.8572 54.2727 99.4879 54.3892 99.1982 54.6222C98.9084 54.8551 98.6939 55.1605 98.5547 55.5384C98.4155 55.9162 98.3459 56.3239 98.3459 56.7614C98.3459 57.1989 98.4155 57.6051 98.5547 57.9801C98.6939 58.3551 98.9084 58.6577 99.1982 58.8878C99.4879 59.1179 99.8572 59.233 100.306 59.233ZM105.813 56.0625V60H104.807V53.4545H105.779V54.4773H105.864C106.017 54.1449 106.25 53.8778 106.563 53.6761C106.875 53.4716 107.279 53.3693 107.773 53.3693C108.216 53.3693 108.604 53.4602 108.936 53.642C109.269 53.821 109.527 54.0938 109.712 54.4602C109.897 54.8239 109.989 55.2841 109.989 55.8409V60H108.983V55.9091C108.983 55.3949 108.85 54.9943 108.583 54.7074C108.316 54.4176 107.949 54.2727 107.483 54.2727C107.162 54.2727 106.875 54.3423 106.623 54.4815C106.373 54.6207 106.175 54.8239 106.03 55.0909C105.885 55.358 105.813 55.6818 105.813 56.0625ZM122.361 54H121.304C121.241 53.696 121.132 53.429 120.976 53.1989C120.822 52.9688 120.635 52.7756 120.413 52.6193C120.195 52.4602 119.952 52.3409 119.685 52.2614C119.418 52.1818 119.139 52.142 118.849 52.142C118.321 52.142 117.842 52.2756 117.413 52.5426C116.987 52.8097 116.648 53.2031 116.395 53.723C116.145 54.2429 116.02 54.8807 116.02 55.6364C116.02 56.392 116.145 57.0298 116.395 57.5497C116.648 58.0696 116.987 58.4631 117.413 58.7301C117.842 58.9972 118.321 59.1307 118.849 59.1307C119.139 59.1307 119.418 59.0909 119.685 59.0114C119.952 58.9318 120.195 58.8139 120.413 58.6577C120.635 58.4986 120.822 58.304 120.976 58.0739C121.132 57.8409 121.241 57.5739 121.304 57.2727H122.361C122.281 57.7188 122.136 58.1179 121.926 58.4702C121.716 58.8224 121.455 59.1222 121.142 59.3693C120.83 59.6136 120.479 59.7997 120.089 59.9276C119.703 60.0554 119.29 60.1193 118.849 60.1193C118.105 60.1193 117.443 59.9375 116.864 59.5739C116.284 59.2102 115.828 58.6932 115.496 58.0227C115.163 57.3523 114.997 56.5568 114.997 55.6364C114.997 54.7159 115.163 53.9205 115.496 53.25C115.828 52.5795 116.284 52.0625 116.864 51.6989C117.443 51.3352 118.105 51.1534 118.849 51.1534C119.29 51.1534 119.703 51.2173 120.089 51.3452C120.479 51.473 120.83 51.6605 121.142 51.9077C121.455 52.152 121.716 52.4503 121.926 52.8026C122.136 53.152 122.281 53.5511 122.361 54ZM126.591 60.1364C126 60.1364 125.482 59.9957 125.036 59.7145C124.593 59.4332 124.246 59.0398 123.996 58.5341C123.749 58.0284 123.625 57.4375 123.625 56.7614C123.625 56.0795 123.749 55.4844 123.996 54.9759C124.246 54.4673 124.593 54.0724 125.036 53.7912C125.482 53.5099 126 53.3693 126.591 53.3693C127.182 53.3693 127.699 53.5099 128.142 53.7912C128.588 54.0724 128.935 54.4673 129.182 54.9759C129.432 55.4844 129.557 56.0795 129.557 56.7614C129.557 57.4375 129.432 58.0284 129.182 58.5341C128.935 59.0398 128.588 59.4332 128.142 59.7145C127.699 59.9957 127.182 60.1364 126.591 60.1364ZM126.591 59.233C127.04 59.233 127.409 59.1179 127.699 58.8878C127.989 58.6577 128.203 58.3551 128.343 57.9801C128.482 57.6051 128.551 57.1989 128.551 56.7614C128.551 56.3239 128.482 55.9162 128.343 55.5384C128.203 55.1605 127.989 54.8551 127.699 54.6222C127.409 54.3892 127.04 54.2727 126.591 54.2727C126.142 54.2727 125.773 54.3892 125.483 54.6222C125.194 54.8551 124.979 55.1605 124.84 55.5384C124.701 55.9162 124.631 56.3239 124.631 56.7614C124.631 57.1989 124.701 57.6051 124.84 57.9801C124.979 58.3551 125.194 58.6577 125.483 58.8878C125.773 59.1179 126.142 59.233 126.591 59.233ZM131.092 60V53.4545H132.064V54.4773H132.149C132.285 54.1278 132.506 53.8565 132.81 53.6634C133.114 53.4673 133.479 53.3693 133.905 53.3693C134.337 53.3693 134.696 53.4673 134.983 53.6634C135.273 53.8565 135.499 54.1278 135.66 54.4773H135.729C135.896 54.1392 136.148 53.8707 136.483 53.6719C136.818 53.4702 137.22 53.3693 137.689 53.3693C138.274 53.3693 138.753 53.5526 139.125 53.919C139.497 54.2827 139.683 54.8494 139.683 55.6193V60H138.678V55.6193C138.678 55.1364 138.545 54.7912 138.281 54.5838C138.017 54.3764 137.706 54.2727 137.348 54.2727C136.888 54.2727 136.531 54.4119 136.278 54.6903C136.026 54.9659 135.899 55.3153 135.899 55.7386V60H134.876V55.517C134.876 55.1449 134.756 54.8452 134.514 54.6179C134.273 54.3878 133.962 54.2727 133.581 54.2727C133.32 54.2727 133.075 54.3423 132.848 54.4815C132.624 54.6207 132.442 54.8139 132.303 55.0611C132.166 55.3054 132.098 55.5881 132.098 55.9091V60H131.092ZM141.522 62.4545V53.4545H142.494V54.4943H142.613C142.687 54.3807 142.789 54.2358 142.92 54.0597C143.053 53.8807 143.244 53.7216 143.491 53.5824C143.741 53.4403 144.079 53.3693 144.505 53.3693C145.056 53.3693 145.542 53.5071 145.962 53.7827C146.383 54.0582 146.711 54.4489 146.947 54.9545C147.183 55.4602 147.3 56.0568 147.3 56.7443C147.3 57.4375 147.183 58.0384 146.947 58.5469C146.711 59.0526 146.384 59.4446 145.967 59.723C145.549 59.9986 145.067 60.1364 144.522 60.1364C144.102 60.1364 143.765 60.0668 143.512 59.9276C143.259 59.7855 143.065 59.625 142.928 59.446C142.792 59.2642 142.687 59.1136 142.613 58.9943H142.528V62.4545H141.522ZM142.511 56.7273C142.511 57.2216 142.583 57.6577 142.728 58.0355C142.873 58.4105 143.085 58.7045 143.363 58.9176C143.641 59.1278 143.982 59.233 144.386 59.233C144.806 59.233 145.157 59.1222 145.438 58.9006C145.722 58.6761 145.935 58.375 146.077 57.9972C146.222 57.6165 146.295 57.1932 146.295 56.7273C146.295 56.267 146.224 55.8523 146.082 55.483C145.942 55.1108 145.731 54.8168 145.447 54.6009C145.165 54.3821 144.812 54.2727 144.386 54.2727C143.977 54.2727 143.633 54.3764 143.354 54.5838C143.076 54.7884 142.866 55.0753 142.724 55.4446C142.582 55.8111 142.511 56.2386 142.511 56.7273ZM152.96 57.3239V53.4545H153.965V60H152.96V58.892H152.891C152.738 59.2244 152.499 59.5071 152.175 59.7401C151.852 59.9702 151.442 60.0852 150.948 60.0852C150.539 60.0852 150.175 59.9957 149.857 59.8168C149.539 59.6349 149.289 59.3622 149.107 58.9986C148.925 58.6321 148.835 58.1705 148.835 57.6136V53.4545H149.84V57.5455C149.84 58.0227 149.974 58.4034 150.241 58.6875C150.511 58.9716 150.854 59.1136 151.272 59.1136C151.522 59.1136 151.776 59.0497 152.035 58.9219C152.296 58.794 152.515 58.598 152.691 58.3338C152.87 58.0696 152.96 57.733 152.96 57.3239ZM158.654 53.4545V54.3068H155.262V53.4545H158.654ZM156.25 51.8864H157.256V58.125C157.256 58.4091 157.297 58.6222 157.38 58.7642C157.465 58.9034 157.573 58.9972 157.703 59.0455C157.837 59.0909 157.978 59.1136 158.125 59.1136C158.236 59.1136 158.327 59.108 158.398 59.0966C158.469 59.0824 158.526 59.071 158.569 59.0625L158.773 59.9659C158.705 59.9915 158.61 60.017 158.488 60.0426C158.365 60.071 158.211 60.0852 158.023 60.0852C157.739 60.0852 157.461 60.0241 157.188 59.902C156.918 59.7798 156.694 59.5938 156.515 59.3438C156.338 59.0938 156.25 58.7784 156.25 58.3977V51.8864ZM162.841 60.1364C162.21 60.1364 161.666 59.9972 161.208 59.7188C160.754 59.4375 160.403 59.0455 160.156 58.5426C159.912 58.0369 159.789 57.4489 159.789 56.7784C159.789 56.108 159.912 55.517 160.156 55.0057C160.403 54.4915 160.747 54.0909 161.187 53.804C161.63 53.5142 162.147 53.3693 162.738 53.3693C163.079 53.3693 163.416 53.4261 163.748 53.5398C164.081 53.6534 164.383 53.8381 164.656 54.0938C164.929 54.3466 165.146 54.6818 165.308 55.0994C165.47 55.517 165.551 56.0313 165.551 56.642V57.0682H160.505V56.1989H164.528C164.528 55.8295 164.454 55.5 164.306 55.2102C164.162 54.9205 163.954 54.6918 163.684 54.5241C163.417 54.3565 163.102 54.2727 162.738 54.2727C162.338 54.2727 161.991 54.3722 161.698 54.571C161.409 54.767 161.186 55.0227 161.029 55.3381C160.873 55.6534 160.795 55.9915 160.795 56.3523V56.9318C160.795 57.4261 160.88 57.8452 161.051 58.1889C161.224 58.5298 161.464 58.7898 161.771 58.9688C162.078 59.1449 162.434 59.233 162.841 59.233C163.105 59.233 163.343 59.196 163.556 59.1222C163.772 59.0455 163.958 58.9318 164.115 58.7813C164.271 58.6278 164.392 58.4375 164.477 58.2102L165.448 58.483C165.346 58.8125 165.174 59.1023 164.933 59.3523C164.691 59.5994 164.393 59.7926 164.038 59.9318C163.683 60.0682 163.284 60.1364 162.841 60.1364ZM167.081 60V53.4545H168.052V54.4432H168.12C168.24 54.1193 168.456 53.8565 168.768 53.6548C169.081 53.4531 169.433 53.3523 169.825 53.3523C169.899 53.3523 169.991 53.3537 170.102 53.3565C170.213 53.3594 170.296 53.3636 170.353 53.3693V54.392C170.319 54.3835 170.241 54.3707 170.119 54.3537C170 54.3338 169.873 54.3239 169.74 54.3239C169.421 54.3239 169.137 54.3906 168.887 54.5241C168.64 54.6548 168.444 54.8366 168.299 55.0696C168.157 55.2997 168.086 55.5625 168.086 55.858V60H167.081ZM176.182 54.9205L175.278 55.1761C175.222 55.0256 175.138 54.8793 175.027 54.7372C174.919 54.5923 174.771 54.473 174.584 54.3793C174.396 54.2855 174.156 54.2386 173.864 54.2386C173.463 54.2386 173.129 54.331 172.862 54.5156C172.598 54.6974 172.466 54.929 172.466 55.2102C172.466 55.4602 172.557 55.6577 172.739 55.8026C172.92 55.9474 173.205 56.0682 173.591 56.1648L174.562 56.4034C175.148 56.5455 175.584 56.7628 175.871 57.0554C176.158 57.3452 176.301 57.7188 176.301 58.1761C176.301 58.5511 176.193 58.8864 175.977 59.1818C175.764 59.4773 175.466 59.7102 175.082 59.8807C174.699 60.0511 174.253 60.1364 173.744 60.1364C173.077 60.1364 172.524 59.9915 172.087 59.7017C171.649 59.4119 171.372 58.9886 171.256 58.4318L172.21 58.1932C172.301 58.5455 172.473 58.8097 172.726 58.9858C172.982 59.1619 173.315 59.25 173.727 59.25C174.196 59.25 174.568 59.1506 174.844 58.9517C175.122 58.75 175.261 58.5085 175.261 58.2273C175.261 58 175.182 57.8097 175.023 57.6563C174.864 57.5 174.619 57.3835 174.29 57.3068L173.199 57.0511C172.599 56.9091 172.159 56.6889 171.878 56.3906C171.599 56.0895 171.46 55.7131 171.46 55.2614C171.46 54.892 171.564 54.5653 171.771 54.2813C171.982 53.9972 172.267 53.7741 172.628 53.6122C172.991 53.4503 173.403 53.3693 173.864 53.3693C174.511 53.3693 175.02 53.5114 175.389 53.7955C175.761 54.0795 176.026 54.4545 176.182 54.9205Z" fill="black"/>
<defs>
<clipPath id="clip0_76_408">
<rect width="154.993" height="40.2014" fill="white"/>
</clipPath>
</defs>
</svg>
