<svg width="506" height="540" viewBox="0 0 506 540" fill="none" xmlns="http://www.w3.org/2000/svg">
<path d="M81.7006 448.958C85.7028 446.93 89.3835 444.322 92.6237 441.219C92.6951 441.152 87.0021 437.949 86.62 437.787C82.194 435.926 72.5459 434.93 69.0412 439.009C68.478 439.703 68.0671 440.507 67.8352 441.37C67.6034 442.232 67.5558 443.134 67.6955 444.017C67.8352 444.899 68.1592 445.742 68.6463 446.491C69.1333 447.24 69.7726 447.878 70.5225 448.363C72.2306 449.269 74.1155 449.791 76.046 449.893C77.9765 449.996 79.9061 449.677 81.7006 448.958Z" fill="#9C9C9C"/>
<path d="M154.438 387.078C154.535 387.062 151.555 381.25 151.324 380.906C148.659 376.912 141.161 370.759 135.987 372.228C135.135 372.496 134.349 372.94 133.68 373.532C133.011 374.123 132.474 374.849 132.103 375.662C131.733 376.475 131.538 377.357 131.531 378.25C131.525 379.143 131.706 380.028 132.063 380.847C132.988 382.544 134.272 384.02 135.826 385.17C137.379 386.321 139.165 387.119 141.058 387.509C145.515 388.026 150.024 387.88 154.438 387.078Z" fill="#9C9C9C"/>
<path d="M102.302 467.228C105.608 464.257 108.447 460.806 110.724 456.99C114.963 459.672 119.377 462.067 123.935 464.161C126.583 465.396 129.289 466.557 132.016 467.689C130.693 467.358 129.509 467.072 129.339 467.05C124.578 466.423 115.01 468.011 112.707 472.87C112.347 473.688 112.163 474.572 112.167 475.465C112.171 476.358 112.364 477.241 112.731 478.055C113.099 478.869 113.634 479.597 114.301 480.191C114.969 480.784 115.754 481.231 116.605 481.501C118.492 481.923 120.448 481.929 122.337 481.518C124.226 481.108 126.003 480.29 127.544 479.123C130.774 476.257 133.545 472.913 135.761 469.206C136.812 469.629 137.856 470.063 138.909 470.481C143.959 472.491 149.008 474.474 153.899 476.572C155.624 477.31 157.294 478.101 158.97 478.887C157.795 478.594 156.803 478.359 156.648 478.337C151.887 477.71 142.32 479.297 140.017 484.157C139.656 484.975 139.472 485.859 139.477 486.752C139.481 487.645 139.673 488.528 140.041 489.342C140.408 490.156 140.943 490.884 141.611 491.478C142.278 492.071 143.063 492.518 143.915 492.788C145.801 493.21 147.757 493.216 149.646 492.805C151.535 492.394 153.312 491.576 154.852 490.409C158.01 487.637 160.718 484.392 162.879 480.79C164.57 481.646 166.265 482.499 167.865 483.405C168.943 484.047 170.027 484.591 171.073 485.297L174.196 487.308C176.135 488.659 178.143 490.041 180.003 491.409C181.302 492.349 182.524 493.269 183.756 494.192C182.05 493.436 178.674 492.029 178.378 491.944C173.767 490.604 164.07 490.722 161.057 495.177C160.577 495.931 160.261 496.777 160.13 497.661C159.999 498.544 160.055 499.446 160.296 500.306C160.536 501.166 160.955 501.967 161.525 502.655C162.094 503.342 162.803 503.903 163.603 504.299C165.404 505.002 167.337 505.304 169.266 505.184C171.195 505.064 173.076 504.525 174.775 503.605C178.477 501.19 181.79 498.227 184.602 494.818C186.636 496.353 188.6 497.864 190.43 499.321C195.761 503.54 200.195 507.327 203.57 510.3L206.259 507.909C202.741 504.936 198.045 501.087 192.383 496.802C190.324 495.236 188.091 493.603 185.784 491.948C186.996 489.523 188.064 487.029 188.983 484.479C193.254 484.408 197.495 483.75 201.587 482.524C202.437 484.926 203.241 487.27 203.964 489.494C206.043 495.833 207.63 501.345 208.799 505.651L211.732 503.045C210.513 498.99 208.945 494.047 206.981 488.471C206.128 486.028 205.167 483.436 204.154 480.782C208.039 478.672 211.58 475.984 214.659 472.812C215.887 471.319 216.775 469.576 217.261 467.705C217.747 465.834 217.819 463.88 217.473 461.978C217.237 461.116 216.822 460.314 216.256 459.623C215.689 458.932 214.984 458.369 214.185 457.969C213.386 457.569 212.512 457.341 211.619 457.302C210.727 457.262 209.836 457.41 209.005 457.737C204.057 459.844 202.088 469.341 202.524 474.122C202.55 474.407 203.171 477.434 203.594 479.339C203.175 478.257 202.782 477.202 202.335 476.094C201.47 473.896 200.542 471.728 199.552 469.394C199.034 468.282 198.511 467.16 197.982 466.027C197.483 464.89 196.811 463.756 196.224 462.606C194.808 459.97 193.246 457.368 191.612 454.781C195.649 453.321 199.437 451.249 202.843 448.636C204.283 447.347 205.425 445.759 206.188 443.983C206.952 442.207 207.32 440.286 207.266 438.354C207.163 437.466 206.875 436.61 206.419 435.842C205.964 435.073 205.352 434.409 204.623 433.893C203.894 433.376 203.064 433.019 202.188 432.844C201.312 432.67 200.409 432.681 199.538 432.879C194.328 434.212 190.943 443.3 190.649 448.094C190.631 448.393 190.807 451.856 190.94 453.755C189.947 452.208 188.963 450.659 187.907 449.126C184.859 444.7 181.636 440.318 178.441 435.929C177.461 434.586 176.502 433.236 175.536 431.887C179.714 430.381 183.641 428.254 187.185 425.577C188.625 424.288 189.767 422.7 190.531 420.924C191.295 419.148 191.662 417.227 191.608 415.295C191.505 414.407 191.217 413.551 190.761 412.783C190.306 412.014 189.694 411.35 188.965 410.834C188.236 410.317 187.407 409.96 186.531 409.786C185.654 409.611 184.751 409.623 183.88 409.82C178.67 411.153 175.285 420.242 174.992 425.034C174.97 425.395 175.23 430.378 175.357 431.642C173.231 428.672 171.139 425.692 169.197 422.671C166.552 418.605 164.174 414.372 162.078 409.998C166.279 408.48 170.23 406.344 173.8 403.66C175.24 402.37 176.382 400.782 177.146 399.006C177.91 397.23 178.277 395.309 178.223 393.377C178.12 392.489 177.832 391.633 177.376 390.865C176.921 390.096 176.309 389.432 175.58 388.916C174.851 388.399 174.022 388.042 173.146 387.868C172.269 387.693 171.366 387.705 170.495 387.902C165.285 389.235 161.9 398.324 161.607 403.116C161.587 403.431 161.782 407.226 161.917 409.03L161.619 409.105C159.629 404.647 158.042 400.02 156.875 395.279C156.2 392.678 155.698 390.154 155.268 387.686C159.513 386.666 163.576 385.002 167.317 382.754C168.89 381.63 170.2 380.177 171.154 378.496C172.108 376.815 172.685 374.946 172.843 373.019C172.838 372.126 172.646 371.243 172.278 370.429C171.91 369.615 171.374 368.888 170.706 368.294C170.038 367.701 169.253 367.254 168.401 366.985C167.549 366.715 166.65 366.627 165.763 366.728C160.438 367.48 156.076 376.142 155.257 380.874C155.213 381.131 155.05 383.798 154.959 385.741C154.782 384.624 154.578 383.476 154.428 382.403C153.86 378.376 153.585 374.654 153.37 371.355C153.263 369.479 153.203 367.78 153.163 366.189C156.442 363.341 159.265 360.007 161.535 356.304C162.413 354.582 162.906 352.689 162.978 350.757C163.05 348.826 162.7 346.901 161.953 345.119C161.537 344.328 160.959 343.633 160.258 343.081C159.556 342.528 158.745 342.129 157.879 341.91C157.013 341.691 156.111 341.657 155.23 341.81C154.35 341.963 153.512 342.3 152.771 342.798C148.392 345.92 148.512 355.618 149.966 360.194C150.092 360.59 152.768 366.55 152.841 366.483L152.926 366.406C152.933 367.938 152.958 369.579 153.022 371.372C153.166 374.681 153.359 378.42 153.843 382.475C154.316 386.849 155.044 391.193 156.024 395.482C157.097 400.292 158.597 404.997 160.505 409.541C160.528 409.594 160.559 409.647 160.582 409.7C159.556 408.504 156.577 405.257 156.318 405.034C152.693 401.884 143.837 397.93 139.235 400.713C138.484 401.196 137.843 401.832 137.354 402.579C136.864 403.327 136.538 404.169 136.395 405.051C136.253 405.933 136.298 406.835 136.527 407.698C136.756 408.562 137.165 409.367 137.726 410.062C139.067 411.455 140.695 412.539 142.497 413.239C144.299 413.938 146.232 414.236 148.162 414.113C152.557 413.458 156.829 412.146 160.834 410.22C162.89 414.795 165.249 419.228 167.896 423.489C169.424 425.98 171.04 428.443 172.691 430.89C171.771 429.884 170.941 428.993 170.811 428.88C167.185 425.731 158.33 421.777 153.728 424.56C152.977 425.043 152.336 425.679 151.846 426.426C151.357 427.174 151.031 428.016 150.888 428.898C150.746 429.78 150.791 430.682 151.02 431.545C151.249 432.409 151.658 433.214 152.219 433.909C153.559 435.302 155.187 436.386 156.99 437.086C158.792 437.785 160.725 438.084 162.655 437.96C166.93 437.352 171.086 436.091 174.979 434.222C175.622 435.156 176.254 436.092 176.901 437.024C180.004 441.486 183.121 445.925 186.044 450.373C187.075 451.94 188.034 453.521 188.997 455.099C188.178 454.206 187.482 453.463 187.364 453.36C183.738 450.211 174.883 446.257 170.281 449.04C169.53 449.523 168.888 450.159 168.399 450.907C167.91 451.654 167.583 452.496 167.441 453.379C167.299 454.261 167.344 455.163 167.573 456.026C167.802 456.89 168.211 457.695 168.772 458.39C170.113 459.783 171.741 460.867 173.544 461.566C175.346 462.266 177.279 462.564 179.208 462.44C183.369 461.869 187.417 460.656 191.206 458.844C192.144 460.49 193.087 462.138 193.922 463.775C194.467 464.906 195.07 465.957 195.554 467.123L197.05 470.523C197.922 472.72 198.835 474.981 199.631 477.145C200.196 478.647 200.707 480.086 201.226 481.536C200.218 479.964 198.18 476.929 197.981 476.695C195.131 473.576 191.528 471.241 187.518 469.911C187.216 469.549 186.881 469.217 186.517 468.918C185.845 468.329 185.056 467.889 184.202 467.626C183.349 467.362 182.449 467.281 181.562 467.388C180.676 467.495 179.821 467.788 179.055 468.247C178.288 468.706 177.627 469.321 177.114 470.053C174.15 474.539 177.746 483.546 180.748 487.295C180.925 487.516 183.115 489.699 184.519 491.055C183.572 490.384 182.661 489.721 181.676 489.043C179.742 487.687 177.772 486.391 175.657 484.988L172.49 483.046C171.447 482.374 170.26 481.798 169.136 481.163C166.501 479.746 163.762 478.437 160.975 477.18C163.536 473.736 165.552 469.918 166.951 465.86C167.441 463.99 167.517 462.035 167.175 460.133C166.832 458.23 166.079 456.425 164.967 454.844C164.392 454.16 163.68 453.605 162.876 453.216C162.072 452.826 161.195 452.609 160.302 452.581C159.409 452.552 158.52 452.712 157.693 453.049C156.866 453.387 156.12 453.895 155.502 454.541C151.892 458.526 154.081 467.974 156.482 472.134C156.631 472.393 158.689 475.184 159.849 476.696C158.166 475.953 156.491 475.204 154.764 474.508C149.781 472.499 144.675 470.62 139.589 468.723C138.031 468.143 136.485 467.545 134.936 466.955C137.589 463.394 139.691 459.453 141.171 455.265C141.661 453.395 141.737 451.441 141.395 449.538C141.052 447.636 140.299 445.831 139.188 444.249C138.613 443.565 137.9 443.011 137.096 442.621C136.292 442.231 135.415 442.015 134.522 441.986C133.63 441.957 132.741 442.117 131.913 442.455C131.086 442.792 130.34 443.3 129.722 443.945C126.112 447.932 128.3 457.38 130.701 461.539C130.882 461.852 133.848 465.864 134.652 466.847C131.242 465.543 127.852 464.212 124.566 462.764C120.117 460.832 115.798 458.612 111.637 456.12C114.303 452.537 116.419 448.576 117.917 444.368C118.407 442.498 118.483 440.543 118.141 438.641C117.798 436.738 117.045 434.933 115.933 433.351C115.358 432.668 114.646 432.113 113.842 431.723C113.038 431.333 112.161 431.117 111.268 431.088C110.375 431.06 109.486 431.219 108.659 431.557C107.832 431.895 107.086 432.403 106.468 433.048C102.857 437.034 105.047 446.481 107.448 450.641C107.605 450.914 109.863 453.975 110.97 455.404L110.764 455.631C106.644 453.01 102.767 450.026 99.1781 446.714C97.1795 444.918 95.3693 443.089 93.6488 441.269C96.6263 438.077 99.0979 434.448 100.978 430.509C101.67 428.704 101.96 426.77 101.828 424.841C101.697 422.913 101.147 421.036 100.216 419.342C99.7193 418.599 99.0718 417.97 98.3157 417.494C97.5595 417.018 96.7117 416.707 95.8274 416.581C94.943 416.454 94.0419 416.515 93.1828 416.76C92.3236 417.005 91.5257 417.428 90.8409 418.002C86.8152 421.567 87.955 431.199 89.8826 435.596C89.9873 435.835 91.3225 438.148 92.3189 439.819C91.5551 438.986 90.7515 438.141 90.0352 437.328C87.339 434.282 85.0577 431.33 83.0583 428.698C81.9331 427.191 80.9468 425.807 80.036 424.503C81.1988 420.318 81.7145 415.98 81.5652 411.639C81.3476 409.718 80.7141 407.868 79.7086 406.217C78.7031 404.566 77.3499 403.154 75.7431 402.079C74.9601 401.649 74.0953 401.389 73.2049 401.315C72.3146 401.241 71.4187 401.355 70.5755 401.651C69.7323 401.946 68.9608 402.415 68.311 403.028C67.6612 403.642 67.1477 404.385 66.804 405.209C64.8744 410.229 70.3242 418.251 74.062 421.266C74.3868 421.527 79.9048 425.021 79.9296 424.925L79.9572 424.815C80.8099 426.088 81.7349 427.443 82.7769 428.903C84.7223 431.583 86.9459 434.596 89.5865 437.711C92.3945 441.099 95.3978 444.319 98.5812 447.357C102.13 450.776 105.975 453.873 110.073 456.61C110.122 456.642 110.176 456.669 110.225 456.7C108.71 456.269 104.433 455.205 104.094 455.16C99.3329 454.534 89.7652 456.121 87.4616 460.98C87.1015 461.797 86.9175 462.682 86.9217 463.575C86.9258 464.468 87.118 465.351 87.4857 466.165C87.8534 466.979 88.3884 467.707 89.0559 468.301C89.7233 468.894 90.5084 469.341 91.3598 469.611C93.2474 470.033 95.2043 470.039 97.0941 469.627C98.9839 469.215 100.761 468.397 102.302 467.228Z" fill="#9C9C9C"/>
<path d="M347.918 134.186C351.637 138.667 355.998 142.573 360.858 145.78C360.964 145.851 363.376 137.723 363.471 137.193C364.552 131.055 363.032 118.559 356.86 115.299C355.82 114.786 354.684 114.498 353.526 114.453C352.367 114.409 351.212 114.608 350.136 115.04C349.06 115.471 348.086 116.123 347.279 116.956C346.471 117.788 345.848 118.78 345.45 119.869C344.796 122.292 344.678 124.827 345.104 127.3C345.531 129.773 346.491 132.123 347.918 134.186Z" fill="#9C9C9C"/>
<path d="M447.181 208.405C447.229 208.523 453.726 203.075 454.097 202.685C458.384 198.161 464.01 186.901 460.661 180.776C460.076 179.775 459.287 178.908 458.346 178.232C457.404 177.555 456.331 177.085 455.195 176.85C454.06 176.616 452.888 176.624 451.755 176.872C450.623 177.121 449.555 177.605 448.623 178.294C446.741 179.954 445.244 182.004 444.235 184.301C443.227 186.599 442.731 189.088 442.783 191.597C443.413 197.385 444.895 203.049 447.181 208.405Z" fill="#9C9C9C"/>
<path d="M330.732 165.519C335.444 168.846 340.629 171.444 346.115 173.227C343.942 179.364 342.182 185.639 340.846 192.011C340.045 195.718 339.354 199.478 338.71 203.255C338.748 201.487 338.768 199.906 338.748 199.682C338.169 193.476 333.402 181.826 326.59 180.313C325.451 180.093 324.279 180.115 323.15 180.377C322.021 180.64 320.959 181.138 320.035 181.838C319.111 182.538 318.344 183.425 317.785 184.44C317.226 185.456 316.888 186.579 316.791 187.734C316.8 190.243 317.356 192.72 318.421 194.992C319.485 197.264 321.031 199.277 322.953 200.89C327.51 204.153 332.54 206.696 337.869 208.432C337.637 209.884 337.389 211.331 337.162 212.784C336.075 219.753 335.019 226.714 333.774 233.508C333.337 235.904 332.818 238.245 332.308 240.591C332.339 239.021 332.353 237.697 332.334 237.495C331.756 231.29 326.991 219.639 320.177 218.126C319.038 217.906 317.866 217.928 316.737 218.191C315.608 218.454 314.546 218.951 313.622 219.651C312.698 220.351 311.931 221.238 311.372 222.254C310.813 223.27 310.474 224.392 310.378 225.547C310.387 228.056 310.943 230.533 312.008 232.805C313.072 235.077 314.618 237.09 316.54 238.704C320.957 241.899 325.843 244.39 331.023 246.087C330.427 248.472 329.836 250.864 329.151 253.149C328.648 254.699 328.272 256.227 327.681 257.755L326.035 262.288C324.883 265.131 323.713 268.071 322.52 270.816C321.706 272.731 320.893 274.541 320.08 276.366C320.543 273.988 321.352 269.312 321.375 268.913C321.744 262.692 318.798 250.454 312.292 247.925C311.2 247.535 310.039 247.379 308.883 247.468C307.727 247.556 306.602 247.887 305.582 248.439C304.563 248.991 303.671 249.751 302.964 250.671C302.258 251.59 301.753 252.648 301.482 253.776C301.112 256.257 301.286 258.79 301.994 261.197C302.702 263.604 303.925 265.828 305.58 267.714C309.703 271.701 314.406 275.04 319.53 277.616C318.174 280.632 316.828 283.554 315.51 286.289C311.706 294.251 308.191 300.953 305.402 306.081L309.202 308.795C311.951 303.486 315.467 296.435 319.259 288.035C320.648 284.977 322.071 281.682 323.501 278.285C326.919 279.12 330.383 279.753 333.875 280.181C335.195 285.566 337.25 290.743 339.98 295.568C337.186 297.336 334.451 299.029 331.845 300.586C324.421 305.042 317.903 308.638 312.791 311.359L316.932 314.319C321.713 311.609 327.516 308.2 334.006 304.109C336.852 302.326 339.857 300.363 342.923 298.317C346.713 302.624 351.134 306.332 356.036 309.314C358.279 310.438 360.74 311.059 363.248 311.135C365.756 311.211 368.25 310.74 370.557 309.754C371.579 309.207 372.475 308.451 373.186 307.535C373.897 306.619 374.407 305.564 374.683 304.437C374.959 303.311 374.995 302.14 374.789 300.999C374.582 299.858 374.137 298.773 373.484 297.815C369.393 292.161 356.807 292.406 350.881 294.335C350.531 294.449 346.877 296.107 344.587 297.192C345.835 296.351 347.057 295.547 348.331 294.664C350.863 292.936 353.339 291.137 356.01 289.211C357.268 288.236 358.538 287.251 359.82 286.254C361.112 285.295 362.356 284.117 363.642 283.044C366.569 280.492 369.412 277.765 372.216 274.953C375.226 279.641 378.94 283.837 383.228 287.395C385.275 288.845 387.613 289.833 390.081 290.288C392.548 290.743 395.085 290.654 397.514 290.029C398.608 289.643 399.608 289.031 400.45 288.234C401.291 287.436 401.955 286.47 402.399 285.399C402.842 284.327 403.055 283.175 403.024 282.016C402.993 280.856 402.718 279.717 402.217 278.671C399.028 272.463 386.552 270.798 380.401 271.809C380.017 271.872 375.686 273.092 373.32 273.809C374.991 272.106 376.669 270.414 378.304 268.636C383.025 263.504 387.643 258.163 392.277 252.855C393.695 251.227 395.127 249.624 396.555 248.013C399.665 252.866 403.489 257.223 407.897 260.937C409.944 262.388 412.282 263.376 414.75 263.831C417.217 264.286 419.754 264.197 422.184 263.572C423.278 263.186 424.278 262.574 425.119 261.777C425.96 260.979 426.624 260.013 427.068 258.942C427.511 257.87 427.724 256.718 427.693 255.559C427.661 254.4 427.386 253.26 426.885 252.215C423.698 246.006 411.22 244.34 405.071 245.352C404.607 245.429 398.377 247.194 396.815 247.72C399.96 244.174 403.129 240.668 406.391 237.339C410.775 232.821 415.448 228.592 420.379 224.679C423.511 229.558 427.352 233.942 431.777 237.687C433.824 239.138 436.163 240.126 438.63 240.581C441.098 241.035 443.635 240.947 446.065 240.322C447.158 239.936 448.158 239.324 449 238.527C449.841 237.729 450.505 236.763 450.949 235.692C451.392 234.62 451.605 233.468 451.574 232.309C451.543 231.15 451.268 230.01 450.767 228.964C447.578 222.755 435.102 221.09 428.952 222.102C428.546 222.168 423.802 223.508 421.558 224.198L421.376 223.843C426.445 220.04 431.843 216.698 437.506 213.856C440.604 212.252 443.653 210.892 446.651 209.633C449.165 214.711 452.441 219.373 456.364 223.46C458.239 225.127 460.455 226.365 462.858 227.089C465.26 227.812 467.792 228.003 470.275 227.648C471.405 227.385 472.466 226.887 473.39 226.186C474.314 225.486 475.08 224.599 475.639 223.583C476.197 222.567 476.535 221.444 476.631 220.289C476.728 219.133 476.579 217.97 476.196 216.876C473.71 210.355 461.491 207.33 455.268 207.658C454.929 207.677 451.509 208.238 449.023 208.683C450.385 208.137 451.779 207.546 453.094 207.05C458.025 205.169 462.657 203.75 466.769 202.527C469.113 201.851 471.246 201.285 473.247 200.777C477.797 204.106 482.829 206.718 488.169 208.524C490.602 209.139 493.139 209.217 495.605 208.751C498.07 208.286 500.404 207.289 502.445 205.829C503.326 205.075 504.038 204.144 504.536 203.097C505.033 202.05 505.304 200.909 505.332 199.75C505.359 198.591 505.142 197.439 504.695 196.369C504.248 195.299 503.58 194.336 502.736 193.541C497.523 188.899 485.286 191.845 479.913 195.003C479.449 195.277 472.678 200.38 472.783 200.454L472.905 200.538C470.969 200.988 468.899 201.493 466.649 202.09C462.502 203.227 457.826 204.547 452.834 206.328C447.434 208.188 442.148 210.361 437.001 212.836C431.224 215.581 425.702 218.835 420.502 222.558C420.441 222.603 420.383 222.657 420.323 222.702C421.541 221.059 424.789 216.353 424.999 215.961C427.94 210.466 430.393 198.12 425.546 193.098C424.718 192.286 423.728 191.658 422.641 191.254C421.554 190.85 420.395 190.68 419.237 190.754C418.08 190.828 416.952 191.145 415.925 191.683C414.898 192.222 413.997 192.971 413.279 193.881C411.902 195.98 410.999 198.352 410.633 200.835C410.267 203.318 410.447 205.85 411.16 208.256C413.254 213.63 416.146 218.658 419.737 223.172C414.54 227.092 409.61 231.354 404.98 235.931C402.267 238.582 399.617 241.337 396.996 244.134C398.003 242.679 398.892 241.372 398.997 241.175C401.938 235.68 404.39 223.334 399.543 218.314C398.715 217.502 397.725 216.874 396.638 216.47C395.551 216.066 394.392 215.896 393.235 215.97C392.078 216.044 390.949 216.36 389.922 216.899C388.896 217.438 387.994 218.187 387.276 219.098C385.899 221.196 384.997 223.568 384.631 226.051C384.265 228.534 384.444 231.066 385.157 233.472C387.158 238.707 389.951 243.604 393.438 247.991C392.444 249.074 391.438 250.143 390.449 251.231C385.696 256.443 380.976 261.667 376.189 266.647C374.503 268.404 372.778 270.071 371.058 271.746C371.952 270.453 372.693 269.357 372.789 269.179C375.73 263.683 378.182 251.337 373.334 246.317C372.506 245.506 371.516 244.877 370.429 244.473C369.342 244.07 368.183 243.899 367.025 243.973C365.868 244.047 364.74 244.364 363.713 244.903C362.686 245.442 361.785 246.191 361.067 247.102C359.691 249.199 358.788 251.572 358.423 254.054C358.057 256.536 358.236 259.068 358.949 261.474C360.87 266.576 363.571 271.348 366.956 275.622C365.142 277.282 363.33 278.951 361.498 280.479C360.224 281.495 359.068 282.561 357.731 283.51L353.859 286.382C351.331 288.118 348.733 289.924 346.225 291.556C344.489 292.704 342.814 293.765 341.128 294.839C342.827 293.111 346.082 289.657 346.32 289.338C349.445 284.833 351.363 279.601 351.889 274.143C352.26 273.657 352.585 273.137 352.858 272.59C353.409 271.569 353.739 270.444 353.827 269.288C353.915 268.132 353.758 266.97 353.367 265.879C352.976 264.787 352.359 263.79 351.557 262.952C350.755 262.115 349.786 261.455 348.712 261.017C342.181 258.558 331.82 265.704 327.94 270.583C327.712 270.871 325.579 274.271 324.268 276.439C324.844 275.047 325.42 273.703 325.996 272.264C327.154 269.426 328.227 266.559 329.393 263.478C329.903 261.972 330.418 260.45 330.938 258.912C331.488 257.399 331.875 255.73 332.355 254.126C333.389 250.382 334.256 246.539 335.043 242.648C340.14 244.897 345.553 246.348 351.091 246.95C353.599 247.03 356.094 246.563 358.403 245.582C360.712 244.6 362.779 243.127 364.461 241.265C365.16 240.34 365.657 239.278 365.918 238.149C366.18 237.019 366.201 235.847 365.98 234.709C365.759 233.571 365.301 232.492 364.635 231.542C363.97 230.593 363.111 229.794 362.117 229.198C356.033 225.778 344.708 231.272 340.135 235.508C339.851 235.772 336.91 239.179 335.332 241.083C335.787 238.739 336.252 236.403 336.636 234.017C337.743 227.132 338.649 220.13 339.584 213.145C339.868 211.006 340.179 208.879 340.481 206.747C345.752 209.079 351.345 210.604 357.071 211.27C359.579 211.351 362.074 210.884 364.383 209.902C366.692 208.92 368.759 207.447 370.441 205.585C371.14 204.66 371.637 203.598 371.898 202.469C372.16 201.339 372.181 200.167 371.96 199.029C371.739 197.891 371.281 196.812 370.615 195.862C369.95 194.913 369.092 194.114 368.097 193.518C362.012 190.099 350.687 195.593 346.114 199.827C345.77 200.147 341.548 205.056 340.535 206.357C341.203 201.664 341.91 196.992 342.796 192.416C343.96 186.229 345.524 180.124 347.479 174.14C352.782 176.481 358.405 178.018 364.161 178.701C366.669 178.782 369.164 178.316 371.473 177.334C373.782 176.352 375.85 174.879 377.531 173.016C378.23 172.092 378.727 171.03 378.989 169.9C379.251 168.771 379.272 167.599 379.051 166.461C378.829 165.322 378.371 164.244 377.706 163.294C377.04 162.345 376.182 161.546 375.188 160.95C369.103 157.53 357.779 163.024 353.206 167.259C352.905 167.537 349.682 171.276 348.193 173.089L347.846 172.894C349.976 166.925 352.635 161.158 355.792 155.662C357.49 152.617 359.284 149.798 361.09 147.097C365.988 149.944 371.293 152.026 376.82 153.269C379.304 153.624 381.835 153.434 384.238 152.712C386.641 151.99 388.857 150.753 390.733 149.086C391.53 148.244 392.14 147.243 392.524 146.149C392.909 145.055 393.058 143.892 392.964 142.737C392.869 141.581 392.532 140.458 391.974 139.442C391.417 138.425 390.652 137.537 389.729 136.835C384.057 132.768 372.197 136.986 367.187 140.693C366.915 140.896 364.372 143.251 362.544 144.992C363.378 143.786 364.216 142.525 365.038 141.385C368.114 137.095 371.194 133.357 373.949 130.068C375.533 128.21 376.999 126.562 378.387 125.033C384.018 125.3 389.657 124.702 395.107 123.262C397.475 122.434 399.634 121.099 401.434 119.351C403.233 117.602 404.63 115.483 405.528 113.14C405.846 112.025 405.927 110.856 405.763 109.708C405.6 108.56 405.197 107.459 404.581 106.477C403.964 105.495 403.147 104.654 402.184 104.008C401.221 103.362 400.133 102.927 398.99 102.73C392.081 101.734 383.5 110.942 380.761 116.541C380.524 117.025 377.693 125.017 377.821 125.021L377.969 125.024C376.603 126.467 375.155 128.028 373.608 129.77C370.775 133.005 367.604 136.686 364.423 140.925C360.945 145.455 357.735 150.184 354.808 155.088C351.503 160.564 348.692 166.324 346.41 172.298C346.383 172.37 346.365 172.446 346.339 172.517C346.449 170.476 346.563 164.756 346.522 164.314C345.943 158.109 341.178 146.459 334.365 144.945C333.227 144.725 332.054 144.747 330.925 145.01C329.796 145.273 328.734 145.77 327.81 146.47C326.885 147.17 326.119 148.057 325.56 149.073C325.001 150.089 324.662 151.211 324.565 152.367C324.576 154.875 325.133 157.351 326.198 159.623C327.263 161.894 328.81 163.906 330.732 165.519Z" fill="#9C9C9C"/>
<path d="M410.129 396.621V392.222C410.129 369.578 438.801 368.6 438.801 352.472C438.801 345.467 433.099 340.906 424.629 340.906C415.343 340.906 409.479 345.956 409.479 353.124V354.916C409.479 356.708 408.501 357.523 406.709 357.523L389.278 356.87C387.649 356.87 386.508 356.056 386.508 354.916V353.125C386.508 333.413 402.148 319.892 425.117 319.892C447.599 319.892 462.098 332.599 462.098 351.659C462.098 378.702 432.937 378.865 432.937 393.689V396.622C432.981 396.996 432.94 397.376 432.817 397.732C432.693 398.088 432.491 398.412 432.224 398.678C431.958 398.945 431.634 399.148 431.278 399.271C430.922 399.394 430.542 399.435 430.168 399.391H412.899C412.524 399.435 412.145 399.395 411.788 399.271C411.432 399.148 411.108 398.945 410.842 398.678C410.575 398.411 410.372 398.088 410.249 397.731C410.125 397.375 410.085 396.995 410.129 396.621ZM408.663 422.849C408.477 420.051 409.138 417.262 410.559 414.846C411.981 412.429 414.097 410.496 416.633 409.299C419.168 408.102 422.005 407.697 424.775 408.135C427.544 408.574 430.117 409.836 432.159 411.758C434.201 413.679 435.616 416.171 436.222 418.909C436.827 421.647 436.594 424.503 435.553 427.107C434.511 429.71 432.71 431.939 430.384 433.505C428.058 435.07 425.314 435.898 422.51 435.882C418.948 435.983 415.49 434.668 412.895 432.225C410.3 429.783 408.778 426.411 408.663 422.849Z" fill="white"/>
<path d="M65.8983 210.057V206.237C65.8983 186.57 90.8013 185.72 90.8013 171.712C90.8013 165.628 85.8474 161.666 78.4915 161.666C70.4255 161.666 65.3327 166.052 65.3327 172.279V173.835C65.3327 175.392 64.4832 176.099 62.9268 176.099L47.7868 175.532C46.3721 175.532 45.3809 174.825 45.3809 173.835V172.279C45.3809 155.158 58.9653 143.413 78.9155 143.413C98.4418 143.413 111.035 154.45 111.035 171.004C111.035 194.493 85.7069 194.634 85.7069 207.509V210.057C85.7457 210.382 85.7101 210.712 85.603 211.021C85.4959 211.33 85.32 211.612 85.0884 211.843C84.8569 212.075 84.5759 212.251 84.2664 212.358C83.957 212.465 83.6273 212.501 83.3022 212.462H68.303C67.978 212.5 67.6484 212.465 67.3392 212.357C67.0299 212.25 66.7489 212.074 66.5175 211.843C66.286 211.612 66.11 211.331 66.0028 211.021C65.8956 210.712 65.8598 210.383 65.8983 210.057ZM64.6249 232.838C64.4632 230.408 65.0371 227.985 66.2717 225.886C67.5063 223.787 69.3445 222.108 71.5468 221.068C73.7492 220.029 76.2135 219.676 78.6189 220.057C81.0243 220.438 83.2593 221.534 85.0327 223.204C86.8061 224.873 88.0358 227.037 88.5615 229.415C89.0872 231.793 88.8847 234.274 87.9802 236.536C87.0757 238.797 85.5112 240.733 83.4905 242.093C81.4698 243.452 79.0866 244.171 76.6513 244.157C73.5572 244.245 70.5544 243.103 68.3004 240.981C66.0464 238.86 64.7248 235.931 64.6249 232.838Z" fill="#65FF00"/>
<path d="M382.766 59.4105V57.4804C382.766 47.5425 395.348 47.1137 395.348 40.0356C395.348 36.9613 392.846 34.9599 389.129 34.9599C385.053 34.9599 382.479 37.1762 382.479 40.3199V41.1064C382.479 41.893 382.051 42.2503 381.264 42.2503L373.614 41.964C372.899 41.964 372.398 41.6067 372.398 41.1064V40.3199C372.398 31.6708 379.261 25.735 389.343 25.735C399.21 25.735 405.572 31.3118 405.572 39.6763C405.572 51.5446 392.774 51.6145 392.774 58.122V59.4088C392.794 59.5731 392.776 59.7397 392.722 59.8961C392.668 60.0524 392.579 60.1944 392.462 60.3114C392.345 60.4284 392.203 60.5174 392.046 60.5716C391.89 60.6257 391.724 60.6437 391.559 60.6242H383.981C383.816 60.6437 383.65 60.6257 383.494 60.5716C383.338 60.5175 383.196 60.4287 383.079 60.3119C382.962 60.1951 382.873 60.0533 382.819 59.8972C382.764 59.7411 382.746 59.5746 382.766 59.4105ZM382.122 70.9215C382.04 69.6937 382.33 68.4697 382.954 67.4091C383.578 66.3484 384.507 65.5001 385.619 64.9748C386.732 64.4494 387.977 64.2714 389.193 64.4638C390.408 64.6563 391.537 65.2103 392.433 66.0537C393.33 66.897 393.951 67.9907 394.217 69.1922C394.482 70.3937 394.38 71.6474 393.923 72.7899C393.466 73.9324 392.675 74.9109 391.654 75.5978C390.633 76.2846 389.429 76.6482 388.199 76.6409C386.635 76.6852 385.118 76.1082 383.979 75.0363C382.84 73.9643 382.172 72.4847 382.122 70.9215Z" fill="#65FF00"/>
<path d="M14.063 324.926V322.493C14.063 309.97 29.9201 309.429 29.9201 300.51C29.9201 296.635 26.7667 294.112 22.0831 294.112C16.9473 294.112 13.7045 296.905 13.7045 300.87V301.861C13.7045 302.852 13.1636 303.303 12.1724 303.303L2.53209 302.942C1.63104 302.942 1 302.492 1 301.861V300.87C1 289.968 9.64911 282.49 22.3532 282.49C34.7868 282.49 42.8057 289.518 42.8057 300.059C42.8057 315.015 26.6777 315.105 26.6777 323.304V324.926C26.7024 325.133 26.6798 325.343 26.6116 325.54C26.5434 325.737 26.4313 325.916 26.2839 326.064C26.1365 326.211 25.9575 326.323 25.7605 326.391C25.5635 326.46 25.3535 326.482 25.1465 326.458H15.5959C15.3888 326.482 15.1789 326.459 14.9819 326.391C14.7849 326.323 14.6059 326.211 14.4584 326.063C14.3109 325.916 14.1987 325.737 14.1302 325.54C14.0617 325.343 14.0388 325.133 14.063 324.926ZM13.2509 339.432C13.1479 337.884 13.5133 336.342 14.2994 335.005C15.0856 333.669 16.256 332.599 17.6584 331.937C19.0607 331.275 20.6299 331.051 22.1616 331.294C23.6933 331.536 25.1164 332.234 26.2457 333.297C27.3749 334.36 28.158 335.738 28.4927 337.252C28.8275 338.767 28.6985 340.346 28.1226 341.786C27.5466 343.226 26.5505 344.459 25.2638 345.325C23.9771 346.19 22.4595 346.648 20.9088 346.639C18.9388 346.695 17.027 345.968 15.5919 344.617C14.1569 343.266 13.3143 341.402 13.2509 339.432Z" stroke="white" stroke-miterlimit="10"/>
<path d="M134.828 98.3006V96.6276C134.828 88.0138 145.734 87.6419 145.734 81.5067C145.734 78.8421 143.565 77.1066 140.343 77.1066C136.81 77.1066 134.58 79.0277 134.58 81.7544V82.4361C134.58 83.1179 134.208 83.4278 133.524 83.4278L126.894 83.1797C126.274 83.1797 125.838 82.8698 125.838 82.4361V81.7544C125.838 74.2561 131.787 69.1124 140.525 69.1124C149.077 69.1124 154.592 73.9446 154.592 81.1969C154.592 91.4841 143.5 91.5457 143.5 97.1851V98.3006C143.517 98.443 143.501 98.5874 143.454 98.7229C143.407 98.8584 143.33 98.9816 143.229 99.083C143.127 99.1844 143.004 99.2615 142.869 99.3084C142.733 99.3554 142.589 99.3709 142.446 99.3539H135.877C135.735 99.3702 135.591 99.3542 135.456 99.307C135.321 99.2597 135.199 99.1826 135.098 99.0812C134.997 98.9799 134.92 98.8571 134.873 98.7219C134.826 98.5867 134.811 98.4427 134.828 98.3006ZM134.27 108.278C134.199 107.214 134.451 106.153 134.991 105.233C135.532 104.314 136.337 103.579 137.302 103.124C138.266 102.668 139.346 102.514 140.399 102.681C141.453 102.848 142.431 103.328 143.208 104.059C143.985 104.79 144.523 105.738 144.753 106.779C144.984 107.821 144.895 108.907 144.499 109.898C144.103 110.888 143.417 111.736 142.532 112.331C141.648 112.927 140.604 113.242 139.537 113.236C138.182 113.274 136.867 112.774 135.88 111.845C134.893 110.915 134.314 109.633 134.27 108.278Z" fill="white"/>
<path d="M333.891 473.812C333.125 473.853 332.36 473.738 331.64 473.472C330.921 473.207 330.264 472.797 329.709 472.268C329.154 471.739 328.713 471.103 328.413 470.397C328.113 469.692 327.96 468.932 327.965 468.166C327.969 467.399 328.13 466.642 328.437 465.939C328.745 465.237 329.193 464.605 329.754 464.083C330.314 463.56 330.976 463.157 331.698 462.9C332.42 462.642 333.187 462.535 333.952 462.584C334.718 462.543 335.483 462.659 336.203 462.924C336.922 463.19 337.579 463.6 338.134 464.129C338.689 464.657 339.13 465.294 339.43 465.999C339.73 466.705 339.883 467.464 339.878 468.231C339.874 468.997 339.713 469.755 339.406 470.457C339.098 471.159 338.65 471.791 338.089 472.314C337.529 472.837 336.867 473.239 336.145 473.497C335.423 473.754 334.656 473.862 333.891 473.812ZM333.953 463.899C333.361 463.85 332.765 463.923 332.203 464.115C331.641 464.307 331.125 464.613 330.686 465.014C330.248 465.414 329.897 465.901 329.656 466.444C329.414 466.986 329.287 467.573 329.283 468.167C329.279 468.761 329.397 469.349 329.631 469.895C329.865 470.441 330.209 470.933 330.641 471.34C331.074 471.747 331.586 472.06 332.145 472.26C332.704 472.459 333.299 472.542 333.891 472.501C334.484 472.551 335.08 472.478 335.642 472.286C336.205 472.095 336.722 471.789 337.161 471.388C337.6 470.988 337.951 470.5 338.193 469.957C338.435 469.414 338.562 468.827 338.566 468.233C338.571 467.639 338.452 467.05 338.218 466.503C337.984 465.957 337.639 465.465 337.206 465.058C336.773 464.651 336.26 464.338 335.7 464.139C335.141 463.939 334.546 463.857 333.953 463.899ZM336.804 459.933H330.235C330.006 459.949 329.777 459.916 329.562 459.835C329.348 459.755 329.153 459.629 328.991 459.467C328.829 459.305 328.703 459.11 328.623 458.895C328.543 458.681 328.51 458.451 328.526 458.223V456.55C328.661 454.538 329.326 452.597 330.455 450.926C331.583 449.255 333.134 447.912 334.95 447.035C337.355 445.351 339.432 443.896 339.432 441.429C339.432 439.155 337.573 437.685 334.698 437.685C331.595 437.685 329.59 439.252 329.59 441.677V442.358C329.607 442.584 329.574 442.812 329.493 443.023C329.412 443.235 329.286 443.427 329.123 443.584C328.959 443.742 328.763 443.861 328.549 443.934C328.334 444.008 328.106 444.032 327.881 444.007L321.226 443.758C321.022 443.782 320.816 443.764 320.62 443.705C320.424 443.647 320.242 443.549 320.084 443.418C319.927 443.287 319.798 443.126 319.704 442.944C319.611 442.762 319.555 442.563 319.541 442.358V441.677C319.541 433.847 325.85 428.379 334.885 428.379C343.691 428.379 349.608 433.498 349.608 441.119C349.554 443.442 348.869 445.707 347.625 447.67C346.381 449.634 344.626 451.221 342.548 452.261C340.295 453.82 338.515 455.052 338.515 457.107V458.223C338.531 458.451 338.498 458.681 338.417 458.896C338.337 459.11 338.211 459.305 338.049 459.467C337.886 459.629 337.691 459.754 337.476 459.834C337.262 459.914 337.033 459.949 336.804 459.933ZM334.698 436.373C338.314 436.373 340.745 438.403 340.745 441.429C340.745 444.578 338.296 446.294 335.703 448.111C332.82 450.13 329.839 452.22 329.839 456.55V458.223C329.839 458.542 329.917 458.62 330.235 458.62H336.804C337.124 458.62 337.202 458.542 337.202 458.223V457.107C337.202 454.364 339.435 452.818 341.799 451.182C343.697 450.258 345.307 448.831 346.452 447.057C347.597 445.283 348.234 443.229 348.294 441.119C348.294 434.178 343.03 429.692 334.884 429.692C326.491 429.692 320.853 434.508 320.853 441.677V442.358C320.975 442.422 321.112 442.452 321.25 442.446L327.905 442.695C328.277 442.695 328.277 442.603 328.277 442.358V441.677C328.277 438.503 330.858 436.373 334.698 436.373Z" fill="#263238"/>
<path d="M277.773 488.099C277.681 487.819 277.583 487.542 277.484 487.265C277.391 486.986 277.294 486.708 277.194 486.431C277.102 486.152 277.004 485.874 276.904 485.597C276.812 485.318 276.715 485.041 276.615 484.765C276.523 484.485 276.425 484.207 276.326 483.931C276.233 483.652 276.137 483.374 276.036 483.098C275.944 482.818 275.846 482.54 275.747 482.264C275.654 481.984 275.558 481.706 275.457 481.429C275.365 481.15 275.268 480.873 275.168 480.597C275.075 480.317 274.978 480.039 274.878 479.762C274.786 479.483 274.689 479.206 274.589 478.931C274.497 478.65 274.399 478.372 274.299 478.095C274.207 477.815 274.11 477.538 274.01 477.262C273.918 476.982 273.82 476.705 273.72 476.428C273.628 476.148 273.531 475.871 273.431 475.594C273.338 475.315 273.241 475.038 273.142 474.762C273.05 474.482 272.953 474.204 272.852 473.928C272.76 473.648 272.662 473.37 272.562 473.093C272.47 472.814 272.373 472.537 272.273 472.261C269.93 465.88 265.751 460.334 260.264 456.321C254.776 452.309 248.223 450.01 241.432 449.713C234.64 449.416 227.912 451.135 222.095 454.653C216.278 458.171 211.632 463.331 208.741 469.484C208.615 469.749 208.497 470.017 208.378 470.286C208.252 470.552 208.134 470.822 208.012 471.091C207.887 471.357 207.768 471.625 207.649 471.893C207.524 472.16 207.406 472.428 207.284 472.698C207.158 472.964 207.038 473.232 206.919 473.502C206.793 473.768 206.675 474.036 206.555 474.306C206.43 474.571 206.311 474.839 206.192 475.108C206.066 475.374 205.948 475.643 205.827 475.912C205.702 476.178 205.583 476.446 205.464 476.715C205.338 476.982 205.22 477.25 205.099 477.52C204.973 477.786 204.855 478.053 204.736 478.322C204.61 478.589 204.49 478.859 204.37 479.129C204.25 479.399 204.127 479.662 204.008 479.93C203.882 480.196 203.762 480.465 203.642 480.735C203.517 481 203.399 481.268 203.279 481.537C203.154 481.804 203.036 482.072 202.914 482.342C202.789 482.607 202.67 482.876 202.551 483.145C202.425 483.411 202.307 483.68 202.186 483.95C202.06 484.215 201.942 484.484 201.82 484.753C201.695 485.019 201.576 485.288 201.457 485.556C199.202 490.316 198.03 495.517 198.025 500.784C198.025 521.912 216.272 539.197 238.841 539.197C260.93 539.197 280.137 521.911 280.137 500.784C280.132 496.742 279.426 492.732 278.05 488.932C277.97 488.65 277.873 488.373 277.773 488.099Z" fill="black" fill-opacity="0.38"/>
<path d="M246.536 197.311C178.831 197.311 132.734 237.165 132.734 295.266V300.548C132.749 301.415 132.986 302.263 133.423 303.012C133.86 303.761 134.482 304.385 135.229 304.825C135.848 305.316 136.467 305.806 137.086 306.297C137.372 306.571 137.683 306.818 138.015 307.033C138.634 307.524 139.254 308.015 139.873 308.505C140.158 308.78 140.469 309.027 140.802 309.242C141.086 309.517 141.397 309.763 141.73 309.977C142.679 310.737 143.634 311.489 144.594 312.235C144.859 312.486 145.147 312.713 145.454 312.911C146.071 313.4 146.689 313.89 147.306 314.379C147.589 314.656 147.899 314.902 148.233 315.114C148.85 315.604 149.468 316.093 150.085 316.583C150.367 316.86 150.677 317.107 151.012 317.318C151.629 317.807 152.247 318.297 152.864 318.786C153.145 319.065 153.456 319.312 153.791 319.521C155.303 320.865 157.284 321.556 159.303 321.444L201.522 323.023C205.862 323.023 208.23 321.051 208.23 316.71V312.37C208.23 295.009 222.435 282.778 244.925 282.778C265.442 282.778 279.252 293.825 279.252 310.791C279.253 312.729 279.07 314.662 278.705 316.564C257.511 344.343 202.361 356.586 202.361 410.508V423.473C202.23 424.577 202.351 425.695 202.714 426.745C203.078 427.795 203.676 428.749 204.461 429.534C205.247 430.32 206.201 430.917 207.25 431.281C208.3 431.645 209.419 431.766 210.522 431.635H261.421C262.524 431.766 263.643 431.645 264.693 431.281C265.743 430.917 266.696 430.32 267.482 429.534C268.268 428.749 268.865 427.795 269.229 426.745C269.593 425.695 269.714 424.577 269.583 423.473V414.83C269.583 371.133 355.534 370.654 355.534 290.944C355.537 234.764 312.802 197.311 246.536 197.311Z" fill="black" fill-opacity="0.38"/>
<path d="M202.36 423.473V410.508C202.36 343.763 286.871 340.883 286.871 293.345C286.871 272.698 270.064 259.253 245.095 259.253C217.727 259.253 200.439 274.139 200.439 295.266V300.548C200.439 305.83 197.558 308.23 192.277 308.23L140.898 306.31C136.096 306.31 132.736 303.909 132.736 300.548V295.266C132.736 237.165 178.833 197.311 246.538 197.311C312.804 197.311 355.539 234.764 355.539 290.944C355.539 370.654 269.587 371.133 269.587 414.83V423.473C269.718 424.577 269.597 425.695 269.233 426.745C268.869 427.795 268.272 428.749 267.486 429.534C266.701 430.32 265.747 430.917 264.697 431.281C263.648 431.645 262.529 431.766 261.425 431.635H210.523C209.419 431.766 208.3 431.645 207.25 431.282C206.2 430.918 205.247 430.32 204.461 429.535C203.675 428.749 203.078 427.795 202.714 426.745C202.35 425.696 202.229 424.577 202.36 423.473ZM198.038 500.782C198.038 479.654 216.765 462.368 239.335 462.368C260.943 462.368 280.15 479.656 280.15 500.782C280.15 521.908 260.943 539.195 238.854 539.195C216.285 539.196 198.038 521.91 198.038 500.782Z" fill="#65FF00"/>
<path d="M181.957 202.628L179.216 208.624C179.216 208.624 163.282 210.338 163.282 211.537C163.153 214.825 163.499 218.114 164.31 221.303C164.971 221.561 165.705 221.561 166.366 221.303C167.051 221.131 189.837 215.306 189.837 215.306L192.064 204.684L181.957 202.628Z" fill="white"/>
<path d="M165.253 222.155C164.845 222.151 164.443 222.069 164.067 221.911C162.768 221.39 162.627 214.482 162.627 211.536C162.627 210.916 162.627 209.765 178.775 208.011L181.361 202.354C181.423 202.22 181.528 202.11 181.661 202.043C181.793 201.975 181.943 201.955 182.089 201.984L192.197 204.04C192.282 204.057 192.363 204.091 192.434 204.139C192.506 204.187 192.567 204.25 192.615 204.322C192.663 204.394 192.695 204.475 192.711 204.56C192.728 204.645 192.727 204.733 192.709 204.817L190.482 215.44C190.457 215.56 190.398 215.671 190.313 215.759C190.229 215.848 190.121 215.911 190.002 215.941C190.002 215.941 167.211 221.767 166.526 221.938L166.391 221.973C166.021 222.082 165.638 222.143 165.253 222.155ZM164.681 220.739C165.134 220.885 165.624 220.871 166.067 220.698L166.208 220.663C166.84 220.505 186.252 215.543 189.281 214.769L191.288 205.193L182.338 203.373L179.814 208.895C179.766 208.999 179.692 209.088 179.6 209.155C179.507 209.221 179.399 209.263 179.286 209.275C174.108 209.671 168.974 210.508 163.939 211.779C163.885 214.783 164.134 217.785 164.681 220.739Z" fill="#263238"/>
<path d="M177.491 213.34C174.579 215.729 171.438 217.823 168.114 219.593C164.31 221.302 164.207 223.891 165.379 223.891C166.551 223.891 177.296 219.398 177.296 219.398C177.296 219.398 187.025 216.848 188.431 216.077C189.838 215.306 189.994 210.997 189.994 210.997" fill="white"/>
<path d="M165.379 224.547C165.075 224.55 164.779 224.445 164.545 224.25C164.312 224.055 164.155 223.783 164.104 223.483C163.839 222.249 164.897 220.316 167.845 218.993C171.116 217.246 174.208 215.182 177.077 212.832C177.212 212.726 177.384 212.677 177.555 212.696C177.725 212.715 177.882 212.801 177.991 212.934C178.099 213.067 178.151 213.238 178.135 213.409C178.119 213.58 178.037 213.739 177.906 213.85C174.953 216.279 171.763 218.403 168.383 220.191C167.737 220.406 167.142 220.75 166.633 221.202C166.124 221.654 165.712 222.204 165.422 222.82C165.365 222.96 165.359 223.114 165.404 223.258C166.118 223.197 171.891 220.945 177.043 218.791C181.009 217.745 187.136 216.037 188.116 215.502C188.851 215.099 189.28 212.563 189.339 210.975C189.347 210.802 189.423 210.639 189.55 210.52C189.677 210.402 189.845 210.339 190.018 210.343C190.105 210.346 190.189 210.366 190.268 210.402C190.346 210.438 190.417 210.488 190.475 210.552C190.534 210.615 190.58 210.689 190.61 210.77C190.64 210.85 190.654 210.936 190.651 211.022C190.622 211.804 190.397 215.749 188.747 216.653C187.311 217.441 178.466 219.77 177.463 220.034C173.533 221.788 169.497 223.295 165.379 224.547Z" fill="#263238"/>
<path d="M195.985 87.6041L186.191 162.673L179.369 203.32L194.499 206.881L205.775 158.815L211.115 128.551L195.985 87.6041Z" fill="#7D7D7D"/>
<path d="M194.5 207.538C194.449 207.538 194.399 207.532 194.349 207.52L179.217 203.96C179.055 203.922 178.913 203.823 178.821 203.684C178.729 203.545 178.692 203.377 178.72 203.212L185.545 162.563L195.331 87.5211C195.349 87.3754 195.416 87.2401 195.521 87.1371C195.626 87.034 195.762 86.9691 195.908 86.9526C196.053 86.9373 196.2 86.9706 196.325 87.0475C196.45 87.1243 196.546 87.2403 196.598 87.3773L211.73 128.323C211.77 128.432 211.781 128.55 211.76 128.664L206.419 158.928L195.137 207.031C195.103 207.175 195.022 207.303 194.906 207.395C194.79 207.487 194.648 207.538 194.5 207.538ZM180.117 202.823L194.011 206.092L205.137 158.664L210.439 128.611L196.292 90.329L186.844 162.757L180.117 202.823Z" fill="#263238"/>
<path d="M275.02 33.2497L269.035 32.3076L256.808 27.6704L256.361 42.2115L275.333 43.9535L275.02 33.2497Z" fill="white"/>
<path d="M275.334 44.6109L275.274 44.6085L256.303 42.8624C256.137 42.8469 255.983 42.7686 255.872 42.6435C255.761 42.5184 255.702 42.3558 255.707 42.1888L256.154 27.6518C256.157 27.5473 256.185 27.445 256.236 27.3536C256.287 27.2622 256.358 27.1841 256.445 27.126C256.532 27.0679 256.632 27.0314 256.736 27.0195C256.839 27.0076 256.945 27.0207 257.042 27.0577L269.208 31.6689L275.122 32.6029C275.273 32.6266 275.411 32.7024 275.512 32.8173C275.614 32.9322 275.671 33.0789 275.676 33.2319L275.991 43.9356C275.994 44.0235 275.979 44.1109 275.947 44.1928C275.915 44.2747 275.867 44.3494 275.806 44.4125C275.745 44.4755 275.672 44.5255 275.591 44.5597C275.51 44.5938 275.422 44.611 275.334 44.6109ZM257.039 41.6122L274.656 43.2327L274.379 33.8121L268.936 32.9517C268.891 32.9447 268.848 32.9335 268.806 32.918L257.436 28.6081L257.039 41.6122Z" fill="#263238"/>
<path d="M205.182 299.454C200.73 304.659 196.569 310.107 192.72 315.773C187.676 323.488 189.456 331.795 195.687 333.872C201.918 335.949 209.929 330.312 212.006 325.861C214.083 321.41 213.49 319.037 216.754 314.586C218.598 312.622 219.981 310.271 220.802 307.705C221.624 305.138 221.862 302.421 221.501 299.751C220.314 293.817 208.446 295.3 205.182 299.454Z" fill="#7D7D7D"/>
<path d="M198.513 334.969C197.483 334.975 196.458 334.815 195.479 334.494C194.145 334.05 192.934 333.299 191.943 332.302C190.952 331.305 190.209 330.09 189.773 328.753C189.145 326.492 189.034 324.119 189.45 321.809C189.865 319.5 190.795 317.314 192.171 315.413C196.035 309.729 200.209 304.262 204.674 299.036C206.368 297.435 208.427 296.273 210.673 295.65C212.919 295.026 215.283 294.961 217.559 295.46C218.651 295.617 219.672 296.097 220.489 296.839C221.306 297.581 221.882 298.55 222.144 299.622C222.52 302.381 222.279 305.19 221.438 307.845C220.598 310.5 219.178 312.935 217.283 314.975C215.825 316.932 214.787 319.169 214.233 321.545C213.822 323.121 213.276 324.658 212.601 326.139C211.162 328.658 209.123 330.782 206.666 332.322C204.208 333.863 201.407 334.772 198.513 334.969ZM214.767 296.467C213.106 296.408 211.451 296.677 209.894 297.26C208.338 297.842 206.912 298.725 205.697 299.859L205.679 299.882C201.247 305.067 197.105 310.491 193.269 316.131C192.004 317.864 191.144 319.859 190.753 321.969C190.363 324.079 190.451 326.25 191.012 328.321C191.385 329.467 192.02 330.509 192.868 331.365C193.716 332.221 194.752 332.866 195.895 333.248C201.596 335.153 209.364 329.97 211.411 325.582C212.055 324.164 212.577 322.694 212.97 321.187C213.568 318.66 214.675 316.282 216.224 314.198C218.014 312.307 219.359 310.04 220.161 307.562C220.962 305.085 221.2 302.46 220.856 299.878C220.63 299.059 220.168 298.325 219.528 297.766C218.887 297.208 218.097 296.85 217.255 296.738C216.439 296.551 215.604 296.46 214.767 296.467Z" fill="#263238"/>
<path d="M211.399 326.926C210.984 326.033 210.502 325.09 209.929 324.08C205.163 315.692 196.85 316.369 191.512 317.925C188.063 324.972 190.033 331.987 195.687 333.871C201.429 335.786 208.671 331.149 211.399 326.926Z" fill="white"/>
<path d="M198.572 334.98C197.522 334.985 196.478 334.821 195.481 334.493C194.254 334.084 193.13 333.414 192.187 332.528C191.244 331.643 190.504 330.564 190.018 329.366C189.332 327.457 189.058 325.425 189.214 323.403C189.371 321.381 189.953 319.415 190.923 317.635C190.964 317.553 191.021 317.48 191.091 317.421C191.16 317.362 191.242 317.318 191.329 317.292C194.77 315.901 198.595 315.788 202.111 316.973C205.628 318.159 208.604 320.564 210.5 323.754C211.056 324.733 211.545 325.68 211.996 326.648C212.043 326.748 212.063 326.859 212.055 326.97C212.047 327.081 212.012 327.188 211.952 327.281C210.439 329.483 208.452 331.318 206.136 332.65C203.821 333.983 201.236 334.779 198.572 334.98ZM191.978 318.473C191.141 320.058 190.643 321.799 190.513 323.587C190.384 325.374 190.628 327.169 191.228 328.858C191.637 329.887 192.267 330.814 193.074 331.572C193.881 332.331 194.845 332.902 195.898 333.247C201.186 335.016 207.919 330.794 210.65 326.868C210.259 326.047 209.835 325.237 209.361 324.403C205 316.735 197.56 316.909 191.978 318.473Z" fill="#263238"/>
<path d="M209.928 324.079C208.148 326.749 205.774 333.87 196.577 330.903C193.99 330.258 191.672 328.812 189.955 326.772C190.149 328.374 190.79 329.888 191.803 331.143C192.817 332.398 194.162 333.343 195.687 333.87C201.917 335.947 209.928 330.31 212.005 325.859C214.082 321.408 213.489 319.035 216.753 314.584C218.597 312.62 219.98 310.269 220.802 307.703C221.623 305.137 221.861 302.419 221.5 299.749C221.5 306.87 218.83 308.057 215.566 311.914C212.302 315.771 211.709 321.41 209.928 324.079Z" fill="white"/>
<path d="M198.512 334.968C197.482 334.975 196.458 334.814 195.478 334.494C193.839 333.932 192.391 332.919 191.299 331.573C190.208 330.226 189.517 328.6 189.306 326.88C189.281 326.734 189.307 326.584 189.378 326.454C189.449 326.324 189.562 326.222 189.699 326.165C189.835 326.108 189.987 326.099 190.13 326.138C190.272 326.178 190.397 326.265 190.484 326.385C192.131 328.3 194.329 329.66 196.778 330.28C197.894 330.755 199.096 330.996 200.309 330.986C201.522 330.977 202.72 330.718 203.828 330.226C204.937 329.733 205.933 329.018 206.753 328.124C207.573 327.231 208.201 326.178 208.596 325.031C208.881 324.534 209.136 324.084 209.382 323.716C210.126 322.395 210.71 320.991 211.123 319.533C211.918 316.628 213.255 313.899 215.065 311.491C215.688 310.754 216.29 310.114 216.857 309.51C218.249 308.317 219.336 306.809 220.03 305.112C220.723 303.414 221.002 301.576 220.843 299.749C220.843 299.587 220.903 299.429 221.013 299.309C221.122 299.188 221.272 299.112 221.435 299.096C221.596 299.084 221.757 299.131 221.887 299.228C222.017 299.324 222.108 299.465 222.143 299.624C222.519 302.383 222.278 305.191 221.438 307.846C220.597 310.501 219.178 312.937 217.282 314.976C215.824 316.934 214.786 319.17 214.232 321.547C213.821 323.122 213.275 324.659 212.6 326.14C211.161 328.659 209.122 330.783 206.665 332.323C204.207 333.863 201.406 334.772 198.512 334.968ZM191.302 329.033C191.726 330.02 192.354 330.906 193.146 331.633C193.937 332.359 194.873 332.91 195.893 333.248C201.595 335.15 209.362 329.97 211.41 325.582C212.055 324.164 212.576 322.694 212.969 321.186C213.567 318.66 214.674 316.282 216.223 314.198C217.781 312.208 219.084 310.032 220.102 307.719C219.409 308.673 218.643 309.572 217.813 310.409C217.261 310.998 216.676 311.622 216.067 312.34C214.37 314.625 213.115 317.208 212.367 319.954C211.922 321.523 211.287 323.031 210.474 324.444C210.243 324.79 210.003 325.213 209.738 325.68C209.275 326.964 208.556 328.141 207.623 329.138C206.691 330.135 205.565 330.931 204.314 331.478C203.064 332.026 201.715 332.312 200.35 332.321C198.985 332.329 197.632 332.059 196.375 331.527C194.557 330.985 192.842 330.142 191.302 329.033Z" fill="#263238"/>
<path d="M292.736 299.454C297.189 304.659 301.349 310.107 305.198 315.773C310.242 323.488 308.462 331.795 302.231 333.872C296 335.949 287.989 330.312 285.912 325.861C283.835 321.41 284.429 319.037 281.165 314.586C279.32 312.622 277.937 310.271 277.116 307.705C276.295 305.138 276.056 302.421 276.418 299.751C277.605 293.817 289.474 295.3 292.736 299.454Z" fill="#7D7D7D"/>
<path d="M299.407 334.968C296.513 334.772 293.712 333.863 291.254 332.323C288.797 330.782 286.758 328.658 285.32 326.139C284.645 324.657 284.099 323.12 283.688 321.545C283.133 319.169 282.095 316.932 280.638 314.975C278.742 312.935 277.322 310.5 276.481 307.845C275.641 305.19 275.4 302.381 275.776 299.622C276.038 298.55 276.614 297.58 277.431 296.838C278.249 296.096 279.269 295.616 280.362 295.46C282.638 294.961 285.001 295.027 287.247 295.65C289.492 296.273 291.551 297.435 293.244 299.036C297.711 304.261 301.886 309.728 305.751 315.413C307.127 317.313 308.056 319.5 308.471 321.809C308.886 324.118 308.775 326.491 308.147 328.752C307.711 330.088 306.967 331.304 305.976 332.301C304.985 333.299 303.774 334.05 302.44 334.494C301.461 334.814 300.437 334.974 299.407 334.968ZM283.153 296.466C282.317 296.459 281.483 296.55 280.667 296.737C279.825 296.849 279.034 297.207 278.393 297.765C277.752 298.324 277.29 299.059 277.063 299.878C276.72 302.459 276.958 305.085 277.759 307.562C278.561 310.04 279.906 312.307 281.697 314.197C283.245 316.282 284.352 318.66 284.949 321.186C285.343 322.693 285.865 324.164 286.51 325.582C288.558 329.97 296.323 335.152 302.025 333.248C303.168 332.865 304.205 332.22 305.052 331.364C305.9 330.508 306.536 329.465 306.907 328.319C307.469 326.248 307.557 324.078 307.167 321.968C306.776 319.858 305.916 317.863 304.65 316.131C300.815 310.491 296.672 305.066 292.24 299.882L292.221 299.859C291.007 298.725 289.582 297.842 288.026 297.259C286.47 296.677 284.813 296.408 283.153 296.466Z" fill="#263238"/>
<path d="M286.52 326.926C286.935 326.033 287.416 325.09 287.99 324.08C292.756 315.692 301.069 316.369 306.407 317.925C309.856 324.972 307.886 331.987 302.232 333.871C296.49 335.786 289.248 331.149 286.52 326.926Z" fill="white"/>
<path d="M299.35 334.98C296.686 334.779 294.101 333.983 291.786 332.65C289.47 331.318 287.483 329.483 285.971 327.281C285.91 327.188 285.874 327.081 285.867 326.97C285.859 326.859 285.88 326.748 285.927 326.648C286.379 325.673 286.868 324.727 287.422 323.754C289.318 320.564 292.294 318.159 295.81 316.973C299.327 315.788 303.152 315.901 306.592 317.292C306.68 317.318 306.762 317.362 306.832 317.421C306.901 317.48 306.958 317.553 306.998 317.635C307.969 319.415 308.551 321.381 308.707 323.403C308.863 325.425 308.589 327.457 307.904 329.366C307.418 330.564 306.678 331.643 305.735 332.529C304.792 333.414 303.668 334.084 302.441 334.493C301.443 334.821 300.4 334.985 299.35 334.98ZM287.274 326.868C290.003 330.794 296.736 335.018 302.026 333.247C303.078 332.902 304.042 332.331 304.848 331.572C305.655 330.814 306.285 329.887 306.693 328.858C307.294 327.169 307.537 325.374 307.409 323.587C307.28 321.8 306.781 320.058 305.945 318.473C300.363 316.913 292.919 316.735 288.563 324.402C288.091 325.232 287.668 326.043 287.274 326.868Z" fill="#263238"/>
<path d="M287.991 324.079C289.771 326.749 292.145 333.87 301.343 330.903C303.93 330.258 306.247 328.812 307.965 326.772C307.77 328.374 307.13 329.888 306.116 331.143C305.103 332.398 303.757 333.343 302.233 333.87C296.002 335.947 287.991 330.31 285.914 325.859C283.837 321.408 284.431 319.035 281.167 314.584C279.322 312.62 277.939 310.269 277.118 307.703C276.297 305.137 276.058 302.419 276.42 299.749C276.42 306.87 279.09 308.057 282.354 311.914C285.618 315.771 286.211 321.41 287.991 324.079Z" fill="white"/>
<path d="M299.407 334.968C296.513 334.772 293.712 333.863 291.254 332.323C288.797 330.782 286.758 328.658 285.32 326.139C284.645 324.657 284.099 323.12 283.688 321.545C283.133 319.169 282.095 316.932 280.638 314.975C278.742 312.935 277.322 310.5 276.481 307.845C275.641 305.19 275.4 302.381 275.776 299.622C275.808 299.462 275.899 299.321 276.029 299.224C276.16 299.128 276.322 299.083 276.484 299.099C276.646 299.115 276.796 299.19 276.905 299.31C277.014 299.431 277.075 299.587 277.076 299.75C276.917 301.576 277.196 303.414 277.889 305.111C278.583 306.809 279.67 308.317 281.062 309.51C281.63 310.113 282.23 310.754 282.854 311.491C284.663 313.898 286 316.626 286.795 319.531C287.208 320.989 287.793 322.393 288.538 323.713C288.781 324.081 289.04 324.532 289.322 325.027C289.717 326.174 290.345 327.228 291.165 328.122C291.985 329.016 292.981 329.731 294.089 330.224C295.198 330.717 296.397 330.976 297.61 330.985C298.823 330.994 300.025 330.753 301.141 330.278C303.59 329.657 305.787 328.297 307.435 326.383C307.522 326.263 307.647 326.175 307.789 326.135C307.932 326.095 308.084 326.104 308.221 326.162C308.357 326.219 308.471 326.321 308.542 326.451C308.613 326.581 308.638 326.731 308.613 326.877C308.402 328.598 307.711 330.224 306.62 331.571C305.528 332.917 304.08 333.929 302.441 334.492C301.462 334.813 300.437 334.974 299.407 334.968ZM277.816 307.718C278.834 310.031 280.138 312.208 281.697 314.197C283.245 316.281 284.352 318.66 284.949 321.186C285.343 322.693 285.865 324.164 286.51 325.582C288.558 329.97 296.323 335.151 302.025 333.248C303.045 332.91 303.982 332.359 304.774 331.633C305.565 330.906 306.194 330.02 306.617 329.032C305.078 330.142 303.363 330.985 301.545 331.529C300.287 332.06 298.935 332.329 297.57 332.32C296.205 332.311 294.856 332.024 293.605 331.476C292.355 330.929 291.229 330.133 290.296 329.136C289.364 328.139 288.644 326.963 288.181 325.678C287.916 325.213 287.676 324.79 287.446 324.444C286.632 323.03 285.996 321.522 285.552 319.953C284.804 317.206 283.549 314.624 281.852 312.34C281.243 311.62 280.657 310.996 280.106 310.409C279.275 309.571 278.51 308.672 277.816 307.718Z" fill="#263238"/>
<path d="M306.655 197.089C306.655 191.749 297.457 185.814 297.457 185.814C283.606 171.724 258.62 173.588 249.391 174.851C240.162 173.587 215.176 171.724 201.325 185.814C201.325 185.814 192.127 191.749 192.127 197.089C192.127 202.43 203.7 298.859 203.7 298.859C203.7 298.859 203.403 303.903 211.711 304.496C213.878 304.814 216.089 304.602 218.156 303.879C220.223 303.155 222.083 301.942 223.579 300.343L226.843 218.749C231.809 215.061 237.068 211.787 242.568 208.957C243.447 208.847 244.571 208.657 245.832 208.505V208.661C248.18 208.164 250.605 208.164 252.953 208.661V208.505C254.214 208.657 255.338 208.847 256.217 208.957C261.717 211.787 266.976 215.062 271.942 218.749L275.206 300.343C276.702 301.942 278.563 303.155 280.629 303.879C282.696 304.602 284.908 304.814 287.074 304.496C295.382 303.903 295.085 298.859 295.085 298.859C295.085 298.859 306.655 202.43 306.655 197.089Z" fill="#263238"/>
<path d="M285.639 305.206C283.594 305.33 281.547 304.993 279.65 304.219C277.753 303.446 276.054 302.255 274.679 300.736C274.6 300.629 274.554 300.501 274.548 300.368L271.297 219.098C266.539 215.484 261.464 212.309 256.134 209.609C255.752 209.561 255.325 209.498 254.859 209.43C254.38 209.36 253.859 209.283 253.309 209.212C253.235 209.259 253.152 209.291 253.066 209.307C252.979 209.322 252.89 209.32 252.804 209.301C250.554 208.826 248.229 208.826 245.978 209.301C245.892 209.32 245.804 209.322 245.717 209.307C245.63 209.291 245.547 209.259 245.473 209.212C244.923 209.283 244.402 209.36 243.921 209.43C243.457 209.499 243.03 209.561 242.648 209.609C237.318 212.309 232.243 215.484 227.485 219.098L224.233 300.368C224.228 300.501 224.183 300.63 224.103 300.736C222.545 302.429 220.598 303.716 218.43 304.486C216.262 305.255 213.939 305.484 211.663 305.152C202.81 304.519 203.04 298.877 203.043 298.821C202.574 294.999 191.471 202.408 191.471 197.09C191.471 191.632 200.017 185.886 200.907 185.303C214.803 171.232 239.366 172.825 249.391 174.19C259.413 172.824 283.976 171.232 297.874 185.303C298.764 185.886 307.31 191.632 307.31 197.09C307.31 202.409 296.208 294.999 295.735 298.938C295.744 298.938 295.924 304.522 287.118 305.151C286.608 305.188 286.115 305.206 285.639 305.206ZM275.853 300.098C277.295 301.55 279.056 302.645 280.996 303.295C282.937 303.945 285.002 304.132 287.028 303.842C294.601 303.301 294.433 298.942 294.431 298.898C294.549 297.817 306 202.33 306 197.09C306 192.163 297.192 186.423 297.102 186.366C297.062 186.34 297.024 186.309 296.991 186.275C283.478 172.53 259.268 174.163 249.481 175.503C249.423 175.51 249.363 175.51 249.304 175.503C239.518 174.163 215.306 172.529 201.795 186.275C201.761 186.309 201.724 186.34 201.683 186.366C201.595 186.423 192.786 192.168 192.786 197.09C192.786 202.328 204.237 297.817 204.353 298.781C204.349 299.072 204.253 303.306 211.759 303.842C213.784 304.132 215.849 303.944 217.789 303.294C219.73 302.644 221.491 301.55 222.933 300.098L226.189 218.723C226.192 218.623 226.219 218.525 226.267 218.436C226.315 218.348 226.382 218.272 226.464 218.214C231.493 214.431 236.857 211.115 242.488 208.306C242.861 208.259 243.279 208.198 243.733 208.131C244.349 208.041 245.03 207.941 245.755 207.853C245.888 207.835 246.023 207.861 246.14 207.925C248.292 207.533 250.496 207.533 252.648 207.925C252.766 207.863 252.9 207.838 253.032 207.853C253.758 207.941 254.439 208.041 255.053 208.131C255.508 208.198 255.926 208.259 256.301 208.306C261.931 211.116 267.294 214.432 272.324 218.214C272.405 218.272 272.472 218.349 272.52 218.437C272.568 218.525 272.595 218.623 272.599 218.723L275.853 300.098Z" fill="#263238"/>
<path d="M271.939 219.406C271.775 219.405 271.618 219.344 271.497 219.234C271.376 219.123 271.301 218.972 271.286 218.809C271.212 217.997 269.577 198.803 278.336 191.252C278.468 191.138 278.64 191.081 278.813 191.094C278.987 191.107 279.148 191.189 279.262 191.321C279.375 191.453 279.432 191.624 279.419 191.798C279.406 191.972 279.325 192.133 279.193 192.246C270.945 199.357 272.574 218.497 272.594 218.69C272.609 218.863 272.556 219.036 272.444 219.17C272.332 219.304 272.172 219.388 271.999 219.403L271.939 219.406Z" fill="#707070"/>
<path d="M226.842 219.406H226.806C226.632 219.396 226.469 219.318 226.353 219.189C226.237 219.059 226.177 218.889 226.186 218.716C226.685 211.363 226.395 203.978 225.322 196.687C224.573 193.661 223.006 190.898 220.793 188.702C220.657 188.593 220.57 188.435 220.551 188.262C220.532 188.089 220.582 187.915 220.691 187.779C220.8 187.643 220.959 187.556 221.132 187.537C221.305 187.518 221.479 187.569 221.615 187.678C224.053 190.027 225.775 193.021 226.58 196.31C227.716 203.746 228.024 211.284 227.497 218.787C227.487 218.955 227.414 219.112 227.292 219.227C227.171 219.342 227.01 219.406 226.842 219.406Z" fill="#707070"/>
<path d="M249.092 200.712C248.94 200.712 248.793 200.659 248.675 200.562C248.558 200.465 248.478 200.331 248.449 200.181C246.724 191.264 237.417 180.418 237.323 180.31C237.264 180.245 237.219 180.169 237.19 180.086C237.161 180.004 237.148 179.916 237.154 179.828C237.159 179.741 237.182 179.655 237.22 179.577C237.259 179.498 237.313 179.428 237.38 179.371C237.446 179.314 237.523 179.27 237.606 179.243C237.69 179.216 237.778 179.206 237.865 179.213C237.952 179.221 238.037 179.245 238.115 179.286C238.192 179.327 238.261 179.383 238.317 179.451C238.709 179.905 247.947 190.668 249.739 199.931C249.755 200.016 249.755 200.103 249.737 200.187C249.72 200.272 249.686 200.352 249.638 200.423C249.59 200.495 249.528 200.556 249.456 200.604C249.384 200.651 249.303 200.684 249.218 200.7C249.177 200.708 249.135 200.713 249.092 200.712Z" fill="#707070"/>
<path d="M252.656 191.515L252.568 191.509C252.395 191.486 252.239 191.395 252.133 191.257C252.028 191.119 251.981 190.945 252.004 190.772C253.174 186.768 255.261 183.092 258.1 180.035C258.217 179.909 258.379 179.835 258.551 179.827C258.723 179.82 258.891 179.88 259.019 179.995C259.147 180.11 259.224 180.271 259.235 180.442C259.246 180.614 259.189 180.783 259.077 180.913C256.428 183.784 254.456 187.212 253.306 190.945C253.285 191.103 253.207 191.247 253.088 191.352C252.968 191.457 252.815 191.515 252.656 191.515Z" fill="#707070"/>
<path d="M245.237 65.0551C245.237 65.0551 236.633 63.8682 233.664 66.8353C230.696 69.8024 220.609 80.7803 220.609 80.7803L225.95 175.133C233.173 177.88 240.782 179.482 248.5 179.88C257.155 179.861 265.688 177.83 273.423 173.946C276.093 171.869 273.719 70.6925 273.719 70.6925C273.719 70.6925 251.766 64.1651 245.237 65.0551Z" fill="#65FF00"/>
<path d="M260.962 67.1332C265.482 66.4522 270.041 66.056 274.611 65.9468C280.545 65.9468 286.479 66.2432 286.479 66.2432L301.314 52.0013L271.347 45.1771L273.721 31.5285C284.694 30.7239 295.718 30.9225 306.655 32.1222C317.633 34.1992 334.842 39.5397 335.732 39.5397C336.622 39.5397 337.809 42.8037 336.919 45.1771C336.029 47.5505 308.139 78.4084 299.831 86.4192C294.374 91.7621 289.223 97.4085 284.402 103.332L280.545 169.497C284.554 171.615 288.42 173.994 292.118 176.618C293.835 179.378 295.135 182.378 295.975 185.519C288.538 182.364 280.907 179.688 273.129 177.508C268.382 176.915 265.414 176.618 264.524 174.838C263.635 173.057 256.217 93.8371 256.217 93.8371L256.513 68.617C256.513 68.617 256.512 67.1332 260.962 67.1332Z" fill="#7D7D7D"/>
<path d="M295.973 186.175C295.887 186.175 295.803 186.158 295.724 186.126C288.339 182.995 280.764 180.334 273.044 178.159L272.46 178.086C267.774 177.503 264.945 177.152 263.935 175.131C263.035 173.332 256.802 107.147 255.561 93.8971L255.854 68.6092C255.854 68.2604 256.098 66.4888 260.912 66.4766C265.449 65.7956 270.024 65.3993 274.61 65.2901C279.762 65.2901 284.972 65.5163 286.226 65.5743L299.98 52.3716L271.2 45.817C271.037 45.7794 270.894 45.6805 270.801 45.5406C270.708 45.4007 270.672 45.2304 270.701 45.0649L273.074 31.416C273.099 31.2712 273.171 31.139 273.28 31.0406C273.389 30.9422 273.528 30.8832 273.675 30.8731C284.703 30.0465 295.785 30.2486 306.775 31.4769C314.133 32.8689 324.342 35.7405 330.442 37.4541C333.108 38.2033 335.41 38.851 335.757 38.8843C335.997 38.9062 336.231 38.9874 336.432 39.1205C336.633 39.2535 336.799 39.4344 336.913 39.6469C337.421 40.5074 337.739 41.4665 337.846 42.4601C337.953 43.4536 337.846 44.4584 337.532 45.4072C336.564 47.9926 308.589 78.8855 300.285 86.8918C294.901 92.1691 289.813 97.7407 285.044 103.581L281.224 169.119C285.173 171.189 288.968 173.539 292.58 176.153C294.4 178.98 295.759 182.079 296.604 185.334C296.632 185.432 296.637 185.535 296.619 185.635C296.601 185.735 296.559 185.83 296.498 185.912C296.437 185.993 296.358 186.059 296.266 186.105C296.175 186.15 296.075 186.175 295.973 186.175ZM274.61 66.6029C270.074 66.7135 265.549 67.1068 261.062 67.7804L260.962 67.7882C257.531 67.7882 257.163 68.6856 257.159 68.6945L256.871 93.8427C259.81 125.186 264.434 172.626 265.124 174.575C265.804 175.934 268.517 176.272 272.621 176.782L273.208 176.855C280.62 178.851 287.881 181.368 294.937 184.388C294.233 181.794 293.125 179.328 291.652 177.079C288.012 174.482 284.195 172.14 280.23 170.072C280.12 170.013 280.03 169.923 279.97 169.814C279.91 169.706 279.881 169.582 279.889 169.458L283.747 103.293C283.754 103.157 283.804 103.027 283.889 102.921C288.731 96.9787 293.901 91.3121 299.376 85.9473C307.875 77.7525 335.484 47.0977 336.305 44.9468C336.575 44.1556 336.656 43.312 336.54 42.4839C336.424 41.6558 336.116 40.8665 335.639 40.1796C333.764 39.7931 331.911 39.3051 330.088 38.7178C324.008 37.0087 313.834 34.148 306.533 32.7666C295.823 31.5687 285.026 31.3625 274.278 32.1506L272.101 44.6747L301.46 51.3614C301.575 51.3879 301.681 51.4451 301.767 51.5269C301.852 51.6088 301.914 51.7122 301.946 51.8263C301.977 51.9403 301.978 52.0609 301.947 52.1751C301.915 52.2893 301.854 52.393 301.769 52.4752L286.933 66.7169C286.869 66.78 286.793 66.8289 286.709 66.8603C286.625 66.8916 286.535 66.9048 286.446 66.8989C286.385 66.8956 280.458 66.6029 274.61 66.6029Z" fill="#263238"/>
<path d="M272.236 118.526C272.181 118.526 272.127 118.519 272.074 118.505L264.062 116.428C263.948 116.398 263.844 116.339 263.76 116.255C263.677 116.171 263.618 116.066 263.589 115.952L262.106 110.018C262.083 109.928 262.08 109.834 262.096 109.742C262.112 109.651 262.148 109.564 262.2 109.488C262.252 109.411 262.32 109.346 262.399 109.297C262.478 109.249 262.566 109.217 262.658 109.205L278.68 107.129C278.847 107.109 279.015 107.153 279.151 107.252C279.286 107.351 279.379 107.498 279.411 107.662L280.598 114.19C280.624 114.333 280.602 114.481 280.535 114.61C280.468 114.739 280.36 114.842 280.228 114.903L272.513 118.464C272.426 118.504 272.332 118.526 272.236 118.526ZM264.767 115.255L272.174 117.175L279.214 113.927L278.229 108.513L263.557 110.415L264.767 115.255Z" fill="#263238"/>
<path d="M284.401 103.987C284.352 103.987 284.302 103.981 284.255 103.97C284.097 103.934 283.959 103.841 283.865 103.709C283.772 103.578 283.73 103.416 283.748 103.256L287.31 72.102C287.329 71.9289 287.417 71.7708 287.553 71.6624C287.69 71.5539 287.864 71.504 288.037 71.5237C288.21 71.5435 288.368 71.6311 288.476 71.7674C288.585 71.9037 288.635 72.0775 288.615 72.2506L285.724 97.5369L292.979 76.7059C293.037 76.5424 293.158 76.4087 293.314 76.3337C293.471 76.2587 293.65 76.2485 293.814 76.3056C293.978 76.3626 294.113 76.4822 294.189 76.6381C294.265 76.7941 294.276 76.9737 294.22 77.138L285.021 103.545C284.976 103.674 284.893 103.786 284.782 103.865C284.67 103.944 284.537 103.987 284.401 103.987Z" fill="#263238"/>
<path d="M304.676 52.9026C303.507 52.9226 302.339 52.8361 301.186 52.6443C301.016 52.6102 300.865 52.5099 300.769 52.3652C300.672 52.2205 300.637 52.0434 300.671 51.8728C300.687 51.7878 300.72 51.7069 300.767 51.6347C300.815 51.5626 300.876 51.5007 300.948 51.4526C301.02 51.4045 301.101 51.3713 301.186 51.3548C301.27 51.3383 301.358 51.339 301.442 51.3567C307.702 51.9933 314.018 50.9818 319.766 48.4225C319.927 48.3604 320.107 48.3645 320.265 48.4341C320.424 48.5036 320.548 48.6329 320.612 48.7939C320.675 48.9548 320.673 49.1344 320.605 49.2934C320.536 49.4524 320.408 49.5781 320.248 49.6431C315.307 51.694 310.025 52.7997 304.676 52.9026Z" fill="#263238"/>
<path d="M310.651 54.7564C309.636 54.7564 309.024 54.7345 309.002 54.7333C308.828 54.7264 308.664 54.6508 308.546 54.5232C308.428 54.3955 308.365 54.2261 308.372 54.0523C308.369 53.9644 308.386 53.877 308.42 53.7959C308.454 53.7149 308.505 53.6421 308.569 53.5824C308.634 53.5227 308.711 53.4774 308.794 53.4497C308.877 53.422 308.966 53.4125 309.053 53.4217C313.873 53.5462 318.692 53.1529 323.428 52.2485C323.598 52.2115 323.776 52.2436 323.922 52.3377C324.069 52.4318 324.172 52.5803 324.209 52.7505C324.246 52.9206 324.214 53.0985 324.12 53.2451C324.026 53.3916 323.877 53.4947 323.707 53.5317C319.407 54.3735 315.033 54.7837 310.651 54.7564Z" fill="#263238"/>
<path d="M235.148 64.7589L236.632 86.4182C237.986 88.1971 239.738 89.6336 241.748 90.6126C243.758 91.5917 245.969 92.0859 248.205 92.0556C255.622 91.7591 256.512 86.4182 256.512 86.4182V68.6161L235.148 64.7589Z" fill="white"/>
<path d="M247.657 92.724C245.407 92.674 243.197 92.1146 241.195 91.0878C239.192 90.0609 237.448 88.5934 236.094 86.7955C236.025 86.6978 235.985 86.5832 235.977 86.4641L234.494 64.8044C234.487 64.7048 234.503 64.605 234.541 64.5127C234.578 64.4203 234.637 64.3377 234.711 64.2711C234.785 64.2046 234.874 64.1559 234.97 64.1287C235.066 64.1015 235.167 64.0965 235.265 64.1141L256.628 67.9717C256.779 67.9989 256.916 68.0785 257.015 68.1966C257.114 68.3147 257.168 68.4638 257.167 68.6177V86.4199C256.665 88.3582 255.491 90.055 253.854 91.2078C252.217 92.3606 250.224 92.8944 248.229 92.7139C248.037 92.72 247.845 92.724 247.657 92.724ZM237.274 86.1803C238.574 87.8223 240.233 89.146 242.122 90.0507C244.011 90.9554 246.082 91.4172 248.177 91.4011C254.937 91.1302 255.829 86.5051 255.863 86.3086L255.855 69.1659L235.861 65.5552L237.274 86.1803Z" fill="#263238"/>
<path d="M256.808 76.0347L256.215 93.8373L262.445 84.0459C262.445 84.0459 269.27 92.6504 271.05 92.3535C272.83 92.0567 269.863 88.4959 269.27 85.2328C268.676 81.9697 263.632 70.3973 263.039 67.1334C262.446 63.8695 256.808 63.2759 256.511 64.76C256.35 66.0408 256.35 67.3368 256.511 68.6176L256.808 76.0347Z" fill="#7D7D7D"/>
<path d="M256.215 94.4932C256.127 94.4929 256.04 94.475 255.959 94.4406C255.878 94.4061 255.805 94.3557 255.744 94.2925C255.683 94.2293 255.635 94.1545 255.603 94.0725C255.571 93.9905 255.556 93.903 255.559 93.8151L256.153 76.0373L255.855 68.6437C255.687 67.3113 255.691 65.9627 255.868 64.6314C256.03 63.8164 256.924 63.332 258.264 63.332H258.315C259.492 63.2604 260.66 63.5836 261.633 64.2505C262.606 64.9174 263.329 65.8898 263.687 67.0138C264.537 70.0527 265.567 73.0382 266.773 75.9544C268.012 78.9383 269.063 81.9971 269.919 85.1128C270.226 86.4134 270.69 87.672 271.299 88.8611C272.021 90.4253 272.543 91.5553 272.12 92.3561C272.023 92.5321 271.886 92.6824 271.719 92.7942C271.552 92.9061 271.361 92.9762 271.161 92.9989C269.401 93.2933 264.876 88.0949 262.512 85.17L256.773 94.1874C256.714 94.2816 256.631 94.359 256.534 94.4125C256.436 94.466 256.326 94.4937 256.215 94.4932ZM262.446 83.389C262.545 83.389 262.643 83.4114 262.732 83.4545C262.821 83.4976 262.899 83.5603 262.96 83.6379C265.132 86.7742 267.838 89.5047 270.954 91.7048C270.792 90.9008 270.504 90.1273 270.101 89.4129C269.442 88.1246 268.945 86.7597 268.622 85.3495C267.772 82.3154 266.744 79.3346 265.541 76.4226C264.3 73.4342 263.248 70.3708 262.391 67.2505C262.167 66.5721 261.75 65.9738 261.192 65.529C260.633 65.0842 259.956 64.8123 259.245 64.7467C258.902 64.6332 258.54 64.5885 258.18 64.6153C257.82 64.6421 257.469 64.7399 257.147 64.903C257.003 66.1099 257.007 67.3298 257.16 68.5356L257.463 76.0072V76.0551L256.948 91.4558L261.889 83.692C261.946 83.6038 262.022 83.5303 262.112 83.4775C262.203 83.4248 262.304 83.3943 262.409 83.3886L262.446 83.389Z" fill="#263238"/>
<path d="M236.334 92.0553C236.334 92.0553 237.521 175.133 234.554 176.023C231.587 176.913 219.719 177.21 212.302 180.77C204.885 184.331 201.324 185.815 201.324 185.815C203.186 181.261 205.793 177.049 209.039 173.353C211.808 170.869 214.903 168.772 218.237 167.122L210.522 127.364C210.522 127.364 196.28 89.6811 195.985 87.6049C195.69 85.5287 222.985 70.0991 228.622 67.4289C234.26 64.7586 235.743 67.132 235.743 67.132L236.334 92.0553Z" fill="#7D7D7D"/>
<path d="M201.325 186.47C201.217 186.47 201.111 186.443 201.015 186.392C200.92 186.342 200.839 186.268 200.779 186.178C200.719 186.089 200.682 185.985 200.672 185.878C200.661 185.771 200.677 185.662 200.718 185.563C202.606 180.917 205.268 176.625 208.593 172.871C211.281 170.451 214.274 168.395 217.497 166.754L209.879 127.488C208.449 123.731 195.633 89.7848 195.334 87.6968C194.9 84.6513 226.734 67.5967 228.341 66.835C234.436 63.947 236.226 66.6664 236.3 66.783C236.363 66.8828 236.397 66.9978 236.4 67.1156L236.993 92.0392V92.0449C236.996 92.2524 237.289 113.059 237.215 133.707C237.065 175.955 235.613 176.391 234.745 176.651C233.102 177.021 231.436 177.285 229.758 177.439C223.873 177.896 218.088 179.218 212.588 181.361C205.238 184.889 201.614 186.404 201.578 186.419C201.498 186.453 201.412 186.47 201.325 186.47ZM196.652 87.603C197.131 89.7502 205.518 112.264 211.137 127.131L218.882 166.996C218.909 167.14 218.889 167.288 218.822 167.418C218.756 167.549 218.648 167.653 218.516 167.715C215.246 169.34 212.208 171.398 209.486 173.833C206.619 176.998 204.295 180.617 202.61 184.541C204.312 183.79 207.437 182.378 212.019 180.179C217.645 177.969 223.569 176.607 229.596 176.137C231.152 175.984 232.7 175.749 234.231 175.432C236.119 172.128 236.134 123.93 235.679 92.0677L235.092 67.3819C234.715 67.0404 233.121 66.0249 228.902 68.0211C222.676 70.9711 197.928 85.1419 196.652 87.603Z" fill="#263238"/>
<path d="M228.918 63.2753C228.918 63.2753 221.797 85.8251 221.203 88.7922C220.608 91.7593 221.203 91.7592 223.28 89.6822C225.357 87.6052 230.697 82.5612 230.697 82.5612L236.335 92.0557L236.038 74.5504V64.4622C236.038 64.4622 235.742 60.3086 228.918 63.2753Z" fill="#7D7D7D"/>
<path d="M236.335 92.7124C236.221 92.7124 236.109 92.6828 236.01 92.6265C235.911 92.5702 235.829 92.4891 235.771 92.3912L230.552 83.6028C229.1 84.9786 225.381 88.5097 223.745 90.1465C222.416 91.4735 221.61 92.0721 220.89 91.6896C220.183 91.3107 220.233 90.2927 220.56 88.6624C221.153 85.6945 228 63.9986 228.292 63.0768C228.32 62.9868 228.367 62.9038 228.43 62.8337C228.493 62.7636 228.571 62.708 228.657 62.6707C229.63 62.0712 230.729 61.7062 231.867 61.6043C233.004 61.5024 234.151 61.6664 235.214 62.0836C235.621 62.3344 235.966 62.6743 236.222 63.0777C236.478 63.4811 236.64 63.9375 236.694 64.4124L236.696 74.5472L236.993 92.0424C236.994 92.1295 236.979 92.2161 236.946 92.2969C236.914 92.3778 236.866 92.4515 236.805 92.5136C236.743 92.5757 236.671 92.625 236.59 92.6586C236.51 92.6923 236.422 92.7124 236.335 92.7124ZM229.453 63.7606C228.622 66.3976 222.39 86.2028 221.847 88.9214C221.749 89.3694 221.681 89.8235 221.644 90.2805C222.057 89.9529 222.448 89.598 222.815 89.2183C224.874 87.1587 230.192 82.1349 230.246 82.0846C230.317 82.0169 230.403 81.9662 230.497 81.9362C230.59 81.9062 230.69 81.8978 230.787 81.9114C230.885 81.925 230.978 81.9603 231.06 82.0149C231.142 82.0694 231.21 82.1416 231.261 82.2263L235.636 89.5942L235.381 74.5611V64.4623C235.335 64.202 235.234 63.9545 235.084 63.7365C234.935 63.5185 234.74 63.3351 234.514 63.1986C233.81 62.7808 232.36 62.5493 229.453 63.7606Z" fill="#263238"/>
<path d="M224.467 122.383C224.409 122.383 224.351 122.375 224.295 122.36L214.504 119.689C214.36 119.65 214.234 119.563 214.146 119.443C214.058 119.323 214.014 119.177 214.02 119.028L214.317 111.907C214.324 111.738 214.396 111.578 214.518 111.461C214.641 111.344 214.803 111.278 214.973 111.278H232.478C232.567 111.278 232.654 111.296 232.736 111.331C232.817 111.365 232.891 111.416 232.952 111.48C233.013 111.544 233.061 111.62 233.092 111.703C233.123 111.785 233.138 111.874 233.134 111.962L232.837 119.084C232.832 119.215 232.787 119.342 232.708 119.448C232.629 119.554 232.521 119.633 232.396 119.676L224.681 122.347C224.612 122.371 224.54 122.383 224.467 122.383ZM215.354 118.56L224.444 121.04L231.544 118.582L231.793 112.591H215.602L215.354 118.56Z" fill="#263238"/>
<path d="M263.04 33.9017C263.04 33.9017 267.194 52.0007 268.084 54.9678C268.974 57.9349 263.337 69.5048 261.557 72.1767C260.867 73.3294 259.918 74.3053 258.785 75.0265C257.651 75.7476 256.366 76.1943 255.029 76.3307C249.465 75.1607 244.078 73.2653 239.007 70.6933C236.337 68.9132 233.666 66.8358 233.666 66.8358C232.405 67.4129 231.002 67.6081 229.631 67.3971C228.26 67.1862 226.981 66.5785 225.951 65.6489C222.391 62.3849 217.644 58.5278 218.83 55.8575C219.403 54.5475 220.366 53.4458 221.588 52.7028C222.809 51.9597 224.23 51.6113 225.657 51.705C228.92 51.705 227.733 51.4083 227.733 51.4083C224.538 46.8195 222.502 41.5251 221.8 35.9779C221.8 29.1536 234.558 24.1095 241.976 24.1095C247.105 24.3236 252.143 25.533 256.811 27.6703L263.04 33.9017Z" fill="white"/>
<path d="M255.028 76.9867C249.335 75.8056 243.825 73.8726 238.642 71.2385C236.504 69.8136 234.345 68.1829 233.566 67.5868C232.221 68.1224 230.753 68.2701 229.329 68.0131C227.904 67.756 226.58 67.1045 225.507 66.1327L224.381 65.1102C220.739 61.8211 216.972 58.4204 218.23 55.5909C218.855 54.1659 219.902 52.9665 221.229 52.1542C222.557 51.3418 224.101 50.9555 225.654 51.0471C226.089 51.0471 226.43 51.0422 226.699 51.0337C223.633 46.55 221.724 41.3779 221.14 35.9777C221.14 28.3308 234.82 23.4531 241.971 23.4531C247.201 23.6564 252.338 24.8883 257.091 27.0785C257.158 27.1105 257.219 27.1536 257.271 27.206L263.502 33.437C263.589 33.5238 263.65 33.6338 263.677 33.7541C263.718 33.9348 267.837 51.8645 268.71 54.7788C269.725 58.1589 263.804 69.9842 262.099 72.5404C261.347 73.7795 260.316 74.8263 259.089 75.5981C257.861 76.3698 256.471 76.8453 255.028 76.9867ZM233.666 66.1794C233.812 66.1794 233.953 66.228 234.069 66.3175C234.095 66.3378 236.752 68.4006 239.37 70.1462C244.331 72.652 249.594 74.5097 255.028 75.6739C256.257 75.541 257.438 75.1226 258.476 74.4521C259.515 73.7816 260.382 72.8776 261.009 71.8123C262.885 68.9987 268.233 57.7536 267.455 55.1556C266.607 52.3286 262.907 36.251 262.442 34.2316L256.427 28.2162C251.874 26.1507 246.968 24.9789 241.973 24.7647C234.443 24.7647 222.453 29.8953 222.453 35.9761C223.125 41.3269 225.083 46.4355 228.159 50.8648C228.301 50.9251 228.419 51.0293 228.498 51.162C228.576 51.2947 228.609 51.449 228.593 51.6022C228.509 52.2839 227.924 52.3586 225.654 52.3586C224.355 52.2647 223.058 52.5763 221.944 53.2504C220.829 53.9246 219.951 54.9281 219.43 56.1225C218.559 58.0829 222.273 61.4382 225.261 64.1345L226.394 65.163C227.323 66.0091 228.48 66.563 229.721 66.7556C230.962 66.9482 232.233 66.7709 233.374 66.2459C233.465 66.2017 233.565 66.179 233.666 66.1794Z" fill="#263238"/>
<path d="M252.654 55.0313C252.556 55.0313 252.459 55.0091 252.37 54.9665C252.281 54.9238 252.203 54.8617 252.141 54.7849L249.767 51.8182C249.658 51.6822 249.608 51.5085 249.627 51.3354C249.646 51.1623 249.734 51.004 249.87 50.8952C250.006 50.7864 250.179 50.7362 250.352 50.7554C250.525 50.7747 250.684 50.862 250.793 50.998L252.79 53.4949L257.135 50.5972L252.072 41.0336C251.991 40.8797 251.975 40.7001 252.027 40.5342C252.078 40.3684 252.193 40.2296 252.347 40.1485C252.501 40.0673 252.68 40.0502 252.846 40.1011C253.012 40.1519 253.152 40.2665 253.233 40.4197L258.573 50.5075C258.649 50.6512 258.669 50.8179 258.629 50.9753C258.589 51.1328 258.492 51.2699 258.357 51.3601L253.017 54.9205C252.909 54.9923 252.783 55.0309 252.654 55.0313Z" fill="#263238"/>
<path d="M259.181 56.8107C259.054 56.8105 258.929 56.7732 258.822 56.7032C258.716 56.6333 258.632 56.5339 258.58 56.417C258.529 56.3002 258.513 56.171 258.534 56.0452C258.555 55.9194 258.613 55.8025 258.699 55.7087C261.95 52.1861 261.795 50.0149 261.793 49.9938C261.777 49.8217 261.829 49.6502 261.938 49.5162C262.047 49.3821 262.205 49.2961 262.376 49.2767C262.547 49.2567 262.718 49.3049 262.853 49.4108C262.988 49.5167 263.076 49.6717 263.097 49.842C263.111 49.9516 263.388 52.5646 259.663 56.5996C259.602 56.6662 259.527 56.7194 259.444 56.7557C259.361 56.7921 259.272 56.8108 259.181 56.8107Z" fill="#263238"/>
<path d="M247.018 44.4357C247.018 45.8285 246.42 46.9574 245.683 46.9574C244.945 46.9574 244.348 45.8285 244.348 44.4357C244.348 43.0429 244.945 41.9137 245.683 41.9137C246.42 41.9137 247.018 43.0409 247.018 44.4357Z" fill="#263238"/>
<path d="M256.362 42.2089C257.1 42.2089 257.698 41.0797 257.698 39.6868C257.698 38.2939 257.1 37.1648 256.362 37.1648C255.625 37.1648 255.027 38.2939 255.027 39.6868C255.027 41.0797 255.625 42.2089 256.362 42.2089Z" fill="#263238"/>
<path d="M230.994 18.4734C230.994 18.4734 212.302 25.2977 211.708 33.9038C211.115 42.5099 228.324 54.3766 229.214 55.8599C230.104 57.3433 232.774 54.0798 232.774 54.0798C232.181 53.2817 231.768 52.3645 231.563 51.3913C231.358 50.4181 231.366 49.4121 231.588 48.4424C232.478 45.4753 236.335 41.915 236.335 40.4312C236.335 38.9475 231.884 41.6181 231.884 37.1677C231.884 32.7172 242.863 30.0466 249.39 30.3435C255.918 30.6403 261.555 41.6182 266.302 36.2776C271.049 30.9371 264.225 29.4533 264.225 29.4533C264.225 29.4533 273.423 28.2664 273.423 23.5192C273.328 21.6183 272.607 19.8022 271.373 18.3533C270.139 16.9045 268.461 15.9041 266.599 15.508C264.522 15.508 258.884 19.0687 258.884 15.2111C258.884 11.3535 264.521 9.57418 259.181 3.34316C258.372 2.36624 257.314 1.6254 256.12 1.19853C254.926 0.771668 253.638 0.674596 252.393 0.91748C251.148 1.16036 249.992 1.73423 249.046 2.57876C248.099 3.42328 247.398 4.50724 247.015 5.7166C247.015 8.09044 245.235 12.5409 244.048 12.5409C242.861 12.5409 239.301 7.20035 235.147 10.1674C233.893 11.1663 232.871 12.427 232.153 13.8616C231.436 15.2962 231.04 16.8702 230.994 18.4734Z" fill="#263238"/>
<path d="M229.858 56.9028L229.754 56.8992C229.526 56.8821 229.307 56.8092 229.115 56.6868C228.922 56.5645 228.763 56.3965 228.652 56.1978C227.869 55.4163 227.041 54.6817 226.171 53.9978C221.107 49.7439 210.569 40.8906 211.053 33.8572C211.627 25.5565 227.505 19.1049 230.358 18.0114C230.451 16.3806 230.893 14.7888 231.654 13.3432C232.414 11.8977 233.476 10.6321 234.767 9.6319C236.081 8.86733 237.622 8.59234 239.119 8.8556C240.615 9.11885 241.971 9.90336 242.944 11.0702C243.292 11.385 243.675 11.6589 244.085 11.8864C245.467 10.116 246.262 7.9582 246.359 5.71422C246.359 4.11758 248.511 1.53584 251.385 0.471959C252.844 -0.0873042 254.446 -0.151245 255.945 0.289982C257.444 0.73121 258.756 1.65313 259.679 2.91362C263.537 7.4136 262.042 9.91451 260.723 12.1206C260.055 13.0231 259.646 14.0909 259.541 15.2087C259.515 15.3849 259.531 15.5645 259.587 15.7335C259.642 15.9026 259.736 16.0565 259.861 16.1833C260.529 16.6617 262.425 16.0184 263.811 15.5482C264.702 15.1828 265.641 14.9478 266.598 14.8506C268.638 15.2436 270.486 16.3128 271.844 17.8855C273.201 19.4582 273.989 21.4425 274.079 23.518C274.079 27.2347 269.407 28.9593 266.52 29.6719C267.422 30.1452 268.12 30.932 268.482 31.8841C268.655 32.7665 268.589 33.679 268.292 34.5277C267.995 35.3763 267.477 36.1305 266.792 36.7126C263.633 40.2668 260.14 37.5373 256.762 34.904C254.726 32.9122 252.154 31.5553 249.361 30.9985C243.794 30.6673 238.267 32.1199 233.582 35.1452C233.28 35.393 233.031 35.7002 232.852 36.048C232.673 36.3958 232.567 36.7766 232.541 37.167C232.476 37.7737 232.65 38.3819 233.025 38.8631C233.6 39.2335 234.293 39.3757 234.968 39.2618C235.262 39.2083 235.565 39.2135 235.858 39.2771C236.15 39.3407 236.427 39.4615 236.673 39.6326C236.778 39.7366 236.861 39.8611 236.916 39.9984C236.971 40.1356 236.997 40.2827 236.993 40.4305C236.646 41.8032 235.947 43.0615 234.965 44.081C233.819 45.4454 232.892 46.9796 232.218 48.6289C232.029 49.4985 232.027 50.3984 232.213 51.2687C232.398 52.139 232.768 52.9597 233.295 53.6763C233.386 53.7939 233.434 53.9386 233.432 54.087C233.43 54.2354 233.377 54.3787 233.283 54.4936C232.813 55.0678 231.206 56.9028 229.858 56.9028ZM237.753 9.92144C236.948 9.93589 236.169 10.208 235.53 10.6978C234.363 11.639 233.412 12.8208 232.743 14.1624C232.074 15.5041 231.701 16.9742 231.651 18.4727C231.651 18.6071 231.609 18.7382 231.532 18.8482C231.455 18.9583 231.346 19.0421 231.219 19.0883C231.037 19.1549 212.921 25.8638 212.364 33.9449C211.925 40.3115 222.118 48.8746 227.016 52.9892C228.024 53.7315 228.949 54.5796 229.777 55.5189C230.246 55.6144 231.201 54.8457 231.948 54.0283C231.39 53.1869 231.014 52.2384 230.844 51.2435C230.673 50.2485 230.712 49.229 230.958 48.25C231.67 46.4508 232.667 44.7781 233.91 43.2961C234.605 42.4676 235.192 41.5545 235.657 40.5787C235.479 40.5624 235.201 40.5686 234.998 40.5734C234.489 40.6479 233.97 40.6178 233.473 40.4852C232.976 40.3525 232.511 40.1201 232.107 39.8019C231.789 39.4458 231.547 39.0284 231.396 38.5754C231.245 38.1224 231.188 37.6432 231.228 37.1674C231.251 36.5988 231.391 36.0412 231.64 35.5297C231.889 35.0182 232.242 34.5641 232.676 34.1962C237.616 30.9073 243.497 29.3244 249.42 29.6889C252.495 30.2336 255.335 31.6909 257.57 33.8714C261.232 36.7268 263.59 38.3441 265.812 35.844C267.065 34.4342 267.544 33.2399 267.236 32.2946C266.719 30.711 264.113 30.1019 264.086 30.0978C263.935 30.0648 263.8 29.9795 263.706 29.857C263.611 29.7344 263.563 29.5825 263.57 29.428C263.576 29.2734 263.637 29.1262 263.742 29.0122C263.846 28.8981 263.988 28.8246 264.141 28.8045C266.541 28.4931 272.768 26.9366 272.768 23.5213C272.663 21.7966 272.007 20.1512 270.896 18.8273C269.786 17.5033 268.28 16.5707 266.6 16.1666C265.789 16.2781 264.994 16.4891 264.235 16.7949C262.308 17.449 260.313 18.1259 259.098 17.2533C258.797 17.0114 258.559 16.6986 258.408 16.3427C258.256 15.9868 258.195 15.5989 258.23 15.2136C258.323 13.856 258.797 12.5522 259.597 11.4515C260.847 9.36148 261.927 7.55573 258.683 3.77245C257.935 2.71665 256.856 1.94039 255.618 1.56642C254.379 1.19246 253.051 1.24214 251.843 1.70763C250.887 2.01145 250.014 2.53132 249.29 3.22695C248.567 3.92259 248.014 4.77531 247.673 5.71911C247.673 8.05641 245.921 13.2 244.05 13.2C243.485 13.2 242.942 12.761 242.119 12.0955C240.944 10.9082 239.409 10.1437 237.753 9.92144Z" fill="#263238"/>
<path d="M238.708 41.9754C238.554 41.9757 238.405 41.9219 238.287 41.8233C238.169 41.7248 238.089 41.5878 238.061 41.4364C238.034 41.2849 238.06 41.1286 238.137 40.9948C238.213 40.861 238.333 40.7582 238.478 40.7044L247.972 37.1432C248.135 37.082 248.315 37.0881 248.474 37.1601C248.633 37.2321 248.756 37.3641 248.817 37.5272C248.879 37.6902 248.872 37.8709 248.8 38.0295C248.728 38.1881 248.596 38.3116 248.433 38.3728L238.939 41.934C238.865 41.9613 238.787 41.9753 238.708 41.9754Z" fill="#263238"/>
<path d="M249.684 34.2582C249.542 34.2586 249.403 34.2126 249.29 34.1272C249.176 34.0418 249.094 33.9217 249.055 33.7851C248.834 32.6984 248.998 31.5685 249.521 30.5902C249.6 30.4376 249.735 30.3221 249.898 30.2682C250.062 30.2144 250.239 30.2266 250.394 30.3022C250.548 30.3778 250.666 30.5108 250.724 30.6728C250.781 30.8347 250.773 31.0126 250.7 31.1685C250.321 31.858 250.187 32.6558 250.32 33.4315C250.345 33.5289 250.348 33.6309 250.329 33.7297C250.309 33.8285 250.266 33.9214 250.205 34.0013C250.144 34.0811 250.065 34.1459 249.974 34.1904C249.884 34.235 249.784 34.2581 249.684 34.2582Z" fill="#263238"/>
</svg>
