<svg width="31" height="23" viewBox="0 0 31 23" fill="none" xmlns="http://www.w3.org/2000/svg">
<path d="M0 10.5457H7.51891C7.39037 16.0255 5.83614 16.6475 3.88408 16.8251L3.13131 16.9184V22.944L3.999 22.8975C6.54805 22.754 9.36623 22.2945 11.2464 19.9734C12.8946 17.9387 13.6212 14.6145 13.6212 9.51157V0.0557861H0V10.5457ZM17.3788 0.0557861V10.5457H24.7973C24.6688 16.0255 23.1648 16.6475 21.2128 16.8251L20.5101 16.9184V22.944L21.3277 22.8975C23.8767 22.754 26.7201 22.2945 28.6003 19.9734C30.2483 17.9387 31 14.6145 31 9.51157V0.0557861H17.3788Z" fill="#6AFF02"/>
</svg>
