<svg width="31" height="23" viewBox="0 0 31 23" fill="none" xmlns="http://www.w3.org/2000/svg">
<path d="M0 10.4899H7.51891C7.39037 15.9697 5.83614 16.5917 3.88408 16.7693L3.13131 16.8626V22.8882L3.999 22.8417C6.54805 22.6983 9.36623 22.2387 11.2464 19.9177C12.8946 17.8829 13.6212 14.5587 13.6212 9.45578V0H0V10.4899ZM17.3788 0V10.4899H24.7973C24.6688 15.9697 23.1648 16.5917 21.2128 16.7693L20.5101 16.8626V22.8882L21.3277 22.8417C23.8767 22.6983 26.7201 22.2387 28.6003 19.9177C30.2483 17.8829 31 14.5587 31 9.45578V0H17.3788Z" fill="white"/>
</svg>
