<svg width="4382" height="1092" viewBox="0 0 4382 1092" fill="none" xmlns="http://www.w3.org/2000/svg">
<path d="M608.991 306.371H240.588C207.695 306.371 159.45 321.721 135.329 343.65C95.8568 380.929 67.3509 442.33 128.752 512.502C161.645 551.974 216.465 554.167 269.094 554.167C356.809 554.167 444.525 556.36 532.24 556.36C547.59 556.36 683.549 565.131 749.336 666.004C780.036 714.247 784.421 762.491 784.421 782.227C784.421 799.77 788.808 867.749 747.143 929.15C670.392 1043.18 516.89 1038.79 510.311 1038.79C354.616 1036.6 249.358 1043.18 93.6633 1038.79" stroke="#69FF00" stroke-width="102.4" stroke-miterlimit="10" stroke-linecap="round"/>
<path d="M52 775.651H604.605" stroke="white" stroke-width="102.4" stroke-miterlimit="10" stroke-linecap="round" stroke-linejoin="round"/>
<path d="M52 52H532.239C602.411 52 672.585 76.1217 725.214 122.172C791 181.38 837.05 282.253 727.406 440.14" stroke="white" stroke-width="102.4" stroke-miterlimit="10" stroke-linecap="round"/>
<path d="M585.841 398.035C635.496 398.035 675.749 357.772 675.749 308.105C675.749 258.438 635.496 218.175 585.841 218.175C536.186 218.175 495.934 258.438 495.934 308.105C495.934 357.772 536.186 398.035 585.841 398.035Z" fill="white" stroke="#1B212A" stroke-width="34.1334" stroke-miterlimit="10"/>
<path d="M585.841 867.231C635.496 867.231 675.749 826.968 675.749 777.302C675.749 727.635 635.496 687.372 585.841 687.372C536.186 687.372 495.934 727.635 495.934 777.302C495.934 826.968 536.186 867.231 585.841 867.231Z" fill="#69FF00" stroke="#1B212A" stroke-width="34.1334" stroke-miterlimit="10"/>
<path d="M742.242 505.56C791.897 505.56 832.15 465.297 832.15 415.63C832.15 365.964 791.897 325.701 742.242 325.701C692.587 325.701 652.334 365.964 652.334 415.63C652.334 465.297 692.587 505.56 742.242 505.56Z" fill="#69FF00" stroke="#1B212A" stroke-width="34.1334" stroke-miterlimit="10"/>
<path d="M1342.82 688.609C1342.82 712.386 1338.38 733.053 1329.49 750.609C1320.82 768.164 1308.6 782.72 1292.82 794.275C1277.04 805.609 1258.26 814.053 1236.49 819.609C1214.71 825.164 1190.93 827.942 1165.15 827.942C1142.26 827.942 1120.15 826.609 1098.82 823.942C1077.49 821.276 1056.37 816.831 1035.49 810.609V729.609C1045.71 733.164 1056.37 736.498 1067.49 739.609C1078.6 742.72 1089.71 745.498 1100.82 747.942C1112.15 750.164 1123.38 751.942 1134.49 753.275C1145.6 754.609 1156.38 755.275 1166.82 755.275C1182.38 755.275 1195.6 753.942 1206.49 751.275C1217.38 748.609 1226.26 744.942 1233.15 740.275C1240.04 735.609 1245.04 730.053 1248.15 723.609C1251.26 717.164 1252.82 710.053 1252.82 702.275C1252.82 691.609 1249.71 682.72 1243.49 675.609C1237.49 668.275 1229.49 661.831 1219.49 656.275C1209.49 650.72 1198.04 645.72 1185.15 641.275C1172.49 636.831 1159.49 632.053 1146.15 626.942C1133.04 621.831 1120.04 616.053 1107.15 609.608C1094.49 603.164 1083.15 595.164 1073.15 585.608C1063.15 576.053 1055.04 564.719 1048.82 551.608C1042.82 538.275 1039.82 522.275 1039.82 503.608C1039.82 486.497 1042.93 470.275 1049.15 454.941C1055.37 439.608 1065.15 426.275 1078.49 414.941C1091.82 403.386 1108.93 394.275 1129.82 387.608C1150.71 380.719 1175.93 377.275 1205.49 377.275C1214.15 377.275 1223.15 377.719 1232.49 378.608C1242.04 379.275 1251.38 380.275 1260.49 381.608C1269.82 382.719 1278.71 384.164 1287.15 385.941C1295.82 387.497 1303.71 389.164 1310.82 390.941V465.942C1303.71 463.275 1295.93 460.83 1287.49 458.608C1279.04 456.386 1270.26 454.497 1261.15 452.941C1252.26 451.164 1243.26 449.83 1234.15 448.941C1225.04 448.053 1216.38 447.608 1208.15 447.608C1193.71 447.608 1181.49 448.83 1171.49 451.275C1161.49 453.497 1153.26 456.719 1146.82 460.941C1140.38 464.942 1135.71 469.942 1132.82 475.942C1129.93 481.942 1128.49 488.608 1128.49 495.942C1128.49 505.053 1131.49 512.942 1137.49 519.608C1143.71 526.053 1151.82 531.942 1161.82 537.275C1172.04 542.386 1183.49 547.275 1196.15 551.942C1209.04 556.386 1222.15 561.275 1235.49 566.608C1249.04 571.719 1262.15 577.608 1274.82 584.275C1287.71 590.942 1299.15 599.053 1309.15 608.608C1319.38 618.164 1327.49 629.497 1333.49 642.609C1339.71 655.497 1342.82 670.831 1342.82 688.609ZM1729.49 648.275C1729.49 674.942 1725.71 699.386 1718.15 721.609C1710.6 743.609 1699.71 762.498 1685.49 778.275C1671.27 794.053 1653.82 806.275 1633.15 814.942C1612.49 823.609 1588.93 827.942 1562.49 827.942C1537.38 827.942 1514.93 824.276 1495.15 816.942C1475.38 809.609 1458.6 798.72 1444.82 784.275C1431.04 769.609 1420.49 751.386 1413.15 729.609C1405.82 707.609 1402.15 682.053 1402.15 652.942C1402.15 626.053 1405.93 601.608 1413.49 579.608C1421.26 557.608 1432.26 538.831 1446.49 523.275C1460.93 507.719 1478.49 495.719 1499.15 487.275C1519.82 478.608 1543.15 474.275 1569.15 474.275C1594.49 474.275 1617.04 478.053 1636.82 485.608C1656.6 492.942 1673.38 503.942 1687.15 518.608C1700.93 533.275 1711.38 551.497 1718.49 573.275C1725.82 594.831 1729.49 619.831 1729.49 648.275ZM1644.82 650.275C1644.82 615.164 1638.15 588.831 1624.82 571.275C1611.71 553.497 1592.26 544.608 1566.49 544.608C1552.26 544.608 1540.15 547.386 1530.15 552.942C1520.15 558.497 1511.93 566.164 1505.49 575.942C1499.04 585.497 1494.26 596.72 1491.15 609.608C1488.26 622.497 1486.82 636.275 1486.82 650.942C1486.82 686.275 1493.93 712.942 1508.15 730.942C1522.38 748.72 1541.82 757.609 1566.49 757.609C1580.04 757.609 1591.82 754.942 1601.82 749.609C1611.82 744.053 1619.93 736.498 1626.15 726.942C1632.38 717.164 1637.04 705.72 1640.15 692.609C1643.26 679.497 1644.82 665.386 1644.82 650.275ZM2103.82 418.275C2094.04 415.164 2082.38 412.608 2068.82 410.608C2055.49 408.386 2041.82 407.275 2027.82 407.275C2018.27 407.275 2009.38 408.608 2001.15 411.275C1992.93 413.719 1985.82 417.719 1979.82 423.275C1973.82 428.83 1969.04 435.941 1965.49 444.608C1962.15 453.053 1960.49 463.386 1960.49 475.608V530.275H2093.49V593.608H1960.49V820.276H1878.49V593.608H1780.15V530.275H1878.49V478.942C1878.49 454.941 1881.93 434.386 1888.82 417.275C1895.93 399.941 1905.82 385.83 1918.49 374.941C1931.38 363.83 1946.82 355.719 1964.82 350.608C1982.82 345.497 2002.93 342.941 2025.15 342.941C2039.82 342.941 2053.71 343.941 2066.82 345.941C2080.15 347.719 2092.49 349.941 2103.82 352.608V418.275ZM2454.49 816.942C2439.82 820.276 2425.04 822.942 2410.16 824.942C2395.27 826.942 2381.16 827.942 2367.82 827.942C2345.6 827.942 2326.38 825.609 2310.16 820.942C2294.16 816.276 2280.82 809.164 2270.16 799.609C2259.71 790.053 2251.93 777.942 2246.82 763.275C2241.93 748.386 2239.49 730.72 2239.49 710.275V544.942H2148.49V481.608H2239.49V394.941L2322.82 373.275V481.608H2454.49V544.942H2322.82V704.275C2322.82 723.609 2327.27 738.275 2336.16 748.275C2345.04 758.053 2359.93 762.942 2380.82 762.942C2394.16 762.942 2407.16 761.831 2419.82 759.609C2432.49 757.387 2444.04 754.831 2454.49 751.942V816.942Z" fill="#69FF00"/>
<path d="M2842.82 689.942C2842.82 710.831 2838.71 729.386 2830.49 745.609C2822.49 761.609 2810.93 775.164 2795.82 786.275C2780.93 797.387 2762.82 805.831 2741.49 811.609C2720.38 817.387 2696.82 820.276 2670.82 820.276H2556.82V384.608H2681.49C2778.6 384.608 2827.16 419.941 2827.16 490.608C2827.16 514.164 2821.49 534.386 2810.16 551.275C2799.04 568.164 2780.82 580.72 2755.49 588.942C2767.27 591.164 2778.38 594.942 2788.82 600.275C2799.49 605.608 2808.82 612.497 2816.82 620.942C2824.82 629.386 2831.16 639.386 2835.82 650.942C2840.49 662.497 2842.82 675.497 2842.82 689.942ZM2765.49 498.608C2765.49 489.719 2764.16 481.386 2761.49 473.608C2758.82 465.608 2754.16 458.83 2747.49 453.275C2740.82 447.497 2731.82 442.941 2720.49 439.608C2709.16 436.275 2694.82 434.608 2677.49 434.608H2616.16V570.942H2675.49C2689.04 570.942 2701.27 569.497 2712.16 566.608C2723.27 563.719 2732.71 559.275 2740.49 553.275C2748.49 547.275 2754.6 539.831 2758.82 530.942C2763.27 521.83 2765.49 511.053 2765.49 498.608ZM2779.82 691.942C2779.82 680.831 2777.49 670.831 2772.82 661.942C2768.16 653.053 2761.38 645.609 2752.49 639.609C2743.6 633.386 2732.71 628.608 2719.82 625.275C2707.16 621.942 2692.82 620.275 2676.82 620.275H2616.16V770.275H2678.82C2712.82 770.275 2738.16 763.942 2754.82 751.275C2771.49 738.609 2779.82 718.831 2779.82 691.942ZM3201.82 820.276H3149.82L3147.82 766.275C3137.82 777.831 3128.27 787.498 3119.16 795.275C3110.27 802.831 3101.38 808.942 3092.49 813.609C3083.6 818.276 3074.6 821.498 3065.49 823.276C3056.6 825.276 3047.16 826.276 3037.16 826.276C3002.71 826.276 2976.71 816.164 2959.16 795.942C2941.6 775.72 2932.82 745.164 2932.82 704.275V485.608H2990.82V699.609C2990.82 750.942 3010.16 776.609 3048.82 776.609C3055.93 776.609 3062.82 775.609 3069.49 773.609C3076.38 771.387 3083.49 767.72 3090.82 762.609C3098.38 757.275 3106.38 750.164 3114.82 741.275C3123.49 732.386 3133.16 721.164 3143.82 707.609V485.608H3201.82V820.276ZM3573.16 728.942C3573.16 740.72 3571.16 751.275 3567.16 760.609C3563.16 769.942 3557.71 778.275 3550.82 785.609C3543.94 792.72 3535.94 798.831 3526.82 803.942C3517.71 809.053 3507.94 813.275 3497.49 816.609C3487.27 819.942 3476.71 822.387 3465.82 823.942C3454.94 825.498 3444.27 826.276 3433.82 826.276C3411.16 826.276 3390.27 825.276 3371.16 823.276C3352.27 821.276 3333.71 818.053 3315.49 813.609V760.275C3335.05 765.831 3354.49 770.053 3373.82 772.942C3393.16 775.831 3412.38 777.275 3431.49 777.275C3459.27 777.275 3479.82 773.498 3493.16 765.942C3506.49 758.387 3513.16 747.609 3513.16 733.609C3513.16 727.609 3512.05 722.275 3509.82 717.609C3507.82 712.72 3504.05 708.164 3498.49 703.942C3492.94 699.498 3484.27 694.942 3472.49 690.275C3460.94 685.609 3445.05 680.275 3424.82 674.275C3409.71 669.831 3395.71 664.831 3382.82 659.275C3370.16 653.497 3359.16 646.72 3349.82 638.942C3340.49 631.164 3333.16 622.053 3327.82 611.608C3322.49 601.164 3319.82 588.831 3319.82 574.608C3319.82 565.275 3321.93 555.053 3326.16 543.942C3330.6 532.831 3338.05 522.497 3348.49 512.942C3358.94 503.386 3373.05 495.497 3390.82 489.275C3408.6 482.83 3430.82 479.608 3457.49 479.608C3470.6 479.608 3485.16 480.386 3501.16 481.942C3517.16 483.275 3533.82 485.719 3551.16 489.275V540.942C3532.94 536.497 3515.6 533.275 3499.16 531.275C3482.94 529.053 3468.82 527.942 3456.82 527.942C3442.38 527.942 3430.16 529.053 3420.16 531.275C3410.38 533.497 3402.38 536.608 3396.16 540.608C3390.16 544.386 3385.82 548.942 3383.16 554.275C3380.49 559.386 3379.16 564.942 3379.16 570.942C3379.16 576.942 3380.27 582.386 3382.49 587.275C3384.94 592.164 3389.27 596.942 3395.49 601.608C3401.94 606.053 3410.82 610.608 3422.16 615.275C3433.49 619.72 3448.27 624.608 3466.49 629.942C3486.27 635.72 3502.94 641.831 3516.49 648.275C3530.05 654.497 3541.05 661.497 3549.49 669.275C3557.94 677.053 3563.94 685.831 3567.49 695.609C3571.27 705.386 3573.16 716.498 3573.16 728.942ZM3966.16 635.275C3966.16 643.497 3966.05 650.386 3965.83 655.942C3965.6 661.497 3965.27 666.72 3964.83 671.609H3729.82C3729.82 705.831 3739.38 732.164 3758.49 750.609C3777.6 768.831 3805.16 777.942 3841.16 777.942C3850.94 777.942 3860.71 777.609 3870.49 776.942C3880.27 776.053 3889.71 774.942 3898.82 773.609C3907.94 772.275 3916.6 770.831 3924.82 769.275C3933.27 767.498 3941.05 765.609 3948.16 763.609V811.275C3932.38 815.72 3914.49 819.276 3894.49 821.942C3874.71 824.831 3854.16 826.276 3832.82 826.276C3804.16 826.276 3779.49 822.387 3758.82 814.609C3738.16 806.831 3721.16 795.609 3707.82 780.942C3694.71 766.053 3684.94 747.942 3678.49 726.609C3672.27 705.053 3669.16 680.72 3669.16 653.609C3669.16 630.053 3672.49 607.831 3679.16 586.942C3686.05 565.831 3695.94 547.386 3708.82 531.608C3721.94 515.608 3737.94 502.942 3756.82 493.608C3775.71 484.275 3797.16 479.608 3821.16 479.608C3844.49 479.608 3865.16 483.275 3883.16 490.608C3901.16 497.942 3916.27 508.386 3928.49 521.942C3940.94 535.275 3950.27 551.608 3956.49 570.942C3962.94 590.053 3966.16 611.497 3966.16 635.275ZM3905.82 626.942C3906.49 612.053 3905.05 598.497 3901.49 586.275C3897.94 573.831 3892.38 563.164 3884.82 554.275C3877.49 545.386 3868.27 538.497 3857.16 533.608C3846.05 528.497 3833.16 525.942 3818.49 525.942C3805.82 525.942 3794.27 528.386 3783.82 533.275C3773.38 538.164 3764.38 545.053 3756.82 553.942C3749.27 562.831 3743.16 573.497 3738.49 585.942C3733.82 598.386 3730.94 612.053 3729.82 626.942H3905.82ZM4323.83 728.942C4323.83 740.72 4321.83 751.275 4317.83 760.609C4313.83 769.942 4308.38 778.275 4301.49 785.609C4294.6 792.72 4286.6 798.831 4277.49 803.942C4268.38 809.053 4258.6 813.275 4248.16 816.609C4237.94 819.942 4227.38 822.387 4216.49 823.942C4205.6 825.498 4194.94 826.276 4184.49 826.276C4161.83 826.276 4140.94 825.276 4121.83 823.276C4102.94 821.276 4084.38 818.053 4066.16 813.609V760.275C4085.71 765.831 4105.16 770.053 4124.49 772.942C4143.83 775.831 4163.05 777.275 4182.16 777.275C4209.94 777.275 4230.49 773.498 4243.83 765.942C4257.16 758.387 4263.83 747.609 4263.83 733.609C4263.83 727.609 4262.71 722.275 4260.49 717.609C4258.49 712.72 4254.71 708.164 4249.16 703.942C4243.6 699.498 4234.94 694.942 4223.16 690.275C4211.6 685.609 4195.71 680.275 4175.49 674.275C4160.38 669.831 4146.38 664.831 4133.49 659.275C4120.83 653.497 4109.83 646.72 4100.49 638.942C4091.16 631.164 4083.83 622.053 4078.49 611.608C4073.16 601.164 4070.49 588.831 4070.49 574.608C4070.49 565.275 4072.6 555.053 4076.83 543.942C4081.27 532.831 4088.71 522.497 4099.16 512.942C4109.6 503.386 4123.71 495.497 4141.49 489.275C4159.27 482.83 4181.49 479.608 4208.16 479.608C4221.27 479.608 4235.83 480.386 4251.83 481.942C4267.83 483.275 4284.49 485.719 4301.83 489.275V540.942C4283.6 536.497 4266.27 533.275 4249.83 531.275C4233.6 529.053 4219.49 527.942 4207.49 527.942C4193.05 527.942 4180.83 529.053 4170.83 531.275C4161.05 533.497 4153.05 536.608 4146.83 540.608C4140.83 544.386 4136.49 548.942 4133.83 554.275C4131.16 559.386 4129.83 564.942 4129.83 570.942C4129.83 576.942 4130.94 582.386 4133.16 587.275C4135.6 592.164 4139.94 596.942 4146.16 601.608C4152.6 606.053 4161.49 610.608 4172.83 615.275C4184.16 619.72 4198.94 624.608 4217.16 629.942C4236.94 635.72 4253.6 641.831 4267.16 648.275C4280.71 654.497 4291.71 661.497 4300.16 669.275C4308.6 677.053 4314.6 685.831 4318.16 695.609C4321.94 705.386 4323.83 716.498 4323.83 728.942Z" fill="white"/>
</svg>
