<svg width="41" height="40" viewBox="0 0 41 40" fill="none" xmlns="http://www.w3.org/2000/svg">
<path d="M22.375 5H18.625C18.4592 5 18.3003 4.93415 18.1831 4.81694C18.0658 4.69973 18 4.54076 18 4.375C18 4.20924 18.0658 4.05027 18.1831 3.93306C18.3003 3.81585 18.4592 3.75 18.625 3.75H22.375C22.5408 3.75 22.6997 3.81585 22.8169 3.93306C22.9342 4.05027 23 4.20924 23 4.375C23 4.54076 22.9342 4.69973 22.8169 4.81694C22.6997 4.93415 22.5408 5 22.375 5ZM27.375 38.75H13.625C12.7965 38.749 12.0022 38.4194 11.4164 37.8336C10.8306 37.2478 10.501 36.4535 10.5 35.625V14.375C10.5 14.2092 10.5658 14.0503 10.6831 13.9331C10.8003 13.8158 10.9592 13.75 11.125 13.75C11.2908 13.75 11.4497 13.8158 11.5669 13.9331C11.6842 14.0503 11.75 14.2092 11.75 14.375V35.625C11.75 36.6587 12.5912 37.5 13.625 37.5H27.375C28.4088 37.5 29.25 36.6587 29.25 35.625V14.375C29.25 14.2092 29.3158 14.0503 29.4331 13.9331C29.5503 13.8158 29.7092 13.75 29.875 13.75C30.0408 13.75 30.1997 13.8158 30.3169 13.9331C30.4342 14.0503 30.5 14.2092 30.5 14.375V35.625C30.5 37.3475 29.0987 38.75 27.375 38.75Z" fill="#65FF00"/>
<path d="M29.875 18.75C29.7092 18.75 29.5503 18.6842 29.4331 18.5669C29.3158 18.4497 29.25 18.2908 29.25 18.125V4.375C29.25 3.34125 28.4088 2.5 27.375 2.5H13.625C12.5912 2.5 11.75 3.34125 11.75 4.375V18.125C11.75 18.2908 11.6842 18.4497 11.5669 18.5669C11.4497 18.6842 11.2908 18.75 11.125 18.75C10.9592 18.75 10.8003 18.6842 10.6831 18.5669C10.5658 18.4497 10.5 18.2908 10.5 18.125V4.375C10.5 2.6525 11.9012 1.25 13.625 1.25H27.375C29.0987 1.25 30.5 2.6525 30.5 4.375V18.125C30.5 18.2908 30.4342 18.4497 30.3169 18.5669C30.1997 18.6842 30.0408 18.75 29.875 18.75ZM33.625 7.5625C33.28 7.5625 33 7.345 33 7V6.875C33 6.70924 33.0658 6.55027 33.1831 6.43306C33.3003 6.31585 33.4592 6.25 33.625 6.25C33.7908 6.25 33.9497 6.31585 34.0669 6.43306C34.1842 6.55027 34.25 6.70924 34.25 6.875C34.25 7.22 33.97 7.5625 33.625 7.5625ZM33.625 10.0625C33.28 10.0625 33 9.845 33 9.5V9.375C33 9.20924 33.0658 9.05027 33.1831 8.93306C33.3003 8.81585 33.4592 8.75 33.625 8.75C33.7908 8.75 33.9497 8.81585 34.0669 8.93306C34.1842 9.05027 34.25 9.20924 34.25 9.375C34.25 9.72 33.97 10.0625 33.625 10.0625ZM33.625 12.5625C33.28 12.5625 33 12.345 33 12V11.875C33 11.7092 33.0658 11.5503 33.1831 11.4331C33.3003 11.3158 33.4592 11.25 33.625 11.25C33.7908 11.25 33.9497 11.3158 34.0669 11.4331C34.1842 11.5503 34.25 11.7092 34.25 11.875C34.25 12.22 33.97 12.5625 33.625 12.5625ZM7.375 28.6875C7.03 28.6875 6.75 28.47 6.75 28.125V28C6.75 27.8342 6.81585 27.6753 6.93306 27.5581C7.05027 27.4408 7.20924 27.375 7.375 27.375C7.54076 27.375 7.69973 27.4408 7.81694 27.5581C7.93415 27.6753 8 27.8342 8 28C8 28.345 7.72 28.6875 7.375 28.6875ZM7.375 31.1875C7.03 31.1875 6.75 30.97 6.75 30.625V30.5C6.75 30.3342 6.81585 30.1753 6.93306 30.0581C7.05027 29.9408 7.20924 29.875 7.375 29.875C7.54076 29.875 7.69973 29.9408 7.81694 30.0581C7.93415 30.1753 8 30.3342 8 30.5C8 30.845 7.72 31.1875 7.375 31.1875ZM7.375 33.6875C7.03 33.6875 6.75 33.47 6.75 33.125V33C6.75 32.8342 6.81585 32.6753 6.93306 32.5581C7.05027 32.4408 7.20924 32.375 7.375 32.375C7.54076 32.375 7.69973 32.4408 7.81694 32.5581C7.93415 32.6753 8 32.8342 8 33C8 33.345 7.72 33.6875 7.375 33.6875Z" fill="#65FF00"/>
<path d="M31.5512 33.75C31.458 33.75 31.366 33.7292 31.2818 33.689C31.1977 33.6489 31.1236 33.5904 31.065 33.5179C31.0064 33.4454 30.9647 33.3607 30.9431 33.27C30.9215 33.1793 30.9204 33.0849 30.94 32.9938L31.3525 31.0812C31.3771 30.9664 31.4337 30.8608 31.5158 30.7768C31.5978 30.6927 31.702 30.6336 31.8162 30.6063C32.4194 30.4584 32.9959 30.2176 33.525 29.8925C33.6248 29.8316 33.7396 29.7999 33.8565 29.801C33.9734 29.8021 34.0876 29.836 34.1862 29.8988L35.4237 30.69L36.19 29.9175L35.3988 28.69C35.3352 28.5913 35.3007 28.4767 35.2992 28.3594C35.2976 28.242 35.3291 28.1266 35.39 28.0262C35.7152 27.4973 35.9556 26.9208 36.1025 26.3175C36.13 26.2036 36.1888 26.0997 36.2723 26.0175C36.3558 25.9353 36.4607 25.8782 36.575 25.8525L38 25.5363V24.465L36.5763 24.1488C36.4619 24.1231 36.3571 24.0659 36.2736 23.9837C36.1901 23.9016 36.1312 23.7976 36.1037 23.6838C35.9563 23.0807 35.7159 22.5042 35.3913 21.975C35.3299 21.8751 35.298 21.7599 35.2993 21.6427C35.3006 21.5254 35.3351 21.411 35.3988 21.3125L36.1912 20.0738L35.4262 19.3087L34.1875 20.1012C34.089 20.1643 33.9747 20.1983 33.8578 20.1994C33.7408 20.2005 33.6259 20.1687 33.5262 20.1075C32.9969 19.7829 32.4205 19.5421 31.8175 19.3938C31.7033 19.3664 31.5991 19.3073 31.517 19.2232C31.435 19.1392 31.3784 19.0336 31.3538 18.9188L31.0463 17.5H30.5C30.3342 17.5 30.1753 17.4342 30.0581 17.3169C29.9408 17.1997 29.875 17.0408 29.875 16.875C29.875 16.7092 29.9408 16.5503 30.0581 16.4331C30.1753 16.3158 30.3342 16.25 30.5 16.25H31.55C31.6928 16.2502 31.8312 16.2994 31.9422 16.3892C32.0531 16.479 32.13 16.6042 32.16 16.7438L32.4937 18.285C32.9512 18.4238 33.4 18.6113 33.8325 18.845L35.175 17.9862C35.2951 17.9095 35.4377 17.8761 35.5793 17.8916C35.721 17.9071 35.8531 17.9704 35.9538 18.0712L37.43 19.5463C37.5306 19.6471 37.5938 19.7793 37.609 19.9209C37.6242 20.0625 37.5906 20.2051 37.5138 20.325L36.655 21.6675C36.8887 22.1012 37.0762 22.55 37.215 23.0087L38.7588 23.3512C39.0463 23.415 39.25 23.67 39.25 23.9625V26.0375C39.2499 26.1798 39.2014 26.3177 39.1123 26.4287C39.0232 26.5396 38.8989 26.6168 38.76 26.6475L37.2162 26.99C37.0752 27.4544 36.8875 27.9033 36.6562 28.33L37.5138 29.66C37.5914 29.7795 37.6257 29.922 37.6109 30.0637C37.5961 30.2055 37.5331 30.3379 37.4325 30.4387L35.9562 31.9263C35.8555 32.0274 35.7233 32.091 35.5814 32.1067C35.4396 32.1224 35.2966 32.0892 35.1762 32.0125L33.8337 31.1538C33.4073 31.3846 32.9588 31.5722 32.495 31.7138L32.1613 33.255C32.1313 33.3947 32.0545 33.52 31.9435 33.61C31.8326 33.7001 31.6941 33.7495 31.5512 33.75Z" fill="#65FF00"/>
<path d="M32.2386 28.2226C32.1047 28.2223 31.9745 28.1791 31.867 28.0993C31.7596 28.0195 31.6806 27.9073 31.6417 27.7792C31.6028 27.6512 31.606 27.514 31.6509 27.3879C31.6958 27.2618 31.78 27.1535 31.8911 27.0788C32.3708 26.7555 32.7237 26.276 32.8898 25.7218C33.0558 25.1676 33.0247 24.573 32.8018 24.0392C32.5788 23.5054 32.1778 23.0653 31.667 22.7938C31.1562 22.5223 30.567 22.4362 29.9998 22.5501C29.9194 22.5666 29.8365 22.567 29.7559 22.5515C29.6753 22.536 29.5985 22.5047 29.5299 22.4595C29.4614 22.4143 29.4024 22.356 29.3564 22.288C29.3104 22.22 29.2782 22.1436 29.2617 22.0632C29.2452 21.9827 29.2447 21.8999 29.2603 21.8192C29.2758 21.7386 29.3071 21.6618 29.3523 21.5933C29.3975 21.5247 29.4558 21.4658 29.5238 21.4198C29.5918 21.3737 29.6681 21.3416 29.7486 21.3251C30.2935 21.2146 30.8561 21.2265 31.3958 21.3599C31.9356 21.4933 32.4389 21.7448 32.8696 22.0965C33.3003 22.4481 33.6475 22.8909 33.8862 23.3931C34.1249 23.8952 34.2491 24.4441 34.2498 25.0001C34.25 25.6162 34.0982 26.2229 33.808 26.7664C33.5178 27.31 33.0981 27.7736 32.5861 28.1163C32.4834 28.1854 32.3624 28.2224 32.2386 28.2226ZM10.4998 18.7501C9.69412 18.7511 8.90951 18.4926 8.26227 18.0127C7.61502 17.5329 7.1396 16.8573 6.90646 16.086C6.67332 15.3148 6.69487 14.489 6.96791 13.7309C7.24095 12.9729 7.75095 12.323 8.42234 11.8776C8.56025 11.7915 8.72629 11.7625 8.88522 11.7968C9.04414 11.8311 9.18344 11.926 9.27355 12.0613C9.36367 12.1966 9.39749 12.3618 9.36786 12.5216C9.33823 12.6815 9.24747 12.8235 9.11484 12.9176C8.6351 13.2396 8.28159 13.7177 8.1143 14.2708C7.94701 14.8238 7.97626 15.4178 8.19708 15.9517C8.41791 16.4856 8.81669 16.9267 9.32575 17.2001C9.83481 17.4734 10.4228 17.5622 10.9898 17.4513C11.1524 17.4192 11.321 17.4528 11.459 17.5446C11.5969 17.6364 11.6929 17.779 11.7261 17.9413C11.7423 18.0218 11.7425 18.1046 11.7266 18.1851C11.7107 18.2656 11.6791 18.3422 11.6336 18.4105C11.5881 18.4788 11.5295 18.5374 11.4613 18.583C11.3931 18.6286 11.3166 18.6603 11.2361 18.6763C10.9938 18.7256 10.7471 18.7504 10.4998 18.7501Z" fill="#65FF00"/>
<path d="M10.5 23.7501H9.45C9.30722 23.7499 9.16883 23.7008 9.05784 23.6109C8.94686 23.5211 8.86998 23.396 8.84 23.2564L8.50625 21.7151C8.04235 21.5738 7.59385 21.3862 7.1675 21.1551L5.825 22.0139C5.70495 22.0906 5.56229 22.124 5.42066 22.1085C5.27903 22.0931 5.14693 22.0297 5.04625 21.9289L3.57 20.4539C3.46939 20.3531 3.40624 20.2209 3.39101 20.0793C3.37578 19.9376 3.40938 19.7951 3.48625 19.6751L4.345 18.3326C4.11391 17.9054 3.9263 17.4561 3.785 16.9914L2.24125 16.6489C2.10201 16.6182 1.97743 16.5408 1.88811 16.4297C1.79878 16.3185 1.75006 16.1802 1.75 16.0376V13.9626C1.75006 13.8204 1.79864 13.6824 1.88774 13.5715C1.97683 13.4606 2.1011 13.3834 2.24 13.3526L3.78375 13.0101C3.9225 12.5514 4.11 12.1026 4.34375 11.6701L3.4875 10.3389C3.40986 10.2194 3.37557 10.0769 3.39036 9.93514C3.40515 9.7934 3.46812 9.66103 3.56875 9.56014L5.045 8.07264C5.14536 7.97092 5.27767 7.90683 5.4197 7.89112C5.56173 7.87542 5.70484 7.90906 5.825 7.98639L7.1675 8.84514C7.59395 8.61428 8.04244 8.42668 8.50625 8.28514L8.84 6.74389C8.85514 6.66157 8.88666 6.58313 8.93268 6.51323C8.97871 6.44332 9.03831 6.38337 9.10795 6.33694C9.17758 6.29051 9.25584 6.25853 9.33806 6.24291C9.42029 6.22729 9.50482 6.22835 9.58663 6.24602C9.66844 6.26369 9.74587 6.29761 9.81432 6.34577C9.88278 6.39393 9.94086 6.45535 9.98513 6.52638C10.0294 6.59742 10.0589 6.67662 10.072 6.75929C10.0851 6.84196 10.0814 6.92641 10.0613 7.00764L9.64875 8.92014C9.62414 9.035 9.56754 9.14056 9.48548 9.22461C9.40341 9.30867 9.29924 9.36779 9.185 9.39514C8.58154 9.54324 8.00468 9.78402 7.475 10.1089C7.37522 10.1698 7.26037 10.2015 7.14348 10.2004C7.02659 10.1993 6.91236 10.1654 6.81375 10.1026L5.57625 9.31139L4.80875 10.0839L5.6 11.3114C5.66408 11.4099 5.69891 11.5245 5.70046 11.642C5.70201 11.7595 5.67021 11.875 5.60875 11.9751C5.28355 12.5041 5.04314 13.0806 4.89625 13.6839C4.86876 13.7978 4.80992 13.9017 4.72642 13.9839C4.64291 14.0661 4.53807 14.1232 4.42375 14.1489L3 14.4639V15.5351L4.42375 15.8514C4.53807 15.8771 4.64291 15.9342 4.72642 16.0164C4.80992 16.0986 4.86876 16.2025 4.89625 16.3164C5.0375 16.9064 5.27875 17.4814 5.60875 18.0251C5.73375 18.2289 5.73125 18.4864 5.60125 18.6876L4.80875 19.9251L5.57375 20.6901L6.8125 19.8976C6.91121 19.8351 7.02541 19.8014 7.14223 19.8003C7.25906 19.7992 7.37388 19.8308 7.47375 19.8914C8.01875 20.2226 8.59375 20.4626 9.1825 20.6051C9.29674 20.6325 9.40091 20.6916 9.48298 20.7757C9.56504 20.8597 9.62164 20.9653 9.64625 21.0801L9.95375 22.5001H10.5C10.6658 22.5001 10.8247 22.566 10.9419 22.6832C11.0592 22.8004 11.125 22.9594 11.125 23.1251C11.125 23.2909 11.0592 23.4499 10.9419 23.5671C10.8247 23.6843 10.6658 23.7501 10.5 23.7501ZM19.875 23.1251C19.78 23.1254 19.6862 23.1039 19.6007 23.0623C19.5153 23.0207 19.4405 22.9602 19.382 22.8853C19.3235 22.8104 19.2829 22.7232 19.2633 22.6302C19.2436 22.5372 19.2455 22.441 19.2688 22.3489L20.5187 17.3489C20.538 17.2689 20.573 17.1936 20.6217 17.1273C20.6704 17.0611 20.7317 17.0051 20.8022 16.9628C20.8727 16.9204 20.9509 16.8925 21.0323 16.8807C21.1137 16.8689 21.1966 16.8734 21.2763 16.8939C21.3559 16.9136 21.4309 16.9489 21.497 16.9977C21.563 17.0465 21.6187 17.1078 21.661 17.1782C21.7033 17.2485 21.7313 17.3266 21.7433 17.4078C21.7554 17.489 21.7513 17.5718 21.7313 17.6514L20.4812 22.6514C20.4479 22.7869 20.37 22.9072 20.2601 22.9931C20.1501 23.0791 20.0145 23.1255 19.875 23.1251ZM23.625 23.1251C23.5015 23.1251 23.3807 23.0885 23.278 23.0199C23.1753 22.9513 23.0952 22.8538 23.0479 22.7397C23.0005 22.6256 22.988 22.5001 23.012 22.3789C23.036 22.2577 23.0953 22.1464 23.1825 22.0589L25.2412 20.0001L23.1838 17.9426C23.0699 17.8248 23.0069 17.6669 23.0083 17.503C23.0098 17.3391 23.0755 17.1824 23.1914 17.0665C23.3072 16.9506 23.464 16.8849 23.6279 16.8835C23.7917 16.882 23.9496 16.945 24.0675 17.0589L26.5675 19.5589C26.6847 19.6761 26.7505 19.835 26.7505 20.0008C26.7505 20.1665 26.6847 20.3254 26.5675 20.4426L24.0675 22.9426C23.9499 23.0595 23.7908 23.1252 23.625 23.1251ZM17.375 23.1251C17.2092 23.1252 17.0501 23.0595 16.9325 22.9426L14.4325 20.4426C14.3153 20.3254 14.2495 20.1665 14.2495 20.0008C14.2495 19.835 14.3153 19.6761 14.4325 19.5589L16.9325 17.0589C17.0504 16.945 17.2083 16.882 17.3721 16.8835C17.536 16.8849 17.6928 16.9506 17.8086 17.0665C17.9245 17.1824 17.9902 17.3391 17.9917 17.503C17.9931 17.6669 17.9301 17.8248 17.8162 17.9426L15.7587 20.0001L17.8162 22.0576C17.9038 22.145 17.9635 22.2563 17.9877 22.3776C18.012 22.4989 17.9997 22.6246 17.9525 22.7389C17.9052 22.8532 17.8251 22.9509 17.7223 23.0196C17.6196 23.0884 17.4987 23.1251 17.375 23.1251Z" fill="#65FF00"/>
</svg>
