<svg width="862" height="1384" viewBox="0 0 862 1384" fill="none" xmlns="http://www.w3.org/2000/svg">
<path d="M608.991 306.371H240.588C207.695 306.371 159.45 321.721 135.329 343.65C95.8568 380.929 67.3509 442.33 128.752 512.502C161.645 551.974 216.465 554.167 269.094 554.167C356.809 554.167 444.525 556.36 532.24 556.36C547.59 556.36 683.549 565.131 749.336 666.004C780.036 714.247 784.421 762.491 784.421 782.227C784.421 799.77 788.808 867.749 747.143 929.15C670.392 1043.18 516.89 1038.79 510.311 1038.79C354.616 1036.6 249.358 1043.18 93.6633 1038.79" stroke="#69FF00" stroke-width="102.4" stroke-miterlimit="10" stroke-linecap="round"/>
<path d="M52 775.651H604.605" stroke="white" stroke-width="102.4" stroke-miterlimit="10" stroke-linecap="round" stroke-linejoin="round"/>
<path d="M52 52H532.239C602.411 52 672.585 76.1217 725.214 122.172C791 181.38 837.05 282.253 727.406 440.14" stroke="white" stroke-width="102.4" stroke-miterlimit="10" stroke-linecap="round"/>
<path d="M585.841 398.035C635.496 398.035 675.749 357.772 675.749 308.105C675.749 258.438 635.496 218.175 585.841 218.175C536.186 218.175 495.934 258.438 495.934 308.105C495.934 357.772 536.186 398.035 585.841 398.035Z" fill="white" stroke="#1B212A" stroke-width="34.1334" stroke-miterlimit="10"/>
<path d="M585.841 867.231C635.496 867.231 675.749 826.968 675.749 777.302C675.749 727.635 635.496 687.372 585.841 687.372C536.186 687.372 495.934 727.635 495.934 777.302C495.934 826.968 536.186 867.231 585.841 867.231Z" fill="#69FF00" stroke="#1B212A" stroke-width="34.1334" stroke-miterlimit="10"/>
<path d="M742.242 505.56C791.897 505.56 832.15 465.297 832.15 415.63C832.15 365.964 791.897 325.701 742.242 325.701C692.587 325.701 652.334 365.964 652.334 415.63C652.334 465.297 692.587 505.56 742.242 505.56Z" fill="#69FF00" stroke="#1B212A" stroke-width="34.1334" stroke-miterlimit="10"/>
<path d="M101.107 1292.04C101.107 1297.99 99.994 1303.17 97.769 1307.56C95.5997 1311.96 92.5403 1315.6 88.5909 1318.49C84.6415 1321.33 79.9412 1323.44 74.4899 1324.83C69.0386 1326.22 63.0867 1326.92 56.6342 1326.92C50.9048 1326.92 45.3701 1326.59 40.0301 1325.92C34.6901 1325.25 29.4057 1324.14 24.1769 1322.58V1302.3C26.7357 1303.19 29.4057 1304.03 32.1869 1304.81C34.9682 1305.59 37.7495 1306.28 40.5307 1306.89C43.3676 1307.45 46.1767 1307.9 48.9579 1308.23C51.7392 1308.56 54.437 1308.73 57.0514 1308.73C60.9452 1308.73 64.2549 1308.4 66.9805 1307.73C69.7061 1307.06 71.9311 1306.14 73.6555 1304.97C75.3799 1303.81 76.6315 1302.42 77.4102 1300.8C78.189 1299.19 78.5783 1297.41 78.5783 1295.46C78.5783 1292.79 77.7996 1290.57 76.2421 1288.79C74.7402 1286.95 72.7377 1285.34 70.2346 1283.95C67.7314 1282.56 64.8667 1281.31 61.6405 1280.19C58.4698 1279.08 55.2158 1277.89 51.8783 1276.61C48.5964 1275.33 45.3423 1273.88 42.116 1272.27C38.9454 1270.65 36.1085 1268.65 33.6054 1266.26C31.1022 1263.87 29.0719 1261.03 27.5144 1257.75C26.0125 1254.41 25.2616 1250.41 25.2616 1245.73C25.2616 1241.45 26.0403 1237.39 27.5979 1233.55C29.1554 1229.71 31.6029 1226.38 34.9404 1223.54C38.2779 1220.65 42.561 1218.37 47.7898 1216.7C53.0186 1214.97 59.332 1214.11 66.7302 1214.11C68.8996 1214.11 71.1524 1214.22 73.4886 1214.44C75.8805 1214.61 78.2168 1214.86 80.4974 1215.2C82.8337 1215.47 85.0587 1215.84 87.1724 1216.28C89.3418 1216.67 91.3165 1217.09 93.0965 1217.53V1236.31C91.3165 1235.64 89.3696 1235.03 87.2559 1234.47C85.1421 1233.91 82.9449 1233.44 80.6643 1233.05C78.4393 1232.61 76.1865 1232.27 73.9058 1232.05C71.6252 1231.83 69.4558 1231.72 67.3977 1231.72C63.782 1231.72 60.7227 1232.02 58.2195 1232.63C55.7164 1233.19 53.6583 1234 52.0451 1235.05C50.432 1236.06 49.2639 1237.31 48.5407 1238.81C47.8176 1240.31 47.456 1241.98 47.456 1243.82C47.456 1246.1 48.207 1248.07 49.7089 1249.74C51.2664 1251.35 53.2967 1252.83 55.7998 1254.16C58.3586 1255.44 61.2233 1256.66 64.3939 1257.83C67.6202 1258.95 70.9021 1260.17 74.2396 1261.5C77.6327 1262.78 80.9146 1264.26 84.0852 1265.93C87.3115 1267.59 90.1762 1269.63 92.6793 1272.02C95.2381 1274.41 97.2684 1277.25 98.7703 1280.53C100.328 1283.75 101.107 1287.59 101.107 1292.04ZM197.894 1281.95C197.894 1288.62 196.949 1294.74 195.058 1300.3C193.166 1305.81 190.441 1310.54 186.881 1314.49C183.321 1318.44 178.954 1321.5 173.781 1323.66C168.608 1325.83 162.711 1326.92 156.092 1326.92C149.806 1326.92 144.188 1326 139.238 1324.17C134.287 1322.33 130.087 1319.6 126.639 1315.99C123.19 1312.32 120.548 1307.76 118.712 1302.3C116.876 1296.8 115.958 1290.4 115.958 1283.11C115.958 1276.38 116.904 1270.26 118.795 1264.76C120.742 1259.25 123.496 1254.55 127.056 1250.66C130.671 1246.76 135.066 1243.76 140.239 1241.65C145.412 1239.48 151.253 1238.39 157.761 1238.39C164.102 1238.39 169.748 1239.34 174.699 1241.23C179.649 1243.06 183.849 1245.82 187.298 1249.49C190.747 1253.16 193.361 1257.72 195.141 1263.17C196.977 1268.57 197.894 1274.83 197.894 1281.95ZM176.701 1282.45C176.701 1273.66 175.032 1267.07 171.695 1262.67C168.413 1258.22 163.546 1256 157.093 1256C153.533 1256 150.502 1256.69 147.999 1258.08C145.495 1259.47 143.437 1261.39 141.824 1263.84C140.211 1266.23 139.015 1269.04 138.236 1272.27C137.513 1275.49 137.152 1278.94 137.152 1282.61C137.152 1291.46 138.932 1298.13 142.492 1302.64C146.052 1307.09 150.919 1309.31 157.093 1309.31C160.486 1309.31 163.435 1308.65 165.938 1307.31C168.441 1305.92 170.471 1304.03 172.029 1301.64C173.586 1299.19 174.754 1296.33 175.533 1293.04C176.312 1289.76 176.701 1286.23 176.701 1282.45ZM291.595 1224.37C289.148 1223.6 286.227 1222.96 282.834 1222.45C279.497 1221.9 276.076 1221.62 272.571 1221.62C270.179 1221.62 267.954 1221.95 265.896 1222.62C263.838 1223.23 262.058 1224.23 260.556 1225.63C259.054 1227.02 257.858 1228.8 256.968 1230.97C256.134 1233.08 255.717 1235.67 255.717 1238.73V1252.41H289.008V1268.26H255.717V1325H235.191V1268.26H210.577V1252.41H235.191V1239.56C235.191 1233.55 236.053 1228.41 237.778 1224.12C239.558 1219.78 242.033 1216.25 245.204 1213.53C248.43 1210.75 252.296 1208.72 256.801 1207.44C261.307 1206.16 266.341 1205.52 271.904 1205.52C275.575 1205.52 279.052 1205.77 282.333 1206.27C285.671 1206.71 288.758 1207.27 291.595 1207.94V1224.37ZM379.372 1324.17C375.7 1325 372.001 1325.67 368.274 1326.17C364.547 1326.67 361.015 1326.92 357.678 1326.92C352.115 1326.92 347.304 1326.34 343.243 1325.17C339.238 1324 335.901 1322.22 333.23 1319.83C330.616 1317.43 328.669 1314.4 327.39 1310.73C326.166 1307.01 325.554 1302.58 325.554 1297.47V1256.08H302.776V1240.23H325.554V1218.53L346.414 1213.11V1240.23H379.372V1256.08H346.414V1295.96C346.414 1300.8 347.526 1304.47 349.751 1306.98C351.976 1309.42 355.703 1310.65 360.932 1310.65C364.269 1310.65 367.523 1310.37 370.694 1309.81C373.865 1309.26 376.757 1308.62 379.372 1307.9V1324.17Z" fill="#69FF00"/>
<path d="M476.577 1292.38C476.577 1297.6 475.548 1302.25 473.489 1306.31C471.487 1310.31 468.594 1313.71 464.812 1316.49C461.085 1319.27 456.552 1321.38 451.212 1322.83C445.927 1324.28 440.031 1325 433.523 1325H404.987V1215.95H436.193C460.501 1215.95 472.655 1224.79 472.655 1242.48C472.655 1248.38 471.237 1253.44 468.4 1257.67C465.618 1261.89 461.057 1265.04 454.716 1267.09C457.664 1267.65 460.445 1268.6 463.06 1269.93C465.73 1271.27 468.066 1272.99 470.068 1275.1C472.071 1277.22 473.656 1279.72 474.824 1282.61C475.993 1285.51 476.577 1288.76 476.577 1292.38ZM457.219 1244.48C457.219 1242.26 456.885 1240.17 456.218 1238.22C455.55 1236.22 454.382 1234.53 452.713 1233.13C451.045 1231.69 448.792 1230.55 445.955 1229.71C443.118 1228.88 439.53 1228.46 435.191 1228.46H419.839V1262.59H434.691C438.084 1262.59 441.143 1262.23 443.869 1261.5C446.65 1260.78 449.014 1259.67 450.961 1258.17C452.964 1256.66 454.493 1254.8 455.55 1252.58C456.663 1250.3 457.219 1247.6 457.219 1244.48ZM460.807 1292.88C460.807 1290.1 460.223 1287.59 459.055 1285.37C457.887 1283.14 456.19 1281.28 453.965 1279.78C451.74 1278.22 449.014 1277.02 445.788 1276.19C442.617 1275.35 439.03 1274.94 435.025 1274.94H419.839V1312.48H435.525C444.036 1312.48 450.377 1310.9 454.549 1307.73C458.721 1304.56 460.807 1299.61 460.807 1292.88ZM566.439 1325H553.423L552.922 1311.48C550.419 1314.38 548.027 1316.8 545.747 1318.74C543.522 1320.63 541.297 1322.16 539.072 1323.33C536.847 1324.5 534.594 1325.31 532.313 1325.75C530.088 1326.25 527.724 1326.5 525.221 1326.5C516.599 1326.5 510.091 1323.97 505.696 1318.91C501.302 1313.85 499.105 1306.2 499.105 1295.96V1241.23H513.623V1294.8C513.623 1307.64 518.462 1314.07 528.141 1314.07C529.921 1314.07 531.646 1313.82 533.314 1313.32C535.039 1312.76 536.819 1311.84 538.654 1310.57C540.546 1309.23 542.548 1307.45 544.662 1305.23C546.831 1303 549.251 1300.19 551.921 1296.8V1241.23H566.439V1325ZM659.389 1302.14C659.389 1305.09 658.888 1307.73 657.887 1310.06C656.886 1312.4 655.523 1314.49 653.799 1316.32C652.074 1318.1 650.072 1319.63 647.791 1320.91C645.51 1322.19 643.063 1323.25 640.448 1324.08C637.89 1324.92 635.248 1325.53 632.522 1325.92C629.796 1326.31 627.126 1326.5 624.512 1326.5C618.838 1326.5 613.609 1326.25 608.826 1325.75C604.097 1325.25 599.453 1324.44 594.891 1323.33V1309.98C599.786 1311.37 604.654 1312.43 609.493 1313.15C614.332 1313.87 619.144 1314.24 623.928 1314.24C630.881 1314.24 636.026 1313.29 639.364 1311.4C642.701 1309.51 644.37 1306.81 644.37 1303.31C644.37 1301.8 644.092 1300.47 643.536 1299.3C643.035 1298.08 642.089 1296.94 640.699 1295.88C639.308 1294.77 637.139 1293.63 634.191 1292.46C631.298 1291.29 627.321 1289.96 622.259 1288.45C618.477 1287.34 614.972 1286.09 611.746 1284.7C608.575 1283.25 605.822 1281.56 603.486 1279.61C601.149 1277.66 599.314 1275.38 597.979 1272.77C596.644 1270.15 595.976 1267.07 595.976 1263.51C595.976 1261.17 596.505 1258.61 597.561 1255.83C598.674 1253.05 600.537 1250.46 603.152 1248.07C605.766 1245.68 609.298 1243.7 613.748 1242.15C618.198 1240.53 623.761 1239.73 630.436 1239.73C633.718 1239.73 637.361 1239.92 641.366 1240.31C645.371 1240.64 649.543 1241.26 653.882 1242.15V1255.08C649.321 1253.97 644.982 1253.16 640.866 1252.66C636.805 1252.1 633.273 1251.83 630.269 1251.83C626.653 1251.83 623.594 1252.1 621.091 1252.66C618.643 1253.22 616.641 1253.99 615.083 1255C613.581 1255.94 612.497 1257.08 611.829 1258.42C611.162 1259.7 610.828 1261.09 610.828 1262.59C610.828 1264.09 611.106 1265.45 611.662 1266.68C612.274 1267.9 613.359 1269.1 614.916 1270.26C616.53 1271.38 618.755 1272.52 621.592 1273.69C624.428 1274.8 628.127 1276.02 632.689 1277.36C637.639 1278.8 641.811 1280.33 645.204 1281.95C648.598 1283.5 651.351 1285.26 653.465 1287.2C655.579 1289.15 657.08 1291.35 657.97 1293.79C658.916 1296.24 659.389 1299.02 659.389 1302.14ZM757.762 1278.69C757.762 1280.75 757.734 1282.47 757.679 1283.87C757.623 1285.26 757.54 1286.56 757.428 1287.79H698.605C698.605 1296.35 700.997 1302.94 705.78 1307.56C710.564 1312.12 717.462 1314.4 726.473 1314.4C728.92 1314.4 731.368 1314.32 733.815 1314.15C736.263 1313.93 738.627 1313.65 740.908 1313.32C743.188 1312.98 745.358 1312.62 747.416 1312.23C749.53 1311.79 751.476 1311.32 753.256 1310.82V1322.75C749.307 1323.86 744.829 1324.75 739.823 1325.42C734.872 1326.14 729.727 1326.5 724.387 1326.5C717.211 1326.5 711.037 1325.53 705.864 1323.58C700.691 1321.63 696.435 1318.83 693.098 1315.15C689.816 1311.43 687.368 1306.89 685.755 1301.55C684.198 1296.16 683.419 1290.07 683.419 1283.28C683.419 1277.38 684.253 1271.82 685.922 1266.59C687.646 1261.31 690.122 1256.69 693.348 1252.74C696.63 1248.74 700.635 1245.57 705.363 1243.23C710.091 1240.89 715.459 1239.73 721.467 1239.73C727.307 1239.73 732.48 1240.64 736.986 1242.48C741.492 1244.32 745.274 1246.93 748.334 1250.32C751.449 1253.66 753.785 1257.75 755.342 1262.59C756.955 1267.37 757.762 1272.74 757.762 1278.69ZM742.66 1276.61C742.827 1272.88 742.465 1269.49 741.575 1266.43C740.685 1263.31 739.294 1260.64 737.403 1258.42C735.568 1256.19 733.259 1254.47 730.478 1253.24C727.697 1251.96 724.47 1251.32 720.799 1251.32C717.628 1251.32 714.736 1251.94 712.122 1253.16C709.507 1254.38 707.254 1256.11 705.363 1258.33C703.472 1260.56 701.942 1263.23 700.774 1266.34C699.606 1269.46 698.883 1272.88 698.605 1276.61H742.66ZM847.291 1302.14C847.291 1305.09 846.79 1307.73 845.789 1310.06C844.788 1312.4 843.425 1314.49 841.7 1316.32C839.976 1318.1 837.974 1319.63 835.693 1320.91C833.412 1322.19 830.965 1323.25 828.35 1324.08C825.792 1324.92 823.149 1325.53 820.424 1325.92C817.698 1326.31 815.028 1326.5 812.414 1326.5C806.74 1326.5 801.511 1326.25 796.727 1325.75C791.999 1325.25 787.355 1324.44 782.793 1323.33V1309.98C787.688 1311.37 792.556 1312.43 797.395 1313.15C802.234 1313.87 807.046 1314.24 811.83 1314.24C818.783 1314.24 823.928 1313.29 827.266 1311.4C830.603 1309.51 832.272 1306.81 832.272 1303.31C832.272 1301.8 831.994 1300.47 831.438 1299.3C830.937 1298.08 829.991 1296.94 828.601 1295.88C827.21 1294.77 825.041 1293.63 822.093 1292.46C819.2 1291.29 815.223 1289.96 810.161 1288.45C806.378 1287.34 802.874 1286.09 799.648 1284.7C796.477 1283.25 793.724 1281.56 791.387 1279.61C789.051 1277.66 787.216 1275.38 785.881 1272.77C784.546 1270.15 783.878 1267.07 783.878 1263.51C783.878 1261.17 784.406 1258.61 785.463 1255.83C786.576 1253.05 788.439 1250.46 791.054 1248.07C793.668 1245.68 797.2 1243.7 801.65 1242.15C806.1 1240.53 811.663 1239.73 818.338 1239.73C821.62 1239.73 825.263 1239.92 829.268 1240.31C833.273 1240.64 837.445 1241.26 841.784 1242.15V1255.08C837.223 1253.97 832.884 1253.16 828.768 1252.66C824.707 1252.1 821.175 1251.83 818.171 1251.83C814.555 1251.83 811.496 1252.1 808.993 1252.66C806.545 1253.22 804.543 1253.99 802.985 1255C801.483 1255.94 800.399 1257.08 799.731 1258.42C799.064 1259.7 798.73 1261.09 798.73 1262.59C798.73 1264.09 799.008 1265.45 799.564 1266.68C800.176 1267.9 801.261 1269.1 802.818 1270.26C804.432 1271.38 806.657 1272.52 809.493 1273.69C812.33 1274.8 816.029 1276.02 820.591 1277.36C825.541 1278.8 829.713 1280.33 833.106 1281.95C836.499 1283.5 839.253 1285.26 841.367 1287.2C843.48 1289.15 844.982 1291.35 845.872 1293.79C846.818 1296.24 847.291 1299.02 847.291 1302.14Z" fill="white"/>
</svg>
