<svg width="40" height="41" viewBox="0 0 40 41" fill="none" xmlns="http://www.w3.org/2000/svg">
<g clip-path="url(#clip0_532_829)">
<path d="M1.66634 8.49992H38.333M14.7497 32.8333H0.833008V1.33325H39.1663V32.8333H25.2497M3.41634 4.91659H5.16634M7.16634 4.91659H8.91634M10.9163 4.91659H12.6663" stroke="#65FF00" stroke-width="2" stroke-miterlimit="10"/>
<path d="M18.0833 14.2498V19.3332C14.1667 19.4998 10.3333 20.0832 6.75 20.9998C9.25 17.3332 13.4167 14.7498 18.0833 14.2498ZM33.25 20.9998C29.5833 19.9998 25.8333 19.4165 21.9167 19.3332V14.2498C26.5833 14.7498 30.75 17.3332 33.25 20.9998ZM18.0833 13.4165H21.8333V39.6665H18.0833V13.4165Z" stroke="#65FF00" stroke-width="2" stroke-miterlimit="10"/>
</g>
<defs>
<clipPath id="clip0_532_829">
<rect width="40" height="40" fill="white" transform="translate(0 0.5)"/>
</clipPath>
</defs>
</svg>
