<svg width="40" height="39" viewBox="0 0 40 39" fill="none" xmlns="http://www.w3.org/2000/svg">
<path d="M30.625 27.75H31.875V29H30.625V27.75ZM25.625 27.75H26.875V29H25.625V27.75ZM28.125 27.75H29.375V29H28.125V27.75ZM28.75 4C24.9594 4 21.875 7.08437 21.875 10.875C21.875 14.6656 24.9594 17.75 28.75 17.75C32.5406 17.75 35.625 14.6656 35.625 10.875C35.625 7.08437 32.5406 4 28.75 4ZM28.75 16.5C25.6488 16.5 23.125 13.9762 23.125 10.875C23.125 7.77375 25.6488 5.25 28.75 5.25C31.8512 5.25 34.375 7.77375 34.375 10.875C34.375 13.9762 31.8512 16.5 28.75 16.5Z" fill="#65FF00"/>
<path d="M39.375 13.2056V8.54375L37.6662 7.99625C37.5126 7.51715 37.3206 7.05126 37.0919 6.60312L37.9119 5.01L34.6156 1.71375L33.0225 2.53375C32.5744 2.30506 32.1085 2.11298 31.6294 1.95937L31.0806 0.25H26.4188L25.8713 1.95875C25.3888 2.11375 24.9219 2.30625 24.4781 2.53312L22.885 1.71313L19.5887 5.00937L20.355 6.5H3.75C2.02688 6.5 0.625 7.90188 0.625 9.625V28.375C0.625 30.0981 2.02688 31.5 3.75 31.5H11.8519C11.7998 31.9936 11.6452 32.4709 11.3981 32.9014C11.151 33.3319 10.8168 33.706 10.4169 34H8.75C7.71625 34 6.875 34.8412 6.875 35.875V37.125C6.875 38.1588 7.71625 39 8.75 39H27.5C28.5338 39 29.375 38.1588 29.375 37.125V35.875C29.375 34.8412 28.5338 34 27.5 34H25.8337C25.4338 33.706 25.0996 33.3319 24.8525 32.9014C24.6054 32.4709 24.4509 31.9936 24.3987 31.5H32.5C34.2231 31.5 35.625 30.0981 35.625 28.375V19.0262L37.9113 16.74L37.0913 15.1475C37.3181 14.7044 37.51 14.2375 37.6656 13.7544L39.375 13.2056ZM28.125 35.875V37.125C28.125 37.47 27.8444 37.75 27.5 37.75H8.75C8.40563 37.75 8.125 37.47 8.125 37.125V35.875C8.125 35.53 8.40563 35.25 8.75 35.25H27.5C27.8444 35.25 28.125 35.53 28.125 35.875ZM24.0806 34H12.1694C12.7097 33.2713 13.033 32.4046 13.1019 31.5H23.1487C23.2177 32.4045 23.5407 33.2711 24.0806 34ZM32.5 30.25H3.75C2.71625 30.25 1.875 29.4088 1.875 28.375V9.625C1.875 8.59125 2.71625 7.75 3.75 7.75H19.9244C19.895 7.8325 19.8613 7.9125 19.8344 7.99625L18.125 8.54437V9H4.375C3.68562 9 3.125 9.56062 3.125 10.25V25.25C3.125 25.9394 3.68562 26.5 4.375 26.5H31.875C32.5644 26.5 33.125 25.9394 33.125 25.25V19.27L34.375 19.9131V28.375C34.375 29.4088 33.5338 30.25 32.5 30.25ZM22.885 20.0363L24.4781 19.2163C24.9219 19.4431 25.3888 19.6356 25.8713 19.7906L26.4194 21.5H31.0812L31.6287 19.7912C31.7125 19.7644 31.7925 19.73 31.875 19.7013V25.25H4.375V10.25H18.125V13.2056L19.8337 13.7531C19.9894 14.2362 20.1812 14.7031 20.4081 15.1462L19.5881 16.7387L22.885 20.0363ZM36.6525 12.7656L36.5613 13.0887C36.3905 13.6973 36.1486 14.2837 35.8406 14.8356L35.6763 15.1287L36.3825 16.5006L34.3756 18.5075L33.0037 17.8019L32.7113 17.9656C32.1681 18.2694 31.58 18.5125 30.9637 18.6862L30.6406 18.7775L30.1694 20.25H27.3312L26.8594 18.7775L26.5363 18.6862C25.9276 18.515 25.3411 18.2732 24.7887 17.9656L24.4963 17.8019L23.1244 18.5075L21.1175 16.5006L21.8237 15.1287L21.6594 14.8356C21.3515 14.2836 21.1096 13.6973 20.9387 13.0887L20.8475 12.7656L19.375 12.2944V9.45625L20.8475 8.98438L20.9387 8.66125C21.1131 8.045 21.3556 7.45687 21.6594 6.91375L21.8231 6.62125L21.1175 5.24937L23.1244 3.2425L24.4963 3.94812L24.7887 3.78438C25.3319 3.48063 25.92 3.2375 26.5363 3.06375L26.8594 2.9725L27.3306 1.5H30.1688L30.6406 2.9725L30.9637 3.06375C31.58 3.23812 32.1681 3.48063 32.7113 3.78438L33.0037 3.94812L34.3756 3.2425L36.3825 5.24937L35.6769 6.62125L35.8406 6.91375C36.1444 7.45687 36.3875 8.045 36.5613 8.66125L36.6525 8.98438L38.125 9.45563V12.2938L36.6525 12.7656Z" fill="#65FF00"/>
<path d="M28.75 7.75C27.0269 7.75 25.625 9.15188 25.625 10.875C25.625 12.5981 27.0269 14 28.75 14C30.4731 14 31.875 12.5981 31.875 10.875C31.875 9.15188 30.4731 7.75 28.75 7.75ZM28.75 12.75C27.7162 12.75 26.875 11.9088 26.875 10.875C26.875 9.84125 27.7162 9 28.75 9C29.7838 9 30.625 9.84125 30.625 10.875C30.625 11.9088 29.7838 12.75 28.75 12.75ZM15 14H7.5C6.46625 14 5.625 14.8412 5.625 15.875V22.125C5.625 23.1588 6.46625 24 7.5 24H15C16.0338 24 16.875 23.1588 16.875 22.125V15.875C16.875 14.8412 16.0338 14 15 14ZM10.625 15.25H11.875V16.5H10.625V15.25ZM15.625 22.125C15.625 22.47 15.3444 22.75 15 22.75H7.5C7.15563 22.75 6.875 22.47 6.875 22.125V15.875C6.875 15.5306 7.15563 15.25 7.5 15.25H9.375V17.75H13.125V15.25H15C15.3444 15.25 15.625 15.5306 15.625 15.875V22.125ZM5.625 11.5H6.875V12.75H5.625V11.5ZM8.125 11.5H16.875V12.75H8.125V11.5ZM26.875 22.75H28.125V24H26.875V22.75ZM24.375 22.75H25.625V24H24.375V22.75ZM29.375 22.75H30.625V24H29.375V22.75Z" fill="#65FF00"/>
</svg>
