<svg width="40" height="41" viewBox="0 0 40 41" fill="none" xmlns="http://www.w3.org/2000/svg">
<path d="M37.5615 2.57104H30.0239C29.8685 2.57104 29.7195 2.63278 29.6096 2.74266C29.4997 2.85255 29.438 3.00158 29.438 3.15698C29.438 3.31238 29.4997 3.46142 29.6096 3.5713C29.7195 3.68119 29.8685 3.74292 30.0239 3.74292H37.5615C38.2599 3.74292 38.8281 4.31112 38.8281 5.00956V27.2732H1.17188V5.00956C1.17188 4.31112 1.74008 3.74292 2.43852 3.74292H27.2895C27.4449 3.74292 27.5939 3.68119 27.7038 3.5713C27.8137 3.46142 27.8754 3.31238 27.8754 3.15698C27.8754 3.00158 27.8137 2.85255 27.7038 2.74266C27.5939 2.63278 27.4449 2.57104 27.2895 2.57104H2.43852C1.09391 2.57104 0 3.66495 0 5.00956V29.1315C0 30.4761 1.09391 31.57 2.43852 31.57H8.04797C8.20337 31.57 8.3524 31.5083 8.46229 31.3984C8.57217 31.2885 8.63391 31.1395 8.63391 30.9841C8.63391 30.8287 8.57217 30.6797 8.46229 30.5698C8.3524 30.4599 8.20337 30.3982 8.04797 30.3982H2.43852C1.74008 30.3982 1.17188 29.83 1.17188 29.1315V28.445H38.8281V29.1315C38.8281 29.83 38.2599 30.3982 37.5615 30.3982H10.7566C10.6012 30.3982 10.4521 30.4599 10.3422 30.5698C10.2324 30.6797 10.1706 30.8287 10.1706 30.9841C10.1706 31.1395 10.2324 31.2885 10.3422 31.3984C10.4521 31.5083 10.6012 31.57 10.7566 31.57H14.4444L13.8659 34.9134H12.7966C11.8273 34.9134 11.0388 35.7019 11.0388 36.6712C11.0388 37.6405 11.8273 38.429 12.7966 38.429H27.2034C28.1727 38.429 28.9612 37.6405 28.9612 36.6712C28.9612 35.7019 28.1727 34.9134 27.2034 34.9134H26.1341L25.5556 31.57H37.5614C38.906 31.57 39.9999 30.4761 39.9999 29.1315V5.00956C40 3.66495 38.9061 2.57104 37.5615 2.57104ZM24.9448 34.9134H23.3497C23.1943 34.9134 23.0453 34.9751 22.9354 35.085C22.8255 35.1949 22.7638 35.3439 22.7638 35.4993C22.7638 35.6547 22.8255 35.8038 22.9354 35.9136C23.0453 36.0235 23.1943 36.0853 23.3497 36.0853H27.2034C27.5265 36.0853 27.7893 36.3481 27.7893 36.6712C27.7893 36.9943 27.5265 37.2571 27.2034 37.2571H12.7966C12.4735 37.2571 12.2107 36.9943 12.2107 36.6712C12.2107 36.3481 12.4735 36.0853 12.7966 36.0853H20.6144C20.7698 36.0853 20.9188 36.0235 21.0287 35.9136C21.1386 35.8038 21.2003 35.6547 21.2003 35.4993C21.2003 35.3439 21.1386 35.1949 21.0287 35.085C20.9188 34.9751 20.7698 34.9134 20.6144 34.9134H15.0552L15.6337 31.57H24.3664L24.9448 34.9134Z" fill="#65FF00"/>
<path d="M31.697 17.3967C31.5888 17.3967 31.4828 17.4266 31.3906 17.4831C31.2985 17.5397 31.2237 17.6206 31.1747 17.7169L28.4095 23.1517L26.0761 18.5654C26.0271 18.469 25.9523 18.3881 25.8601 18.3316C25.768 18.2751 25.6619 18.2452 25.5538 18.2452C25.4457 18.2452 25.3397 18.2751 25.2475 18.3316C25.1553 18.3881 25.0806 18.469 25.0316 18.5654L23.7666 21.0516H21.747C21.5916 21.0516 21.4426 21.1133 21.3327 21.2232C21.2228 21.3331 21.1611 21.4821 21.1611 21.6375C21.1611 21.7929 21.2228 21.9419 21.3327 22.0518C21.4426 22.1617 21.5916 22.2234 21.747 22.2234H24.1259C24.2341 22.2234 24.3401 22.1935 24.4322 22.137C24.5244 22.0805 24.5992 21.9996 24.6482 21.9032L25.5538 20.1233L27.8873 24.7096C27.9363 24.806 28.011 24.8869 28.1032 24.9434C28.1954 24.9999 28.3014 25.0298 28.4095 25.0298C28.5177 25.0298 28.6237 24.9999 28.7158 24.9434C28.808 24.8869 28.8828 24.806 28.9318 24.7096L31.697 19.2748L33.0342 21.9033C33.0833 21.9996 33.158 22.0806 33.2502 22.1371C33.3423 22.1936 33.4484 22.2235 33.5565 22.2235H35.9354C36.0908 22.2235 36.2398 22.1618 36.3497 22.0519C36.4596 21.942 36.5213 21.793 36.5213 21.6376C36.5213 21.4822 36.4596 21.3331 36.3497 21.2233C36.2398 21.1134 36.0908 21.0516 35.9354 21.0516H33.9158L32.2192 17.717C32.1702 17.6206 32.0955 17.5397 32.0033 17.4832C31.9111 17.4266 31.8051 17.3967 31.697 17.3967ZM21.7473 15.6609H24.7878C24.9432 15.6609 25.0922 15.5992 25.2021 15.4893C25.312 15.3794 25.3738 15.2304 25.3738 15.075V8.90671C25.3738 8.75131 25.312 8.60228 25.2021 8.49239C25.0922 8.38251 24.9432 8.32078 24.7878 8.32078H21.7473C21.5919 8.32078 21.4428 8.38251 21.3329 8.49239C21.2231 8.60228 21.1613 8.75131 21.1613 8.90671V15.075C21.1613 15.2304 21.2231 15.3794 21.3329 15.4893C21.4428 15.5992 21.5919 15.6609 21.7473 15.6609ZM22.3332 9.49265H24.2019V14.4891H22.3332V9.49265ZM30.3823 9.99695H27.3417C27.1863 9.99695 27.0373 10.0587 26.9274 10.1686C26.8175 10.2785 26.7558 10.4275 26.7558 10.5829V15.075C26.7558 15.2304 26.8175 15.3794 26.9274 15.4893C27.0373 15.5992 27.1863 15.6609 27.3417 15.6609H30.3823C30.5377 15.6609 30.6867 15.5992 30.7966 15.4893C30.9065 15.3794 30.9682 15.2304 30.9682 15.075V10.5829C30.9682 10.4275 30.9065 10.2785 30.7966 10.1686C30.6867 10.0587 30.5377 9.99695 30.3823 9.99695ZM29.7963 14.4891H27.9277V11.1688H29.7963V14.4891ZM35.9354 15.6609C36.0908 15.6609 36.2398 15.5992 36.3497 15.4893C36.4596 15.3794 36.5213 15.2304 36.5213 15.075V7.36023C36.5213 7.20483 36.4596 7.05579 36.3497 6.94591C36.2398 6.83602 36.0908 6.77429 35.9354 6.77429H32.8948C32.7394 6.77429 32.5904 6.83602 32.4805 6.94591C32.3706 7.05579 32.3089 7.20483 32.3089 7.36023V15.075C32.3089 15.2304 32.3706 15.3794 32.4805 15.4893C32.5904 15.5992 32.7394 15.6609 32.8948 15.6609H35.9354ZM33.4808 7.94617H35.3495V14.4891H33.4808V7.94617ZM17.3359 13.4026H4.05469C3.89929 13.4026 3.75025 13.4643 3.64037 13.5742C3.53048 13.6841 3.46875 13.8331 3.46875 13.9885C3.46875 14.1439 3.53048 14.2929 3.64037 14.4028C3.75025 14.5127 3.89929 14.5744 4.05469 14.5744H17.3359C17.4913 14.5744 17.6404 14.5127 17.7503 14.4028C17.8601 14.2929 17.9219 14.1439 17.9219 13.9885C17.9219 13.8331 17.8601 13.6841 17.7503 13.5742C17.6404 13.4643 17.4913 13.4026 17.3359 13.4026ZM4.05469 17.687H6.43141C6.58681 17.687 6.73584 17.6253 6.84573 17.5154C6.95561 17.4055 7.01734 17.2565 7.01734 17.1011C7.01734 16.9457 6.95561 16.7967 6.84573 16.6868C6.73584 16.5769 6.58681 16.5152 6.43141 16.5152H4.05469C3.89929 16.5152 3.75025 16.5769 3.64037 16.6868C3.53048 16.7967 3.46875 16.9457 3.46875 17.1011C3.46875 17.2565 3.53048 17.4055 3.64037 17.5154C3.75025 17.6253 3.89929 17.687 4.05469 17.687ZM17.3359 16.5152H9.11617C8.96077 16.5152 8.81174 16.5769 8.70185 16.6868C8.59197 16.7967 8.53023 16.9457 8.53023 17.1011C8.53023 17.2565 8.59197 17.4055 8.70185 17.5154C8.81174 17.6253 8.96077 17.687 9.11617 17.687H17.3359C17.4913 17.687 17.6404 17.6253 17.7503 17.5154C17.8601 17.4055 17.9219 17.2565 17.9219 17.1011C17.9219 16.9457 17.8601 16.7967 17.7503 16.6868C17.6404 16.5769 17.4913 16.5152 17.3359 16.5152ZM17.3359 6.77429H4.05469C3.89929 6.77429 3.75025 6.83602 3.64037 6.94591C3.53048 7.05579 3.46875 7.20483 3.46875 7.36023C3.46875 7.51563 3.53048 7.66467 3.64037 7.77455C3.75025 7.88443 3.89929 7.94617 4.05469 7.94617H17.3359C17.4913 7.94617 17.6404 7.88443 17.7503 7.77455C17.8601 7.66467 17.9219 7.51563 17.9219 7.36023C17.9219 7.20483 17.8601 7.05579 17.7503 6.94591C17.6404 6.83602 17.4913 6.77429 17.3359 6.77429ZM4.05469 11.0588H12.2908C12.4462 11.0588 12.5952 10.9971 12.7051 10.8872C12.815 10.7773 12.8767 10.6283 12.8767 10.4729C12.8767 10.3175 12.815 10.1685 12.7051 10.0586C12.5952 9.94868 12.4462 9.88695 12.2908 9.88695H4.05469C3.89929 9.88695 3.75025 9.94868 3.64037 10.0586C3.53048 10.1685 3.46875 10.3175 3.46875 10.4729C3.46875 10.6283 3.53048 10.7773 3.64037 10.8872C3.75025 10.9971 3.89929 11.0588 4.05469 11.0588ZM17.3359 9.88695H14.9755C14.8201 9.88695 14.6711 9.94868 14.5612 10.0586C14.4513 10.1685 14.3896 10.3175 14.3896 10.4729C14.3896 10.6283 14.4513 10.7773 14.5612 10.8872C14.6711 10.9971 14.8201 11.0588 14.9755 11.0588H17.3359C17.4913 11.0588 17.6404 10.9971 17.7503 10.8872C17.8601 10.7773 17.9219 10.6283 17.9219 10.4729C17.9219 10.3175 17.8601 10.1685 17.7503 10.0586C17.6404 9.94868 17.4913 9.88695 17.3359 9.88695ZM17.9219 20.1759C17.9219 20.0205 17.8601 19.8715 17.7503 19.7616C17.6404 19.6517 17.4913 19.59 17.3359 19.59H4.05469C3.89929 19.59 3.75025 19.6517 3.64037 19.7616C3.53048 19.8715 3.46875 20.0205 3.46875 20.1759C3.46875 20.3313 3.53048 20.4804 3.64037 20.5903C3.75025 20.7001 3.89929 20.7619 4.05469 20.7619H17.3359C17.4913 20.7619 17.6404 20.7001 17.7503 20.5903C17.8601 20.4804 17.9219 20.3313 17.9219 20.1759ZM4.05469 22.6861C3.89929 22.6861 3.75025 22.7478 3.64037 22.8577C3.53048 22.9676 3.46875 23.1166 3.46875 23.272C3.46875 23.4274 3.53048 23.5765 3.64037 23.6863C3.75025 23.7962 3.89929 23.858 4.05469 23.858H10.3047C10.4601 23.858 10.6091 23.7962 10.719 23.6863C10.8289 23.5765 10.8906 23.4274 10.8906 23.272C10.8906 23.1166 10.8289 22.9676 10.719 22.8577C10.6091 22.7478 10.4601 22.6861 10.3047 22.6861H4.05469Z" fill="#65FF00"/>
</svg>
