<svg width="40" height="41" viewBox="0 0 40 41" fill="none" xmlns="http://www.w3.org/2000/svg">
<path d="M0.630159 19.9422C0.652815 19.1688 0.723128 18.3868 0.839534 17.6196C0.891097 17.2782 1.20985 17.0438 1.55125 17.0954C1.89266 17.1469 2.12703 17.4657 2.07547 17.8071C1.96688 18.5251 1.90047 19.2555 1.87938 19.9797C1.87464 20.1421 1.8068 20.2963 1.69025 20.4095C1.5737 20.5227 1.41763 20.586 1.25516 20.586H1.23641C0.891097 20.5751 0.620003 20.2868 0.630159 19.9422ZM4.42625 10.6774C4.52893 10.6776 4.63008 10.6525 4.72071 10.6043C4.81134 10.556 4.88866 10.4862 4.94578 10.4008C5.46047 9.63411 6.03325 8.90802 6.65907 8.22896C6.89266 7.97506 6.87703 7.57974 6.62313 7.34615C6.36922 7.11256 5.97391 7.12818 5.74032 7.38209C5.07123 8.10839 4.45876 8.88488 3.90828 9.70474C3.86258 9.77292 3.83074 9.84943 3.81461 9.9299C3.79847 10.0104 3.79834 10.0932 3.81422 10.1738C3.83011 10.2543 3.86171 10.3309 3.9072 10.3992C3.9527 10.4675 4.0112 10.5262 4.07938 10.5719C4.18485 10.643 4.30594 10.6774 4.42625 10.6774ZM1.99266 22.5938C1.95282 22.2508 1.64266 22.0047 1.29969 22.0454C1.21817 22.0548 1.13931 22.0803 1.06762 22.1202C0.995931 22.1602 0.932817 22.2139 0.881885 22.2782C0.830954 22.3426 0.793202 22.4163 0.770787 22.4953C0.748373 22.5742 0.741735 22.6568 0.751253 22.7383C0.846565 23.5555 0.996565 24.3751 1.19578 25.1751C1.21568 25.2547 1.25106 25.3296 1.29992 25.3955C1.34877 25.4615 1.41014 25.5171 1.48051 25.5594C1.55088 25.6016 1.62888 25.6295 1.71005 25.6416C1.79123 25.6537 1.87398 25.6497 1.9536 25.6297C2.03324 25.6099 2.10818 25.5745 2.17414 25.5257C2.24011 25.4768 2.29579 25.4155 2.33802 25.3451C2.38025 25.2747 2.40819 25.1967 2.42025 25.1155C2.4323 25.0343 2.42824 24.9515 2.40828 24.8719C2.22157 24.1251 2.08172 23.3579 1.99266 22.5938ZM3.17938 12.1891C2.86453 12.0469 2.49422 12.1868 2.35282 12.5016C2.01199 13.2562 1.71948 14.0318 1.47703 14.8235C1.37625 15.154 1.56219 15.5032 1.89188 15.604C1.95282 15.6227 2.01453 15.6313 2.07469 15.6313C2.34188 15.6313 2.58953 15.4579 2.67235 15.1891C2.89735 14.4524 3.17313 13.7212 3.49188 13.0165C3.63407 12.7016 3.49422 12.3313 3.17938 12.1891ZM38.1091 25.3962C37.7786 25.2954 37.4294 25.4813 37.3286 25.811C37.1036 26.5477 36.8278 27.279 36.5091 27.9837C36.3669 28.2985 36.5067 28.6688 36.8216 28.8102C36.9727 28.8784 37.1448 28.8838 37.2999 28.8252C37.4551 28.7666 37.5806 28.6488 37.6489 28.4977C37.9897 27.7431 38.2823 26.9676 38.5247 26.1758C38.6247 25.8462 38.4395 25.4969 38.1091 25.3962ZM38.0083 18.4063C38.0262 18.5583 38.0992 18.6985 38.2135 18.8003C38.3278 18.9021 38.4755 18.9585 38.6286 18.9587C38.6528 18.9587 38.677 18.9571 38.702 18.9547C39.045 18.9149 39.2903 18.604 39.2505 18.2618C39.1542 17.4409 39.0058 16.627 38.8059 15.8251C38.7224 15.4899 38.3825 15.2868 38.0481 15.3704C37.9685 15.3902 37.8935 15.4256 37.8276 15.4744C37.7616 15.5233 37.7059 15.5846 37.6637 15.655C37.6215 15.7254 37.5935 15.8034 37.5815 15.8846C37.5694 15.9658 37.5735 16.0486 37.5934 16.1282C37.7794 16.8751 37.9192 17.6422 38.0083 18.4063ZM35.9223 30.4282C35.8542 30.3825 35.7777 30.3506 35.6972 30.3345C35.6167 30.3184 35.5338 30.3182 35.4533 30.3341C35.3728 30.35 35.2962 30.3816 35.2279 30.4271C35.1596 30.4726 35.1009 30.5311 35.0552 30.5993C34.5407 31.3662 33.9679 32.0923 33.3419 32.7712C33.1083 33.0251 33.1239 33.4204 33.3778 33.654C33.493 33.7606 33.6443 33.8198 33.8013 33.8196C33.97 33.8196 34.138 33.7516 34.2606 33.618C34.9299 32.8916 35.5424 32.1148 36.0927 31.2946C36.2856 31.0094 36.2091 30.6212 35.9223 30.4282ZM38.7645 20.4149C38.4184 20.404 38.1317 20.6758 38.1216 21.0212C38.1005 21.7446 38.0341 22.4758 37.9255 23.1938C37.8739 23.5352 38.1083 23.854 38.4497 23.9055C38.5308 23.9178 38.6136 23.9141 38.6933 23.8944C38.773 23.8747 38.848 23.8395 38.9141 23.7908C38.9802 23.7422 39.0361 23.6809 39.0785 23.6107C39.1209 23.5404 39.1491 23.4625 39.1614 23.3813C39.2779 22.612 39.3478 21.8364 39.3708 21.0587C39.3809 20.7133 39.1099 20.4251 38.7645 20.4149ZM30.3356 35.3883C25.9434 38.4352 20.4661 39.3899 15.3091 38.0079C13.0825 37.411 10.9848 36.3915 9.14969 35.0219L9.79657 35.1383C10.1364 35.1993 10.4614 34.9735 10.5223 34.6337C10.5833 34.2938 10.3575 33.9688 10.0177 33.9079L7.09344 33.3837C6.87391 33.3446 6.64969 33.4251 6.50516 33.5954C6.36063 33.7657 6.31922 34.0008 6.395 34.2102L7.40282 37.0055C7.52 37.3305 7.87782 37.4985 8.20282 37.3813C8.52782 37.2641 8.69578 36.9063 8.5786 36.5813L8.36844 35.9985C10.3495 37.482 12.5954 38.5739 14.9856 39.2157C16.6419 39.6594 18.3286 39.8782 20.0059 39.8782C23.9114 39.8782 27.7638 38.6946 31.0473 36.4165C31.1148 36.3697 31.1723 36.3101 31.2167 36.2411C31.2611 36.1721 31.2914 36.095 31.306 36.0142C31.3206 35.9335 31.3191 35.8507 31.3017 35.7705C31.2843 35.6903 31.2512 35.6143 31.2044 35.5469C31.0091 35.2618 30.6192 35.1915 30.3356 35.3883ZM33.4958 7.40553C33.5665 7.32171 33.6138 7.22077 33.6332 7.11285C33.6525 7.00493 33.6431 6.89382 33.6059 6.79068L32.5981 3.99537C32.4809 3.67037 32.1231 3.5024 31.7981 3.61959C31.4731 3.73678 31.3052 4.09459 31.4224 4.41959L31.6325 5.0024C29.6515 3.51878 27.4056 2.42685 25.0153 1.78521C19.5028 0.30787 13.6481 1.32818 8.95282 4.58521C8.66922 4.78209 8.59891 5.17115 8.79578 5.45474C8.99266 5.73834 9.38172 5.80865 9.66532 5.61178C14.0575 2.5649 19.5348 1.61021 24.6919 2.99224C26.9155 3.5888 29.0056 4.60205 30.8513 5.97818L30.2044 5.86178C29.8653 5.80162 29.5395 6.02662 29.4786 6.36646C29.4177 6.70631 29.6434 7.03131 29.9833 7.09224L32.9075 7.61646C33.0155 7.63632 33.1267 7.62726 33.2301 7.59022C33.3334 7.55317 33.425 7.48945 33.4958 7.40553ZM11.8356 29.6977V31.2587H28.538V30.5149H13.8513C13.2536 30.5149 12.7677 30.029 12.7677 29.4313V29.1422C12.7677 28.7969 13.0473 28.5172 13.3927 28.5172C13.738 28.5172 14.0177 28.7969 14.0177 29.1422V29.2649H29.9286V12.0587H27.2778C26.9325 12.0587 26.6528 11.779 26.6528 11.4337V8.50162H14.0177V13.3493C14.0177 13.6946 13.738 13.9743 13.3927 13.9743C13.0473 13.9743 12.7677 13.6946 12.7677 13.3493V10.0688H11.8356V12.7938C11.8356 13.1391 11.5559 13.4188 11.2106 13.4188C10.8653 13.4188 10.5856 13.1391 10.5856 12.7938V9.68131C10.5856 9.20553 10.9731 8.81803 11.4505 8.81803H12.7677V8.33443C12.7677 7.73678 13.2536 7.25084 13.8513 7.25084H27.2778C27.2997 7.25084 27.3216 7.2524 27.3427 7.25396C27.3434 7.25396 27.3442 7.25396 27.3458 7.25474C27.3661 7.25709 27.3864 7.26021 27.4067 7.26412C27.4075 7.26412 27.4083 7.2649 27.4098 7.2649C27.4302 7.26881 27.4497 7.27428 27.4684 7.28053L27.4755 7.28287C27.4927 7.28834 27.5098 7.29537 27.527 7.3024C27.5317 7.30474 27.5356 7.30709 27.5403 7.30865C27.5544 7.3149 27.5684 7.32193 27.5825 7.32974C27.5888 7.33287 27.5942 7.33678 27.6005 7.34068C27.6122 7.34771 27.6239 7.35474 27.6348 7.36256C27.6419 7.36724 27.6481 7.37271 27.6544 7.3774C27.6645 7.38521 27.6739 7.39225 27.6833 7.40084C27.6903 7.40631 27.6966 7.41256 27.7028 7.41881C27.7114 7.4274 27.72 7.43521 27.7286 7.44381C27.7309 7.44693 27.7341 7.44928 27.7372 7.4524L31.013 11.0094C31.0169 11.0133 31.02 11.018 31.0239 11.0227C31.0302 11.0297 31.0364 11.0376 31.0427 11.0454C31.0489 11.0532 31.0544 11.061 31.0598 11.0688C31.0661 11.0774 31.0716 11.0852 31.077 11.0946L31.0911 11.118C31.0966 11.1274 31.102 11.1368 31.1075 11.1469C31.1114 11.154 31.1145 11.1618 31.1184 11.1696C31.1231 11.1797 31.1278 11.1907 31.1325 11.2008C31.1356 11.2079 31.138 11.2157 31.1411 11.2235C31.145 11.2344 31.1489 11.2454 31.152 11.2571C31.1544 11.2649 31.1559 11.2735 31.1583 11.2813C31.1614 11.2922 31.1638 11.3032 31.1661 11.3141C31.1684 11.3243 31.1692 11.3352 31.1708 11.3454C31.1724 11.3547 31.1739 11.3633 31.1747 11.3727C31.177 11.393 31.1778 11.4133 31.1778 11.4337V29.4313C31.1778 30.029 30.6919 30.5149 30.0942 30.5149H29.7872V31.6454C29.7872 32.1212 29.3997 32.5087 28.9224 32.5087H11.4505C10.9739 32.5087 10.5856 32.1212 10.5856 31.6454V29.6977C10.5856 29.3524 10.8653 29.0727 11.2106 29.0727C11.5559 29.0727 11.8356 29.3524 11.8356 29.6977ZM27.9028 10.8087H29.1286L27.9028 9.47818V10.8087ZM23.9044 13.5907H20.7263C20.3809 13.5907 20.1013 13.8704 20.1013 14.2157C20.1013 14.561 20.3809 14.8407 20.7263 14.8407H23.9044C24.2497 14.8407 24.5294 14.561 24.5294 14.2157C24.5294 13.8704 24.2497 13.5907 23.9044 13.5907ZM19.3411 14.2157C19.3411 13.8704 19.0614 13.5907 18.7161 13.5907H15.9364C15.5911 13.5907 15.3114 13.8704 15.3114 14.2157C15.3114 14.561 15.5911 14.8407 15.9364 14.8407H18.7161C19.0614 14.8407 19.3411 14.561 19.3411 14.2157ZM17.4997 17.8735H22.4216C22.7669 17.8735 23.0466 17.5938 23.0466 17.2485C23.0466 16.9032 22.7669 16.6235 22.4216 16.6235H17.4997C17.1544 16.6235 16.8747 16.9032 16.8747 17.2485C16.8747 17.5938 17.1544 17.8735 17.4997 17.8735ZM28.1794 17.2485C28.1794 16.9032 27.8997 16.6235 27.5544 16.6235H24.4216C24.0763 16.6235 23.7966 16.9032 23.7966 17.2485C23.7966 17.5938 24.0763 17.8735 24.4216 17.8735H27.5544C27.8989 17.8735 28.1794 17.5938 28.1794 17.2485ZM18.4223 19.6563C18.077 19.6563 17.7973 19.936 17.7973 20.2813C17.7973 20.6266 18.077 20.9063 18.4223 20.9063H27.2458C27.5911 20.9063 27.8708 20.6266 27.8708 20.2813C27.8708 19.936 27.5911 19.6563 27.2458 19.6563H18.4223ZM18.1395 23.9391H27.1427C27.488 23.9391 27.7677 23.6594 27.7677 23.3141C27.7677 22.9688 27.488 22.6891 27.1427 22.6891H18.1395C17.7942 22.6891 17.5145 22.9688 17.5145 23.3141C17.5145 23.6594 17.7942 23.9391 18.1395 23.9391ZM16.0927 26.3469C16.0927 26.6922 16.3723 26.9719 16.7177 26.9719H26.7309C27.0763 26.9719 27.3559 26.6922 27.3559 26.3469C27.3559 26.0016 27.0763 25.7219 26.7309 25.7219H16.7177C16.3731 25.7219 16.0927 26.0016 16.0927 26.3469ZM10.8145 27.9915C7.095 27.9915 4.06844 24.9657 4.06844 21.2454C4.06844 17.5258 7.09422 14.4993 10.8145 14.4993C14.5341 14.4993 17.5606 17.5251 17.5606 21.2454C17.5606 24.9657 14.5341 27.9915 10.8145 27.9915ZM10.8145 26.7415C13.845 26.7415 16.3106 24.2758 16.3106 21.2454C16.3106 18.2149 13.845 15.7493 10.8145 15.7493C7.78407 15.7493 5.31844 18.2149 5.31844 21.2454C5.31844 24.2758 7.78407 26.7415 10.8145 26.7415ZM13.5684 19.0071C13.4435 18.8982 13.2804 18.8434 13.115 18.8547C12.9496 18.8659 12.7955 18.9424 12.6864 19.0672L10.0442 22.0977L8.91219 20.9657C8.66766 20.7219 8.27235 20.7219 8.0286 20.9657C7.78485 21.2094 7.78485 21.6055 8.0286 21.8493L9.63329 23.454C9.75047 23.5712 9.90985 23.6368 10.0755 23.6368H10.0966C10.27 23.6305 10.4325 23.5532 10.5466 23.4227L13.6286 19.8876C13.8559 19.629 13.8286 19.2344 13.5684 19.0071Z" fill="#65FF00"/>
</svg>
