<svg width="40" height="40" viewBox="0 0 40 40" fill="none" xmlns="http://www.w3.org/2000/svg">
<path d="M35.2 6.09099C35.994 6.09099 36.6364 5.44856 36.6364 4.65463C36.6364 3.86069 35.994 3.21826 35.2 3.21826C34.4061 3.21826 33.7637 3.86069 33.7637 4.65463C33.7637 5.44856 34.4122 6.09099 35.2 6.09099ZM35.2 4.2425C35.4303 4.2425 35.6182 4.43038 35.6182 4.66069C35.6182 4.89099 35.4303 5.07887 35.2 5.07887C34.9637 5.07887 34.7819 4.89705 34.7819 4.66069C34.7819 4.42432 34.9697 4.2425 35.2 4.2425Z" fill="#65FF00"/>
<path d="M36.7942 0.896973H7.26689C6.14568 0.896973 5.23053 1.81212 5.23053 2.93334V6.04243H3.20629C2.08507 6.04243 1.16992 6.95758 1.16992 8.07879V33.6121C1.16992 34.7333 2.08507 35.6485 3.20629 35.6485H16.7396V38.5939C16.7396 38.8727 16.9699 39.103 17.2487 39.103H26.8123C27.0911 39.103 27.3214 38.8727 27.3214 38.5939V35.6485H32.7336C33.8548 35.6485 34.7699 34.7333 34.7699 33.6121V30.503H36.7942C37.9154 30.503 38.8305 29.5879 38.8305 28.4667V2.93334C38.8305 1.81212 37.9154 0.896973 36.7942 0.896973ZM6.24871 2.93334C6.24871 2.3697 6.70932 1.91515 7.26689 1.91515H36.7942C37.3578 1.91515 37.8123 2.37576 37.8123 2.93334V7.4H18.4911L16.2184 5.04243C16.0426 4.86061 15.8002 4.75758 15.5517 4.75758H10.5457C10.0366 4.75758 9.61841 5.17576 9.61841 5.68485V7.4H6.24871V2.93334ZM3.20629 34.6364C2.64265 34.6364 2.1881 34.1758 2.1881 33.6182V8.07879C2.1881 7.51515 2.64871 7.06061 3.20629 7.06061H5.23053V28.4727C5.23053 29.5939 6.14568 30.5091 7.26689 30.5091H18.3214C18.5214 30.897 18.6123 31.3333 18.576 31.7818H17.7881C17.2063 31.7818 16.7396 32.2545 16.7396 32.8303V34.6364H3.20629ZM21.5275 23.9758C21.6305 23.7939 21.8184 23.6788 22.0305 23.6788C22.3457 23.6788 22.6002 23.9333 22.6002 24.2485C22.6002 24.4545 22.4911 24.6424 22.3154 24.7455C22.1214 24.8606 21.8911 24.8485 21.6548 24.7152C21.6235 24.6991 21.5981 24.6737 21.582 24.6424C21.3881 24.3333 21.4669 24.0909 21.5275 23.9758ZM21.5214 22.7576C21.148 22.8817 20.8345 23.1412 20.6427 23.4849C20.3517 24.0061 20.3881 24.6424 20.7275 25.1879C20.8366 25.3576 20.982 25.497 21.1578 25.6C21.4366 25.7576 21.7396 25.8424 22.0366 25.8424C22.3154 25.8424 22.5881 25.7697 22.8305 25.6303C23.3154 25.3455 23.6184 24.8182 23.6184 24.2545C23.6184 23.5576 23.1639 22.9697 22.5396 22.7576V20.1394L27.0426 28.2667C27.0366 28.2727 27.0305 28.2849 27.0123 28.2909C25.4184 28.703 24.376 30.1939 24.4608 31.7818H19.6063C19.6972 30.1879 18.6487 28.697 17.0245 28.2424L21.5214 20.1394V22.7576ZM26.3033 38.0849H17.7578L17.7881 32.7939H26.273C26.2911 32.7939 26.3033 32.8061 26.3033 32.8242V38.0849ZM33.7517 33.6121C33.7517 34.1758 33.2911 34.6303 32.7336 34.6303H27.3214V32.8242C27.3214 32.2424 26.8487 31.7758 26.273 31.7758H25.4851C25.4487 31.3273 25.5457 30.8909 25.7396 30.503H33.7517V33.6121ZM36.7942 29.4909H26.7275C26.8911 29.4 27.0669 29.3212 27.2608 29.2727C27.582 29.1879 27.8426 28.9636 27.976 28.6606C28.1033 28.3636 28.0851 28.0303 27.9275 27.7455L22.7154 18.3576C22.582 18.1091 22.3214 17.9515 22.0366 17.9515C21.7457 17.9576 21.4851 18.103 21.3457 18.3515L16.1275 27.7455C15.9699 28.0303 15.9578 28.3697 16.0851 28.6667C16.2123 28.9697 16.473 29.1879 16.7942 29.2727C16.9881 29.3212 17.1578 29.4 17.3275 29.4909H7.26689C6.70326 29.4909 6.24871 29.0303 6.24871 28.4727V8.41818H9.70326C10.2123 8.41818 10.6305 8 10.6305 7.49091V5.77576H15.5093L17.782 8.13334C17.9578 8.31516 18.2002 8.41818 18.4487 8.41818H37.8123V28.4667C37.8123 29.0303 37.3578 29.4909 36.7942 29.4909Z" fill="#65FF00"/>
<path d="M31.7343 6.09099C32.5283 6.09099 33.1707 5.44856 33.1707 4.65463C33.1707 3.86069 32.5283 3.21826 31.7343 3.21826C30.9404 3.21826 30.298 3.86069 30.298 4.65463C30.298 5.44856 30.9404 6.09099 31.7343 6.09099ZM31.7343 4.2425C31.9646 4.2425 32.1525 4.43038 32.1525 4.66069C32.1525 4.89099 31.9646 5.07887 31.7343 5.07887C31.4979 5.07887 31.3161 4.89705 31.3161 4.66069C31.3161 4.42432 31.504 4.2425 31.7343 4.2425ZM28.2616 6.09099C29.0555 6.09099 29.6979 5.44856 29.6979 4.65463C29.6979 3.86069 29.0555 3.21826 28.2616 3.21826C27.4676 3.21826 26.8252 3.86069 26.8252 4.65463C26.8252 5.44856 27.4676 6.09099 28.2616 6.09099ZM28.2616 4.2425C28.4919 4.2425 28.6798 4.43038 28.6798 4.66069C28.6798 4.89099 28.4919 5.07887 28.2616 5.07887C28.0252 5.07887 27.8434 4.89705 27.8434 4.66069C27.8434 4.42432 28.0313 4.2425 28.2616 4.2425ZM31.8434 12.8546C31.5464 13.1516 31.3586 13.5274 31.2858 13.9274H24.1646V13.1274C24.1646 12.5819 23.7222 12.1395 23.1767 12.1395H20.8798C20.3343 12.1395 19.8919 12.5819 19.8919 13.1274V13.9274H12.7767C12.7101 13.5334 12.5222 13.1577 12.2192 12.8486C11.4495 12.091 10.1343 12.1031 9.3828 12.8546C9.00098 13.2364 8.79492 13.7395 8.79492 14.2728C8.79492 14.8122 9.00704 15.3213 9.3828 15.691C9.76462 16.0849 10.2737 16.2849 10.801 16.2849C11.1343 16.2849 11.4737 16.2061 11.7949 16.0425C12.145 15.8632 12.4262 15.5735 12.5949 15.2183C12.6373 15.1274 12.6737 15.0364 12.704 14.9455H17.6434C14.9586 16.2546 12.9343 18.7152 12.2313 21.6849H11.4434C10.898 21.6849 10.4555 22.1274 10.4555 22.6728V24.9698C10.4555 25.5152 10.898 25.9577 11.4434 25.9577H13.7404C14.2858 25.9577 14.7283 25.5152 14.7283 24.9698V22.6728C14.7283 22.1274 14.2858 21.6849 13.7404 21.6849H13.2798C14.1283 18.4849 16.6919 15.9758 19.9101 15.2001V15.4183C19.9101 15.9637 20.3525 16.4061 20.898 16.4061H23.1949C23.7404 16.4061 24.1828 15.9637 24.1828 15.4183V15.2001C27.3949 15.9758 29.9586 18.4849 30.8131 21.6849H30.3949C29.8495 21.6849 29.407 22.1274 29.407 22.6728V24.9698C29.407 25.5152 29.8495 25.9577 30.3949 25.9577H32.6919C33.2373 25.9577 33.6798 25.5152 33.6798 24.9698V22.6728C33.6798 22.1274 33.2373 21.6849 32.6919 21.6849H31.8616C31.1525 18.7152 29.1283 16.2486 26.4495 14.9455H31.401C31.498 15.2243 31.6555 15.4789 31.8676 15.691C32.2495 16.0849 32.7586 16.2849 33.2858 16.2849C33.6192 16.2849 33.9586 16.2061 34.2798 16.0425C34.6298 15.8632 34.911 15.5735 35.0798 15.2183C35.4737 14.388 35.3343 13.4849 34.7101 12.8486C33.9161 12.097 32.601 12.1031 31.8434 12.8546ZM11.6676 14.788C11.5949 14.9334 11.4737 15.0607 11.3283 15.1334C10.801 15.4001 10.3464 15.2304 10.098 14.9698C9.91007 14.788 9.80704 14.5395 9.80704 14.2728C9.80704 14.0122 9.91007 13.7637 10.098 13.5698C10.2858 13.3819 10.5343 13.2789 10.801 13.2789C11.0616 13.2789 11.3161 13.3819 11.498 13.5637C11.8131 13.891 11.8737 14.3455 11.6676 14.788ZM13.7283 24.9395L11.4616 24.9698L11.4313 22.7031H13.698L13.7283 24.9395ZM32.6737 24.9395L30.407 24.9698L30.3767 22.7031H32.6434L32.6737 24.9395ZM20.9161 15.4243L20.904 14.6607C20.9161 14.6061 20.9161 14.5516 20.9101 14.491V14.4849C20.9101 14.4667 20.9222 14.4546 20.9222 14.4364C20.9222 14.4061 20.9101 14.3819 20.904 14.3577L20.8858 13.1637H23.1525L23.1707 14.3577C23.1646 14.388 23.1525 14.4122 23.1525 14.4425C23.1525 14.4607 23.1586 14.4728 23.1646 14.491V14.497C23.1525 14.5758 23.1586 14.6486 23.1767 14.7152L23.1889 15.4001L20.9161 15.4243ZM34.1343 14.788C34.0616 14.9334 33.9404 15.0607 33.7949 15.1334C33.2676 15.4001 32.8131 15.2304 32.5646 14.9698C32.3767 14.788 32.2737 14.5395 32.2737 14.2728C32.2737 14.0122 32.3767 13.7637 32.5646 13.5698C32.7525 13.3819 33.001 13.2789 33.2676 13.2789C33.5283 13.2789 33.7828 13.3819 33.9646 13.5637C34.2798 13.891 34.3404 14.3455 34.1343 14.788Z" fill="#65FF00"/>
</svg>
