<svg width="40" height="40" viewBox="0 0 40 40" fill="none" xmlns="http://www.w3.org/2000/svg">
<path d="M26.6162 34.0141L27.9083 35.3175L30.068 33.1578L28.6442 31.7227M30.8484 38.284L33.0081 36.1243L33.7618 36.8856C34.3496 37.4797 34.3496 38.4499 33.7618 39.0427L33.7492 39.0554C33.1614 39.6482 32.1999 39.6482 31.6122 39.0554L30.8484 38.284ZM30.8484 38.284L27.9083 35.3187L30.068 33.1591L33.0069 36.1256L30.8484 38.284ZM27.242 4.37913H29.9186M11.3142 14.3301H4.79688M16.224 33.9153H10.9836C9.80804 33.9153 8.84533 32.945 8.84533 31.7581V3.65713C8.84533 2.47027 9.80677 1.5 10.9836 1.5H24.9872C26.1627 1.5 27.1254 2.47027 27.1254 3.65713V13.5219M27.1242 15.8045V21.5868" stroke="#65FF00" stroke-width="0.8" stroke-miterlimit="10" stroke-linecap="round" stroke-linejoin="round"/>
<path d="M15.0482 32.4775H12.2335C11.1784 32.4775 10.3145 31.6136 10.3145 30.5585V4.32326C10.3145 3.52019 10.9719 2.86279 11.775 2.86279H24.3852C25.1883 2.86279 25.8458 3.52019 25.8458 4.32326V19.0533M15.0482 28.8029H10.3157M13.5307 4.44613H11.7636" stroke="#65FF00" stroke-width="0.8" stroke-miterlimit="10" stroke-linecap="round" stroke-linejoin="round"/>
<path d="M24.1177 4.89636H22.7484C22.5242 4.89636 22.3418 4.71396 22.3418 4.48976V4.40489C22.3418 4.18069 22.5242 3.99829 22.7484 3.99829H24.1177C24.342 3.99829 24.5244 4.18069 24.5244 4.40489V4.48976C24.5244 4.71396 24.342 4.89636 24.1177 4.89636Z" stroke="#65FF00" stroke-width="0.8" stroke-miterlimit="10" stroke-linecap="round" stroke-linejoin="round"/>
<path d="M18.9961 4.44653H21.2027" stroke="#65FF00" stroke-width="0.8" stroke-miterlimit="10" stroke-linecap="round" stroke-linejoin="round"/>
<path d="M18.2463 8.5791H12.9717M18.2463 13.7028H12.9717M22.6495 11.9459H17.3748M22.6495 8.5791H20.4504M18.2463 17.5446H12.9717M17.3748 19.594H12.9717M22.6495 17.5446H20.4504M15.0871 11.9459H12.8881M22.7799 10.2625H12.8438M22.7799 15.642H12.8438M29.8989 27.55C29.8989 29.094 29.4353 30.5304 28.6424 31.7224C27.3085 33.7262 25.0423 35.0448 22.4709 35.0448C18.3679 35.0448 15.0428 31.6894 15.0428 27.55C15.0428 23.4105 18.3679 20.0551 22.4709 20.0551C26.5738 20.0538 29.8989 23.4105 29.8989 27.55Z" stroke="#65FF00" stroke-width="0.8" stroke-miterlimit="10" stroke-linecap="round" stroke-linejoin="round"/>
<path d="M22.4744 33.4894C25.7254 33.4894 28.3608 30.8302 28.3608 27.55C28.3608 24.2698 25.7254 21.6106 22.4744 21.6106C19.2234 21.6106 16.5879 24.2698 16.5879 27.55C16.5879 30.8302 19.2234 33.4894 22.4744 33.4894Z" stroke="#65FF00" stroke-width="0.8" stroke-miterlimit="10" stroke-linecap="round" stroke-linejoin="round"/>
<path d="M33.933 25.7879V27.9109M33.933 20.9277V23.4319M18.7398 34.2024L18.7411 36.8928M32.5788 24.4668H29.4095M37.9333 24.5137H35.3137M23.1366 25.8665L26.0324 29.2928M26.0324 25.8665L23.1366 29.2928M21.7661 25.7183V28.1009C21.7661 28.8381 21.1492 29.441 20.3955 29.441C19.6418 29.441 19.0249 28.8381 19.0249 28.1009V25.7183M3.70508 19.352V15.5254" stroke="#65FF00" stroke-width="0.8" stroke-miterlimit="10" stroke-linecap="round" stroke-linejoin="round"/>
<path d="M18.6211 39.3251C19.2521 39.3251 19.7637 38.809 19.7637 38.1724C19.7637 37.5358 19.2521 37.0198 18.6211 37.0198C17.9901 37.0198 17.4785 37.5358 17.4785 38.1724C17.4785 38.809 17.9901 39.3251 18.6211 39.3251Z" stroke="#65FF00" stroke-width="0.8" stroke-miterlimit="10" stroke-linecap="round" stroke-linejoin="round"/>
<path d="M33.9336 25.7489C34.5646 25.7489 35.0762 25.2329 35.0762 24.5963C35.0762 23.9597 34.5646 23.4436 33.9336 23.4436C33.3026 23.4436 32.791 23.9597 32.791 24.5963C32.791 25.2329 33.3026 25.7489 33.9336 25.7489Z" stroke="#65FF00" stroke-width="0.8" stroke-miterlimit="10" stroke-linecap="round" stroke-linejoin="round"/>
<path d="M31.0606 5.51188C31.6916 5.51188 32.2031 4.99581 32.2031 4.35921C32.2031 3.72261 31.6916 3.20654 31.0606 3.20654C30.4295 3.20654 29.918 3.72261 29.918 4.35921C29.918 4.99581 30.4295 5.51188 31.0606 5.51188Z" stroke="#65FF00" stroke-width="0.8" stroke-miterlimit="10" stroke-linecap="round" stroke-linejoin="round"/>
<path d="M3.64259 15.5016C4.27362 15.5016 4.78517 14.9856 4.78517 14.349C4.78517 13.7124 4.27362 13.1963 3.64259 13.1963C3.01155 13.1963 2.5 13.7124 2.5 14.349C2.5 14.9856 3.01155 15.5016 3.64259 15.5016Z" stroke="#65FF00" stroke-width="0.8" stroke-miterlimit="10" stroke-linecap="round" stroke-linejoin="round"/>
<path d="M3.64259 21.6498C4.27362 21.6498 4.78517 21.1337 4.78517 20.4971C4.78517 19.8605 4.27362 19.3445 3.64259 19.3445C3.01155 19.3445 2.5 19.8605 2.5 20.4971C2.5 21.1337 3.01155 21.6498 3.64259 21.6498Z" stroke="#65FF00" stroke-width="0.8" stroke-miterlimit="10" stroke-linecap="round" stroke-linejoin="round"/>
</svg>
