<svg width="40" height="40" viewBox="0 0 40 40" fill="none" xmlns="http://www.w3.org/2000/svg">
<path d="M16.25 37.5H2.5V18.75H16.25V31.25H17.5V1.875C17.5 1.70924 17.4342 1.55027 17.3169 1.43306C17.1997 1.31585 17.0408 1.25 16.875 1.25H1.875C1.70924 1.25 1.55027 1.31585 1.43306 1.43306C1.31585 1.55027 1.25 1.70924 1.25 1.875V38.125C1.25 38.2908 1.31585 38.4497 1.43306 38.5669C1.55027 38.6842 1.70924 38.75 1.875 38.75H16.875C17.0408 38.75 17.1997 38.6842 17.3169 38.5669C17.4342 38.4497 17.5 38.2908 17.5 38.125V35H16.25V37.5ZM16.25 14.1161L12.317 10.183C12.1997 10.0659 12.0407 10.0001 11.875 10.0001C11.7093 10.0001 11.5503 10.0659 11.433 10.183L9.6875 11.9286L7.94195 10.183C7.82471 10.0659 7.66575 10.0001 7.5 10.0001C7.33425 10.0001 7.17529 10.0659 7.05805 10.183L2.5 14.7411V7.5H16.25V14.1161ZM2.5 17.5V16.5089L7.5 11.5089L10.808 14.817L11.692 13.933L10.5714 12.8125L11.875 11.5088L16.25 15.8839V17.5H2.5ZM16.25 2.5V6.25H2.5V2.5H16.25Z" fill="#65FF00"/>
<path d="M3.75 3.75H6.25V5H3.75V3.75ZM13.75 3.75H15V5H13.75V3.75ZM3.75 23.75H15V25H3.75V23.75ZM3.75 26.875H15V28.125H3.75V26.875Z" fill="#65FF00"/>
<path d="M38.125 1.25H23.125C22.9592 1.25 22.8003 1.31585 22.6831 1.43306C22.5658 1.55027 22.5 1.70924 22.5 1.875V13.75H20.625C20.1279 13.7506 19.6513 13.9483 19.2998 14.2998C18.9483 14.6513 18.7506 15.1279 18.75 15.625V31.875C18.7498 32.0407 18.6839 32.1995 18.5667 32.3167C18.4495 32.4339 18.2907 32.4998 18.125 32.5H15V31.25C15 31.0842 14.9342 30.9253 14.8169 30.8081C14.6997 30.6908 14.5408 30.625 14.375 30.625H4.375C4.20924 30.625 4.05027 30.6908 3.93306 30.8081C3.81585 30.9253 3.75 31.0842 3.75 31.25V35C3.75 35.1658 3.81585 35.3247 3.93306 35.4419C4.05027 35.5592 4.20924 35.625 4.375 35.625H14.375C14.5408 35.625 14.6997 35.5592 14.8169 35.4419C14.9342 35.3247 15 35.1658 15 35V33.75H18.125C18.6221 33.7494 19.0987 33.5517 19.4502 33.2002C19.8017 32.8487 19.9994 32.3721 20 31.875V15.625C20.0002 15.4593 20.0661 15.3005 20.1833 15.1833C20.3005 15.0661 20.4593 15.0002 20.625 15H22.5V38.125C22.5 38.2908 22.5658 38.4497 22.6831 38.5669C22.8003 38.6842 22.9592 38.75 23.125 38.75H38.125C38.2908 38.75 38.4497 38.6842 38.5669 38.5669C38.6842 38.4497 38.75 38.2908 38.75 38.125V1.875C38.75 1.70924 38.6842 1.55027 38.5669 1.43306C38.4497 1.31585 38.2908 1.25 38.125 1.25ZM13.75 34.375H5V31.875H13.75V34.375ZM37.5 2.5V6.25H23.75V2.5H37.5ZM23.75 37.5V7.5H37.5V37.5H23.75Z" fill="#65FF00"/>
<path d="M27.5 13.75C27.9945 13.75 28.4778 13.6034 28.8889 13.3287C29.3 13.054 29.6205 12.6635 29.8097 12.2067C29.9989 11.7499 30.0484 11.2472 29.952 10.7623C29.8555 10.2773 29.6174 9.83186 29.2678 9.48223C28.9181 9.1326 28.4727 8.8945 27.9877 8.79804C27.5028 8.70157 27.0001 8.75108 26.5433 8.9403C26.0865 9.12952 25.696 9.44995 25.4213 9.86107C25.1466 10.2722 25 10.7555 25 11.25C25.0008 11.9128 25.2644 12.5482 25.7331 13.0169C26.2018 13.4856 26.8372 13.7492 27.5 13.75ZM27.5 10C27.7472 10 27.9889 10.0733 28.1945 10.2107C28.4 10.348 28.5602 10.5432 28.6548 10.7716C28.7495 11.0001 28.7742 11.2514 28.726 11.4939C28.6778 11.7363 28.5587 11.9591 28.3839 12.1339C28.2091 12.3087 27.9863 12.4278 27.7439 12.476C27.5014 12.5242 27.2501 12.4995 27.0216 12.4048C26.7932 12.3102 26.598 12.15 26.4607 11.9445C26.3233 11.7389 26.25 11.4972 26.25 11.25C26.2504 10.9186 26.3822 10.6009 26.6165 10.3665C26.8509 10.1322 27.1686 10.0004 27.5 10ZM25 3.75H27.5V5H25V3.75ZM35 3.75H36.25V5H35V3.75ZM31.25 9.375H36.25V10.625H31.25V9.375ZM31.25 11.875H36.25V13.125H31.25V11.875ZM35.625 31.25H25.625C25.4592 31.25 25.3003 31.3158 25.1831 31.4331C25.0658 31.5503 25 31.7092 25 31.875V35.625C25 35.7908 25.0658 35.9497 25.1831 36.0669C25.3003 36.1842 25.4592 36.25 25.625 36.25H35.625C35.7908 36.25 35.9497 36.1842 36.0669 36.0669C36.1842 35.9497 36.25 35.7908 36.25 35.625V31.875C36.25 31.7092 36.1842 31.5503 36.0669 31.4331C35.9497 31.3158 35.7908 31.25 35.625 31.25ZM35 35H26.25V32.5H35V35ZM3.75 20.625H15V21.875H3.75V20.625ZM30.625 15.625C29.5125 15.625 28.4249 15.9549 27.4999 16.573C26.5749 17.1911 25.8539 18.0696 25.4282 19.0974C25.0024 20.1252 24.891 21.2562 25.1081 22.3474C25.3251 23.4385 25.8609 24.4408 26.6475 25.2275C27.4342 26.0141 28.4365 26.5499 29.5276 26.7669C30.6188 26.984 31.7498 26.8726 32.7776 26.4468C33.8054 26.0211 34.6839 25.3001 35.302 24.3751C35.9201 23.4501 36.25 22.3625 36.25 21.25C36.2483 19.7587 35.6552 18.3289 34.6006 17.2744C33.5461 16.2198 32.1163 15.6267 30.625 15.625ZM30.625 16.875C31.5694 16.874 32.4886 17.1802 33.2437 17.7474L30.3662 20.625H26.2953C26.4468 19.5844 26.9676 18.6329 27.7625 17.9445C28.5574 17.256 29.5734 16.8764 30.625 16.875ZM26.2953 21.875H29.7232L28.5198 25.0838C27.9264 24.7572 27.4167 24.2974 27.0307 23.7407C26.6448 23.1839 26.3931 22.5453 26.2954 21.875H26.2953ZM29.6899 25.5234L30.7427 22.7159L32.2301 25.3187C31.4227 25.6386 30.5381 25.7099 29.6899 25.5234ZM33.3145 24.6969L31.4045 21.3544L34.1276 18.6313C34.814 19.5472 35.1134 20.696 34.9613 21.8304C34.8092 22.9648 34.2179 23.9942 33.3145 24.697V24.6969ZM25.625 28.125H28.125V29.375H25.625V28.125ZM29.375 28.125H31.875V29.375H29.375V28.125ZM33.125 28.125H35.625V29.375H33.125V28.125Z" fill="#65FF00"/>
</svg>
