<svg width="40" height="40" viewBox="0 0 40 40" fill="none" xmlns="http://www.w3.org/2000/svg">
<mask id="mask0_532_772" style="mask-type:luminance" maskUnits="userSpaceOnUse" x="0" y="0" width="40" height="40">
<path d="M0 0.000118256H39.9999V40H0V0.000118256Z" fill="white"/>
</mask>
<g mask="url(#mask0_532_772)">
<path d="M0.78125 12.135H36.3686" stroke="#65FF00" stroke-miterlimit="10" stroke-linecap="round" stroke-linejoin="round"/>
<path d="M7.30499 8.8103C8.32812 8.8103 9.16296 7.97812 9.16296 6.95554C9.16296 5.93297 8.32812 5.10078 7.30499 5.10078C6.28414 5.10078 5.44922 5.93297 5.44922 6.95554C5.44922 7.97812 6.28414 8.8103 7.30499 8.8103Z" stroke="#65FF00" stroke-miterlimit="10" stroke-linecap="round" stroke-linejoin="round"/>
<path d="M23.4339 5.10078H30.4229C31.4438 5.10078 32.2787 5.93523 32.2787 6.95554C32.2787 7.97593 31.4438 8.8103 30.4229 8.8103H23.4339C22.413 8.8103 21.5781 7.97593 21.5781 6.95554C21.5781 5.93523 22.413 5.10078 23.4339 5.10078Z" stroke="#65FF00" stroke-miterlimit="10" stroke-linecap="round" stroke-linejoin="round"/>
<path d="M14.1566 8.8103C15.1797 8.8103 16.0145 7.97812 16.0145 6.95554C16.0145 5.93297 15.1797 5.10078 14.1566 5.10078C13.1357 5.10078 12.3008 5.93297 12.3008 6.95554C12.3008 7.97812 13.1357 8.8103 14.1566 8.8103Z" stroke="#65FF00" stroke-miterlimit="10" stroke-linecap="round" stroke-linejoin="round"/>
<path d="M12.6885 18.1441L11.125 24.6868" stroke="#65FF00" stroke-miterlimit="10" stroke-linecap="round" stroke-linejoin="round"/>
<path d="M16.2891 24.0959L18.5013 21.6125C18.5987 21.5041 18.5987 21.327 18.5013 21.2186L16.2891 18.7352" stroke="#65FF00" stroke-miterlimit="10" stroke-linecap="round" stroke-linejoin="round"/>
<path d="M7.52366 24.0959L5.31141 21.6125C5.21391 21.5041 5.21391 21.327 5.31141 21.2186L7.52366 18.7352" stroke="#65FF00" stroke-miterlimit="10" stroke-linecap="round" stroke-linejoin="round"/>
<path d="M31.6022 21.5969C32.4569 21.7873 33.2564 22.1237 33.9761 22.5752L34.6161 21.9378C34.9948 21.5571 35.6171 21.5571 35.998 21.9378L37.0056 22.9449C37.3864 23.3256 37.3864 23.9475 37.0056 24.3261L36.3678 24.9657C36.8233 25.6884 37.1528 26.4832 37.3422 27.3163H38.239C38.7772 27.3163 39.2178 27.7568 39.2178 28.2924V29.72C39.2178 30.2556 38.7772 30.696 38.239 30.696H37.3378C37.1479 31.5241 36.82 32.3142 36.3678 33.0334L37.0056 33.6708C37.3864 34.0515 37.3864 34.6734 37.0056 35.052L35.998 36.0613C35.6171 36.442 34.9948 36.442 34.6161 36.0613L33.9761 35.4238C33.2541 35.8779 32.4604 36.2064 31.6287 36.3955V37.3029C31.6287 37.8408 31.188 38.2812 30.6522 38.2812H29.2238C28.6878 38.2812 28.2472 37.8408 28.2472 37.3029V36.3933C27.4056 36.2029 26.6151 35.8687 25.9041 35.4238L25.2664 36.0613C24.8855 36.442 24.2633 36.442 23.8845 36.0613L22.8748 35.052C22.496 34.6734 22.496 34.0515 22.8748 33.6708L23.5147 33.0334C23.0609 32.3148 22.7322 31.5245 22.5426 30.696H21.6368C21.0987 30.696 20.6602 30.2556 20.6602 29.72V28.2924C20.6602 27.7568 21.0987 27.3163 21.6368 27.3163H22.5404C22.7278 26.4927 23.0519 25.7064 23.4992 24.99L22.857 24.346C22.4762 23.9675 22.4762 23.3455 22.857 22.9648L23.8646 21.9577C24.2455 21.577 24.8678 21.577 25.2465 21.9577L25.882 22.5907C26.6011 22.1352 27.3917 21.8038 28.2206 21.6102V20.7094C28.2206 20.1715 28.659 19.7311 29.1972 19.7311H30.6233C31.1615 19.7311 31.6022 20.1715 31.6022 20.7094V21.5969Z" stroke="#65FF00" stroke-miterlimit="10" stroke-linecap="round" stroke-linejoin="round"/>
<path d="M29.9404 24.9813C32.1637 24.9813 33.9664 26.783 33.9664 29.0074C33.9664 31.2296 32.1637 33.0312 29.9404 33.0312C27.7148 33.0312 25.9121 31.2296 25.9121 29.0074C25.9121 26.783 27.7148 24.9813 29.9404 24.9813Z" stroke="#65FF00" stroke-miterlimit="10" stroke-linecap="round" stroke-linejoin="round"/>
<path d="M8.31506 30.696H3.69109C2.09234 30.696 0.78125 29.1313 0.78125 27.2211V5.19378C0.78125 3.28152 2.09 1.71887 3.69109 1.71887H33.4587C35.0598 1.71887 36.3686 3.2837 36.3686 5.19378V22.3075M21.6376 30.696H15.2975" stroke="#65FF00" stroke-miterlimit="10" stroke-linecap="round" stroke-linejoin="round"/>
<path d="M11.8145 30.696H11.8299" stroke="#65FF00" stroke-miterlimit="10" stroke-linecap="round" stroke-linejoin="round"/>
</g>
</svg>
