<svg width="40" height="41" viewBox="0 0 40 41" fill="none" xmlns="http://www.w3.org/2000/svg">
<path d="M31.3341 35.4696H4.18259C2.54622 35.4696 1.21289 34.1363 1.21289 32.4999V4.07565C1.21289 2.43929 2.54622 1.10596 4.18259 1.10596H32.6068C34.2432 1.10596 35.5765 2.43929 35.5765 4.07565V32.4999C35.5765 32.8635 35.5159 33.2878 35.3341 33.6514C35.2129 33.9544 34.8493 34.1363 34.5462 34.015C34.2432 33.8938 34.0614 33.5302 34.1826 33.2272C34.3038 32.9847 34.3038 32.7423 34.3038 32.5605V4.07565C34.3038 3.10596 33.5159 2.31808 32.5462 2.31808H4.18259C3.21289 2.31808 2.42501 3.10596 2.42501 4.07565V32.4999C2.42501 33.4696 3.21289 34.2575 4.18259 34.2575H31.3341C31.6977 34.2575 31.9402 34.4999 31.9402 34.8635C31.9402 35.2272 31.6977 35.4696 31.3341 35.4696Z" fill="#65FF00"/>
<path d="M34.9705 7.77268H1.81895C1.45531 7.77268 1.21289 7.53025 1.21289 7.16661C1.21289 6.80298 1.45531 6.56055 1.81895 6.56055H34.9705C35.3341 6.56055 35.5765 6.80298 35.5765 7.16661C35.5765 7.53025 35.3341 7.77268 34.9705 7.77268ZM12.6068 5.95449H10.6674C10.3038 5.95449 10.0614 5.71207 10.0614 5.34843V3.40904C10.0614 3.0454 10.3038 2.80298 10.6674 2.80298H12.6068C12.9705 2.80298 13.2129 3.0454 13.2129 3.40904V5.34843C13.2129 5.71207 12.9705 5.95449 12.6068 5.95449ZM11.2735 4.74237H12.0008V4.0151H11.2735V4.74237ZM7.51592 5.95449H5.57653C5.21289 5.95449 4.97047 5.71207 4.97047 5.34843V3.40904C4.97047 3.0454 5.21289 2.80298 5.57653 2.80298H7.51592C7.87956 2.80298 8.12198 3.0454 8.12198 3.40904V5.34843C8.12198 5.71207 7.87956 5.95449 7.51592 5.95449ZM6.18259 4.74237H6.90986V4.0151H6.18259V4.74237ZM29.6371 32.9848C29.4553 32.9848 29.3341 32.9242 29.2129 32.803L28.0008 31.5909C27.7583 31.3484 27.7583 30.9848 28.0008 30.7424C28.2432 30.5 28.6068 30.5 28.8493 30.7424L30.0614 31.9545C30.3038 32.1969 30.3038 32.5606 30.0614 32.803C29.9402 32.9242 29.819 32.9848 29.6371 32.9848ZM31.2735 31.3484C31.0917 31.3484 30.9705 31.2878 30.8493 31.1666L29.6371 29.9545C29.3947 29.7121 29.3947 29.3484 29.6371 29.106C29.8796 28.8636 30.2432 28.8636 30.4856 29.106L31.6977 30.3181C31.9402 30.5606 31.9402 30.9242 31.6977 31.1666C31.5765 31.2878 31.4553 31.3484 31.2735 31.3484Z" fill="#65FF00"/>
<path d="M36.3649 39.8939C35.6983 39.8939 35.0922 39.6514 34.6074 39.1666L28.8498 33.1666C28.6074 32.9242 28.6074 32.5605 28.8498 32.3181L31.1528 30.0151C31.3952 29.7726 31.7589 29.7726 32.0013 30.0151L38.0013 35.7726C38.4862 36.1969 38.7286 36.8029 38.7892 37.4696C38.7892 38.1363 38.5468 38.7423 38.1225 39.1666C37.5771 39.6514 36.971 39.8939 36.3649 39.8939ZM30.1225 32.7423L35.4558 38.3181C35.9407 38.803 36.7286 38.803 37.2134 38.3181C37.4558 38.0757 37.5771 37.7726 37.5771 37.4696C37.5771 37.1666 37.4558 36.8636 37.2134 36.6211L31.6377 31.2878L30.1225 32.7423Z" fill="#65FF00"/>
<path d="M24.9698 32.6818C21.3335 32.6818 18.4244 29.7727 18.4244 26.1363C18.4244 22.5 21.3335 19.5909 24.9698 19.5909C28.6062 19.5909 31.5153 22.5 31.5153 26.1363C31.5153 29.7727 28.6062 32.6818 24.9698 32.6818ZM24.9698 20.803C22.0001 20.803 19.6365 23.1666 19.6365 26.1363C19.6365 29.106 22.0001 31.4697 24.9698 31.4697C27.9395 31.4697 30.3031 29.106 30.3031 26.1363C30.3031 23.1666 27.9395 20.803 24.9698 20.803ZM11.6971 17.9545H4.48497C4.12133 17.9545 3.87891 17.7121 3.87891 17.3485V10.1363C3.87891 9.7727 4.12133 9.53027 4.48497 9.53027H11.6971C12.0607 9.53027 12.3031 9.7727 12.3031 10.1363V17.3485C12.3031 17.7121 12.0607 17.9545 11.6971 17.9545ZM5.09103 16.7424H11.091V10.7424H5.09103V16.7424ZM22.0607 17.9545H14.8486C14.485 17.9545 14.2425 17.7121 14.2425 17.3485V10.1363C14.2425 9.7727 14.485 9.53027 14.8486 9.53027H22.0607C22.4244 9.53027 22.6668 9.7727 22.6668 10.1363V17.3485C22.6668 17.7121 22.4244 17.9545 22.0607 17.9545ZM15.4547 16.7424H21.4547V10.7424H15.4547V16.7424ZM32.3638 17.9545H25.1516C24.788 17.9545 24.5456 17.7121 24.5456 17.3485V10.1363C24.5456 9.7727 24.788 9.53027 25.1516 9.53027H32.3638C32.7274 9.53027 32.9698 9.7727 32.9698 10.1363V17.3485C32.9698 17.7121 32.7274 17.9545 32.3638 17.9545ZM25.7577 16.7424H31.7577V10.7424H25.7577V16.7424ZM11.6365 21.106H4.48497C4.12133 21.106 3.87891 20.8636 3.87891 20.5C3.87891 20.1363 4.12133 19.8939 4.48497 19.8939H11.6365C12.0001 19.8939 12.2425 20.1363 12.2425 20.5C12.2425 20.8636 12.0001 21.106 11.6365 21.106ZM11.6365 24.1969H4.48497C4.12133 24.1969 3.87891 23.9545 3.87891 23.5909C3.87891 23.2272 4.12133 22.9848 4.48497 22.9848H11.6365C12.0001 22.9848 12.2425 23.2272 12.2425 23.5909C12.2425 23.9545 12.0001 24.1969 11.6365 24.1969ZM11.6365 27.3485H4.48497C4.12133 27.3485 3.87891 27.106 3.87891 26.7424C3.87891 26.3788 4.12133 26.1363 4.48497 26.1363H11.6365C12.0001 26.1363 12.2425 26.3788 12.2425 26.7424C12.2425 27.106 12.0001 27.3485 11.6365 27.3485ZM11.6365 30.4394H4.48497C4.12133 30.4394 3.87891 30.1969 3.87891 29.8333C3.87891 29.4697 4.12133 29.2272 4.48497 29.2272H11.6365C12.0001 29.2272 12.2425 29.4697 12.2425 29.8333C12.2425 30.1969 12.0001 30.4394 11.6365 30.4394ZM18.8486 21.106H14.8486C14.485 21.106 14.2425 20.8636 14.2425 20.5C14.2425 20.1363 14.485 19.8939 14.8486 19.8939H18.8486C19.2122 19.8939 19.4547 20.1363 19.4547 20.5C19.4547 20.8636 19.2122 21.106 18.8486 21.106ZM17.0304 24.1969H14.8486C14.485 24.1969 14.2425 23.9545 14.2425 23.5909C14.2425 23.2272 14.485 22.9848 14.8486 22.9848H17.0304C17.3941 22.9848 17.6365 23.2272 17.6365 23.5909C17.6365 23.9545 17.3941 24.1969 17.0304 24.1969ZM16.4244 27.3485H14.8486C14.485 27.3485 14.2425 27.106 14.2425 26.7424C14.2425 26.3788 14.485 26.1363 14.8486 26.1363H16.4244C16.788 26.1363 17.0304 26.3788 17.0304 26.7424C17.0304 27.106 16.788 27.3485 16.4244 27.3485ZM17.0304 30.4394H14.8486C14.485 30.4394 14.2425 30.1969 14.2425 29.8333C14.2425 29.4697 14.485 29.2272 14.8486 29.2272H17.0304C17.3941 29.2272 17.6365 29.4697 17.6365 29.8333C17.6365 30.1969 17.3941 30.4394 17.0304 30.4394Z" fill="#65FF00"/>
<path d="M23.7582 29.0454C23.637 29.0454 23.4551 28.9848 23.3339 28.8635L21.5763 27.1666C21.3339 26.9242 21.3339 26.5605 21.5763 26.3181C21.8188 26.0757 22.1824 26.0757 22.4248 26.3181L23.7582 27.5908L27.5157 23.7726C27.7582 23.5302 28.1218 23.5302 28.3642 23.7726C28.6067 24.0151 28.6067 24.3787 28.3642 24.6211L24.1824 28.8635C24.0612 28.9848 23.94 29.0454 23.7582 29.0454Z" fill="#65FF00"/>
</svg>
