<svg width="40" height="40" viewBox="0 0 40 40" fill="none" xmlns="http://www.w3.org/2000/svg">
<path fill-rule="evenodd" clip-rule="evenodd" d="M26.2549 20.0553H7.51564C6.18058 20.0553 5.09839 18.9731 5.09839 17.638V11.6477C5.09839 10.3127 6.18058 9.23048 7.51564 9.23048H16.7783C16.505 8.50792 16.3653 7.74173 16.366 6.96922C16.366 3.43338 19.2505 0.548828 22.7864 0.548828C26.3222 0.548828 29.205 3.43338 29.205 6.96922C29.2057 7.74171 29.0661 8.5079 28.7929 9.23048H31.6961C33.0311 9.23048 34.1134 10.3127 34.1134 11.6477V17.638C34.1134 18.9731 33.0311 20.0553 31.6961 20.0553H31.173V24.5677L31.1953 24.5684C33.388 24.6228 34.9015 26.0019 34.9015 28.1949C34.9015 28.2135 34.9007 28.232 34.8991 28.2505L34.6136 31.4624C34.4887 32.8849 33.6178 33.9946 32.385 34.7118L30.5244 35.7952C30.2447 35.9582 30.0861 36.2361 30.0861 36.56V38.8233C30.0861 38.9898 30.02 39.1493 29.9023 39.267C29.7846 39.3847 29.625 39.4508 29.4586 39.4508H17.7468C17.5804 39.4508 17.4208 39.3847 17.3031 39.267C17.1854 39.1493 17.1193 38.9898 17.1193 38.8233V36.56C17.1193 36.4011 17.0832 36.2535 17.0107 36.1248L17.0101 36.1237C16.5699 35.3377 16.366 34.5673 16.366 33.6673V25.9936C16.366 24.7364 17.3955 23.7117 18.648 23.7117C18.9531 23.7117 19.2442 23.7714 19.5102 23.88C19.8508 23.0203 20.6905 22.408 21.6679 22.408C22.1062 22.4075 22.5355 22.5319 22.9057 22.7666C23.3403 22.0284 24.1447 21.5309 25.056 21.5309C25.4752 21.5304 25.8878 21.6364 26.2549 21.8388V20.0553ZM17.4194 10.4854H7.51564C6.87368 10.4854 6.35329 11.0058 6.35329 11.6477V17.638C6.35329 18.28 6.87368 18.8004 7.51564 18.8004H26.2549V16.4762C26.2549 15.1234 27.3629 14.0154 28.7156 14.0154C30.0687 14.0154 31.173 15.1231 31.173 16.4762V18.8004H31.6961C32.3381 18.8004 32.8585 18.28 32.8585 17.638V11.6477C32.8585 11.0058 32.3381 10.4854 31.6961 10.4854H28.1522C27.0032 12.2316 25.0258 13.3878 22.7864 13.3878C20.547 13.3878 18.5689 12.2315 17.4194 10.4854ZM28.9194 35.9326C29.0692 35.4227 29.4052 34.9949 29.8926 34.7109L31.7538 33.6272C32.6258 33.12 33.2752 32.3586 33.3636 31.3527L33.3636 31.352L33.6465 28.1678C33.6338 26.7314 32.6065 25.8582 31.163 25.8229L31.1614 25.8228L30.5285 25.8056C30.3651 25.8012 30.2099 25.7332 30.0959 25.616C29.9819 25.4989 29.9181 25.3419 29.9181 25.1784V16.4762C29.9181 15.8136 29.3782 15.2703 28.7156 15.2703C28.0528 15.2703 27.5098 15.8133 27.5098 16.4762V23.634C27.5099 23.7889 27.4527 23.9384 27.3492 24.0537C27.2457 24.1689 27.1032 24.2418 26.9491 24.2583C26.7951 24.2747 26.6404 24.2336 26.5148 24.1429C26.3893 24.0521 26.3017 23.9181 26.2691 23.7667C26.148 23.2068 25.6501 22.7859 25.056 22.7859C24.3852 22.7859 23.8304 23.3283 23.819 23.9989C23.8166 24.1396 23.767 24.2754 23.6782 24.3845C23.5894 24.4937 23.4664 24.5697 23.3291 24.6006C23.1918 24.6314 23.0482 24.6152 22.9212 24.5545C22.7943 24.4939 22.6914 24.3923 22.6291 24.2662C22.4531 23.9099 22.0892 23.6629 21.6679 23.6629C21.0811 23.6629 20.6031 24.1444 20.6031 24.7313V25.0064C20.6031 25.1382 20.5616 25.2667 20.4844 25.3736C20.4073 25.4805 20.2984 25.5604 20.1733 25.6019C20.0481 25.6435 19.9131 25.6445 19.7873 25.605C19.6616 25.5654 19.5515 25.4872 19.4727 25.3815C19.2846 25.1294 18.9856 24.9666 18.648 24.9666C18.0843 24.9666 17.6209 25.4277 17.6209 25.9936V33.6673C17.6209 34.3427 17.7747 34.9207 18.1044 35.5095C18.1798 35.6435 18.2401 35.7854 18.2841 35.9326H28.9194ZM18.3742 37.1875V38.1959H28.8312V37.1875H18.3742ZM8.70945 13.8221C8.36317 13.8221 8.082 13.5409 8.082 13.1946C8.082 12.8483 8.36317 12.5672 8.70945 12.5672H16.0585C16.4048 12.5672 16.6859 12.8483 16.6859 13.1946C16.6859 13.5409 16.4048 13.8221 16.0585 13.8221H8.70945ZM8.70945 16.7186C8.36317 16.7186 8.082 16.4374 8.082 16.0911C8.082 15.7448 8.36317 15.4637 8.70945 15.4637H22.2105C22.5568 15.4637 22.8379 15.7448 22.8379 16.0911C22.8379 16.4374 22.5568 16.7186 22.2105 16.7186H8.70945ZM22.7864 12.1329C25.6309 12.1329 27.9501 9.81377 27.9501 6.96922C27.9501 4.12451 25.631 1.80373 22.7864 1.80373C19.9417 1.80373 17.6209 4.12451 17.6209 6.96922C17.6209 9.81385 19.9418 12.1329 22.7864 12.1329ZM22.0236 6.58938L24.3953 4.19306L24.3963 4.19189C24.9739 3.61142 25.9164 3.60859 26.4969 4.18616C27.0771 4.76334 27.081 5.70232 26.5038 6.28553L26.5036 6.28577C25.3605 7.43918 24.2262 8.5995 23.078 9.74765C22.4978 10.3278 21.5559 10.3278 20.9757 9.74765L19.073 7.84318C18.4931 7.26334 18.492 6.32491 19.0718 5.74208L19.073 5.74091C19.6531 5.16075 20.5951 5.16075 21.1753 5.74091L22.0236 6.58938ZM21.5823 7.92271L20.2879 6.62828C20.2445 6.58496 20.1858 6.56058 20.1245 6.56048C20.0632 6.56038 20.0044 6.58456 19.9609 6.62773C19.8707 6.71895 19.8698 6.8653 19.9603 6.95581L21.8631 8.86028C21.9065 8.90371 21.9654 8.92811 22.0269 8.92811C22.0883 8.92811 22.1472 8.90371 22.1906 8.86028C23.3374 7.71353 24.4703 6.55471 25.6119 5.40271C25.7018 5.31189 25.7022 5.16569 25.6119 5.07573C25.5685 5.03279 25.5099 5.0088 25.4488 5.00899C25.3878 5.00918 25.3293 5.03354 25.2862 5.07675L22.472 7.92036C22.4138 7.97909 22.3446 8.02576 22.2683 8.05768C22.1921 8.0896 22.1103 8.10615 22.0276 8.10637C21.945 8.10658 21.8631 8.09047 21.7866 8.05896C21.7102 8.02744 21.6408 7.98114 21.5823 7.92271Z" fill="#69FF00"/>
</svg>
