<svg width="40" height="40" viewBox="0 0 40 40" fill="none" xmlns="http://www.w3.org/2000/svg">
<g clip-path="url(#clip0_242_8135)">
<path d="M0.281201 38.7711C0.32493 39.1107 0.490787 39.4227 0.747791 39.649C1.0048 39.8752 1.33537 40.0001 1.67776 40.0004H38.3681C38.7106 40.0004 39.0414 39.8755 39.2985 39.6492C39.5557 39.423 39.7216 39.1108 39.7653 38.7711C39.8031 38.4727 39.8222 38.1722 39.8225 37.8714C39.8199 36.2127 39.2782 34.5998 38.279 33.2759C37.2798 31.952 35.8772 30.9889 34.2828 30.5317C34.9491 30.0828 35.4536 29.4317 35.722 28.6744C35.9904 27.9171 36.0084 27.0937 35.7735 26.3253C35.5386 25.557 35.0632 24.8844 34.4172 24.4067C33.7712 23.9289 32.9889 23.6713 32.1854 23.6717C31.382 23.6721 30.5999 23.9306 29.9545 24.409C29.309 24.8874 28.8342 25.5605 28.6001 26.3291C28.366 27.0976 28.3849 27.9211 28.6541 28.6781C28.9233 29.4351 29.4285 30.0856 30.0953 30.5339C28.9384 30.8651 27.8757 31.4638 26.9931 32.2817C25.807 30.7235 24.1357 29.6047 22.2431 29.102C23.035 28.6134 23.6459 27.8798 23.9831 27.0125C24.3203 26.1452 24.3654 25.1916 24.1114 24.2964C23.8575 23.4012 23.3184 22.6133 22.5761 22.0522C21.8337 21.4911 20.9286 21.1876 19.9981 21.1876C19.0675 21.1876 18.1624 21.4911 17.4201 22.0522C16.6777 22.6133 16.1387 23.4012 15.8847 24.2964C15.6308 25.1916 15.6758 26.1452 16.013 27.0125C16.3502 27.8798 16.9611 28.6134 17.7531 29.102C15.8713 29.603 14.2084 30.7128 13.0237 32.2583C12.1461 31.453 11.0931 30.8631 9.94808 30.5351C10.6149 30.0869 11.1201 29.4364 11.3894 28.6795C11.6586 27.9225 11.6776 27.099 11.4435 26.3304C11.2095 25.5618 10.7348 24.8887 10.0893 24.4103C9.44391 23.9318 8.66186 23.6733 7.85842 23.6728C7.05498 23.6723 6.27263 23.9299 5.62662 24.4076C4.9806 24.8853 4.50509 25.5578 4.27013 26.3261C4.03516 27.0945 4.05317 27.9179 4.3215 28.6752C4.58983 29.4325 5.0943 30.0836 5.76058 30.5326C4.1668 30.9903 2.76492 31.9535 1.76619 33.2771C0.767468 34.6008 0.226002 36.2132 0.223389 37.8714C0.223987 38.1722 0.243295 38.4727 0.281201 38.7711ZM29.375 27.4223C29.375 26.8661 29.5399 26.3223 29.8489 25.8598C30.158 25.3973 30.5972 25.0368 31.1112 24.8239C31.6251 24.611 32.1906 24.5553 32.7361 24.6639C33.2817 24.7724 33.7829 25.0402 34.1762 25.4336C34.5695 25.8269 34.8374 26.3281 34.9459 26.8736C35.0544 27.4192 34.9987 27.9847 34.7859 28.4986C34.573 29.0125 34.2125 29.4518 33.75 29.7608C33.2875 30.0699 32.7437 30.2348 32.1875 30.2348C31.4418 30.2339 30.727 29.9373 30.1997 29.4101C29.6725 28.8828 29.3759 28.168 29.375 27.4223ZM32.1875 31.1723C33.9632 31.1744 35.6655 31.8807 36.9211 33.1364C38.1767 34.392 38.883 36.0944 38.885 37.8701C38.8846 38.1313 38.8679 38.3923 38.835 38.6514C38.821 38.7652 38.7657 38.87 38.6797 38.9458C38.5936 39.0217 38.4828 39.0633 38.3681 39.0629H28.6346C28.669 38.9708 28.6938 38.8754 28.7087 38.7783C28.7644 38.3889 28.7927 37.9962 28.7934 37.6029C28.7953 36.0023 28.3575 34.4318 27.5278 33.0629C28.7779 31.8538 30.4482 31.1765 32.1875 31.1736V31.1723ZM16.6618 25.4692C16.6618 24.809 16.8576 24.1636 17.2244 23.6146C17.5912 23.0657 18.1125 22.6378 18.7225 22.3852C19.3325 22.1325 20.0037 22.0664 20.6512 22.1952C21.2987 22.324 21.8935 22.6419 22.3604 23.1088C22.8272 23.5756 23.1451 24.1704 23.2739 24.818C23.4027 25.4655 23.3366 26.1367 23.084 26.7466C22.8313 27.3566 22.4035 27.8779 21.8545 28.2447C21.3056 28.6115 20.6602 28.8073 20 28.8073C19.1149 28.8063 18.2664 28.4543 17.6406 27.8285C17.0148 27.2027 16.6628 26.3542 16.6618 25.4692ZM20 29.747C22.0827 29.7494 24.0795 30.5779 25.5523 32.0506C27.025 33.5234 27.8535 35.5202 27.8559 37.6029C27.8553 37.952 27.8302 38.3006 27.7806 38.6461C27.7666 38.7606 27.7113 38.8661 27.6252 38.9428C27.539 39.0196 27.4278 39.0623 27.3125 39.0629H12.6875C12.572 39.0624 12.4606 39.0198 12.3743 38.943C12.288 38.8663 12.2327 38.7607 12.2187 38.6461C12.1693 38.3005 12.1443 37.952 12.1437 37.6029C12.146 35.5201 12.9745 33.5232 14.4473 32.0504C15.9202 30.5776 17.9171 29.7492 20 29.747ZM5.04589 27.4223C5.04589 26.8661 5.21084 26.3223 5.51988 25.8598C5.82892 25.3973 6.26817 25.0368 6.78209 24.8239C7.29601 24.611 7.86151 24.5553 8.40708 24.6639C8.95265 24.7724 9.45379 25.0402 9.84713 25.4336C10.2405 25.8269 10.5083 26.3281 10.6168 26.8736C10.7254 27.4192 10.6697 27.9847 10.4568 28.4986C10.2439 29.0125 9.88344 29.4518 9.42093 29.7608C8.95842 30.0699 8.41465 30.2348 7.85839 30.2348C7.11275 30.2339 6.3979 29.9373 5.87066 29.4101C5.34341 28.8828 5.0468 28.168 5.04589 27.4223ZM7.85839 31.1723C9.58469 31.1683 11.2443 31.8388 12.4834 33.0408C11.6455 34.4149 11.2033 35.9938 11.2056 37.6033C11.2061 37.9965 11.2343 38.3893 11.29 38.7786C11.3048 38.8757 11.3297 38.9711 11.364 39.0633H1.67651C1.5622 39.0637 1.45165 39.0224 1.36567 38.9471C1.27968 38.8717 1.22419 38.7676 1.20964 38.6542C1.17673 38.3951 1.16003 38.1341 1.15964 37.8729C1.16121 36.0968 1.86745 34.3937 3.12336 33.1377C4.37926 31.8817 6.08219 31.1753 7.85839 31.1736V31.1723ZM12.1562 13.997L12.6 18.2679C12.6372 18.6026 12.7438 18.9258 12.9131 19.2169C13.0823 19.508 13.3104 19.7605 13.5828 19.9584C13.8552 20.1563 14.1659 20.2952 14.4951 20.3662C14.8242 20.4372 15.1646 20.4388 15.4943 20.3708L19.6934 19.4739C19.8955 19.4304 20.1044 19.4304 20.3065 19.4739L24.5056 20.3708C24.8353 20.4387 25.1756 20.4371 25.5047 20.366C25.8338 20.295 26.1445 20.1561 26.4169 19.9582C26.6893 19.7603 26.9174 19.5078 27.0867 19.2167C27.2559 18.9257 27.3626 18.6026 27.4 18.2679L27.8437 13.997C27.8648 13.7914 27.9293 13.5926 28.0331 13.4139L30.1846 9.69732C30.3512 9.40472 30.4549 9.08058 30.4891 8.74562C30.5233 8.41066 30.4873 8.07225 30.3832 7.75202C30.2792 7.43179 30.1095 7.13679 29.885 6.88588C29.6605 6.63496 29.3861 6.43366 29.0793 6.29482L25.1562 4.55201C24.9672 4.46838 24.7982 4.34556 24.6603 4.1917L21.7887 0.997946C21.5631 0.747168 21.2872 0.546639 20.979 0.409373C20.6709 0.272107 20.3373 0.201172 20 0.201172C19.6626 0.201172 19.329 0.272107 19.0209 0.409373C18.7127 0.546639 18.4368 0.747168 18.2112 0.997946L15.3409 4.1917C15.2026 4.34571 15.0331 4.46853 14.8437 4.55201L10.9206 6.29482C10.6138 6.43366 10.3394 6.63496 10.1149 6.88588C9.89039 7.13679 9.72069 7.43179 9.61666 7.75202C9.51263 8.07225 9.47657 8.41066 9.51076 8.74562C9.54496 9.08058 9.64867 9.40472 9.81526 9.69732L11.9656 13.4142C12.0698 13.5927 12.1348 13.7914 12.1562 13.997ZM26.9137 13.8998L26.4687 18.1708C26.4413 18.4211 26.349 18.6599 26.2009 18.8636L21.2268 12.0173L26.9178 13.8651C26.9165 13.877 26.9137 13.8883 26.9125 13.8998H26.9137ZM29.375 9.22795L27.2228 12.9445C27.2175 12.9539 27.2134 12.9642 27.2078 12.9736L21.5175 11.1254L29.564 8.51107C29.5642 8.76237 29.499 9.0094 29.375 9.22795ZM24.7425 5.39263C24.7534 5.39763 24.7634 5.4042 24.7737 5.40888L28.6981 7.1517C28.9276 7.25512 29.1261 7.4167 29.274 7.62045L21.2265 10.2348L24.7425 5.39263ZM20.4687 1.2217C20.7079 1.29986 20.9225 1.43902 21.0915 1.62545L23.9618 4.8192C23.969 4.82732 23.9771 4.8342 23.9843 4.84201L20.4687 9.68295V1.2217ZM20.4687 12.5692L25.4412 19.4129C25.2023 19.4902 24.9474 19.504 24.7015 19.4529L20.5021 18.5561C20.4909 18.5539 20.48 18.5529 20.4687 18.5508V12.5692ZM13.5312 18.1708L13.0875 13.8998C13.0875 13.8883 13.0834 13.877 13.0821 13.8651L18.7731 12.0173L13.8 18.8636C13.6516 18.66 13.5589 18.4212 13.5312 18.1708ZM19.5312 18.5517C19.52 18.5539 19.5087 18.5548 19.4978 18.557L15.2984 19.4539C15.0525 19.5049 14.7977 19.4912 14.5587 19.4142L19.5312 12.5692V18.5517ZM16.0381 4.81826L18.9084 1.62545C19.0774 1.43902 19.292 1.29986 19.5312 1.2217V9.68295L16.0156 4.84107C16.0228 4.83326 16.0312 4.82638 16.0381 4.81826ZM11.3012 7.1517L15.2256 5.40888C15.2365 5.40388 15.2465 5.39763 15.2568 5.39263L18.7725 10.2345L10.7268 7.61763C10.8748 7.41525 11.0727 7.25471 11.3012 7.1517ZM10.4375 8.50857L18.4831 11.1254L12.7918 12.9736C12.7865 12.9642 12.7825 12.9542 12.7771 12.9445L10.6265 9.22763C10.5019 9.00851 10.4368 8.76064 10.4375 8.50857ZM6.72964 6.02951L4.9687 4.26857C4.82423 4.1223 4.6523 4.00597 4.46279 3.92626C4.27327 3.84656 4.06989 3.80503 3.86429 3.80408C3.6587 3.80312 3.45494 3.84275 3.26469 3.92069C3.07444 3.99863 2.90144 4.11335 2.75561 4.25827C2.60978 4.4032 2.49399 4.57548 2.41487 4.76524C2.33574 4.955 2.29485 5.15851 2.29453 5.36411C2.2942 5.5697 2.33446 5.77334 2.41299 5.96335C2.49151 6.15336 2.60676 6.326 2.75214 6.47138L4.51276 8.23201C4.65672 8.38048 4.82872 8.4989 5.01878 8.5804C5.20885 8.6619 5.4132 8.70486 5.62 8.70679C5.82679 8.70871 6.03191 8.66957 6.22347 8.59162C6.41502 8.51368 6.58919 8.39849 6.73589 8.25272C6.88258 8.10695 6.99889 7.93352 7.07805 7.74246C7.15721 7.55141 7.19766 7.34655 7.19705 7.13974C7.19644 6.93294 7.15478 6.72832 7.07449 6.53774C6.9942 6.34715 6.87719 6.17441 6.72964 6.02951ZM6.05995 7.58357C5.93946 7.69244 5.7825 7.75212 5.62011 7.75079C5.45773 7.74945 5.30176 7.68722 5.18308 7.57638L3.40839 5.8017C3.29207 5.68355 3.22744 5.52403 3.22873 5.35824C3.23002 5.19245 3.29712 5.03396 3.41526 4.91763C3.53341 4.80131 3.69292 4.73669 3.85872 4.73798C4.02451 4.73927 4.183 4.80636 4.29933 4.92451L6.0737 6.6992C6.18729 6.81924 6.24943 6.97894 6.24686 7.14418C6.24429 7.30943 6.17721 7.46712 6.05995 7.58357ZM4.52026 12.3867L2.75526 14.1514C2.60997 14.2963 2.49464 14.4684 2.41585 14.6579C2.33707 14.8473 2.29638 15.0505 2.29611 15.2557C2.29583 15.4609 2.33597 15.6641 2.41425 15.8538C2.49252 16.0435 2.60739 16.2159 2.75229 16.3612C2.8972 16.5065 3.0693 16.6219 3.25878 16.7006C3.44826 16.7794 3.6514 16.8201 3.8566 16.8204C4.0618 16.8207 4.26505 16.7805 4.45474 16.7022C4.64443 16.624 4.81684 16.5091 4.96214 16.3642L6.72276 14.6033C6.87124 14.4593 6.98966 14.2873 7.07116 14.0972C7.15266 13.9072 7.19562 13.7028 7.19754 13.496C7.19947 13.2892 7.16032 13.0841 7.08238 12.8926C7.00443 12.701 6.88924 12.5268 6.74347 12.3801C6.59771 12.2334 6.42427 12.1171 6.23322 12.038C6.04217 11.9588 5.8373 11.9184 5.6305 11.919C5.4237 11.9196 5.21907 11.9612 5.02849 12.0415C4.83791 12.1218 4.66516 12.2391 4.52026 12.3867ZM6.07401 13.0567C6.18608 13.1756 6.2479 13.3332 6.24656 13.4966C6.24522 13.66 6.18083 13.8165 6.06683 13.9336L4.29245 15.7083C4.17522 15.8255 4.01621 15.8914 3.85042 15.8914C3.68463 15.8914 3.52562 15.8255 3.40839 15.7083C3.29115 15.591 3.22529 15.432 3.22529 15.2662C3.22529 15.1004 3.29115 14.9414 3.40839 14.8242L5.18964 13.0429C5.30972 12.9294 5.4694 12.8673 5.63462 12.8699C5.79984 12.8725 5.95752 12.9395 6.07401 13.0567ZM37.2475 4.2617C36.9512 3.97144 36.5525 3.80944 36.1378 3.81073C35.723 3.81202 35.3254 3.97648 35.0309 4.26857L33.2703 6.02951C33.1227 6.17441 33.0054 6.34715 32.9251 6.53774C32.8448 6.72832 32.8032 6.93294 32.8025 7.13974C32.8019 7.34655 32.8424 7.55141 32.9215 7.74246C33.0007 7.93352 33.117 8.10695 33.2637 8.25272C33.4104 8.39849 33.5846 8.51368 33.7761 8.59162C33.9677 8.66957 34.1728 8.70871 34.3796 8.70679C34.5864 8.70486 34.7907 8.6619 34.9808 8.5804C35.1709 8.4989 35.3429 8.38048 35.4868 8.23201L37.2475 6.47138C37.5366 6.1763 37.6985 5.77965 37.6985 5.36654C37.6985 4.95343 37.5366 4.55678 37.2475 4.2617ZM36.5912 5.8017L34.8165 7.57638C34.6978 7.68722 34.5419 7.74945 34.3795 7.75079C34.2171 7.75212 34.0601 7.69244 33.9396 7.58357C33.8224 7.46712 33.7553 7.30943 33.7527 7.14418C33.7502 6.97894 33.8123 6.81924 33.9259 6.6992L35.7003 4.92451C35.8166 4.80636 35.9751 4.73927 36.1409 4.73798C36.3067 4.73669 36.4662 4.80131 36.5843 4.91763C36.7025 5.03396 36.7696 5.19245 36.7709 5.35824C36.7722 5.52403 36.7075 5.68355 36.5912 5.8017ZM35.4796 12.3867C35.3347 12.2391 35.162 12.1218 34.9714 12.0415C34.7808 11.9612 34.5762 11.9196 34.3694 11.919C34.1626 11.9184 33.9577 11.9588 33.7667 12.038C33.5756 12.1171 33.4022 12.2334 33.2564 12.3801C33.1107 12.5268 32.9955 12.701 32.9175 12.8926C32.8396 13.0841 32.8004 13.2892 32.8024 13.496C32.8043 13.7028 32.8472 13.9072 32.9287 14.0972C33.0102 14.2873 33.1287 14.4593 33.2771 14.6033L35.0378 16.3642C35.1831 16.5091 35.3555 16.624 35.5452 16.7022C35.7349 16.7805 35.9381 16.8207 36.1433 16.8204C36.3485 16.8201 36.5516 16.7794 36.7411 16.7006C36.9306 16.6219 37.1027 16.5065 37.2476 16.3612C37.3925 16.2159 37.5074 16.0435 37.5857 15.8538C37.6639 15.6641 37.7041 15.4609 37.7038 15.2557C37.7035 15.0505 37.6628 14.8473 37.584 14.6579C37.5053 14.4684 37.3899 14.2963 37.2446 14.1514L35.4796 12.3867ZM36.5918 15.6942C36.4753 15.8114 36.3177 15.8784 36.1525 15.881C35.9873 15.8836 35.8276 15.8217 35.7075 15.7083L33.9331 13.9336C33.8149 13.8173 33.7477 13.6588 33.7464 13.493C33.745 13.3272 33.8096 13.1677 33.9259 13.0495C34.0422 12.9313 34.2006 12.8642 34.3664 12.8628C34.5322 12.8615 34.6918 12.926 34.81 13.0423L36.5912 14.8236C36.7022 14.9413 36.7641 15.097 36.7642 15.2588C36.7643 15.4206 36.7027 15.5763 36.5918 15.6942Z" fill="#69FF00"/>
</g>
<defs>
<clipPath id="clip0_242_8135">
<rect width="40" height="40" fill="white"/>
</clipPath>
</defs>
</svg>
