<svg width="40" height="40" viewBox="0 0 40 40" fill="none" xmlns="http://www.w3.org/2000/svg">
<path d="M34.9956 20.6879C39.475 17.7735 36.4925 10.8791 31.2625 12.2098C26.2663 3.69352 13.73 3.69789 8.7375 12.2098C3.50437 10.8791 0.5275 17.7766 5.00437 20.6879C3.88971 21.1743 2.94097 21.975 2.27419 22.9921C1.60742 24.0092 1.25151 25.1986 1.25 26.4148C1.25002 26.5337 1.28395 26.6501 1.34783 26.7504C1.41171 26.8507 1.50287 26.9307 1.61062 26.981C4.3876 28.2784 7.51583 28.6203 10.5075 27.9535C14.0219 31.8641 20.5587 33.2304 25.4137 30.8566L30.29 36.4679C30.612 36.8416 31.0052 37.1476 31.4467 37.3679C31.8881 37.5881 32.369 37.7184 32.8612 37.751C33.5981 37.7942 34.3315 37.62 34.9702 37.2501C35.609 36.8802 36.125 36.3308 36.4543 35.6702C36.7835 35.0095 36.9115 34.2667 36.8223 33.534C36.7331 32.8013 36.4306 32.1109 35.9525 31.5485L33.1031 28.2729C34.9327 28.1919 36.7287 27.753 38.3894 26.981C38.4971 26.9307 38.5883 26.8507 38.6522 26.7504C38.716 26.6501 38.75 26.5337 38.75 26.4148C38.7485 25.1986 38.3926 24.0092 37.7258 22.9921C37.059 21.975 36.1103 21.1743 34.9956 20.6879ZM32.5 13.2898C33.3573 13.2963 34.1811 13.6232 34.8096 14.2063C35.4381 14.7893 35.8258 15.5863 35.8965 16.4407C35.9672 17.2951 35.7159 18.145 35.1918 18.8235C34.6678 19.5019 33.9089 19.9599 33.0644 20.1073C33.2806 17.7883 32.8678 15.4539 31.8694 13.3498C32.0773 13.3103 32.2884 13.2902 32.5 13.2898ZM4.0625 16.7273C4.06439 16.2231 4.17686 15.7255 4.39199 15.2695C4.60711 14.8135 4.91965 14.4102 5.30757 14.0882C5.69548 13.7661 6.14933 13.5331 6.6371 13.4055C7.12487 13.2779 7.6347 13.2589 8.13062 13.3498C7.13118 15.456 6.71835 17.7929 6.93563 20.1141C6.13367 19.98 5.40512 19.5662 4.87918 18.9461C4.35325 18.3261 4.06392 17.5397 4.0625 16.7266V16.7273ZM2.51563 26.0166C2.61231 24.8292 3.12944 23.7153 3.97402 22.875C4.8186 22.0348 5.93523 21.5234 7.12313 21.4329C7.51257 23.4087 8.35388 25.2676 9.58125 26.8641C7.1933 27.256 4.74318 26.9621 2.51563 26.0166ZM20 30.7898C16.8517 30.7861 13.8333 29.5338 11.6071 27.3076C9.38092 25.0814 8.12864 22.0631 8.125 18.9148C8.7775 3.16102 31.225 3.16539 31.875 18.9148C31.8714 22.0631 30.6191 25.0814 28.3929 27.3076C26.1667 29.5338 23.1483 30.7861 20 30.7898ZM35.01 32.3685C35.3271 32.7441 35.5272 33.2043 35.5857 33.6924C35.6442 34.1804 35.5585 34.6749 35.3391 35.1148C35.1198 35.5546 34.7764 35.9206 34.3513 36.1675C33.9263 36.4144 33.4383 36.5315 32.9475 36.5041C32.6194 36.4824 32.2989 36.3955 32.0048 36.2484C31.7106 36.1014 31.4487 35.8973 31.2344 35.6479L26.5575 30.2666C28.0115 29.4232 29.291 28.3099 30.3275 26.9866L35.01 32.3685ZM32.5 27.0398C32.3594 27.0398 32.195 27.036 32.0225 27.0304L31.07 25.936C31.9487 24.5613 32.5615 23.0338 32.8763 21.4329C34.0643 21.5233 35.181 22.0346 36.0257 22.8748C36.8705 23.7151 37.3877 24.8291 37.4844 26.0166C35.9085 26.689 34.2133 27.0369 32.5 27.0398Z" fill="#69FF00"/>
<path d="M20 8.91477C10.4319 8.97102 6.42066 21.0766 13.9175 26.8335C15.6655 28.1656 17.8024 28.887 20 28.887C22.1977 28.887 24.3346 28.1656 26.0825 26.8335C33.5788 21.0773 29.5675 8.96914 20 8.91477ZM20 27.6648C18.2174 27.6655 16.4776 27.1183 15.0163 26.0973C15.6013 19.8885 24.4007 19.8935 24.9838 26.0973C23.5225 27.1183 21.7827 27.6655 20 27.6648ZM16.5625 16.7273C16.5637 15.8159 16.9262 14.9423 17.5706 14.2979C18.215 13.6535 19.0887 13.2909 20 13.2898C24.55 13.4516 24.5482 20.0035 20 20.1648C19.0887 20.1636 18.215 19.8011 17.5706 19.1567C16.9262 18.5123 16.5637 17.6386 16.5625 16.7273ZM26.1225 25.1554C25.9185 24.1753 25.4827 23.2583 24.8517 22.4811C24.2208 21.7039 23.4129 21.089 22.4957 20.6879C23.3553 20.1467 24.0158 19.3407 24.3775 18.3914C24.7391 17.4421 24.7824 16.401 24.5008 15.4249C24.2191 14.4489 23.6278 13.5909 22.816 12.9802C22.0042 12.3695 21.0159 12.0393 20 12.0393C18.9842 12.0393 17.9958 12.3695 17.184 12.9802C16.3722 13.5909 15.7809 14.4489 15.4993 15.4249C15.2176 16.401 15.2609 17.4421 15.6226 18.3914C15.9843 19.3407 16.6447 20.1467 17.5044 20.6879C16.5872 21.089 15.7793 21.7039 15.1483 22.4811C14.5173 23.2583 14.0816 24.1753 13.8775 25.1554C8.32378 19.781 12.1875 10.1491 20 10.1648C27.8125 10.1491 31.6763 19.7829 26.1225 25.1554ZM27.8288 6.85914C27.9679 6.94923 28.1371 6.98047 28.2993 6.94603C28.4614 6.91158 28.6033 6.81426 28.6938 6.67539L29.715 5.10227C29.8054 4.96319 29.8368 4.79393 29.8023 4.63171C29.7678 4.46949 29.6704 4.32761 29.5313 4.23727C29.3922 4.14693 29.2229 4.11553 29.0607 4.14999C28.8985 4.18445 28.7566 4.28194 28.6663 4.42102L27.645 5.99414C27.6003 6.06299 27.5695 6.13999 27.5545 6.22074C27.5395 6.30148 27.5406 6.38439 27.5576 6.46472C27.5747 6.54506 27.6074 6.62124 27.654 6.68892C27.7005 6.75659 27.7599 6.81444 27.8288 6.85914ZM24.4413 5.24352C24.599 5.2944 24.7705 5.28075 24.9182 5.20556C25.0659 5.13037 25.1778 4.99975 25.2294 4.84227L25.8094 3.05914C25.8348 2.98109 25.8447 2.89879 25.8383 2.81694C25.8319 2.73509 25.8095 2.65529 25.7723 2.58211C25.7351 2.50892 25.6839 2.44378 25.6215 2.3904C25.5591 2.33703 25.4868 2.29646 25.4088 2.27102C25.3307 2.24557 25.2484 2.23575 25.1666 2.24212C25.0847 2.24848 25.0049 2.2709 24.9317 2.3081C24.8586 2.3453 24.7934 2.39656 24.74 2.45893C24.6867 2.52131 24.6461 2.59359 24.6207 2.67164L24.0407 4.45539C23.9896 4.61295 24.0031 4.78433 24.0782 4.93195C24.1533 5.07957 24.2839 5.19139 24.4413 5.24289V5.24352ZM31.1475 9.50227C31.302 9.5024 31.451 9.44516 31.5657 9.34164L32.9582 8.08727C33.0752 7.97489 33.1439 7.82141 33.1498 7.65928C33.1557 7.49714 33.0984 7.33907 32.9898 7.21846C32.8813 7.09785 32.7302 7.02417 32.5683 7.01298C32.4065 7.00179 32.2466 7.05398 32.1225 7.15852L30.7294 8.41289C30.6378 8.49843 30.5737 8.60939 30.5456 8.73154C30.5174 8.8537 30.5263 8.98148 30.5713 9.09852C30.6162 9.21556 30.695 9.31651 30.7977 9.38844C30.9004 9.46038 31.0222 9.50001 31.1475 9.50227Z" fill="#69FF00"/>
</svg>
