<svg width="40" height="40" viewBox="0 0 40 40" fill="none" xmlns="http://www.w3.org/2000/svg">
<path d="M20 12.5C19.2583 12.5 18.5333 12.2801 17.9166 11.868C17.2999 11.456 16.8193 10.8703 16.5355 10.1851C16.2516 9.49984 16.1774 8.74584 16.3221 8.01841C16.4667 7.29098 16.8239 6.6228 17.3483 6.09835C17.8728 5.5739 18.541 5.21675 19.2684 5.07206C19.9958 4.92736 20.7498 5.00162 21.4351 5.28545C22.1203 5.56928 22.706 6.04993 23.118 6.66661C23.5301 7.2833 23.75 8.00832 23.75 8.75C23.749 9.74426 23.3536 10.6975 22.6506 11.4006C21.9475 12.1036 20.9943 12.499 20 12.5ZM20 6.25C19.5055 6.25 19.0222 6.39662 18.6111 6.67133C18.2 6.94603 17.8795 7.33648 17.6903 7.79329C17.5011 8.25011 17.4516 8.75277 17.548 9.23773C17.6445 9.72268 17.8826 10.1681 18.2322 10.5178C18.5819 10.8674 19.0273 11.1055 19.5123 11.202C19.9972 11.2984 20.4999 11.2489 20.9567 11.0597C21.4135 10.8705 21.804 10.55 22.0787 10.1389C22.3534 9.7278 22.5 9.24445 22.5 8.75C22.5 8.08696 22.2366 7.45108 21.7678 6.98223C21.2989 6.51339 20.663 6.25 20 6.25ZM23.125 13.125H16.875C15.7151 13.1263 14.6031 13.5877 13.7829 14.4079C12.9627 15.2281 12.5013 16.3401 12.5 17.5V21.875C12.5 22.538 12.7634 23.1739 13.2322 23.6428C13.7011 24.1116 14.337 24.375 15 24.375H19.6875C19.8238 24.3752 19.9598 24.3627 20.0938 24.3375C20.1639 24.3626 20.238 24.3753 20.3125 24.375H25C25.1658 24.3745 25.3312 24.3577 25.4938 24.325C25.8319 24.2584 26.1524 24.1217 26.4344 23.9236C26.7165 23.7255 26.9539 23.4705 27.1312 23.175C27.2153 22.916 27.3177 22.6633 27.4375 22.4187C27.4806 22.2407 27.5015 22.0581 27.5 21.875V17.5C27.4987 16.3401 27.0373 15.2281 26.2171 14.4079C25.3969 13.5877 24.2849 13.1263 23.125 13.125ZM26.0063 22.6187C25.8894 22.7756 25.7377 22.903 25.563 22.9908C25.3883 23.0787 25.1955 23.1247 25 23.125H21.6625C21.8032 22.8326 21.8759 22.512 21.875 22.1875C21.875 21.6073 21.6445 21.0509 21.2343 20.6407C20.8241 20.2305 20.2677 20 19.6875 20H16.875V18.125C16.875 17.9592 16.8092 17.8003 16.6919 17.6831C16.5747 17.5658 16.4158 17.5 16.25 17.5C16.0842 17.5 15.9253 17.5658 15.8081 17.6831C15.6908 17.8003 15.625 17.9592 15.625 18.125V20.625C15.625 20.7908 15.6908 20.9497 15.8081 21.0669C15.9253 21.1842 16.0842 21.25 16.25 21.25H19.6875C19.9361 21.25 20.1746 21.3488 20.3504 21.5246C20.5262 21.7004 20.625 21.9389 20.625 22.1875C20.625 22.4361 20.5262 22.6746 20.3504 22.8504C20.1746 23.0262 19.9361 23.125 19.6875 23.125H15C14.6688 23.124 14.3514 22.992 14.1172 22.7578C13.883 22.5236 13.751 22.2062 13.75 21.875V17.5C13.75 16.6712 14.0792 15.8763 14.6653 15.2903C15.2513 14.7042 16.0462 14.375 16.875 14.375H23.125C23.9538 14.375 24.7487 14.7042 25.3347 15.2903C25.9208 15.8763 26.25 16.6712 26.25 17.5V21.875C26.2492 21.9294 26.245 21.9836 26.2375 22.0375C26.2135 22.2484 26.1337 22.449 26.0063 22.6187Z" fill="#69FF00"/>
<path d="M23.7501 21.25H20.3126C20.1468 21.25 19.9878 21.1842 19.8706 21.0669C19.7534 20.9497 19.6876 20.7908 19.6876 20.625C19.6876 20.4592 19.7534 20.3003 19.8706 20.1831C19.9878 20.0659 20.1468 20 20.3126 20H23.1251V18.125C23.1251 17.9592 23.1909 17.8003 23.3081 17.6831C23.4253 17.5658 23.5843 17.5 23.7501 17.5C23.9158 17.5 24.0748 17.5658 24.192 17.6831C24.3092 17.8003 24.3751 17.9592 24.3751 18.125V20.625C24.3751 20.7908 24.3092 20.9497 24.192 21.0669C24.0748 21.1842 23.9158 21.25 23.7501 21.25ZM7.75006 18.75C7.00838 18.75 6.28336 18.5301 5.66667 18.118C5.04999 17.706 4.56934 17.1203 4.28551 16.4351C4.00168 15.7498 3.92742 14.9958 4.07212 14.2684C4.21681 13.541 4.57396 12.8728 5.09841 12.3484C5.62286 11.8239 6.29104 11.4668 7.01847 11.3221C7.7459 11.1774 8.4999 11.2516 9.18512 11.5355C9.87035 11.8193 10.456 12.2999 10.8681 12.9166C11.2801 13.5333 11.5001 14.2583 11.5001 15C11.4989 15.9942 11.1034 16.9474 10.4004 17.6504C9.69742 18.3534 8.74427 18.7488 7.75006 18.75ZM7.75006 12.5C7.25561 12.5 6.77226 12.6466 6.36114 12.9213C5.95001 13.196 5.62958 13.5865 5.44036 14.0433C5.25114 14.5001 5.20163 15.0028 5.2981 15.4877C5.39456 15.9727 5.63266 16.4181 5.98229 16.7678C6.33193 17.1174 6.77738 17.3555 7.26233 17.452C7.74729 17.5484 8.24995 17.4989 8.70677 17.3097C9.16358 17.1205 9.55403 16.8001 9.82873 16.3889C10.1034 15.9778 10.2501 15.4945 10.2501 15C10.2501 14.337 9.98667 13.7011 9.51783 13.2322C9.04899 12.7634 8.4131 12.5 7.75006 12.5ZM20.0001 31.875L14.3751 31.8688C14.2093 31.8688 14.0503 31.8029 13.9331 31.6857C13.8159 31.5685 13.7501 31.4095 13.7501 31.2438C13.7501 31.078 13.8159 30.919 13.9331 30.8018C14.0503 30.6846 14.2093 30.6188 14.3751 30.6188L19.3751 30.625C19.3751 30.1277 19.1775 29.6508 18.8259 29.2992C18.4743 28.9475 17.9973 28.75 17.5001 28.75H15.9938C15.5693 28.7516 15.1569 28.6086 14.8246 28.3444C14.4923 28.0803 14.2599 27.7108 14.1657 27.2969L13.1563 24.2125C12.5738 21.6481 11.3019 20.625 8.75006 20.625H6.87506C6.13321 20.6214 5.41458 20.8834 4.8491 21.3636C4.28362 21.8438 3.90863 22.5105 3.79194 23.2431C3.78062 23.3257 3.75291 23.4051 3.71045 23.4768C3.66799 23.5485 3.61162 23.6109 3.54467 23.6605C3.47772 23.7101 3.40153 23.7458 3.32059 23.7655C3.23964 23.7852 3.15558 23.7885 3.07333 23.7753C2.99108 23.762 2.91231 23.7325 2.84165 23.6883C2.77099 23.6442 2.70986 23.5864 2.66187 23.5183C2.61387 23.4502 2.57998 23.3732 2.56217 23.2918C2.54437 23.2104 2.54301 23.1263 2.55819 23.0444C2.72114 22.0181 3.24596 21.084 4.03772 20.411C4.82948 19.738 5.83593 19.3705 6.87506 19.375H8.75006C11.8832 19.375 13.6657 20.8069 14.3601 23.8813L15.3688 26.9625C15.394 27.1109 15.4702 27.2458 15.5844 27.344C15.6985 27.4421 15.8433 27.4973 15.9938 27.5H17.5001C18.3286 27.501 19.1228 27.8306 19.7087 28.4164C20.2945 29.0022 20.6241 29.7965 20.6251 30.625V31.25C20.6251 31.4158 20.5592 31.5747 20.442 31.6919C20.3248 31.8092 20.1658 31.875 20.0001 31.875Z" fill="#69FF00"/>
<path d="M16.875 36.25H8.55067C7.23315 36.2501 5.95738 35.7878 4.94585 34.9436C3.93432 34.0994 3.25122 32.9269 3.01567 31.6306L1.53442 24.7294L1.53005 24.71C1.48098 24.4398 1.49187 24.1621 1.56194 23.8966C1.632 23.6311 1.75954 23.3842 1.93553 23.1734C2.11152 22.9626 2.33167 22.793 2.58042 22.6766C2.82916 22.5603 3.10043 22.5 3.37505 22.5H7.9163C8.6476 22.4999 9.35578 22.7563 9.91753 23.2245C10.4793 23.6927 10.859 24.3431 10.9907 25.0625L12.13 30.0819C12.1517 30.2315 12.226 30.3684 12.3397 30.468C12.4534 30.5676 12.5989 30.6233 12.75 30.625L14.3707 30.6212H14.375C15.2038 30.6212 15.9987 30.9505 16.5848 31.5365C17.1708 32.1226 17.5 32.9174 17.5 33.7462V35.625C17.5 35.7908 17.4342 35.9497 17.317 36.0669C17.1998 36.1842 17.0408 36.25 16.875 36.25ZM2.7588 24.4788L4.24192 31.3881C4.42183 32.4002 4.95213 33.3167 5.73991 33.9771C6.52769 34.6375 7.52272 34.9996 8.55067 35H16.25V33.7462C16.25 33.249 16.0525 32.7721 15.7009 32.4204C15.3492 32.0688 14.8723 31.8712 14.375 31.8712L12.75 31.875C12.3107 31.8752 11.8853 31.7211 11.548 31.4397C11.2107 31.1582 10.9829 30.7672 10.9044 30.335L9.76505 25.3156C9.69046 24.8788 9.46415 24.4823 9.12598 24.1959C8.78781 23.9095 8.35944 23.7516 7.9163 23.75H3.37505C3.2842 23.75 3.19444 23.7698 3.11204 23.8081C3.02963 23.8463 2.95655 23.9021 2.89789 23.9714C2.83922 24.0408 2.79639 24.1221 2.77237 24.2097C2.74835 24.2974 2.74372 24.3892 2.7588 24.4788Z" fill="#69FF00"/>
<path d="M15.625 38.7756H14.375V36.25H9.375V38.7756H8.125V35H15.625V38.7756ZM32.5 38.7756H31.25V36.25H26.25V38.7756H25V35H32.5V38.7756ZM32.3012 18.75C31.5596 18.75 30.8345 18.5301 30.2179 18.118C29.6012 17.706 29.1205 17.1203 28.8367 16.4351C28.5529 15.7498 28.4786 14.9958 28.6233 14.2684C28.768 13.541 29.1252 12.8728 29.6496 12.3484C30.174 11.8239 30.8422 11.4668 31.5697 11.3221C32.2971 11.1774 33.0511 11.2516 33.7363 11.5355C34.4215 11.8193 35.0072 12.2999 35.4193 12.9166C35.8313 13.5333 36.0512 14.2583 36.0512 15C36.0503 15.9943 35.6549 16.9475 34.9518 17.6506C34.2488 18.3536 33.2955 18.749 32.3012 18.75ZM32.3012 12.5C31.8068 12.5 31.3234 12.6466 30.9123 12.9213C30.5012 13.196 30.1808 13.5865 29.9916 14.0433C29.8023 14.5001 29.7528 15.0028 29.8493 15.4877C29.9457 15.9727 30.1839 16.4181 30.5335 16.7678C30.8831 17.1174 31.3286 17.3555 31.8135 17.452C32.2985 17.5484 32.8011 17.4989 33.258 17.3097C33.7148 17.1205 34.1052 16.8001 34.3799 16.3889C34.6546 15.9778 34.8012 15.4945 34.8012 15C34.8012 14.337 34.5379 13.7011 34.069 13.2322C33.6002 12.7634 32.9643 12.5 32.3012 12.5ZM37.4437 23.0438C37.4703 23.2079 37.4305 23.3758 37.3332 23.5106C37.2359 23.6454 37.0891 23.736 36.925 23.7625C36.7609 23.789 36.593 23.7493 36.4582 23.652C36.3234 23.5547 36.2328 23.4079 36.2063 23.2438C36.0908 22.5108 35.7165 21.8436 35.1511 21.3631C34.5858 20.8826 33.8669 20.6208 33.125 20.625H30.3437C29.7323 20.5805 29.1223 20.7299 28.6006 21.0519C28.0788 21.374 27.6719 21.8522 27.4375 22.4188C27.3177 22.6633 27.2153 22.916 27.1312 23.175C27.025 23.4973 26.9353 23.8248 26.8625 24.1563L25.8188 27.35C25.7183 27.7533 25.4847 28.1109 25.1558 28.365C24.8269 28.6191 24.4218 28.7547 24.0062 28.75H22.5C22.0032 28.7515 21.5271 28.9495 21.1758 29.3008C20.8245 29.6521 20.6265 30.1282 20.625 30.625L25.625 30.6188C25.7908 30.6188 25.9497 30.6846 26.0669 30.8018C26.1842 30.919 26.25 31.078 26.25 31.2438C26.25 31.4095 26.1842 31.5685 26.0669 31.6857C25.9497 31.8029 25.7908 31.8688 25.625 31.8688L20 31.875C19.8345 31.8726 19.6761 31.8079 19.5563 31.6938C19.4411 31.5746 19.3762 31.4157 19.375 31.25V30.625C19.375 29.7962 19.7042 29.0013 20.2903 28.4153C20.8763 27.8292 21.6712 27.5 22.5 27.5H24.0062C24.1475 27.5002 24.2848 27.4528 24.3959 27.3655C24.507 27.2782 24.5855 27.1561 24.6187 27.0188L25.4938 24.325L25.6562 23.825C25.7463 23.4157 25.8632 23.0127 26.0063 22.6188C26.0709 22.4203 26.1481 22.2261 26.2375 22.0375C26.5204 21.3715 26.9523 20.7792 27.5 20.3063C28.3026 19.6594 29.314 19.3282 30.3437 19.375H33.125C34.1641 19.3709 35.1705 19.7384 35.9624 20.4112C36.7544 21.0839 37.2798 22.0176 37.4437 23.0438Z" fill="#69FF00"/>
<path d="M31.4494 36.25H23.125C22.9592 36.25 22.8003 36.1842 22.6831 36.067C22.5658 35.9497 22.5 35.7908 22.5 35.625V33.7463C22.5 32.9175 22.8292 32.1226 23.4153 31.5366C24.0013 30.9505 24.7962 30.6213 25.625 30.6213H25.6306L27.25 30.625C27.3962 30.6247 27.5376 30.5733 27.6497 30.4795C27.7619 30.3858 27.8376 30.2557 27.8638 30.1119L29.0131 25.0394C29.1477 24.3241 29.5285 23.6785 30.0894 23.2147C30.6503 22.7508 31.3559 22.498 32.0837 22.5H36.625C36.8996 22.5 37.1709 22.5603 37.4196 22.6766C37.6684 22.793 37.8885 22.9626 38.0645 23.1734C38.2405 23.3842 38.368 23.6311 38.4381 23.8966C38.5082 24.1621 38.5191 24.4398 38.47 24.71L38.4656 24.7294L36.98 31.6506C36.742 32.9433 36.0582 34.1115 35.0476 34.9519C34.0371 35.7923 32.7637 36.2517 31.4494 36.25ZM23.75 35H31.4494C32.4741 35.0001 33.4663 34.6406 34.253 33.9841C35.0398 33.3275 35.5711 32.4157 35.7544 31.4075L37.2412 24.4788C37.2563 24.3892 37.2517 24.2974 37.2277 24.2098C37.2037 24.1221 37.1608 24.0408 37.1022 23.9714C37.0435 23.9021 36.9704 23.8463 36.888 23.8081C36.8056 23.7698 36.7158 23.75 36.625 23.75H32.0837C31.6446 23.7499 31.2194 23.904 30.8823 24.1853C30.5451 24.4666 30.3174 24.8574 30.2387 25.2894L29.0894 30.3613C29.0072 30.7884 28.7785 31.1734 28.4426 31.4498C28.1068 31.7262 27.6849 31.8766 27.25 31.875L25.625 31.8713C25.1277 31.8713 24.6508 32.0688 24.2992 32.4204C23.9475 32.7721 23.75 33.249 23.75 33.7463V35Z" fill="#69FF00"/>
</svg>
