<svg width="40" height="40" viewBox="0 0 40 40" fill="none" xmlns="http://www.w3.org/2000/svg">
<path d="M39.1405 30.2925H37.0301V12.3013C37.0301 10.7945 35.8041 9.56859 34.2973 9.56859H15.4226V5.06641C15.4226 4.11758 14.6507 3.3457 13.7019 3.3457H1.95569C1.00686 3.3457 0.234985 4.11758 0.234985 5.06641V21.277C0.234985 22.2246 1.00686 22.9955 1.95569 22.9955H4.02413V30.2926H1.91366C1.83164 30.2926 1.75043 30.3087 1.67466 30.3401C1.59889 30.3715 1.53004 30.4175 1.47205 30.4755C1.41405 30.5335 1.36805 30.6023 1.33667 30.6781C1.30528 30.7539 1.28913 30.8351 1.28913 30.9171V33.4727C1.28913 35.2275 2.71569 36.6551 4.46928 36.6551H36.5849C38.3384 36.6551 39.7651 35.2275 39.7651 33.4727V30.9171C39.7651 30.8351 39.7489 30.7539 39.7175 30.6781C39.6861 30.6023 39.6401 30.5335 39.5821 30.4755C39.5241 30.4175 39.4553 30.3715 39.3795 30.3401C39.3038 30.3087 39.2225 30.2925 39.1405 30.2925ZM1.48397 21.277V5.06641C1.48409 4.94134 1.53383 4.82143 1.62227 4.73299C1.71071 4.64455 1.83062 4.59481 1.95569 4.59469H13.7018C13.8268 4.59483 13.9467 4.64458 14.0352 4.73301C14.1236 4.82144 14.1734 4.94134 14.1735 5.06641V14.4207C14.1735 14.5918 14.2437 14.7555 14.3677 14.8734L17.8576 18.1907L14.794 18.2098C14.6291 18.2109 14.4712 18.2771 14.355 18.3941C14.2387 18.5111 14.1734 18.6694 14.1734 18.8344V21.277C14.1734 21.5359 13.9619 21.7465 13.7017 21.7465H1.95569C1.69561 21.7465 1.48397 21.5359 1.48397 21.277ZM5.27311 22.9955H13.7018C14.6506 22.9955 15.4225 22.2245 15.4225 21.277V19.4549L19.4148 19.43C19.5393 19.4292 19.6608 19.3912 19.7635 19.3209C19.8663 19.2505 19.9457 19.1511 19.9915 19.0353C20.0374 18.9195 20.0475 18.7927 20.0208 18.6711C19.994 18.5495 19.9315 18.4386 19.8412 18.3528L15.4225 14.1527V10.8176H34.2973C35.1154 10.8176 35.781 11.4832 35.781 12.3013V30.2925H24.7215C24.5558 30.2925 24.397 30.3583 24.2799 30.4754C24.1627 30.5925 24.0969 30.7514 24.0969 30.917V31.8737H16.9572V30.917C16.9572 30.7514 16.8914 30.5925 16.7743 30.4754C16.6571 30.3583 16.4983 30.2925 16.3326 30.2925H5.27311V22.9955ZM38.516 33.4727C38.516 34.5387 37.6498 35.406 36.5849 35.406H4.4692C3.40436 35.406 2.53811 34.5387 2.53811 33.4727V31.5416H15.7082V32.4983C15.7082 32.6639 15.774 32.8228 15.8911 32.9399C16.0082 33.057 16.1671 33.1228 16.3327 33.1228H24.7215C24.8871 33.1228 25.046 33.057 25.1631 32.9399C25.2802 32.8228 25.346 32.6639 25.346 32.4983V31.5416H38.5161V33.4727H38.516ZM7.02928 31.8627C6.14155 31.8627 5.41928 32.5849 5.41928 33.4727C5.41928 34.3604 6.14155 35.0827 7.02928 35.0827C7.91702 35.0827 8.63928 34.3604 8.63928 33.4727C8.63928 32.5849 7.91702 31.8627 7.02928 31.8627ZM7.02928 33.8336C6.83022 33.8336 6.66827 33.6716 6.66827 33.4726C6.66827 33.2735 6.83022 33.1116 7.02928 33.1116C7.22834 33.1116 7.39022 33.2735 7.39022 33.4726C7.39022 33.6716 7.22827 33.8336 7.02928 33.8336ZM11.217 31.8627C10.3293 31.8627 9.60702 32.5849 9.60702 33.4727C9.60702 34.3604 10.3293 35.0827 11.217 35.0827C12.1048 35.0827 12.8248 34.3604 12.8248 33.4727C12.8248 32.5849 12.1036 31.8627 11.217 31.8627ZM11.217 33.8336C11.018 33.8336 10.856 33.6716 10.856 33.4726C10.856 33.2735 11.018 33.1116 11.217 33.1116C11.4148 33.1116 11.5758 33.2735 11.5758 33.4726C11.5758 33.6716 11.4148 33.8336 11.217 33.8336ZM28.7387 35.0827H35.1233C35.2889 35.0827 35.4478 35.0169 35.5649 34.8997C35.682 34.7826 35.7478 34.6238 35.7478 34.4581V32.4871C35.7478 32.3215 35.682 32.1626 35.5649 32.0455C35.4478 31.9284 35.2889 31.8626 35.1233 31.8626H28.7387C28.573 31.8626 28.4142 31.9284 28.297 32.0455C28.1799 32.1626 28.1141 32.3215 28.1141 32.4871V34.4581C28.1141 34.6238 28.1799 34.7826 28.297 34.8997C28.4142 35.0169 28.573 35.0827 28.7387 35.0827ZM29.3632 33.1116H34.4988V33.8336H29.3632V33.1116ZM13.1348 18.6904C13.1348 18.7724 13.1187 18.8536 13.0873 18.9294C13.0559 19.0052 13.0099 19.074 12.9519 19.132C12.8939 19.19 12.8251 19.236 12.7493 19.2674C12.6735 19.2988 12.5923 19.3149 12.5103 19.3149H3.14709C2.98146 19.3149 2.82261 19.2491 2.70548 19.132C2.58836 19.0149 2.52256 18.856 2.52256 18.6904C2.52256 18.5248 2.58836 18.3659 2.70548 18.2488C2.82261 18.1317 2.98146 18.0659 3.14709 18.0659H12.5103C12.5923 18.0659 12.6735 18.082 12.7493 18.1134C12.8251 18.1448 12.8939 18.1908 12.9519 18.2488C13.0099 18.3068 13.0559 18.3756 13.0873 18.4514C13.1187 18.5272 13.1348 18.6084 13.1348 18.6904ZM13.1348 15.012C13.1348 15.094 13.1187 15.1752 13.0873 15.251C13.0559 15.3267 13.0099 15.3956 12.9519 15.4536C12.8939 15.5116 12.8251 15.5576 12.7493 15.5889C12.6735 15.6203 12.5923 15.6365 12.5103 15.6365H3.14709C2.98146 15.6365 2.82261 15.5707 2.70548 15.4536C2.58836 15.3364 2.52256 15.1776 2.52256 15.012C2.52256 14.8463 2.58836 14.6875 2.70548 14.5703C2.82261 14.4532 2.98146 14.3874 3.14709 14.3874H12.5103C12.5923 14.3874 12.6735 14.4036 12.7493 14.435C12.8251 14.4663 12.8939 14.5123 12.9519 14.5703C13.0099 14.6283 13.0559 14.6972 13.0873 14.773C13.1187 14.8487 13.1348 14.9299 13.1348 15.012ZM13.1348 11.3314C13.1348 11.4134 13.1187 11.4946 13.0873 11.5704C13.0559 11.6462 13.0099 11.715 12.9519 11.773C12.8939 11.831 12.8251 11.877 12.7493 11.9084C12.6735 11.9398 12.5923 11.9559 12.5103 11.9559H3.14709C2.98146 11.9559 2.82261 11.8901 2.70548 11.773C2.58836 11.6559 2.52256 11.497 2.52256 11.3314C2.52256 11.1658 2.58836 11.0069 2.70548 10.8898C2.82261 10.7727 2.98146 10.7069 3.14709 10.7069H12.5103C12.5923 10.7069 12.6735 10.723 12.7493 10.7544C12.8251 10.7858 12.8939 10.8318 12.9519 10.8898C13.0099 10.9478 13.0559 11.0166 13.0873 11.0924C13.1187 11.1682 13.1348 11.2494 13.1348 11.3314ZM13.1348 7.65078C13.1348 7.7328 13.1187 7.81401 13.0873 7.88978C13.0559 7.96555 13.0099 8.0344 12.9519 8.09239C12.8939 8.15038 12.8251 8.19639 12.7493 8.22777C12.6735 8.25916 12.5923 8.27531 12.5103 8.27531H3.14709C2.98146 8.27531 2.82261 8.20951 2.70548 8.09239C2.58836 7.97527 2.52256 7.81642 2.52256 7.65078C2.52256 7.48515 2.58836 7.32629 2.70548 7.20917C2.82261 7.09205 2.98146 7.02625 3.14709 7.02625H12.5103C12.5923 7.02625 12.6735 7.0424 12.7493 7.07379C12.8251 7.10517 12.8939 7.15118 12.9519 7.20917C13.0099 7.26716 13.0559 7.33601 13.0873 7.41178C13.1187 7.48755 13.1348 7.56877 13.1348 7.65078ZM17.8651 29.2716H33.3383C33.5039 29.2716 33.6628 29.2058 33.7799 29.0886C33.897 28.9715 33.9628 28.8127 33.9628 28.647C33.9628 24.9734 31.5804 21.8455 28.279 20.7268C29.5866 19.8571 30.4505 18.3709 30.4505 16.6862C30.4505 14.0131 28.2748 11.8385 25.6005 11.8385C22.9262 11.8385 20.7529 14.0131 20.7529 16.6862C20.7529 18.3709 21.6163 19.857 22.9233 20.7266C19.6226 21.8453 17.2406 24.9732 17.2406 28.647C17.2406 28.8127 17.3064 28.9715 17.4235 29.0886C17.5407 29.2058 17.6995 29.2716 17.8651 29.2716ZM22.0019 16.6862C22.0019 14.702 23.6163 13.0876 25.6006 13.0876C27.5849 13.0876 29.2015 14.702 29.2015 16.6862C29.2015 18.6705 27.5861 20.2871 25.6006 20.2871C23.6151 20.2871 22.0019 18.6717 22.0019 16.6862ZM25.6006 21.5361C29.3124 21.5361 32.3693 24.3928 32.6866 28.0226H18.5169C18.8341 24.3929 21.89 21.5361 25.6006 21.5361Z" fill="#69FF00"/>
</svg>
