<svg width="40" height="40" viewBox="0 0 40 40" fill="none" xmlns="http://www.w3.org/2000/svg">
<g clip-path="url(#clip0_638_140)">
<path d="M3.75078 30.625C3.58502 30.625 3.42605 30.6908 3.30884 30.8081C3.19163 30.9253 3.12578 31.0842 3.12578 31.25V33.425C3.12578 33.5908 3.19163 33.7497 3.30884 33.8669C3.42605 33.9842 3.58502 34.05 3.75078 34.05C3.91654 34.05 4.07551 33.9842 4.19272 33.8669C4.30993 33.7497 4.37578 33.5908 4.37578 33.425V31.875L8.75078 31.8906C8.91817 31.8872 9.0775 31.8181 9.19442 31.6983C9.31134 31.5784 9.37647 31.4174 9.37578 31.25C9.37578 31.0842 9.30993 30.9253 9.19272 30.8081C9.07551 30.6908 8.91654 30.625 8.75078 30.625H3.75078ZM8.12578 36.0437V38.125H4.37578C4.36749 37.9592 4.2937 37.8036 4.17063 37.6922C4.04756 37.5809 3.88529 37.523 3.71953 37.5312C3.55377 37.5395 3.39809 37.6133 3.28674 37.7364C3.17539 37.8595 3.11749 38.0217 3.12578 38.1875V38.75C3.12578 38.9158 3.19163 39.0747 3.30884 39.1919C3.42605 39.3092 3.58502 39.375 3.75078 39.375H8.75078C8.91654 39.375 9.07551 39.3092 9.19272 39.1919C9.30993 39.0747 9.37578 38.9158 9.37578 38.75V36.0437C9.37578 35.878 9.30993 35.719 9.19272 35.6018C9.07551 35.4846 8.91654 35.4187 8.75078 35.4187C8.58502 35.4187 8.42605 35.4846 8.30884 35.6018C8.19163 35.719 8.12578 35.878 8.12578 36.0437ZM16.8758 35.8V38.125H13.1258V36.4C13.1258 36.2342 13.0599 36.0753 12.9427 35.9581C12.8255 35.8408 12.6665 35.775 12.5008 35.775C12.335 35.775 12.176 35.8408 12.0588 35.9581C11.9416 36.0753 11.8758 36.2342 11.8758 36.4V38.75C11.8758 38.9158 11.9416 39.0747 12.0588 39.1919C12.176 39.3092 12.335 39.375 12.5008 39.375H17.5008C17.6665 39.375 17.8255 39.3092 17.9427 39.1919C18.0599 39.0747 18.1258 38.9158 18.1258 38.75V35.8C18.1258 35.6342 18.0599 35.4753 17.9427 35.3581C17.8255 35.2408 17.6665 35.175 17.5008 35.175C17.335 35.175 17.1761 35.2408 17.0588 35.3581C16.9416 35.4753 16.8758 35.6342 16.8758 35.8ZM21.2508 27.825C21.4165 27.825 21.5755 27.7592 21.6927 27.6419C21.8099 27.5247 21.8758 27.3658 21.8758 27.2V21.875H25.6258V25.6437C25.6258 25.8095 25.6916 25.9685 25.8088 26.0857C25.9261 26.2029 26.085 26.2687 26.2508 26.2687C26.4165 26.2687 26.5755 26.2029 26.6927 26.0857C26.8099 25.9685 26.8758 25.8095 26.8758 25.6437V21.25C26.8758 21.0842 26.8099 20.9253 26.6927 20.8081C26.5755 20.6908 26.4165 20.625 26.2508 20.625H21.2508C21.085 20.625 20.9261 20.6908 20.8088 20.8081C20.6916 20.9253 20.6258 21.0842 20.6258 21.25V27.2C20.6258 27.3658 20.6916 27.5247 20.8088 27.6419C20.9261 27.7592 21.085 27.825 21.2508 27.825ZM26.2508 29.4812C26.085 29.4812 25.9261 29.5471 25.8088 29.6643C25.6916 29.7815 25.6258 29.9405 25.6258 30.1062V38.125H21.8758V32.8C21.8758 32.6342 21.8099 32.4753 21.6927 32.3581C21.5755 32.2408 21.4165 32.175 21.2508 32.175C21.085 32.175 20.9261 32.2408 20.8088 32.3581C20.6916 32.4753 20.6258 32.6342 20.6258 32.8V38.75C20.6258 38.9158 20.6916 39.0747 20.8088 39.1919C20.9261 39.3092 21.085 39.375 21.2508 39.375H26.2508C26.4165 39.375 26.5755 39.3092 26.6927 39.1919C26.8099 39.0747 26.8758 38.9158 26.8758 38.75V30.1062C26.8758 29.9405 26.8099 29.7815 26.6927 29.6643C26.5755 29.5471 26.4165 29.4812 26.2508 29.4812ZM35.0008 26.625C34.835 26.625 34.6761 26.6908 34.5588 26.8081C34.4416 26.9253 34.3758 27.0842 34.3758 27.25V38.125H30.6258V30.8562C30.6258 30.6905 30.5599 30.5315 30.4427 30.4143C30.3255 30.2971 30.1665 30.2312 30.0008 30.2312C29.835 30.2312 29.6761 30.2971 29.5588 30.4143C29.4416 30.5315 29.3758 30.6905 29.3758 30.8562V38.75C29.3758 38.9158 29.4416 39.0747 29.5588 39.1919C29.6761 39.3092 29.835 39.375 30.0008 39.375H35.0008C35.1665 39.375 35.3255 39.3092 35.4427 39.1919C35.5599 39.0747 35.6258 38.9158 35.6258 38.75V27.25C35.6258 27.0842 35.5599 26.9253 35.4427 26.8081C35.3255 26.6908 35.1665 26.625 35.0008 26.625ZM30.0008 26.8313C30.1665 26.8313 30.3255 26.7654 30.4427 26.6482C30.5599 26.531 30.6258 26.372 30.6258 26.2063V16.875H34.3758V20.825C34.3758 20.9908 34.4416 21.1497 34.5588 21.2669C34.6761 21.3842 34.835 21.45 35.0008 21.45C35.1665 21.45 35.3255 21.3842 35.4427 21.2669C35.5599 21.1497 35.6258 20.9908 35.6258 20.825V16.25C35.6258 16.0842 35.5599 15.9253 35.4427 15.8081C35.3255 15.6908 35.1665 15.625 35.0008 15.625H32.5008V8.125H38.7508C38.8669 8.125 38.9806 8.09268 39.0794 8.03166C39.1781 7.97064 39.2579 7.88332 39.3098 7.77951C39.3617 7.67569 39.3837 7.55947 39.3733 7.44387C39.3628 7.32827 39.3204 7.21786 39.2508 7.125L37.7008 5.05875L39.1927 3.56687C39.28 3.47947 39.3395 3.36812 39.3636 3.24689C39.3878 3.12567 39.3754 3.00003 39.3281 2.88584C39.2808 2.77165 39.2007 2.67405 39.0979 2.60537C38.9952 2.5367 38.8744 2.50003 38.7508 2.5H31.8758C31.71 2.5 31.5511 2.56585 31.4338 2.68306C31.3166 2.80027 31.2508 2.95924 31.2508 3.125V15.625H30.0008C29.835 15.625 29.6761 15.6908 29.5588 15.8081C29.4416 15.9253 29.3758 16.0842 29.3758 16.25V26.2063C29.3758 26.372 29.4416 26.531 29.5588 26.6482C29.6761 26.7654 29.835 26.8313 30.0008 26.8313ZM32.5008 3.75H37.242L36.4339 4.55813C36.3275 4.66449 36.2631 4.80566 36.2524 4.95572C36.2417 5.10577 36.2855 5.25464 36.3758 5.375L37.5008 6.875H32.5008V3.75Z" fill="#65FF00"/>
<path d="M38.7496 19.3764H36.8746C36.7089 19.3764 36.5499 19.4422 36.4327 19.5594C36.3155 19.6767 36.2496 19.8356 36.2496 20.0014C36.2496 20.1671 36.3155 20.3261 36.4327 20.4433C36.5499 20.5605 36.7089 20.6264 36.8746 20.6264H37.3165L30.404 28.0701L24.4996 26.8889C24.4102 26.8707 24.3178 26.8725 24.2291 26.8941C24.1404 26.9157 24.0576 26.9566 23.9865 27.0139L14.8865 34.2914L10.2196 32.5414C10.0686 32.4848 9.90152 32.4889 9.75338 32.5526L1.00338 36.3026C0.853384 36.3695 0.735727 36.4927 0.675846 36.6456C0.615965 36.7985 0.618671 36.9688 0.683379 37.1198C0.748088 37.2707 0.869599 37.3901 1.02164 37.4522C1.17368 37.5142 1.34404 37.5139 1.49588 37.4514L10.0146 33.8001L14.7796 35.5876C14.8811 35.6257 14.9908 35.6368 15.0978 35.6197C15.2049 35.6026 15.3057 35.5579 15.3903 35.4901L24.5378 28.1714L30.4996 29.3639C30.6043 29.3853 30.7127 29.3793 30.8143 29.3464C30.9159 29.3136 31.0073 29.255 31.0796 29.1764L38.1246 21.5926V21.8764C38.1246 22.0421 38.1905 22.2011 38.3077 22.3183C38.4249 22.4355 38.5839 22.5014 38.7496 22.5014C38.9154 22.5014 39.0744 22.4355 39.1916 22.3183C39.3088 22.2011 39.3746 22.0421 39.3746 21.8764V20.0014C39.3727 19.8362 39.3062 19.6784 39.1894 19.5616C39.0726 19.4448 38.9148 19.3783 38.7496 19.3764ZM14.8309 12.0739C14.713 11.96 14.5551 11.897 14.3913 11.8985C14.2274 11.8999 14.0706 11.9656 13.9547 12.0815C13.8389 12.1974 13.7731 12.3541 13.7717 12.518C13.7703 12.6819 13.8333 12.8398 13.9471 12.9576L14.5578 13.5683C14.6749 13.6855 14.8339 13.7513 14.9996 13.7514H17.4996C17.6654 13.7514 17.8244 13.8172 17.9416 13.9344C18.0588 14.0517 18.1246 14.2106 18.1246 14.3764C18.1246 14.5421 18.0588 14.7011 17.9416 14.8183C17.8244 14.9355 17.6654 15.0014 17.4996 15.0014H15.219C15.141 15.0014 15.0635 14.9888 14.9896 14.9639L13.8609 14.5889C13.7034 14.5364 13.5315 14.5487 13.3831 14.6229C13.2346 14.6972 13.1218 14.8273 13.0693 14.9848C13.0169 15.1423 13.0291 15.3142 13.1033 15.4626C13.1776 15.611 13.3078 15.7239 13.4653 15.7764L14.5946 16.1514C14.7962 16.2184 15.0072 16.2526 15.2196 16.2526H17.4996C17.9969 16.2526 18.4738 16.0551 18.8255 15.7035C19.1771 15.3518 19.3746 14.8749 19.3746 14.3776C19.3746 13.8804 19.1771 13.4034 18.8255 13.0518C18.4738 12.7002 17.9969 12.5026 17.4996 12.5026H15.2584L14.8309 12.0739Z" fill="#65FF00"/>
<path d="M2.05223 16.7875C2.27917 16.9137 2.52879 16.9939 2.78679 17.0236C3.04478 17.0532 3.30608 17.0316 3.55573 16.9601C3.80537 16.8885 4.03845 16.7685 4.24162 16.6067C4.44479 16.445 4.61406 16.2448 4.73973 16.0175L6.0616 13.625L8.9791 12.4581C9.13309 12.3966 9.25635 12.2765 9.32175 12.1241C9.38716 11.9717 9.38935 11.7996 9.32785 11.6456C9.26636 11.4916 9.1462 11.3684 8.99383 11.303C8.84146 11.2376 8.66934 11.2354 8.51535 11.2969L5.39035 12.5469C5.25707 12.6008 5.14662 12.6993 5.07785 12.8256L3.64723 15.4131C3.60106 15.4965 3.53892 15.5699 3.46435 15.6292C3.38978 15.6885 3.30426 15.7326 3.21266 15.7588C3.12106 15.785 3.02519 15.793 2.93053 15.7821C2.83587 15.7713 2.74427 15.7419 2.66098 15.6956C2.58862 15.6554 2.52498 15.6011 2.47376 15.5361C2.42253 15.471 2.38474 15.3965 2.36259 15.3167C2.34043 15.2369 2.33435 15.1535 2.3447 15.0714C2.35504 14.9892 2.38161 14.9099 2.42285 14.8381L4.34535 11.5C4.41313 11.3836 4.51205 11.2883 4.63098 11.225C7.39598 9.74375 9.69598 8.75 10.3522 8.75C10.8116 8.75 12.4991 9.45313 12.4991 10.6813C12.4991 11.9375 11.1747 14.9313 10.6641 15.9763C10.6004 16.107 10.5842 16.2558 10.6185 16.3972C10.6527 16.5385 10.7351 16.6635 10.8516 16.7506L15.2322 20.0213C15.3367 20.0989 15.4183 20.2034 15.4683 20.3237C15.5182 20.444 15.5347 20.5755 15.516 20.7044L14.8066 25.625H13.5566L13.7491 21.2775C13.7559 21.1222 13.7046 20.97 13.6052 20.8505C13.5058 20.731 13.3655 20.6529 13.2116 20.6312C10.1504 20.2031 6.8741 19.0937 6.8741 18.125C6.87478 17.044 7.03332 15.9689 7.34473 14.9337C7.39354 14.7753 7.37741 14.6039 7.29988 14.4573C7.22234 14.3108 7.08976 14.201 6.93129 14.1522C6.77282 14.1034 6.60145 14.1195 6.45488 14.197C6.30831 14.2746 6.19854 14.4072 6.14973 14.5656C5.8023 15.7202 5.62523 16.9193 5.6241 18.125C5.6241 20.4119 10.3166 21.4375 12.4747 21.7838L12.3035 25.6644C12.1793 25.7043 12.071 25.7824 11.9938 25.8876C11.9167 25.9927 11.8748 26.1196 11.8741 26.25V31.725C11.8741 31.8908 11.94 32.0497 12.0572 32.1669C12.1744 32.2842 12.3333 32.35 12.4991 32.35C12.6649 32.35 12.8238 32.2842 12.941 32.1669C13.0583 32.0497 13.1241 31.8908 13.1241 31.725V26.875H16.8741V30.2C16.8741 30.3658 16.94 30.5247 17.0572 30.6419C17.1744 30.7592 17.3333 30.825 17.4991 30.825C17.6649 30.825 17.8238 30.7592 17.941 30.6419C18.0583 30.5247 18.1241 30.3658 18.1241 30.2V26.25C18.1241 26.0842 18.0583 25.9253 17.941 25.8081C17.8238 25.6908 17.6649 25.625 17.4991 25.625H16.0704L16.7541 20.8825C16.8046 20.5311 16.7593 20.1725 16.6232 19.8447C16.487 19.5168 16.2649 19.2317 15.9804 19.0194L12.0104 16.055C12.5379 14.9187 13.7491 12.1494 13.7491 10.6813C13.7491 8.5825 11.3679 7.5 10.3522 7.5C9.1241 7.5 5.8741 9.14125 4.04223 10.12C3.71615 10.293 3.44572 10.5547 3.26223 10.875L1.33973 14.2144C1.21582 14.4297 1.13594 14.6675 1.10471 14.9139C1.07349 15.1604 1.09155 15.4105 1.15784 15.6499C1.22413 15.8894 1.33733 16.1132 1.49087 16.3085C1.64441 16.5038 1.83523 16.6666 2.05223 16.7875Z" fill="#65FF00"/>
<path d="M9.60584 21.9194C9.52964 21.8889 9.44817 21.8737 9.36609 21.8747C9.28402 21.8757 9.20294 21.8928 9.12749 21.9251C9.05204 21.9575 8.9837 22.0043 8.92637 22.0631C8.86903 22.1218 8.82383 22.1913 8.79334 22.2675L7.61584 25.2125L4.90772 27.0181C4.77237 27.1085 4.61069 27.151 4.44839 27.1389C4.2861 27.1268 4.13252 27.0607 4.01209 26.9513C3.94383 26.889 3.88862 26.8139 3.84967 26.7301C3.81071 26.6464 3.7888 26.5557 3.78519 26.4634C3.78159 26.3711 3.79636 26.279 3.82866 26.1925C3.86096 26.106 3.91014 26.0267 3.97334 25.9594L6.02022 23.7925C6.08414 23.7251 6.132 23.6441 6.16022 23.5556L6.84334 21.4425C6.8736 21.3633 6.88742 21.2788 6.88397 21.1941C6.88053 21.1094 6.85988 21.0262 6.8233 20.9498C6.78671 20.8733 6.73495 20.8051 6.67116 20.7492C6.60737 20.6934 6.53289 20.6511 6.45225 20.6249C6.3716 20.5988 6.28648 20.5893 6.20206 20.5971C6.11764 20.6049 6.03569 20.6298 5.96119 20.6703C5.88669 20.7107 5.8212 20.7659 5.76871 20.8325C5.71622 20.8991 5.67782 20.9756 5.65584 21.0575L5.01459 23.0369L3.06459 25.0994C2.88749 25.2875 2.74959 25.5089 2.65894 25.7509C2.56829 25.9928 2.52669 26.2503 2.53658 26.5085C2.54647 26.7667 2.60765 27.0203 2.71654 27.2546C2.82543 27.4889 2.97987 27.6991 3.17084 27.8731C3.49718 28.1708 3.91387 28.3506 4.35436 28.3837C4.79484 28.4167 5.2337 28.3012 5.60084 28.0556L8.47084 26.1425C8.57603 26.0725 8.65753 25.9723 8.70459 25.855L9.95459 22.73C10.0156 22.5762 10.0131 22.4046 9.94772 22.2526C9.88235 22.1007 9.75941 21.9808 9.60584 21.9194ZM14.0996 7.5C14.8802 7.43899 15.6065 7.07641 16.1244 6.4891C16.6423 5.90179 16.9111 5.1359 16.874 4.35375C16.874 1.92063 15.1865 0.625 13.9683 0.625C11.6708 0.625 10.624 2.1875 10.624 3.6325C10.624 5.875 12.0858 7.5 14.0996 7.5ZM13.9683 1.875C14.5271 1.875 15.624 2.625 15.624 4.35375C15.6577 4.8042 15.519 5.25063 15.236 5.60268C14.953 5.95473 14.5468 6.18612 14.0996 6.25C12.7683 6.25 11.874 5.19812 11.874 3.6325C11.874 2.78312 12.424 1.875 13.9683 1.875Z" fill="#65FF00"/>
</g>
<defs>
<clipPath id="clip0_638_140">
<rect width="40" height="40" fill="white"/>
</clipPath>
</defs>
</svg>
