<svg width="40" height="40" viewBox="0 0 40 40" fill="none" xmlns="http://www.w3.org/2000/svg">
<path d="M28.064 11.0083L28.4868 11.6563L28.4176 11.7139C27.7756 12.2383 26.9736 12.4051 26.1188 12.2023L25.0104 11.8795C24.3668 11.6651 23.7664 11.6651 23.1412 11.8735L20.5328 12.5979L19.0112 13.8827L16.9112 12.5587L12.7772 12.6067C12.1656 12.6067 11.6728 12.4851 11.116 12.1967L11.8908 11.0095L2 5.00391V19.7207L4.9484 21.6479L5.498 20.8059L9.1644 24.9831L9.1256 25.0219C8.5628 25.6035 8.4064 26.3759 8.708 27.0879C8.9844 27.7407 9.5768 28.2047 10.2332 28.3091C9.8692 28.8223 9.7848 29.4399 10.0216 30.0247C10.3252 30.7747 11.0824 31.2987 11.8632 31.2987C11.9084 31.2987 11.9524 31.2887 11.9972 31.2851C11.9416 31.6183 11.9816 31.9605 12.1124 32.2719C12.4228 33.0195 13.1764 33.5419 13.9452 33.5419C14.2296 33.5419 14.5012 33.4659 14.7548 33.3335C14.774 33.5087 14.8168 33.6847 14.8884 33.8575C15.1968 34.6031 15.9156 35.1039 16.6764 35.1039C17.1652 35.1039 17.6284 34.8991 18.0156 34.5119L19.7992 32.7283L20.204 33.1043C20.5808 33.4943 21.032 33.6967 21.506 33.6967C21.6488 33.6967 21.794 33.6783 21.9392 33.6407C22.616 33.4671 23.1988 32.8823 23.3896 32.1851C23.4044 32.1311 23.4128 32.0771 23.4228 32.0235L23.4296 32.0303C23.8104 32.4235 24.2836 32.6327 24.7724 32.6327C24.914 32.6327 25.0576 32.6151 25.2 32.5791C25.8848 32.4075 26.4548 31.8519 26.6512 31.1627C26.6744 31.0827 26.6912 31.0019 26.7032 30.9211C26.9952 31.1039 27.3172 31.2051 27.6488 31.2047C27.802 31.2047 27.9572 31.1843 28.1112 31.1435C28.804 30.9579 29.372 30.3899 29.5576 29.6971C29.5656 29.6679 29.5684 29.6387 29.5752 29.6095C29.9736 29.9703 30.4164 30.1307 30.8444 30.1307C31.3812 30.1303 31.8936 29.8891 32.2628 29.5143C32.9236 28.8419 33.1396 27.7079 32.2724 26.8411L29.9512 24.5199L33.9312 20.0027L35.0032 21.6451L38 19.7231V5.00591L28.064 11.0083ZM4.7156 20.5403L2.8 19.2879V6.42551L10.7688 11.2639L4.7156 20.5403ZM9.4448 26.7755C9.342 26.5331 9.2384 26.0551 9.696 25.5827L11.7948 23.4847C12.0264 23.2603 12.2808 23.1467 12.5512 23.1467C12.9932 23.1467 13.4456 23.4719 13.6268 23.9203C13.7256 24.1639 13.8196 24.6427 13.3364 25.1107L11.2756 27.1719C11.0448 27.4107 10.7872 27.5311 10.5104 27.5311C10.072 27.5311 9.6336 27.2207 9.4448 26.7755ZM10.7628 29.7243C10.6684 29.4903 10.5792 29.0307 11.05 28.5751L14.5612 25.0643C14.788 24.8299 15.0412 24.7107 15.3136 24.7107C15.7536 24.7107 16.2084 25.0383 16.3956 25.4899C16.4952 25.7299 16.5944 26.2003 16.1424 26.6527C16.1172 26.6779 13.1336 29.6283 12.6144 30.1751C12.3856 30.3875 12.1332 30.4983 11.8628 30.4983C11.4072 30.4983 10.9444 30.1731 10.7628 29.7243ZM13.9448 32.7411C13.498 32.7411 13.0376 32.4147 12.8512 31.9647C12.754 31.7295 12.6576 31.2683 13.1156 30.8083C13.1328 30.7899 14.8376 29.0883 14.8376 29.0883L16.6228 27.3039C16.862 27.0687 17.1256 26.9479 17.4076 26.9479C17.8548 26.9479 18.296 27.2579 18.48 27.7019C18.58 27.9431 18.676 28.4187 18.1988 28.8963L14.6928 32.4019C14.4676 32.6271 14.216 32.7411 13.9448 32.7411ZM17.4496 33.9451C17.212 34.1827 16.952 34.3031 16.676 34.3031C16.242 34.3031 15.8108 33.9939 15.6272 33.5503C15.5232 33.2991 15.4216 32.8047 15.9116 32.3143L17.97 30.2559C18.1948 30.0319 18.4456 29.9183 18.716 29.9183C19.1632 29.9183 19.6232 30.2447 19.8092 30.6947C19.9032 30.9215 19.9908 31.3595 19.5924 31.7947L19.5008 31.8931L17.4496 33.9451ZM31.692 28.9527C31.2896 29.3611 30.6332 29.5295 30.0776 28.9919C30.0776 28.9919 27.2472 26.1151 26.352 25.2195L26.104 24.9683L26.1024 24.9699L25.5424 24.4103L25.2592 24.1275L24.694 24.6935L24.9768 24.9759L25.79 25.7887L28.6364 28.6711C28.8492 28.9803 28.8416 29.2795 28.7848 29.4895C28.6756 29.8983 28.3132 30.2607 27.9044 30.3699C27.65 30.4379 27.2712 30.4403 26.8868 30.0559C26.6068 29.7951 23.8104 26.9779 23.8104 26.9779L23.2448 27.5435L25.694 30.0139C25.962 30.3671 25.9488 30.7079 25.882 30.9427C25.764 31.3551 25.412 31.7011 25.0056 31.8027C24.756 31.8643 24.378 31.8595 23.9992 31.4683L22.1752 29.6431L21.6092 30.2083L22.3116 30.9119C22.6992 31.2991 22.692 31.7031 22.618 31.9739C22.5024 32.3963 22.142 32.7627 21.7408 32.8655C21.3968 32.9543 21.0656 32.8431 20.7644 32.5327L20.3424 32.1407C20.7152 31.6195 20.7968 30.9867 20.55 30.3895C20.2812 29.7411 19.6788 29.2635 19.022 29.1479C19.3852 28.6183 19.4644 27.9883 19.2196 27.3967C18.9104 26.6507 18.1824 26.1491 17.4084 26.1491C17.3568 26.1491 17.3068 26.1603 17.256 26.1651C17.3071 25.8335 17.2655 25.4941 17.1356 25.1847C16.8252 24.4351 16.0764 23.9115 15.3144 23.9115C15.026 23.9115 14.7512 23.9911 14.4952 24.1287C14.4771 23.9542 14.4349 23.7831 14.3696 23.6203C14.066 22.8707 13.3188 22.3471 12.552 22.3471C12.074 22.3471 11.6196 22.5415 11.2348 22.9147L9.732 24.4167L5.952 20.1099L10.6744 12.8731L10.7184 12.8919C11.3904 13.2523 12.006 13.4063 12.782 13.4063L16.6852 13.3611L18.3704 14.4235L16.774 15.7715L15.0256 21.9647L15.7008 22.4151C16.1668 22.7011 16.6592 22.8455 17.1808 22.8455C17.4484 22.8455 17.7236 22.8071 18.0068 22.7307C18.8236 22.4395 19.4404 21.8579 19.7032 21.1231L20.274 19.3635L22.1232 17.8219L23.5716 19.2703L31.7068 27.4059C32.2312 27.9307 32.0772 28.5607 31.692 28.9527ZM33.4512 19.3575L29.3856 23.9535L26.9104 21.4783C27.8712 21.6091 28.8304 21.3411 29.7488 20.6679L30.0712 20.4311L29.598 19.7863L29.2752 20.0227C28.0172 20.9459 26.772 20.9503 25.47 20.0383L22.5968 17.1651C22.4578 17.0316 22.2731 16.9564 22.0804 16.9547C21.8288 16.9547 21.6836 17.1211 21.6132 17.2075L19.5836 18.8979L18.9456 20.8659C18.768 21.3623 18.3276 21.7679 17.7684 21.9683C17.1756 22.1279 16.6356 22.0515 16.1312 21.7423L15.9532 21.6235L17.4768 16.2255L20.916 13.3227L23.3744 12.6395C23.8532 12.4799 24.2796 12.4803 24.7724 12.6439L25.914 12.9759C27.0244 13.2399 28.0924 13.0119 28.9252 12.3327L28.9264 12.3319L33.4924 19.3307L33.4512 19.3575ZM37.2 19.2855L35.2392 20.5431L29.1868 11.2647L37.2 6.42391V19.2855Z" fill="#65FF00"/>
<path d="M18.7358 4.89453H19.5358V11.0229H18.7358V4.89453ZM24.5558 7.01573L25.1214 7.58133L21.5174 11.1849L20.9522 10.6193L24.5558 7.01573ZM13.7106 7.01733L17.3146 10.6209L16.7486 11.1865L13.1446 7.58253L13.7106 7.01733ZM33.0646 13.4537C33.4436 13.4534 33.8069 13.3027 34.0749 13.0348C34.343 12.7669 34.4937 12.4035 34.4942 12.0245C34.4942 11.2761 33.8394 10.6437 33.0646 10.6437C32.2898 10.6437 31.6358 11.2761 31.6358 12.0245C31.6361 12.4034 31.7867 12.7667 32.0546 13.0346C32.3224 13.3026 32.6857 13.4533 33.0646 13.4537ZM33.0646 11.4433C33.3942 11.4433 33.6942 11.7201 33.6942 12.0241C33.6942 12.3653 33.4058 12.6533 33.0646 12.6533C32.7234 12.6533 32.4358 12.3649 32.4358 12.0241C32.4358 11.7205 32.7354 11.4433 33.0646 11.4433ZM6.60856 10.4097C6.24238 10.4099 5.89122 10.5554 5.63214 10.8142C5.37306 11.073 5.2272 11.4239 5.22656 11.7901C5.22656 12.5649 5.85936 13.2193 6.60856 13.2193C6.98723 13.2187 7.35018 13.0679 7.61775 12.7999C7.88532 12.532 8.03566 12.1688 8.03576 11.7901C8.03576 11.0161 7.40856 10.4097 6.60856 10.4097ZM6.60856 12.4197C6.30376 12.4197 6.02656 12.1197 6.02656 11.7905C6.02656 11.4433 6.32736 11.2101 6.60856 11.2101C6.96056 11.2101 7.23576 11.4653 7.23576 11.7905C7.23576 12.1313 6.94856 12.4197 6.60856 12.4197Z" fill="#65FF00"/>
</svg>
