<svg width="40" height="40" viewBox="0 0 40 40" fill="none" xmlns="http://www.w3.org/2000/svg">
<path d="M10.3559 31.8086C10.127 32.6793 10.2558 33.6037 10.645 34.3546C11.313 35.6834 12.7475 36.5084 14.2112 36.3772C14.3286 38.0221 15.6997 39.3497 17.4016 39.3497C18.4779 39.3497 19.4269 38.812 20.0078 37.9955C20.5887 38.8123 21.5379 39.3502 22.6143 39.3502C24.3057 39.3502 25.6989 38.0391 25.8105 36.3488C26.9768 36.4425 28.0859 35.9352 28.8244 35.0775C29.6395 34.1317 29.8976 32.8937 29.628 31.8127C31.7054 31.2488 33.194 29.3552 33.194 27.1367C33.194 24.9271 31.7125 23.0358 29.6428 22.4648C29.9888 21.1492 29.502 19.7996 28.6691 18.9668C27.9369 18.2345 26.8811 17.8103 25.7882 17.8962C25.6708 16.2513 24.2997 14.9238 22.5978 14.9238C21.5213 14.9238 20.5721 15.4616 19.9911 16.2784C19.4102 15.4616 18.4609 14.9238 17.3844 14.9238C15.6966 14.9238 14.3005 16.2323 14.1887 17.9246C13.1278 17.8441 12.1313 18.2548 11.4209 18.941C10.4138 19.8955 10.0723 21.2591 10.3712 22.4607C8.29328 23.0246 6.80469 24.9183 6.80469 27.1367C6.80477 29.3463 8.28625 31.2377 10.3559 31.8086ZM22.5978 16.133C23.6969 16.133 24.6236 17.0346 24.5748 18.2092C24.1683 18.3901 23.793 18.6429 23.4694 18.9668C23.2332 19.203 23.2332 19.5856 23.4694 19.8218C23.7055 20.058 24.0882 20.058 24.3244 19.8218C25.2127 18.9335 26.7201 18.8215 27.7355 19.7571C28.7802 20.7234 28.7825 22.3432 27.8141 23.3115C27.578 23.5477 27.578 23.9303 27.8141 24.1665C28.0503 24.4027 28.433 24.4027 28.6691 24.1665C28.8417 23.9935 28.9966 23.8038 29.1315 23.6002C30.7793 23.9641 31.9848 25.414 31.9848 27.1366C31.9848 28.8611 30.7812 30.3092 29.1349 30.6723C28.9973 30.4602 28.8379 30.2583 28.652 30.0724C28.4159 29.8362 28.0332 29.8362 27.797 30.0724C27.5609 30.3086 27.5609 30.6912 27.797 30.9274C28.6149 31.7453 28.8082 33.1204 27.9908 34.1798C27.0213 35.4271 25.2954 35.4053 24.3073 34.4172C24.0711 34.181 23.6884 34.181 23.4523 34.4172C23.2161 34.6534 23.2161 35.036 23.4523 35.2722C23.7908 35.6107 24.1818 35.8627 24.5968 36.0413C24.6528 37.2462 23.7093 38.1408 22.6144 38.1408C21.5149 38.1408 20.6209 37.2462 20.6209 36.1467C20.6209 36.0508 20.6044 18.1691 20.6044 18.1264C20.6043 17.027 21.4983 16.133 22.5978 16.133ZM10.863 23.6013C11.0032 23.8174 11.1655 24.0184 11.3473 24.2009C11.5835 24.437 11.9662 24.437 12.2023 24.2009C12.4385 23.9647 12.4385 23.582 12.2023 23.3459C11.2316 22.3737 11.2416 20.7657 12.2733 19.7978C13.301 18.8427 14.8115 18.9755 15.6921 19.8561C15.9283 20.0923 16.3109 20.0923 16.5471 19.8561C16.7833 19.6199 16.7833 19.2373 16.5471 19.0011C16.2088 18.6626 15.8177 18.4105 15.4026 18.2319C15.3468 17.0294 16.2872 16.1331 17.3844 16.1331C18.4838 16.1331 19.3778 17.0271 19.3778 18.1266C19.3778 18.2988 19.3949 35.738 19.3949 36.1469C19.3949 37.2463 18.5009 38.1403 17.4015 38.1403C16.3003 38.1403 15.3755 37.2364 15.4245 36.0642C15.831 35.8832 16.2062 35.6304 16.5299 35.3066C16.7661 35.0704 16.7661 34.6877 16.5299 34.4516C16.2938 34.2154 15.9111 34.2154 15.6749 34.4516C14.5818 35.5447 12.6373 35.4122 11.7798 33.8954C11.2148 32.8762 11.4607 31.6862 12.1852 30.9618C12.4214 30.7256 12.4214 30.343 12.1852 30.1068C11.9491 29.8706 11.5664 29.8706 11.3302 30.1068C11.1573 30.2797 11.0018 30.4693 10.8661 30.6728C9.21891 30.3084 8.01406 28.8587 8.01406 27.1366C8.01406 25.4127 9.21742 23.965 10.863 23.6013ZM19.9997 12.08C20.0791 12.08 20.1578 12.0644 20.2311 12.0341C20.3045 12.0037 20.3712 11.9591 20.4274 11.903C20.4835 11.8468 20.5281 11.7801 20.5584 11.7068C20.5888 11.6334 20.6044 11.5547 20.6044 11.4753V4.60844C21.427 4.34922 22.0292 3.58828 22.0292 2.68125C22.0292 1.56227 21.1187 0.652344 19.9998 0.652344C18.8809 0.652344 17.9703 1.56227 17.9703 2.68125C17.9703 3.58828 18.5726 4.34922 19.3952 4.60844V11.4753C19.3951 11.5547 19.4107 11.6334 19.441 11.7068C19.4714 11.7802 19.5159 11.8468 19.572 11.903C19.6282 11.9592 19.6949 12.0037 19.7682 12.0341C19.8416 12.0644 19.9203 12.0801 19.9997 12.08ZM19.9997 1.86172C20.452 1.86172 20.8198 2.22961 20.8198 2.68133C20.8198 3.13367 20.452 3.50148 19.9997 3.50148C19.5473 3.50148 19.1795 3.13359 19.1795 2.68133C19.1795 2.22961 19.5473 1.86172 19.9997 1.86172ZM24.1266 11.4753V6.86844H28.5489C28.8081 7.69102 29.5691 8.29328 30.4761 8.29328C31.5951 8.29328 32.505 7.38273 32.505 6.26383C32.505 5.14492 31.5951 4.23437 30.4761 4.23437C29.5691 4.23437 28.8081 4.83664 28.5489 5.65922H23.522C23.4425 5.65918 23.3639 5.67479 23.2905 5.70516C23.2171 5.73554 23.1504 5.78008 23.0943 5.83624C23.0381 5.89239 22.9936 5.95907 22.9632 6.03245C22.9328 6.10584 22.9172 6.18449 22.9173 6.26391V11.4755C22.9173 11.8097 23.1877 12.0802 23.522 12.0802C23.8562 12.0802 24.1266 11.8095 24.1266 11.4753ZM30.476 5.44359C30.9277 5.44359 31.2956 5.81148 31.2956 6.26375C31.2956 6.71602 30.9277 7.08391 30.476 7.08391C30.0237 7.08391 29.6559 6.71602 29.6559 6.26375C29.6559 5.81148 30.0237 5.44359 30.476 5.44359ZM16.4769 12.08C16.5563 12.08 16.6349 12.0644 16.7083 12.0341C16.7817 12.0037 16.8484 11.9591 16.9045 11.903C16.9607 11.8468 17.0052 11.7801 17.0356 11.7068C17.066 11.6334 17.0816 11.5547 17.0816 11.4753V6.26375C17.0816 6.18433 17.066 6.10568 17.0356 6.0323C17.0052 5.95892 16.9607 5.89224 16.9045 5.83608C16.8484 5.77992 16.7817 5.73538 16.7083 5.70501C16.6349 5.67463 16.5563 5.65902 16.4769 5.65906H11.4505C11.1913 4.83648 10.4303 4.23422 9.52328 4.23422C8.4043 4.23422 7.49383 5.14477 7.49383 6.26367C7.49383 7.38258 8.40437 8.29313 9.52328 8.29313C10.4303 8.29313 11.1913 7.69086 11.4505 6.86828H15.8722V11.4752C15.8721 11.5547 15.8877 11.6333 15.9181 11.7067C15.9485 11.7801 15.993 11.8468 16.0492 11.903C16.1053 11.9591 16.172 12.0037 16.2454 12.034C16.3188 12.0644 16.3974 12.08 16.4769 12.08ZM9.52336 7.08391C9.07102 7.08391 8.7032 6.71602 8.7032 6.26375C8.7032 5.81148 9.07109 5.44359 9.52336 5.44359C9.97562 5.44359 10.3435 5.81148 10.3435 6.26375C10.3435 6.71602 9.97562 7.08391 9.52336 7.08391Z" fill="#65FF00"/>
<path d="M16.4784 29.5241C16.8127 29.5241 17.0831 29.2536 17.0831 28.9194C17.0831 28.5852 16.8127 28.3147 16.4784 28.3147C15.8283 28.3147 15.2992 27.7856 15.2992 27.1355C15.2992 26.8012 15.0288 26.5308 14.6945 26.5308C14.3603 26.5308 14.0898 26.8012 14.0898 27.1355C14.0899 28.4523 15.1616 29.5241 16.4784 29.5241ZM22.9891 23.1155C23.6392 23.1155 24.1683 23.6446 24.1683 24.2948C24.1683 24.629 24.4388 24.8995 24.773 24.8995C25.1072 24.8995 25.3777 24.629 25.3777 24.2948C25.3777 22.978 24.3059 21.9063 22.9891 21.9063C22.9097 21.9062 22.8311 21.9218 22.7577 21.9522C22.6843 21.9826 22.6176 22.0271 22.5615 22.0833C22.5053 22.1394 22.4608 22.2061 22.4304 22.2795C22.4 22.3529 22.3844 22.4315 22.3845 22.5109C22.3844 22.5903 22.4 22.669 22.4304 22.7424C22.4608 22.8157 22.5053 22.8824 22.5614 22.9386C22.6176 22.9947 22.6843 23.0392 22.7576 23.0696C22.831 23.1 22.9097 23.1156 22.9891 23.1155Z" fill="#65FF00"/>
</svg>
