<svg width="40" height="40" viewBox="0 0 40 40" fill="none" xmlns="http://www.w3.org/2000/svg">
<path d="M30.1638 10.3047C30.1717 10.3047 30.1795 10.3047 30.1865 10.3039L34.7787 10.0797C35.0998 10.0641 35.3709 9.86797 35.4865 9.56875C35.6021 9.26953 35.5326 8.94219 35.306 8.71484L34.7724 8.18125L38.5693 4.38438C38.7357 4.21797 38.8279 3.9961 38.8279 3.76016C38.8279 3.52422 38.7365 3.30235 38.5693 3.13594L36.8654 1.43204C36.699 1.26563 36.4771 1.17344 36.2412 1.17344C36.0052 1.17344 35.7834 1.26485 35.617 1.43204L31.8201 5.22891L31.2865 4.69532C31.0592 4.46797 30.7318 4.39922 30.4326 4.51407C30.1326 4.62969 29.9373 4.90079 29.9217 5.22188L29.6974 9.81406C29.6912 9.94609 29.7404 10.075 29.8342 10.1687C29.9218 10.2559 30.0403 10.3047 30.1638 10.3047ZM30.842 5.57579L31.4881 6.22188C31.6709 6.40469 31.9677 6.40469 32.1513 6.22188L36.2412 2.13204L37.8685 3.75938L33.7787 7.84922C33.691 7.93711 33.6417 8.05625 33.6417 8.18047C33.6417 8.30469 33.691 8.42383 33.7787 8.51172L34.4248 9.15781L30.6584 9.34219L30.842 5.57579ZM34.7724 31.8195L35.306 31.2859C35.5334 31.0586 35.6021 30.7312 35.4865 30.432C35.3709 30.132 35.0998 29.9367 34.7787 29.9211L30.1865 29.6969C30.1211 29.6937 30.0558 29.7041 29.9947 29.7277C29.9336 29.7512 29.8781 29.7873 29.8318 29.8336C29.7856 29.8799 29.7495 29.9354 29.7259 29.9965C29.7024 30.0576 29.6919 30.1229 29.6951 30.1883L29.9193 34.7805C29.9349 35.1016 30.131 35.3727 30.4302 35.4883C30.7302 35.6039 31.0568 35.5344 31.2842 35.3078L31.8177 34.7742L35.6146 38.5711C35.781 38.7375 36.0029 38.8297 36.2388 38.8297C36.4748 38.8297 36.6967 38.7383 36.8631 38.5711L38.567 36.8672C38.9115 36.5227 38.9115 35.9625 38.567 35.618L34.7724 31.8195ZM36.2412 37.8687L32.1513 33.7789C32.1079 33.7354 32.0563 33.7008 31.9994 33.6773C31.9426 33.6537 31.8817 33.6416 31.8201 33.6416C31.7586 33.6416 31.6977 33.6537 31.6408 33.6773C31.584 33.7008 31.5324 33.7354 31.4888 33.7789L30.8427 34.425L30.6584 30.6586L34.4248 30.843L33.7787 31.4891C33.691 31.577 33.6417 31.6961 33.6417 31.8203C33.6417 31.9445 33.691 32.0637 33.7787 32.1516L37.8685 36.2414L36.2412 37.8687ZM9.81228 29.6961L5.22012 29.9203C4.89902 29.9359 4.62793 30.132 4.5123 30.4312C4.39668 30.7312 4.46543 31.0586 4.69277 31.2852L5.22637 31.8187L1.42949 35.6156C1.26309 35.782 1.1709 36.0039 1.1709 36.2398C1.1709 36.4758 1.2623 36.6977 1.42949 36.8641L3.1334 38.568C3.2998 38.7344 3.52168 38.8266 3.75762 38.8266C3.99355 38.8266 4.21543 38.7352 4.38184 38.568L8.17869 34.7711L8.71228 35.3047C8.93962 35.532 9.26697 35.6016 9.56619 35.4852C9.86619 35.3695 10.0615 35.0984 10.0771 34.7773L10.3013 30.1852C10.3076 30.0531 10.2584 29.9242 10.1646 29.8305C10.1184 29.785 10.0631 29.7496 10.0025 29.7265C9.94189 29.7034 9.87712 29.693 9.81228 29.6961ZM9.15759 34.4242L8.5115 33.7781C8.32869 33.5953 8.03181 33.5953 7.84822 33.7781L3.7584 37.868L2.13105 36.2406L6.2209 32.1508C6.30868 32.0629 6.35798 31.9437 6.35798 31.8195C6.35798 31.6953 6.30868 31.5762 6.2209 31.4883L5.5748 30.8422L9.34119 30.6578L9.15759 34.4242ZM5.22715 8.18047L4.69355 8.71406C4.46621 8.9414 4.39746 9.26875 4.51309 9.56797C4.62871 9.86797 4.8998 10.0633 5.2209 10.0789L9.81306 10.3031C9.82088 10.3031 9.82869 10.3039 9.83572 10.3039C9.95994 10.3039 10.0787 10.2547 10.167 10.1664C10.2133 10.1202 10.2494 10.0646 10.2729 10.0035C10.2965 9.94242 10.307 9.87711 10.3037 9.81172L10.0795 5.21954C10.0638 4.89844 9.86775 4.62735 9.56853 4.51172C9.26931 4.3961 8.94197 4.46563 8.71462 4.69219L8.18103 5.22579L4.38418 1.42891C4.30189 1.34704 4.20426 1.28218 4.09688 1.23808C3.9895 1.19398 3.87448 1.17148 3.7584 1.17188C3.52246 1.17188 3.30059 1.26329 3.13418 1.43047L1.43027 3.13438C1.08574 3.47891 1.08574 4.03907 1.43027 4.3836L5.22715 8.18047ZM3.7584 2.13126L7.84822 6.2211C8.03103 6.40391 8.32791 6.40391 8.5115 6.2211L9.15759 5.57501L9.34197 9.3414L5.57559 9.15703L6.22168 8.51094C6.30946 8.42304 6.35877 8.3039 6.35877 8.17968C6.35877 8.05547 6.30946 7.93633 6.22168 7.84844L2.13105 3.7586L3.7584 2.13126ZM19.9998 8.64922C13.7412 8.64922 8.649 13.7414 8.649 20C8.649 26.2586 13.7412 31.3508 19.9998 31.3508C26.2584 31.3508 31.3506 26.2586 31.3506 20C31.3506 13.7414 26.2584 8.64922 19.9998 8.64922ZM27.8154 22.9516L26.592 21.3594V19.557C26.592 19.4352 26.5443 19.3187 26.4599 19.2312L25.7342 18.4812C25.506 18.2453 25.1717 18.168 24.8631 18.2797L23.717 18.693H23.7162L22.2709 18.2594L21.892 16.8094L22.506 15.8234H24.3381L24.3388 15.8242L25.4826 16.8578C25.5537 16.9219 25.6427 16.9625 25.7373 16.975L27.6693 17.2227C27.8912 17.2516 28.099 17.2055 28.2888 17.0867L29.6967 16.2055C30.1584 17.382 30.4123 18.6617 30.4123 20C30.4123 22.0984 29.7873 24.0539 28.7154 25.6914L28.0099 25.0406V23.5258C28.0107 23.3125 27.9451 23.1195 27.8154 22.9516ZM27.7974 13.1062L27.4771 13.3945L25.8201 12.4531C25.7084 12.3898 25.5748 12.375 25.4513 12.4125L23.7592 12.9281L23.0482 12.3172L23.5334 11.5703H26.1068C26.7243 12.0196 27.2912 12.5346 27.7974 13.1062ZM17.1951 9.97109L17.5638 10.6922C17.7045 10.9672 17.9607 11.15 18.2662 11.1945L19.6396 11.3937L20.0349 11.5672C20.0349 11.568 20.0357 11.5695 20.0357 11.5711L20.0349 11.5719L19.6912 12.1289L17.956 12.5062C17.8462 12.5302 17.7485 12.5929 17.681 12.6828L16.3287 14.482L14.4678 15.4586L12.7529 15.7633C12.3263 15.8391 12.0154 16.2031 11.9982 16.6484L11.9592 17.6148C11.9561 17.6902 11.9712 17.7652 12.0033 17.8335C12.0354 17.9018 12.0835 17.9613 12.1435 18.007L13.3404 18.9172C13.3756 18.9445 13.3888 18.9711 13.3888 19.0156L13.381 19.7625L11.2115 18.6937L9.98728 17.1352C10.9803 13.6719 13.724 10.943 17.1951 9.97109ZM19.9998 30.4133C14.2576 30.4133 9.5865 25.7422 9.5865 20C9.5865 19.4266 9.63416 18.8641 9.72322 18.3156L10.5404 19.3562C10.5834 19.4117 10.6388 19.4562 10.7021 19.4875L13.6357 20.932C13.7013 20.9641 13.7724 20.9805 13.8428 20.9805C13.9294 20.9804 14.0143 20.9563 14.0881 20.9109C14.1556 20.8695 14.2117 20.8115 14.2507 20.7425C14.2898 20.6735 14.3107 20.5957 14.3115 20.5164L14.3271 19.025C14.331 18.682 14.1826 18.3781 13.9092 18.1711L12.9068 17.4086L12.9357 16.6859V16.6836L14.7045 16.3695C14.7521 16.3609 14.7974 16.3453 14.8404 16.3234L16.8592 15.2641C16.9209 15.232 16.974 15.1859 17.0162 15.1305L18.3271 13.3859L20.0865 13.0039C20.1481 12.9905 20.2063 12.9648 20.2577 12.9284C20.309 12.892 20.3526 12.8457 20.3857 12.7922L20.8342 12.0664C20.9795 11.8312 21.0146 11.5555 20.9318 11.2914C20.8498 11.0273 20.6646 10.8203 20.4115 10.7094L19.9599 10.5109C19.9217 10.4937 19.881 10.482 19.8388 10.4766L18.3998 10.2672C18.3998 10.2672 18.3998 10.2664 18.399 10.2656L18.1373 9.75469C18.742 9.64531 19.3646 9.5875 19.9998 9.5875C21.6287 9.5875 23.1709 9.96406 24.5459 10.6336H23.5326C23.2068 10.6336 22.9185 10.7906 22.742 11.0641L22.2599 11.8094C22.0052 12.2039 22.0826 12.7312 22.4396 13.0367L23.1506 13.643C23.3998 13.8562 23.7232 13.9227 24.0365 13.8273L25.5326 13.3703L27.0146 14.2117C27.1868 14.3101 27.3857 14.3513 27.5827 14.3295C27.7799 14.3078 27.9649 14.2241 28.1115 14.0906L28.3888 13.8391C28.7365 14.3117 29.0459 14.8141 29.3115 15.3422L27.7904 16.2937H27.7896L26.0029 16.0648L24.9678 15.1297C24.792 14.9703 24.574 14.8867 24.3365 14.8867H22.506C22.1732 14.8867 21.8818 15.0492 21.706 15.3312L20.9904 16.4844C20.957 16.5384 20.9347 16.5987 20.9252 16.6615C20.9156 16.7244 20.919 16.7885 20.9349 16.85L21.3646 18.4953C21.4482 18.8164 21.6881 19.0648 22.006 19.1594L23.449 19.5898C23.6459 19.6492 23.8443 19.643 24.0381 19.5734L25.1131 19.1852L25.6552 19.7453V21.5172C25.6552 21.6203 25.6896 21.7211 25.7521 21.8023L27.0732 23.5227V25.0375C27.0732 25.3031 27.181 25.5492 27.3763 25.7297L28.1638 26.4555C26.2545 28.8656 23.3045 30.4133 19.9998 30.4133ZM21.4021 22.857H20.8857L20.4037 22.0875C20.3364 21.9791 20.2425 21.8898 20.1309 21.828C20.0193 21.7662 19.8938 21.734 19.7662 21.7344H18.542L17.7092 20.9039C17.4701 20.6656 17.1107 20.6148 16.8146 20.7773L15.2599 21.6328C15.0162 21.7672 14.8701 22.0133 14.8701 22.2922V23.6797C14.8701 23.9172 14.9787 24.1352 15.167 24.2789L16.4388 25.2453V26.4875C16.4388 26.5383 16.4467 26.5883 16.4631 26.6359L17.1123 28.5781C17.206 28.8586 17.4115 29.0672 17.6896 29.1664L18.1217 29.3203C18.2162 29.3539 18.3123 29.3703 18.4084 29.3703C18.5779 29.3703 18.7451 29.318 18.8912 29.2164C19.1185 29.0578 19.2506 28.807 19.2529 28.5305L19.2638 27.3961L20.2576 26.9312C20.592 26.775 20.7998 26.4477 20.7998 26.0781V25.5586L21.3756 25.3531C21.6506 25.2555 21.8529 25.0266 21.917 24.7422L22.1357 23.775C22.1873 23.5477 22.1357 23.3219 21.9896 23.1391C21.8435 22.9578 21.6349 22.857 21.4021 22.857ZM21.0138 24.4875L20.4248 24.6977C20.0834 24.8195 19.8623 25.1328 19.8623 25.4953L19.8599 26.082L18.599 26.6719C18.5189 26.7094 18.451 26.7687 18.4032 26.843C18.3554 26.9174 18.3295 27.0037 18.3287 27.0922L18.3162 28.3945L18.0013 28.282V28.2805L17.3763 26.4109V25.1531C17.3763 24.9156 17.2677 24.6977 17.0795 24.5539L15.8076 23.5875V22.4008L17.1451 21.6648L17.906 22.4234C18.0685 22.5852 18.2748 22.6711 18.5045 22.6711H19.6638L20.1459 23.4414C20.2132 23.5498 20.3071 23.6391 20.4187 23.7009C20.5303 23.7627 20.6559 23.7949 20.7834 23.7945H21.1709L21.0138 24.4875Z" fill="#69FF00"/>
</svg>
