<svg width="40" height="40" viewBox="0 0 40 40" fill="none" xmlns="http://www.w3.org/2000/svg">
<path d="M15.1937 24.4266C16.2383 25.3406 16.768 26.5078 16.768 27.9008V30.1C16.768 31.5711 17.9648 32.768 19.4359 32.768H20.0547C21.5258 32.768 22.7227 31.5711 22.7227 30.1V29.1641C22.7227 29.057 22.6859 28.9531 22.6187 28.8703L21.7188 27.7523L21.8195 26.5203C22.3436 26.3742 22.8481 26.1652 23.3219 25.8977L24.4078 26.8187C24.5938 26.9766 24.8703 26.9656 25.0422 26.793L26.7914 25.0437C26.8746 24.9606 26.9234 24.8491 26.9282 24.7316C26.933 24.6141 26.8934 24.499 26.8172 24.4094L25.8961 23.3234C26.1636 22.8497 26.3727 22.3452 26.5188 21.8211L27.9375 21.7047C28.0548 21.695 28.1642 21.6416 28.2439 21.5551C28.3236 21.4686 28.3679 21.3552 28.368 21.2375V18.7641C28.368 18.5203 28.1805 18.3172 27.9375 18.2969L26.5188 18.1805C26.3727 17.6564 26.1636 17.1519 25.8961 16.6781L26.8172 15.5922C26.975 15.4063 26.9641 15.1297 26.7914 14.9578L25.0422 13.2086C24.959 13.1254 24.8476 13.0766 24.73 13.0718C24.6125 13.067 24.4975 13.1066 24.4078 13.1828L23.3219 14.1039C22.8482 13.8363 22.3437 13.6272 21.8195 13.4812L21.7031 12.0625C21.6935 11.9452 21.6401 11.8358 21.5535 11.7561C21.467 11.6764 21.3536 11.6321 21.2359 11.632H20C15.975 11.632 12.7 14.907 12.7 18.932C12.7 21.0359 13.6086 23.0391 15.1937 24.4266ZM20.0555 31.8305H19.4367C18.6453 31.8305 17.9758 31.2961 17.7711 30.5687H21.7211C21.5156 31.2953 20.8469 31.8305 20.0555 31.8305ZM20.9133 13.8914C20.9214 13.991 20.9612 14.0854 21.0268 14.1608C21.0925 14.2362 21.1805 14.2885 21.2781 14.3102C21.9311 14.4562 22.5538 14.7142 23.1188 15.0727C23.2031 15.1263 23.3023 15.1515 23.402 15.1446C23.5017 15.1377 23.5965 15.0991 23.6727 15.0344L24.6852 14.1758L25.8234 15.3141L24.9648 16.3266C24.9001 16.4028 24.8615 16.4978 24.8546 16.5976C24.8477 16.6974 24.8729 16.7968 24.9266 16.8813C25.2856 17.4459 25.5436 18.0687 25.6891 18.7219C25.711 18.8193 25.7634 18.9072 25.8387 18.9729C25.914 19.0385 26.0083 19.0784 26.1078 19.0867L27.4305 19.1953V20.8055L26.1078 20.9141C26.0082 20.9222 25.9138 20.9619 25.8384 21.0276C25.7631 21.0933 25.7107 21.1813 25.6891 21.2789C25.543 21.9319 25.285 22.5546 24.9266 23.1195C24.8729 23.2038 24.8477 23.3031 24.8546 23.4028C24.8615 23.5025 24.9001 23.5973 24.9648 23.6734L25.8234 24.6859L24.6852 25.8242L23.6727 24.9656C23.5964 24.9009 23.5014 24.8623 23.4016 24.8554C23.3018 24.8485 23.2024 24.8737 23.118 24.9273C22.5532 25.2861 21.9304 25.5441 21.2773 25.6898C21.1798 25.7116 21.0918 25.764 21.0262 25.8393C20.9605 25.9147 20.9207 26.009 20.9125 26.1086L20.8039 27.4312H20.4688V23.7414C22.3281 23.5094 23.7719 21.9211 23.7719 20C23.7719 18.0789 22.3281 16.4898 20.4688 16.2586V12.5688H20.8047L20.9133 13.8914ZM20.4688 22.7953V17.2055C21.8094 17.4297 22.8344 18.5969 22.8344 20.0008C22.8344 21.4047 21.8094 22.5711 20.4688 22.7953ZM21.0125 28.3687L21.7859 29.3289V29.6305H17.7062V28.3687H20H21.0125ZM19.5312 12.5852V27.4312H17.6883C17.5758 25.9773 16.9328 24.7023 15.8117 23.7203C15.1289 23.123 14.5817 22.3866 14.2067 21.5605C13.8317 20.7344 13.6376 19.8377 13.6375 18.9305C13.6375 15.5805 16.2406 12.8266 19.5312 12.5852ZM20 10.6773C19.7414 10.6773 19.5312 10.4672 19.5312 10.2086V9.325C19.5312 9.06641 19.7414 8.85625 20 8.85625C20.2586 8.85625 20.4688 9.06641 20.4688 9.325V10.2086C20.4688 10.4672 20.2586 10.6773 20 10.6773ZM24.6609 11.9266C24.5533 11.8643 24.4748 11.7619 24.4426 11.6418C24.4104 11.5217 24.4271 11.3937 24.4891 11.2859L24.9312 10.5203C24.9935 10.4127 25.0959 10.3341 25.216 10.3019C25.3361 10.2697 25.4641 10.2864 25.5719 10.3484C25.6795 10.4107 25.758 10.5131 25.7902 10.6332C25.8224 10.7533 25.8057 10.8813 25.7437 10.9891L25.3016 11.7547C25.2393 11.8624 25.1369 11.941 25.0168 11.9732C24.8967 12.0054 24.7687 11.9886 24.6609 11.9266ZM29.6508 14.4281C29.7805 14.6523 29.7031 14.9391 29.4789 15.0688L28.7133 15.5109C28.6391 15.5539 28.5586 15.5734 28.4797 15.5734C28.318 15.5734 28.1602 15.4891 28.0734 15.3391C27.9437 15.1148 28.0211 14.8281 28.2453 14.6984L29.0109 14.2562C29.0642 14.2255 29.1231 14.2055 29.1841 14.1974C29.2451 14.1894 29.3071 14.1935 29.3665 14.2095C29.4259 14.2254 29.4816 14.253 29.5304 14.2905C29.5792 14.328 29.6201 14.3748 29.6508 14.4281ZM29.7914 20.4688C29.5328 20.4688 29.3227 20.2586 29.3227 20C29.3227 19.7414 29.5328 19.5312 29.7914 19.5312H30.675C30.9336 19.5312 31.1438 19.7414 31.1438 20C31.1438 20.2586 30.9336 20.4688 30.675 20.4688H29.7914ZM29.4797 24.9312C29.5873 24.9935 29.6658 25.096 29.698 25.216C29.7303 25.3361 29.7135 25.4641 29.6516 25.5719C29.5648 25.7219 29.407 25.8063 29.2453 25.8063C29.1656 25.8063 29.0852 25.7859 29.0117 25.7437L28.2461 25.3016C28.1385 25.2393 28.06 25.1369 28.0277 25.0168C27.9955 24.8967 28.0122 24.7687 28.0742 24.6609C28.1365 24.5533 28.2389 24.4748 28.359 24.4426C28.4791 24.4104 28.6071 24.4271 28.7148 24.4891L29.4797 24.9312ZM25.3016 28.2453L25.7437 29.0109C25.8734 29.2352 25.7961 29.5219 25.5719 29.6516C25.4977 29.6938 25.4172 29.7141 25.3383 29.7141C25.1766 29.7141 25.0188 29.6297 24.932 29.4797L24.4898 28.7141C24.3602 28.4898 24.4375 28.2031 24.6617 28.0734C24.7694 28.0115 24.8972 27.9947 25.0172 28.027C25.1372 28.0592 25.2395 28.1377 25.3016 28.2453ZM15.3383 28.0734C15.4459 28.1357 15.5244 28.2381 15.5566 28.3582C15.5888 28.4783 15.5721 28.6063 15.5102 28.7141L15.068 29.4797C14.9812 29.6297 14.8234 29.7141 14.6617 29.7141C14.582 29.7141 14.5016 29.6938 14.4281 29.6516C14.3205 29.5893 14.242 29.4869 14.2098 29.3668C14.1776 29.2467 14.1943 29.1187 14.2562 29.0109L14.6984 28.2453C14.7605 28.1377 14.8628 28.0592 14.9828 28.027C15.1028 27.9947 15.2306 28.0115 15.3383 28.0734ZM11.9266 24.6609C12.0563 24.8852 11.9789 25.1719 11.7547 25.3016L10.9891 25.7437C10.9156 25.7859 10.8344 25.8063 10.7555 25.8063C10.5937 25.8063 10.4359 25.7219 10.3492 25.5719C10.2195 25.3477 10.2969 25.0609 10.5211 24.9312L11.2867 24.4891C11.5102 24.3602 11.7969 24.4367 11.9266 24.6609ZM10.2086 19.5312C10.4672 19.5312 10.6773 19.7414 10.6773 20C10.6773 20.2586 10.4672 20.4688 10.2086 20.4688H9.325C9.06641 20.4688 8.85625 20.2586 8.85625 20C8.85625 19.7414 9.06641 19.5312 9.325 19.5312H10.2086ZM11.9266 15.3383C11.8398 15.4883 11.682 15.5727 11.5203 15.5727C11.4406 15.5727 11.3602 15.5523 11.2867 15.5102L10.5211 15.068C10.4135 15.0057 10.335 14.9033 10.3027 14.7832C10.2705 14.6631 10.2872 14.5351 10.3492 14.4273C10.4115 14.3197 10.5139 14.2412 10.634 14.209C10.7541 14.1768 10.8821 14.1935 10.9898 14.2555L11.7555 14.6977C11.9789 14.8281 12.0555 15.1148 11.9266 15.3383ZM14.6984 11.7547L14.2562 10.9891C14.1266 10.7648 14.2039 10.4781 14.4281 10.3484C14.6523 10.2188 14.9391 10.2961 15.0688 10.5203L15.5109 11.2859C15.6406 11.5102 15.5633 11.7969 15.3391 11.9266C15.2648 11.9695 15.1844 11.9891 15.1055 11.9891C15.023 11.9893 14.9419 11.9678 14.8704 11.9266C14.7989 11.8855 14.7396 11.8262 14.6984 11.7547ZM20 1.17188C9.61797 1.17188 1.17188 9.61797 1.17188 20C1.17188 30.382 9.61797 38.8281 20 38.8281C30.382 38.8281 38.8281 30.382 38.8281 20C38.8281 9.61797 30.382 1.17188 20 1.17188ZM20 37.8906C10.1352 37.8906 2.10938 29.8648 2.10938 20C2.10938 10.1352 10.1352 2.10938 20 2.10938C29.8648 2.10938 37.8906 10.1352 37.8906 20C37.8906 29.8648 29.8648 37.8906 20 37.8906ZM33.7258 25.0031C33.6927 25.0934 33.6327 25.1713 33.5539 25.2263C33.4751 25.2814 33.3813 25.3109 33.2852 25.3109C33.2097 25.3108 33.1354 25.2925 33.0685 25.2575C33.0017 25.2226 32.9442 25.1721 32.901 25.1102C32.8577 25.0484 32.83 24.9771 32.8202 24.9023C32.8104 24.8274 32.8187 24.7514 32.8445 24.6805C33.8117 22.0344 33.9359 19.1922 33.2039 16.4609C32.2586 12.9336 29.9969 9.98594 26.8344 8.16016C23.6719 6.33437 19.9883 5.84922 16.4609 6.79453C14.0969 7.42813 11.9766 8.6625 10.2758 10.3867L11.5406 10.3203C11.7984 10.3086 12.0195 10.5055 12.0336 10.7641C12.04 10.8881 11.997 11.0096 11.9139 11.102C11.8309 11.1944 11.7147 11.2502 11.5906 11.257L9.1875 11.3836C9.17891 11.3844 9.17109 11.3844 9.1625 11.3844C9.04253 11.3843 8.92713 11.3383 8.84008 11.2558C8.75302 11.1732 8.70093 11.0604 8.69453 10.9406L8.56797 8.5375C8.56158 8.41345 8.60461 8.29192 8.68763 8.19952C8.77066 8.10713 8.88691 8.05139 9.01094 8.04453C9.13514 8.03804 9.25685 8.08114 9.34929 8.16435C9.44173 8.24756 9.49734 8.36408 9.50391 8.48828L9.57109 9.76719C11.3945 7.90469 13.6742 6.57109 16.218 5.88984C23.9984 3.80469 32.0242 8.43906 34.1094 16.2195C34.8922 19.1375 34.7594 22.175 33.7258 25.0031ZM31.4313 31.4625C31.4376 31.5866 31.3946 31.7081 31.3116 31.8005C31.2286 31.8929 31.1123 31.9486 30.9883 31.9555C30.9797 31.9562 30.9719 31.9563 30.9633 31.9563C30.8433 31.9562 30.7279 31.9102 30.6409 31.8276C30.5538 31.7451 30.5017 31.6323 30.4953 31.5125L30.4281 30.2336C28.6047 32.0961 26.3234 33.4297 23.7812 34.1109C22.5494 34.442 21.2794 34.6099 20.0039 34.6102C13.5547 34.6102 7.6375 30.3008 5.89063 23.7812C5.10859 20.8625 5.24141 17.825 6.275 14.9969C6.31785 14.8801 6.40523 14.7851 6.51799 14.7327C6.63075 14.6803 6.75969 14.6747 6.87656 14.7172C6.9932 14.7599 7.08814 14.8472 7.14057 14.9598C7.193 15.0724 7.19864 15.2012 7.15625 15.318C6.18906 17.9641 6.06484 20.8062 6.79688 23.5375C8.42969 29.6383 13.968 33.6719 20.0031 33.6719C21.1711 33.6719 22.357 33.5211 23.5383 33.2047C25.9 32.5719 28.0203 31.3359 29.7203 29.6125L28.4578 29.6789C28.2 29.693 27.9789 29.4938 27.9648 29.2359C27.9585 29.1119 28.0015 28.9904 28.0845 28.898C28.1675 28.8056 28.2838 28.7498 28.4078 28.743L30.8109 28.6164C30.935 28.6099 31.0566 28.6528 31.1491 28.7359C31.2415 28.819 31.2972 28.9353 31.3039 29.0594L31.4313 31.4625Z" fill="#65FF00"/>
</svg>
