<svg width="40" height="40" viewBox="0 0 40 40" fill="none" xmlns="http://www.w3.org/2000/svg">
<path d="M20 15C23.7938 15 26.875 11.9188 26.875 8.125C26.875 4.33125 23.7938 1.25 20 1.25C16.2062 1.25 13.125 4.33125 13.125 8.125C13.125 11.9188 16.2062 15 20 15ZM20 2.5C23.1 2.5 25.625 5.025 25.625 8.125C25.625 11.225 23.1 13.75 20 13.75C16.9 13.75 14.375 11.225 14.375 8.125C14.375 5.025 16.9 2.5 20 2.5Z" fill="#65FF00"/>
<path d="M18.6203 10.7563C18.7391 10.875 18.8953 10.9375 19.0641 10.9375H19.0891C19.2641 10.9313 19.4266 10.85 19.5391 10.7188L23.2891 6.34378C23.3968 6.2178 23.4501 6.05419 23.4372 5.88892C23.4243 5.72365 23.3463 5.57028 23.2203 5.46253C23.0943 5.35479 22.9307 5.3015 22.7655 5.31439C22.6002 5.32729 22.4468 5.40531 22.3391 5.53128L19.0266 9.39378L17.6266 7.99378C17.5687 7.93592 17.5 7.89002 17.4244 7.8587C17.3488 7.82739 17.2678 7.81127 17.1859 7.81127C17.1041 7.81127 17.0231 7.82739 16.9475 7.8587C16.8719 7.89002 16.8032 7.93592 16.7453 7.99378C16.6874 8.05165 16.6415 8.12034 16.6102 8.19594C16.5789 8.27155 16.5628 8.35258 16.5628 8.43441C16.5628 8.51624 16.5789 8.59727 16.6102 8.67287C16.6415 8.74847 16.6874 8.81717 16.7453 8.87503L18.6203 10.75V10.7563ZM38.2078 24.3063C37.8578 23.9438 37.3828 23.75 36.8766 23.75H33.3766L37.5703 19.525C39.1391 17.925 39.1391 15.3125 37.5703 13.7125C36.8078 12.9313 35.7891 12.5 34.7078 12.5C33.6266 12.5 32.6328 12.9188 31.8766 13.6813C31.1141 12.9188 30.1141 12.5 29.0453 12.5C27.9766 12.5 26.9453 12.9313 26.1828 13.7125C24.6141 15.3125 24.6141 17.925 26.1828 19.525L30.3766 23.75H22.4891C21.9203 22.9938 21.0203 22.5 20.0078 22.5C18.9953 22.5 18.0953 22.9938 17.5266 23.75H16.2578V16.875C16.2578 15.8438 15.4141 15 14.3828 15H12.5078V13.75C12.5078 13.0625 11.9453 12.5 11.2578 12.5H7.50781C6.82031 12.5 6.25781 13.0625 6.25781 13.75V15H4.38281C3.35156 15 2.50781 15.8438 2.50781 16.875V23.8625C1.78281 24.1188 1.25781 24.8063 1.25781 25.625C1.25781 26.6563 2.10156 27.5 3.13281 27.5H17.5203L15.1766 35H14.3828C13.3516 35 12.5078 35.8438 12.5078 36.875C12.5078 37.9063 13.3516 38.75 14.3828 38.75H25.6328C26.6641 38.75 27.5078 37.9063 27.5078 36.875C27.5078 35.8438 26.6641 35 25.6328 35H24.8391L22.4953 27.5H36.8828C37.9141 27.5 38.7578 26.6563 38.7578 25.625C38.7578 25.1188 38.5578 24.6438 38.2141 24.3063H38.2078ZM27.0766 14.5813C27.6016 14.0438 28.3016 13.7438 29.0453 13.7438C29.7891 13.7438 30.4891 14.0375 31.0141 14.5813C31.1391 14.7063 31.2516 14.85 31.3578 15.0063C31.5891 15.3563 32.1703 15.3563 32.4016 15.0063C32.5078 14.85 32.6203 14.7063 32.7453 14.5813C33.2703 14.0438 33.9703 13.7438 34.7141 13.7438C35.4578 13.7438 36.1578 14.0375 36.6828 14.5813C37.7766 15.7 37.7766 17.525 36.6828 18.6438L31.8766 23.4875L27.0766 18.65C25.9828 17.5313 25.9828 15.7063 27.0766 14.5875V14.5813ZM20.0016 23.7438C21.0328 23.7438 21.8766 24.5875 21.8766 25.6188C21.8766 26.65 21.0328 27.4938 20.0016 27.4938C18.9703 27.4938 18.1266 26.65 18.1266 25.6188C18.1266 24.5875 18.9703 23.7438 20.0016 23.7438ZM3.75156 19.0438L9.14531 21.2C9.22031 21.2313 9.30156 21.2438 9.37656 21.2438C9.45156 21.2438 9.53281 21.2313 9.60781 21.2L15.0016 19.0438V23.7438H3.75156V19.0438ZM7.50156 13.7438H11.2516V14.9938H7.50156V13.7438ZM3.75156 16.8688C3.75156 16.525 4.03281 16.2438 4.37656 16.2438H14.3766C14.7203 16.2438 15.0016 16.525 15.0016 16.8688V17.6938L9.37656 19.9438L3.75156 17.6938V16.8688ZM2.50156 25.6188C2.50156 25.275 2.78281 24.9938 3.12656 24.9938H16.9391C16.8953 25.1938 16.8766 25.4063 16.8766 25.6188C16.8766 25.8313 16.9016 26.0438 16.9391 26.2438H3.12656C2.78281 26.2438 2.50156 25.9625 2.50156 25.6188ZM26.2516 36.8688C26.2516 37.2125 25.9703 37.4938 25.6266 37.4938H14.3766C14.0328 37.4938 13.7516 37.2125 13.7516 36.8688C13.7516 36.525 14.0328 36.2438 14.3766 36.2438H25.6266C25.9703 36.2438 26.2516 36.525 26.2516 36.8688ZM16.4766 34.9938L18.5453 28.3688C18.9828 28.6 19.4703 28.7438 20.0016 28.7438C20.5328 28.7438 21.0203 28.6 21.4578 28.3688L23.5266 34.9938H16.4766ZM36.8766 26.2438H23.0641C23.1078 26.0438 23.1266 25.8313 23.1266 25.6188C23.1266 25.4063 23.1016 25.1938 23.0641 24.9938H36.8766C37.0453 24.9938 37.1953 25.0563 37.3203 25.1875C37.4328 25.3 37.5016 25.4563 37.5016 25.6188C37.5016 25.9625 37.2203 26.2438 36.8766 26.2438Z" fill="#65FF00"/>
</svg>
