<svg width="41" height="41" viewBox="0 0 41 41" fill="none" xmlns="http://www.w3.org/2000/svg">
<path d="M22.375 5.5H18.625C18.4592 5.5 18.3003 5.43415 18.1831 5.31694C18.0658 5.19973 18 5.04076 18 4.875C18 4.70924 18.0658 4.55027 18.1831 4.43306C18.3003 4.31585 18.4592 4.25 18.625 4.25H22.375C22.5408 4.25 22.6997 4.31585 22.8169 4.43306C22.9342 4.55027 23 4.70924 23 4.875C23 5.04076 22.9342 5.19973 22.8169 5.31694C22.6997 5.43415 22.5408 5.5 22.375 5.5ZM27.375 39.25H13.625C12.7965 39.249 12.0022 38.9194 11.4164 38.3336C10.8306 37.7478 10.501 36.9535 10.5 36.125V14.875C10.5 14.7092 10.5658 14.5503 10.6831 14.4331C10.8003 14.3158 10.9592 14.25 11.125 14.25C11.2908 14.25 11.4497 14.3158 11.5669 14.4331C11.6842 14.5503 11.75 14.7092 11.75 14.875V36.125C11.75 37.1587 12.5912 38 13.625 38H27.375C28.4088 38 29.25 37.1587 29.25 36.125V14.875C29.25 14.7092 29.3158 14.5503 29.4331 14.4331C29.5503 14.3158 29.7092 14.25 29.875 14.25C30.0408 14.25 30.1997 14.3158 30.3169 14.4331C30.4342 14.5503 30.5 14.7092 30.5 14.875V36.125C30.5 37.8475 29.0987 39.25 27.375 39.25Z" fill="#65FF00"/>
<path d="M29.875 19.25C29.7092 19.25 29.5503 19.1842 29.4331 19.0669C29.3158 18.9497 29.25 18.7908 29.25 18.625V4.875C29.25 3.84125 28.4088 3 27.375 3H13.625C12.5912 3 11.75 3.84125 11.75 4.875V18.625C11.75 18.7908 11.6842 18.9497 11.5669 19.0669C11.4497 19.1842 11.2908 19.25 11.125 19.25C10.9592 19.25 10.8003 19.1842 10.6831 19.0669C10.5658 18.9497 10.5 18.7908 10.5 18.625V4.875C10.5 3.1525 11.9012 1.75 13.625 1.75H27.375C29.0987 1.75 30.5 3.1525 30.5 4.875V18.625C30.5 18.7908 30.4342 18.9497 30.3169 19.0669C30.1997 19.1842 30.0408 19.25 29.875 19.25ZM33.625 8.0625C33.28 8.0625 33 7.845 33 7.5V7.375C33 7.20924 33.0658 7.05027 33.1831 6.93306C33.3003 6.81585 33.4592 6.75 33.625 6.75C33.7908 6.75 33.9497 6.81585 34.0669 6.93306C34.1842 7.05027 34.25 7.20924 34.25 7.375C34.25 7.72 33.97 8.0625 33.625 8.0625ZM33.625 10.5625C33.28 10.5625 33 10.345 33 10V9.875C33 9.70924 33.0658 9.55027 33.1831 9.43306C33.3003 9.31585 33.4592 9.25 33.625 9.25C33.7908 9.25 33.9497 9.31585 34.0669 9.43306C34.1842 9.55027 34.25 9.70924 34.25 9.875C34.25 10.22 33.97 10.5625 33.625 10.5625ZM33.625 13.0625C33.28 13.0625 33 12.845 33 12.5V12.375C33 12.2092 33.0658 12.0503 33.1831 11.9331C33.3003 11.8158 33.4592 11.75 33.625 11.75C33.7908 11.75 33.9497 11.8158 34.0669 11.9331C34.1842 12.0503 34.25 12.2092 34.25 12.375C34.25 12.72 33.97 13.0625 33.625 13.0625ZM7.375 29.1875C7.03 29.1875 6.75 28.97 6.75 28.625V28.5C6.75 28.3342 6.81585 28.1753 6.93306 28.0581C7.05027 27.9408 7.20924 27.875 7.375 27.875C7.54076 27.875 7.69973 27.9408 7.81694 28.0581C7.93415 28.1753 8 28.3342 8 28.5C8 28.845 7.72 29.1875 7.375 29.1875ZM7.375 31.6875C7.03 31.6875 6.75 31.47 6.75 31.125V31C6.75 30.8342 6.81585 30.6753 6.93306 30.5581C7.05027 30.4408 7.20924 30.375 7.375 30.375C7.54076 30.375 7.69973 30.4408 7.81694 30.5581C7.93415 30.6753 8 30.8342 8 31C8 31.345 7.72 31.6875 7.375 31.6875ZM7.375 34.1875C7.03 34.1875 6.75 33.97 6.75 33.625V33.5C6.75 33.3342 6.81585 33.1753 6.93306 33.0581C7.05027 32.9408 7.20924 32.875 7.375 32.875C7.54076 32.875 7.69973 32.9408 7.81694 33.0581C7.93415 33.1753 8 33.3342 8 33.5C8 33.845 7.72 34.1875 7.375 34.1875Z" fill="#65FF00"/>
<path d="M31.5512 34.25C31.458 34.25 31.366 34.2292 31.2818 34.189C31.1977 34.1489 31.1236 34.0904 31.065 34.0179C31.0064 33.9454 30.9647 33.8607 30.9431 33.77C30.9215 33.6793 30.9204 33.5849 30.94 33.4938L31.3525 31.5812C31.3771 31.4664 31.4337 31.3608 31.5158 31.2768C31.5978 31.1927 31.702 31.1336 31.8162 31.1063C32.4194 30.9584 32.9959 30.7176 33.525 30.3925C33.6248 30.3316 33.7396 30.2999 33.8565 30.301C33.9734 30.3021 34.0876 30.336 34.1862 30.3988L35.4237 31.19L36.19 30.4175L35.3988 29.19C35.3352 29.0913 35.3007 28.9767 35.2992 28.8594C35.2976 28.742 35.3291 28.6266 35.39 28.5262C35.7152 27.9973 35.9556 27.4208 36.1025 26.8175C36.13 26.7036 36.1888 26.5997 36.2723 26.5175C36.3558 26.4353 36.4607 26.3782 36.575 26.3525L38 26.0363V24.965L36.5763 24.6488C36.4619 24.6231 36.3571 24.5659 36.2736 24.4837C36.1901 24.4016 36.1312 24.2976 36.1037 24.1838C35.9563 23.5807 35.7159 23.0042 35.3913 22.475C35.3299 22.3751 35.298 22.2599 35.2993 22.1427C35.3006 22.0254 35.3351 21.911 35.3988 21.8125L36.1912 20.5738L35.4262 19.8087L34.1875 20.6012C34.089 20.6643 33.9747 20.6983 33.8578 20.6994C33.7408 20.7005 33.6259 20.6687 33.5262 20.6075C32.9969 20.2829 32.4205 20.0421 31.8175 19.8938C31.7033 19.8664 31.5991 19.8073 31.517 19.7232C31.435 19.6392 31.3784 19.5336 31.3538 19.4188L31.0463 18H30.5C30.3342 18 30.1753 17.9342 30.0581 17.8169C29.9408 17.6997 29.875 17.5408 29.875 17.375C29.875 17.2092 29.9408 17.0503 30.0581 16.9331C30.1753 16.8158 30.3342 16.75 30.5 16.75H31.55C31.6928 16.7502 31.8312 16.7994 31.9422 16.8892C32.0531 16.979 32.13 17.1042 32.16 17.2438L32.4937 18.785C32.9512 18.9238 33.4 19.1113 33.8325 19.345L35.175 18.4862C35.2951 18.4095 35.4377 18.3761 35.5793 18.3916C35.721 18.4071 35.8531 18.4704 35.9538 18.5712L37.43 20.0463C37.5306 20.1471 37.5938 20.2793 37.609 20.4209C37.6242 20.5625 37.5906 20.7051 37.5138 20.825L36.655 22.1675C36.8887 22.6012 37.0762 23.05 37.215 23.5087L38.7588 23.8512C39.0463 23.915 39.25 24.17 39.25 24.4625V26.5375C39.2499 26.6798 39.2014 26.8177 39.1123 26.9287C39.0232 27.0396 38.8989 27.1168 38.76 27.1475L37.2162 27.49C37.0752 27.9544 36.8875 28.4033 36.6562 28.83L37.5138 30.16C37.5914 30.2795 37.6257 30.422 37.6109 30.5637C37.5961 30.7055 37.5331 30.8379 37.4325 30.9387L35.9562 32.4263C35.8555 32.5274 35.7233 32.591 35.5814 32.6067C35.4396 32.6224 35.2966 32.5892 35.1762 32.5125L33.8337 31.6538C33.4073 31.8846 32.9588 32.0722 32.495 32.2138L32.1613 33.755C32.1313 33.8947 32.0545 34.02 31.9435 34.11C31.8326 34.2001 31.6941 34.2495 31.5512 34.25Z" fill="#65FF00"/>
<path d="M32.2386 28.7226C32.1047 28.7223 31.9745 28.6791 31.867 28.5993C31.7596 28.5195 31.6806 28.4073 31.6417 28.2792C31.6028 28.1512 31.606 28.014 31.6509 27.8879C31.6958 27.7618 31.78 27.6535 31.8911 27.5788C32.3708 27.2555 32.7237 26.776 32.8898 26.2218C33.0558 25.6676 33.0247 25.073 32.8018 24.5392C32.5788 24.0054 32.1778 23.5653 31.667 23.2938C31.1562 23.0223 30.567 22.9362 29.9998 23.0501C29.9194 23.0666 29.8365 23.067 29.7559 23.0515C29.6753 23.036 29.5985 23.0047 29.5299 22.9595C29.4614 22.9143 29.4024 22.856 29.3564 22.788C29.3104 22.72 29.2782 22.6436 29.2617 22.5632C29.2452 22.4827 29.2447 22.3999 29.2603 22.3192C29.2758 22.2386 29.3071 22.1618 29.3523 22.0933C29.3975 22.0247 29.4558 21.9658 29.5238 21.9198C29.5918 21.8737 29.6681 21.8416 29.7486 21.8251C30.2935 21.7146 30.8561 21.7265 31.3958 21.8599C31.9356 21.9933 32.4389 22.2448 32.8696 22.5965C33.3003 22.9481 33.6475 23.3909 33.8862 23.8931C34.1249 24.3952 34.2491 24.9441 34.2498 25.5001C34.25 26.1162 34.0982 26.7229 33.808 27.2664C33.5178 27.81 33.0981 28.2736 32.5861 28.6163C32.4834 28.6854 32.3624 28.7224 32.2386 28.7226ZM10.4998 19.2501C9.69412 19.2511 8.90951 18.9926 8.26227 18.5127C7.61502 18.0329 7.1396 17.3573 6.90646 16.586C6.67332 15.8148 6.69487 14.989 6.96791 14.2309C7.24095 13.4729 7.75095 12.823 8.42234 12.3776C8.56025 12.2915 8.72629 12.2625 8.88522 12.2968C9.04414 12.3311 9.18344 12.426 9.27355 12.5613C9.36367 12.6966 9.39749 12.8618 9.36786 13.0216C9.33823 13.1815 9.24747 13.3235 9.11484 13.4176C8.6351 13.7396 8.28159 14.2177 8.1143 14.7708C7.94701 15.3238 7.97626 15.9178 8.19708 16.4517C8.41791 16.9856 8.81669 17.4267 9.32575 17.7001C9.83481 17.9734 10.4228 18.0622 10.9898 17.9513C11.1524 17.9192 11.321 17.9528 11.459 18.0446C11.5969 18.1364 11.6929 18.279 11.7261 18.4413C11.7423 18.5218 11.7425 18.6046 11.7266 18.6851C11.7107 18.7656 11.6791 18.8422 11.6336 18.9105C11.5881 18.9788 11.5295 19.0374 11.4613 19.083C11.3931 19.1286 11.3166 19.1603 11.2361 19.1763C10.9938 19.2256 10.7471 19.2504 10.4998 19.2501Z" fill="#65FF00"/>
<path d="M10.5 24.2501H9.45C9.30722 24.2499 9.16883 24.2008 9.05784 24.1109C8.94686 24.0211 8.86998 23.896 8.84 23.7564L8.50625 22.2151C8.04235 22.0738 7.59385 21.8862 7.1675 21.6551L5.825 22.5139C5.70495 22.5906 5.56229 22.624 5.42066 22.6085C5.27903 22.5931 5.14693 22.5297 5.04625 22.4289L3.57 20.9539C3.46939 20.8531 3.40624 20.7209 3.39101 20.5793C3.37578 20.4376 3.40938 20.2951 3.48625 20.1751L4.345 18.8326C4.11391 18.4054 3.9263 17.9561 3.785 17.4914L2.24125 17.1489C2.10201 17.1182 1.97743 17.0408 1.88811 16.9297C1.79878 16.8185 1.75006 16.6802 1.75 16.5376V14.4626C1.75006 14.3204 1.79864 14.1824 1.88774 14.0715C1.97683 13.9606 2.1011 13.8834 2.24 13.8526L3.78375 13.5101C3.9225 13.0514 4.11 12.6026 4.34375 12.1701L3.4875 10.8389C3.40986 10.7194 3.37557 10.5769 3.39036 10.4351C3.40515 10.2934 3.46812 10.161 3.56875 10.0601L5.045 8.57264C5.14536 8.47092 5.27767 8.40683 5.4197 8.39112C5.56173 8.37542 5.70484 8.40906 5.825 8.48639L7.1675 9.34514C7.59395 9.11428 8.04244 8.92668 8.50625 8.78514L8.84 7.24389C8.85514 7.16157 8.88666 7.08313 8.93268 7.01323C8.97871 6.94332 9.03831 6.88337 9.10795 6.83694C9.17758 6.79051 9.25584 6.75853 9.33806 6.74291C9.42029 6.72729 9.50482 6.72835 9.58663 6.74602C9.66844 6.76369 9.74587 6.79761 9.81432 6.84577C9.88278 6.89393 9.94086 6.95535 9.98513 7.02638C10.0294 7.09742 10.0589 7.17662 10.072 7.25929C10.0851 7.34196 10.0814 7.42641 10.0613 7.50764L9.64875 9.42014C9.62414 9.535 9.56754 9.64056 9.48548 9.72461C9.40341 9.80867 9.29924 9.86779 9.185 9.89514C8.58154 10.0432 8.00468 10.284 7.475 10.6089C7.37522 10.6698 7.26037 10.7015 7.14348 10.7004C7.02659 10.6993 6.91236 10.6654 6.81375 10.6026L5.57625 9.81139L4.80875 10.5839L5.6 11.8114C5.66408 11.9099 5.69891 12.0245 5.70046 12.142C5.70201 12.2595 5.67021 12.375 5.60875 12.4751C5.28355 13.0041 5.04314 13.5806 4.89625 14.1839C4.86876 14.2978 4.80992 14.4017 4.72642 14.4839C4.64291 14.5661 4.53807 14.6232 4.42375 14.6489L3 14.9639V16.0351L4.42375 16.3514C4.53807 16.3771 4.64291 16.4342 4.72642 16.5164C4.80992 16.5986 4.86876 16.7025 4.89625 16.8164C5.0375 17.4064 5.27875 17.9814 5.60875 18.5251C5.73375 18.7289 5.73125 18.9864 5.60125 19.1876L4.80875 20.4251L5.57375 21.1901L6.8125 20.3976C6.91121 20.3351 7.02541 20.3014 7.14223 20.3003C7.25906 20.2992 7.37388 20.3308 7.47375 20.3914C8.01875 20.7226 8.59375 20.9626 9.1825 21.1051C9.29674 21.1325 9.40091 21.1916 9.48298 21.2757C9.56504 21.3597 9.62164 21.4653 9.64625 21.5801L9.95375 23.0001H10.5C10.6658 23.0001 10.8247 23.066 10.9419 23.1832C11.0592 23.3004 11.125 23.4594 11.125 23.6251C11.125 23.7909 11.0592 23.9499 10.9419 24.0671C10.8247 24.1843 10.6658 24.2501 10.5 24.2501ZM19.875 23.6251C19.78 23.6254 19.6862 23.6039 19.6007 23.5623C19.5153 23.5207 19.4405 23.4602 19.382 23.3853C19.3235 23.3104 19.2829 23.2232 19.2633 23.1302C19.2436 23.0372 19.2455 22.941 19.2688 22.8489L20.5187 17.8489C20.538 17.7689 20.573 17.6936 20.6217 17.6273C20.6704 17.5611 20.7317 17.5051 20.8022 17.4628C20.8727 17.4204 20.9509 17.3925 21.0323 17.3807C21.1137 17.3689 21.1966 17.3734 21.2763 17.3939C21.3559 17.4136 21.4309 17.4489 21.497 17.4977C21.563 17.5465 21.6187 17.6078 21.661 17.6782C21.7033 17.7485 21.7313 17.8266 21.7433 17.9078C21.7554 17.989 21.7513 18.0718 21.7313 18.1514L20.4812 23.1514C20.4479 23.2869 20.37 23.4072 20.2601 23.4931C20.1501 23.5791 20.0145 23.6255 19.875 23.6251ZM23.625 23.6251C23.5015 23.6251 23.3807 23.5885 23.278 23.5199C23.1753 23.4513 23.0952 23.3538 23.0479 23.2397C23.0005 23.1256 22.988 23.0001 23.012 22.8789C23.036 22.7577 23.0953 22.6464 23.1825 22.5589L25.2412 20.5001L23.1838 18.4426C23.0699 18.3248 23.0069 18.1669 23.0083 18.003C23.0098 17.8391 23.0755 17.6824 23.1914 17.5665C23.3072 17.4506 23.464 17.3849 23.6279 17.3835C23.7917 17.382 23.9496 17.445 24.0675 17.5589L26.5675 20.0589C26.6847 20.1761 26.7505 20.335 26.7505 20.5008C26.7505 20.6665 26.6847 20.8254 26.5675 20.9426L24.0675 23.4426C23.9499 23.5595 23.7908 23.6252 23.625 23.6251ZM17.375 23.6251C17.2092 23.6252 17.0501 23.5595 16.9325 23.4426L14.4325 20.9426C14.3153 20.8254 14.2495 20.6665 14.2495 20.5008C14.2495 20.335 14.3153 20.1761 14.4325 20.0589L16.9325 17.5589C17.0504 17.445 17.2083 17.382 17.3721 17.3835C17.536 17.3849 17.6928 17.4506 17.8086 17.5665C17.9245 17.6824 17.9902 17.8391 17.9917 18.003C17.9931 18.1669 17.9301 18.3248 17.8162 18.4426L15.7587 20.5001L17.8162 22.5576C17.9038 22.645 17.9635 22.7563 17.9877 22.8776C18.012 22.9989 17.9997 23.1246 17.9525 23.2389C17.9052 23.3532 17.8251 23.4509 17.7223 23.5196C17.6196 23.5884 17.4987 23.6251 17.375 23.6251Z" fill="#65FF00"/>
</svg>
