<svg width="40" height="40" viewBox="0 0 40 40" fill="none" xmlns="http://www.w3.org/2000/svg">
<g clip-path="url(#clip0_551_64)">
<path fill-rule="evenodd" clip-rule="evenodd" d="M35.9325 17.7743H24.2391C24.0727 17.7743 23.9131 17.7082 23.7955 17.5905C23.6778 17.4729 23.6117 17.3133 23.6117 17.1469V13.3587C23.6117 13.1923 23.6778 13.0327 23.7955 12.915C23.9131 12.7974 24.0727 12.7313 24.2391 12.7313H27.5095V10.8935C27.5095 10.7271 27.5756 10.5675 27.6933 10.4499C27.8109 10.3322 27.9705 10.2661 28.137 10.2661H31.4072V7.84804C31.4072 7.68163 31.4733 7.52204 31.591 7.40437C31.7087 7.2867 31.8683 7.22059 32.0347 7.22059H33.3562V1.17628C33.3562 0.829848 33.6372 0.548828 33.9836 0.548828H38.5388C38.6607 0.548834 38.7798 0.584297 38.8818 0.65089C38.9838 0.717483 39.0642 0.812326 39.1132 0.923846C39.1622 1.03537 39.1777 1.15874 39.1578 1.27891C39.1379 1.39908 39.0834 1.51086 39.001 1.60059L38.0775 2.60648L39.001 3.61244C39.0834 3.70216 39.138 3.81394 39.1579 3.93412C39.1778 4.05431 39.1624 4.1777 39.1133 4.28923C39.0643 4.40076 38.9839 4.49561 38.8819 4.5622C38.7799 4.62879 38.6607 4.66423 38.5388 4.6642H34.6111V7.22059H35.9325C36.0989 7.22059 36.2585 7.2867 36.3762 7.40437C36.4938 7.52204 36.5599 7.68163 36.5599 7.84804V17.1469C36.5599 17.3133 36.4938 17.4729 36.3762 17.5905C36.2585 17.7082 36.0989 17.7743 35.9325 17.7743ZM27.5095 13.9862H24.8666V16.5194H27.5095V13.9862ZM31.4072 11.521H28.7644V16.5194H31.4072V11.521ZM35.305 16.5194V8.4755H32.6621V16.5194H35.305ZM34.6111 1.80373V3.4093H37.111L36.7635 3.03087C36.6572 2.91511 36.5983 2.76368 36.5983 2.60651C36.5983 2.44935 36.6572 2.29792 36.7635 2.18216L37.111 1.80373H34.6111ZM13.5166 30.3553C17.2564 31.4816 20.0609 34.7637 20.4875 38.7567C20.4969 38.8442 20.4877 38.9327 20.4607 39.0165C20.4336 39.1002 20.3892 39.1773 20.3303 39.2428C20.2715 39.3083 20.1995 39.3606 20.1192 39.3964C20.0388 39.4323 19.9517 39.4508 19.8637 39.4508H1.45946C1.37141 39.4508 1.28435 39.4323 1.20394 39.3964C1.12353 39.3605 1.05156 39.3082 0.992719 39.2427C0.933879 39.1772 0.889482 39.1 0.862415 39.0162C0.835348 38.9324 0.826218 38.8439 0.835617 38.7564C1.2644 34.7633 4.06958 31.4813 7.80825 30.3551C6.33554 29.4101 5.35656 27.7575 5.35656 25.8841C5.35656 22.9615 7.73899 20.5766 10.6616 20.5766C13.5868 20.5766 15.969 22.9616 15.969 25.8841C15.969 27.7576 14.99 29.4102 13.5166 30.3553ZM10.6616 31.1916C6.45256 31.1916 2.9473 34.207 2.1866 38.1959H19.1369C18.3783 34.2069 14.8728 31.1916 10.6616 31.1916ZM10.6616 29.9367C12.8952 29.9367 14.7141 28.1156 14.7141 25.8841C14.7141 23.6526 12.8952 21.8315 10.6616 21.8315C8.43021 21.8315 6.61146 23.6527 6.61146 25.8841C6.61146 28.1155 8.43021 29.9367 10.6616 29.9367ZM21.1896 29.2117C22.097 28.7017 23.1337 28.024 23.928 27.2262C24.667 26.484 25.2146 25.6466 25.0868 24.7272C25.0013 24.1112 24.6106 23.4838 23.8479 22.83C22.3728 21.5657 20.4347 20.963 18.4764 20.5507C16.3999 20.1135 14.2954 19.8925 12.618 19.4248C11.1079 19.0037 9.92942 18.3658 9.29781 17.3173C8.86338 16.5961 8.66997 15.6727 8.83907 14.4582C9.11413 12.4827 10.678 10.9395 12.9546 9.8162C15.9689 8.32906 20.2413 7.5471 23.95 7.21973C24.1704 6.3231 24.9802 5.65722 25.9443 5.65722C27.0777 5.65722 27.9977 6.5773 27.9977 7.71063C27.9977 8.84397 27.0777 9.76412 25.9443 9.76412C25.0799 9.76412 24.3394 9.22875 24.0368 8.47173C20.4839 8.78593 16.3945 9.51832 13.5099 10.9416C11.6617 11.8535 10.3053 13.0275 10.082 14.6313C9.96174 15.4949 10.0639 16.1569 10.3728 16.6698C10.8562 17.4723 11.7994 17.8937 12.9551 18.216C14.6097 18.6775 16.6865 18.8914 18.735 19.3227C20.9017 19.7789 23.0324 20.4782 24.6645 21.8772C25.7259 22.7869 26.2108 23.6974 26.3298 24.5545C26.5091 25.8447 25.8542 27.0701 24.8173 28.1116C23.9197 29.0131 22.7443 29.781 21.7297 30.3471C21.7413 30.4357 21.7474 30.5262 21.7474 30.6181C21.7474 31.7514 20.8273 32.6715 19.694 32.6715C18.5606 32.6715 17.6405 31.7514 17.6405 30.6181C17.6405 29.4848 18.5606 28.5646 19.694 28.5646C20.2833 28.5646 20.815 28.8134 21.1896 29.2117ZM25.9443 6.91212C25.5036 6.91212 25.1458 7.26993 25.1458 7.71063C25.1458 8.15134 25.5036 8.50922 25.9443 8.50922C26.385 8.50922 26.7428 8.15134 26.7428 7.71063C26.7428 7.26993 26.385 6.91212 25.9443 6.91212ZM19.694 29.8195C19.2532 29.8195 18.8954 30.1773 18.8954 30.6181C18.8954 31.0588 19.2532 31.4166 19.694 31.4166C20.1347 31.4166 20.4925 31.0588 20.4925 30.6181C20.4925 30.1773 20.1347 29.8195 19.694 29.8195Z" fill="#65FF00"/>
</g>
<defs>
<clipPath id="clip0_551_64">
<rect width="40" height="40" fill="white"/>
</clipPath>
</defs>
</svg>
