<svg width="40" height="40" viewBox="0 0 40 40" fill="none" xmlns="http://www.w3.org/2000/svg">
<path d="M39.3319 28.1351C39.3764 27.971 39.387 27.7996 39.3631 27.6313C39.3391 27.463 39.2811 27.3014 39.1925 27.1563L38.085 25.3226C37.9036 25.0325 37.6182 24.8227 37.2872 24.7362C36.9561 24.6496 36.6046 24.6928 36.3044 24.8569L35.9 25.0801C35.8806 25.0872 35.8596 25.089 35.8393 25.0852C35.8189 25.0815 35.8 25.0724 35.7844 25.0588C35.3433 24.7355 34.8633 24.469 34.3556 24.2657C34.3338 24.2575 34.3142 24.2444 34.2981 24.2276V23.7851C34.2937 23.4403 34.1527 23.1114 33.906 22.8705C33.6594 22.6296 33.3272 22.4964 32.9825 22.5001H30.7675C30.4228 22.4964 30.0906 22.6296 29.844 22.8705C29.5973 23.1114 29.4563 23.4403 29.4519 23.7851V24.2226C29.4375 24.2429 29.4169 24.2581 29.3931 24.2657C28.8854 24.469 28.4054 24.7355 27.9644 25.0588C27.9489 25.0726 27.9299 25.0818 27.9095 25.0855C27.8891 25.0893 27.8681 25.0874 27.8487 25.0801L27.4444 24.8569C27.1441 24.6931 26.7926 24.6501 26.4617 24.7366C26.1308 24.8231 25.8454 25.0327 25.6638 25.3226L25.4825 25.6251H1.25C1.08424 25.6251 0.925268 25.6909 0.808058 25.8081C0.690848 25.9253 0.625 26.0843 0.625 26.2501V33.7501C0.625 33.9158 0.690848 34.0748 0.808058 34.192C0.925268 34.3092 1.08424 34.3751 1.25 34.3751H25.4825L25.665 34.6776C25.8465 34.9675 26.1319 35.1772 26.4629 35.2638C26.7939 35.3503 27.1454 35.3072 27.4456 35.1432L27.85 34.9201C27.8694 34.913 27.8904 34.9113 27.9107 34.915C27.931 34.9187 27.95 34.9278 27.9656 34.9413C28.4067 35.2647 28.8867 35.5312 29.3944 35.7344C29.4162 35.7427 29.4358 35.7557 29.4519 35.7726V36.2151C29.4563 36.5598 29.5973 36.8887 29.844 37.1296C30.0906 37.3705 30.4228 37.5037 30.7675 37.5001H32.9825C33.3272 37.5037 33.6594 37.3705 33.906 37.1296C34.1527 36.8887 34.2937 36.5598 34.2981 36.2151V35.7776C34.3125 35.7572 34.3331 35.7421 34.3569 35.7344C34.8646 35.5312 35.3446 35.2647 35.7856 34.9413C35.8012 34.9277 35.8202 34.9185 35.8405 34.9148C35.8609 34.9111 35.8818 34.9129 35.9013 34.9201L36.3056 35.1432C36.6058 35.3073 36.9574 35.3506 37.2884 35.264C37.6194 35.1774 37.9048 34.9677 38.0862 34.6776L39.1937 32.8438C39.2823 32.6987 39.3403 32.5371 39.3643 32.3688C39.3883 32.2005 39.3777 32.0291 39.3331 31.8651C39.2882 31.6974 39.2097 31.5406 39.1022 31.4042C38.9948 31.2679 38.8607 31.1548 38.7081 31.0719L38.2838 30.8451C38.324 30.5652 38.344 30.2828 38.3437 30.0001C38.3437 29.7194 38.3231 29.4376 38.3069 29.1494L38.7063 28.9282C38.859 28.8455 38.9932 28.7325 39.1008 28.5961C39.2084 28.4597 39.287 28.3029 39.3319 28.1351ZM25.4431 30.8507L25.0437 31.0719C24.8911 31.1547 24.757 31.2678 24.6496 31.4041C24.5421 31.5405 24.4636 31.6973 24.4187 31.8651C24.3742 32.0291 24.3636 32.2005 24.3876 32.3688C24.4115 32.5371 24.4696 32.6987 24.5581 32.8438L24.7281 33.1251H1.875V26.8751H24.7275L24.5575 27.1563C24.4689 27.3014 24.4109 27.463 24.3869 27.6313C24.363 27.7996 24.3736 27.971 24.4181 28.1351C24.463 28.3028 24.5416 28.4596 24.649 28.5959C24.7565 28.7323 24.8906 28.8453 25.0431 28.9282L25.4675 29.1551C25.4269 29.4349 25.4064 29.7173 25.4063 30.0001C25.4063 30.2807 25.4269 30.5626 25.4431 30.8507ZM37.015 34.0313C37.002 34.046 36.9843 34.0557 36.965 34.0589C36.9456 34.0621 36.9258 34.0585 36.9088 34.0488L36.5037 33.8257C36.2757 33.7033 36.0176 33.6484 35.7595 33.6673C35.5014 33.6862 35.254 33.7782 35.0463 33.9326C34.6895 34.1938 34.3015 34.4095 33.8913 34.5744C33.6466 34.6663 33.4352 34.8297 33.2848 35.0434C33.1344 35.2572 33.0519 35.5113 33.0481 35.7726V36.2151C33.0481 36.2238 33.0256 36.2501 32.9825 36.2501H30.7675C30.7244 36.2501 30.7019 36.2238 30.7019 36.2151V35.7726C30.698 35.5114 30.6156 35.2573 30.4653 35.0436C30.315 34.8299 30.1039 34.6664 29.8594 34.5744C29.4489 34.4096 29.0606 34.194 28.7037 33.9326C28.4658 33.7577 28.1784 33.6631 27.8831 33.6626C27.6602 33.6619 27.4408 33.7181 27.2456 33.8257L26.8419 34.0488C26.8247 34.0586 26.8048 34.0621 26.7853 34.0589C26.7659 34.0558 26.7481 34.046 26.735 34.0313L25.6475 32.1663L26.0475 31.9451C26.2732 31.8231 26.4568 31.6357 26.5741 31.4075C26.6913 31.1792 26.7367 30.9209 26.7044 30.6663C26.6402 30.2243 26.6402 29.7753 26.7044 29.3332C26.7367 29.0787 26.6912 28.8205 26.574 28.5924C26.4567 28.3642 26.2732 28.1769 26.0475 28.0551L25.6275 27.8051L26.735 25.9713C26.748 25.9567 26.7657 25.947 26.785 25.9438C26.8044 25.9406 26.8242 25.9441 26.8412 25.9538L27.2463 26.1769C27.4742 26.2998 27.7324 26.355 27.9906 26.336C28.2488 26.3171 28.4962 26.2248 28.7037 26.0701C29.0605 25.8088 29.4485 25.5932 29.8587 25.4282C30.1034 25.3364 30.3148 25.1729 30.4652 24.9592C30.6156 24.7455 30.6981 24.4914 30.7019 24.2301V23.7876C30.7019 23.7788 30.7244 23.7526 30.7675 23.7526H32.9825C33.0256 23.7526 33.0481 23.7788 33.0481 23.7876V24.2301C33.052 24.4913 33.1344 24.7453 33.2847 24.959C33.435 25.1727 33.6461 25.3362 33.8906 25.4282C34.3011 25.5931 34.6894 25.8087 35.0463 26.0701C35.2539 26.2249 35.5014 26.3172 35.7597 26.3361C36.018 26.355 36.2764 26.2998 36.5044 26.1769L36.9081 25.9538C36.9252 25.944 36.9452 25.9403 36.9647 25.9435C36.9842 25.9467 37.0019 25.9565 37.015 25.9713L38.1025 27.8363L37.7025 28.0576C37.4768 28.1795 37.2932 28.3669 37.1759 28.5952C37.0587 28.8234 37.0133 29.0818 37.0456 29.3363C37.1098 29.7784 37.1098 30.2274 37.0456 30.6694C37.0133 30.9239 37.0588 31.1822 37.176 31.4103C37.2933 31.6384 37.4768 31.8257 37.7025 31.9476L38.1225 32.1976L37.015 34.0313Z" fill="#65FF00"/>
<path d="M31.875 26.5625C31.1951 26.5625 30.5305 26.7641 29.9652 27.1418C29.3999 27.5195 28.9593 28.0564 28.6992 28.6845C28.439 29.3126 28.3709 30.0038 28.5036 30.6706C28.6362 31.3374 28.9636 31.9499 29.4443 32.4307C29.9251 32.9114 30.5376 33.2388 31.2044 33.3714C31.8712 33.5041 32.5624 33.436 33.1905 33.1758C33.8186 32.9157 34.3555 32.4751 34.7332 31.9098C35.1109 31.3445 35.3125 30.6799 35.3125 30C35.3115 29.0886 34.949 28.2149 34.3046 27.5704C33.6601 26.926 32.7864 26.5635 31.875 26.5625ZM31.875 32.1875C31.4424 32.1875 31.0194 32.0592 30.6597 31.8188C30.3 31.5785 30.0196 31.2368 29.854 30.8371C29.6884 30.4374 29.6451 29.9976 29.7295 29.5732C29.8139 29.1489 30.0223 28.7591 30.3282 28.4532C30.6341 28.1473 31.0239 27.9389 31.4482 27.8545C31.8726 27.7701 32.3124 27.8134 32.7121 27.979C33.1118 28.1446 33.4535 28.425 33.6938 28.7847C33.9342 29.1444 34.0625 29.5674 34.0625 30C34.0625 30.5802 33.832 31.1366 33.4218 31.5468C33.0116 31.957 32.4552 32.1875 31.875 32.1875ZM1.25 9.375H24.375C24.5408 9.375 24.6997 9.30915 24.8169 9.19194C24.9342 9.07473 25 8.91576 25 8.75V3.75C25 3.58424 24.9342 3.42527 24.8169 3.30806C24.6997 3.19085 24.5408 3.125 24.375 3.125H1.25C1.08424 3.125 0.925268 3.19085 0.808058 3.30806C0.690848 3.42527 0.625 3.58424 0.625 3.75V8.75C0.625 8.91576 0.690848 9.07473 0.808058 9.19194C0.925268 9.30915 1.08424 9.375 1.25 9.375ZM1.875 4.375H23.75V8.125H1.875V4.375ZM1.25 21.25H24.375C24.5408 21.25 24.6997 21.1842 24.8169 21.0669C24.9342 20.9497 25 20.7908 25 20.625V15.625C25 15.4592 24.9342 15.3003 24.8169 15.1831C24.6997 15.0658 24.5408 15 24.375 15H1.25C1.08424 15 0.925268 15.0658 0.808058 15.1831C0.690848 15.3003 0.625 15.4592 0.625 15.625V20.625C0.625 20.7908 0.690848 20.9497 0.808058 21.0669C0.925268 21.1842 1.08424 21.25 1.25 21.25ZM1.875 16.25H23.75V20H1.875V16.25ZM30 19.375H33.75C33.9158 19.375 34.0747 19.3092 34.1919 19.1919C34.3092 19.0747 34.375 18.9158 34.375 18.75V8.75H35.625C35.7445 8.74999 35.8616 8.7157 35.9622 8.65119C36.0629 8.58669 36.1429 8.49467 36.1928 8.38606C36.2427 8.27745 36.2605 8.15679 36.2439 8.03841C36.2274 7.92002 36.1772 7.80887 36.0994 7.71812L32.3494 3.34312C32.2889 3.27764 32.2156 3.22538 32.1339 3.18964C32.0523 3.1539 31.9641 3.13545 31.875 3.13545C31.7859 3.13545 31.6977 3.1539 31.6161 3.18964C31.5344 3.22538 31.4611 3.27764 31.4006 3.34312L27.6506 7.71812C27.5728 7.80887 27.5226 7.92002 27.5061 8.03841C27.4895 8.15679 27.5073 8.27745 27.5572 8.38606C27.6071 8.49467 27.6871 8.58669 27.7878 8.65119C27.8884 8.7157 28.0055 8.74999 28.125 8.75H29.375V18.75C29.375 18.9158 29.4408 19.0747 29.5581 19.1919C29.6753 19.3092 29.8342 19.375 30 19.375ZM31.875 4.71063L34.2663 7.5H33.75C33.5842 7.5 33.4253 7.56585 33.3081 7.68306C33.1908 7.80027 33.125 7.95924 33.125 8.125V18.125H30.625V8.125C30.625 7.95924 30.5592 7.80027 30.4419 7.68306C30.3247 7.56585 30.1658 7.5 30 7.5H29.4837L31.875 4.71063Z" fill="#65FF00"/>
</svg>
