<svg width="40" height="40" viewBox="0 0 40 40" fill="none" xmlns="http://www.w3.org/2000/svg">
<path fill-rule="evenodd" clip-rule="evenodd" d="M35.001 38.1959H37.5177C37.864 38.1959 38.1452 38.4771 38.1452 38.8234C38.1452 39.1697 37.864 39.4508 37.5177 39.4508H2.48292C2.13665 39.4508 1.85547 39.1697 1.85547 38.8234C1.85547 38.4771 2.13665 38.1959 2.48292 38.1959H4.99963V24.1128H5.00174C5.00033 24.0874 4.99963 24.0619 4.99963 24.0364C4.99963 23.5111 5.29602 22.9957 5.8768 22.6019C6.5248 22.1625 7.56598 21.8589 8.7448 21.8589C9.92363 21.8589 10.9648 22.1625 11.6128 22.6019C12.1936 22.9957 12.49 23.5111 12.49 24.0364C12.49 24.0619 12.4893 24.0874 12.4879 24.1128H12.49V38.1959H16.2552V17.2726C16.2552 16.7474 16.5515 16.2319 17.1323 15.8381C17.7803 15.3988 18.8215 15.0952 20.0003 15.0952C21.1792 15.0952 22.2203 15.3988 22.8683 15.8381C23.4491 16.2319 23.7455 16.7474 23.7455 17.2726V38.1959H27.5107V9.24934C27.5107 8.72409 27.8071 8.20871 28.3879 7.81491C29.0359 7.37554 30.077 7.07193 31.2559 7.07193C32.4347 7.07193 33.4759 7.37554 34.1239 7.81491C34.7046 8.20871 35.001 8.72409 35.001 9.24934V38.1959ZM6.25453 38.1959H11.2351V25.6895C10.5937 26.0078 9.71594 26.2138 8.7448 26.2138C7.77367 26.2138 6.89594 26.0078 6.25453 25.6895V38.1959ZM17.5101 38.1959H22.4906V18.9258C21.8492 19.244 20.9715 19.45 20.0003 19.45C19.0292 19.45 18.1515 19.244 17.5101 18.9258V38.1959ZM28.7656 38.1959H33.7461V10.9025C33.1047 11.2208 32.227 11.4268 31.2559 11.4268C30.2847 11.4268 29.407 11.2208 28.7656 10.9025V38.1959ZM22.4906 17.2726C22.4906 17.1123 22.3414 16.9969 22.1641 16.8768C21.677 16.5465 20.8865 16.3501 20.0003 16.3501C19.1142 16.3501 18.3237 16.5465 17.8366 16.8768C17.6593 16.9969 17.5101 17.1123 17.5101 17.2726C17.5101 17.4329 17.6593 17.5482 17.8366 17.6685C18.3237 17.9988 19.1142 18.1951 20.0003 18.1951C20.8865 18.1951 21.677 17.9988 22.1641 17.6685C22.3414 17.5482 22.4906 17.4329 22.4906 17.2726ZM33.7461 9.24934C33.7461 9.0891 33.5969 8.97373 33.4196 8.85358C32.9325 8.5233 32.142 8.32683 31.2559 8.32683C30.3697 8.32683 29.5792 8.5233 29.0921 8.85358C28.9149 8.97373 28.7656 9.0891 28.7656 9.24934C28.7656 9.40965 28.9149 9.52503 29.0921 9.64518C29.5792 9.97546 30.3697 10.1719 31.2559 10.1719C32.142 10.1719 32.9325 9.97546 33.4196 9.64518C33.5969 9.52503 33.7461 9.40965 33.7461 9.24934ZM8.7448 23.1138C7.85868 23.1138 7.06818 23.3103 6.58104 23.6406C6.40378 23.7607 6.25453 23.8761 6.25453 24.0364C6.25453 24.1967 6.40378 24.312 6.58104 24.4322C7.06818 24.7624 7.85868 24.9589 8.7448 24.9589C9.63092 24.9589 10.4214 24.7624 10.9086 24.4322C11.0857 24.312 11.2351 24.1967 11.2351 24.0364C11.2351 23.8761 11.0857 23.7607 10.9086 23.6406C10.4214 23.3103 9.63092 23.1138 8.7448 23.1138ZM31.7156 2.77875C24.0119 9.35671 15.5821 13.5119 7.61014 16.1977C7.28198 16.3083 6.92574 16.1316 6.81516 15.8035C6.70457 15.4753 6.88127 15.1191 7.20943 15.0086C15.0134 12.3793 23.2657 8.32048 30.8126 1.89954L29.6068 1.96385C29.4407 1.97261 29.2779 1.91506 29.1541 1.80384C29.0304 1.69261 28.9559 1.53681 28.9469 1.37067C28.9381 1.20452 28.9956 1.04167 29.1069 0.917907C29.2181 0.794147 29.3739 0.719609 29.54 0.710673L32.5574 0.549732C32.6504 0.544735 32.7433 0.560501 32.8295 0.595887C32.9156 0.631273 32.9928 0.685392 33.0554 0.754315C33.118 0.823238 33.1645 0.905236 33.1915 0.99436C33.2185 1.08348 33.2253 1.1775 33.2114 1.26958L32.7761 4.16628C32.7513 4.33081 32.6622 4.47876 32.5284 4.57762C32.3945 4.67648 32.2269 4.71816 32.0624 4.6935C31.8979 4.6687 31.7499 4.57961 31.6511 4.44579C31.5522 4.31198 31.5105 4.14439 31.5352 3.97985L31.7156 2.77875Z" fill="#65FF00"/>
</svg>
