<svg width="40" height="40" viewBox="0 0 40 40" fill="none" xmlns="http://www.w3.org/2000/svg">
<path d="M9 26.2127C9 26.0535 8.93678 25.9009 8.82426 25.7884C8.71174 25.6759 8.55913 25.6127 8.4 25.6127H5.0668C4.90767 25.6127 4.75505 25.6759 4.64253 25.7884C4.53001 25.9009 4.4668 26.0535 4.4668 26.2127C4.4668 26.3718 4.53001 26.5244 4.64253 26.6369C4.75505 26.7495 4.90767 26.8127 5.0668 26.8127H8.4C8.55913 26.8127 8.71174 26.7495 8.82426 26.6369C8.93678 26.5244 9 26.3718 9 26.2127ZM10.9744 29.7951L8.4012 31.0171C8.25745 31.0853 8.14671 31.2079 8.09334 31.3578C8.03996 31.5077 8.04833 31.6727 8.1166 31.8165C8.18486 31.9602 8.30744 32.071 8.45735 32.1243C8.60727 32.1777 8.77225 32.1693 8.916 32.1011L11.4892 30.8791C11.6329 30.8108 11.7437 30.6882 11.7971 30.5383C11.8504 30.3884 11.8421 30.2234 11.7738 30.0797C11.7055 29.9359 11.583 29.8252 11.433 29.7718C11.2831 29.7184 11.1181 29.7268 10.9744 29.7951ZM31.5988 31.0171L29.0252 29.7951C28.8824 29.7334 28.7213 29.7296 28.5757 29.7844C28.4302 29.8391 28.3116 29.9482 28.2449 30.0887C28.1781 30.2292 28.1685 30.3901 28.2181 30.5375C28.2676 30.6849 28.3724 30.8074 28.5104 30.8791L31.084 32.1011C31.1552 32.1349 31.2323 32.1543 31.311 32.1583C31.3897 32.1623 31.4684 32.1508 31.5426 32.1243C31.6169 32.0979 31.6852 32.0571 31.7436 32.0043C31.8021 31.9515 31.8496 31.8876 31.8834 31.8165C31.9172 31.7453 31.9367 31.6682 31.9406 31.5895C31.9446 31.5108 31.9331 31.4321 31.9067 31.3578C31.8802 31.2836 31.8394 31.2153 31.7866 31.1568C31.7338 31.0984 31.67 31.0509 31.5988 31.0171ZM20 32.2459C19.8409 32.2459 19.6883 32.3091 19.5757 32.4216C19.4632 32.5341 19.4 32.6867 19.4 32.8459V35.4259C19.4 35.585 19.4632 35.7376 19.5757 35.8501C19.6883 35.9627 19.8409 36.0259 20 36.0259C20.1591 36.0259 20.3117 35.9627 20.4243 35.8501C20.5368 35.7376 20.6 35.585 20.6 35.4259V32.8459C20.6 32.6867 20.5368 32.5341 20.4243 32.4216C20.3117 32.3091 20.1591 32.2459 20 32.2459ZM34.9332 25.6127H31.6C31.4409 25.6127 31.2883 25.6759 31.1757 25.7884C31.0632 25.9009 31 26.0535 31 26.2127C31 26.3718 31.0632 26.5244 31.1757 26.6369C31.2883 26.7495 31.4409 26.8127 31.6 26.8127H34.9332C35.0923 26.8127 35.2449 26.7495 35.3575 26.6369C35.47 26.5244 35.5332 26.3718 35.5332 26.2127C35.5332 26.0535 35.47 25.9009 35.3575 25.7884C35.2449 25.6759 35.0923 25.6127 34.9332 25.6127ZM28.768 22.6883C28.854 22.6883 28.9412 22.6699 29.0236 22.6311L31.0976 21.6551C31.2384 21.5854 31.3463 21.4633 31.398 21.315C31.4498 21.1667 31.4413 21.004 31.3744 20.8618C31.3076 20.7197 31.1876 20.6095 31.0403 20.5548C30.8931 20.5001 30.7302 20.5054 30.5868 20.5695L28.5124 21.5455C28.389 21.6036 28.2891 21.702 28.2291 21.8245C28.1692 21.947 28.1528 22.0863 28.1826 22.2194C28.2124 22.3525 28.2867 22.4715 28.3932 22.5567C28.4996 22.6419 28.6316 22.6883 28.768 22.6883ZM8.902 21.6555L10.9764 22.6315C11.1195 22.693 11.2809 22.6966 11.4265 22.6413C11.5722 22.5861 11.6907 22.4764 11.757 22.3355C11.8233 22.1945 11.8322 22.0333 11.7818 21.8859C11.7315 21.7385 11.6259 21.6164 11.4872 21.5455L9.4132 20.5695C9.26998 20.507 9.10806 20.5029 8.96183 20.5579C8.8156 20.6129 8.69658 20.7228 8.63004 20.8641C8.5635 21.0055 8.55468 21.1672 8.60546 21.315C8.65624 21.4627 8.76261 21.5849 8.902 21.6555ZM20 10.4727C21.676 10.4727 23.04 9.10867 23.04 7.43307C23.04 5.75747 21.676 4.39307 20 4.39307C18.324 4.39307 16.96 5.75707 16.96 7.43307C16.96 9.10907 18.324 10.4731 20 10.4731V10.4727ZM20 5.59347C21.0144 5.59347 21.84 6.41867 21.84 7.43307C21.84 8.44747 21.0144 9.27307 20 9.27307C18.9856 9.27307 18.16 8.44747 18.16 7.43307C18.16 6.41867 18.9856 5.59307 20 5.59307V5.59347ZM23.152 22.0407L23.892 17.6875C24.0568 16.2771 24.1644 14.6555 23.3472 13.2587C22.6836 12.1251 21.462 11.4747 19.9956 11.4747C18.5064 11.4747 17.274 12.1435 16.6148 13.3107C15.7484 14.8435 15.9784 16.5611 16.1816 18.0763L16.2176 18.3467C16.3044 19.0091 16.488 19.9547 16.6656 20.8687C16.7416 21.2607 16.8184 21.6575 16.8884 22.0335C13.5308 22.6579 11.1916 24.2695 11.1916 26.2127C11.1916 28.7143 15.0608 30.6739 20 30.6739C24.9392 30.6739 28.808 28.7143 28.808 26.2127C28.808 24.2771 26.488 22.6707 23.152 22.0407ZM17.844 20.6403C17.67 19.7435 17.49 18.8163 17.408 18.1903L17.3712 17.9171C17.1844 16.5239 16.9912 15.0831 17.6592 13.9011C18.2632 12.8339 19.3824 12.6747 19.996 12.6747C20.6008 12.6747 21.706 12.8291 22.312 13.8647C22.942 14.9415 22.8492 16.2747 22.7048 17.5171L21.966 21.8619L21.7648 23.0467L21.3292 25.6087C21.2008 25.7671 20.6752 26.1047 19.996 26.1047C19.3184 26.1047 18.7936 25.7687 18.664 25.6099C18.6088 25.2114 18.548 24.8138 18.4816 24.4171C18.4184 24.0283 18.3552 23.6423 18.2916 23.1583C18.2868 23.1211 18.2804 23.0803 18.2752 23.0419C18.217 22.6455 18.1508 22.2503 18.0764 21.8567C18.0008 21.4508 17.9233 21.0454 17.844 20.6403ZM20 29.4739C15.516 29.4739 12.3916 27.7551 12.3916 26.2127C12.3916 25.0331 14.2224 23.7535 17.0872 23.2151C17.092 23.2479 17.0972 23.2831 17.1012 23.3151C17.1668 23.8127 17.2316 24.2099 17.2972 24.6103C17.3556 24.9703 17.4144 25.3323 17.4748 25.7763C17.5308 26.5563 18.7516 27.3051 19.9956 27.3051C21.2324 27.3051 22.4468 26.5651 22.5156 25.7899L22.9516 23.2219C25.7944 23.7643 27.6084 25.0383 27.6084 26.2127C27.6084 27.7551 24.4836 29.4739 20 29.4739Z" fill="#65FF00"/>
</svg>
