<svg width="439" height="388" viewBox="0 0 439 388" fill="none" xmlns="http://www.w3.org/2000/svg">
<g opacity="0.45">
<path d="M341.605 387.104C387.169 387.104 424.105 350.167 424.105 304.604C424.105 259.041 387.169 222.104 341.605 222.104C296.042 222.104 259.105 259.041 259.105 304.604C259.105 350.167 296.042 387.104 341.605 387.104Z" fill="black"/>
<path d="M159.605 281.104C237.201 281.104 300.105 218.2 300.105 140.604C300.105 63.008 237.201 0.104004 159.605 0.104004C82.0095 0.104004 19.1055 63.008 19.1055 140.604C19.1055 218.2 82.0095 281.104 159.605 281.104Z" fill="black"/>
</g>
<path d="M83.4925 346.86H81.2825C80.8745 346.86 80.5435 346.529 80.5435 346.121C80.5435 345.713 80.8745 345.382 81.2825 345.382H83.4925C83.9005 345.382 84.2315 345.713 84.2315 346.121C84.2315 346.529 83.9005 346.86 83.4925 346.86ZM76.3585 346.86H71.4335C71.0255 346.86 70.6945 346.529 70.6945 346.121C70.6945 345.713 71.0255 345.382 71.4335 345.382H76.3585C76.7665 345.382 77.0975 345.713 77.0975 346.121C77.0975 346.529 76.7665 346.86 76.3585 346.86ZM66.5085 346.86H61.5835C61.1755 346.86 60.8445 346.529 60.8445 346.121C60.8445 345.713 61.1755 345.382 61.5835 345.382H66.5085C66.9165 345.382 67.2475 345.713 67.2475 346.121C67.2475 346.529 66.9165 346.86 66.5085 346.86ZM56.6585 346.86H51.7335C51.3255 346.86 50.9945 346.529 50.9945 346.121C50.9945 345.713 51.3255 345.382 51.7335 345.382H56.6585C57.0665 345.382 57.3975 345.713 57.3975 346.121C57.3975 346.529 57.0665 346.86 56.6585 346.86ZM46.8085 346.86H41.8835C41.4755 346.86 41.1445 346.529 41.1445 346.121C41.1445 345.713 41.4755 345.382 41.8835 345.382H46.8085C47.2165 345.382 47.5475 345.713 47.5475 346.121C47.5475 346.529 47.2165 346.86 46.8085 346.86ZM36.9585 346.86H32.0335C31.6255 346.86 31.2945 346.529 31.2945 346.121C31.2945 345.713 31.6255 345.382 32.0335 345.382H36.9585C37.3665 345.382 37.6975 345.713 37.6975 346.121C37.6975 346.529 37.3665 346.86 36.9585 346.86ZM27.1085 346.853C27.1015 346.853 27.0955 346.853 27.0885 346.852C25.3715 346.804 23.6755 346.524 22.0475 346.018C21.6575 345.897 21.4405 345.483 21.5615 345.093C21.6825 344.704 22.0925 344.486 22.4855 344.607C23.9855 345.073 25.5475 345.331 27.1295 345.376C27.5365 345.387 27.8585 345.727 27.8475 346.135C27.8365 346.535 27.5085 346.853 27.1085 346.853ZM17.8225 343.966C17.6845 343.966 17.5455 343.927 17.4215 343.847C15.9895 342.918 14.6865 341.796 13.5515 340.511C13.2825 340.205 13.3115 339.738 13.6165 339.468C13.9205 339.198 14.3875 339.226 14.6595 339.532C15.7055 340.716 16.9045 341.75 18.2255 342.606C18.5675 342.828 18.6655 343.286 18.4425 343.628C18.3015 343.847 18.0655 343.966 17.8225 343.966ZM11.3855 336.674C11.1105 336.674 10.8465 336.521 10.7185 336.257C9.97449 334.713 9.44449 333.077 9.14449 331.395C9.07349 330.993 9.34049 330.61 9.74249 330.538C10.1415 330.471 10.5275 330.734 10.5985 331.136C10.8745 332.686 11.3625 334.192 12.0495 335.614C12.2265 335.981 12.0725 336.423 11.7055 336.6C11.6025 336.651 11.4935 336.674 11.3855 336.674ZM9.59349 327.097C9.18549 327.097 8.85449 326.766 8.85449 326.358V321.433C8.85449 321.025 9.18549 320.694 9.59349 320.694C10.0015 320.694 10.3325 321.025 10.3325 321.433V326.358C10.3325 326.766 10.0015 327.097 9.59349 327.097ZM9.59349 317.247C9.18549 317.247 8.85449 316.916 8.85449 316.508V311.583C8.85449 311.175 9.18549 310.844 9.59349 310.844C10.0015 310.844 10.3325 311.175 10.3325 311.583V316.508C10.3325 316.916 10.0015 317.247 9.59349 317.247ZM9.59349 307.397C9.18549 307.397 8.85449 307.066 8.85449 306.658V301.733C8.85449 301.325 9.18549 300.994 9.59349 300.994C10.0015 300.994 10.3325 301.325 10.3325 301.733V306.658C10.3325 307.066 10.0015 307.397 9.59349 307.397ZM9.59349 297.547C9.18549 297.547 8.85449 297.216 8.85449 296.808V291.883C8.85449 291.475 9.18549 291.144 9.59349 291.144C10.0015 291.144 10.3325 291.475 10.3325 291.883V296.808C10.3325 297.216 10.0015 297.547 9.59349 297.547ZM9.59349 287.697C9.18549 287.697 8.85449 287.366 8.85449 286.958V282.033C8.85449 281.625 9.18549 281.294 9.59349 281.294C10.0015 281.294 10.3325 281.625 10.3325 282.033V286.958C10.3325 287.366 10.0015 287.697 9.59349 287.697ZM9.59349 277.847C9.18549 277.847 8.85449 277.516 8.85449 277.108V272.183C8.85449 271.775 9.18549 271.444 9.59349 271.444C10.0015 271.444 10.3325 271.775 10.3325 272.183V277.108C10.3325 277.517 10.0015 277.847 9.59349 277.847ZM9.59349 267.997C9.18549 267.997 8.85449 267.666 8.85449 267.258V262.333C8.85449 261.925 9.18549 261.594 9.59349 261.594C10.0015 261.594 10.3325 261.925 10.3325 262.333V267.258C10.3325 267.667 10.0015 267.997 9.59349 267.997ZM9.59349 258.148C9.18549 258.148 8.85449 257.817 8.85449 257.409V252.484C8.85449 252.076 9.18549 251.745 9.59349 251.745C10.0015 251.745 10.3325 252.076 10.3325 252.484V257.409C10.3325 257.817 10.0015 258.148 9.59349 258.148ZM9.59349 248.298C9.18549 248.298 8.85449 247.967 8.85449 247.559V242.634C8.85449 242.226 9.18549 241.895 9.59349 241.895C10.0015 241.895 10.3325 242.226 10.3325 242.634V247.559C10.3325 247.967 10.0015 248.298 9.59349 248.298ZM9.59349 238.448C9.18549 238.448 8.85449 238.117 8.85449 237.709V232.784C8.85449 232.376 9.18549 232.045 9.59349 232.045C10.0015 232.045 10.3325 232.376 10.3325 232.784V237.709C10.3325 238.117 10.0015 238.448 9.59349 238.448ZM9.59349 228.598C9.18549 228.598 8.85449 228.267 8.85449 227.859V222.934C8.85449 222.526 9.18549 222.195 9.59349 222.195C10.0015 222.195 10.3325 222.526 10.3325 222.934V227.859C10.3325 228.267 10.0015 228.598 9.59349 228.598ZM9.59349 218.748C9.18549 218.748 8.85449 218.417 8.85449 218.009V213.084C8.85449 212.676 9.18549 212.345 9.59349 212.345C10.0015 212.345 10.3325 212.676 10.3325 213.084V218.009C10.3325 218.417 10.0015 218.748 9.59349 218.748ZM9.59349 208.898C9.18549 208.898 8.85449 208.567 8.85449 208.159V207.661C8.85449 206.118 9.04249 204.583 9.41249 203.101C9.51149 202.705 9.92049 202.465 10.3085 202.563C10.7045 202.662 10.9455 203.063 10.8465 203.458C10.5065 204.823 10.3325 206.237 10.3325 207.66V208.158C10.3325 208.567 10.0015 208.898 9.59349 208.898ZM11.9595 199.465C11.8355 199.465 11.7095 199.434 11.5935 199.368C11.2395 199.166 11.1165 198.714 11.3185 198.36C12.1655 196.877 13.2135 195.514 14.4325 194.309C14.7235 194.023 15.1905 194.025 15.4775 194.315C15.7645 194.605 15.7625 195.073 15.4715 195.36C14.3485 196.47 13.3825 197.726 12.6025 199.092C12.4655 199.331 12.2165 199.465 11.9595 199.465ZM18.8785 192.628C18.6185 192.628 18.3665 192.491 18.2325 192.248C18.0345 191.891 18.1625 191.442 18.5195 191.243C20.0175 190.411 21.6205 189.79 23.2855 189.395C23.6865 189.303 24.0795 189.546 24.1745 189.944C24.2685 190.341 24.0235 190.739 23.6265 190.833C22.0935 191.196 20.6165 191.768 19.2375 192.535C19.1235 192.598 19.0005 192.628 18.8785 192.628ZM141.615 190.369H136.69C136.282 190.369 135.951 190.038 135.951 189.63C135.951 189.222 136.282 188.891 136.69 188.891H141.615C142.023 188.891 142.354 189.222 142.354 189.63C142.354 190.038 142.023 190.369 141.615 190.369ZM131.766 190.369H126.841C126.433 190.369 126.102 190.038 126.102 189.63C126.102 189.222 126.433 188.891 126.841 188.891H131.766C132.174 188.891 132.505 189.222 132.505 189.63C132.504 190.038 132.173 190.369 131.766 190.369ZM121.916 190.369H116.991C116.583 190.369 116.252 190.038 116.252 189.63C116.252 189.222 116.583 188.891 116.991 188.891H121.916C122.324 188.891 122.655 189.222 122.655 189.63C122.654 190.038 122.324 190.369 121.916 190.369ZM112.066 190.369H107.141C106.733 190.369 106.402 190.038 106.402 189.63C106.402 189.222 106.733 188.891 107.141 188.891H112.066C112.474 188.891 112.805 189.222 112.805 189.63C112.805 190.038 112.474 190.369 112.066 190.369ZM102.216 190.369H97.2915C96.8835 190.369 96.5525 190.038 96.5525 189.63C96.5525 189.222 96.8835 188.891 97.2915 188.891H102.216C102.624 188.891 102.955 189.222 102.955 189.63C102.955 190.038 102.624 190.369 102.216 190.369ZM92.3665 190.369H87.4415C87.0335 190.369 86.7025 190.038 86.7025 189.63C86.7025 189.222 87.0335 188.891 87.4415 188.891H92.3665C92.7745 188.891 93.1055 189.222 93.1055 189.63C93.1055 190.038 92.7745 190.369 92.3665 190.369ZM82.5165 190.369H77.5915C77.1835 190.369 76.8525 190.038 76.8525 189.63C76.8525 189.222 77.1835 188.891 77.5915 188.891H82.5165C82.9245 188.891 83.2555 189.222 83.2555 189.63C83.2555 190.038 82.9245 190.369 82.5165 190.369ZM72.6665 190.369H67.7415C67.3335 190.369 67.0025 190.038 67.0025 189.63C67.0025 189.222 67.3335 188.891 67.7415 188.891H72.6665C73.0745 188.891 73.4055 189.222 73.4055 189.63C73.4055 190.038 73.0745 190.369 72.6665 190.369ZM62.8165 190.369H57.8915C57.4835 190.369 57.1525 190.038 57.1525 189.63C57.1525 189.222 57.4835 188.891 57.8915 188.891H62.8165C63.2245 188.891 63.5555 189.222 63.5555 189.63C63.5555 190.038 63.2245 190.369 62.8165 190.369ZM52.9665 190.369H48.0415C47.6335 190.369 47.3025 190.038 47.3025 189.63C47.3025 189.222 47.6335 188.891 48.0415 188.891H52.9665C53.3745 188.891 53.7055 189.222 53.7055 189.63C53.7055 190.038 53.3745 190.369 52.9665 190.369ZM43.1165 190.369H38.1915C37.7835 190.369 37.4525 190.038 37.4525 189.63C37.4525 189.222 37.7835 188.891 38.1915 188.891H43.1165C43.5245 188.891 43.8555 189.222 43.8555 189.63C43.8555 190.038 43.5245 190.369 43.1165 190.369ZM33.2665 190.369H28.3415C27.9335 190.369 27.6025 190.038 27.6025 189.63C27.6025 189.222 27.9335 188.891 28.3415 188.891H33.2665C33.6745 188.891 34.0055 189.222 34.0055 189.63C34.0055 190.038 33.6745 190.369 33.2665 190.369Z" fill="#69FF00"/>
<path d="M9.594 271.313C11.3718 271.313 12.813 269.872 12.813 268.094C12.813 266.316 11.3718 264.875 9.594 264.875C7.81619 264.875 6.375 266.316 6.375 268.094C6.375 269.872 7.81619 271.313 9.594 271.313Z" fill="#69FF00"/>
<path d="M9.59354 274.128C6.26754 274.128 3.56055 271.422 3.56055 268.095C3.56055 264.768 6.26754 262.062 9.59354 262.062C12.9195 262.062 15.6265 264.768 15.6265 268.095C15.6265 271.421 12.9195 274.128 9.59354 274.128ZM9.59354 262.8C6.67454 262.8 4.29955 265.175 4.29955 268.094C4.29955 271.013 6.67454 273.388 9.59354 273.388C12.5125 273.388 14.8875 271.013 14.8875 268.094C14.8875 265.175 12.5135 262.8 9.59354 262.8Z" fill="#69FF00"/>
<path d="M175.402 167.857C174.906 167.857 174.503 167.454 174.503 166.958V160.966C174.503 160.47 174.906 160.067 175.402 160.067C175.898 160.067 176.301 160.47 176.301 160.966V166.958C176.301 167.454 175.898 167.857 175.402 167.857ZM175.402 155.873C174.906 155.873 174.503 155.47 174.503 154.974V148.982C174.503 148.486 174.906 148.083 175.402 148.083C175.898 148.083 176.301 148.486 176.301 148.982V154.974C176.301 155.47 175.898 155.873 175.402 155.873ZM175.402 143.888C174.906 143.888 174.503 143.485 174.503 142.989V136.997C174.503 136.501 174.906 136.098 175.402 136.098C175.898 136.098 176.301 136.501 176.301 136.997V142.989C176.301 143.486 175.898 143.888 175.402 143.888ZM175.402 131.904C174.906 131.904 174.503 131.501 174.503 131.005V125.013C174.503 124.517 174.906 124.114 175.402 124.114C175.898 124.114 176.301 124.517 176.301 125.013V131.005C176.301 131.502 175.898 131.904 175.402 131.904ZM175.402 119.92C174.906 119.92 174.503 119.517 174.503 119.021V113.029C174.503 112.533 174.906 112.13 175.402 112.13C175.898 112.13 176.301 112.533 176.301 113.029V119.021C176.301 119.517 175.898 119.92 175.402 119.92ZM175.402 107.936C174.906 107.936 174.503 107.533 174.503 107.037V101.045C174.503 100.549 174.906 100.146 175.402 100.146C175.898 100.146 176.301 100.549 176.301 101.045V107.037C176.301 107.533 175.898 107.936 175.402 107.936ZM270.564 97.1412C270.068 97.1412 269.665 96.7382 269.665 96.2422V92.9162C269.665 92.4202 270.068 92.0172 270.564 92.0172C271.06 92.0172 271.463 92.4202 271.463 92.9162V96.2422C271.463 96.7382 271.06 97.1412 270.564 97.1412ZM175.402 95.9522C174.906 95.9522 174.503 95.5502 174.503 95.0532V89.0612C174.503 88.5652 174.906 88.1622 175.402 88.1622C175.898 88.1622 176.301 88.5652 176.301 89.0612V95.0532C176.301 95.5492 175.898 95.9522 175.402 95.9522ZM270.564 87.8232C270.068 87.8232 269.665 87.4212 269.665 86.9242V80.9322C269.665 80.4362 270.068 80.0332 270.564 80.0332C271.06 80.0332 271.463 80.4362 271.463 80.9322V86.9242C271.463 87.4202 271.06 87.8232 270.564 87.8232ZM175.402 83.9682C174.906 83.9682 174.503 83.5652 174.503 83.0692V77.0772C174.503 76.5812 174.906 76.1782 175.402 76.1782C175.898 76.1782 176.301 76.5812 176.301 77.0772V83.0692C176.301 83.5652 175.898 83.9682 175.402 83.9682ZM270.564 75.8382C270.068 75.8382 269.665 75.4352 269.665 74.9392V68.9472C269.665 68.4512 270.068 68.0482 270.564 68.0482C271.06 68.0482 271.463 68.4512 271.463 68.9472V74.9392C271.463 75.4362 271.06 75.8382 270.564 75.8382ZM175.402 71.9832C174.906 71.9832 174.503 71.5802 174.503 71.0842V65.0922C174.503 64.5962 174.906 64.1932 175.402 64.1932C175.898 64.1932 176.301 64.5962 176.301 65.0922V71.0842C176.301 71.5812 175.898 71.9832 175.402 71.9832ZM270.564 63.8542C270.068 63.8542 269.665 63.4512 269.665 62.9552V56.9632C269.665 56.4672 270.068 56.0642 270.564 56.0642C271.06 56.0642 271.463 56.4672 271.463 56.9632V62.9552C271.463 63.4522 271.06 63.8542 270.564 63.8542ZM175.402 59.9992C174.906 59.9992 174.503 59.5962 174.503 59.1002V53.1082C174.503 52.6122 174.906 52.2092 175.402 52.2092C175.898 52.2092 176.301 52.6122 176.301 53.1082V59.1002C176.301 59.5972 175.898 59.9992 175.402 59.9992ZM270.564 51.8702C270.068 51.8702 269.665 51.4672 269.665 50.9712V44.9792C269.665 44.4832 270.068 44.0802 270.564 44.0802C271.06 44.0802 271.463 44.4832 271.463 44.9792V50.9712C271.463 51.4682 271.06 51.8702 270.564 51.8702ZM175.402 48.0152C174.906 48.0152 174.503 47.6122 174.503 47.1162V41.1242C174.503 40.6282 174.906 40.2252 175.402 40.2252C175.898 40.2252 176.301 40.6282 176.301 41.1242V47.1162C176.301 47.6122 175.898 48.0152 175.402 48.0152ZM270.564 39.8862C270.068 39.8862 269.665 39.4832 269.665 38.9872V32.9952C269.665 32.4992 270.068 32.0962 270.564 32.0962C271.06 32.0962 271.463 32.4992 271.463 32.9952V38.9872C271.463 39.4832 271.06 39.8862 270.564 39.8862ZM175.402 36.0312C174.906 36.0312 174.503 35.6282 174.503 35.1322V29.1402C174.503 28.6442 174.906 28.2412 175.402 28.2412C175.898 28.2412 176.301 28.6442 176.301 29.1402V35.1322C176.301 35.6282 175.898 36.0312 175.402 36.0312ZM270.525 27.9032C270.052 27.9032 269.656 27.5332 269.629 27.0552C269.52 25.1342 269.15 23.2442 268.53 21.4352C268.37 20.9662 268.62 20.4542 269.089 20.2932C269.554 20.1332 270.071 20.3822 270.23 20.8522C270.904 22.8162 271.306 24.8692 271.424 26.9532C271.452 27.4492 271.073 27.8732 270.578 27.9022C270.56 27.9022 270.543 27.9032 270.525 27.9032ZM175.993 24.0942C175.924 24.0942 175.855 24.0862 175.785 24.0702C175.302 23.9552 175.003 23.4712 175.118 22.9882C175.598 20.9602 176.355 19.0092 177.367 17.1892C177.607 16.7552 178.156 16.5992 178.589 16.8412C179.023 17.0822 179.179 17.6302 178.938 18.0642C178.005 19.7392 177.309 21.5362 176.867 23.4032C176.769 23.8162 176.4 24.0942 175.993 24.0942ZM266.692 16.7142C266.406 16.7142 266.126 16.5792 265.951 16.3272C264.859 14.7472 263.559 13.3242 262.085 12.0972C261.705 11.7792 261.652 11.2122 261.97 10.8312C262.288 10.4482 262.854 10.3992 263.236 10.7162C264.834 12.0472 266.244 13.5912 267.429 15.3042C267.711 15.7132 267.609 16.2722 267.201 16.5552C267.047 16.6632 266.868 16.7142 266.692 16.7142ZM181.735 13.7472C181.507 13.7472 181.279 13.6602 181.103 13.4872C180.75 13.1382 180.747 12.5692 181.096 12.2162C182.562 10.7332 184.22 9.45818 186.023 8.42718C186.452 8.18118 187.003 8.33118 187.25 8.76218C187.496 9.19318 187.346 9.74218 186.915 9.98918C185.253 10.9382 183.726 12.1132 182.374 13.4812C182.198 13.6582 181.966 13.7472 181.735 13.7472ZM257.598 9.13918C257.475 9.13918 257.35 9.11418 257.231 9.06118C255.48 8.27618 253.63 7.73618 251.733 7.45518C251.241 7.38318 250.902 6.92518 250.975 6.43418C251.048 5.94318 251.5 5.59318 251.996 5.67718C254.057 5.98118 256.065 6.56818 257.967 7.42018C258.42 7.62318 258.622 8.15518 258.42 8.60818C258.269 8.94118 257.941 9.13918 257.598 9.13918ZM192.008 7.88018C191.605 7.88018 191.239 7.60718 191.137 7.19918C191.017 6.71718 191.309 6.22918 191.791 6.10918C193.594 5.65918 195.461 5.43018 197.339 5.43018H197.945C198.441 5.43018 198.844 5.83318 198.844 6.32918C198.844 6.82518 198.441 7.22818 197.945 7.22818H197.339C195.608 7.22818 193.888 7.43818 192.226 7.85318C192.154 7.87118 192.08 7.88018 192.008 7.88018ZM245.883 7.22818H239.891C239.395 7.22818 238.992 6.82518 238.992 6.32918C238.992 5.83318 239.395 5.43018 239.891 5.43018H245.883C246.379 5.43018 246.782 5.83318 246.782 6.32918C246.782 6.82518 246.379 7.22818 245.883 7.22818ZM233.899 7.22818H227.907C227.411 7.22818 227.008 6.82518 227.008 6.32918C227.008 5.83318 227.411 5.43018 227.907 5.43018H233.899C234.395 5.43018 234.798 5.83318 234.798 6.32918C234.797 6.82518 234.395 7.22818 233.899 7.22818ZM221.914 7.22818H215.922C215.426 7.22818 215.023 6.82518 215.023 6.32918C215.023 5.83318 215.426 5.43018 215.922 5.43018H221.914C222.41 5.43018 222.813 5.83318 222.813 6.32918C222.813 6.82518 222.411 7.22818 221.914 7.22818ZM209.93 7.22818H203.938C203.442 7.22818 203.039 6.82518 203.039 6.32918C203.039 5.83318 203.442 5.43018 203.938 5.43018H209.93C210.426 5.43018 210.829 5.83318 210.829 6.32918C210.829 6.82518 210.427 7.22818 209.93 7.22818Z" fill="#65FF00"/>
<path d="M222.983 9.70615C224.849 9.70615 226.36 8.19421 226.36 6.32915C226.36 4.46408 224.849 2.95215 222.983 2.95215C221.118 2.95215 219.606 4.46408 219.606 6.32915C219.606 8.19421 221.118 9.70615 222.983 9.70615Z" fill="#65FF00"/>
<path d="M222.983 12.658C219.493 12.658 216.654 9.81899 216.654 6.32899C216.654 2.83899 219.494 0 222.983 0C226.473 0 229.312 2.83899 229.312 6.32899C229.312 9.81899 226.473 12.658 222.983 12.658ZM222.983 0.774994C219.92 0.774994 217.429 3.26699 217.429 6.32899C217.429 9.39199 219.921 11.883 222.983 11.883C226.046 11.883 228.537 9.39099 228.537 6.32899C228.537 3.26699 226.046 0.774994 222.983 0.774994Z" fill="#65FF00"/>
<path d="M227.018 55.0181H169.064V64.9261H227.018V55.0181Z" fill="black"/>
<path opacity="0.9" d="M273.839 51.2891H232.412C229.397 51.2891 226.537 52.3011 224.599 54.0541L213.345 62.4751H169.01C167.157 62.4751 165.654 63.9781 165.654 65.8311V127.194C165.654 129.047 167.157 130.55 169.01 130.55H277.035C278.888 130.55 280.391 129.048 280.391 127.194V67.9081V65.8311V58.7471C280.391 54.8051 277.458 51.2891 273.839 51.2891Z" fill="#65FF00"/>
<path d="M102.622 236.72L96.4778 242.676C96.2738 242.874 96.0948 243.089 95.9328 243.312C91.8458 240.632 87.3828 238.751 82.7638 237.671C82.8158 237.393 82.8528 237.111 82.8558 236.823L82.9478 228.266C82.9758 225.604 80.8338 223.414 78.1708 223.386L69.6138 223.294C66.9528 223.266 64.7618 225.408 64.7338 228.071L64.6418 236.628C64.6388 236.916 64.6698 237.198 64.7148 237.476C60.1978 238.43 55.8118 240.147 51.7578 242.629C51.6028 242.401 51.4308 242.181 51.2328 241.977L45.2768 235.833C43.4228 233.921 40.3598 233.873 38.4478 235.727L32.3038 241.683C30.3918 243.537 30.3448 246.6 32.1978 248.512L38.1538 254.656C38.3518 254.86 38.5668 255.039 38.7888 255.201C36.1088 259.288 34.2278 263.751 33.1478 268.37C32.8708 268.318 32.5888 268.281 32.2998 268.278L23.7428 268.186C22.4608 268.172 21.2498 268.655 20.3298 269.547C20.3238 269.552 20.3188 269.558 20.3138 269.564C19.3918 270.466 18.8768 271.674 18.8628 272.963L18.7708 281.52C18.7428 284.182 20.8848 286.372 23.5478 286.4L32.1048 286.492C32.3948 286.495 32.6748 286.462 32.9518 286.416C33.9058 290.934 35.6228 295.321 38.1058 299.375C37.8778 299.53 37.6578 299.702 37.4538 299.9L31.3098 305.856C29.3978 307.71 29.3508 310.773 31.2038 312.684L37.1598 318.828C39.0138 320.74 42.0768 320.787 43.9888 318.934L50.1328 312.978C50.3368 312.78 50.5158 312.565 50.6778 312.343C54.7658 315.023 59.2298 316.904 63.8498 317.984C63.7978 318.26 63.7578 318.541 63.7548 318.831L63.6628 327.388C63.6488 328.678 64.1378 329.896 65.0408 330.818C65.9428 331.74 67.1508 332.255 68.4398 332.269L76.9968 332.361C78.3198 332.375 79.5258 331.853 80.4078 330.998C81.3008 330.132 81.8628 328.924 81.8768 327.585L81.9688 319.028C81.9718 318.738 81.9388 318.458 81.8928 318.181C86.4108 317.227 90.7978 315.51 94.8528 313.027C95.0078 313.255 95.1798 313.475 95.3778 313.679L101.334 319.823C103.188 321.735 106.251 321.782 108.163 319.929L114.307 313.973C116.219 312.119 116.266 309.056 114.413 307.144L108.457 301C108.259 300.796 108.044 300.617 107.821 300.455C110.501 296.367 112.382 291.904 113.462 287.283C113.738 287.335 114.019 287.375 114.309 287.378L122.866 287.47C124.189 287.484 125.395 286.962 126.278 286.107C127.171 285.241 127.733 284.033 127.747 282.694L127.84 274.137C127.868 271.474 125.725 269.285 123.063 269.256L114.506 269.164C114.218 269.161 113.936 269.191 113.658 269.237C112.704 264.72 110.987 260.334 108.505 256.28C108.733 256.125 108.953 255.953 109.157 255.755L115.301 249.799C117.213 247.945 117.26 244.882 115.407 242.971L109.451 236.827C107.596 234.914 104.533 234.866 102.622 236.72ZM89.0918 294.11C80.1128 302.815 65.7268 302.592 57.0218 293.614C48.3168 284.635 48.5398 270.249 57.5188 261.544C66.4978 252.839 80.8838 253.062 89.5888 262.041C98.2928 271.019 98.0698 285.405 89.0918 294.11Z" stroke="#65FF00" stroke-miterlimit="10"/>
<path d="M265.589 306.861H173.618V350.949H265.589V306.861Z" fill="#F0F0F0"/>
<path d="M372.384 98.7081V299.55C372.384 306.001 367.155 311.23 360.695 311.23H78.5113C72.0603 311.23 66.8223 306.001 66.8223 299.55V98.7081C66.8223 92.2571 72.0603 87.019 78.5113 87.019H360.695C367.155 87.019 372.384 92.2571 372.384 98.7081Z" fill="white"/>
<path opacity="0.5" d="M225.106 297.104C225.106 300.418 222.42 303.104 219.106 303.104C215.792 303.104 213.106 300.418 213.106 297.104C213.106 293.79 215.792 291.104 219.106 291.104C222.42 291.104 225.106 293.79 225.106 297.104Z" fill="#2F2F2F"/>
<path d="M368.714 283.869V100.958C368.714 95.4139 364.374 90.9199 359.021 90.9199H80.1862C74.8332 90.9199 70.4932 95.4139 70.4932 100.958V283.869H368.714Z" fill="black"/>
<path d="M283.685 355.699H155.522V355.392C155.522 350.314 159.639 346.198 164.716 346.198H274.49C279.568 346.198 283.684 350.314 283.684 355.392V355.699H283.685Z" fill="white"/>
<path d="M94.538 89.0432C94.538 80.1902 87.864 72.9052 79.275 71.9212C79.341 71.3422 79.383 70.7562 79.383 70.1602C79.383 61.6722 72.502 54.7922 64.015 54.7922C61.741 54.7922 59.59 55.2992 57.648 56.1852C53.556 49.8062 46.408 45.5762 38.266 45.5762C25.554 45.5762 15.249 55.8812 15.249 68.5932C15.249 69.7122 15.333 70.8122 15.488 71.8882C6.789 72.7682 0 80.1132 0 89.0442C0 98.5682 7.721 106.289 17.245 106.289H78.148V106.246C87.272 105.796 94.538 98.2782 94.538 89.0432Z" fill="#FEFFFD"/>
<path d="M58.3143 119.447V92.6533H36.2243V119.447H29.3193L47.2693 136.264L65.2203 119.447H58.3143Z" fill="#65FF00"/>
<path d="M302.341 101.713H248.104C243.089 101.713 239.023 97.6472 239.023 92.6322V74.5942C239.023 69.5792 243.089 65.5132 248.104 65.5132H302.341C307.356 65.5132 311.422 69.5792 311.422 74.5942V92.6312C311.422 97.6472 307.356 101.713 302.341 101.713Z" fill="#65FF00"/>
<path d="M99.8824 362.208H45.6464C40.6314 362.208 36.5654 358.142 36.5654 353.127V335.09C36.5654 330.075 40.6314 326.009 45.6464 326.009H99.8834C104.898 326.009 108.964 330.075 108.964 335.09V353.127C108.964 358.142 104.898 362.208 99.8824 362.208Z" fill="#65FF00"/>
<path d="M125.963 209.069H71.7255C66.7105 209.069 62.6445 205.003 62.6445 199.988V181.951C62.6445 176.936 66.7105 172.87 71.7255 172.87H125.963C130.978 172.87 135.044 176.936 135.044 181.951V199.988C135.044 205.003 130.978 209.069 125.963 209.069Z" fill="#65FF00"/>
<path d="M317.073 324.971H314.49C314.062 324.971 313.715 324.624 313.715 324.196C313.715 323.768 314.062 323.421 314.49 323.421H317.073C317.501 323.421 317.848 323.768 317.848 324.196C317.848 324.624 317.501 324.971 317.073 324.971Z" fill="#65FF00"/>
<path d="M379.086 324.971H373.918C373.49 324.971 373.143 324.624 373.143 324.196C373.143 323.768 373.49 323.421 373.918 323.421H379.086C379.514 323.421 379.861 323.768 379.861 324.196C379.861 324.624 379.514 324.971 379.086 324.971ZM368.75 324.971H363.583C363.155 324.971 362.808 324.624 362.808 324.196C362.808 323.768 363.155 323.421 363.583 323.421H368.75C369.178 323.421 369.525 323.768 369.525 324.196C369.525 324.624 369.178 324.971 368.75 324.971ZM358.415 324.971H353.247C352.819 324.971 352.472 324.624 352.472 324.196C352.472 323.768 352.819 323.421 353.247 323.421H358.415C358.843 323.421 359.19 323.768 359.19 324.196C359.19 324.624 358.843 324.971 358.415 324.971ZM348.079 324.971H342.911C342.483 324.971 342.136 324.624 342.136 324.196C342.136 323.768 342.483 323.421 342.911 323.421H348.079C348.507 323.421 348.854 323.768 348.854 324.196C348.855 324.624 348.507 324.971 348.079 324.971ZM337.744 324.971H332.577C332.149 324.971 331.802 324.624 331.802 324.196C331.802 323.768 332.149 323.421 332.577 323.421H337.744C338.172 323.421 338.519 323.768 338.519 324.196C338.519 324.624 338.172 324.971 337.744 324.971ZM327.409 324.971H322.241C321.813 324.971 321.466 324.624 321.466 324.196C321.466 323.768 321.813 323.421 322.241 323.421H327.409C327.837 323.421 328.184 323.768 328.184 324.196C328.184 324.624 327.837 324.971 327.409 324.971ZM384.203 324.37C383.854 324.37 383.537 324.132 383.451 323.777C383.35 323.361 383.605 322.942 384.021 322.841C385.635 322.45 387.2 321.863 388.671 321.095C389.051 320.897 389.519 321.044 389.716 321.424C389.914 321.803 389.767 322.271 389.387 322.469C387.804 323.295 386.121 323.927 384.386 324.347C384.325 324.363 384.264 324.37 384.203 324.37ZM393.281 319.644C393.066 319.644 392.852 319.555 392.699 319.381C392.416 319.06 392.448 318.57 392.77 318.287C394.018 317.19 395.133 315.944 396.084 314.584C396.328 314.233 396.811 314.147 397.163 314.393C397.514 314.638 397.599 315.122 397.354 315.472C396.333 316.933 395.135 318.272 393.794 319.451C393.646 319.58 393.463 319.644 393.281 319.644ZM399.14 311.256C399.047 311.256 398.952 311.239 398.861 311.204C398.462 311.05 398.263 310.601 398.418 310.202C399.016 308.654 399.424 307.034 399.631 305.387C399.684 304.962 400.058 304.66 400.497 304.715C400.922 304.768 401.223 305.156 401.169 305.581C400.946 307.353 400.507 309.095 399.863 310.761C399.745 311.068 399.451 311.256 399.14 311.256ZM400.57 301.1C400.142 301.1 399.795 300.753 399.795 300.325V295.157C399.795 294.729 400.142 294.382 400.57 294.382C400.998 294.382 401.345 294.729 401.345 295.157V300.325C401.346 300.753 400.998 301.1 400.57 301.1ZM400.57 290.764C400.142 290.764 399.795 290.417 399.795 289.989V284.822C399.795 284.394 400.142 284.047 400.57 284.047C400.998 284.047 401.345 284.394 401.345 284.822V289.989C401.346 290.417 400.998 290.764 400.57 290.764ZM400.57 280.429C400.142 280.429 399.795 280.082 399.795 279.654V274.487C399.795 274.059 400.142 273.712 400.57 273.712C400.998 273.712 401.345 274.059 401.345 274.487V279.654C401.346 280.082 400.998 280.429 400.57 280.429ZM400.57 270.094C400.142 270.094 399.795 269.747 399.795 269.319V264.151C399.795 263.723 400.142 263.376 400.57 263.376C400.998 263.376 401.345 263.723 401.345 264.151V269.319C401.346 269.746 400.998 270.094 400.57 270.094ZM400.57 259.759C400.142 259.759 399.795 259.412 399.795 258.984V253.816C399.795 253.388 400.142 253.041 400.57 253.041C400.998 253.041 401.345 253.388 401.345 253.816V258.984C401.346 259.411 400.998 259.759 400.57 259.759ZM400.57 249.423C400.142 249.423 399.795 249.076 399.795 248.648V243.481C399.795 243.053 400.142 242.706 400.57 242.706C400.998 242.706 401.345 243.053 401.345 243.481V248.648C401.346 249.076 400.998 249.423 400.57 249.423ZM400.57 239.087C400.142 239.087 399.795 238.74 399.795 238.312V233.144C399.795 232.716 400.142 232.369 400.57 232.369C400.998 232.369 401.345 232.716 401.345 233.144V238.312C401.346 238.74 400.998 239.087 400.57 239.087Z" fill="#65FF00"/>
<path d="M400.57 228.729C400.142 228.729 399.795 228.382 399.795 227.954V226.146H399.145C398.717 226.146 398.37 225.799 398.37 225.371C398.37 224.943 398.717 224.596 399.145 224.596H400.57C400.998 224.596 401.345 224.943 401.345 225.371V227.954C401.346 228.382 400.998 228.729 400.57 228.729Z" fill="#65FF00"/>
<path d="M376.517 147.099H308.712C304.636 147.099 301.332 150.403 301.332 154.479V295.388C301.332 299.464 304.636 302.768 308.712 302.768H376.517C380.593 302.768 383.897 299.464 383.897 295.388V154.479C383.897 150.403 380.593 147.099 376.517 147.099Z" fill="white"/>
<path d="M357.776 155.219H320.479C319.832 155.219 319.307 154.694 319.307 154.047V153.896C319.307 153.249 319.832 152.724 320.479 152.724H357.776C358.423 152.724 358.948 153.249 358.948 153.896V154.047C358.948 154.694 358.423 155.219 357.776 155.219Z" fill="#0F1B63"/>
<path d="M365.922 153.971C365.922 154.66 365.363 155.219 364.674 155.219C363.985 155.219 363.426 154.66 363.426 153.971C363.426 153.282 363.985 152.723 364.674 152.723C365.363 152.723 365.922 153.282 365.922 153.971Z" fill="#0F1B63"/>
<path d="M379.352 161.235H305.877V206.384H379.352V161.235Z" fill="white"/>
<path d="M356.554 180.101L351.167 186.545L337.228 169.87L313.922 197.749H341.801H360.532H371.307L356.554 180.101Z" fill="#202020"/>
<path d="M340.566 266.187H305.877V286.533H340.566V266.187Z" fill="white"/>
<path d="M329.803 274.094L327.259 277.136L320.678 269.263L309.675 282.426H322.837H331.681H336.768L329.803 274.094Z" fill="#202020"/>
<path d="M340.566 217.997H305.877V219.946H340.566V217.997Z" fill="#0B0B0B"/>
<path d="M340.566 213.913H305.877V215.862H340.566V213.913Z" fill="#0B0B0B"/>
<path d="M327.811 221.987H305.877V223.936H327.811V221.987Z" fill="#0B0B0B"/>
<path d="M340.565 221.987H329.37V223.936H340.565V221.987Z" fill="#0B0B0B"/>
<path d="M336.567 225.972H305.877V227.921H336.567V225.972Z" fill="#0B0B0B"/>
<path d="M316.536 230.066H305.877V232.015H316.536V230.066Z" fill="#0B0B0B"/>
<path d="M326.052 230.066H318.375V232.015H326.052V230.066Z" fill="#0B0B0B"/>
<path d="M379.352 245.292H344.663V247.241H379.352V245.292Z" fill="#0B0B0B"/>
<path d="M379.352 241.207H344.663V243.156H379.352V241.207Z" fill="#0B0B0B"/>
<path d="M366.597 249.281H344.663V251.23H366.597V249.281Z" fill="#0B0B0B"/>
<path d="M379.351 249.281H368.156V251.23H379.351V249.281Z" fill="#0B0B0B"/>
<path d="M375.353 253.266H344.663V255.215H375.353V253.266Z" fill="#0B0B0B"/>
<path d="M355.322 257.36H344.663V259.309H355.322V257.36Z" fill="#0B0B0B"/>
<path d="M364.838 257.36H357.161V259.309H364.838V257.36Z" fill="#0B0B0B"/>
<path d="M379.352 217.997H344.663V219.946H379.352V217.997Z" fill="#0B0B0B"/>
<path d="M379.352 213.913H344.663V215.862H379.352V213.913Z" fill="#0B0B0B"/>
<path d="M366.597 221.987H344.663V223.936H366.597V221.987Z" fill="#0B0B0B"/>
<path d="M379.351 221.987H368.156V223.936H379.351V221.987Z" fill="#0B0B0B"/>
<path d="M379.352 225.972H344.663V227.921H379.352V225.972Z" fill="#0B0B0B"/>
<path d="M355.322 230.066H344.663V232.015H355.322V230.066Z" fill="#0B0B0B"/>
<path d="M379.352 230.066H357.161V232.015H379.352V230.066Z" fill="#0B0B0B"/>
<path d="M340.566 245.292H305.877V247.241H340.566V245.292Z" fill="#0B0B0B"/>
<path d="M340.566 241.207H305.877V243.156H340.566V241.207Z" fill="#0B0B0B"/>
<path d="M340.566 249.281H305.877V251.23H340.566V249.281Z" fill="#0B0B0B"/>
<path d="M340.566 253.266H305.877V255.215H340.566V253.266Z" fill="#0B0B0B"/>
<path d="M340.566 257.36H305.877V259.309H340.566V257.36Z" fill="#0B0B0B"/>
<path d="M379.352 270.937H344.663V272.886H379.352V270.937Z" fill="#0B0B0B"/>
<path d="M379.352 266.853H344.663V268.802H379.352V266.853Z" fill="#0B0B0B"/>
<path d="M379.351 274.926H357.417V276.875H379.351V274.926Z" fill="#0B0B0B"/>
<path d="M355.858 274.926H344.663V276.875H355.858V274.926Z" fill="#0B0B0B"/>
<path d="M371.299 278.911H344.663V280.86H371.299V278.911Z" fill="#0B0B0B"/>
<path d="M379.351 278.911H373.149V280.86H379.351V278.911Z" fill="#0B0B0B"/>
<path d="M379.352 283.005H353.764V284.954H379.352V283.005Z" fill="#0B0B0B"/>
<path d="M352.34 283.005H344.663V284.954H352.34V283.005Z" fill="#0B0B0B"/>
<path d="M326.695 339.104H264.516C258.767 339.104 254.105 335.06 254.105 330.073V312.135C254.105 307.148 258.767 303.104 264.516 303.104H326.695C332.444 303.104 337.105 307.148 337.105 312.135V330.073C337.105 335.06 332.444 339.104 326.695 339.104Z" fill="#65FF00"/>
<path d="M403.364 278.929C403.364 280.794 401.852 282.306 399.987 282.306C398.122 282.306 396.61 280.794 396.61 278.929C396.61 277.064 398.122 275.552 399.987 275.552C401.852 275.552 403.364 277.064 403.364 278.929Z" fill="#65FF00"/>
<path d="M399.986 285.258C396.496 285.258 393.657 282.419 393.657 278.929C393.657 275.439 396.497 272.6 399.986 272.6C403.476 272.6 406.315 275.439 406.315 278.929C406.316 282.419 403.476 285.258 399.986 285.258ZM399.986 273.374C396.923 273.374 394.432 275.866 394.432 278.928C394.432 281.99 396.924 284.482 399.986 284.482C403.049 284.482 405.54 281.99 405.54 278.928C405.54 275.866 403.049 273.374 399.986 273.374Z" fill="#65FF00"/>
<path d="M429.13 229.378H374.893C369.878 229.378 365.812 225.312 365.812 220.297V202.26C365.812 197.245 369.878 193.179 374.893 193.179H429.13C434.145 193.179 438.211 197.245 438.211 202.26V220.297C438.211 225.312 434.145 229.378 429.13 229.378Z" fill="#65FF00"/>
<path d="M234.413 236.005H211.632V238.072H234.413V236.005Z" fill="white"/>
<path d="M293.014 236.005H240.257V238.072H293.014V236.005Z" fill="white"/>
<path d="M265.975 253.79C256.919 253.79 247.843 253.779 238.809 253.757L238.813 251.69C256.879 251.733 275.113 251.733 293.011 251.69L293.016 253.757C284.066 253.779 275.031 253.79 265.975 253.79Z" fill="white"/>
<path d="M293.014 243.848H230.509V245.915H293.014V243.848Z" fill="white"/>
<path d="M293.014 259.566H227.108V261.633H293.014V259.566Z" fill="white"/>
<path d="M293.015 267.409H217.968V269.476H293.015V267.409Z" fill="white"/>
<path d="M123.794 117.821H88.5088V119.888H123.794V117.821Z" fill="white"/>
<path d="M205.804 117.821H169.392V119.888H205.804V117.821Z" fill="white"/>
<path d="M205.803 125.664H180.545V127.731H205.803V125.664Z" fill="white"/>
<path d="M205.803 141.383H170.155V143.45H205.803V141.383Z" fill="white"/>
<path d="M205.803 149.225H163.173V151.292H205.803V149.225Z" fill="white"/>
<path d="M205.803 158.395H150.968V160.462H205.803V158.395Z" fill="white"/>
<path d="M164.799 117.821H129.514V119.888H164.799V117.821Z" fill="white"/>
<path d="M177.318 135.606C171.928 135.606 166.519 135.598 155.701 135.583L148.668 135.573L148.67 133.506L155.704 133.516C177.336 133.546 177.338 133.546 198.817 133.516L205.803 133.506V135.573L198.82 135.583C188.079 135.599 182.708 135.606 177.318 135.606Z" fill="white"/>
<path d="M115.548 135.606C106.492 135.606 97.4568 135.595 88.5068 135.574L88.5108 133.507C106.409 133.55 124.645 133.55 142.711 133.507L142.715 135.574C133.68 135.596 124.603 135.606 115.548 135.606Z" fill="white"/>
<path d="M175.534 125.664H88.5088V127.731H175.534V125.664Z" fill="white"/>
<path d="M146.137 158.395H88.5088V160.462H146.137V158.395Z" fill="white"/>
<path d="M165.655 141.383H88.5088V143.45H165.655V141.383Z" fill="white"/>
<path d="M158.426 149.225H88.5088V151.292H158.426V149.225Z" fill="white"/>
<path d="M81.1232 120.28C81.9102 120.28 82.5482 119.642 82.5482 118.855C82.5482 118.068 81.9102 117.43 81.1232 117.43C80.3362 117.43 79.6982 118.068 79.6982 118.855C79.6982 119.642 80.3362 120.28 81.1232 120.28Z" fill="#777777"/>
<path d="M82.5482 126.697C82.5482 127.484 81.9102 128.122 81.1232 128.122C80.3362 128.122 79.6982 127.484 79.6982 126.697C79.6982 125.91 80.3362 125.272 81.1232 125.272C81.9102 125.271 82.5482 125.909 82.5482 126.697Z" fill="#777777"/>
<path d="M81.1232 135.965C81.9102 135.965 82.5482 135.327 82.5482 134.54C82.5482 133.753 81.9102 133.115 81.1232 133.115C80.3362 133.115 79.6982 133.753 79.6982 134.54C79.6982 135.327 80.3362 135.965 81.1232 135.965Z" fill="#777777"/>
<path d="M82.5482 142.383C82.5482 143.17 81.9102 143.808 81.1232 143.808C80.3362 143.808 79.6982 143.17 79.6982 142.383C79.6982 141.596 80.3362 140.958 81.1232 140.958C81.9102 140.958 82.5482 141.596 82.5482 142.383Z" fill="#777777"/>
<path d="M81.1232 151.684C81.9102 151.684 82.5482 151.046 82.5482 150.258C82.5482 149.471 81.9102 148.833 81.1232 148.833C80.3362 148.833 79.6982 149.471 79.6982 150.258C79.6982 151.046 80.3362 151.684 81.1232 151.684Z" fill="#777777"/>
<path d="M82.5482 159.428C82.5482 160.215 81.9102 160.853 81.1232 160.853C80.3362 160.853 79.6982 160.215 79.6982 159.428C79.6982 158.641 80.3362 158.003 81.1232 158.003C81.9102 158.003 82.5482 158.641 82.5482 159.428Z" fill="#777777"/>
<path d="M215.209 164.101C214.923 164.101 214.692 163.87 214.692 163.584V117.694C214.692 117.408 214.923 117.177 215.209 117.177C215.495 117.177 215.726 117.408 215.726 117.694V163.585C215.725 163.87 215.494 164.101 215.209 164.101Z" fill="#777777"/>
<path d="M127.243 263.09H124.066C123.773 263.09 123.537 262.853 123.537 262.561C123.537 262.268 123.774 262.032 124.066 262.032H127.243C127.536 262.032 127.772 262.269 127.772 262.561C127.773 262.853 127.536 263.09 127.243 263.09ZM120.89 263.09H117.714C117.421 263.09 117.185 262.853 117.185 262.561C117.185 262.268 117.422 262.032 117.714 262.032H120.89C121.183 262.032 121.419 262.269 121.419 262.561C121.42 262.853 121.183 263.09 120.89 263.09ZM114.537 263.09H113.251C112.528 263.09 111.813 262.905 111.184 262.556C110.927 262.414 110.836 262.092 110.977 261.836C111.12 261.579 111.445 261.489 111.697 261.63C112.17 261.892 112.707 262.031 113.251 262.031H114.537C114.83 262.031 115.066 262.268 115.066 262.56C115.067 262.853 114.83 263.09 114.537 263.09ZM109.599 260.152C109.356 260.152 109.137 259.983 109.083 259.735C109.018 259.436 108.985 259.129 108.985 258.824V256.453C108.985 256.16 109.222 255.924 109.514 255.924C109.806 255.924 110.043 256.161 110.043 256.453V258.824C110.043 259.053 110.068 259.285 110.117 259.511C110.179 259.797 109.998 260.079 109.713 260.141C109.674 260.148 109.636 260.152 109.599 260.152ZM109.514 253.806C109.221 253.806 108.985 253.569 108.985 253.277V250.1C108.985 249.807 109.222 249.571 109.514 249.571C109.806 249.571 110.043 249.808 110.043 250.1V253.277C110.043 253.569 109.807 253.806 109.514 253.806ZM109.514 247.453C109.221 247.453 108.985 247.216 108.985 246.923V243.746C108.985 243.453 109.222 243.217 109.514 243.217C109.806 243.217 110.043 243.454 110.043 243.746V246.923C110.043 247.216 109.807 247.453 109.514 247.453ZM109.514 241.099C109.221 241.099 108.985 240.862 108.985 240.57V237.393C108.985 237.1 109.222 236.864 109.514 236.864C109.806 236.864 110.043 237.101 110.043 237.393V240.57C110.043 240.863 109.807 241.099 109.514 241.099ZM109.514 234.746C109.221 234.746 108.985 234.509 108.985 234.217V233.83C108.985 232.753 109.387 231.724 110.118 230.934C110.317 230.72 110.651 230.706 110.867 230.905C111.081 231.103 111.095 231.439 110.896 231.653C110.347 232.247 110.044 233.02 110.044 233.831V234.218C110.043 234.51 109.807 234.746 109.514 234.746ZM129.227 230.623H126.051C125.758 230.623 125.522 230.386 125.522 230.094C125.522 229.802 125.759 229.565 126.051 229.565H129.227C129.52 229.565 129.757 229.802 129.757 230.094C129.757 230.386 129.52 230.623 129.227 230.623ZM122.874 230.623H119.698C119.405 230.623 119.169 230.386 119.169 230.094C119.169 229.802 119.406 229.565 119.698 229.565H122.874C123.167 229.565 123.403 229.802 123.403 230.094C123.403 230.386 123.167 230.623 122.874 230.623ZM116.521 230.623H113.345C113.052 230.623 112.816 230.386 112.816 230.094C112.816 229.802 113.053 229.565 113.345 229.565H116.521C116.814 229.565 117.05 229.802 117.05 230.094C117.05 230.386 116.814 230.623 116.521 230.623Z" fill="white"/>
<path d="M138.767 249.342H121.762V251.46H138.767V249.342Z" fill="white"/>
<path d="M170.69 249.342H143.218V251.46H170.69V249.342Z" fill="white"/>
<path d="M170.689 267.358H153.685V269.476H170.689V267.358Z" fill="white"/>
<path d="M149.235 267.358H121.762V269.476H149.235V267.358Z" fill="white"/>
<path d="M151.671 255.478H121.762V257.596H151.671V255.478Z" fill="white"/>
<path d="M170.688 255.478H156.12V257.596H170.688V255.478Z" fill="white"/>
<path d="M146.375 261.502H121.762V263.62H146.375V261.502Z" fill="white"/>
<path d="M170.688 261.502H153.987V263.62H170.688V261.502Z" fill="white"/>
<path d="M130.664 223.758H121.762V240.334H130.664V223.758Z" fill="white"/>
<path d="M144.63 217.465H135.728V240.333H144.63V217.465Z" fill="#777777"/>
<path d="M158.135 204.419H149.233V240.333H158.135V204.419Z" fill="#65FF00"/>
<path d="M151.922 261.502H148.727V263.62H151.922V261.502Z" fill="white"/>
<path d="M292.213 148.156H225.574V222.506H292.213V148.156Z" fill="white"/>
<path d="M277.42 161.37H230.954V162.92H277.42V161.37Z" fill="black"/>
<path d="M254.138 174.201C246.158 174.201 238.193 174.193 230.953 174.175L230.957 172.625C245.435 172.661 262.806 172.661 277.419 172.625L277.423 174.175C270.114 174.193 262.118 174.201 254.138 174.201Z" fill="black"/>
<path d="M277.42 166.998H230.954V168.548H277.42V166.998Z" fill="black"/>
<path d="M264.828 178.28H230.954V179.83H264.828V178.28Z" fill="black"/>
<path d="M277.42 216.165H230.954V217.715H277.42V216.165Z" fill="black"/>
<path d="M277.419 206.46C262.804 206.425 245.434 206.425 230.957 206.46L230.953 204.91C245.434 204.876 262.807 204.876 277.423 204.91L277.419 206.46Z" fill="black"/>
<path d="M277.42 210.538H230.954V212.088H277.42V210.538Z" fill="black"/>
<path d="M264.828 199.256H230.954V200.806H264.828V199.256Z" fill="black"/>
<path d="M293.246 223.539H224.54V147.099H293.246V223.539ZM225.574 222.506H292.213V148.132H225.574V222.506Z" fill="#515151"/>
<path d="M292.73 147.615H225.057V156.521H292.73V147.615Z" fill="black"/>
<path d="M273.404 195.296C273.221 195.296 273.039 195.232 272.89 195.102L267.683 190.501C267.516 190.354 267.422 190.142 267.422 189.92C267.422 189.698 267.517 189.486 267.683 189.339L272.89 184.738C273.211 184.455 273.7 184.483 273.985 184.806C274.268 185.127 274.237 185.616 273.917 185.9L269.367 189.92L273.917 193.94C274.237 194.224 274.267 194.713 273.985 195.034C273.832 195.208 273.618 195.296 273.404 195.296Z" fill="white"/>
<path d="M281.437 195.296C281.223 195.296 281.009 195.208 280.856 195.034C280.573 194.713 280.604 194.224 280.924 193.94L285.474 189.92L280.924 185.9C280.604 185.616 280.574 185.127 280.856 184.806C281.14 184.485 281.629 184.456 281.951 184.738L287.158 189.339C287.325 189.486 287.419 189.698 287.419 189.92C287.419 190.142 287.324 190.353 287.158 190.501L281.951 195.102C281.803 195.232 281.62 195.296 281.437 195.296Z" fill="white"/>
<path d="M231.466 152.069L233.271 150.264C233.442 150.093 233.442 149.817 233.271 149.646C233.1 149.475 232.824 149.475 232.653 149.646L230.848 151.451L229.043 149.646C228.872 149.475 228.596 149.475 228.425 149.646C228.254 149.817 228.254 150.093 228.425 150.264L230.23 152.069L228.425 153.874C228.254 154.045 228.254 154.321 228.425 154.492C228.51 154.577 228.622 154.62 228.734 154.62C228.846 154.62 228.958 154.577 229.043 154.492L230.848 152.687L232.653 154.492C232.738 154.577 232.85 154.62 232.962 154.62C233.074 154.62 233.186 154.577 233.271 154.492C233.442 154.321 233.442 154.045 233.271 153.874L231.466 152.069Z" fill="#65FF00"/>
<path d="M239.209 154.62C237.802 154.62 236.657 153.475 236.657 152.069C236.657 150.662 237.802 149.518 239.209 149.518C240.616 149.518 241.76 150.663 241.76 152.069C241.76 153.476 240.616 154.62 239.209 154.62ZM239.209 150.334C238.253 150.334 237.475 151.112 237.475 152.068C237.475 153.024 238.253 153.802 239.209 153.802C240.165 153.802 240.943 153.024 240.943 152.068C240.943 151.112 240.165 150.334 239.209 150.334Z" fill="#65FF00"/>
<path d="M249.08 154.62H244.922C244.68 154.62 244.485 154.424 244.485 154.183C244.485 153.942 244.68 153.746 244.922 153.746H249.08C249.322 153.746 249.517 153.942 249.517 154.183C249.517 154.424 249.321 154.62 249.08 154.62Z" fill="#65FF00"/>
<path d="M172.954 169.593L171.05 171.522C170.987 171.586 170.932 171.655 170.882 171.727C169.569 170.907 168.143 170.342 166.672 170.033C166.687 169.945 166.696 169.855 166.695 169.764L166.665 167.054C166.655 166.211 165.961 165.532 165.118 165.542L162.407 165.573C161.564 165.583 160.885 166.276 160.895 167.12L160.926 169.83C160.927 169.921 160.939 170.01 160.955 170.098C159.531 170.432 158.154 171.006 156.888 171.821C156.837 171.75 156.782 171.682 156.717 171.618L154.788 169.714C154.188 169.122 153.217 169.128 152.625 169.728L150.721 171.657C150.129 172.257 150.135 173.228 150.735 173.82L152.664 175.724C152.728 175.787 152.797 175.842 152.869 175.892C152.049 177.205 151.484 178.632 151.175 180.102C151.087 180.087 150.997 180.078 150.906 180.079L148.196 180.11C147.79 180.115 147.41 180.276 147.125 180.565C147.123 180.567 147.121 180.568 147.12 180.57C146.834 180.862 146.68 181.248 146.684 181.657L146.715 184.367C146.725 185.21 147.419 185.889 148.262 185.879L150.973 185.848C151.065 185.847 151.153 185.835 151.241 185.818C151.575 187.242 152.149 188.619 152.964 189.886C152.893 189.937 152.825 189.993 152.761 190.057L150.857 191.986C150.265 192.586 150.271 193.557 150.871 194.149L152.8 196.053C153.4 196.645 154.371 196.639 154.963 196.039L156.867 194.11C156.93 194.046 156.985 193.977 157.035 193.905C158.348 194.725 159.775 195.29 161.246 195.599C161.231 195.687 161.221 195.776 161.222 195.868L161.253 198.578C161.258 198.987 161.421 199.369 161.713 199.655C162.005 199.941 162.391 200.095 162.8 200.091L165.511 200.061C165.93 200.056 166.308 199.882 166.582 199.605C166.859 199.325 167.028 198.938 167.023 198.514L166.992 195.804C166.991 195.712 166.978 195.624 166.962 195.536C168.386 195.202 169.763 194.628 171.03 193.813C171.081 193.884 171.137 193.953 171.201 194.016L173.13 195.92C173.73 196.513 174.701 196.506 175.293 195.906L177.197 193.977C177.789 193.377 177.783 192.406 177.183 191.814L175.254 189.91C175.19 189.847 175.121 189.792 175.049 189.742C175.869 188.429 176.434 187.002 176.744 185.531C176.832 185.546 176.921 185.556 177.013 185.555L179.723 185.524C180.142 185.519 180.521 185.346 180.794 185.068C181.071 184.787 181.24 184.401 181.235 183.977L181.205 181.266C181.195 180.423 180.501 179.744 179.658 179.754L176.948 179.785C176.857 179.786 176.768 179.798 176.68 179.814C176.346 178.39 175.772 177.013 174.957 175.747C175.028 175.696 175.097 175.64 175.16 175.576L177.064 173.647C177.656 173.047 177.65 172.076 177.05 171.484L175.121 169.58C174.517 168.987 173.547 168.993 172.954 169.593ZM169.071 187.862C166.288 190.682 161.731 190.712 158.911 187.929C156.091 185.146 156.061 180.589 158.844 177.769C161.626 174.95 166.184 174.92 169.004 177.702C171.823 180.486 171.853 185.043 169.071 187.862Z" stroke="#65FF00" stroke-width="0.5" stroke-miterlimit="10"/>
<path d="M20.7105 144.394H8.35547V146.461H20.7105V144.394Z" fill="white"/>
<path d="M57.3304 144.394H25.8164V146.461H57.3304V144.394Z" fill="white"/>
<path d="M57.3302 166.583H37.8232V168.65H57.3302V166.583Z" fill="white"/>
<path d="M32.7185 166.583H8.35547V168.65H32.7185V166.583Z" fill="white"/>
<path d="M35.5135 151.95H8.35547V154.017H35.5135V151.95Z" fill="white"/>
<path d="M57.3302 151.95H40.6182V154.017H57.3302V151.95Z" fill="white"/>
<path d="M29.4375 159.37H8.35547V161.437H29.4375V159.37Z" fill="white"/>
<path d="M57.3309 159.37H38.1719V161.437H57.3309V159.37Z" fill="white"/>
<path d="M35.8007 159.37H32.1357V161.437H35.8007V159.37Z" fill="white"/>
<path d="M346.338 337.952H333.983V340.019H346.338V337.952Z" fill="white"/>
<path d="M382.957 337.952H351.443V340.019H382.957V337.952Z" fill="white"/>
<path d="M382.957 360.141H363.45V362.208H382.957V360.141Z" fill="white"/>
<path d="M358.345 360.141H333.983V362.208H358.345V360.141Z" fill="white"/>
<path d="M361.14 345.509H333.983V347.576H361.14V345.509Z" fill="white"/>
<path d="M382.957 345.509H366.245V347.576H382.957V345.509Z" fill="white"/>
<path d="M355.065 352.928H333.983V354.995H355.065V352.928Z" fill="white"/>
<path d="M382.958 352.928H363.799V354.995H382.958V352.928Z" fill="white"/>
<path d="M361.428 352.928H357.763V354.995H361.428V352.928Z" fill="white"/>
<path d="M267.787 88.0689L255.887 83.5439V80.2939L267.787 75.7689V78.8939L257.062 82.7939V81.0439L267.787 84.9439V88.0689ZM268.478 93.1689L276.728 69.6189H280.203L271.953 93.1689H268.478ZM280.643 88.0689V84.9439L291.368 81.0439V82.7939L280.643 78.8939V75.7689L292.543 80.2939V83.5439L280.643 88.0689Z" fill="black"/>
<path d="M51.7454 350.105V340.205C51.7454 339.113 52.0694 338.243 52.7174 337.595C53.3654 336.935 54.2894 336.605 55.4894 336.605C55.8974 336.605 56.2874 336.647 56.6594 336.731C57.0434 336.815 57.3674 336.947 57.6314 337.127L56.8934 339.161C56.7374 339.053 56.5634 338.969 56.3714 338.909C56.1794 338.849 55.9754 338.819 55.7594 338.819C55.3514 338.819 55.0334 338.939 54.8054 339.179C54.5894 339.407 54.4814 339.755 54.4814 340.223V341.123L54.5534 342.329V350.105H51.7454ZM50.2514 342.797V340.637H56.9654V342.797H50.2514ZM58.5494 350.105V336.749H61.3574V350.105H58.5494ZM69.8942 350.105V348.215L69.7142 347.801V344.417C69.7142 343.817 69.5282 343.349 69.1562 343.013C68.7962 342.677 68.2382 342.509 67.4822 342.509C66.9662 342.509 66.4562 342.593 65.9522 342.761C65.4602 342.917 65.0402 343.133 64.6922 343.409L63.6842 341.447C64.2122 341.075 64.8482 340.787 65.5922 340.583C66.3362 340.379 67.0922 340.277 67.8602 340.277C69.3362 340.277 70.4822 340.625 71.2982 341.321C72.1142 342.017 72.5222 343.103 72.5222 344.579V350.105H69.8942ZM66.9422 350.249C66.1862 350.249 65.5382 350.123 64.9982 349.871C64.4582 349.607 64.0442 349.253 63.7562 348.809C63.4682 348.365 63.3242 347.867 63.3242 347.315C63.3242 346.739 63.4622 346.235 63.7382 345.803C64.0262 345.371 64.4762 345.035 65.0882 344.795C65.7002 344.543 66.4982 344.417 67.4822 344.417H70.0562V346.055H67.7882C67.1282 346.055 66.6722 346.163 66.4202 346.379C66.1802 346.595 66.0602 346.865 66.0602 347.189C66.0602 347.549 66.1982 347.837 66.4742 348.053C66.7622 348.257 67.1522 348.359 67.6442 348.359C68.1122 348.359 68.5322 348.251 68.9042 348.035C69.2762 347.807 69.5462 347.477 69.7142 347.045L70.1462 348.341C69.9422 348.965 69.5702 349.439 69.0302 349.763C68.4902 350.087 67.7942 350.249 66.9422 350.249ZM78.3216 350.249C77.4936 350.249 76.6956 350.153 75.9276 349.961C75.1716 349.757 74.5716 349.505 74.1276 349.205L75.0636 347.189C75.5076 347.465 76.0296 347.693 76.6296 347.873C77.2416 348.041 77.8416 348.125 78.4296 348.125C79.0776 348.125 79.5336 348.047 79.7976 347.891C80.0736 347.735 80.2116 347.519 80.2116 347.243C80.2116 347.015 80.1036 346.847 79.8876 346.739C79.6836 346.619 79.4076 346.529 79.0596 346.469C78.7116 346.409 78.3276 346.349 77.9076 346.289C77.4996 346.229 77.0856 346.151 76.6656 346.055C76.2456 345.947 75.8616 345.791 75.5136 345.587C75.1656 345.383 74.8836 345.107 74.6676 344.759C74.4636 344.411 74.3616 343.961 74.3616 343.409C74.3616 342.797 74.5356 342.257 74.8836 341.789C75.2436 341.321 75.7596 340.955 76.4316 340.691C77.1036 340.415 77.9076 340.277 78.8436 340.277C79.5036 340.277 80.1756 340.349 80.8596 340.493C81.5436 340.637 82.1136 340.847 82.5696 341.123L81.6336 343.121C81.1656 342.845 80.6916 342.659 80.2116 342.563C79.7436 342.455 79.2876 342.401 78.8436 342.401C78.2196 342.401 77.7636 342.485 77.4756 342.653C77.1876 342.821 77.0436 343.037 77.0436 343.301C77.0436 343.541 77.1456 343.721 77.3496 343.841C77.5656 343.961 77.8476 344.057 78.1956 344.129C78.5436 344.201 78.9216 344.267 79.3296 344.327C79.7496 344.375 80.1696 344.453 80.5896 344.561C81.0096 344.669 81.3876 344.825 81.7236 345.029C82.0716 345.221 82.3536 345.491 82.5696 345.839C82.7856 346.175 82.8936 346.619 82.8936 347.171C82.8936 347.771 82.7136 348.305 82.3536 348.773C81.9936 349.229 81.4716 349.589 80.7876 349.853C80.1156 350.117 79.2936 350.249 78.3216 350.249ZM86.9481 348.125L87.0201 344.705L91.5381 340.421H94.8861L90.5481 344.831L89.0901 346.019L86.9481 348.125ZM84.6261 350.105V336.749H87.4341V350.105H84.6261ZM91.8441 350.105L88.5681 346.037L90.3321 343.859L95.2461 350.105H91.8441Z" fill="black"/>
<path d="M71.7089 197.104V183.598H77.5551C78.7643 183.598 79.8062 183.798 80.6809 184.196C81.5556 184.582 82.2309 185.142 82.7068 185.875C83.1827 186.608 83.4207 187.483 83.4207 188.499C83.4207 189.502 83.1827 190.371 82.7068 191.104C82.2309 191.824 81.5556 192.377 80.6809 192.763C79.8062 193.149 78.7643 193.342 77.5551 193.342H73.4454L74.8346 191.972V197.104H71.7089ZM80.295 197.104L76.9184 192.204H80.2564L83.6715 197.104H80.295ZM74.8346 192.319L73.4454 190.853H77.3815C78.3462 190.853 79.0665 190.647 79.5425 190.236C80.0184 189.811 80.2564 189.232 80.2564 188.499C80.2564 187.753 80.0184 187.174 79.5425 186.763C79.0665 186.351 78.3462 186.145 77.3815 186.145H73.4454L74.8346 184.659V192.319ZM90.8366 197.259C89.6532 197.259 88.6113 197.027 87.7109 196.564C86.8233 196.101 86.1352 195.471 85.6464 194.673C85.1576 193.863 84.9132 192.943 84.9132 191.914C84.9132 190.872 85.1511 189.953 85.6271 189.155C86.1159 188.345 86.7783 187.714 87.6144 187.264C88.4505 186.801 89.3959 186.57 90.4507 186.57C91.4669 186.57 92.3802 186.788 93.1905 187.226C94.0138 187.65 94.6634 188.268 95.1393 189.078C95.6152 189.875 95.8532 190.834 95.8532 191.953C95.8532 192.069 95.8468 192.204 95.8339 192.358C95.821 192.5 95.8082 192.635 95.7953 192.763H87.3636V191.007H94.2132L93.0555 191.528C93.0555 190.988 92.9461 190.519 92.7275 190.12C92.5088 189.721 92.2065 189.412 91.8206 189.194C91.4347 188.962 90.9845 188.846 90.47 188.846C89.9555 188.846 89.4988 188.962 89.1001 189.194C88.7142 189.412 88.4119 189.728 88.1932 190.139C87.9746 190.538 87.8652 191.014 87.8652 191.567V192.03C87.8652 192.596 87.9874 193.098 88.2318 193.535C88.4891 193.959 88.8428 194.287 89.293 194.519C89.7561 194.738 90.2964 194.847 90.9138 194.847C91.4669 194.847 91.9493 194.763 92.3609 194.596C92.7854 194.429 93.1713 194.178 93.5186 193.844L95.12 195.58C94.6441 196.12 94.0459 196.539 93.3256 196.834C92.6053 197.117 91.7756 197.259 90.8366 197.259ZM103.942 197.104V195.079L103.749 194.635V191.007C103.749 190.364 103.549 189.863 103.151 189.502C102.765 189.142 102.167 188.962 101.356 188.962C100.803 188.962 100.256 189.052 99.7162 189.232C99.1888 189.4 98.7386 189.631 98.3656 189.927L97.2851 187.824C97.851 187.425 98.5328 187.116 99.3303 186.898C100.128 186.679 100.938 186.57 101.761 186.57C103.344 186.57 104.572 186.943 105.447 187.689C106.321 188.435 106.759 189.599 106.759 191.181V197.104H103.942ZM100.777 197.259C99.967 197.259 99.2724 197.124 98.6936 196.854C98.1147 196.571 97.671 196.191 97.3623 195.715C97.0535 195.239 96.8992 194.706 96.8992 194.114C96.8992 193.496 97.0471 192.956 97.343 192.493C97.6517 192.03 98.134 191.67 98.7901 191.413C99.4461 191.142 100.301 191.007 101.356 191.007H104.115V192.763H101.684C100.977 192.763 100.488 192.879 100.218 193.111C99.9606 193.342 99.832 193.631 99.832 193.979C99.832 194.365 99.9799 194.673 100.276 194.905C100.584 195.124 101.002 195.233 101.53 195.233C102.032 195.233 102.482 195.117 102.881 194.886C103.279 194.641 103.569 194.287 103.749 193.824L104.212 195.214C103.993 195.883 103.594 196.391 103.016 196.738C102.437 197.085 101.691 197.259 100.777 197.259ZM114.575 197.259C113.456 197.259 112.459 197.034 111.584 196.584C110.709 196.12 110.021 195.484 109.52 194.673C109.031 193.863 108.786 192.943 108.786 191.914C108.786 190.872 109.031 189.953 109.52 189.155C110.021 188.345 110.709 187.714 111.584 187.264C112.459 186.801 113.456 186.57 114.575 186.57C115.668 186.57 116.62 186.801 117.43 187.264C118.241 187.714 118.839 188.364 119.225 189.213L116.89 190.467C116.62 189.978 116.279 189.618 115.868 189.387C115.469 189.155 115.031 189.039 114.556 189.039C114.041 189.039 113.578 189.155 113.166 189.387C112.755 189.618 112.427 189.946 112.182 190.371C111.951 190.795 111.835 191.31 111.835 191.914C111.835 192.519 111.951 193.033 112.182 193.458C112.427 193.882 112.755 194.21 113.166 194.442C113.578 194.673 114.041 194.789 114.556 194.789C115.031 194.789 115.469 194.68 115.868 194.461C116.279 194.23 116.62 193.863 116.89 193.361L119.225 194.635C118.839 195.471 118.241 196.12 117.43 196.584C116.62 197.034 115.668 197.259 114.575 197.259ZM125.353 197.259C124.131 197.259 123.18 196.95 122.498 196.333C121.816 195.702 121.475 194.77 121.475 193.535V184.428H124.485V193.496C124.485 193.934 124.601 194.275 124.832 194.519C125.064 194.751 125.379 194.866 125.778 194.866C126.254 194.866 126.659 194.738 126.993 194.48L127.804 196.603C127.495 196.822 127.122 196.989 126.685 197.104C126.26 197.207 125.817 197.259 125.353 197.259ZM119.874 189.271V186.956H127.071V189.271H119.874Z" fill="black"/>
<path d="M264.167 326.264C263.154 326.264 262.241 326.038 261.427 325.584C260.614 325.118 259.967 324.471 259.487 323.644C259.021 322.818 258.787 321.844 258.787 320.724C258.787 319.591 259.021 318.611 259.487 317.784C259.967 316.958 260.614 316.318 261.427 315.864C262.241 315.411 263.154 315.184 264.167 315.184C265.074 315.184 265.867 315.384 266.547 315.784C267.227 316.184 267.754 316.791 268.127 317.604C268.501 318.418 268.687 319.458 268.687 320.724C268.687 321.978 268.507 323.018 268.147 323.844C267.787 324.658 267.267 325.264 266.587 325.664C265.921 326.064 265.114 326.264 264.167 326.264ZM264.707 323.704C265.214 323.704 265.674 323.584 266.087 323.344C266.501 323.104 266.827 322.764 267.067 322.324C267.321 321.871 267.447 321.338 267.447 320.724C267.447 320.098 267.321 319.564 267.067 319.124C266.827 318.684 266.501 318.344 266.087 318.104C265.674 317.864 265.214 317.744 264.707 317.744C264.187 317.744 263.721 317.864 263.307 318.104C262.894 318.344 262.561 318.684 262.307 319.124C262.067 319.564 261.947 320.098 261.947 320.724C261.947 321.338 262.067 321.871 262.307 322.324C262.561 322.764 262.894 323.104 263.307 323.344C263.721 323.584 264.187 323.704 264.707 323.704ZM267.527 326.104V323.904L267.587 320.704L267.387 317.524V311.264H270.507V326.104H267.527ZM272.595 330.144C272.115 330.144 271.655 330.091 271.215 329.984C270.775 329.891 270.402 329.744 270.095 329.544L270.935 327.284C271.295 327.538 271.735 327.664 272.255 327.664C272.642 327.664 272.948 327.531 273.175 327.264C273.415 327.011 273.535 326.624 273.535 326.104V315.344H276.655V326.084C276.655 327.324 276.302 328.311 275.595 329.044C274.888 329.778 273.888 330.144 272.595 330.144ZM275.095 313.844C274.522 313.844 274.055 313.678 273.695 313.344C273.335 313.011 273.155 312.598 273.155 312.104C273.155 311.611 273.335 311.198 273.695 310.864C274.055 310.531 274.522 310.364 275.095 310.364C275.668 310.364 276.135 310.524 276.495 310.844C276.855 311.151 277.035 311.551 277.035 312.044C277.035 312.564 276.855 312.998 276.495 313.344C276.148 313.678 275.682 313.844 275.095 313.844ZM286.128 326.104V324.004L285.928 323.544V319.784C285.928 319.118 285.721 318.598 285.308 318.224C284.908 317.851 284.288 317.664 283.448 317.664C282.875 317.664 282.308 317.758 281.748 317.944C281.201 318.118 280.735 318.358 280.348 318.664L279.228 316.484C279.815 316.071 280.521 315.751 281.348 315.524C282.175 315.298 283.015 315.184 283.868 315.184C285.508 315.184 286.781 315.571 287.688 316.344C288.595 317.118 289.048 318.324 289.048 319.964V326.104H286.128ZM282.848 326.264C282.008 326.264 281.288 326.124 280.688 325.844C280.088 325.551 279.628 325.158 279.308 324.664C278.988 324.171 278.828 323.618 278.828 323.004C278.828 322.364 278.981 321.804 279.288 321.324C279.608 320.844 280.108 320.471 280.788 320.204C281.468 319.924 282.355 319.784 283.448 319.784H286.308V321.604H283.788C283.055 321.604 282.548 321.724 282.268 321.964C282.001 322.204 281.868 322.504 281.868 322.864C281.868 323.264 282.021 323.584 282.328 323.824C282.648 324.051 283.081 324.164 283.628 324.164C284.148 324.164 284.615 324.044 285.028 323.804C285.441 323.551 285.741 323.184 285.928 322.704L286.408 324.144C286.181 324.838 285.768 325.364 285.168 325.724C284.568 326.084 283.795 326.264 282.848 326.264ZM298.412 315.184C299.265 315.184 300.025 315.358 300.692 315.704C301.372 316.038 301.905 316.558 302.292 317.264C302.678 317.958 302.872 318.851 302.872 319.944V326.104H299.752V320.424C299.752 319.558 299.558 318.918 299.172 318.504C298.798 318.091 298.265 317.884 297.572 317.884C297.078 317.884 296.632 317.991 296.232 318.204C295.845 318.404 295.538 318.718 295.312 319.144C295.098 319.571 294.992 320.118 294.992 320.784V326.104H291.872V315.344H294.852V318.324L294.292 317.424C294.678 316.704 295.232 316.151 295.952 315.764C296.672 315.378 297.492 315.184 298.412 315.184ZM310.838 330.144C309.825 330.144 308.845 330.018 307.898 329.764C306.965 329.524 306.185 329.158 305.558 328.664L306.798 326.424C307.251 326.798 307.825 327.091 308.518 327.304C309.225 327.531 309.918 327.644 310.598 327.644C311.705 327.644 312.505 327.398 312.998 326.904C313.505 326.411 313.758 325.678 313.758 324.704V323.084L313.958 320.384L313.918 317.664V315.344H316.878V324.304C316.878 326.304 316.358 327.778 315.318 328.724C314.278 329.671 312.785 330.144 310.838 330.144ZM310.358 325.584C309.358 325.584 308.451 325.371 307.638 324.944C306.838 324.504 306.191 323.898 305.698 323.124C305.218 322.338 304.978 321.424 304.978 320.384C304.978 319.331 305.218 318.418 305.698 317.644C306.191 316.858 306.838 316.251 307.638 315.824C308.451 315.398 309.358 315.184 310.358 315.184C311.265 315.184 312.065 315.371 312.758 315.744C313.451 316.104 313.991 316.671 314.378 317.444C314.765 318.204 314.958 319.184 314.958 320.384C314.958 321.571 314.765 322.551 314.378 323.324C313.991 324.084 313.451 324.651 312.758 325.024C312.065 325.398 311.265 325.584 310.358 325.584ZM310.978 323.024C311.525 323.024 312.011 322.918 312.438 322.704C312.865 322.478 313.198 322.164 313.438 321.764C313.678 321.364 313.798 320.904 313.798 320.384C313.798 319.851 313.678 319.391 313.438 319.004C313.198 318.604 312.865 318.298 312.438 318.084C312.011 317.858 311.525 317.744 310.978 317.744C310.431 317.744 309.945 317.858 309.518 318.084C309.091 318.298 308.751 318.604 308.498 319.004C308.258 319.391 308.138 319.851 308.138 320.384C308.138 320.904 308.258 321.364 308.498 321.764C308.751 322.164 309.091 322.478 309.518 322.704C309.945 322.918 310.431 323.024 310.978 323.024ZM324.902 326.264C323.755 326.264 322.735 326.024 321.842 325.544C320.962 325.064 320.262 324.411 319.742 323.584C319.235 322.744 318.982 321.791 318.982 320.724C318.982 319.644 319.235 318.691 319.742 317.864C320.262 317.024 320.962 316.371 321.842 315.904C322.735 315.424 323.755 315.184 324.902 315.184C326.035 315.184 327.048 315.424 327.942 315.904C328.835 316.371 329.535 317.018 330.042 317.844C330.548 318.671 330.802 319.631 330.802 320.724C330.802 321.791 330.548 322.744 330.042 323.584C329.535 324.411 328.835 325.064 327.942 325.544C327.048 326.024 326.035 326.264 324.902 326.264ZM324.902 323.704C325.422 323.704 325.888 323.584 326.302 323.344C326.715 323.104 327.042 322.764 327.282 322.324C327.522 321.871 327.642 321.338 327.642 320.724C327.642 320.098 327.522 319.564 327.282 319.124C327.042 318.684 326.715 318.344 326.302 318.104C325.888 317.864 325.422 317.744 324.902 317.744C324.382 317.744 323.915 317.864 323.502 318.104C323.088 318.344 322.755 318.684 322.502 319.124C322.262 319.564 322.142 320.098 322.142 320.724C322.142 321.338 322.262 321.871 322.502 322.324C322.755 322.764 323.088 323.104 323.502 323.344C323.915 323.584 324.382 323.704 324.902 323.704Z" fill="black"/>
<path d="M379.177 217.09V204.308H381.624L389.165 213.511H387.978V204.308H390.899V217.09H388.471L380.911 207.887H382.098V217.09H379.177ZM398.397 217.236C397.35 217.236 396.419 217.017 395.604 216.579C394.8 216.141 394.161 215.544 393.686 214.79C393.224 214.023 392.992 213.152 392.992 212.178C392.992 211.192 393.224 210.322 393.686 209.567C394.161 208.8 394.8 208.204 395.604 207.778C396.419 207.34 397.35 207.12 398.397 207.12C399.432 207.12 400.357 207.34 401.173 207.778C401.988 208.204 402.627 208.794 403.09 209.549C403.553 210.304 403.784 211.18 403.784 212.178C403.784 213.152 403.553 214.023 403.09 214.79C402.627 215.544 401.988 216.141 401.173 216.579C400.357 217.017 399.432 217.236 398.397 217.236ZM398.397 214.899C398.872 214.899 399.298 214.79 399.675 214.57C400.053 214.351 400.351 214.041 400.57 213.639C400.789 213.225 400.899 212.738 400.899 212.178C400.899 211.606 400.789 211.119 400.57 210.718C400.351 210.316 400.053 210.006 399.675 209.786C399.298 209.567 398.872 209.458 398.397 209.458C397.923 209.458 397.496 209.567 397.119 209.786C396.742 210.006 396.437 210.316 396.206 210.718C395.987 211.119 395.877 211.606 395.877 212.178C395.877 212.738 395.987 213.225 396.206 213.639C396.437 214.041 396.742 214.351 397.119 214.57C397.496 214.79 397.923 214.899 398.397 214.899ZM409.906 217.236C408.981 217.236 408.147 217.029 407.404 216.616C406.662 216.19 406.071 215.599 405.633 214.844C405.207 214.09 404.994 213.201 404.994 212.178C404.994 211.144 405.207 210.249 405.633 209.494C406.071 208.74 406.662 208.155 407.404 207.741C408.147 207.327 408.981 207.12 409.906 207.12C410.734 207.12 411.458 207.303 412.079 207.668C412.7 208.033 413.181 208.587 413.521 209.33C413.862 210.072 414.033 211.022 414.033 212.178C414.033 213.323 413.868 214.272 413.54 215.027C413.211 215.77 412.736 216.323 412.115 216.689C411.507 217.054 410.77 217.236 409.906 217.236ZM410.399 214.899C410.862 214.899 411.282 214.79 411.659 214.57C412.036 214.351 412.334 214.041 412.554 213.639C412.785 213.225 412.901 212.738 412.901 212.178C412.901 211.606 412.785 211.119 412.554 210.718C412.334 210.316 412.036 210.006 411.659 209.786C411.282 209.567 410.862 209.458 410.399 209.458C409.924 209.458 409.498 209.567 409.121 209.786C408.743 210.006 408.439 210.316 408.208 210.718C407.989 211.119 407.879 211.606 407.879 212.178C407.879 212.738 407.989 213.225 408.208 213.639C408.439 214.041 408.743 214.351 409.121 214.57C409.498 214.79 409.924 214.899 410.399 214.899ZM412.974 217.09V215.082L413.028 212.16L412.846 209.257V203.542H415.694V217.09H412.974ZM423.206 217.236C422.086 217.236 421.1 217.017 420.248 216.579C419.408 216.141 418.757 215.544 418.294 214.79C417.832 214.023 417.6 213.152 417.6 212.178C417.6 211.192 417.826 210.322 418.276 209.567C418.739 208.8 419.365 208.204 420.157 207.778C420.948 207.34 421.843 207.12 422.841 207.12C423.803 207.12 424.667 207.327 425.434 207.741C426.213 208.143 426.828 208.727 427.278 209.494C427.728 210.249 427.954 211.156 427.954 212.215C427.954 212.325 427.948 212.452 427.935 212.598C427.923 212.732 427.911 212.86 427.899 212.982H419.919V211.32H426.402L425.306 211.813C425.306 211.302 425.202 210.858 424.996 210.48C424.789 210.103 424.503 209.811 424.137 209.604C423.772 209.385 423.346 209.275 422.859 209.275C422.372 209.275 421.94 209.385 421.563 209.604C421.197 209.811 420.911 210.109 420.704 210.499C420.498 210.876 420.394 211.326 420.394 211.85V212.288C420.394 212.824 420.51 213.298 420.741 213.712C420.984 214.114 421.319 214.424 421.745 214.644C422.184 214.85 422.695 214.954 423.279 214.954C423.803 214.954 424.259 214.875 424.649 214.717C425.05 214.558 425.416 214.321 425.744 214.004L427.26 215.648C426.809 216.159 426.243 216.555 425.562 216.835C424.88 217.103 424.095 217.236 423.206 217.236Z" fill="black"/>
</svg>
