<svg width="459" height="393" viewBox="0 0 459 393" fill="none" xmlns="http://www.w3.org/2000/svg">
<path d="M169.937 303.434C166.43 305.057 162.604 305.222 159.155 304.173C155.135 302.965 151.628 300.11 149.735 296.023L106.185 202.029L82.1662 150.199C78.6442 142.605 81.9782 133.513 89.5722 129.991C91.6252 129.039 93.7892 128.59 95.9252 128.59C101.679 128.59 107.21 131.861 109.775 137.402L177.349 283.231C180.865 290.825 177.531 299.917 169.937 303.434Z" fill="black"/>
<path d="M160.908 303.516C160.333 303.782 159.744 304.004 159.155 304.173C155.135 302.965 151.628 300.11 149.735 296.023L106.185 202.029C107.446 199.976 109.301 198.261 111.639 197.179C113.359 196.382 115.166 196.005 116.948 196.005C121.759 196.005 126.383 198.744 128.528 203.372L167.102 286.627C170.044 292.975 167.256 300.574 160.908 303.516Z" stroke="white" stroke-width="0.4831" stroke-miterlimit="10" stroke-linecap="round" stroke-linejoin="round"/>
<path d="M450.564 392.116H3.1C1.395 392.116 0 390.566 0 388.672C0 386.778 1.395 385.228 3.1 385.228H450.564C452.269 385.228 453.664 386.778 453.664 388.672C453.664 390.567 452.269 392.116 450.564 392.116Z" fill="white"/>
<path d="M256.099 366.317H170.027C157.296 366.317 146.88 355.901 146.88 343.17V298.643C146.88 285.912 157.296 275.496 170.027 275.496H256.099C268.83 275.496 279.246 285.912 279.246 298.643V343.17C279.245 355.901 268.829 366.317 256.099 366.317Z" fill="black"/>
<path d="M258.046 362.452H170.317V311.218C170.317 300.561 178.957 291.921 189.614 291.921H239.781C249.868 291.921 258.046 300.098 258.046 310.186V362.452Z" stroke="#65FF00" stroke-width="0.78" stroke-miterlimit="10" stroke-linecap="round" stroke-linejoin="round"/>
<path d="M306.782 336.373H119.344V384.674H306.782V336.373Z" fill="black"/>
<path d="M306.832 354.662H119.832V368.662H306.832V354.662Z" fill="#65FF00"/>
<path d="M140.44 379.043L128.859 378.78L141.726 342.742L153.307 343.005L140.44 379.043Z" fill="white"/>
<path d="M171.599 379.043L160.018 378.78L172.885 342.742L184.466 343.005L171.599 379.043Z" fill="white"/>
<path d="M202.758 379.043L191.177 378.78L204.044 342.742L215.625 343.005L202.758 379.043Z" fill="white"/>
<path d="M233.917 379.043L222.336 378.78L235.203 342.742L246.784 343.005L233.917 379.043Z" fill="white"/>
<path d="M263.868 379.043L252.287 378.78L265.155 342.742L276.735 343.005L263.868 379.043Z" fill="white"/>
<path d="M215.742 308.501C198.406 308.501 184.222 294.317 184.222 276.981V204.843C184.222 187.507 198.406 173.323 215.742 173.323C233.078 173.323 247.262 187.507 247.262 204.843V276.981C247.262 294.317 233.078 308.501 215.742 308.501Z" fill="#65FF00"/>
<path opacity="0.55" d="M215.742 308.501C198.406 308.501 184.222 294.317 184.222 276.981V204.843C184.222 187.507 198.406 173.323 215.742 173.323C233.078 173.323 247.262 187.507 247.262 204.843V276.981C247.262 294.317 233.078 308.501 215.742 308.501Z" fill="#65FF00"/>
<path opacity="0.25" d="M215.742 308.501C198.406 308.501 184.222 294.317 184.222 276.981V204.843C184.222 187.507 198.406 173.323 215.742 173.323C233.078 173.323 247.262 187.507 247.262 204.843V276.981C247.262 294.317 233.078 308.501 215.742 308.501Z" fill="black"/>
<path d="M216.067 296.802C226.476 296.802 234.914 288.364 234.914 277.955C234.914 267.546 226.476 259.108 216.067 259.108C205.658 259.108 197.22 267.546 197.22 277.955C197.22 288.364 205.658 296.802 216.067 296.802Z" fill="black"/>
<path d="M216.067 289.8C222.608 289.8 227.912 284.497 227.912 277.955C227.912 271.413 222.608 266.11 216.067 266.11C209.525 266.11 204.222 271.413 204.222 277.955C204.222 284.497 209.525 289.8 216.067 289.8Z" fill="#65FF00"/>
<path d="M216.066 283.834C219.313 283.834 221.945 281.202 221.945 277.955C221.945 274.708 219.313 272.076 216.066 272.076C212.82 272.076 210.188 274.708 210.188 277.955C210.188 281.202 212.82 283.834 216.066 283.834Z" stroke="black" stroke-width="0.8666" stroke-miterlimit="10" stroke-linecap="round" stroke-linejoin="round"/>
<path d="M224.806 211.014C219.418 217.418 209.77 218.25 203.366 212.862L133.21 153.842C126.806 148.454 125.974 138.806 131.362 132.402C136.75 125.998 146.398 125.166 152.802 130.554L222.958 189.574C229.362 194.962 230.194 204.61 224.806 211.014Z" fill="black"/>
<path d="M131.257 149.963C122.923 144.379 120.674 132.991 126.258 124.658L204.382 8.06884C209.966 -0.265156 221.354 -2.51416 229.687 3.06984C238.021 8.65384 240.27 20.0418 234.686 28.3748L156.562 144.964C150.978 153.298 139.59 155.547 131.257 149.963Z" fill="#65FF00"/>
<path opacity="0.55" d="M131.257 149.963C122.923 144.379 120.674 132.991 126.258 124.658L204.382 8.06884C209.966 -0.265156 221.354 -2.51416 229.687 3.06984C238.021 8.65384 240.27 20.0418 234.686 28.3748L156.562 144.964C150.978 153.298 139.59 155.547 131.257 149.963Z" fill="#65FF00"/>
<path opacity="0.25" d="M131.257 149.963C122.923 144.379 120.674 132.991 126.258 124.658L204.382 8.06884C209.966 -0.265156 221.354 -2.51416 229.687 3.06984C238.021 8.65384 240.27 20.0418 234.686 28.3748L156.562 144.964C150.978 153.298 139.59 155.547 131.257 149.963Z" fill="black"/>
<path d="M211.032 208.107C215.614 208.107 219.327 204.393 219.327 199.812C219.327 195.231 215.614 191.517 211.032 191.517C206.451 191.517 202.737 195.231 202.737 199.812C202.737 204.393 206.451 208.107 211.032 208.107Z" fill="#65FF00"/>
<path d="M97.6993 155.839C102.28 155.839 105.994 152.125 105.994 147.544C105.994 142.963 102.28 139.249 97.6993 139.249C93.1181 139.249 89.4043 142.963 89.4043 147.544C89.4043 152.125 93.1181 155.839 97.6993 155.839Z" fill="#65FF00"/>
<path d="M140.022 145.532C145.661 145.532 150.231 140.961 150.231 135.323C150.231 129.684 145.661 125.114 140.022 125.114C134.384 125.114 129.813 129.684 129.813 135.323C129.813 140.961 134.384 145.532 140.022 145.532Z" fill="black"/>
<path d="M146.73 135.323C146.73 139.028 143.727 142.031 140.022 142.031C136.317 142.031 133.314 139.028 133.314 135.323C133.314 131.618 136.317 128.615 140.022 128.615C143.727 128.614 146.73 131.618 146.73 135.323Z" stroke="white" stroke-width="0.4831" stroke-miterlimit="10"/>
<path d="M393.313 129.527C394.044 127.402 393.975 125 392.932 122.811L374.849 84.86C373.823 82.706 371.973 81.055 369.716 80.278L335.567 68.528C330.924 66.931 325.866 69.399 324.268 74.042C322.671 78.685 325.139 83.743 329.782 85.341L360.403 95.877L376.881 130.459C378.993 134.891 384.298 136.772 388.731 134.66C390.974 133.592 392.564 131.705 393.313 129.527Z" fill="black" fill-opacity="0.74"/>
<path d="M363.156 164.968C361.175 166.03 358.793 166.346 356.465 165.667L316.109 153.892C313.818 153.223 311.892 151.662 310.764 149.559L293.7 117.731C291.38 113.404 293.007 108.015 297.334 105.695C301.661 103.375 307.05 105.002 309.37 109.329L324.671 137.868L361.445 148.598C366.158 149.974 368.864 154.909 367.489 159.623C366.794 162.009 365.185 163.88 363.156 164.968Z" fill="black" fill-opacity="0.74"/>
<path d="M275.066 61.4909C270.214 67.1929 261.58 67.8889 255.878 63.0368L220.757 33.1528C215.055 28.3008 214.36 19.6668 219.211 13.9648C224.063 8.26285 232.697 7.56785 238.399 12.4189L273.52 42.3028C279.222 47.1549 279.917 55.7899 275.066 61.4909Z" fill="black"/>
<path d="M332.707 52.907L331.69 54.102C331.304 53.708 330.9 53.325 330.472 52.961C325.339 48.593 318.443 47.564 312.482 49.655C306.826 51.638 300.544 50.475 295.979 46.591L278.906 32.064C268.782 23.45 253.451 24.685 244.837 34.808C236.223 44.932 237.458 60.263 247.581 68.877L265.599 84.209C269.741 87.734 271.59 93.25 270.446 98.567C269.07 104.965 271.155 111.917 276.464 116.434C276.894 116.8 277.338 117.139 277.791 117.458C272.556 123.858 273.389 133.383 279.713 138.764C286.113 144.21 295.805 143.429 301.251 137.029L355.979 72.711C361.425 66.311 360.644 56.619 354.244 51.173C347.844 45.726 338.152 46.507 332.707 52.907Z" fill="#65FF00"/>
<path opacity="0.25" d="M332.707 52.907L331.69 54.102C331.304 53.708 330.9 53.325 330.472 52.961C325.339 48.593 318.443 47.564 312.482 49.655C306.826 51.638 300.544 50.475 295.979 46.591L278.906 32.064C268.782 23.45 253.451 24.685 244.837 34.808C236.223 44.932 237.458 60.263 247.581 68.877L265.599 84.209C269.741 87.734 271.59 93.25 270.446 98.567C269.07 104.965 271.155 111.917 276.464 116.434C276.894 116.8 277.338 117.139 277.791 117.458C272.556 123.858 273.389 133.383 279.713 138.764C286.113 144.21 295.805 143.429 301.251 137.029L355.979 72.711C361.425 66.311 360.644 56.619 354.244 51.173C347.844 45.726 338.152 46.507 332.707 52.907Z" fill="black"/>
<path d="M265.905 39.9876C269.9 43.3866 270.383 49.3806 266.983 53.3756C263.584 57.3706 257.59 57.8536 253.595 54.4536C249.6 51.0546 249.117 45.0606 252.517 41.0656C255.915 37.0706 261.91 36.5876 265.905 39.9876Z" fill="black"/>
<path d="M263.208 43.1579C265.452 45.0669 265.723 48.4339 263.814 50.6779C261.905 52.9219 258.538 53.1929 256.294 51.2839C254.05 49.3749 253.779 46.0079 255.688 43.7639C257.597 41.5199 260.964 41.2489 263.208 43.1579Z" stroke="white" stroke-width="0.2935" stroke-miterlimit="10"/>
<path d="M368.474 61.4559L294.303 148.623C291.036 152.463 285.22 152.931 281.38 149.664C277.54 146.396 277.071 140.581 280.339 136.741L354.51 49.5739C357.777 45.7339 363.593 45.2649 367.433 48.5329C371.273 51.7999 371.741 57.6159 368.474 61.4559Z" fill="black"/>
<path d="M336.194 83.9598L309.25 61.0328C300.796 53.8398 287.995 54.8708 280.801 63.3248L279.418 64.9498C272.225 73.4038 273.256 86.2048 281.71 93.3988L308.654 116.326L336.194 83.9598Z" stroke="black" stroke-width="0.78" stroke-miterlimit="10" stroke-linecap="round" stroke-linejoin="round"/>
<path d="M312.37 84.2196C314.928 76.66 310.873 68.458 303.313 65.9001C295.754 63.3422 287.552 67.3969 284.994 74.9566C282.436 82.5162 286.491 90.7181 294.05 93.2761C301.61 95.834 309.812 91.7793 312.37 84.2196Z" fill="black"/>
<path d="M304.589 72.6668C308.409 75.9178 308.871 81.6498 305.62 85.4698C302.369 89.2898 296.637 89.7518 292.817 86.5008C288.997 83.2498 288.535 77.5178 291.786 73.6978C295.037 69.8788 300.769 69.4168 304.589 72.6668Z" fill="#65FF00"/>
<path d="M301.625 76.1507C303.521 77.7647 303.751 80.6097 302.137 82.5057C300.524 84.4017 297.678 84.6307 295.782 83.0177C293.886 81.4047 293.657 78.5587 295.27 76.6627C296.883 74.7667 299.729 74.5377 301.625 76.1507Z" stroke="black" stroke-width="0.6645" stroke-miterlimit="10" stroke-linecap="round" stroke-linejoin="round"/>
<path d="M235.13 18.3366C238.076 20.8436 238.432 25.2646 235.925 28.2106C233.418 31.1566 228.997 31.5126 226.051 29.0056C223.105 26.4986 222.748 22.0776 225.255 19.1316C227.763 16.1856 232.184 15.8296 235.13 18.3366Z" stroke="white" stroke-width="0.2935" stroke-miterlimit="10"/>
<path d="M293.095 379.043L281.514 378.78L294.381 342.742L305.962 343.005L293.095 379.043Z" fill="white"/>
<path d="M340.298 291.589V315.724C340.298 320.893 344.486 325.082 349.655 325.082H376.65V291.59H340.298V291.589ZM359.848 314.951C357.075 314.951 354.829 311.739 354.829 307.777C354.829 303.816 357.076 300.603 359.848 300.603C362.62 300.603 364.872 303.815 364.872 307.777C364.872 311.738 362.621 314.951 359.848 314.951Z" fill="black"/>
<path d="M399.839 195.659L266.405 195.758C263.522 195.76 260.541 197.425 261.779 200.94L290.536 282.557L291.544 285.416L292.871 289.183C293.997 292.379 298.705 295.615 301.588 295.613L435.022 295.514C437.905 295.512 437.412 292.273 436.286 289.076L434.558 284.172L433.951 282.449L405.194 200.832C403.956 197.319 402.722 195.657 399.839 195.659Z" fill="white"/>
<mask id="mask0_499_47349" style="mask-type:luminance" maskUnits="userSpaceOnUse" x="261" y="195" width="177" height="101">
<path d="M399.839 195.659L266.405 195.758C263.522 195.76 260.541 197.425 261.779 200.94L290.536 282.557L291.544 285.416L292.871 289.183C293.997 292.379 298.705 295.615 301.588 295.613L435.022 295.514C437.905 295.512 437.412 292.273 436.286 289.076L434.558 284.172L433.951 282.449L405.194 200.832C403.956 197.319 402.722 195.657 399.839 195.659Z" fill="white"/>
</mask>
<g mask="url(#mask0_499_47349)">
<path opacity="0.55" d="M290.537 282.556L292.872 289.182C293.998 292.378 298.706 295.614 301.589 295.612L435.023 295.513C437.906 295.511 437.413 292.272 436.287 289.075L433.952 282.449" fill="white"/>
</g>
<mask id="mask1_499_47349" style="mask-type:luminance" maskUnits="userSpaceOnUse" x="261" y="195" width="177" height="101">
<path d="M399.839 195.659L266.405 195.758C263.522 195.76 260.541 197.425 261.779 200.94L290.536 282.557L291.544 285.416L292.871 289.183C293.997 292.379 298.705 295.615 301.588 295.613L435.022 295.514C437.905 295.512 437.412 292.273 436.286 289.076L434.558 284.172L433.951 282.449L405.194 200.832C403.956 197.319 402.722 195.657 399.839 195.659Z" fill="white"/>
</mask>
<g mask="url(#mask1_499_47349)">
<path d="M267.931 201.417L400.084 201.318L426.353 276.84L294.201 276.939" fill="black"/>
</g>
<path d="M401.238 322.835C401.238 324.077 400.23 325.086 398.987 325.086H348.322C347.079 325.086 346.071 324.077 346.071 322.835C346.071 321.593 347.079 320.584 348.322 320.584H398.987C400.229 320.584 401.238 321.593 401.238 322.835Z" fill="#141414"/>
<path d="M369.676 289.165C370.258 291.164 371.959 292.427 373.475 291.986C374.991 291.545 375.748 289.566 375.166 287.567C374.584 285.568 372.883 284.305 371.367 284.746C369.852 285.188 369.095 287.166 369.676 289.165Z" fill="black"/>
<path d="M445.707 325.081H317.206V385.95H445.707V325.081Z" fill="black"/>
<path d="M352.954 384.984V325.57" stroke="#FFF8F3" stroke-width="1.4493" stroke-miterlimit="10" stroke-linecap="round" stroke-linejoin="round"/>
<path d="M353.921 346.82H445.224" stroke="#FFF8F3" stroke-width="1.4493" stroke-miterlimit="10" stroke-linecap="round" stroke-linejoin="round"/>
<path d="M383.389 347.786L387.737 352.134H421.07L424.934 347.786" stroke="#FFF8F3" stroke-width="1.4493" stroke-miterlimit="10" stroke-linecap="round" stroke-linejoin="round"/>
<path d="M353.679 363.245H444.982" stroke="#FFF8F3" stroke-width="1.4493" stroke-miterlimit="10" stroke-linecap="round" stroke-linejoin="round"/>
<path d="M383.146 364.211L387.494 368.559H420.827L424.692 364.211" stroke="#FFF8F3" stroke-width="1.4493" stroke-miterlimit="10" stroke-linecap="round" stroke-linejoin="round"/>
<path d="M371.282 340.014C373.393 340.014 375.104 338.303 375.104 336.192C375.104 334.081 373.393 332.37 371.282 332.37C369.171 332.37 367.46 334.081 367.46 336.192C367.46 338.303 369.171 340.014 371.282 340.014Z" fill="white"/>
<path d="M381.091 338.296C382.253 338.296 383.195 337.354 383.195 336.192C383.195 335.03 382.253 334.088 381.091 334.088C379.929 334.088 378.987 335.03 378.987 336.192C378.987 337.354 379.929 338.296 381.091 338.296Z" fill="white"/>
<path d="M391.389 336.192C391.389 337.354 390.447 338.296 389.285 338.296C388.123 338.296 387.181 337.354 387.181 336.192C387.181 335.03 388.123 334.088 389.285 334.088C390.447 334.088 391.389 335.03 391.389 336.192Z" fill="white"/>
<path d="M397.576 338.296C398.738 338.296 399.68 337.354 399.68 336.192C399.68 335.03 398.738 334.088 397.576 334.088C396.414 334.088 395.472 335.03 395.472 336.192C395.472 337.354 396.414 338.296 397.576 338.296Z" fill="white"/>
<path d="M405.44 338.296C406.602 338.296 407.544 337.354 407.544 336.192C407.544 335.03 406.602 334.088 405.44 334.088C404.278 334.088 403.336 335.03 403.336 336.192C403.336 337.354 404.278 338.296 405.44 338.296Z" fill="white"/>
<path d="M436.553 333.194H413.569C412.909 333.194 412.37 332.654 412.37 331.995C412.37 331.335 412.91 330.796 413.569 330.796H436.553C437.213 330.796 437.752 331.336 437.752 331.995C437.753 332.654 437.213 333.194 436.553 333.194Z" fill="#65FF00"/>
<path d="M436.553 338.99H413.569C412.909 338.99 412.37 338.45 412.37 337.791C412.37 337.131 412.91 336.592 413.569 336.592H436.553C437.213 336.592 437.752 337.132 437.752 337.791C437.753 338.451 437.213 338.99 436.553 338.99Z" fill="#65FF00"/>
<path d="M371.165 382.526C373.276 382.526 374.987 380.815 374.987 378.704C374.987 376.593 373.276 374.882 371.165 374.882C369.054 374.882 367.343 376.593 367.343 378.704C367.343 380.815 369.054 382.526 371.165 382.526Z" fill="white"/>
<path d="M380.974 380.808C382.136 380.808 383.078 379.866 383.078 378.704C383.078 377.542 382.136 376.6 380.974 376.6C379.812 376.6 378.87 377.542 378.87 378.704C378.87 379.866 379.812 380.808 380.974 380.808Z" fill="white"/>
<path d="M391.271 378.704C391.271 379.866 390.329 380.808 389.167 380.808C388.005 380.808 387.063 379.866 387.063 378.704C387.063 377.542 388.005 376.6 389.167 376.6C390.329 376.6 391.271 377.542 391.271 378.704Z" fill="white"/>
<path d="M397.458 380.808C398.62 380.808 399.562 379.866 399.562 378.704C399.562 377.542 398.62 376.6 397.458 376.6C396.296 376.6 395.354 377.542 395.354 378.704C395.354 379.866 396.296 380.808 397.458 380.808Z" fill="white"/>
<path d="M405.323 380.808C406.485 380.808 407.427 379.866 407.427 378.704C407.427 377.542 406.485 376.6 405.323 376.6C404.161 376.6 403.219 377.542 403.219 378.704C403.219 379.866 404.161 380.808 405.323 380.808Z" fill="white"/>
<path d="M436.436 375.706H413.452C412.792 375.706 412.253 375.166 412.253 374.507C412.253 373.847 412.793 373.308 413.452 373.308H436.436C437.096 373.308 437.635 373.848 437.635 374.507C437.636 375.166 437.096 375.706 436.436 375.706Z" fill="#65FF00"/>
<path d="M436.436 381.502H413.452C412.792 381.502 412.253 380.962 412.253 380.303C412.253 379.643 412.793 379.104 413.452 379.104H436.436C437.096 379.104 437.635 379.644 437.635 380.303C437.636 380.963 437.096 381.502 436.436 381.502Z" fill="#65FF00"/>
<path d="M351.412 267.387C350.062 267.4 348.619 266.321 348.189 264.978C347.76 263.635 348.506 262.536 349.857 262.524C351.207 262.511 352.65 263.59 353.08 264.933C353.509 266.276 352.763 267.375 351.412 267.387Z" fill="#FFF8F3"/>
<path d="M362.152 267.51C360.801 267.522 359.359 266.444 358.929 265.101C358.499 263.758 359.246 262.659 360.597 262.647C361.948 262.635 363.39 263.713 363.82 265.056C364.249 266.398 363.502 267.497 362.152 267.51Z" fill="#FFF8F3"/>
<path d="M372.973 267.188C371.623 267.201 370.18 266.122 369.75 264.779C369.32 263.436 370.067 262.337 371.418 262.325C372.768 262.312 374.211 263.391 374.641 264.734C375.071 266.076 374.324 267.175 372.973 267.188Z" fill="#FFF8F3"/>
<path d="M382.506 222.485L306.359 222.066L304.692 217.55L380.839 217.969L382.506 222.485Z" fill="#FFF8F3"/>
<path d="M384.863 229.259L348.506 229.058L347.502 226.338L383.858 226.538L384.863 229.259Z" fill="#FFF8F3"/>
<path d="M387.641 236.786L351.284 236.585L350.28 233.865L386.637 234.065L387.641 236.786Z" fill="#FFF8F3"/>
<path d="M390.512 244.564L354.155 244.364L353.15 241.643L389.507 241.843L390.512 244.564Z" fill="#FFF8F3"/>
<path d="M392.919 251.087L356.562 250.887L355.558 248.166L391.915 248.366L392.919 251.087Z" fill="#FFF8F3"/>
<path d="M345.459 229.042L309.102 228.841L308.098 226.12L344.455 226.321L345.459 229.042Z" fill="#FFF8F3"/>
<path d="M348.143 236.318L311.787 236.117L310.782 233.396L347.139 233.596L348.143 236.318Z" fill="#FFF8F3"/>
<path d="M350.83 243.594L314.473 243.394L313.469 240.673L349.826 240.873L350.83 243.594Z" fill="#FFF8F3"/>
<path d="M353.514 250.87L317.158 250.67L316.153 247.949L352.51 248.149L353.514 250.87Z" fill="#FFF8F3"/>
<path d="M441.268 189.744C440.331 191.527 439.229 193.256 437.964 194.913C431.428 203.44 421.829 208.232 411.892 208.923C405.549 209.367 399.071 208.141 393.168 205.15L379.849 212.111L383.733 198.251C371.337 185.672 369.786 165.561 380.835 151.14C392.922 135.362 415.511 132.372 431.288 144.459C445.408 155.281 449.282 174.512 441.268 189.744Z" fill="black"/>
<path d="M401.017 176.119C398.938 176.119 397.238 174.418 397.238 172.34C397.238 170.262 398.939 168.561 401.017 168.561C403.095 168.561 404.796 170.262 404.796 172.34C404.796 174.419 403.095 176.119 401.017 176.119Z" fill="white"/>
<path d="M417.781 176.119C415.702 176.119 414.002 174.418 414.002 172.34C414.002 170.262 415.703 168.561 417.781 168.561C419.859 168.561 421.56 170.262 421.56 172.34C421.56 174.419 419.859 176.119 417.781 176.119Z" fill="white"/>
<path d="M409.349 183.356C407.62 183.356 406.213 181.949 406.213 180.22V179.175C406.213 178.909 406.429 178.693 406.695 178.693C406.962 178.693 407.178 178.909 407.178 179.175V180.22C407.178 181.417 408.152 182.391 409.349 182.391C410.546 182.391 411.52 181.417 411.52 180.22V179.175C411.52 178.909 411.736 178.693 412.003 178.693C412.269 178.693 412.485 178.909 412.485 179.175V180.22C412.484 181.949 411.078 183.356 409.349 183.356Z" fill="white"/>
<path d="M441.268 189.744C440.331 191.527 439.229 193.256 437.964 194.913C431.428 203.44 421.829 208.232 411.892 208.923V208.657C411.892 197.184 421.191 187.884 432.665 187.884C435.731 187.884 438.644 188.551 441.268 189.744Z" fill="#65FF00"/>
<path d="M61.7407 286.388C43.3837 310.542 61.7407 334.697 61.7407 334.697" stroke="black" stroke-opacity="0.74" stroke-width="17.3911" stroke-miterlimit="10" stroke-linecap="round" stroke-linejoin="round"/>
<path d="M61.7407 286.388C43.3837 310.542 61.7407 334.697 61.7407 334.697" stroke="black" stroke-width="0.78" stroke-miterlimit="10" stroke-linecap="round" stroke-linejoin="round"/>
<path d="M90.7256 334.697C90.7256 334.697 109.083 310.543 90.7256 286.388" stroke="black" stroke-opacity="0.74" stroke-width="17.3911" stroke-miterlimit="10" stroke-linecap="round" stroke-linejoin="round"/>
<path d="M90.7256 334.697C90.7256 334.697 109.083 310.543 90.7256 286.388" stroke="black" stroke-width="0.78" stroke-miterlimit="10" stroke-linecap="round" stroke-linejoin="round"/>
<path d="M75.7436 242.483C68.2576 242.422 62.1816 236.247 62.2426 228.761L62.7836 162.004C62.8446 154.518 69.0196 148.442 76.5056 148.503C83.9916 148.564 90.0676 154.739 90.0066 162.225L89.4656 228.982C89.4056 236.468 83.2306 242.544 75.7436 242.483Z" fill="black"/>
<path d="M84.2147 196.654C84.1787 201.159 80.4967 204.782 75.9917 204.745C71.4867 204.709 67.8637 201.027 67.9007 196.522C67.9367 192.017 71.6187 188.394 76.1237 188.431C80.6287 188.467 84.2517 192.149 84.2147 196.654Z" stroke="white" stroke-width="0.4831" stroke-miterlimit="10" stroke-linecap="round" stroke-linejoin="round"/>
<path d="M107.038 281.557V244.054C107.038 226.815 92.9326 212.71 75.6936 212.71C58.4546 212.71 44.3496 226.815 44.3496 244.054V281.557H107.038Z" fill="#65FF00"/>
<path d="M112.945 293.259L39.5007 292.664C35.1237 292.628 31.5707 289.018 31.6067 284.641L31.6437 280.025C31.6787 275.648 35.2897 272.095 39.6667 272.131L113.111 272.726C117.488 272.761 121.041 276.372 121.005 280.749L120.968 285.365C120.932 289.742 117.322 293.294 112.945 293.259Z" fill="#65FF00"/>
<path d="M97.9169 283.136L98.2039 247.759C98.2939 236.66 89.2859 227.505 78.1869 227.415L76.0529 227.398C64.9539 227.308 55.7979 236.316 55.7089 247.415L55.4219 282.792L97.9169 283.136Z" stroke="black" stroke-width="0.78" stroke-miterlimit="10" stroke-linecap="round" stroke-linejoin="round"/>
<path d="M82.6952 264.96C90.0785 261.928 93.6065 253.486 90.5753 246.103C87.5441 238.719 79.1015 235.191 71.7182 238.222C64.3349 241.254 60.8069 249.696 63.8381 257.08C66.8693 264.463 75.3119 267.991 82.6952 264.96Z" fill="black"/>
<path d="M86.2903 251.652C86.2493 256.668 82.1503 260.701 77.1343 260.661C72.1183 260.62 68.0853 256.521 68.1253 251.505C68.1663 246.489 72.2653 242.456 77.2813 242.496C82.2973 242.537 86.3303 246.636 86.2903 251.652Z" fill="#65FF00"/>
<path d="M81.7154 251.615C81.6954 254.105 79.6604 256.107 77.1704 256.087C74.6804 256.067 72.6784 254.032 72.6994 251.542C72.7194 249.052 74.7544 247.05 77.2444 247.071C79.7344 247.09 81.7364 249.125 81.7154 251.615Z" stroke="black" stroke-width="0.6645" stroke-miterlimit="10" stroke-linecap="round" stroke-linejoin="round"/>
<path d="M83.3696 163.517C83.3386 167.385 80.1766 170.496 76.3086 170.465C72.4406 170.434 69.3296 167.272 69.3606 163.404C69.3916 159.536 72.5536 156.425 76.4216 156.456C80.2906 156.487 83.4016 159.648 83.3696 163.517Z" stroke="white" stroke-width="0.2935" stroke-miterlimit="10"/>
<path d="M83.3919 172.426C68.5129 172.426 56.3389 160.252 56.3389 145.373C56.3389 130.494 68.5129 118.32 83.3919 118.32C98.2709 118.32 110.445 130.494 110.445 145.373C110.445 160.252 98.2709 172.426 83.3919 172.426Z" fill="#65FF00"/>
<path d="M83.3922 163.647C73.3412 163.647 65.1182 155.424 65.1182 145.373C65.1182 135.322 73.3412 127.099 83.3922 127.099C93.4432 127.099 101.666 135.322 101.666 145.373C101.667 155.424 93.4432 163.647 83.3922 163.647Z" stroke="black" stroke-width="0.78" stroke-miterlimit="10" stroke-linecap="round" stroke-linejoin="round"/>
<path d="M83.3916 155.997C77.5486 155.997 72.7676 151.216 72.7676 145.373C72.7676 139.53 77.5486 134.749 83.3916 134.749C89.2346 134.749 94.0156 139.53 94.0156 145.373C94.0156 151.216 89.2356 155.997 83.3916 155.997Z" fill="black"/>
<path d="M32.4123 28.329C33.666 28.341 34.7978 28.6104 35.8078 29.1375C36.8179 29.6446 37.6065 30.4282 38.1736 31.4884C38.7606 32.5488 39.0461 33.9147 39.0302 35.5863L38.9423 44.8397L33.2709 44.7858L33.35 36.4578C33.361 35.3036 33.1301 34.4655 32.6575 33.9436C32.2049 33.402 31.5607 33.1272 30.7249 33.1192C30.1279 33.1135 29.5794 33.2476 29.0792 33.5215C28.5793 33.7755 28.1873 34.1797 27.9035 34.7343C27.6196 35.2888 27.4734 36.0138 27.4649 36.9093L27.3906 44.7299L21.7191 44.676L21.8729 28.4976L27.2756 28.5489L27.2319 33.1457L26.2 31.7926C26.828 30.6244 27.6821 29.7568 28.7621 29.1899C29.8424 28.6032 31.0591 28.3162 32.4123 28.329ZM50.648 45.3688C48.8371 45.3516 47.2576 45.0679 45.9096 44.5178C44.5615 43.9676 43.5041 43.2013 42.7372 42.2189C41.9905 41.2167 41.6235 40.049 41.6361 38.7157C41.6486 37.4023 42.0373 36.2915 42.8022 35.3833C43.5871 34.4554 44.6585 33.7591 46.0162 33.2944C47.394 32.8099 48.9784 32.5762 50.7694 32.5932C52.5603 32.6102 54.1301 32.8739 55.4785 33.3843C56.847 33.8749 57.905 34.5914 58.6523 35.5339C59.4197 36.4567 59.7971 37.5747 59.7846 38.8881C59.772 40.2214 59.3828 41.3819 58.6172 42.3697C57.8517 43.3376 56.7799 44.0837 55.4017 44.608C54.0434 45.1324 52.4589 45.386 50.648 45.3688ZM50.6874 41.2197C51.6426 41.2288 52.401 41.0071 52.9625 40.5547C53.5439 40.1025 53.8385 39.4685 53.8463 38.6526C53.8538 37.8566 53.5713 37.227 52.9985 36.7638C52.4459 36.281 51.6919 36.035 50.7368 36.0259C49.7816 36.0168 49.0132 36.2483 48.4315 36.7205C47.87 37.1729 47.5854 37.797 47.5779 38.593C47.5701 39.4089 47.8427 40.0484 48.3955 40.5113C48.9683 40.9745 49.7322 41.2106 50.6874 41.2197ZM50.7416 35.5185C49.1098 35.503 47.6692 35.2604 46.4199 34.7908C45.1905 34.3214 44.2216 33.6554 43.5134 32.7929C42.8053 31.9105 42.457 30.8624 42.4686 29.6485C42.4805 28.3949 42.8389 27.3236 43.5439 26.4347C44.2688 25.546 45.2605 24.8589 46.5189 24.3733C47.7775 23.8678 49.2227 23.6229 50.8544 23.6384C52.5061 23.654 53.9464 23.9264 55.1753 24.4556C56.4242 24.965 57.3927 25.6707 58.0807 26.5728C58.7885 27.4751 59.1365 28.5531 59.1246 29.8068C59.1131 31.0207 58.745 32.062 58.0202 32.9308C57.3156 33.7798 56.3343 34.4273 55.0763 34.873C53.8182 35.3188 52.3733 35.534 50.7416 35.5185ZM50.7733 32.1753C51.5295 32.1825 52.1383 31.9992 52.5995 31.6255C53.061 31.2318 53.295 30.6967 53.3014 30.0201C53.3082 29.3037 53.0746 28.7542 52.6006 28.3716C52.1465 27.9892 51.5513 27.7944 50.815 27.7874C50.0787 27.7804 49.48 27.9638 49.0187 28.3376C48.5574 28.7113 48.3233 29.2564 48.3165 29.9728C48.3101 30.6494 48.5338 31.1888 48.9878 31.5912C49.4419 31.9736 50.0371 32.1683 50.7733 32.1753ZM73.1639 28.7162C74.4176 28.7281 75.5494 28.9976 76.5593 29.5246C77.5695 30.0318 78.3581 30.8154 78.9252 31.8756C79.5122 32.9359 79.7977 34.3019 79.7818 35.9735L79.6939 45.2268L74.0225 45.173L74.1016 36.8449C74.1126 35.6908 73.8817 34.8527 73.4091 34.3308C72.9565 33.7891 72.3123 33.5143 71.4765 33.5064C70.8795 33.5007 70.3309 33.6348 69.8308 33.9087C69.3308 34.1627 68.9389 34.5669 68.655 35.1215C68.3712 35.676 68.225 36.401 68.2164 37.2965L68.1421 45.1171L62.4707 45.0632L62.6244 28.8848L68.0272 28.9361L67.9835 33.5329L66.9516 32.1798C67.5796 31.0115 68.4337 30.144 69.5137 29.5771C70.594 28.9903 71.8107 28.7034 73.1639 28.7162Z" fill="white"/>
<path d="M380.225 36.9615C380.897 36.9679 381.493 37.1122 382.013 37.3945C382.544 37.6662 382.956 38.0861 383.249 38.6542C383.553 39.2224 383.701 39.9545 383.692 40.8504L383.645 45.8099L380.605 45.781L380.648 41.3175C380.653 40.6989 380.54 40.2498 380.308 39.9702C380.076 39.68 379.758 39.533 379.353 39.5292C379.065 39.5264 378.803 39.5933 378.567 39.7297C378.331 39.8661 378.147 40.0777 378.017 40.3645C377.886 40.6406 377.819 41.0026 377.814 41.4505L377.773 45.7541L374.734 45.7252L374.776 41.2617C374.782 40.6431 374.669 40.194 374.437 39.9145C374.216 39.6244 373.897 39.4773 373.481 39.4734C373.183 39.4706 372.915 39.5373 372.679 39.6738C372.454 39.8103 372.271 40.0219 372.129 40.3085C371.999 40.5846 371.931 40.9466 371.927 41.3946L371.886 45.6982L368.846 45.6693L368.929 36.9982L371.824 37.0257L371.802 39.4414L371.232 38.748C371.558 38.1325 372 37.6727 372.557 37.3686C373.115 37.0539 373.735 36.8998 374.418 36.9063C375.196 36.9137 375.877 37.1228 376.46 37.5337C377.053 37.934 377.447 38.5564 377.642 39.4009L376.652 39.1835C376.968 38.4825 377.437 37.9377 378.059 37.5489C378.693 37.1496 379.414 36.9538 380.225 36.9615ZM390.859 45.8784L390.874 44.2626L390.67 43.8607L390.698 40.885C390.703 40.405 390.557 40.0356 390.261 39.7768C389.975 39.5074 389.513 39.3697 388.873 39.3636C388.457 39.3597 388.035 39.425 387.607 39.5596C387.179 39.6835 386.815 39.8614 386.514 40.0932L385.51 38.0197C386.003 37.7044 386.592 37.4646 387.276 37.3005C387.971 37.1258 388.66 37.0416 389.343 37.0481C390.751 37.0615 391.835 37.3971 392.597 38.055C393.37 38.7024 393.749 39.714 393.736 41.0898L393.691 45.9053L390.859 45.8784ZM388.298 45.9981C387.605 45.9915 387.019 45.8686 386.541 45.6294C386.064 45.3902 385.699 45.0667 385.447 44.659C385.205 44.2514 385.087 43.7969 385.092 43.2957C385.097 42.7624 385.234 42.305 385.505 41.9236C385.786 41.5316 386.21 41.237 386.777 41.0397C387.344 40.8318 388.076 40.732 388.972 40.7406L391.02 40.76L391.004 42.3439L389.373 42.3283C388.882 42.3237 388.535 42.4004 388.33 42.5584C388.137 42.7166 388.039 42.929 388.036 43.1956C388.034 43.4623 388.133 43.6766 388.334 43.8385C388.535 44.0004 388.812 44.083 389.164 44.0863C389.495 44.0895 389.794 44.0123 390.062 43.8549C390.341 43.6869 390.546 43.4328 390.677 43.0927L391.083 44.2166C390.917 44.8123 390.598 45.2626 390.126 45.5675C389.664 45.8618 389.055 46.0053 388.298 45.9981ZM398.152 44.3477L398.267 40.7169L401.835 37.3108L405.435 37.345L401.477 41.3554L399.913 42.5885L398.152 44.3477ZM395.609 45.9236L395.722 34.0528L398.762 34.0816L398.649 45.9524L395.609 45.9236ZM401.977 45.9841L399.353 42.6312L401.263 40.3133L405.656 46.019L401.977 45.9841ZM410.744 46.2114C409.72 46.2016 408.826 46.0011 408.062 45.6099C407.308 45.2081 406.722 44.6692 406.301 43.9932C405.892 43.3066 405.691 42.5314 405.699 41.6675C405.708 40.8036 405.918 40.0376 406.329 39.3695C406.752 38.6908 407.327 38.1683 408.056 37.8019C408.785 37.4248 409.603 37.2406 410.509 37.2492C411.363 37.2573 412.139 37.4407 412.84 37.7994C413.541 38.1473 414.096 38.6593 414.505 39.3352C414.915 40.011 415.115 40.8289 415.106 41.7888C415.105 41.8955 415.099 42.0181 415.087 42.1567C415.075 42.2952 415.063 42.4231 415.051 42.5403L408.188 42.4751L408.203 40.8753L413.45 40.9251L412.294 41.3621C412.309 40.9676 412.237 40.6256 412.08 40.3361C411.933 40.0467 411.722 39.8207 411.446 39.6581C411.181 39.4956 410.867 39.4126 410.505 39.4092C410.142 39.4057 409.821 39.4827 409.543 39.64C409.274 39.7975 409.064 40.0248 408.912 40.322C408.76 40.6086 408.682 40.9492 408.678 41.3438L408.674 41.8077C408.67 42.2344 408.752 42.6031 408.92 42.9141C409.098 43.2251 409.352 43.4675 409.681 43.6413C410.01 43.8044 410.404 43.8881 410.862 43.8925C411.289 43.8966 411.652 43.8413 411.952 43.7269C412.262 43.6018 412.568 43.4127 412.869 43.1596L414.453 44.8386C414.033 45.2933 413.518 45.6404 412.907 45.8799C412.297 46.1088 411.576 46.2193 410.744 46.2114ZM417.745 46.2779C417.233 46.273 416.803 46.0983 416.454 45.7536C416.105 45.409 415.933 44.9753 415.938 44.4527C415.944 43.9088 416.124 43.4785 416.479 43.1619C416.834 42.8346 417.267 42.6734 417.779 42.6782C418.291 42.6831 418.722 42.8525 419.07 43.1865C419.419 43.5098 419.591 43.9434 419.586 44.4874C419.581 45.01 419.401 45.4403 419.046 45.7782C418.691 46.1162 418.257 46.2827 417.745 46.2779ZM425.381 46.3504C424.421 46.3413 423.564 46.1412 422.81 45.75C422.068 45.359 421.486 44.8254 421.066 44.1494C420.646 43.4628 420.44 42.6822 420.448 41.8076C420.456 40.933 420.677 40.1618 421.11 39.4939C421.543 38.826 422.134 38.309 422.885 37.9428C423.646 37.566 424.506 37.3822 425.466 37.3913C426.447 37.4006 427.293 37.6167 428.004 38.0394C428.714 38.4622 429.215 39.0536 429.507 39.8137L427.144 40.9912C426.945 40.584 426.697 40.2883 426.4 40.1042C426.103 39.9093 425.779 39.8103 425.427 39.8069C425.075 39.8036 424.754 39.8805 424.465 40.0378C424.175 40.195 423.944 40.4275 423.77 40.7352C423.607 41.0323 423.524 41.3995 423.52 41.8368C423.515 42.2847 423.592 42.6641 423.749 42.9749C423.917 43.2859 424.144 43.5227 424.43 43.6854C424.716 43.8481 425.036 43.9312 425.388 43.9345C425.74 43.9379 426.066 43.8503 426.366 43.6718C426.667 43.4827 426.92 43.1864 427.127 42.783L429.467 44.0053C429.161 44.7597 428.649 45.3415 427.93 45.7507C427.212 46.1598 426.362 46.3597 425.381 46.3504ZM434.847 46.4404C433.897 46.4313 433.057 46.2314 432.324 45.8404C431.592 45.4494 431.016 44.916 430.596 44.24C430.186 43.5534 429.986 42.7729 429.994 41.8983C430.002 41.0237 430.217 40.2524 430.64 39.5845C431.073 38.9166 431.659 38.3995 432.399 38.0332C433.138 37.6562 433.983 37.4722 434.932 37.4813C435.881 37.4903 436.722 37.6903 437.454 38.0812C438.197 38.4616 438.773 38.9897 439.183 39.6656C439.593 40.3415 439.793 41.1167 439.785 41.9913C439.777 42.8659 439.561 43.6425 439.139 44.3212C438.716 44.9891 438.13 45.5116 437.38 45.8884C436.64 46.2654 435.796 46.4494 434.847 46.4404ZM434.87 44.0246C435.222 44.0279 435.532 43.9509 435.8 43.7934C436.079 43.6361 436.299 43.4035 436.462 43.0957C436.625 42.7773 436.709 42.3994 436.713 41.9621C436.717 41.5248 436.641 41.1561 436.484 40.856C436.327 40.5451 436.11 40.3084 435.834 40.1458C435.569 39.9833 435.261 39.9004 434.909 39.897C434.568 39.8938 434.257 39.9708 433.979 40.1282C433.71 40.2856 433.49 40.5182 433.316 40.8259C433.153 41.123 433.07 41.4902 433.066 41.9275C433.061 42.3648 433.138 42.7442 433.295 43.0656C433.462 43.3766 433.679 43.6133 433.944 43.7758C434.22 43.9384 434.528 44.0214 434.87 44.0246ZM452.53 37.6485C453.202 37.6548 453.798 37.7992 454.318 38.0814C454.849 38.3531 455.261 38.7731 455.554 39.3412C455.858 39.9094 456.006 40.6414 455.997 41.5374L455.95 46.4969L452.91 46.468L452.953 42.0044C452.959 41.3858 452.846 40.9368 452.614 40.6572C452.382 40.367 452.063 40.22 451.658 40.2161C451.37 40.2134 451.108 40.2802 450.872 40.4167C450.636 40.5531 450.453 40.7647 450.322 41.0514C450.191 41.3275 450.124 41.6896 450.12 42.1375L450.079 46.4411L447.039 46.4122L447.081 41.9486C447.087 41.33 446.974 40.881 446.742 40.6014C446.521 40.3113 446.202 40.1643 445.786 40.1604C445.488 40.1575 445.221 40.2243 444.985 40.3607C444.759 40.4973 444.576 40.7089 444.435 40.9955C444.304 41.2716 444.236 41.6336 444.232 42.0816L444.191 46.3851L441.152 46.3563L441.234 37.6851L444.13 37.7126L444.107 40.1284L443.537 39.435C443.863 38.8194 444.305 38.3596 444.862 38.0556C445.42 37.7409 446.04 37.5868 446.723 37.5933C447.501 37.6007 448.182 37.8098 448.765 38.2207C449.358 38.621 449.752 39.2434 449.947 40.0879L448.957 39.8705C449.273 39.1695 449.742 38.6246 450.365 38.2359C450.998 37.8366 451.72 37.6408 452.53 37.6485Z" fill="white"/>
</svg>
