<svg width="435" height="395" viewBox="0 0 435 395" fill="none" xmlns="http://www.w3.org/2000/svg">
<g opacity="0.73">
<path d="M67.2816 138.318C66.7294 138.318 66.1728 138.243 65.6251 138.093L56.1975 135.514C52.8799 134.606 50.9192 131.169 51.8272 127.851L54.9787 116.336C49.2122 113.359 44.1146 109.406 39.7981 104.562L29.43 110.476C27.9822 111.302 26.301 111.513 24.6938 111.074C23.0866 110.634 21.7466 109.595 20.9217 108.148L16.0799 99.6579C14.3751 96.6703 15.42 92.8532 18.4076 91.1495L28.7757 85.236C26.8049 79.0542 25.9968 72.6547 26.3706 66.1766L14.8555 63.0251C11.539 62.1172 9.5783 58.6806 10.4851 55.363L13.0642 45.9354C13.9722 42.6179 17.4099 40.6583 20.7275 41.5651L32.2426 44.7166C35.219 38.9501 39.1718 33.8525 44.0158 29.536L38.1022 19.1679C37.2762 17.7201 37.0641 16.0378 37.504 14.4317C37.944 12.8246 38.9833 11.4856 40.43 10.6596L48.9204 5.81674C51.9091 4.11192 55.725 5.15794 57.4287 8.14445L63.3423 18.5125C69.5229 16.5406 75.9247 15.7336 82.4016 16.1074L85.5531 4.59228C86.4611 1.27468 89.8988 -0.686027 93.2153 0.221935L102.643 2.80105C105.959 3.70901 107.921 7.14557 107.013 10.4643L103.862 21.9794C109.628 24.9558 114.726 28.9086 119.042 33.7526L129.41 27.839C130.857 27.013 132.539 26.8009 134.147 27.2408C135.754 27.6808 137.093 28.7201 137.919 30.1667L142.762 38.6572C143.588 40.105 143.8 41.7873 143.36 43.3934C142.92 45.0005 141.88 46.3406 140.434 47.1655L130.066 53.0791C132.037 59.2608 132.845 65.6592 132.471 72.1384L143.986 75.2899C145.593 75.7299 146.932 76.768 147.758 78.2158C148.583 79.6625 148.795 81.3449 148.356 82.952L145.777 92.3807C144.869 95.6983 141.433 97.6579 138.114 96.7511L126.599 93.5996C123.621 99.3672 119.67 104.464 114.826 108.78L120.739 119.148C121.564 120.596 121.776 122.277 121.337 123.884C120.897 125.492 119.858 126.832 118.41 127.657L109.921 132.498C108.473 133.324 106.791 133.535 105.185 133.096C103.578 132.657 102.238 131.617 101.413 130.169L95.4992 119.801C89.3174 121.773 82.9201 122.581 76.4398 122.207L73.2883 133.722C72.8484 135.329 71.8102 136.669 70.3624 137.494C69.4073 138.04 68.3512 138.318 67.2816 138.318ZM40.5444 100.261L41.449 101.329C45.9529 106.654 51.4198 110.895 57.7003 113.933L58.9607 114.542L55.0763 128.74C54.8743 129.479 54.9719 130.254 55.3524 130.919C55.7318 131.586 56.349 132.064 57.0886 132.266L66.5162 134.845C67.2547 135.048 68.0302 134.949 68.6958 134.57C69.3613 134.191 69.8405 133.573 70.0426 132.834L73.928 118.636L75.3231 118.753C82.2771 119.336 89.1401 118.469 95.727 116.179L97.0491 115.72L104.34 128.503C104.72 129.169 105.336 129.648 106.076 129.85C106.818 130.054 107.591 129.955 108.256 129.575L116.746 124.732C117.413 124.351 117.891 123.735 118.093 122.996C118.295 122.256 118.197 121.482 117.818 120.816L110.526 108.032L111.594 107.128C116.92 102.625 121.16 97.1573 124.198 90.8768L124.808 89.6164L139.005 93.5019C140.527 93.9172 142.114 93.0171 142.531 91.4907L145.111 82.062C145.313 81.3224 145.215 80.548 144.836 79.8825C144.456 79.2169 143.839 78.7377 143.099 78.5357L128.902 74.6513L129.019 73.2563C129.6 66.3034 128.735 59.4393 126.444 52.8524L125.984 51.5303L138.768 44.2385C139.435 43.8591 139.913 43.2419 140.115 42.5034C140.317 41.7638 140.219 40.9894 139.84 40.3238L134.997 31.8334C134.617 31.1667 134.001 30.6886 133.261 30.4866C132.52 30.2846 131.747 30.3822 131.081 30.7616L118.298 38.0533L117.394 36.9849C112.89 31.6594 107.423 27.4193 101.142 24.3812L99.8819 23.7717L103.766 9.57429C103.968 8.83467 103.871 8.06027 103.49 7.39473C103.111 6.72919 102.494 6.25108 101.754 6.04794L92.3264 3.46883C90.8034 3.05021 89.2175 3.95368 88.8 5.48004L84.9145 19.6775L83.5195 19.5608C76.5644 18.976 69.7014 19.8447 63.1156 22.1354L61.7934 22.5955L54.5017 9.8111C54.1223 9.14443 53.5051 8.66633 52.7666 8.46431C52.027 8.26341 51.2525 8.35993 50.587 8.73928L42.0966 13.5821C41.4299 13.9626 40.9518 14.5787 40.7498 15.3184C40.5478 16.058 40.6454 16.8324 41.0248 17.4979L48.3165 30.2812L47.2481 31.1858C41.9226 35.6897 37.6825 41.1566 34.6444 47.4371L34.0349 48.6964L19.8375 44.812C19.099 44.61 18.3235 44.7065 17.6579 45.0881C16.9924 45.4674 16.5132 46.0847 16.3111 46.8243L13.732 56.2519C13.53 56.9915 13.6277 57.7659 14.007 58.4314C14.3864 59.097 15.0036 59.5762 15.7432 59.7782L29.9407 63.6626L29.824 65.0577C29.2426 72.0093 30.1079 78.8746 32.3986 85.4616L32.8576 86.7837L20.0743 94.0743C19.4076 94.4548 18.9295 95.0709 18.7275 95.8105C18.5255 96.5502 18.6231 97.3246 19.0025 97.9901L23.8453 106.481C24.2247 107.146 24.8419 107.625 25.5816 107.827C26.3189 108.029 27.0945 107.933 27.7611 107.552L40.5444 100.261ZM79.4645 97.2898C76.974 97.2898 74.4668 96.9553 71.9999 96.2808C64.7553 94.2988 58.716 89.6142 54.9955 83.0901C51.2739 76.566 50.3165 68.9824 52.2986 61.7378C54.2806 54.4932 58.9652 48.454 65.4904 44.7334C72.0145 41.0129 79.5981 40.0556 86.8427 42.0376C94.0873 44.0196 100.127 48.7042 103.847 55.2283C107.568 61.7524 108.526 69.3348 106.543 76.5795C104.561 83.8241 99.8763 89.8633 93.3522 93.5839C89.0492 96.0373 84.2871 97.2887 79.4645 97.2898ZM79.3814 44.3945C75.1368 44.3945 70.9449 45.4966 67.1582 47.656C61.4152 50.9309 57.2918 56.2474 55.5466 62.6245C53.8014 69.0015 54.6442 75.676 57.9203 81.4189C61.1964 87.1619 66.5117 91.2865 72.8888 93.0305C79.2647 94.7746 85.9403 93.9318 91.6833 90.6568C97.4262 87.3819 101.551 82.0654 103.295 75.6883C105.04 69.3113 104.197 62.6368 100.921 56.8939C97.6462 51.1509 92.3297 47.0275 85.9527 45.2823C83.781 44.6885 81.5733 44.3945 79.3814 44.3945Z" fill="white"/>
</g>
<g opacity="0.69">
<path d="M340.2 107.945L276.704 109.098C274.869 109.131 273.355 107.971 273.328 106.512L272.563 64.3506C272.536 62.8905 274.007 61.6761 275.842 61.6436L339.338 60.4909C341.173 60.4573 342.687 61.6178 342.714 63.0779L343.479 105.239C343.506 106.697 342.036 107.912 340.2 107.945ZM275.857 62.4303C274.456 62.4562 273.332 63.3102 273.351 64.3361L274.116 106.497C274.135 107.522 275.289 108.336 276.69 108.31L340.185 107.157C341.586 107.132 342.711 106.277 342.691 105.253L341.926 63.0914C341.907 62.0667 340.752 61.253 339.353 61.2788L275.857 62.4303Z" fill="#65FF00"/>
<path d="M342.003 69.0116L273.061 70.2666L273.075 71.0543L342.017 69.7993L342.003 69.0116Z" fill="#65FF00"/>
<path d="M278.034 68.1618C277.215 68.1764 276.537 67.5232 276.522 66.7039C276.507 65.8857 277.16 65.2078 277.98 65.1921C278.798 65.1775 279.476 65.8307 279.491 66.65C279.506 67.4693 278.852 68.1472 278.034 68.1618ZM277.994 65.9811C277.61 65.9879 277.304 66.3066 277.311 66.6904C277.317 67.0743 277.636 67.3807 278.02 67.3739C278.404 67.3672 278.711 67.0485 278.704 66.6646C278.696 66.2808 278.378 65.9744 277.994 65.9811Z" fill="#65FF00"/>
<path d="M282.126 68.0881C281.308 68.1027 280.63 67.4495 280.615 66.6302C280.601 65.812 281.254 65.1341 282.072 65.1184C282.89 65.1038 283.568 65.757 283.583 66.5763C283.599 67.3956 282.944 68.0735 282.126 68.0881ZM282.087 65.9074C281.703 65.9141 281.397 66.2329 281.403 66.6167C281.41 67.0006 281.729 67.3081 282.112 67.3002C282.495 67.2935 282.802 66.9747 282.795 66.5909C282.788 66.2071 282.471 65.9007 282.087 65.9074Z" fill="#65FF00"/>
<path d="M286.141 68.0149C285.323 68.0294 284.645 67.3762 284.629 66.5569C284.615 65.7388 285.268 65.0609 286.086 65.0452C286.904 65.0306 287.582 65.6838 287.598 66.5019C287.612 67.3224 286.959 68.0003 286.141 68.0149ZM286.101 65.8342C285.717 65.8409 285.41 66.1596 285.417 66.5435C285.424 66.9273 285.742 67.2337 286.126 67.227C286.51 67.2202 286.817 66.9015 286.81 66.5177C286.803 66.1338 286.485 65.8274 286.101 65.8342Z" fill="#65FF00"/>
</g>
<g opacity="0.69">
<path d="M127.087 359.951L63.591 361.104C61.756 361.137 60.2419 359.977 60.215 358.518L59.4496 316.356C59.4226 314.896 60.894 313.682 62.729 313.649L126.225 312.497C128.06 312.463 129.575 313.624 129.601 315.084L130.366 357.245C130.393 358.703 128.922 359.917 127.087 359.951ZM62.7425 314.436C61.3418 314.462 60.2173 315.316 60.2363 316.342L61.0018 358.503C61.0208 359.528 62.1746 360.342 63.5753 360.316L127.071 359.163C128.472 359.137 129.596 358.283 129.577 357.259L128.812 315.097C128.793 314.073 127.639 313.259 126.238 313.285L62.7425 314.436Z" fill="#65FF00"/>
<path d="M128.905 321.018L59.9629 322.273L59.9772 323.061L128.919 321.806L128.905 321.018Z" fill="#65FF00"/>
<path d="M64.9183 320.168C64.1001 320.183 63.4222 319.529 63.4065 318.71C63.3919 317.892 64.0451 317.214 64.8644 317.199C65.6826 317.185 66.3605 317.838 66.3762 318.656C66.3908 319.474 65.7376 320.153 64.9183 320.168ZM64.879 317.987C64.4951 317.994 64.1887 318.313 64.1955 318.697C64.2022 319.08 64.521 319.387 64.9048 319.38C65.2886 319.373 65.5962 319.055 65.5883 318.671C65.5816 318.287 65.2628 317.981 64.879 317.987Z" fill="#65FF00"/>
<path d="M69.0109 320.094C68.1927 320.109 67.5148 319.455 67.5002 318.636C67.4856 317.818 68.1388 317.14 68.957 317.124C69.7752 317.11 70.4531 317.763 70.4688 318.582C70.4823 319.4 69.8291 320.078 69.0109 320.094ZM68.9705 317.913C68.5866 317.92 68.2803 318.239 68.287 318.623C68.2937 319.006 68.6125 319.314 68.9952 319.306C69.379 319.299 69.6854 318.981 69.6787 318.597C69.6731 318.213 69.3543 317.905 68.9705 317.913Z" fill="#65FF00"/>
<path d="M73.0257 320.021C72.2075 320.036 71.5296 319.383 71.5139 318.563C71.4993 317.745 72.1525 317.067 72.9718 317.052C73.79 317.037 74.4679 317.69 74.4836 318.509C74.4982 319.328 73.8439 320.007 73.0257 320.021ZM72.9864 317.841C72.6026 317.847 72.2962 318.166 72.3029 318.55C72.3096 318.934 72.6284 319.24 73.0122 319.233C73.3961 319.227 73.7036 318.908 73.6957 318.524C73.6879 318.14 73.3703 317.833 72.9864 317.841Z" fill="#65FF00"/>
</g>
<g opacity="0.55">
<path d="M390.93 240.662L384.361 235.396C386.544 231.326 387.788 226.927 388.117 222.491L396.484 221.569C398.064 221.395 399.204 219.973 399.03 218.393L398.354 212.252C398.18 210.672 396.758 209.531 395.177 209.705L386.81 210.627C385.524 206.367 383.353 202.345 380.337 198.847L385.603 192.278C386.597 191.038 386.397 189.226 385.157 188.232L380.337 184.368C379.097 183.373 377.285 183.573 376.291 184.813L371.025 191.382C366.954 189.199 362.556 187.956 358.119 187.627L357.198 179.26C357.024 177.68 355.602 176.539 354.022 176.713L347.88 177.39C346.3 177.564 345.16 178.986 345.334 180.566L346.255 188.933C341.996 190.219 337.973 192.391 334.475 195.407L327.906 190.141C326.666 189.146 324.853 189.346 323.86 190.586L319.996 195.407C319.002 196.647 319.201 198.458 320.442 199.453L327.011 204.719C324.828 208.789 323.584 213.188 323.255 217.624L314.888 218.546C313.308 218.72 312.168 220.142 312.342 221.722L313.019 227.863C313.192 229.444 314.614 230.584 316.195 230.41L324.562 229.489C325.848 233.748 328.02 237.77 331.035 241.268L325.769 247.837C324.775 249.078 324.975 250.889 326.215 251.883L331.035 255.748C332.275 256.742 334.088 256.542 335.081 255.302L340.347 248.733C344.418 250.916 348.816 252.16 353.253 252.488L354.174 260.855C354.348 262.436 355.77 263.576 357.35 263.402L363.492 262.725C365.072 262.551 366.212 261.129 366.038 259.549L365.117 251.182C369.376 249.896 373.399 247.724 376.897 244.708L383.466 249.974C384.706 250.969 386.519 250.769 387.512 249.529L391.376 244.708C392.37 243.468 392.171 241.657 390.93 240.662ZM345.234 233.097C338.033 227.325 336.875 216.808 342.647 209.608C348.419 202.407 358.935 201.249 366.136 207.021C373.337 212.793 374.495 223.309 368.723 230.51C362.951 237.711 352.435 238.869 345.234 233.097Z" fill="white"/>
<path d="M357.03 263.982C356.252 263.982 355.502 263.721 354.885 263.226C354.168 262.651 353.718 261.832 353.618 260.918L352.747 253.011C348.445 252.633 344.328 251.436 340.497 249.447L335.519 255.654C334.944 256.372 334.126 256.822 333.212 256.923C332.298 257.025 331.401 256.761 330.684 256.189L325.864 252.323C325.147 251.749 324.696 250.931 324.595 250.016C324.494 249.102 324.756 248.206 325.33 247.488L330.306 241.281C327.533 237.973 325.466 234.215 324.161 230.099L316.254 230.969C315.341 231.068 314.444 230.808 313.727 230.234C313.01 229.659 312.56 228.84 312.459 227.926L311.783 221.785C311.682 220.872 311.942 219.975 312.518 219.257C313.093 218.54 313.912 218.09 314.826 217.989L322.732 217.118C323.111 212.818 324.308 208.701 326.297 204.868L320.089 199.891C319.372 199.316 318.922 198.498 318.821 197.584C318.72 196.671 318.982 195.773 319.556 195.057L323.42 190.236C323.995 189.519 324.813 189.069 325.728 188.968C326.633 188.864 327.538 189.129 328.255 189.703L334.463 194.68C337.772 191.905 341.529 189.84 345.645 188.534L344.775 180.628C344.566 178.743 345.932 177.04 347.818 176.832L353.959 176.156C355.849 175.957 357.546 177.313 357.755 179.198L358.626 187.105C362.925 187.483 367.042 188.682 370.876 190.669L375.853 184.462C377.038 182.982 379.208 182.745 380.688 183.929L385.509 187.793C386.226 188.368 386.676 189.187 386.777 190.1C386.878 191.014 386.616 191.911 386.042 192.628L381.065 198.836C383.84 202.144 385.906 205.903 387.21 210.018L395.117 209.147C396.027 209.044 396.927 209.308 397.644 209.883C398.362 210.457 398.812 211.277 398.913 212.19L399.588 218.331C399.689 219.245 399.429 220.142 398.853 220.859C398.279 221.576 397.459 222.026 396.546 222.127L388.639 222.998C388.261 227.298 387.063 231.414 385.074 235.248L391.282 240.226C391.999 240.8 392.449 241.619 392.55 242.533C392.651 243.447 392.39 244.344 391.814 245.061L387.952 249.881C386.763 251.36 384.595 251.597 383.116 250.415L376.908 245.438C373.601 248.212 369.843 250.277 365.725 251.584L366.596 259.491C366.697 260.404 366.436 261.301 365.861 262.018C365.287 262.735 364.467 263.185 363.554 263.286L357.412 263.963C357.286 263.975 357.158 263.982 357.03 263.982ZM340.203 248.02L340.613 248.24C344.561 250.358 348.827 251.598 353.296 251.929L353.76 251.964L354.733 260.795C354.801 261.411 355.104 261.962 355.587 262.349C356.07 262.737 356.674 262.918 357.29 262.844L363.431 262.167C364.046 262.099 364.599 261.796 364.986 261.313C365.374 260.83 365.549 260.226 365.481 259.611L364.508 250.78L364.954 250.646C369.244 249.349 373.14 247.208 376.531 244.283L376.884 243.979L383.817 249.538C384.813 250.334 386.274 250.174 387.075 249.179L390.937 244.358C391.326 243.875 391.502 243.27 391.433 242.655C391.365 242.038 391.063 241.487 390.579 241.1L383.646 235.541L383.866 235.13C385.983 231.181 387.224 226.915 387.555 222.448L387.589 221.984L396.42 221.01C397.035 220.943 397.587 220.639 397.974 220.156C398.363 219.673 398.538 219.069 398.469 218.453L397.793 212.311C397.724 211.696 397.421 211.144 396.938 210.757C396.455 210.37 395.853 210.188 395.235 210.262L386.404 211.235L386.27 210.788C384.974 206.5 382.833 202.605 379.907 199.213L379.603 198.86L385.162 191.926C385.549 191.443 385.724 190.839 385.656 190.223C385.587 189.608 385.285 189.056 384.802 188.668L379.981 184.804C378.982 184.005 377.523 184.166 376.723 185.162L371.165 192.096L370.755 191.875C366.806 189.758 362.539 188.516 358.072 188.185L357.608 188.15L356.635 179.319C356.495 178.05 355.343 177.136 354.078 177.27L347.937 177.947C347.321 178.015 346.769 178.317 346.382 178.801C345.994 179.283 345.819 179.888 345.887 180.505L346.858 189.335L346.412 189.47C342.124 190.765 338.23 192.905 334.837 195.831L334.484 196.136L327.551 190.579C327.068 190.191 326.459 190.015 325.847 190.084C325.231 190.151 324.68 190.455 324.292 190.938L320.427 195.758C320.04 196.242 319.865 196.846 319.933 197.461C320.002 198.077 320.304 198.628 320.787 199.015L327.721 204.574L327.501 204.985C325.383 208.933 324.143 213.199 323.812 217.667L323.777 218.132L314.947 219.105C314.332 219.172 313.78 219.476 313.392 219.959C313.004 220.443 312.829 221.046 312.898 221.663L313.574 227.804C313.643 228.419 313.946 228.971 314.428 229.358C314.912 229.746 315.515 229.922 316.132 229.853L324.963 228.882L325.097 229.328C326.392 233.616 328.534 237.511 331.459 240.904L331.764 241.257L326.207 248.191C325.819 248.675 325.644 249.28 325.712 249.895C325.781 250.511 326.083 251.062 326.566 251.449L331.387 255.314C331.87 255.7 332.474 255.88 333.09 255.808C333.707 255.741 334.258 255.438 334.645 254.954L340.203 248.02ZM355.668 237.322C351.878 237.322 348.065 236.084 344.884 233.536C341.285 230.65 339.023 226.536 338.519 221.951C338.014 217.365 339.325 212.857 342.209 209.257C345.095 205.658 349.209 203.397 353.794 202.892C358.387 202.382 362.888 203.699 366.487 206.582C373.918 212.539 375.117 223.431 369.163 230.861C365.756 235.11 360.733 237.322 355.668 237.322ZM355.716 203.907C355.121 203.907 354.52 203.94 353.917 204.007C349.63 204.48 345.783 206.593 343.086 209.959C337.516 216.907 338.637 227.091 345.585 232.659C352.532 238.229 362.718 237.106 368.287 230.16C373.854 223.212 372.733 213.027 365.786 207.457C362.893 205.14 359.372 203.907 355.716 203.907Z" fill="white"/>
</g>
<g opacity="0.38">
<path d="M432.81 290.547H369.261C368.164 290.547 367.271 289.484 367.271 288.178V264.793C367.271 263.485 368.165 262.422 369.261 262.422H432.81C433.907 262.422 434.8 263.485 434.8 264.793V288.178C434.8 289.484 433.906 290.547 432.81 290.547ZM369.261 263.545C368.791 263.545 368.394 264.117 368.394 264.793V288.178C368.394 288.854 368.791 289.424 369.261 289.424H432.81C433.28 289.424 433.677 288.853 433.677 288.178V264.793C433.677 264.116 433.28 263.545 432.81 263.545H369.261Z" fill="#65FF00"/>
<path d="M423.367 271.466H380.35V272.589H423.367V271.466Z" fill="#65FF00"/>
<path d="M423.37 273.149H380.353C379.733 273.149 379.23 272.647 379.23 272.027C379.23 271.408 379.733 270.905 380.353 270.905H423.37C423.99 270.905 424.493 271.408 424.493 272.027C424.493 272.646 423.989 273.149 423.37 273.149ZM423.37 272.027V272.588L423.372 272.027H423.37Z" fill="#65FF00"/>
<path d="M399.572 276.568H380.35V277.691H399.572V276.568Z" fill="#65FF00"/>
<path d="M399.573 278.251H380.351C379.731 278.251 379.229 277.749 379.229 277.129C379.229 276.51 379.731 276.007 380.351 276.007H399.573C400.192 276.007 400.695 276.51 400.695 277.129C400.695 277.749 400.192 278.251 399.573 278.251ZM399.573 277.129V277.69L399.574 277.129H399.573Z" fill="#65FF00"/>
<path d="M423.371 276.568H404.15V277.691H423.371V276.568Z" fill="#65FF00"/>
<path d="M423.371 278.251H404.15C403.53 278.251 403.027 277.749 403.027 277.129C403.027 276.51 403.53 276.007 404.15 276.007H423.371C423.99 276.007 424.493 276.51 424.493 277.129C424.493 277.749 423.989 278.251 423.371 278.251ZM423.371 277.129V277.69L423.372 277.129H423.371Z" fill="#65FF00"/>
<path d="M423.367 281.908H380.35V283.03H423.367V281.908Z" fill="#65FF00"/>
<path d="M423.37 283.592H380.353C379.733 283.592 379.23 283.09 379.23 282.47C379.23 281.85 379.733 281.348 380.353 281.348H423.37C423.99 281.348 424.493 281.85 424.493 282.47C424.493 283.09 423.989 283.592 423.37 283.592ZM423.37 282.47V283.031L423.372 282.47H423.37Z" fill="#65FF00"/>
</g>
<g opacity="0.55">
<path d="M255.864 394.499C254.982 394.499 254.13 394.201 253.431 393.639C252.616 392.987 252.105 392.057 251.992 391.02L251.202 383.846C247.296 383.445 243.55 382.356 240.04 380.598L235.526 386.232C234.178 387.912 231.715 388.184 230.036 386.837L225.375 383.101C224.561 382.449 224.05 381.518 223.937 380.481C223.822 379.444 224.119 378.425 224.771 377.612L229.286 371.977C226.807 368.934 224.928 365.514 223.688 361.791L216.513 362.581C214.373 362.806 212.439 361.266 212.203 359.127L211.549 353.19C211.314 351.051 212.864 349.117 215.003 348.88L222.178 348.091C222.578 344.186 223.669 340.441 225.425 336.929L219.791 332.414C218.112 331.067 217.841 328.604 219.187 326.925L222.923 322.265C223.575 321.45 224.505 320.94 225.542 320.826C226.58 320.712 227.598 321.008 228.412 321.66L234.047 326.174C237.091 323.696 240.511 321.816 244.233 320.576L243.443 313.402C243.329 312.366 243.625 311.347 244.278 310.532C244.93 309.717 245.861 309.207 246.898 309.093L252.835 308.439C253.873 308.329 254.89 308.622 255.705 309.274C256.519 309.926 257.03 310.857 257.143 311.894L257.934 319.069C261.837 319.468 265.584 320.559 269.095 322.316L273.609 316.682C274.955 315.001 277.418 314.729 279.1 316.077L283.761 319.813C284.574 320.465 285.085 321.395 285.198 322.432C285.314 323.469 285.016 324.488 284.364 325.302L279.849 330.936C282.328 333.98 284.207 337.4 285.447 341.122L292.622 340.333C294.757 340.1 296.695 341.647 296.932 343.786L297.586 349.724C297.821 351.863 296.271 353.797 294.132 354.034L286.957 354.824C286.557 358.727 285.466 362.474 283.71 365.984L289.344 370.499H289.343C290.158 371.151 290.668 372.082 290.782 373.119C290.897 374.156 290.6 375.175 289.948 375.989L286.213 380.649C285.561 381.463 284.63 381.975 283.593 382.088C282.557 382.209 281.538 381.907 280.722 381.253L275.088 376.738C272.045 379.216 268.625 381.096 264.902 382.337L265.692 389.512C265.929 391.651 264.379 393.584 262.238 393.821L256.301 394.474C256.155 394.491 256.009 394.499 255.864 394.499ZM239.449 377.748L240.27 378.191C244.013 380.198 248.06 381.376 252.301 381.69L253.231 381.76L254.224 390.775C254.273 391.216 254.489 391.611 254.836 391.89C255.182 392.166 255.617 392.292 256.055 392.243L261.993 391.59C262.434 391.542 262.829 391.324 263.107 390.977C263.385 390.632 263.51 390.2 263.461 389.757L262.468 380.742L263.361 380.472C267.427 379.243 271.122 377.214 274.34 374.438L275.047 373.829L282.126 379.503C282.473 379.78 282.902 379.906 283.348 379.858C283.789 379.809 284.184 379.592 284.461 379.246L288.196 374.586C288.473 374.239 288.599 373.806 288.551 373.365C288.501 372.924 288.285 372.529 287.939 372.251H287.938L280.859 366.576L281.302 365.754C283.309 362.009 284.487 357.962 284.801 353.725L284.871 352.795L293.886 351.801C294.796 351.7 295.454 350.879 295.355 349.969L294.701 344.031C294.601 343.12 293.774 342.468 292.868 342.563L283.853 343.556L283.583 342.662C282.354 338.595 280.325 334.901 277.55 331.684L276.939 330.977L282.615 323.897C282.892 323.551 283.018 323.118 282.969 322.677C282.92 322.236 282.703 321.841 282.358 321.564L277.697 317.827C276.985 317.256 275.936 317.369 275.362 318.086L269.689 325.165L268.866 324.723C265.121 322.715 261.074 321.538 256.836 321.224L255.905 321.154L254.912 312.138C254.864 311.697 254.647 311.302 254.301 311.025C253.954 310.747 253.521 310.624 253.081 310.67L247.143 311.325C246.702 311.373 246.307 311.59 246.029 311.936C245.752 312.283 245.626 312.715 245.675 313.155L246.669 322.172L245.775 322.441C241.709 323.67 238.014 325.699 234.797 328.476L234.09 329.084L227.01 323.411C226.662 323.133 226.236 323.009 225.789 323.056C225.348 323.106 224.953 323.322 224.676 323.668L220.941 328.328C220.663 328.675 220.538 329.108 220.586 329.549C220.635 329.99 220.852 330.385 221.198 330.662L228.277 336.338L227.835 337.159C225.827 340.905 224.65 344.952 224.336 349.19L224.266 350.12L215.25 351.112C214.341 351.213 213.682 352.035 213.781 352.945L214.436 358.882C214.535 359.792 215.356 360.446 216.268 360.351L225.284 359.358L225.553 360.251C226.782 364.319 228.811 368.012 231.587 371.23L232.197 371.937L226.522 379.017C226.245 379.362 226.119 379.796 226.167 380.237C226.217 380.678 226.433 381.073 226.779 381.35L231.44 385.086C232.15 385.656 233.2 385.543 233.774 384.829L239.449 377.748ZM254.551 368.726C250.76 368.726 246.945 367.487 243.764 364.937C240.163 362.052 237.901 357.936 237.396 353.348C236.891 348.761 238.203 344.253 241.089 340.651C243.974 337.049 248.09 334.788 252.677 334.284C257.27 333.776 261.773 335.091 265.373 337.977C268.974 340.862 271.235 344.978 271.74 349.565C272.245 354.151 270.933 358.66 268.048 362.261C264.641 366.513 259.617 368.726 254.551 368.726ZM254.597 336.422C254.041 336.422 253.484 336.452 252.923 336.514C248.931 336.954 245.351 338.922 242.84 342.053C240.33 345.186 239.188 349.11 239.628 353.101C240.068 357.093 242.036 360.673 245.168 363.184C251.638 368.367 261.114 367.323 266.298 360.857C268.809 357.724 269.95 353.801 269.51 349.81C269.07 345.818 267.103 342.238 263.971 339.727C261.277 337.569 257.999 336.422 254.597 336.422Z" fill="#65FF00"/>
</g>
<g opacity="0.61">
<path opacity="0.74" d="M110.377 124.364L112.453 295.246C112.479 297.375 110.774 299.121 108.646 299.147L5.97669 300.394C3.84763 300.42 2.10128 298.715 2.07547 296.587L0.000289315 125.705C-0.0255242 123.576 1.67929 121.83 3.80722 121.804L106.477 120.557C108.605 120.53 110.351 122.235 110.377 124.364Z" fill="white"/>
<path d="M110.745 124.295L110.869 134.448L0.491211 135.789L0.365511 125.447C0.34082 123.41 1.97268 121.738 4.0097 121.713L106.819 120.464C108.961 120.438 110.719 122.154 110.745 124.295Z" fill="black"/>
<path d="M7.9732 130.736C6.72068 130.746 5.69263 129.734 5.68365 128.481C5.67467 127.227 6.68589 126.2 7.9384 126.191C9.19092 126.182 10.219 127.194 10.228 128.446C10.2369 129.7 9.22572 130.727 7.9732 130.736ZM7.94514 127.099C7.19318 127.105 6.586 127.721 6.59161 128.473C6.59723 129.225 7.21338 129.832 7.96534 129.827C8.7173 129.821 9.32448 129.205 9.31887 128.453C9.31326 127.701 8.6971 127.094 7.94514 127.099Z" fill="white"/>
<path d="M15.565 130.679C14.3125 130.688 13.2844 129.677 13.2754 128.424C13.2665 127.171 14.2777 126.144 15.5302 126.135C16.7827 126.126 17.8096 127.137 17.8197 128.39C17.8287 129.642 16.8175 130.669 15.565 130.679ZM15.5369 127.043C14.785 127.048 14.1778 127.665 14.1834 128.417C14.189 129.168 14.8052 129.776 15.5571 129.77C16.3091 129.764 16.9163 129.148 16.9107 128.396C16.9051 127.644 16.2889 127.037 15.5369 127.043Z" fill="white"/>
<path d="M22.9439 130.623C21.6914 130.632 20.6633 129.621 20.6544 128.368C20.6454 127.115 21.6566 126.088 22.9091 126.079C24.1616 126.07 25.1897 127.081 25.1987 128.333C25.2088 129.587 24.1964 130.614 22.9439 130.623ZM22.9158 126.987C22.1639 126.992 21.5567 127.608 21.5623 128.36C21.5679 129.112 22.1841 129.72 22.9361 129.714C23.688 129.708 24.2952 129.092 24.2896 128.34C24.284 127.588 23.6678 126.981 22.9158 126.987Z" fill="white"/>
<path d="M60.9585 151.56L9.951 151.946C9.44932 151.949 9.03854 151.546 9.03518 151.044C9.03181 150.541 9.43473 150.131 9.93753 150.128L60.945 149.742C61.4467 149.738 61.8575 150.141 61.8609 150.644C61.8642 151.147 61.4602 151.557 60.9585 151.56Z" fill="white"/>
<path d="M77.9617 151.43L67.3748 151.51C66.8731 151.514 66.4624 151.111 66.459 150.608C66.4556 150.105 66.8585 149.695 67.3613 149.692L77.9483 149.612C78.4499 149.609 78.8607 150.012 78.8641 150.515C78.8674 151.017 78.4645 151.427 77.9617 151.43Z" fill="black"/>
<path d="M61.2788 193.907L10.2713 194.293C9.76963 194.296 9.35886 193.893 9.35549 193.39C9.35212 192.888 9.75504 192.478 10.2578 192.474L61.2654 192.088C61.767 192.085 62.1778 192.488 62.1812 192.991C62.1846 193.494 61.7816 193.903 61.2788 193.907Z" fill="white"/>
<path d="M78.284 193.777L67.6971 193.857C67.1954 193.86 66.7846 193.457 66.7813 192.955C66.7779 192.452 67.1808 192.042 67.6836 192.039L78.2705 191.959C78.7722 191.956 79.183 192.359 79.1864 192.861C79.1897 193.364 78.7857 193.774 78.284 193.777Z" fill="black"/>
<path d="M61.1128 171.771L10.1053 172.157C9.60361 172.16 9.19284 171.757 9.18947 171.255C9.18611 170.752 9.58901 170.342 10.0918 170.339L61.0993 169.953C61.601 169.949 62.0118 170.352 62.0152 170.855C62.0185 171.357 61.6145 171.766 61.1128 171.771Z" fill="black"/>
<path d="M78.1141 171.642L67.5272 171.722C67.0255 171.725 66.6147 171.322 66.6113 170.819C66.608 170.316 67.0109 169.907 67.5137 169.903L78.1006 169.824C78.6023 169.82 79.0131 170.223 79.0164 170.726C79.0198 171.229 78.6158 171.639 78.1141 171.642Z" fill="white"/>
<path d="M95.5457 171.509L84.9588 171.589C84.4571 171.592 84.0464 171.189 84.043 170.686C84.0396 170.184 84.4437 169.774 84.9453 169.771L95.5323 169.691C96.0339 169.688 96.4447 170.09 96.4481 170.593C96.4515 171.096 96.0474 171.506 95.5457 171.509Z" fill="black"/>
<path d="M44.0306 161.634L10.0252 161.891C9.52353 161.894 9.11276 161.492 9.1094 160.989C9.10603 160.486 9.50894 160.076 10.0117 160.073L44.0171 159.816C44.5188 159.813 44.9296 160.215 44.933 160.718C44.9363 161.22 44.5334 161.63 44.0306 161.634Z" fill="black"/>
<path d="M65.2049 161.473L50.2869 161.587C49.7853 161.59 49.3745 161.187 49.3711 160.684C49.3677 160.182 49.7707 159.772 50.2735 159.769L65.1914 159.655C65.6931 159.652 66.1039 160.055 66.1073 160.558C66.1106 161.059 65.7066 161.469 65.2049 161.473Z" fill="black"/>
<path d="M65.3665 182.77L31.3612 183.027C30.8595 183.031 30.4487 182.628 30.4453 182.125C30.442 181.622 30.8449 181.213 31.3477 181.209L65.3531 180.952C65.8548 180.949 66.2655 181.352 66.2689 181.855C66.2734 182.356 65.8693 182.766 65.3665 182.77Z" fill="black"/>
<path d="M25.1042 183.075L10.1873 183.188C9.68565 183.192 9.27487 182.789 9.27151 182.286C9.26814 181.783 9.67105 181.374 10.1739 181.37L25.0907 181.257C25.5924 181.253 26.0032 181.656 26.0065 182.159C26.0099 182.662 25.6059 183.072 25.1042 183.075Z" fill="black"/>
<path d="M61.3882 208.182L10.3807 208.569C9.87901 208.572 9.46823 208.169 9.46486 207.666C9.4615 207.163 9.86441 206.754 10.3672 206.75L61.3747 206.364C61.8764 206.361 62.2872 206.764 62.2906 207.267C62.2939 207.769 61.8899 208.178 61.3882 208.182Z" fill="black"/>
<path d="M78.3914 208.054L67.8045 208.133C67.3028 208.137 66.8921 207.734 66.8887 207.231C66.8853 206.728 67.2882 206.318 67.791 206.315L78.378 206.235C78.8796 206.232 79.2904 206.635 79.2938 207.138C79.2971 207.641 78.8931 208.05 78.3914 208.054Z" fill="black"/>
<path d="M61.7085 250.528L10.701 250.914C10.1993 250.917 9.78854 250.514 9.78518 250.011C9.78181 249.509 10.1847 249.099 10.6875 249.096L61.695 248.709C62.1967 248.706 62.6075 249.109 62.6109 249.612C62.6142 250.115 62.2102 250.524 61.7085 250.528Z" fill="white"/>
<path d="M78.7117 250.4L68.1248 250.479C67.6231 250.483 67.2124 250.08 67.209 249.577C67.2056 249.074 67.6086 248.665 68.1114 248.661L78.6983 248.582C79.1999 248.578 79.6107 248.981 79.6141 249.484C79.6174 249.986 79.2134 250.395 78.7117 250.4Z" fill="black"/>
<path d="M61.5406 228.393L10.533 228.779C10.0313 228.783 9.62058 228.38 9.61721 227.877C9.61384 227.374 10.0168 226.965 10.5196 226.961L61.5271 226.575C62.0288 226.572 62.4395 226.975 62.4429 227.478C62.4463 227.979 62.0422 228.389 61.5406 228.393Z" fill="black"/>
<path d="M78.5418 228.264L67.9549 228.344C67.4532 228.347 67.0425 227.944 67.0391 227.441C67.0357 226.939 67.4397 226.529 67.9414 226.525L78.5283 226.446C79.03 226.442 79.4408 226.845 79.4442 227.348C79.4487 227.851 79.0446 228.261 78.5418 228.264Z" fill="white"/>
<path d="M95.9735 228.132L85.3865 228.211C84.8849 228.215 84.4741 227.812 84.4707 227.309C84.4674 226.806 84.8703 226.397 85.3731 226.393L95.9589 226.313C96.4606 226.31 96.8713 226.713 96.8747 227.216C96.8792 227.719 96.4751 228.128 95.9735 228.132Z" fill="black"/>
<path d="M44.4603 218.255L10.4549 218.512C9.95322 218.516 9.54245 218.113 9.53908 217.61C9.53572 217.107 9.93976 216.697 10.4414 216.694L44.4468 216.437C44.9485 216.434 45.3593 216.837 45.3626 217.339C45.366 217.842 44.962 218.252 44.4603 218.255Z" fill="black"/>
<path d="M65.6346 218.095L50.7166 218.208C50.2149 218.211 49.8042 217.808 49.8008 217.306C49.7974 216.803 50.2004 216.393 50.7032 216.39L65.6211 216.276C66.1228 216.273 66.5336 216.676 66.5369 217.179C66.5403 217.682 66.1363 218.091 65.6346 218.095Z" fill="black"/>
<path d="M65.7943 239.392L31.7889 239.649C31.2872 239.652 30.8764 239.249 30.8731 238.747C30.8697 238.244 31.2737 237.834 31.7754 237.831L65.7808 237.574C66.2825 237.57 66.6933 237.973 66.6966 238.476C66.7 238.979 66.2971 239.389 65.7943 239.392Z" fill="black"/>
<path d="M25.5319 239.697L10.6151 239.81C10.1134 239.814 9.70261 239.411 9.69924 238.908C9.69587 238.405 10.0988 237.996 10.6016 237.992L25.5184 237.879C26.0201 237.876 26.4309 238.278 26.4343 238.781C26.4388 239.283 26.0347 239.693 25.5319 239.697Z" fill="black"/>
<path d="M61.8081 263.622L10.8006 264.008C10.2989 264.011 9.88815 263.608 9.88479 263.106C9.88142 262.603 10.2843 262.193 10.7871 262.19L61.7947 261.804C62.2963 261.8 62.7071 262.203 62.7105 262.706C62.715 263.209 62.3109 263.619 61.8081 263.622Z" fill="black"/>
<path d="M78.8094 263.494L68.2225 263.574C67.7208 263.577 67.31 263.174 67.3067 262.671C67.3033 262.168 67.7073 261.759 68.209 261.756L78.7959 261.676C79.2976 261.672 79.7084 262.075 79.7117 262.578C79.7151 263.08 79.3111 263.489 78.8094 263.494Z" fill="black"/>
<path d="M79.0106 290.232L68.4237 290.312C67.922 290.315 67.5112 289.912 67.5078 289.41C67.5045 288.907 67.9085 288.497 68.4102 288.494L78.9971 288.414C79.4988 288.411 79.9096 288.814 79.9129 289.316C79.9163 289.818 79.5134 290.228 79.0106 290.232Z" fill="white"/>
<path d="M96.4422 290.1L85.8553 290.18C85.3536 290.183 84.9428 289.78 84.9395 289.277C84.9361 288.774 85.3401 288.365 85.8418 288.361L96.4287 288.282C96.9304 288.278 97.3412 288.681 97.3446 289.184C97.3479 289.687 96.9439 290.097 96.4422 290.1Z" fill="black"/>
<path d="M44.8802 273.696L10.8748 273.953C10.3731 273.956 9.96237 273.554 9.95901 273.051C9.95564 272.548 10.3586 272.138 10.8614 272.135L44.8667 271.878C45.3684 271.875 45.7792 272.278 45.7826 272.78C45.7859 273.283 45.3819 273.693 44.8802 273.696Z" fill="black"/>
<path d="M66.0545 273.536L51.1365 273.649C50.6349 273.652 50.2241 273.249 50.2207 272.747C50.2174 272.244 50.6203 271.834 51.1231 271.831L66.041 271.717C66.5427 271.714 66.9535 272.117 66.9569 272.62C66.9602 273.122 66.5562 273.532 66.0545 273.536Z" fill="black"/>
</g>
<path d="M95.8672 37.2273L95.8773 59.8209L95.8795 65.0678L95.9076 127.789L95.9615 250.519L95.9895 313.239L95.9918 318.486L95.9985 333.747C96.0019 340.641 100.351 346.501 106.446 348.785C108.203 349.443 110.097 349.82 112.084 349.819L123.543 349.813L249.724 349.758C253.096 349.757 256.223 348.712 258.808 346.937C263.028 344.038 265.798 339.18 265.795 333.673L265.665 37.1533C265.663 32.2117 263.427 27.7964 259.918 24.8481C257.121 22.499 253.517 21.0804 249.58 21.0815L111.94 21.1422C103.058 21.1455 95.8627 28.3475 95.8672 37.2273Z" fill="white"/>
<path d="M98 38.9645L98.01 61.301L98.0122 66.4883L98.0389 128.495L98.0912 249.83L98.1179 311.837L98.1201 317.024L98.1267 332.111C98.1301 338.926 102.378 344.721 108.333 346.978C110.048 347.628 111.899 348.001 113.84 348L125.034 347.994L248.299 347.938C251.595 347.937 254.649 346.905 257.174 345.149C261.296 342.283 264.002 337.48 264 332.035L263.875 38.8877C263.873 34.002 261.69 29.637 258.261 26.7228C255.529 24.4003 252.008 22.9977 248.162 23L113.702 23.0608C105.025 23.0654 97.9967 30.1852 98 38.9645Z" fill="black"/>
<path d="M256.801 66.2636L256.907 304.567C256.908 306.696 255.183 308.423 253.054 308.424L108.715 308.488C106.586 308.489 104.859 306.764 104.858 304.635L104.754 66.3309C104.753 64.2019 106.478 62.4757 108.607 62.4746L252.945 62.4106C255.074 62.4106 256.8 64.1357 256.801 66.2636Z" fill="white"/>
<path d="M256.801 66.1652L256.808 81.6152L104.761 81.6825L104.754 66.0429C104.753 64.0059 106.404 62.3527 108.442 62.3516L252.921 62.2876C255.063 62.2876 256.8 64.0227 256.801 66.1652Z" fill="#65FF00"/>
<path d="M238.032 69.7948C237.722 69.7948 237.471 69.5434 237.471 69.2336C237.471 68.9239 237.722 68.6725 238.032 68.6725L249.437 68.668C249.747 68.668 249.998 68.9194 249.998 69.2291C249.998 69.5389 249.747 69.7903 249.437 69.7903L238.032 69.7948Z" fill="black"/>
<path d="M238.034 72.7084C237.724 72.7084 237.473 72.457 237.473 72.1472C237.473 71.8374 237.724 71.586 238.034 71.586L249.439 71.5815C249.749 71.5815 250 71.8329 250 72.1427C250 72.4525 249.749 72.7039 249.439 72.7039L238.034 72.7084Z" fill="black"/>
<path d="M238.034 75.6219C237.724 75.6219 237.473 75.3705 237.473 75.0608C237.473 74.751 237.724 74.4996 238.034 74.4996L249.439 74.4951C249.749 74.4951 250 74.7465 250 75.0563C250 75.366 249.749 75.6174 249.439 75.6174L238.034 75.6219Z" fill="black"/>
<path d="M118.348 77.4791C118.204 77.4791 118.06 77.4241 117.95 77.3153L113.807 73.175C113.45 72.8181 113.45 72.2368 113.807 71.8799L117.788 67.8956C118.006 67.6767 118.362 67.6767 118.581 67.8956C118.8 68.1144 118.8 68.4702 118.581 68.6891L114.746 72.5274L118.745 76.5218C118.964 76.7407 118.964 77.0964 118.745 77.3153C118.634 77.4241 118.491 77.4791 118.348 77.4791Z" fill="black"/>
<path d="M180.91 48.1497C178.64 48.1497 176.794 46.3046 176.793 44.0353C176.792 41.766 178.637 39.9186 180.907 39.9175C183.177 39.9175 185.024 41.7626 185.025 44.0319C185.026 46.3013 183.181 48.1486 180.911 48.1497C180.911 48.1497 180.911 48.1497 180.91 48.1497ZM180.91 41.6616C180.909 41.6616 180.909 41.6616 180.909 41.6616C179.601 41.6627 178.537 42.7267 178.538 44.0353C178.539 45.3428 179.602 46.4057 180.911 46.4057C180.912 46.4057 180.912 46.4057 180.913 46.4057C181.546 46.4057 182.142 46.1576 182.59 45.7098C183.038 45.2609 183.283 44.666 183.283 44.0319C183.283 43.3989 183.035 42.803 182.588 42.3552C182.139 41.9074 181.543 41.6616 180.91 41.6616Z" fill="white"/>
<path d="M176.997 338.062C175.541 338.062 174.355 336.877 174.355 335.422L174.352 327.621C174.35 326.166 175.535 324.981 176.991 324.979L184.794 324.976C186.25 324.976 187.436 326.161 187.436 327.617L187.439 335.418C187.44 336.874 186.256 338.059 184.799 338.06L176.997 338.062ZM184.793 326.098L176.991 326.102C176.154 326.103 175.473 326.784 175.474 327.621L175.477 335.422C175.477 336.259 176.16 336.94 176.997 336.94L184.798 336.937C185.635 336.936 186.317 336.255 186.316 335.417L186.312 327.616C186.312 326.78 185.63 326.098 184.793 326.098Z" fill="white"/>
<path d="M130.005 327.372C129.695 327.372 129.443 327.121 129.443 326.811C129.443 326.501 129.695 326.25 130.005 326.25L137.514 326.247C137.824 326.247 138.075 326.498 138.075 326.808C138.075 327.118 137.824 327.369 137.514 327.369L130.005 327.372Z" fill="white"/>
<path d="M130.006 331.429C129.697 331.429 129.445 331.178 129.445 330.868C129.445 330.558 129.697 330.307 130.006 330.307L137.516 330.304C137.826 330.304 138.077 330.555 138.077 330.865C138.077 331.175 137.826 331.426 137.516 331.426L130.006 331.429Z" fill="white"/>
<path d="M130.008 335.536C129.699 335.536 129.447 335.284 129.447 334.975C129.447 334.665 129.699 334.414 130.008 334.414L137.518 334.41C137.828 334.41 138.079 334.662 138.079 334.971C138.079 335.281 137.828 335.532 137.518 335.532L130.008 335.536Z" fill="white"/>
<path d="M233.689 338.038C233.545 338.038 233.401 337.983 233.292 337.873L227.387 331.972L233.136 326.218C233.355 325.999 233.711 325.999 233.93 326.218C234.149 326.437 234.149 326.792 233.93 327.011L228.974 331.972L234.086 337.08C234.305 337.299 234.305 337.654 234.086 337.873C233.975 337.983 233.832 338.038 233.689 338.038Z" fill="white"/>
<path opacity="0.36" d="M256.818 81.8892H105.002V131.611H256.818V81.8892Z" fill="black"/>
<path opacity="0.43" d="M173.519 104.254L119.011 104.277C118.136 104.277 117.426 103.569 117.426 102.694L117.422 93.539C117.422 92.6635 118.131 91.9542 119.005 91.9542L173.514 91.9307C174.389 91.9307 175.098 92.64 175.098 93.5143L175.103 102.669C175.104 103.543 174.395 104.254 173.519 104.254Z" fill="black"/>
<path opacity="0.43" d="M203.471 117.304L119.016 117.341C118.14 117.341 117.431 116.633 117.431 115.758L117.43 112.764C117.43 111.889 118.138 111.18 119.013 111.18L203.468 111.143C204.344 111.143 205.053 111.851 205.053 112.726L205.054 115.719C205.054 116.594 204.345 117.304 203.471 117.304Z" fill="black"/>
<path opacity="0.43" d="M238.121 116.289C235.009 116.289 232.082 115.078 229.88 112.878C227.676 110.676 226.462 107.749 226.461 104.635C226.459 101.52 227.671 98.5919 229.872 96.3888C232.073 94.1857 235 92.9725 238.115 92.9702C238.115 92.9702 238.119 92.9702 238.121 92.9702C241.233 92.9702 244.159 94.1812 246.361 96.3821C248.564 98.583 249.778 101.51 249.78 104.624C249.782 107.739 248.57 110.667 246.369 112.871C244.168 115.074 241.241 116.288 238.125 116.29C238.125 116.29 238.123 116.289 238.121 116.289ZM238.121 95.2149C238.119 95.2149 238.117 95.2149 238.115 95.2149C235.601 95.216 233.238 96.1958 231.46 97.9747C229.682 99.7547 228.704 102.118 228.706 104.633C228.707 107.149 229.686 109.512 231.465 111.29C233.244 113.067 235.608 114.045 238.121 114.045C238.121 114.045 238.123 114.045 238.125 114.045C240.639 114.044 243.003 113.064 244.781 111.285C246.558 109.507 247.536 107.142 247.535 104.627C247.534 102.112 246.554 99.748 244.775 97.9702C242.997 96.1935 240.634 95.2149 238.121 95.2149Z" fill="black"/>
<path d="M148.679 184.983L123.563 184.995C120.739 184.996 118.45 182.708 118.449 179.885L118.438 154.769C118.436 151.945 120.724 149.656 123.547 149.655L148.663 149.644C151.487 149.642 153.776 151.93 153.777 154.753L153.789 179.869C153.791 182.692 151.502 184.981 148.679 184.983Z" fill="black"/>
<g opacity="0.57">
<path d="M143.741 167.489C143.743 171.701 140.33 175.117 136.118 175.118C131.906 175.12 128.491 171.707 128.488 167.495C128.486 163.283 131.899 159.867 136.111 159.866C140.323 159.865 143.738 163.278 143.741 167.489Z" fill="#65FF00"/>
</g>
<g opacity="0.26">
<path d="M181.087 161.479L161.214 161.488C160.508 161.488 159.936 160.916 159.936 160.21L159.934 156.427C159.934 155.721 160.505 155.15 161.211 155.149L181.084 155.14C181.79 155.14 182.362 155.711 182.362 156.417L182.364 160.2C182.364 160.905 181.793 161.477 181.087 161.479Z" fill="black"/>
<path d="M159.941 171.228C159.321 171.228 158.819 170.727 158.818 170.107C158.818 169.488 159.32 168.985 159.94 168.984L198.214 168.967C198.834 168.967 199.337 169.468 199.337 170.088C199.337 170.708 198.835 171.21 198.215 171.211L159.941 171.228Z" fill="black"/>
<path d="M159.945 179.237C159.325 179.237 158.822 178.735 158.822 178.116C158.822 177.496 159.324 176.992 159.943 176.992L222.354 176.965C222.973 176.965 223.476 177.467 223.476 178.087C223.476 178.706 222.974 179.21 222.354 179.21L159.945 179.237Z" fill="black"/>
<path d="M206.747 171.208C206.128 171.208 205.625 170.706 205.625 170.087C205.625 169.467 206.127 168.963 206.747 168.963L245.022 168.946C245.642 168.946 246.144 169.448 246.144 170.067C246.144 170.687 245.643 171.191 245.022 171.191L206.747 171.208Z" fill="black"/>
</g>
<path d="M148.724 287.796L123.608 287.808C120.784 287.809 118.495 285.521 118.494 282.698L118.482 257.582C118.481 254.758 120.769 252.469 123.592 252.468L148.708 252.457C151.532 252.455 153.821 254.743 153.822 257.566L153.833 282.682C153.836 285.505 151.547 287.794 148.724 287.796Z" fill="black"/>
<g opacity="0.57">
<path d="M143.786 270.302C143.788 274.514 140.375 277.93 136.163 277.931C131.951 277.933 128.535 274.52 128.533 270.308C128.531 266.096 131.944 262.68 136.156 262.679C140.368 262.678 143.783 266.091 143.786 270.302Z" fill="#65FF00"/>
</g>
<g opacity="0.26">
<path d="M181.133 264.291L161.26 264.3C160.554 264.3 159.982 263.728 159.982 263.022L159.98 259.239C159.98 258.533 160.552 257.962 161.258 257.961L181.132 257.952C181.838 257.952 182.409 258.523 182.41 259.229L182.412 263.012C182.41 263.718 181.838 264.291 181.133 264.291Z" fill="black"/>
<path d="M159.984 274.04C159.364 274.04 158.861 273.538 158.861 272.917C158.861 272.298 159.363 271.795 159.984 271.795L198.258 271.778H198.26C198.879 271.778 199.382 272.28 199.382 272.901C199.382 273.52 198.88 274.023 198.26 274.023L159.984 274.04Z" fill="black"/>
<path d="M159.99 282.05C159.37 282.05 158.867 281.548 158.867 280.928C158.867 280.308 159.369 279.805 159.99 279.805L222.4 279.778C223.019 279.778 223.522 280.28 223.522 280.901C223.522 281.52 223.021 282.023 222.4 282.023L159.99 282.05Z" fill="black"/>
<path d="M206.79 274.02C206.171 274.02 205.668 273.519 205.668 272.898C205.668 272.278 206.17 271.776 206.79 271.776L245.065 271.759C245.685 271.759 246.187 272.26 246.187 272.881C246.187 273.501 245.686 274.003 245.065 274.003L206.79 274.02Z" fill="black"/>
</g>
<path d="M148.702 236.27L123.587 236.282C120.763 236.283 118.473 233.996 118.472 231.172L118.461 206.056C118.46 203.233 120.747 200.943 123.571 200.942L148.686 200.931C151.51 200.93 153.8 203.217 153.801 206.041L153.812 231.156C153.814 233.979 151.526 236.268 148.702 236.27Z" fill="black"/>
<g opacity="0.57">
<path d="M143.764 218.776C143.766 222.988 140.353 226.404 136.141 226.405C131.929 226.407 128.514 222.995 128.512 218.782C128.509 214.57 131.922 211.154 136.135 211.153C140.347 211.152 143.762 214.565 143.764 218.776Z" fill="#65FF00"/>
</g>
<g opacity="0.26">
<path d="M181.109 212.765L161.235 212.774C160.529 212.774 159.956 212.203 159.956 211.497L159.955 207.714C159.955 207.008 160.526 206.436 161.232 206.435L181.106 206.426C181.812 206.426 182.384 206.998 182.385 207.703L182.386 211.487C182.386 212.193 181.815 212.765 181.109 212.765Z" fill="black"/>
<path d="M159.962 222.515C159.343 222.515 158.84 222.014 158.84 221.393C158.84 220.773 159.342 220.271 159.961 220.271L177.664 220.263H177.665C178.284 220.263 178.787 220.764 178.787 221.385C178.787 222.005 178.285 222.507 177.666 222.507L159.962 222.515Z" fill="black"/>
<path d="M159.966 230.525C159.347 230.525 158.845 230.023 158.844 229.403C158.843 228.783 159.345 228.28 159.965 228.28L196.289 228.264C196.909 228.264 197.411 228.765 197.411 229.386C197.413 230.006 196.91 230.508 196.29 230.508L159.966 230.525Z" fill="black"/>
<path d="M185.072 222.505C184.452 222.505 183.949 222.003 183.949 221.383C183.949 220.763 184.451 220.26 185.07 220.26L220.42 220.245C221.04 220.245 221.543 220.746 221.543 221.367C221.543 221.986 221.041 222.489 220.42 222.489L185.072 222.505Z" fill="black"/>
<path d="M227.003 222.486C226.384 222.486 225.881 221.985 225.881 221.364C225.881 220.745 226.383 220.242 227.003 220.242L244.707 220.234C245.326 220.234 245.829 220.736 245.829 221.356C245.829 221.976 245.327 222.479 244.707 222.479L227.003 222.486Z" fill="black"/>
</g>
<path opacity="0.39" d="M372.113 236.811L373.582 357.714C373.608 359.844 371.903 361.59 369.775 361.616L297.996 362.488C295.867 362.514 294.12 360.809 294.094 358.681L292.625 237.777C292.599 235.648 294.304 233.902 296.432 233.876L368.212 233.004C370.341 232.978 372.087 234.683 372.113 236.811Z" fill="black"/>
<path opacity="0.39" d="M372.113 236.811L373.582 357.714C373.608 359.844 371.903 361.59 369.775 361.616L297.996 362.488C295.867 362.514 294.12 360.809 294.094 358.681L292.625 237.777C292.599 235.648 294.304 233.902 296.432 233.876L368.212 233.004C370.341 232.978 372.087 234.683 372.113 236.811Z" fill="white"/>
<path d="M372.49 236.833L372.565 243.059L293.078 244.024L293 237.609C292.976 235.572 294.607 233.899 296.644 233.875L368.564 233C370.707 232.976 372.464 234.69 372.49 236.833Z" fill="black"/>
<path d="M298.354 240.321C297.451 240.328 296.712 239.599 296.705 238.697C296.698 237.795 297.427 237.055 298.329 237.048C299.231 237.042 299.971 237.77 299.978 238.672C299.985 239.575 299.256 240.314 298.354 240.321ZM298.334 237.703C297.793 237.707 297.355 238.15 297.359 238.691C297.364 239.232 297.807 239.67 298.349 239.666C298.89 239.661 299.328 239.218 299.323 238.676C299.319 238.136 298.876 237.699 298.334 237.703Z" fill="black"/>
<path d="M303.821 240.28C302.918 240.287 302.179 239.558 302.172 238.656C302.165 237.754 302.894 237.014 303.796 237.007C304.698 237.001 305.438 237.729 305.445 238.631C305.451 239.534 304.723 240.273 303.821 240.28ZM303.802 237.662C303.259 237.666 302.823 238.11 302.827 238.652C302.832 239.193 303.275 239.63 303.817 239.626C304.358 239.621 304.796 239.178 304.791 238.636C304.787 238.095 304.342 237.658 303.802 237.662Z" fill="black"/>
<path d="M309.135 240.241C308.233 240.247 307.493 239.519 307.486 238.617C307.48 237.714 308.208 236.975 309.11 236.968C310.013 236.961 310.752 237.689 310.759 238.592C310.766 239.494 310.037 240.233 309.135 240.241ZM309.116 237.622C308.574 237.627 308.137 238.07 308.142 238.611C308.146 239.152 308.59 239.59 309.132 239.585C309.673 239.581 310.11 239.137 310.106 238.596C310.1 238.054 309.657 237.618 309.116 237.622Z" fill="black"/>
<path d="M336.512 255.318L299.779 255.596C299.418 255.6 299.123 255.309 299.119 254.947C299.117 254.585 299.408 254.29 299.769 254.287L336.503 254.008C336.864 254.005 337.159 254.296 337.163 254.658C337.164 255.02 336.873 255.315 336.512 255.318Z" fill="black"/>
<path d="M348.757 255.225L341.133 255.283C340.771 255.285 340.476 254.995 340.473 254.633C340.469 254.272 340.761 253.977 341.123 253.973L348.746 253.916C349.108 253.913 349.403 254.203 349.406 254.566C349.409 254.927 349.118 255.222 348.757 255.225Z" fill="black"/>
<path d="M336.742 285.814L300.01 286.092C299.648 286.094 299.353 285.805 299.35 285.442C299.346 285.081 299.638 284.786 299.999 284.782L336.732 284.504C337.093 284.501 337.389 284.791 337.392 285.154C337.394 285.516 337.104 285.81 336.742 285.814Z" fill="black"/>
<path d="M348.987 285.72L341.363 285.779C341.002 285.781 340.707 285.49 340.703 285.129C340.701 284.767 340.992 284.472 341.353 284.469L348.977 284.412C349.338 284.408 349.633 284.699 349.637 285.061C349.639 285.423 349.348 285.718 348.987 285.72Z" fill="black"/>
<path d="M336.623 269.872L299.89 270.15C299.529 270.152 299.234 269.862 299.23 269.5C299.227 269.139 299.519 268.844 299.88 268.84L336.613 268.562C336.974 268.56 337.27 268.849 337.273 269.212C337.275 269.574 336.984 269.87 336.623 269.872Z" fill="black"/>
<path d="M348.866 269.779L341.242 269.837C340.881 269.839 340.585 269.549 340.582 269.187C340.58 268.826 340.87 268.531 341.232 268.527L348.856 268.47C349.217 268.468 349.512 268.758 349.516 269.12C349.518 269.481 349.227 269.777 348.866 269.779Z" fill="black"/>
<path d="M361.419 269.684L353.795 269.742C353.433 269.744 353.138 269.454 353.135 269.092C353.131 268.73 353.423 268.435 353.785 268.432L361.409 268.374C361.77 268.371 362.065 268.662 362.069 269.023C362.072 269.387 361.78 269.682 361.419 269.684Z" fill="black"/>
<path d="M324.321 262.573L299.832 262.758C299.47 262.76 299.175 262.469 299.172 262.108C299.17 261.746 299.46 261.451 299.822 261.448L324.311 261.263C324.672 261.259 324.967 261.55 324.971 261.913C324.974 262.275 324.683 262.569 324.321 262.573Z" fill="black"/>
<path d="M339.569 262.457L328.826 262.539C328.465 262.541 328.169 262.25 328.166 261.889C328.164 261.527 328.454 261.232 328.816 261.229L339.559 261.147C339.92 261.145 340.215 261.435 340.219 261.797C340.222 262.159 339.931 262.455 339.569 262.457Z" fill="black"/>
<path d="M339.686 277.794L315.197 277.979C314.836 277.982 314.541 277.692 314.537 277.329C314.534 276.968 314.826 276.672 315.187 276.669L339.676 276.484C340.038 276.482 340.333 276.771 340.336 277.134C340.338 277.496 340.048 277.791 339.686 277.794Z" fill="black"/>
<path d="M310.692 278.013L299.949 278.094C299.588 278.098 299.292 277.807 299.289 277.444C299.287 277.083 299.577 276.788 299.939 276.784L310.682 276.704C311.043 276.701 311.338 276.992 311.342 277.353C311.344 277.716 311.053 278.011 310.692 278.013Z" fill="black"/>
<path d="M336.82 296.094L300.088 296.373C299.726 296.375 299.431 296.084 299.428 295.723C299.426 295.362 299.716 295.066 300.078 295.063L336.81 294.785C337.172 294.782 337.467 295.072 337.47 295.435C337.472 295.797 337.182 296.092 336.82 296.094Z" fill="black"/>
<path d="M349.063 296.002L341.439 296.059C341.078 296.062 340.783 295.771 340.779 295.41C340.776 295.048 341.068 294.753 341.429 294.75L349.053 294.692C349.415 294.69 349.71 294.981 349.713 295.342C349.715 295.704 349.425 295.999 349.063 296.002Z" fill="black"/>
<path d="M337.053 326.589L300.32 326.867C299.959 326.87 299.664 326.58 299.66 326.218C299.657 325.856 299.949 325.561 300.31 325.558L337.044 325.279C337.405 325.277 337.7 325.568 337.704 325.929C337.705 326.292 337.414 326.587 337.053 326.589Z" fill="black"/>
<path d="M349.296 326.497L341.672 326.554C341.31 326.557 341.015 326.267 341.012 325.904C341.009 325.543 341.3 325.248 341.662 325.244L349.286 325.187C349.647 325.185 349.942 325.474 349.945 325.837C349.948 326.199 349.657 326.495 349.296 326.497Z" fill="black"/>
<path d="M336.932 310.649L300.199 310.927C299.838 310.929 299.542 310.639 299.539 310.277C299.536 309.916 299.828 309.621 300.189 309.617L336.922 309.339C337.283 309.337 337.578 309.626 337.581 309.989C337.585 310.351 337.293 310.646 336.932 310.649Z" fill="black"/>
<path d="M349.175 310.556L341.551 310.614C341.189 310.616 340.894 310.326 340.891 309.964C340.888 309.602 341.179 309.307 341.54 309.304L349.164 309.247C349.526 309.244 349.821 309.535 349.824 309.896C349.828 310.259 349.536 310.553 349.175 310.556Z" fill="black"/>
<path d="M361.727 310.461L354.103 310.518C353.742 310.522 353.447 310.231 353.443 309.869C353.44 309.507 353.732 309.212 354.093 309.209L361.717 309.151C362.079 309.148 362.374 309.439 362.377 309.801C362.38 310.164 362.089 310.459 361.727 310.461Z" fill="black"/>
<path d="M324.628 303.348L300.138 303.533C299.777 303.535 299.482 303.245 299.479 302.883C299.476 302.522 299.767 302.227 300.128 302.223L324.618 302.038C324.979 302.036 325.274 302.327 325.277 302.688C325.281 303.05 324.99 303.346 324.628 303.348Z" fill="black"/>
<path d="M339.876 303.233L329.133 303.314C328.771 303.317 328.476 303.027 328.473 302.664C328.47 302.303 328.761 302.008 329.123 302.004L339.865 301.923C340.227 301.921 340.522 302.212 340.525 302.573C340.529 302.935 340.238 303.23 339.876 303.233Z" fill="black"/>
<path d="M339.995 318.57L315.506 318.755C315.144 318.757 314.849 318.467 314.846 318.105C314.843 317.744 315.134 317.449 315.496 317.445L339.985 317.26C340.346 317.257 340.641 317.548 340.645 317.91C340.647 318.273 340.356 318.568 339.995 318.57Z" fill="black"/>
<path d="M311.001 318.79L300.258 318.871C299.896 318.874 299.601 318.583 299.598 318.221C299.595 317.859 299.886 317.564 300.247 317.561L310.99 317.479C311.352 317.477 311.647 317.767 311.65 318.129C311.653 318.491 311.362 318.787 311.001 318.79Z" fill="black"/>
<path d="M337.122 336.02L300.388 336.298C300.027 336.3 299.732 336.01 299.729 335.648C299.725 335.287 300.017 334.992 300.378 334.988L337.111 334.71C337.472 334.708 337.768 334.997 337.771 335.36C337.775 335.721 337.484 336.016 337.122 336.02Z" fill="black"/>
<path d="M349.366 335.926L341.742 335.984C341.381 335.986 341.085 335.695 341.082 335.334C341.08 334.972 341.37 334.677 341.732 334.674L349.356 334.617C349.717 334.614 350.012 334.904 350.016 335.267C350.019 335.629 349.727 335.924 349.366 335.926Z" fill="black"/>
<path d="M349.512 355.182L341.888 355.24C341.527 355.243 341.232 354.952 341.229 354.59C341.225 354.228 341.517 353.933 341.878 353.93L349.502 353.873C349.864 353.869 350.159 354.16 350.162 354.522C350.165 354.885 349.874 355.179 349.512 355.182Z" fill="black"/>
<path d="M362.065 355.087L354.441 355.144C354.08 355.147 353.785 354.856 353.781 354.495C353.779 354.133 354.07 353.838 354.431 353.835L362.055 353.777C362.416 353.775 362.712 354.066 362.715 354.427C362.718 354.79 362.427 355.085 362.065 355.087Z" fill="black"/>
<path d="M324.932 343.274L300.443 343.459C300.082 343.463 299.787 343.172 299.783 342.81C299.78 342.448 300.072 342.153 300.433 342.15L324.921 341.964C325.283 341.962 325.578 342.252 325.581 342.614C325.584 342.976 325.294 343.271 324.932 343.274Z" fill="black"/>
<path d="M340.182 343.158L329.439 343.239C329.078 343.241 328.783 342.951 328.779 342.589C328.777 342.228 329.068 341.933 329.429 341.929L340.172 341.849C340.533 341.845 340.829 342.136 340.832 342.499C340.834 342.86 340.544 343.155 340.182 343.158Z" fill="black"/>
<path opacity="0.22" d="M394.971 52.5904L396.448 197.193C396.47 199.322 394.761 201.065 392.634 201.087L306.206 201.97C304.077 201.991 302.334 200.283 302.313 198.155L300.836 53.5522C300.815 51.4232 302.522 49.6802 304.651 49.6589L391.078 48.7756C393.206 48.7543 394.949 50.4624 394.971 52.5904Z" fill="black"/>
<path d="M389.823 45.8931L391.3 190.496C391.321 192.625 389.613 194.368 387.485 194.389L301.058 195.271C298.929 195.293 297.186 193.585 297.165 191.457L295.688 46.8538C295.666 44.7248 297.373 42.9818 299.502 42.9605L385.93 42.0783C388.057 42.057 389.802 43.7652 389.823 45.8931Z" fill="white"/>
<path d="M389.916 45.8727L390 54.0299L295.085 55L295 46.6516C294.979 44.597 296.627 42.9137 298.683 42.8922L385.967 42.0002C388.125 41.9787 389.895 43.7129 389.916 45.8727Z" fill="black"/>
<path d="M378.52 46.9371C378.214 46.9371 377.962 46.6891 377.959 46.3816C377.956 46.0718 378.205 45.8182 378.515 45.8148L385.575 45.743C385.848 45.7003 386.139 45.9877 386.142 46.2985C386.145 46.6083 385.896 46.862 385.586 46.8653L378.526 46.9371C378.524 46.9371 378.522 46.9371 378.52 46.9371Z" fill="white"/>
<path d="M378.54 48.741C378.233 48.741 377.982 48.493 377.979 48.1855C377.975 47.8757 378.224 47.6221 378.534 47.6187L385.595 47.5469C385.849 47.5547 386.158 47.7927 386.161 48.1024C386.165 48.4122 385.916 48.6658 385.606 48.6692L378.545 48.741C378.543 48.741 378.54 48.741 378.54 48.741Z" fill="white"/>
<path d="M378.557 50.5442C378.25 50.5442 377.999 50.2962 377.996 49.9887C377.993 49.6789 378.242 49.4253 378.552 49.4219L385.612 49.3501C385.614 49.3501 385.616 49.3501 385.618 49.3501C385.924 49.3501 386.176 49.5981 386.179 49.9056C386.182 50.2154 385.933 50.4691 385.623 50.4724L378.563 50.5442C378.561 50.5442 378.56 50.5442 378.557 50.5442Z" fill="white"/>
<path d="M304.468 52.4198C304.326 52.4198 304.184 52.367 304.075 52.2593L301.484 49.7206C301.177 49.4198 301.172 48.9249 301.47 48.6173L303.912 46.1247C304.131 45.9047 304.487 45.8991 304.706 46.1168C304.927 46.3334 304.931 46.6892 304.715 46.9103L302.513 49.1572L304.86 51.4568C305.081 51.6734 305.085 52.0292 304.869 52.2503C304.757 52.3625 304.613 52.4198 304.468 52.4198Z" fill="white"/>
<path opacity="0.36" d="M387.281 194.648L300.563 195.136C298.471 195.147 296.765 193.461 296.753 191.369L296.584 161.318L390.879 160.787L391.048 190.839C391.06 192.931 389.375 194.636 387.281 194.648Z" fill="black"/>
<path d="M362.189 75.4035L324.309 75.6167C323.616 75.6201 323.05 75.0623 323.047 74.3698L323.023 70.2228C323.02 69.5303 323.578 68.9658 324.27 68.9613L362.151 68.7481C362.844 68.7447 363.408 69.3025 363.413 69.995L363.436 74.1431C363.44 74.8344 362.882 75.399 362.189 75.4035Z" fill="#65FF00"/>
<path opacity="0.32" d="M374.271 102.515L312.537 102.863C309.603 102.879 307.212 100.515 307.195 97.5809L307.188 96.279C307.171 93.3452 309.535 90.9547 312.469 90.9379L374.203 90.5899C377.137 90.5731 379.527 92.9378 379.544 95.8716L379.552 97.1735C379.569 100.107 377.205 102.498 374.271 102.515Z" fill="#101010"/>
<path opacity="0.43" d="M317.101 96.9199C317.112 98.9468 315.478 100.6 313.451 100.611C311.424 100.622 309.771 98.9883 309.76 96.9614C309.749 94.9345 311.383 93.2813 313.41 93.2701C315.438 93.2589 317.09 94.893 317.101 96.9199Z" fill="white"/>
<path d="M314.747 95.8852C314.751 96.6158 314.162 97.2107 313.432 97.2152C312.701 97.2197 312.106 96.6304 312.102 95.8998C312.097 95.1692 312.686 94.5743 313.417 94.5698C314.148 94.5654 314.744 95.1546 314.747 95.8852Z" fill="white"/>
<path d="M315.404 99.3015L311.483 99.324L311.481 98.8414C311.474 97.7033 312.391 96.7763 313.529 96.7696C314.557 96.7639 315.394 97.5922 315.401 98.6203L315.404 99.3015Z" fill="white"/>
<path opacity="0.32" d="M374.38 121.943L312.646 122.291C309.712 122.308 307.322 119.943 307.305 117.01L307.297 115.708C307.28 112.774 309.645 110.383 312.579 110.367L374.312 110.019C377.246 110.002 379.637 112.367 379.653 115.3L379.661 116.602C379.678 119.535 377.313 121.927 374.38 121.943Z" fill="#101010"/>
<path opacity="0.43" d="M317.21 116.349C317.222 118.376 315.587 120.029 313.561 120.04C311.534 120.051 309.88 118.417 309.869 116.39C309.858 114.363 311.492 112.71 313.519 112.699C315.546 112.688 317.198 114.322 317.21 116.349Z" fill="white"/>
<path d="M314.786 118.674L312.32 118.688C312.12 118.689 311.957 118.527 311.956 118.326L311.943 116.135C311.942 115.934 312.104 115.771 312.305 115.77L314.77 115.756C314.971 115.755 315.134 115.917 315.135 116.118L315.148 118.31C315.149 118.509 314.987 118.672 314.786 118.674Z" fill="white"/>
<path d="M312.255 116.031L312.25 115.124C312.248 114.885 312.34 114.659 312.508 114.488C312.677 114.317 312.902 114.222 313.142 114.221L313.975 114.216C313.977 114.216 313.978 114.216 313.981 114.216C314.194 114.216 314.396 114.299 314.549 114.45C314.701 114.601 314.785 114.803 314.787 115.019L314.793 116.015L314.513 116.018L314.506 115.02C314.506 114.88 314.45 114.747 314.35 114.648C314.251 114.551 314.12 114.496 313.981 114.496H313.977L313.145 114.5C312.98 114.501 312.825 114.566 312.708 114.684C312.592 114.802 312.529 114.957 312.531 115.122L312.535 116.029L312.255 116.031Z" fill="white"/>
<path d="M358.135 143.646L331.505 143.796C328.281 143.814 325.653 141.216 325.635 137.992C325.617 134.769 328.215 132.141 331.438 132.123L358.068 131.972C361.291 131.954 363.92 134.552 363.938 137.776C363.957 141 361.359 143.628 358.135 143.646Z" fill="black"/>
<path d="M317.546 173.711C316.929 173.711 316.427 173.212 316.424 172.595C316.42 171.974 316.92 171.469 317.539 171.466L369.074 171.175C369.077 171.175 369.079 171.175 369.081 171.175C369.698 171.175 370.2 171.674 370.204 172.291C370.207 172.912 369.707 173.417 369.088 173.42L317.553 173.711C317.55 173.711 317.546 173.711 317.546 173.711Z" fill="white"/>
<path d="M328.038 181.46C327.421 181.46 326.919 180.962 326.916 180.344C326.913 179.724 327.412 179.219 328.032 179.215L358.675 179.042C358.677 179.042 358.679 179.042 358.681 179.042C359.299 179.042 359.8 179.541 359.804 180.158C359.807 180.779 359.308 181.284 358.688 181.287L328.045 181.46C328.043 181.46 328.041 181.46 328.038 181.46Z" fill="white"/>
<path opacity="0.22" d="M328.667 150.598L330.144 295.201C330.165 297.33 328.458 299.073 326.329 299.095L239.902 299.977C237.773 299.998 236.03 298.291 236.008 296.162L234.531 151.559C234.51 149.43 236.218 147.687 238.346 147.666L324.773 146.782C326.901 146.761 328.645 148.469 328.667 150.598Z" fill="#3E479B"/>
<path d="M323.518 143.901L324.995 288.504C325.017 290.633 323.309 292.376 321.18 292.397L234.753 293.28C232.624 293.302 230.881 291.595 230.86 289.466L229.383 144.863C229.362 142.734 231.07 140.991 233.198 140.969L319.625 140.087C321.754 140.064 323.497 141.772 323.518 143.901Z" fill="white"/>
<path opacity="0.42" d="M323.518 143.901L324.995 288.504C325.017 290.633 323.309 292.376 321.18 292.397L234.753 293.28C232.624 293.302 230.881 291.595 230.86 289.466L229.383 144.863C229.362 142.734 231.07 140.991 233.198 140.969L319.625 140.087C321.754 140.064 323.497 141.772 323.518 143.901Z" fill="black"/>
<path d="M323.832 143.847L323.915 151.935L229.78 152.896L229.695 144.618C229.675 142.581 231.309 140.912 233.348 140.891L319.915 140.007C322.056 139.986 323.811 141.705 323.832 143.847Z" fill="black"/>
<path d="M312.215 144.944C311.909 144.944 311.658 144.696 311.654 144.388C311.651 144.078 311.9 143.825 312.21 143.821L319.27 143.75C319.532 143.746 319.834 143.995 319.837 144.305C319.841 144.615 319.591 144.869 319.282 144.872L312.221 144.944C312.219 144.944 312.218 144.944 312.215 144.944Z" fill="white"/>
<path d="M312.235 146.748C311.929 146.748 311.677 146.5 311.674 146.193C311.67 145.883 311.92 145.629 312.229 145.626L319.29 145.554C319.292 145.554 319.293 145.554 319.296 145.554C319.602 145.554 319.853 145.802 319.857 146.11C319.86 146.42 319.611 146.673 319.301 146.677L312.241 146.748C312.238 146.748 312.237 146.748 312.235 146.748Z" fill="white"/>
<path d="M312.253 148.552C311.946 148.552 311.695 148.304 311.691 147.996C311.688 147.686 311.937 147.433 312.247 147.429L319.308 147.357C319.31 147.357 319.311 147.357 319.313 147.357C319.62 147.357 319.871 147.605 319.874 147.913C319.878 148.223 319.629 148.476 319.319 148.48L312.258 148.552C312.256 148.552 312.255 148.552 312.253 148.552Z" fill="white"/>
<path d="M238.163 150.427C238.022 150.427 237.879 150.374 237.77 150.266L235.179 147.727C234.873 147.428 234.867 146.933 235.164 146.626L237.607 144.133C237.826 143.914 238.182 143.907 238.401 144.125C238.622 144.341 238.626 144.697 238.41 144.918L236.208 147.165L238.555 149.465C238.776 149.681 238.78 150.037 238.564 150.258C238.454 150.37 238.309 150.427 238.163 150.427Z" fill="white"/>
<g opacity="0.36">
<path d="M320.979 292.656L234.26 293.144C232.168 293.155 230.462 291.469 230.451 289.377L230.281 259.326L324.576 258.795L324.745 288.846C324.757 290.937 323.071 292.643 320.979 292.656Z" fill="white"/>
<path d="M234.234 293.705C233.083 293.705 231.999 293.259 231.178 292.449C230.352 291.631 229.894 290.542 229.888 289.381L229.715 258.769L325.133 258.231L325.305 288.843C325.319 291.241 323.379 293.203 320.98 293.218L234.26 293.706C234.252 293.705 234.243 293.705 234.234 293.705ZM230.844 259.884L231.01 289.373C231.014 290.236 231.355 291.043 231.968 291.649C232.577 292.25 233.381 292.581 234.237 292.581C234.242 292.581 234.249 292.581 234.256 292.581L320.976 292.093C322.755 292.083 324.193 290.626 324.183 288.847L324.018 259.358L230.844 259.884Z" fill="white"/>
</g>
<path d="M313.843 175.209L245.867 175.125C244.657 175.124 243.679 174.142 243.68 172.932L243.689 166.153C243.69 164.943 244.672 163.964 245.882 163.966L313.858 164.05C315.068 164.051 316.046 165.033 316.045 166.243L316.037 173.022C316.035 174.232 315.053 175.212 313.843 175.209Z" fill="white"/>
<path d="M314.173 183.857L245.515 183.772C244.494 183.771 243.667 182.941 243.668 181.92C243.669 180.899 244.498 180.071 245.52 180.074L314.177 180.159C315.198 180.16 316.026 180.99 316.024 182.011C316.022 183.031 315.194 183.858 314.173 183.857Z" fill="white"/>
<path d="M314.161 192.385L245.504 192.3C244.482 192.299 243.655 191.469 243.656 190.448C243.657 189.426 244.487 188.599 245.508 188.602L314.165 188.687C315.187 188.688 316.014 189.517 316.013 190.539C316.012 191.559 315.182 192.386 314.161 192.385Z" fill="white"/>
<path d="M252.949 204.885C252.946 207.455 250.859 209.537 248.289 209.534C245.719 209.53 243.637 207.444 243.641 204.874C243.644 202.304 245.73 200.222 248.301 200.225C250.871 200.227 252.953 202.314 252.949 204.885Z" fill="#65FF00"/>
<path d="M252.922 225.985C252.919 228.555 250.832 230.637 248.262 230.633C245.692 230.63 243.61 228.544 243.613 225.973C243.617 223.403 245.703 221.321 248.273 221.325C250.844 221.328 252.925 223.414 252.922 225.985Z" fill="#65FF00"/>
<path d="M252.898 246.465C252.895 249.035 250.809 251.117 248.239 251.114C245.668 251.11 243.586 249.024 243.59 246.454C243.593 243.884 245.68 241.802 248.25 241.805C250.82 241.809 252.902 243.895 252.898 246.465Z" fill="#65FF00"/>
<path d="M300.122 203.233H300.121L255.587 203.178C255.279 203.178 255.027 202.925 255.027 202.616C255.027 202.307 255.28 202.056 255.589 202.056H255.59L300.124 202.111C300.432 202.111 300.684 202.363 300.684 202.673C300.684 202.982 300.431 203.233 300.122 203.233Z" fill="white"/>
<path d="M277.852 207.942H277.85L255.583 207.915C255.275 207.915 255.023 207.663 255.023 207.353C255.023 207.044 255.276 206.793 255.585 206.793H255.586L277.853 206.82C278.161 206.82 278.413 207.072 278.413 207.382C278.413 207.691 278.161 207.942 277.852 207.942Z" fill="white"/>
<path d="M300.096 225.026L255.56 224.97C255.251 224.97 255 224.717 255 224.408C255 224.099 255.253 223.848 255.561 223.848H255.562L300.097 223.904C300.406 223.904 300.657 224.156 300.657 224.466C300.657 224.775 300.405 225.026 300.096 225.026Z" fill="white"/>
<path d="M277.822 229.736C277.822 229.736 277.822 229.736 277.821 229.736L255.554 229.708C255.246 229.708 254.994 229.455 254.994 229.146C254.994 228.837 255.247 228.585 255.555 228.585L277.823 228.614C278.132 228.614 278.383 228.866 278.383 229.176C278.383 229.484 278.131 229.736 277.822 229.736Z" fill="white"/>
<path d="M300.072 244.924C300.072 244.924 300.072 244.924 300.071 244.924L255.537 244.868C255.228 244.868 254.977 244.615 254.977 244.306C254.977 243.997 255.229 243.746 255.538 243.746L300.073 243.802C300.381 243.802 300.633 244.054 300.633 244.364C300.633 244.673 300.381 244.924 300.072 244.924Z" fill="white"/>
<path d="M277.8 249.634H277.799L255.531 249.607C255.222 249.607 254.971 249.354 254.971 249.044C254.971 248.736 255.223 248.484 255.532 248.484H255.533L277.801 248.511C278.11 248.511 278.361 248.764 278.361 249.074C278.361 249.383 278.11 249.634 277.8 249.634Z" fill="white"/>
<path d="M251.724 271.717C251.107 271.717 250.605 271.219 250.602 270.602C250.598 269.981 251.098 269.476 251.717 269.473L303.252 269.182C303.254 269.182 303.257 269.182 303.259 269.182C303.876 269.182 304.378 269.68 304.381 270.298C304.385 270.918 303.885 271.423 303.266 271.427L251.731 271.717C251.728 271.717 251.726 271.717 251.724 271.717Z" fill="white"/>
<path d="M262.214 279.468C261.597 279.468 261.095 278.969 261.092 278.352C261.088 277.732 261.588 277.226 262.207 277.223L292.85 277.05C292.853 277.05 292.855 277.05 292.857 277.05C293.474 277.05 293.976 277.549 293.979 278.166C293.983 278.787 293.483 279.292 292.864 279.295L262.221 279.468C262.219 279.468 262.216 279.468 262.214 279.468Z" fill="white"/>
<path d="M124.699 119.777H44.2428C43.2439 119.777 42.4336 118.966 42.4336 117.967V94.5826C42.4336 93.5826 43.2439 92.7734 44.2428 92.7734H124.699C125.698 92.7734 126.508 93.5838 126.508 94.5826V117.967C126.508 118.967 125.698 119.777 124.699 119.777Z" fill="black"/>
<path d="M56.5697 114.458C51.7751 114.458 47.875 110.558 47.875 105.763C47.875 100.968 51.7751 97.0684 56.5697 97.0684C61.3643 97.0684 65.2643 100.968 65.2643 105.763C65.2643 110.558 61.3643 114.458 56.5697 114.458Z" fill="#65FF00"/>
<path d="M55.8011 109.028L52.5508 104.532C52.2736 104.148 52.3611 103.61 52.7427 103.333C52.929 103.198 53.1557 103.147 53.3836 103.18C53.6103 103.217 53.8078 103.34 53.9425 103.526L56.0132 106.388L66.3509 96.0502C66.5114 95.8886 66.7269 95.7988 66.957 95.7988C67.1859 95.7988 67.4025 95.8875 67.5653 96.0502C67.8997 96.3847 67.8997 96.929 67.5653 97.2635L55.8011 109.028Z" fill="white"/>
<path opacity="0.38" d="M115.639 102.378H72.6217C72.3119 102.378 72.0605 102.127 72.0605 101.817C72.0605 101.507 72.3119 101.256 72.6217 101.256H115.639C115.949 101.256 116.201 101.507 116.201 101.817C116.201 102.127 115.949 102.378 115.639 102.378Z" fill="white"/>
<path opacity="0.38" d="M91.8427 107.481H72.6217C72.3119 107.481 72.0605 107.23 72.0605 106.92C72.0605 106.61 72.3119 106.359 72.6217 106.359H91.8427C92.1525 106.359 92.4039 106.61 92.4039 106.92C92.4039 107.23 92.1536 107.481 91.8427 107.481Z" fill="white"/>
<path opacity="0.38" d="M115.641 107.481H96.4186C96.1088 107.481 95.8574 107.23 95.8574 106.92C95.8574 106.61 96.1088 106.359 96.4186 106.359H115.64C115.949 106.359 116.201 106.61 116.201 106.92C116.202 107.23 115.95 107.481 115.641 107.481Z" fill="white"/>
<path opacity="0.38" d="M115.639 112.821H72.6217C72.3119 112.821 72.0605 112.57 72.0605 112.26C72.0605 111.95 72.3119 111.699 72.6217 111.699H115.639C115.949 111.699 116.201 111.95 116.201 112.26C116.201 112.57 115.949 112.821 115.639 112.821Z" fill="white"/>
<path d="M432.428 243.856H351.971C350.972 243.856 350.162 243.045 350.162 242.047V218.662C350.162 217.662 350.972 216.853 351.971 216.853H432.428C433.426 216.853 434.237 217.663 434.237 218.662V242.047C434.237 243.045 433.426 243.856 432.428 243.856Z" fill="black"/>
<path d="M364.296 238.536C359.502 238.536 355.602 234.636 355.602 229.841C355.602 225.047 359.502 221.146 364.296 221.146C369.091 221.146 372.991 225.047 372.991 229.841C372.991 234.636 369.091 238.536 364.296 238.536Z" fill="#65FF00"/>
<path d="M363.527 233.108L360.277 228.611C360.142 228.425 360.088 228.198 360.124 227.973C360.16 227.746 360.283 227.546 360.47 227.413C360.653 227.279 360.877 227.222 361.108 227.26C361.336 227.297 361.536 227.421 361.67 227.609L363.739 230.469L374.077 220.131C374.412 219.797 374.955 219.796 375.29 220.131C375.625 220.466 375.625 221.01 375.29 221.344L363.527 233.108ZM360.757 228.264L360.759 228.267L360.757 228.264Z" fill="white"/>
<path opacity="0.38" d="M423.368 226.456H380.35C380.04 226.456 379.789 226.205 379.789 225.895C379.789 225.585 380.04 225.334 380.35 225.334H423.368C423.678 225.334 423.929 225.585 423.929 225.895C423.929 226.206 423.678 226.456 423.368 226.456Z" fill="white"/>
<path opacity="0.38" d="M399.571 231.559H380.35C380.04 231.559 379.789 231.308 379.789 230.998C379.789 230.688 380.04 230.437 380.35 230.437H399.571C399.881 230.437 400.132 230.688 400.132 230.998C400.132 231.309 399.882 231.559 399.571 231.559Z" fill="white"/>
<path opacity="0.38" d="M423.368 231.559H404.147C403.837 231.559 403.586 231.308 403.586 230.998C403.586 230.688 403.837 230.437 404.147 230.437H423.368C423.678 230.437 423.929 230.688 423.929 230.998C423.929 231.309 423.678 231.559 423.368 231.559Z" fill="white"/>
<path opacity="0.38" d="M423.368 236.899H380.35C380.04 236.899 379.789 236.648 379.789 236.338C379.789 236.028 380.04 235.777 380.35 235.777H423.368C423.678 235.777 423.929 236.028 423.929 236.338C423.929 236.649 423.678 236.899 423.368 236.899Z" fill="white"/>
</svg>
