<svg width="655" height="500" viewBox="0 0 655 500" fill="none" xmlns="http://www.w3.org/2000/svg">
<g clip-path="url(#clip0_478_1336)">
<mask id="mask0_478_1336" style="mask-type:luminance" maskUnits="userSpaceOnUse" x="0" y="0" width="750" height="500">
<path d="M750 0H0V499.75H750V0Z" fill="white"/>
</mask>
<g mask="url(#mask0_478_1336)">
<mask id="mask1_478_1336" style="mask-type:luminance" maskUnits="userSpaceOnUse" x="0" y="0" width="750" height="500">
<path d="M0 0H750V499.75H0V0Z" fill="white"/>
</mask>
<g mask="url(#mask1_478_1336)">
<g opacity="0.339996">
<mask id="mask2_478_1336" style="mask-type:luminance" maskUnits="userSpaceOnUse" x="549" y="60" width="136" height="66">
<g opacity="0.339996">
<path d="M549.857 60.7715H684.011V125.681H549.857V60.7715Z" fill="white"/>
</g>
</mask>
<g mask="url(#mask2_478_1336)">
<path d="M673.077 125.681H560.791C554.752 125.681 549.857 120.788 549.857 114.752V71.7C549.857 65.665 554.752 60.7715 560.791 60.7715H673.077C679.116 60.7715 684.011 65.665 684.011 71.7V114.752C684.011 120.788 679.116 125.681 673.077 125.681Z" fill="url(#paint0_linear_478_1336)"/>
</g>
</g>
</g>
<mask id="mask3_478_1336" style="mask-type:luminance" maskUnits="userSpaceOnUse" x="0" y="0" width="750" height="500">
<path d="M0 0H750V499.75H0V0Z" fill="white"/>
</mask>
<g mask="url(#mask3_478_1336)">
<g opacity="0.339996">
<mask id="mask4_478_1336" style="mask-type:luminance" maskUnits="userSpaceOnUse" x="68" y="302" width="126" height="127">
<g opacity="0.339996">
<path d="M68.0527 302.717H193.563V428.166H68.0527V302.717Z" fill="white"/>
</g>
</mask>
<g mask="url(#mask4_478_1336)">
<path d="M178.905 428.166H82.7128C74.6167 428.166 68.0527 421.605 68.0527 413.514V317.37C68.0527 309.278 74.6167 302.717 82.7128 302.717H178.905C187.001 302.717 193.565 309.278 193.565 317.37V413.514C193.565 421.605 187.001 428.166 178.905 428.166Z" fill="url(#paint1_linear_478_1336)"/>
</g>
</g>
</g>
<mask id="mask5_478_1336" style="mask-type:luminance" maskUnits="userSpaceOnUse" x="0" y="0" width="750" height="500">
<path d="M0 0H750V499.75H0V0Z" fill="white"/>
</mask>
<g mask="url(#mask5_478_1336)">
<path d="M601.113 153.387V91.693C601.113 86.9021 597.227 83.019 592.434 83.019H400.953" stroke="#F6FBFE" stroke-width="5.33333" stroke-miterlimit="10" stroke-linecap="round"/>
</g>
<mask id="mask6_478_1336" style="mask-type:luminance" maskUnits="userSpaceOnUse" x="-24576" y="-24564" width="49152" height="49127">
<path d="M-24576 24563H24575.2V-24563.7H-24576V24563Z" fill="url(#paint2_linear_478_1336)"/>
</mask>
<g mask="url(#mask6_478_1336)">
<mask id="mask7_478_1336" style="mask-type:luminance" maskUnits="userSpaceOnUse" x="115" y="104" width="462" height="285">
<path d="M115.629 104.508V383.937C115.629 386.448 117.667 388.485 120.179 388.485H572.243C574.756 388.485 576.792 386.448 576.792 383.937V104.508H115.629Z" fill="white"/>
</mask>
<g mask="url(#mask7_478_1336)">
<path d="M115.629 104.508V383.937C115.629 386.448 117.667 388.485 120.179 388.485H572.243C574.756 388.485 576.792 386.448 576.792 383.937V104.508H115.629Z" fill="url(#paint3_linear_478_1336)"/>
</g>
</g>
<path d="M576.794 104.509H115.631V100.135C115.631 97.528 117.746 95.4141 120.354 95.4141H572.244C574.758 95.4141 576.794 97.45 576.794 99.962V104.509Z" fill="#65FF00"/>
<path d="M634.638 437.451H512.357C510.296 437.451 508.625 435.781 508.625 433.721V220.459C508.625 218.399 510.296 216.73 512.357 216.73H634.638C636.699 216.73 638.369 218.399 638.369 220.459V433.721C638.369 435.781 636.699 437.451 634.638 437.451Z" fill="white"/>
<path d="M634.638 281.65H512.357C510.296 281.65 508.625 283.321 508.625 285.379V352.538C508.625 354.596 510.296 356.267 512.357 356.267H634.638C636.699 356.267 638.369 354.596 638.369 352.538V285.379C638.369 283.321 636.699 281.65 634.638 281.65Z" fill="#69FF00" fill-opacity="0.36"/>
<path d="M487.519 291.347H258.855C256.61 289.104 255.351 287.845 253.107 285.601V156.457C253.107 153.284 255.68 150.711 258.855 150.711H487.519C490.694 150.711 493.267 153.284 493.267 156.457V285.602C493.267 288.775 490.694 291.347 487.519 291.347Z" fill="#EBEBEB"/>
<path d="M487.519 291.347H258.855C256.61 289.104 255.351 287.845 253.107 285.601V156.457C253.107 153.284 255.68 150.711 258.855 150.711H487.519C490.694 150.711 493.267 153.284 493.267 156.457V285.602C493.267 288.775 490.694 291.347 487.519 291.347Z" fill="#F6FBFE" stroke="#F4F4F4" stroke-width="0.666667" stroke-miterlimit="10"/>
<path d="M284.948 306.792H146.582L143.166 303.378V277.068C143.166 275.182 144.695 273.654 146.582 273.654H284.948C286.835 273.654 288.364 275.182 288.364 277.068V303.379C288.364 305.264 286.835 306.792 284.948 306.792Z" fill="#EBEBEB"/>
<path d="M146.579 273.652C144.693 273.652 143.164 275.181 143.164 277.067V303.377C143.164 305.254 144.701 306.791 146.578 306.791H284.946C286.833 306.791 288.362 305.263 288.362 303.377V277.067C288.362 275.181 286.833 273.652 284.946 273.652H146.579Z" fill="url(#paint4_linear_478_1336)"/>
<path d="M284.948 353.782H146.582L143.166 350.369V324.058C143.166 322.172 144.695 320.645 146.582 320.645H284.948C286.835 320.645 288.364 322.172 288.364 324.058V350.369C288.364 352.255 286.835 353.782 284.948 353.782Z" fill="#EBEBEB"/>
<path d="M284.948 353.782H146.581C144.703 353.782 143.166 352.247 143.166 350.369V324.058C143.166 322.172 144.695 320.645 146.582 320.645H284.948C286.835 320.645 288.364 322.172 288.364 324.058V350.369C288.364 352.255 286.835 353.782 284.948 353.782Z" fill="#F6FBFE" stroke="#F4F4F4" stroke-width="0.666667" stroke-miterlimit="10"/>
<path d="M335.39 240.898C335.39 243.99 332.882 246.499 329.788 246.499H277.906C274.223 246.499 271.24 243.515 271.24 239.834L271.238 228.87V175.926C271.238 172.833 273.746 170.326 276.841 170.326H329.788C332.882 170.326 335.39 172.833 335.39 175.926V240.898Z" fill="#EBEBEB"/>
<path d="M335.39 240.898C335.39 243.99 332.882 246.499 329.788 246.499H277.001C273.82 246.499 271.24 243.918 271.24 240.738L271.238 233.336V175.926C271.238 172.833 273.746 170.326 276.841 170.326H329.788C332.882 170.326 335.39 172.833 335.39 175.926V240.898Z" fill="#48B003"/>
<path d="M303.315 211.898C294.702 211.898 287.721 218.449 287.721 226.529V226.606H318.909V226.529C318.909 218.449 311.927 211.898 303.315 211.898Z" fill="#F6FBFE"/>
<path d="M304.514 207.085C308.524 206.543 311.398 203.146 311.398 199.345V197.197C311.398 193.396 308.524 189.999 304.514 189.458C299.517 188.785 295.232 192.404 295.232 196.962V199.582C295.232 204.138 299.517 207.758 304.514 207.085Z" fill="#F6FBFE"/>
<path d="M512.359 216.73C510.298 216.73 508.627 218.401 508.627 220.461V287.618C508.627 289.676 510.298 291.347 512.359 291.347H634.64C636.701 291.347 638.371 289.676 638.371 287.618V220.461C638.371 218.401 636.701 216.73 634.64 216.73H512.359Z" fill="url(#paint5_linear_478_1336)"/>
<path d="M133.764 99.963C133.764 100.969 132.948 101.785 131.94 101.785C130.933 101.785 130.117 100.969 130.117 99.963C130.117 98.9562 130.933 98.1406 131.94 98.1406C132.948 98.1406 133.764 98.9562 133.764 99.963Z" fill="#48B003"/>
<path d="M143.423 99.963C143.423 100.969 142.607 101.785 141.601 101.785C140.593 101.785 139.777 100.969 139.777 99.963C139.777 98.9562 140.593 98.1406 141.601 98.1406C142.607 98.1406 143.423 98.9562 143.423 99.963Z" fill="#48B003"/>
<path d="M349.238 188.809H399.986" stroke="#48B003" stroke-width="5.33333" stroke-miterlimit="10" stroke-linecap="round"/>
<path d="M349.238 200.383H417.067" stroke="#48B003" stroke-width="5.33333" stroke-miterlimit="10" stroke-linecap="round"/>
<path d="M349.238 221.602H454.328" stroke="#48B003" stroke-width="5.33333" stroke-miterlimit="10" stroke-linecap="round"/>
<path d="M349.238 231.645H454.328" stroke="#48B003" stroke-width="5.33333" stroke-miterlimit="10" stroke-linecap="round"/>
<path d="M349.238 241.688H403.46" stroke="#48B003" stroke-width="5.33333" stroke-miterlimit="10" stroke-linecap="round"/>
<path d="M349.238 176.707H373.808" stroke="#48B003" stroke-width="5.33333" stroke-miterlimit="10" stroke-linecap="round"/>
<path d="M550.543 236.467H586.157" stroke="#48B003" stroke-width="5.33333" stroke-miterlimit="10" stroke-linecap="round"/>
<path d="M550.543 250.963H624.293" stroke="#48B003" stroke-width="5.33333" stroke-miterlimit="10" stroke-linecap="round"/>
<path d="M550.543 259.592H624.293" stroke="#48B003" stroke-width="5.33333" stroke-miterlimit="10" stroke-linecap="round"/>
<path d="M550.543 268.223H588.595" stroke="#48B003" stroke-width="5.33333" stroke-miterlimit="10" stroke-linecap="round"/>
<path d="M550.543 309.285H586.157" stroke="#48B003" stroke-width="5.33333" stroke-miterlimit="10" stroke-linecap="round"/>
<path d="M550.543 323.781H624.293" stroke="#48B003" stroke-width="5.33333" stroke-miterlimit="10" stroke-linecap="round"/>
<path d="M550.543 332.41H624.293" stroke="#48B003" stroke-width="5.33333" stroke-miterlimit="10" stroke-linecap="round"/>
<path d="M550.543 341.039H588.595" stroke="#48B003" stroke-width="5.33333" stroke-miterlimit="10" stroke-linecap="round"/>
<path d="M156.844 290.223H230.286" stroke="#48B003" stroke-width="5.33333" stroke-miterlimit="10" stroke-linecap="round"/>
<path d="M156.844 337.215H230.286" stroke="#48B003" stroke-width="5.33333" stroke-miterlimit="10" stroke-linecap="round"/>
<path d="M266.492 290.223H276.182" stroke="#48B003" stroke-width="5.33333" stroke-miterlimit="10" stroke-linecap="round"/>
<path d="M266.492 337.215H276.182" stroke="#48B003" stroke-width="5.33333" stroke-miterlimit="10" stroke-linecap="round"/>
<path d="M230.259 249.613H146.582C145.254 248.285 144.495 247.528 143.166 246.2V155.141C143.166 153.256 144.696 151.727 146.582 151.727H230.259C232.146 151.727 233.675 153.256 233.675 155.141V246.2C233.675 248.086 232.146 249.613 230.259 249.613Z" fill="#EBEBEB"/>
<path d="M146.579 151.727C144.693 151.727 143.164 153.256 143.164 155.141V246.2C143.164 248.077 144.701 249.613 146.578 249.613H230.256C232.143 249.613 233.672 248.086 233.672 246.2V155.141C233.672 153.256 232.143 151.727 230.256 151.727H146.579Z" fill="white"/>
<path d="M177.524 194.557V207.119C177.524 208.375 177.833 209.342 178.451 210.02C179.069 210.698 179.977 211.037 181.174 211.037C182.371 211.037 183.289 210.698 183.927 210.02C184.565 209.342 184.885 208.375 184.885 207.119V194.557H190.002V207.089C190.002 208.963 189.603 210.548 188.805 211.845C188.007 213.141 186.929 214.118 185.573 214.776C184.236 215.434 182.74 215.763 181.085 215.763C179.429 215.763 177.942 215.443 176.626 214.806C175.329 214.147 174.302 213.171 173.543 211.874C172.785 210.558 172.406 208.963 172.406 207.089V194.557H177.524ZM198.713 194.557V215.554H193.595V194.557H198.713Z" fill="black"/>
<path d="M172.406 191.484V204.017C172.406 205.891 172.785 207.481 173.543 208.787C174.302 210.094 175.334 211.071 176.64 211.718C177.947 212.367 179.428 212.691 181.084 212.691C182.74 212.691 184.241 212.361 185.588 211.703C186.935 211.045 188.007 210.069 188.804 208.771C189.602 207.476 190.002 205.891 190.002 204.017V191.484H184.886V204.046C184.886 205.302 184.565 206.27 183.927 206.948C183.289 207.626 182.371 207.965 181.174 207.965C179.977 207.965 179.069 207.626 178.451 206.948C177.832 206.27 177.523 205.302 177.523 204.046V191.484H172.406Z" stroke="black" stroke-width="0.666667" stroke-miterlimit="10"/>
<path d="M193.594 212.481H198.711V191.484H193.594V212.481Z" stroke="black" stroke-width="0.666667" stroke-miterlimit="10"/>
<path d="M489.788 408.85H406.111C404.782 407.523 404.023 406.764 402.695 405.436V314.377C402.695 312.492 404.225 310.963 406.111 310.963H489.788C491.675 310.963 493.204 312.492 493.204 314.377V405.437C493.204 407.322 491.675 408.85 489.788 408.85Z" fill="#EBEBEB"/>
<path d="M406.112 310.961C404.226 310.961 402.697 312.49 402.697 314.375V405.435C402.697 407.313 404.234 408.848 406.112 408.848H489.789C491.676 408.848 493.205 407.319 493.205 405.435V314.375C493.205 312.49 491.676 310.961 489.789 310.961H406.112Z" fill="url(#paint6_linear_478_1336)"/>
<path d="M429.606 353.793V366.355C429.606 367.612 429.915 368.579 430.533 369.256C431.151 369.935 432.06 370.273 433.257 370.273C434.454 370.273 435.371 369.935 436.01 369.256C436.648 368.579 436.967 367.612 436.967 366.355V353.793H442.084V366.325C442.084 368.199 441.685 369.785 440.887 371.081C440.089 372.377 439.012 373.354 437.655 374.012C436.319 374.67 434.823 374.999 433.167 374.999C431.511 374.999 430.025 374.68 428.708 374.042C427.411 373.384 426.384 372.407 425.625 371.111C424.867 369.794 424.488 368.199 424.488 366.325V353.793H429.606ZM458.545 374.79L454.266 368.359L450.495 374.79H444.69L451.423 364.112L444.54 353.793H450.495L454.715 360.134L458.426 353.793H464.231L457.558 364.381L464.5 374.79H458.545Z" fill="#F6FBFE"/>
<path d="M424.488 350.719V363.251C424.488 365.125 424.868 366.717 425.625 368.022C426.384 369.328 427.416 370.306 428.723 370.953C430.029 371.602 431.511 371.926 433.167 371.926C434.823 371.926 436.323 371.596 437.67 370.938C439.017 370.279 440.09 369.303 440.886 368.007C441.684 366.711 442.085 365.125 442.085 363.251V350.719H436.968V363.281C436.968 364.537 436.647 365.505 436.01 366.183C435.372 366.86 434.454 367.199 433.257 367.199C432.06 367.199 431.151 366.86 430.533 366.183C429.915 365.505 429.606 364.537 429.606 363.281V350.719H424.488Z" stroke="#F4F4F4" stroke-width="0.666667" stroke-miterlimit="10"/>
<path d="M464.497 371.717L457.555 361.308L464.228 350.719H458.423L454.712 357.061L450.492 350.719H444.537L451.42 361.038L444.687 371.717H450.492L454.263 365.285L458.542 371.717H464.497Z" stroke="#F4F4F4" stroke-width="0.666667" stroke-miterlimit="10"/>
<path d="M535.635 199.269C535.635 201.293 533.992 202.934 531.966 202.934H508.625V65.966C508.625 63.94 510.268 62.2988 512.294 62.2988H531.966C533.992 62.2988 535.635 63.94 535.635 65.966V199.269Z" fill="#EBEBEB"/>
<path d="M531.966 202.936H512.294C510.268 202.936 508.625 201.293 508.625 199.269V184.969V65.966C508.625 63.941 510.268 62.2988 512.294 62.2988H531.966C533.992 62.2988 535.635 63.941 535.635 65.966V199.269C535.635 201.293 533.992 202.936 531.966 202.936Z" fill="#F6FBFE" stroke="#F4F4F4" stroke-width="0.666667" stroke-miterlimit="10"/>
<path d="M522.131 71.8789V192.012" stroke="#65FF00" stroke-width="2.66667" stroke-miterlimit="10" stroke-linecap="round"/>
<path d="M522.302 116.089H521.957C518.781 116.089 516.207 113.516 516.207 110.343C516.207 107.17 518.781 104.598 521.957 104.598H522.302C525.477 104.598 528.05 107.17 528.05 110.343C528.05 113.516 525.477 116.089 522.302 116.089Z" fill="#EBEBEB"/>
<path d="M522.302 116.089H521.957C518.781 116.089 516.207 113.516 516.207 110.343C516.207 107.17 518.781 104.598 521.957 104.598H522.302C525.477 104.598 528.05 107.17 528.05 110.343C528.05 113.516 525.477 116.089 522.302 116.089Z" fill="#48B003" stroke="#F4F4F4" stroke-width="0.666667" stroke-miterlimit="10"/>
<path d="M387.878 408.85H304.201L300.785 405.436V314.377C300.785 312.492 302.315 310.963 304.201 310.963H387.878C389.765 310.963 391.294 312.492 391.294 314.377V405.437C391.294 407.322 389.765 408.85 387.878 408.85Z" fill="#EBEBEB"/>
<path d="M387.878 408.85H304.2C302.322 408.85 300.785 407.314 300.785 405.437V314.377C300.785 312.492 302.315 310.963 304.201 310.963H387.878C389.765 310.963 391.294 312.492 391.294 314.377V405.437C391.294 407.322 389.765 408.85 387.878 408.85Z" fill="#48B003"/>
<path d="M317.422 339.518H345.553" stroke="#65FF00" stroke-width="5.33333" stroke-miterlimit="10" stroke-linecap="round"/>
<path d="M317.422 351.092H355.021" stroke="#65FF00" stroke-width="5.33333" stroke-miterlimit="10" stroke-linecap="round"/>
<path d="M317.422 372.311H375.677" stroke="#65FF00" stroke-width="5.33333" stroke-miterlimit="10" stroke-linecap="round"/>
<path d="M317.422 382.354H375.677" stroke="#65FF00" stroke-width="5.33333" stroke-miterlimit="10" stroke-linecap="round"/>
<path d="M317.422 392.396H347.477" stroke="#65FF00" stroke-width="5.33333" stroke-miterlimit="10" stroke-linecap="round"/>
<path d="M317.422 327.414H331.042" stroke="#65FF00" stroke-width="5.33333" stroke-miterlimit="10" stroke-linecap="round"/>
<path d="M537.783 254.728H523.24V240.193H537.783V254.728Z" fill="#F6FBFE" stroke="#F4F4F4" stroke-width="0.666667" stroke-miterlimit="10"/>
<path d="M535.19 245.053H525.967V238.253C525.967 235.709 528.032 233.645 530.579 233.645C533.126 233.645 535.19 235.709 535.19 238.253V245.053Z" stroke="#F6FBFE" stroke-width="4" stroke-miterlimit="10"/>
<path d="M537.676 320.97V312.875C537.676 309.324 535.06 306.389 531.651 305.871V305.235C531.651 304.644 531.169 304.164 530.578 304.164C529.986 304.164 529.506 304.644 529.506 305.235V305.871C526.096 306.389 523.48 309.324 523.48 312.875V320.97C522.513 321.453 521.848 322.451 521.848 323.606H523.48H537.676H539.308C539.308 322.451 538.644 321.453 537.676 320.97Z" fill="white"/>
<path d="M530.577 328.054C532.473 328.054 534.012 326.518 534.012 324.621H527.141C527.141 326.518 528.68 328.054 530.577 328.054Z" fill="white"/>
<path d="M619.43 202.935H567.656C558.244 202.935 550.543 195.238 550.543 185.83C550.543 176.383 558.205 168.723 567.658 168.723H619.43C628.882 168.723 636.544 176.382 636.544 185.829C636.544 195.277 628.882 202.935 619.43 202.935Z" fill="#EBEBEB"/>
<path d="M619.43 202.935H567.656C558.244 202.935 550.543 195.238 550.543 185.83C550.543 176.383 558.205 168.723 567.658 168.723H619.43C628.882 168.723 636.544 176.382 636.544 185.829C636.544 195.277 628.882 202.935 619.43 202.935Z" fill="#F6FBFE" stroke="#F4F4F4" stroke-width="0.666667" stroke-miterlimit="10"/>
<path d="M569.409 173.473C562.579 173.473 557.043 179.005 557.043 185.831V185.832C557.043 192.658 562.579 198.192 569.409 198.192H570.154C576.982 198.192 582.519 192.658 582.519 185.832V185.831C582.519 179.005 576.982 173.473 570.154 173.473H569.409Z" fill="url(#paint7_linear_478_1336)"/>
<path d="M529.129 395.402H621.497" stroke="#65FF00" stroke-width="1.33333" stroke-miterlimit="10" stroke-linecap="round"/>
<path d="M527.143 378.207H576.769" stroke="#48B003" stroke-width="5.33333" stroke-miterlimit="10" stroke-linecap="round"/>
<path d="M527.143 415.223H576.769" stroke="#48B003" stroke-width="5.33333" stroke-miterlimit="10" stroke-linecap="round"/>
<path d="M609.426 378.207H624.442" stroke="#48B003" stroke-width="5.33333" stroke-miterlimit="10" stroke-linecap="round"/>
<path d="M609.426 415.223H624.442" stroke="#48B003" stroke-width="5.33333" stroke-miterlimit="10" stroke-linecap="round"/>
<path d="M437.578 134.718V128.054C437.578 123.989 434.282 120.695 430.217 120.695H192.718C188.06 120.695 184.285 124.469 184.285 129.124V139.349" stroke="#48B003" stroke-width="5.33333" stroke-miterlimit="10" stroke-linecap="round"/>
<path d="M243.864 127.686H213.607C207.219 127.686 202.041 122.511 202.041 116.126V87.4428C202.041 81.059 207.219 75.8828 213.607 75.8828H243.864C250.251 75.8828 255.429 81.059 255.429 87.4428V116.126C255.429 122.511 250.251 127.686 243.864 127.686Z" fill="#EBEBEB"/>
<path d="M220.172 101.787C220.172 106.514 224.005 110.345 228.735 110.345C233.464 110.345 237.298 106.514 237.298 101.787C237.298 97.0606 233.464 93.2285 228.735 93.2285C224.005 93.2285 220.172 97.0606 220.172 101.787Z" fill="url(#paint8_linear_478_1336)"/>
<path d="M228.734 98.3047V105.264" stroke="#F4F4F4" stroke-width="0.666667" stroke-miterlimit="10"/>
<path d="M232.217 101.785H225.254" stroke="#F4F4F4" stroke-width="0.666667" stroke-miterlimit="10"/>
<path d="M307.929 127.686H277.672C271.284 127.686 266.107 122.511 266.107 116.126V87.4428C266.107 81.059 271.284 75.8828 277.672 75.8828H307.929C314.317 75.8828 319.495 81.059 319.495 87.4428V116.126C319.495 122.511 314.317 127.686 307.929 127.686Z" fill="#EBEBEB"/>
<path d="M284.238 101.787C284.238 106.514 288.072 110.345 292.802 110.345C297.531 110.345 301.365 106.514 301.365 101.787C301.365 97.0606 297.531 93.2285 292.802 93.2285C288.072 93.2285 284.238 97.0606 284.238 101.787Z" fill="url(#paint9_linear_478_1336)"/>
<path d="M289.512 102.602L291.354 104.509L295.923 99.3242" stroke="#F4F4F4" stroke-width="0.666667" stroke-miterlimit="10"/>
<path d="M371.995 127.686H341.738C335.35 127.686 330.172 122.511 330.172 116.126V87.4428C330.172 81.059 335.35 75.8828 341.738 75.8828H371.995C378.383 75.8828 383.56 81.059 383.56 87.4428V116.126C383.56 122.511 378.383 127.686 371.995 127.686Z" fill="#EBEBEB"/>
<path d="M371.995 127.686H341.738C335.35 127.686 330.172 122.511 330.172 116.126V87.4428C330.172 81.059 335.35 75.8828 341.738 75.8828H371.995C378.383 75.8828 383.56 81.059 383.56 87.4428V116.126C383.56 122.511 378.383 127.686 371.995 127.686Z" fill="#F6FBFE" stroke="#F4F4F4" stroke-width="0.666667" stroke-miterlimit="10"/>
<path d="M348.305 101.787C348.305 106.514 352.138 110.345 356.866 110.345C361.596 110.345 365.43 106.514 365.43 101.787C365.43 97.0606 361.596 93.2285 356.866 93.2285C352.138 93.2285 348.305 97.0606 348.305 101.787Z" fill="url(#paint10_linear_478_1336)"/>
<path d="M359.328 99.3242L354.404 104.246" stroke="#F4F4F4" stroke-width="0.666667" stroke-miterlimit="10"/>
<path d="M359.328 104.245L354.404 99.3242" stroke="#F4F4F4" stroke-width="0.666667" stroke-miterlimit="10"/>
<path d="M215.766 372.711V419.161C215.766 424.786 220.327 429.346 225.955 429.346H490.707" stroke="#F6FBFE" stroke-width="5.33333" stroke-miterlimit="10" stroke-linecap="round"/>
</g>
</g>
<defs>
<linearGradient id="paint0_linear_478_1336" x1="588.104" y1="143.136" x2="645.72" y2="43.2922" gradientUnits="userSpaceOnUse">
<stop/>
<stop offset="0.839158"/>
<stop offset="1"/>
</linearGradient>
<linearGradient id="paint1_linear_478_1336" x1="90.6275" y1="435.003" x2="170.93" y2="295.846" gradientUnits="userSpaceOnUse">
<stop/>
<stop offset="0.839158"/>
<stop offset="1"/>
</linearGradient>
<linearGradient id="paint2_linear_478_1336" x1="170.373" y1="36.6151" x2="348.353" y2="345.041" gradientUnits="userSpaceOnUse">
<stop stop-color="white"/>
<stop offset="0.220236" stop-color="white"/>
<stop offset="1" stop-color="white" stop-opacity="0.6"/>
</linearGradient>
<linearGradient id="paint3_linear_478_1336" x1="227.164" y1="450.925" x2="464.471" y2="39.6914" gradientUnits="userSpaceOnUse">
<stop/>
<stop offset="0.220236"/>
</linearGradient>
<linearGradient id="paint4_linear_478_1336" x1="191.061" y1="332.985" x2="240.429" y2="247.435" gradientUnits="userSpaceOnUse">
<stop/>
<stop offset="0.839158"/>
<stop offset="1"/>
</linearGradient>
<linearGradient id="paint5_linear_478_1336" x1="541.801" y1="308.914" x2="605.15" y2="199.135" gradientUnits="userSpaceOnUse">
<stop/>
<stop offset="0.839158"/>
<stop offset="1"/>
</linearGradient>
<linearGradient id="paint6_linear_478_1336" x1="416.06" y1="415.114" x2="479.795" y2="304.665" gradientUnits="userSpaceOnUse">
<stop/>
<stop offset="0.839158"/>
<stop offset="1"/>
</linearGradient>
<linearGradient id="paint7_linear_478_1336" x1="557.044" y1="185.832" x2="582.519" y2="185.832" gradientUnits="userSpaceOnUse">
<stop/>
<stop offset="0.839158"/>
<stop offset="1"/>
</linearGradient>
<linearGradient id="paint8_linear_478_1336" x1="220.173" y1="101.787" x2="237.297" y2="101.787" gradientUnits="userSpaceOnUse">
<stop/>
<stop offset="0.839158"/>
<stop offset="1"/>
</linearGradient>
<linearGradient id="paint9_linear_478_1336" x1="284.239" y1="101.787" x2="301.364" y2="101.787" gradientUnits="userSpaceOnUse">
<stop/>
<stop offset="0.839158"/>
<stop offset="1"/>
</linearGradient>
<linearGradient id="paint10_linear_478_1336" x1="348.304" y1="101.787" x2="365.429" y2="101.787" gradientUnits="userSpaceOnUse">
<stop/>
<stop offset="0.839158"/>
<stop offset="1"/>
</linearGradient>
<clipPath id="clip0_478_1336">
<rect width="655" height="500" fill="white"/>
</clipPath>
</defs>
</svg>
