<svg width="500" height="500" viewBox="0 0 500 500" fill="none" xmlns="http://www.w3.org/2000/svg">
<path d="M384.485 173.116V314.811C384.485 316.096 384.242 317.32 383.782 318.435C382.352 322.022 378.849 324.543 374.753 324.543H98.9487C93.5674 324.543 89.2158 320.191 89.2158 314.811V173.116C89.2158 167.735 93.5674 163.383 98.9487 163.383H374.752C380.133 163.383 384.485 167.735 384.485 173.116Z" fill="black"/>
<path d="M341.847 163.383L180.674 324.543H103.033L264.205 163.383H341.847Z" fill="#69FF00" fill-opacity="0.06"/>
<path d="M89.8252 174.033V171.314C89.8252 166.702 93.1287 162.949 97.1882 162.949H375.08C379.14 162.949 382.444 166.702 382.444 171.314V174.033H89.8252Z" fill="#E6EAF0"/>
<path d="M384.478 310.493L383.8 310.76L384.478 311.62V314.808C384.478 316.093 384.235 317.316 383.775 318.432L380.054 313.729L372.588 324.54H371.922L358.129 282.193L384.478 298.204V310.493Z" fill="white"/>
<path d="M384.478 173.113V219.497H353.05C347.669 219.497 343.318 215.145 343.318 209.764V163.38H374.746C380.127 163.38 384.478 167.732 384.478 173.113Z" fill="#292A2E"/>
<path d="M114.711 258.05V324.541H98.9429C93.5616 324.541 89.21 320.189 89.21 314.808V248.318H104.978C110.359 248.318 114.711 252.668 114.711 258.05Z" fill="black"/>
<path d="M124.389 171.431C125.889 171.431 127.105 170.215 127.105 168.716C127.105 167.216 125.889 166 124.389 166C122.89 166 121.674 167.216 121.674 168.716C121.674 170.215 122.89 171.431 124.389 171.431Z" fill="#34909D"/>
<path d="M113.714 171.431C115.213 171.431 116.429 170.215 116.429 168.716C116.429 167.216 115.213 166 113.714 166C112.214 166 110.998 167.216 110.998 168.716C110.998 170.215 112.214 171.431 113.714 171.431Z" fill="#FFDA58"/>
<path d="M103.039 171.431C104.539 171.431 105.754 170.215 105.754 168.716C105.754 167.216 104.539 166 103.039 166C101.539 166 100.323 167.216 100.323 168.716C100.323 170.215 101.539 171.431 103.039 171.431Z" fill="#BA0034"/>
<path d="M105.56 253.298V394.993C105.56 400.374 101.208 404.725 95.827 404.725H29.9867C24.6054 404.725 20.2549 400.373 20.2549 394.993V253.298C20.2549 247.917 24.6054 243.565 29.9867 243.565H95.827C101.208 243.566 105.56 247.917 105.56 253.298Z" fill="white"/>
<path d="M105.56 253.298V258.097H20.2539V253.298C20.2539 247.917 24.6044 243.565 29.9857 243.565H95.826C101.208 243.566 105.56 247.917 105.56 253.298Z" fill="black"/>
<path d="M55.4334 253.833C56.9331 253.833 58.149 252.617 58.149 251.117C58.149 249.618 56.9331 248.402 55.4334 248.402C53.9336 248.402 52.7178 249.618 52.7178 251.117C52.7178 252.617 53.9336 253.833 55.4334 253.833Z" fill="#34909D"/>
<path d="M44.7586 253.833C46.2583 253.833 47.4741 252.617 47.4741 251.117C47.4741 249.618 46.2583 248.402 44.7586 248.402C43.2588 248.402 42.043 249.618 42.043 251.117C42.043 252.617 43.2588 253.833 44.7586 253.833Z" fill="#FFDA58"/>
<path d="M34.0828 253.833C35.5826 253.833 36.7984 252.617 36.7984 251.117C36.7984 249.618 35.5826 248.402 34.0828 248.402C32.583 248.402 31.3672 249.618 31.3672 251.117C31.3672 252.617 32.583 253.833 34.0828 253.833Z" fill="#BA0034"/>
<path d="M489.109 61.2671V202.962C489.109 208.343 484.757 212.695 479.376 212.695H359.225C353.844 212.695 349.493 208.344 349.493 202.962V61.2671C349.493 55.8858 353.845 51.5342 359.225 51.5342H479.376C484.757 51.5353 489.109 55.8858 489.109 61.2671Z" fill="white"/>
<path d="M489.109 61.2671V66.0665H349.493V61.2671C349.493 55.8858 353.845 51.5342 359.225 51.5342H479.376C484.757 51.5353 489.109 55.8858 489.109 61.2671Z" fill="black"/>
<path d="M384.674 61.8023C386.173 61.8023 387.389 60.5865 387.389 59.0867C387.389 57.5869 386.173 56.3711 384.674 56.3711C383.174 56.3711 381.958 57.5869 381.958 59.0867C381.958 60.5865 383.174 61.8023 384.674 61.8023Z" fill="#34909D"/>
<path d="M373.998 61.8023C375.498 61.8023 376.713 60.5865 376.713 59.0867C376.713 57.5869 375.498 56.3711 373.998 56.3711C372.498 56.3711 371.282 57.5869 371.282 59.0867C371.282 60.5865 372.498 61.8023 373.998 61.8023Z" fill="#FFDA58"/>
<path d="M363.323 61.8023C364.823 61.8023 366.039 60.5865 366.039 59.0867C366.039 57.5869 364.823 56.3711 363.323 56.3711C361.823 56.3711 360.607 57.5869 360.607 59.0867C360.607 60.5865 361.823 61.8023 363.323 61.8023Z" fill="#BA0034"/>
<path d="M461.954 349.457V418.267C461.954 423.649 457.602 428 452.222 428H314.846C309.465 428 305.113 423.649 305.113 418.267V349.457C305.113 344.075 309.465 339.724 314.846 339.724H452.222C457.602 339.724 461.954 344.075 461.954 349.457Z" fill="#E6EAF0"/>
<path d="M461.954 349.457V354.256H305.113V349.457C305.113 344.075 309.465 339.724 314.846 339.724H452.222C457.602 339.724 461.954 344.075 461.954 349.457Z" fill="black"/>
<path d="M340.293 349.991C341.792 349.991 343.008 348.775 343.008 347.276C343.008 345.776 341.792 344.56 340.293 344.56C338.793 344.56 337.577 345.776 337.577 347.276C337.577 348.775 338.793 349.991 340.293 349.991Z" fill="#34909D"/>
<path d="M329.618 349.991C331.118 349.991 332.334 348.775 332.334 347.276C332.334 345.776 331.118 344.56 329.618 344.56C328.118 344.56 326.902 345.776 326.902 347.276C326.902 348.775 328.118 349.991 329.618 349.991Z" fill="#FFDA58"/>
<path d="M318.943 349.991C320.443 349.991 321.659 348.775 321.659 347.276C321.659 345.776 320.443 344.56 318.943 344.56C317.443 344.56 316.228 345.776 316.228 347.276C316.228 348.775 317.443 349.991 318.943 349.991Z" fill="#BA0034"/>
<path d="M401.295 191.725L366.63 226.39L374.647 234.407L409.312 199.742L401.295 191.725Z" fill="#65FF00"/>
<path d="M413.709 195.347L409.317 199.74L401.3 191.723L405.692 187.33C407.906 185.117 411.496 185.117 413.709 187.33C415.924 189.545 415.924 193.134 413.709 195.347Z" fill="white"/>
<path d="M366.636 226.393L374.651 234.407L367.647 236.754L362.597 238.441L364.289 233.397L366.636 226.393Z" fill="white"/>
<path d="M364.289 233.396L367.647 236.754L362.597 238.441L364.289 233.396Z" fill="#42444F"/>
<path d="M127.682 97.4986C126.629 97.4986 125.623 97.6882 124.683 98.0207C123.712 93.1914 120.364 89.2277 115.91 87.3944C116.082 86.0433 116.182 84.6689 116.182 83.2701C116.182 65.448 101.734 51 83.9115 51C67.7809 51 54.4169 62.8355 52.0238 78.2944C50.7026 78.0018 49.3315 77.8422 47.9228 77.8422C37.5126 77.8422 29.0732 86.2816 29.0732 96.6917C29.0732 107.102 37.5126 115.541 47.9228 115.541H127.682C132.665 115.541 136.703 111.502 136.703 106.521C136.703 101.537 132.664 97.4986 127.682 97.4986Z" fill="#65FF00"/>
<path d="M42.58 103.126C41.704 103.126 40.912 102.976 40.204 102.676C39.508 102.376 38.956 101.944 38.548 101.38C38.14 100.816 37.93 100.15 37.918 99.382H40.618C40.654 99.898 40.834 100.306 41.158 100.606C41.494 100.906 41.95 101.056 42.526 101.056C43.114 101.056 43.576 100.918 43.912 100.642C44.248 100.354 44.416 99.982 44.416 99.526C44.416 99.154 44.302 98.848 44.074 98.608C43.846 98.368 43.558 98.182 43.21 98.05C42.874 97.906 42.406 97.75 41.806 97.582C40.99 97.342 40.324 97.108 39.808 96.88C39.304 96.64 38.866 96.286 38.494 95.818C38.134 95.338 37.954 94.702 37.954 93.91C37.954 93.166 38.14 92.518 38.512 91.966C38.884 91.414 39.406 90.994 40.078 90.706C40.75 90.406 41.518 90.256 42.382 90.256C43.678 90.256 44.728 90.574 45.532 91.21C46.348 91.834 46.798 92.71 46.882 93.838H44.11C44.086 93.406 43.9 93.052 43.552 92.776C43.216 92.488 42.766 92.344 42.202 92.344C41.71 92.344 41.314 92.47 41.014 92.722C40.726 92.974 40.582 93.34 40.582 93.82C40.582 94.156 40.69 94.438 40.906 94.666C41.134 94.882 41.41 95.062 41.734 95.206C42.07 95.338 42.538 95.494 43.138 95.674C43.954 95.914 44.62 96.154 45.136 96.394C45.652 96.634 46.096 96.994 46.468 97.474C46.84 97.954 47.026 98.584 47.026 99.364C47.026 100.036 46.852 100.66 46.504 101.236C46.156 101.812 45.646 102.274 44.974 102.622C44.302 102.958 43.504 103.126 42.58 103.126ZM48.5627 98.014C48.5627 96.982 48.7728 96.082 49.1928 95.314C49.6128 94.534 50.1948 93.934 50.9388 93.514C51.6828 93.082 52.5348 92.866 53.4948 92.866C54.7308 92.866 55.7508 93.178 56.5548 93.802C57.3708 94.414 57.9168 95.278 58.1928 96.394H55.4748C55.3308 95.962 55.0848 95.626 54.7368 95.386C54.4008 95.134 53.9808 95.008 53.4768 95.008C52.7568 95.008 52.1868 95.272 51.7668 95.8C51.3468 96.316 51.1368 97.054 51.1368 98.014C51.1368 98.962 51.3468 99.7 51.7668 100.228C52.1868 100.744 52.7568 101.002 53.4768 101.002C54.4968 101.002 55.1628 100.546 55.4748 99.634H58.1928C57.9168 100.714 57.3708 101.572 56.5548 102.208C55.7388 102.844 54.7188 103.162 53.4948 103.162C52.5348 103.162 51.6828 102.952 50.9388 102.532C50.1948 102.1 49.6128 101.5 49.1928 100.732C48.7728 99.952 48.5627 99.046 48.5627 98.014ZM62.5589 94.576C62.8829 94.048 63.3029 93.634 63.8189 93.334C64.3469 93.034 64.9469 92.884 65.6189 92.884V95.53H64.9529C64.1609 95.53 63.5609 95.716 63.1529 96.088C62.7569 96.46 62.5589 97.108 62.5589 98.032V103H60.0389V93.028H62.5589V94.576ZM66.6682 97.978C66.6682 96.97 66.8662 96.076 67.2622 95.296C67.6702 94.516 68.2162 93.916 68.9002 93.496C69.5962 93.076 70.3702 92.866 71.2222 92.866C71.9662 92.866 72.6142 93.016 73.1662 93.316C73.7302 93.616 74.1802 93.994 74.5162 94.45V93.028H77.0542V103H74.5162V101.542C74.1922 102.01 73.7422 102.4 73.1662 102.712C72.6022 103.012 71.9482 103.162 71.2042 103.162C70.3642 103.162 69.5962 102.946 68.9002 102.514C68.2162 102.082 67.6702 101.476 67.2622 100.696C66.8662 99.904 66.6682 98.998 66.6682 97.978ZM74.5162 98.014C74.5162 97.402 74.3962 96.88 74.1562 96.448C73.9162 96.004 73.5922 95.668 73.1842 95.44C72.7762 95.2 72.3382 95.08 71.8702 95.08C71.4022 95.08 70.9702 95.194 70.5742 95.422C70.1782 95.65 69.8542 95.986 69.6022 96.43C69.3622 96.862 69.2422 97.378 69.2422 97.978C69.2422 98.578 69.3622 99.106 69.6022 99.562C69.8542 100.006 70.1782 100.348 70.5742 100.588C70.9822 100.828 71.4142 100.948 71.8702 100.948C72.3382 100.948 72.7762 100.834 73.1842 100.606C73.5922 100.366 73.9162 100.03 74.1562 99.598C74.3962 99.154 74.5162 98.626 74.5162 98.014ZM82.0354 94.468C82.3594 94.012 82.8034 93.634 83.3674 93.334C83.9434 93.022 84.5974 92.866 85.3294 92.866C86.1814 92.866 86.9494 93.076 87.6334 93.496C88.3294 93.916 88.8754 94.516 89.2714 95.296C89.6794 96.064 89.8834 96.958 89.8834 97.978C89.8834 98.998 89.6794 99.904 89.2714 100.696C88.8754 101.476 88.3294 102.082 87.6334 102.514C86.9494 102.946 86.1814 103.162 85.3294 103.162C84.5974 103.162 83.9494 103.012 83.3854 102.712C82.8334 102.412 82.3834 102.034 82.0354 101.578V107.752H79.5154V93.028H82.0354V94.468ZM87.3094 97.978C87.3094 97.378 87.1834 96.862 86.9314 96.43C86.6914 95.986 86.3674 95.65 85.9594 95.422C85.5634 95.194 85.1314 95.08 84.6634 95.08C84.2074 95.08 83.7754 95.2 83.3674 95.44C82.9714 95.668 82.6474 96.004 82.3954 96.448C82.1554 96.892 82.0354 97.414 82.0354 98.014C82.0354 98.614 82.1554 99.136 82.3954 99.58C82.6474 100.024 82.9714 100.366 83.3674 100.606C83.7754 100.834 84.2074 100.948 84.6634 100.948C85.1314 100.948 85.5634 100.828 85.9594 100.588C86.3674 100.348 86.6914 100.006 86.9314 99.562C87.1834 99.118 87.3094 98.59 87.3094 97.978ZM92.9927 91.84C92.5487 91.84 92.1767 91.702 91.8767 91.426C91.5887 91.138 91.4447 90.784 91.4447 90.364C91.4447 89.944 91.5887 89.596 91.8767 89.32C92.1767 89.032 92.5487 88.888 92.9927 88.888C93.4367 88.888 93.8027 89.032 94.0907 89.32C94.3907 89.596 94.5407 89.944 94.5407 90.364C94.5407 90.784 94.3907 91.138 94.0907 91.426C93.8027 91.702 93.4367 91.84 92.9927 91.84ZM94.2347 93.028V103H91.7147V93.028H94.2347ZM102.25 92.884C103.438 92.884 104.398 93.262 105.13 94.018C105.862 94.762 106.228 95.806 106.228 97.15V103H103.708V97.492C103.708 96.7 103.51 96.094 103.114 95.674C102.718 95.242 102.178 95.026 101.494 95.026C100.798 95.026 100.246 95.242 99.8384 95.674C99.4424 96.094 99.2444 96.7 99.2444 97.492V103H96.7244V93.028H99.2444V94.27C99.5804 93.838 100.006 93.502 100.522 93.262C101.05 93.01 101.626 92.884 102.25 92.884ZM112.531 92.866C113.275 92.866 113.929 93.016 114.493 93.316C115.057 93.604 115.501 93.982 115.825 94.45V93.028H118.363V103.072C118.363 103.996 118.177 104.818 117.805 105.538C117.433 106.27 116.875 106.846 116.131 107.266C115.387 107.698 114.487 107.914 113.431 107.914C112.015 107.914 110.851 107.584 109.939 106.924C109.039 106.264 108.529 105.364 108.409 104.224H110.911C111.043 104.68 111.325 105.04 111.757 105.304C112.201 105.58 112.735 105.718 113.359 105.718C114.091 105.718 114.685 105.496 115.141 105.052C115.597 104.62 115.825 103.96 115.825 103.072V101.524C115.501 101.992 115.051 102.382 114.475 102.694C113.911 103.006 113.263 103.162 112.531 103.162C111.691 103.162 110.923 102.946 110.227 102.514C109.531 102.082 108.979 101.476 108.571 100.696C108.175 99.904 107.977 98.998 107.977 97.978C107.977 96.97 108.175 96.076 108.571 95.296C108.979 94.516 109.525 93.916 110.209 93.496C110.905 93.076 111.679 92.866 112.531 92.866ZM115.825 98.014C115.825 97.402 115.705 96.88 115.465 96.448C115.225 96.004 114.901 95.668 114.493 95.44C114.085 95.2 113.647 95.08 113.179 95.08C112.711 95.08 112.279 95.194 111.883 95.422C111.487 95.65 111.163 95.986 110.911 96.43C110.671 96.862 110.551 97.378 110.551 97.978C110.551 98.578 110.671 99.106 110.911 99.562C111.163 100.006 111.487 100.348 111.883 100.588C112.291 100.828 112.723 100.948 113.179 100.948C113.647 100.948 114.085 100.834 114.493 100.606C114.901 100.366 115.225 100.03 115.465 99.598C115.705 99.154 115.825 98.626 115.825 98.014Z" fill="black"/>
<path d="M20.2938 165.637H49.283C57.5539 165.637 64.7286 171.87 65.3338 180.119C65.8337 186.937 61.8955 192.949 56.1219 195.554C53.7177 196.638 52.9474 199.66 54.6443 201.679L60.2983 208.402L48.0737 200.709C44.1489 198.238 39.6055 196.928 34.968 196.928H20.7161C11.9941 196.928 4.53232 189.792 4.64981 181.071C4.76397 172.562 11.7591 165.637 20.2938 165.637Z" fill="#65FF00"/>
<path d="M43.7325 181.315C43.7325 184.125 46.0103 186.401 48.819 186.401C51.6277 186.401 53.9055 184.124 53.9055 181.315C53.9055 178.506 51.6277 176.229 48.819 176.229C46.0103 176.229 43.7325 178.506 43.7325 181.315ZM29.9263 181.315C29.9263 184.125 32.2029 186.401 35.0127 186.401C37.8225 186.401 40.0992 184.124 40.0992 181.315C40.0992 178.506 37.8214 176.229 35.0127 176.229C32.204 176.229 29.9263 178.506 29.9263 181.315ZM16.1211 181.315C16.1211 184.125 18.3989 186.401 21.2076 186.401C24.0174 186.401 26.294 184.124 26.294 181.315C26.294 178.506 24.0162 176.229 21.2076 176.229C18.3978 176.229 16.1211 178.506 16.1211 181.315Z" fill="white"/>
<path d="M54.2698 137.593H73.8386C79.4217 137.593 84.2654 141.8 84.6733 147.369C85.0114 151.971 82.3523 156.029 78.4552 157.788C76.8324 158.519 76.3126 160.56 77.4587 161.922L81.2749 166.46L73.0229 161.267C70.3727 159.6 67.3068 158.715 64.1756 158.715H54.5546C48.6668 158.715 43.6302 153.897 43.7089 148.011C43.7865 142.267 48.5083 137.593 54.2698 137.593Z" fill="black"/>
<path d="M70.0911 148.177C70.0911 150.074 71.6284 151.611 73.5249 151.611C75.4214 151.611 76.9587 150.074 76.9587 148.177C76.9587 146.281 75.4214 144.744 73.5249 144.744C71.6284 144.744 70.0911 146.281 70.0911 148.177ZM60.7716 148.177C60.7716 150.074 62.309 151.611 64.2054 151.611C66.1019 151.611 67.6393 150.074 67.6393 148.177C67.6393 146.281 66.1019 144.744 64.2054 144.744C62.309 144.744 60.7716 146.281 60.7716 148.177ZM51.4521 148.177C51.4521 150.074 52.9895 151.611 54.886 151.611C56.7825 151.611 58.3198 150.074 58.3198 148.177C58.3198 146.281 56.7825 144.744 54.886 144.744C52.9895 144.744 51.4521 146.281 51.4521 148.177Z" fill="white"/>
<path d="M99.429 128.049H114.955C119.386 128.049 123.229 131.387 123.552 135.805C123.82 139.457 121.71 142.676 118.619 144.072C117.332 144.653 116.918 146.271 117.827 147.353L120.856 150.954L114.308 146.834C112.206 145.511 109.773 144.809 107.289 144.809H99.6551C94.9832 144.809 90.9874 140.987 91.0505 136.316C91.1115 131.758 94.8579 128.049 99.429 128.049Z" fill="white"/>
<path d="M111.983 136.446C111.983 137.95 113.203 139.171 114.707 139.171C116.211 139.171 117.432 137.951 117.432 136.446C117.432 134.942 116.212 133.722 114.707 133.722C113.202 133.722 111.983 134.942 111.983 136.446ZM104.588 136.446C104.588 137.95 105.807 139.171 107.312 139.171C108.816 139.171 110.036 137.951 110.036 136.446C110.036 134.942 108.817 133.722 107.312 133.722C105.808 133.722 104.588 134.942 104.588 136.446ZM97.1934 136.446C97.1934 137.95 98.4126 139.171 99.9178 139.171C101.422 139.171 102.642 137.951 102.642 136.446C102.642 134.942 101.423 133.722 99.9178 133.722C98.4137 133.722 97.1934 134.942 97.1934 136.446Z" fill="black"/>
<path d="M64.9981 318.433H34.2588V322.799H64.9981V318.433Z" fill="black"/>
<path d="M101.869 318.433H69.1299V322.799H101.869V318.433Z" fill="black"/>
<path d="M131.179 318.433H104.001V322.799H131.179V318.433Z" fill="black"/>
<path d="M60.4748 344.728H34.2588V349.094H60.4748V344.728Z" fill="black"/>
<path d="M86.5412 344.728H63.1328V349.094H86.5412V344.728Z" fill="black"/>
<path d="M129.105 349.005L88.6738 349.094V344.728L129.105 344.639V349.005Z" fill="black"/>
<path d="M50.8017 327.198H34.2588V331.564H50.8017V327.198Z" fill="black"/>
<path d="M119.372 327.198H54.9346V331.564H119.372V327.198Z" fill="black"/>
<path d="M133.158 327.198H123.502V331.564H133.158V327.198Z" fill="black"/>
<path d="M64.9981 335.962H34.2588V340.328H64.9981V335.962Z" fill="black"/>
<path d="M94.4385 335.962H67.6572V340.328H94.4385V335.962Z" fill="#65FF00"/>
<path d="M121.755 335.962H98.5703V340.328H121.755V335.962Z" fill="black"/>
<path d="M64.9981 353.282H34.2588V357.648H64.9981V353.282Z" fill="#65FF00"/>
<path d="M101.869 353.282H69.1299V357.648H101.869V353.282Z" fill="black"/>
<path d="M131.179 353.282H104.001V357.648H131.179V353.282Z" fill="black"/>
<path d="M60.4748 379.576H34.2588V383.942H60.4748V379.576Z" fill="#65FF00"/>
<path d="M86.5412 379.576H63.1328V383.942H86.5412V379.576Z" fill="black"/>
<path d="M129.105 383.853L88.6738 383.943V379.576L129.105 379.487V383.853Z" fill="black"/>
<path d="M50.8017 362.047H34.2588V366.413H50.8017V362.047Z" fill="black"/>
<path d="M119.372 362.047H54.9346V366.413H119.372V362.047Z" fill="#65FF00"/>
<path d="M133.158 362.047H123.502V366.413H133.158V362.047Z" fill="black"/>
<path d="M64.9981 370.811H34.2588V375.177H64.9981V370.811Z" fill="black"/>
<path d="M94.4385 370.811H67.6572V375.177H94.4385V370.811Z" fill="black"/>
<path d="M121.755 370.811H98.5703V375.177H121.755V370.811Z" fill="black"/>
<path d="M434.626 147.496H337.747C336.322 147.496 335.166 146.34 335.166 144.915V85.829C335.166 84.4036 336.322 83.2476 337.747 83.2476H434.626C436.052 83.2476 437.208 84.4036 437.208 85.829V144.915C437.208 146.341 436.052 147.496 434.626 147.496Z" fill="white"/>
<path d="M388.139 135.676H341.744V130.742C343.696 126.456 346.438 124.072 349.48 122.612C350.679 122.034 351.919 121.606 353.177 121.262C354.583 120.876 356.007 120.6 357.408 120.348C358.355 120.173 359.03 119.346 359.002 118.386L358.979 117.711C358.955 117.122 358.675 116.571 358.203 116.227C348.387 109.153 352.483 92.5701 364.932 92.9004C378.841 93.2584 378.91 112.373 368.364 116.208C367.532 116.506 366.963 117.296 367.031 118.174L367.036 118.271C367.096 119.222 367.844 119.98 368.79 120.066C369.282 120.113 369.76 120.163 370.228 120.223C370.232 120.223 370.232 120.223 370.232 120.223C371.417 120.374 372.538 120.576 373.595 120.833C381.074 122.608 385.613 127.027 388.139 135.676Z" fill="black"/>
<path d="M429.324 135.676H393.609C394.207 132.686 395.135 130.462 396.283 128.795C398.892 125.006 402.636 124.055 406.223 123.393C406.315 123.379 406.407 123.361 406.499 123.342C407.211 123.213 407.722 122.584 407.698 121.858L407.685 121.427C407.681 121.353 407.672 121.275 407.662 121.197C407.593 120.839 407.386 120.518 407.088 120.306C403.9 117.986 402.733 114.297 403.229 110.94C403.84 106.774 407.006 103.122 412.04 103.255C419.601 103.448 421.571 111.212 418.925 116.342C418.122 117.904 416.89 119.228 415.251 120.012C415.017 120.123 414.773 120.228 414.525 120.316C413.919 120.537 413.533 121.134 413.578 121.781C413.628 122.494 414.189 123.068 414.901 123.137C415.893 123.229 416.825 123.362 417.707 123.546C417.712 123.541 417.712 123.541 417.716 123.546C418.603 123.721 419.439 123.95 420.22 124.23C420.224 124.23 420.229 124.23 420.233 124.239C420.596 124.363 420.945 124.5 421.285 124.652V124.657C423.623 125.69 425.456 127.275 426.861 129.535C427.9 131.194 428.708 133.223 429.324 135.676Z" fill="black"/>
<path d="M444.714 155.833H441.684V154.622H443.502V153.173H444.714V155.833ZM440.472 155.833H438.048V154.622H440.472V155.833ZM436.837 155.833H434.413V154.622H436.837V155.833ZM433.2 155.833H430.776V154.622H433.2V155.833ZM429.565 155.833H427.141V154.622H429.565V155.833ZM425.929 155.833H423.505V154.622H425.929V155.833ZM422.292 155.833H419.868V154.622H422.292V155.833ZM418.657 155.833H416.233V154.622H418.657V155.833ZM415.02 155.833H412.596V154.622H415.02V155.833ZM411.385 155.833H408.961V154.622H411.385V155.833ZM407.749 155.833H405.325V154.622H407.749V155.833ZM404.112 155.833H401.688V154.622H404.112V155.833ZM400.477 155.833H398.053V154.622H400.477V155.833ZM396.84 155.833H394.416V154.622H396.84V155.833ZM393.205 155.833H390.781V154.622H393.205V155.833ZM389.569 155.833H387.145V154.622H389.569V155.833ZM385.932 155.833H383.508V154.622H385.932V155.833ZM382.297 155.833H379.873V154.622H382.297V155.833ZM378.66 155.833H376.236V154.622H378.66V155.833ZM375.025 155.833H372.6V154.622H375.025V155.833ZM371.389 155.833H368.965V154.622H371.389V155.833ZM367.752 155.833H365.328V154.622H367.752V155.833ZM364.117 155.833H361.693V154.622H364.117V155.833ZM360.48 155.833H358.056V154.622H360.48V155.833ZM356.845 155.833H354.42V154.622H356.845V155.833ZM353.209 155.833H350.785V154.622H353.209V155.833ZM349.572 155.833H347.148V154.622H349.572V155.833ZM345.937 155.833H343.513V154.622H345.937V155.833ZM342.3 155.833H339.876V154.622H342.3V155.833ZM338.665 155.833H336.24V154.622H338.665V155.833ZM335.029 155.833H332.605V154.622H335.029V155.833ZM331.392 155.833H328.968V154.622H331.392V155.833ZM328.872 154.718H327.659V152.294H328.872V154.718ZM444.714 151.961H443.502V149.537H444.714V151.961ZM328.872 151.082H327.659V148.658H328.872V151.082ZM444.714 148.325H443.502V145.901H444.714V148.325ZM328.872 147.446H327.659V145.022H328.872V147.446ZM444.714 144.69H443.502V142.265H444.714V144.69ZM328.872 143.811H327.659V141.387H328.872V143.811ZM444.714 141.053H443.502V138.629H444.714V141.053ZM328.872 140.174H327.659V137.75H328.872V140.174ZM444.714 137.417H443.502V134.993H444.714V137.417ZM328.872 136.538H327.659V134.114H328.872V136.538ZM444.714 133.781H443.502V131.357H444.714V133.781ZM328.872 132.903H327.659V130.479H328.872V132.903ZM444.714 130.145H443.502V127.721H444.714V130.145ZM328.872 129.266H327.659V126.842H328.872V129.266ZM444.714 126.51H443.502V124.085H444.714V126.51ZM328.872 125.631H327.659V123.207H328.872V125.631ZM444.714 122.873H443.502V120.449H444.714V122.873ZM328.872 121.994H327.659V119.57H328.872V121.994ZM444.714 119.237H443.502V116.813H444.714V119.237ZM328.872 118.358H327.659V115.934H328.872V118.358ZM444.714 115.601H443.502V113.177H444.714V115.601ZM328.872 114.722H327.659V112.298H328.872V114.722ZM444.714 111.965H443.502V109.541H444.714V111.965ZM328.872 111.086H327.659V108.662H328.872V111.086ZM444.714 108.33H443.502V105.905H444.714V108.33ZM328.872 107.451H327.659V105.026H328.872V107.451ZM444.714 104.693H443.502V102.269H444.714V104.693ZM328.872 103.814H327.659V101.39H328.872V103.814ZM444.714 101.057H443.502V98.6332H444.714V101.057ZM328.872 100.178H327.659V97.7542H328.872V100.178ZM444.714 97.4206H443.502V94.9965H444.714V97.4206ZM328.872 96.5427H327.659V94.1187H328.872V96.5427ZM444.714 93.785H443.502V91.361H444.714V93.785ZM328.872 92.9061H327.659V90.482H328.872V92.9061ZM444.714 90.1495H443.502V87.7254H444.714V90.1495ZM328.872 89.2705H327.659V86.8464H328.872V89.2705ZM444.714 86.5128H443.502V84.0887H444.714V86.5128ZM328.872 85.6338H327.659V83.2098H328.872V85.6338ZM444.714 82.8772H443.502V80.4532H444.714V82.8772ZM328.872 81.9983H327.659V79.5742H328.872V81.9983ZM444.714 79.2406H443.502V76.8165H444.714V79.2406ZM328.872 78.3627H327.659V75.9386H328.872V78.3627ZM444.109 76.1226H441.774V74.9111H444.715V75.5174L444.109 75.5607V76.1226ZM440.561 76.1226H438.137V74.9111H440.561V76.1226ZM436.924 76.1226H434.5V74.9111H436.924V76.1226ZM433.289 76.1226H430.865V74.9111H433.289V76.1226ZM429.652 76.1226H427.228V74.9111H429.652V76.1226ZM426.017 76.1226H423.593V74.9111H426.017V76.1226ZM422.381 76.1226H419.957V74.9111H422.381V76.1226ZM418.744 76.1226H416.32V74.9111H418.744V76.1226ZM415.109 76.1226H412.685V74.9111H415.109V76.1226ZM411.473 76.1226H409.049V74.9111H411.473V76.1226ZM407.837 76.1226H405.413V74.9111H407.837V76.1226ZM404.201 76.1226H401.777V74.9111H404.201V76.1226ZM400.564 76.1226H398.14V74.9111H400.564V76.1226ZM396.929 76.1226H394.505V74.9111H396.929V76.1226ZM393.293 76.1226H390.869V74.9111H393.293V76.1226ZM389.657 76.1226H387.233V74.9111H389.657V76.1226ZM386.021 76.1226H383.597V74.9111H386.021V76.1226ZM382.384 76.1226H379.96V74.9111H382.384V76.1226ZM378.749 76.1226H376.325V74.9111H378.749V76.1226ZM375.113 76.1226H372.689V74.9111H375.113V76.1226ZM371.477 76.1226H369.053V74.9111H371.477V76.1226ZM367.841 76.1226H365.417V74.9111H367.841V76.1226ZM364.204 76.1226H361.78V74.9111H364.204V76.1226ZM360.569 76.1226H358.145V74.9111H360.569V76.1226ZM356.933 76.1226H354.509V74.9111H356.933V76.1226ZM353.297 76.1226H350.872V74.9111H353.297V76.1226ZM349.661 76.1226H347.237V74.9111H349.661V76.1226ZM346.024 76.1226H343.6V74.9111H346.024V76.1226ZM342.389 76.1226H339.965V74.9111H342.389V76.1226ZM338.753 76.1226H336.329V74.9111H338.753V76.1226ZM335.117 76.1226H332.692V74.9111H335.117V76.1226ZM331.481 76.1226H329.057V74.9111H331.481V76.1226Z" fill="#65FF00"/>
<path d="M330.175 73.4771H326.24V77.4119H330.175V73.4771Z" fill="black"/>
<path d="M388.096 73.4771H384.161V77.4119H388.096V73.4771Z" fill="black"/>
<path d="M446.018 73.4771H442.082V77.4119H446.018V73.4771Z" fill="black"/>
<path d="M330.175 113.215H326.24V117.151H330.175V113.215Z" fill="black"/>
<path d="M446.018 113.215H442.082V117.151H446.018V113.215Z" fill="black"/>
<path d="M330.175 152.954H326.24V156.89H330.175V152.954Z" fill="black"/>
<path d="M388.096 152.954H384.161V156.89H388.096V152.954Z" fill="black"/>
<path d="M446.018 152.954H442.082V156.89H446.018V152.954Z" fill="black"/>
<path d="M253.723 103.197L247.959 101.379C246.681 100.976 246.499 99.2434 247.665 98.5828L252.926 95.6067C254.379 94.7843 253.656 92.5608 251.997 92.7492L245.992 93.4331C244.66 93.585 243.788 92.0753 244.586 90.9979L248.181 86.1398C249.174 84.7975 247.609 83.0596 246.17 83.9075L240.963 86.9744C239.808 87.655 238.398 86.6297 238.688 85.3218L239.996 79.4218C240.358 77.7913 238.222 76.8403 237.252 78.1992L233.742 83.1194C232.963 84.2101 231.259 83.8476 230.992 82.5353L229.787 76.6131C229.454 74.976 227.116 74.976 226.783 76.6131L225.578 82.5353C225.311 83.8487 223.606 84.2112 222.828 83.1194L219.318 78.1992C218.348 76.8392 216.212 77.7913 216.573 79.4218L217.881 85.3218C218.172 86.6297 216.761 87.655 215.607 86.9744L210.4 83.9075C208.961 83.0596 207.396 84.7975 208.389 86.1398L211.984 90.9979C212.781 92.0753 211.909 93.585 210.578 93.4331L204.573 92.7492C202.914 92.5608 202.191 94.7843 203.644 95.6067L208.904 98.5828C210.07 99.2423 209.889 100.976 208.611 101.379L202.846 103.197C201.253 103.699 201.498 106.025 203.16 106.185L209.176 106.765C210.511 106.894 211.048 108.551 210.045 109.438L205.518 113.443C204.268 114.549 205.436 116.575 207.02 116.045L212.752 114.127C214.022 113.702 215.189 114.997 214.633 116.216L212.127 121.716C211.434 123.236 213.326 124.61 214.557 123.482L219.013 119.399C220.001 118.493 221.593 119.202 221.581 120.542L221.528 126.587C221.514 128.257 223.801 128.742 224.466 127.211L226.876 121.669C227.41 120.439 229.154 120.439 229.688 121.669L232.098 127.211C232.764 128.742 235.051 128.256 235.036 126.587L234.984 120.542C234.972 119.202 236.565 118.493 237.552 119.399L242.008 123.482C243.239 124.61 245.132 123.236 244.439 121.716L241.933 116.216C241.377 114.997 242.543 113.701 243.814 114.127L249.545 116.045C251.129 116.574 252.298 114.549 251.047 113.443L246.52 109.438C245.516 108.551 246.055 106.892 247.389 106.765L253.406 106.185C255.072 106.025 255.316 103.699 253.723 103.197ZM228.284 111.49C222.844 111.49 218.433 107.08 218.433 101.64C218.433 96.1997 222.844 91.7894 228.284 91.7894C233.724 91.7894 238.134 96.1997 238.134 101.64C238.134 107.08 233.724 111.49 228.284 111.49Z" fill="#65FF00"/>
<path d="M248.853 377.999C249.082 376.801 249.2 375.562 249.2 374.298C249.2 373.032 249.083 371.795 248.853 370.592H244.125C243.152 370.592 242.274 370.006 241.903 369.106L241.891 369.076C241.52 368.176 241.726 367.142 242.414 366.454L245.753 363.116C244.353 361.058 242.574 359.28 240.517 357.877L237.126 361.267C236.468 361.926 235.478 362.123 234.616 361.767L234.457 361.701C233.597 361.345 233.035 360.505 233.035 359.574V354.777C231.837 354.547 230.599 354.43 229.333 354.43C228.067 354.43 226.83 354.546 225.627 354.777V359.575C225.627 360.506 225.066 361.345 224.206 361.702L224.112 361.741C223.212 362.113 222.176 361.907 221.487 361.219L218.147 357.878C216.09 359.281 214.311 361.06 212.914 363.117L216.25 366.454C216.94 367.143 217.146 368.178 216.773 369.078L216.761 369.108C216.389 370.007 215.511 370.595 214.538 370.595H209.814C209.584 371.797 209.467 373.034 209.467 374.3C209.467 375.566 209.583 376.803 209.814 378.001H214.608C215.564 378.001 216.397 378.603 216.761 379.487C216.766 379.497 216.769 379.507 216.773 379.516C217.14 380.401 216.978 381.414 216.301 382.091L212.914 385.478C214.311 387.535 216.088 389.314 218.147 390.718L221.537 387.327C222.215 386.65 223.229 386.487 224.113 386.855C224.124 386.859 224.134 386.864 224.145 386.868C225.029 387.233 225.628 388.065 225.628 389.021V393.818C226.83 394.047 228.068 394.165 229.334 394.165C230.6 394.165 231.837 394.048 233.036 393.818V389.021C233.036 388.065 233.636 387.233 234.519 386.868C234.529 386.864 234.54 386.859 234.55 386.855C235.434 386.487 236.449 386.65 237.126 387.327L240.517 390.718C242.574 389.318 244.353 387.54 245.753 385.482L242.364 382.09C241.688 381.414 241.525 380.401 241.892 379.517C241.896 379.507 241.901 379.497 241.904 379.486C242.269 378.602 243.101 378 244.058 378H248.853V377.999ZM229.968 378.255C227.259 378.669 224.96 376.371 225.375 373.662C225.633 371.973 227.012 370.594 228.7 370.335C231.409 369.92 233.709 372.22 233.294 374.928C233.036 376.618 231.656 377.997 229.968 378.255Z" fill="#65FF00"/>
<path d="M282.443 331.583C283.143 331.583 283.828 331.639 284.495 331.745V334.629C284.495 335.473 285.003 336.234 285.783 336.557V336.558L285.894 336.603C286.673 336.925 287.57 336.747 288.168 336.15L290.206 334.111C291.32 334.922 292.298 335.904 293.108 337.017L291.107 339.019C290.491 339.637 290.306 340.564 290.639 341.372L290.641 341.375L290.649 341.396C290.983 342.201 291.77 342.726 292.642 342.726H295.477C295.582 343.396 295.64 344.081 295.64 344.781C295.64 345.48 295.583 346.165 295.478 346.833H292.593C291.717 346.833 290.972 347.382 290.648 348.161L290.644 348.17L290.637 348.186C290.313 348.967 290.452 349.884 291.071 350.504L293.107 352.542C292.298 353.655 291.319 354.636 290.205 355.446L288.167 353.408C287.584 352.825 286.741 352.669 285.994 352.919L285.838 352.978L285.836 352.979C285.834 352.98 285.83 352.981 285.826 352.983C285.044 353.306 284.494 354.052 284.494 354.93V357.813C283.827 357.918 283.141 357.975 282.442 357.975C281.743 357.975 281.058 357.918 280.389 357.813V354.93C280.389 354.054 279.84 353.31 279.062 352.986H279.063L279.041 352.977L279.04 352.976L279.037 352.975L278.889 352.919C278.142 352.669 277.297 352.825 276.715 353.408L274.678 355.445C273.565 354.633 272.585 353.654 271.777 352.541L273.813 350.505V350.504C274.434 349.882 274.572 348.965 274.248 348.184L274.241 348.167L274.233 348.152C273.908 347.377 273.165 346.832 272.292 346.832H269.409C269.304 346.165 269.248 345.479 269.248 344.78C269.248 344.079 269.305 343.394 269.41 342.725H272.244C273.118 342.725 273.905 342.2 274.239 341.392L274.238 341.391L274.242 341.384H274.243L274.248 341.373C274.582 340.565 274.397 339.635 273.778 339.017H273.779L271.778 337.016C272.585 335.903 273.564 334.923 274.678 334.112L276.682 336.116C277.3 336.734 278.23 336.919 279.037 336.584L279.102 336.558V336.557C279.881 336.234 280.39 335.473 280.39 334.629V331.746C281.059 331.64 281.744 331.584 282.443 331.583ZM285.668 345.292C286.005 343.091 284.131 341.218 281.93 341.556C280.551 341.768 279.431 342.888 279.22 344.267V344.268C278.883 346.469 280.755 348.341 282.956 348.004C284.249 347.806 285.315 346.809 285.617 345.548L285.668 345.292Z" stroke="#65FF00"/>
<path d="M403.227 299.426L364.577 275.937L378.589 318.94L386.504 307.469L397.84 321.782L401.585 318.817L390.248 304.503L403.227 299.426Z" fill="#65FF00"/>
<path d="M410.701 283.745H385.815C385.1 283.745 384.516 283.16 384.516 282.446C384.516 281.731 385.1 281.146 385.815 281.146H410.701C411.414 281.146 412 281.731 412 282.446C412 283.16 411.415 283.745 410.701 283.745Z" fill="#65FF00"/>
<path d="M424.986 283.745H421.227C420.512 283.745 419.928 283.16 419.928 282.446C419.928 281.731 420.512 281.146 421.227 281.146H424.986C425.7 281.146 426.286 281.731 426.286 282.446C426.286 283.16 425.701 283.745 424.986 283.745Z" fill="#65FF00"/>
<path d="M427.979 299.271H408.292C407.578 299.271 406.993 298.687 406.993 297.972C406.993 297.257 407.577 296.673 408.292 296.673H427.979C428.692 296.673 429.278 297.257 429.278 297.972C429.276 298.686 428.692 299.271 427.979 299.271Z" fill="#65FF00"/>
<path d="M439.819 299.271H436.06C435.345 299.271 434.761 298.687 434.761 297.972C434.761 297.257 435.345 296.673 436.06 296.673H439.819C440.534 296.673 441.119 297.257 441.119 297.972C441.119 298.686 440.533 299.271 439.819 299.271Z" fill="#65FF00"/>
<path d="M454.36 299.271H447.238C446.524 299.271 445.938 298.687 445.938 297.972C445.938 297.257 446.523 296.673 447.238 296.673H454.36C455.075 296.673 455.659 297.257 455.659 297.972C455.659 298.686 455.075 299.271 454.36 299.271Z" fill="#65FF00"/>
<path d="M465.537 299.271H461.778C461.064 299.271 460.479 298.687 460.479 297.972C460.479 297.257 461.063 296.673 461.778 296.673H465.537C466.251 296.673 466.836 297.257 466.836 297.972C466.836 298.686 466.252 299.271 465.537 299.271Z" fill="#65FF00"/>
<path d="M440.366 315.325L413.714 314.798C412.999 314.798 412.415 314.214 412.415 313.499C412.415 312.784 412.999 312.2 413.714 312.2L440.366 312.727C441.079 312.727 441.665 313.311 441.665 314.026C441.665 314.74 441.081 315.325 440.366 315.325Z" fill="#65FF00"/>
<path d="M453.115 315.326H450.894C450.18 315.326 449.595 314.742 449.595 314.027C449.595 313.312 450.179 312.728 450.894 312.728H453.115C453.829 312.728 454.414 313.312 454.414 314.027C454.413 314.741 453.829 315.326 453.115 315.326Z" fill="#65FF00"/>
<path d="M301.556 389.687H275.063C269.209 389.687 264.463 384.942 264.463 379.088V329.258" stroke="#65FF00" stroke-width="2.1869" stroke-miterlimit="10" stroke-dasharray="2.19 1.09"/>
<path d="M387.387 257.998H433.523C441.573 257.998 448.1 251.472 448.1 243.421V213.041" stroke="#65FF00" stroke-width="2.1869" stroke-miterlimit="10" stroke-dasharray="2.19 1.09"/>
<path d="M62.7812 279.365V232.76C62.7812 228.155 66.5155 224.42 71.1209 224.42H89.1214" stroke="#65FF00" stroke-width="2.1869" stroke-miterlimit="10" stroke-dasharray="2.19 1.09"/>
<path d="M62.6689 281.519C63.9837 281.519 65.0498 282.585 65.0498 283.9C65.0497 285.215 63.9837 286.281 62.6689 286.281C61.3541 286.281 60.2882 285.215 60.2881 283.9C60.2881 282.585 61.3541 281.519 62.6689 281.519Z" fill="#42444F" stroke="#65FF00"/>
<path d="M267.271 324.388C267.271 325.929 266.022 327.179 264.48 327.179C262.939 327.179 261.689 325.929 261.689 324.388C261.689 322.847 262.939 321.597 264.48 321.597C266.022 321.597 267.271 322.847 267.271 324.388Z" fill="#65FF00"/>
<path d="M307.387 389.696C307.387 390.965 306.359 391.994 305.09 391.994C303.821 391.994 302.792 390.965 302.792 389.696C302.792 388.427 303.821 387.398 305.09 387.398C306.358 387.398 307.387 388.427 307.387 389.696Z" fill="#65FF00"/>
<path d="M141.167 230.771C140.883 230.771 140.63 230.747 140.407 230.7C140.185 230.657 140.031 230.614 139.946 230.572L140.372 229.094C140.779 229.199 141.139 229.237 141.451 229.208C141.764 229.18 142.041 229.04 142.282 228.789C142.529 228.543 142.754 228.143 142.957 227.589L143.27 226.737L139.236 215.771H141.054L144.065 224.464H144.179L147.19 215.771H149.008L144.378 228.271C144.169 228.834 143.911 229.3 143.603 229.67C143.296 230.044 142.938 230.321 142.531 230.501C142.129 230.681 141.674 230.771 141.167 230.771ZM155.262 226.907C154.277 226.907 153.413 226.673 152.669 226.204C151.931 225.735 151.353 225.079 150.937 224.237C150.525 223.394 150.319 222.409 150.319 221.282C150.319 220.146 150.525 219.154 150.937 218.306C151.353 217.459 151.931 216.8 152.669 216.332C153.413 215.863 154.277 215.629 155.262 215.629C156.247 215.629 157.108 215.863 157.847 216.332C158.59 216.8 159.168 217.459 159.58 218.306C159.997 219.154 160.205 220.146 160.205 221.282C160.205 222.409 159.997 223.394 159.58 224.237C159.168 225.079 158.59 225.735 157.847 226.204C157.108 226.673 156.247 226.907 155.262 226.907ZM155.262 225.401C156.01 225.401 156.625 225.21 157.108 224.826C157.591 224.442 157.949 223.938 158.181 223.313C158.413 222.688 158.529 222.011 158.529 221.282C158.529 220.553 158.413 219.873 158.181 219.244C157.949 218.614 157.591 218.105 157.108 217.717C156.625 217.328 156.01 217.134 155.262 217.134C154.514 217.134 153.898 217.328 153.415 217.717C152.932 218.105 152.575 218.614 152.343 219.244C152.111 219.873 151.995 220.553 151.995 221.282C151.995 222.011 152.111 222.688 152.343 223.313C152.575 223.938 152.932 224.442 153.415 224.826C153.898 225.21 154.514 225.401 155.262 225.401ZM169.639 222.219V215.771H171.315V226.68H169.639V224.833H169.525C169.269 225.387 168.872 225.858 168.332 226.246C167.792 226.63 167.11 226.822 166.286 226.822C165.604 226.822 164.998 226.673 164.468 226.374C163.938 226.071 163.521 225.617 163.218 225.011C162.915 224.4 162.764 223.63 162.764 222.702V215.771H164.44V222.589C164.44 223.384 164.662 224.019 165.107 224.492C165.557 224.966 166.13 225.202 166.826 225.202C167.243 225.202 167.667 225.096 168.097 224.883C168.533 224.67 168.898 224.343 169.191 223.903C169.489 223.462 169.639 222.901 169.639 222.219ZM174.385 226.68V215.771H176.004V217.418H176.118C176.316 216.879 176.676 216.441 177.197 216.104C177.718 215.768 178.305 215.6 178.959 215.6C179.082 215.6 179.236 215.603 179.42 215.607C179.605 215.612 179.745 215.619 179.839 215.629V217.333C179.782 217.319 179.652 217.298 179.449 217.269C179.25 217.236 179.039 217.219 178.816 217.219C178.286 217.219 177.813 217.331 177.396 217.553C176.984 217.771 176.657 218.074 176.416 218.462C176.179 218.846 176.061 219.284 176.061 219.776V226.68H174.385ZM184.473 226.68L181.15 215.771H182.911L185.269 224.123H185.383L187.712 215.771H189.502L191.803 224.094H191.917L194.275 215.771H196.036L192.712 226.68H191.064L188.678 218.299H188.508L186.121 226.68H184.473ZM202.455 226.907C201.403 226.907 200.497 226.675 199.734 226.211C198.977 225.742 198.392 225.089 197.98 224.251C197.573 223.408 197.369 222.428 197.369 221.31C197.369 220.193 197.573 219.208 197.98 218.356C198.392 217.499 198.965 216.831 199.699 216.353C200.438 215.87 201.299 215.629 202.284 215.629C202.852 215.629 203.413 215.723 203.967 215.913C204.521 216.102 205.026 216.41 205.48 216.836C205.935 217.257 206.297 217.816 206.567 218.512C206.837 219.208 206.972 220.065 206.972 221.083V221.793H198.563V220.344H205.267C205.267 219.729 205.144 219.18 204.898 218.697C204.656 218.214 204.311 217.833 203.861 217.553C203.416 217.274 202.89 217.134 202.284 217.134C201.617 217.134 201.039 217.3 200.551 217.631C200.068 217.958 199.697 218.384 199.436 218.91C199.176 219.435 199.046 219.999 199.046 220.6V221.566C199.046 222.39 199.188 223.088 199.472 223.661C199.761 224.229 200.161 224.663 200.672 224.961C201.183 225.254 201.778 225.401 202.455 225.401C202.895 225.401 203.293 225.34 203.648 225.217C204.008 225.089 204.318 224.899 204.578 224.648C204.839 224.393 205.04 224.076 205.182 223.697L206.801 224.151C206.631 224.701 206.344 225.183 205.942 225.6C205.539 226.012 205.042 226.334 204.45 226.566C203.859 226.793 203.193 226.907 202.455 226.907ZM209.749 226.68V212.134H211.425V217.504H211.567C211.69 217.314 211.86 217.073 212.078 216.779C212.301 216.481 212.618 216.216 213.03 215.984C213.447 215.747 214.01 215.629 214.72 215.629C215.639 215.629 216.448 215.858 217.149 216.317C217.85 216.777 218.397 217.428 218.79 218.271C219.183 219.113 219.379 220.108 219.379 221.254C219.379 222.409 219.183 223.41 218.79 224.258C218.397 225.101 217.852 225.754 217.156 226.218C216.46 226.677 215.658 226.907 214.749 226.907C214.048 226.907 213.487 226.791 213.065 226.559C212.644 226.322 212.32 226.055 212.092 225.756C211.865 225.453 211.69 225.202 211.567 225.004H211.368V226.68H209.749ZM211.396 221.225C211.396 222.049 211.517 222.776 211.759 223.406C212 224.031 212.353 224.521 212.817 224.876C213.281 225.226 213.849 225.401 214.521 225.401C215.222 225.401 215.807 225.217 216.276 224.847C216.749 224.473 217.104 223.971 217.341 223.342C217.582 222.707 217.703 222.002 217.703 221.225C217.703 220.458 217.585 219.767 217.348 219.151C217.116 218.531 216.763 218.041 216.29 217.681C215.821 217.317 215.232 217.134 214.521 217.134C213.84 217.134 213.267 217.307 212.803 217.653C212.339 217.994 211.988 218.472 211.752 219.087C211.515 219.698 211.396 220.411 211.396 221.225ZM229.671 218.214L228.165 218.64C228.07 218.389 227.93 218.145 227.746 217.908C227.566 217.667 227.32 217.468 227.007 217.312C226.695 217.156 226.295 217.077 225.807 217.077C225.139 217.077 224.583 217.231 224.138 217.539C223.698 217.842 223.477 218.228 223.477 218.697C223.477 219.113 223.629 219.442 223.932 219.684C224.235 219.925 224.708 220.127 225.352 220.288L226.972 220.685C227.947 220.922 228.674 221.284 229.152 221.772C229.63 222.255 229.869 222.878 229.869 223.64C229.869 224.265 229.689 224.824 229.33 225.316C228.975 225.808 228.477 226.197 227.838 226.481C227.199 226.765 226.456 226.907 225.608 226.907C224.495 226.907 223.574 226.665 222.845 226.183C222.116 225.7 221.654 224.994 221.46 224.066L223.051 223.668C223.203 224.255 223.489 224.696 223.911 224.989C224.337 225.283 224.893 225.43 225.58 225.43C226.361 225.43 226.981 225.264 227.44 224.933C227.904 224.596 228.136 224.194 228.136 223.725C228.136 223.346 228.004 223.029 227.739 222.773C227.474 222.513 227.066 222.319 226.517 222.191L224.699 221.765C223.7 221.528 222.966 221.161 222.497 220.664C222.033 220.162 221.801 219.535 221.801 218.782C221.801 218.166 221.974 217.622 222.32 217.148C222.67 216.675 223.146 216.303 223.747 216.033C224.353 215.763 225.04 215.629 225.807 215.629C226.886 215.629 227.734 215.865 228.35 216.339C228.97 216.812 229.41 217.437 229.671 218.214ZM232.392 226.68V215.771H234.069V226.68H232.392ZM233.245 213.952C232.918 213.952 232.636 213.841 232.4 213.619C232.168 213.396 232.052 213.129 232.052 212.816C232.052 212.504 232.168 212.236 232.4 212.013C232.636 211.791 232.918 211.68 233.245 211.68C233.571 211.68 233.851 211.791 234.083 212.013C234.32 212.236 234.438 212.504 234.438 212.816C234.438 213.129 234.32 213.396 234.083 213.619C233.851 213.841 233.571 213.952 233.245 213.952ZM241.883 215.771V217.191H236.229V215.771H241.883ZM237.877 213.157H239.553V223.555C239.553 224.028 239.622 224.383 239.759 224.62C239.901 224.852 240.081 225.008 240.299 225.089C240.522 225.165 240.756 225.202 241.002 225.202C241.187 225.202 241.338 225.193 241.457 225.174C241.575 225.15 241.67 225.131 241.741 225.117L242.082 226.623C241.968 226.665 241.81 226.708 241.606 226.751C241.402 226.798 241.144 226.822 240.832 226.822C240.358 226.822 239.894 226.72 239.44 226.516C238.99 226.313 238.616 226.003 238.318 225.586C238.024 225.169 237.877 224.644 237.877 224.009V213.157ZM248.861 226.907C247.81 226.907 246.903 226.675 246.141 226.211C245.383 225.742 244.798 225.089 244.386 224.251C243.979 223.408 243.776 222.428 243.776 221.31C243.776 220.193 243.979 219.208 244.386 218.356C244.798 217.499 245.371 216.831 246.105 216.353C246.844 215.87 247.706 215.629 248.69 215.629C249.259 215.629 249.82 215.723 250.374 215.913C250.928 216.102 251.432 216.41 251.886 216.836C252.341 217.257 252.703 217.816 252.973 218.512C253.243 219.208 253.378 220.065 253.378 221.083V221.793H244.969V220.344H251.673C251.673 219.729 251.55 219.18 251.304 218.697C251.063 218.214 250.717 217.833 250.267 217.553C249.822 217.274 249.296 217.134 248.69 217.134C248.023 217.134 247.445 217.3 246.957 217.631C246.475 217.958 246.103 218.384 245.842 218.91C245.582 219.435 245.452 219.999 245.452 220.6V221.566C245.452 222.39 245.594 223.088 245.878 223.661C246.167 224.229 246.567 224.663 247.078 224.961C247.59 225.254 248.184 225.401 248.861 225.401C249.301 225.401 249.699 225.34 250.054 225.217C250.414 225.089 250.724 224.899 250.984 224.648C251.245 224.393 251.446 224.076 251.588 223.697L253.207 224.151C253.037 224.701 252.751 225.183 252.348 225.6C251.946 226.012 251.448 226.334 250.857 226.566C250.265 226.793 249.6 226.907 248.861 226.907ZM257.149 226.793C256.799 226.793 256.498 226.668 256.247 226.417C255.996 226.166 255.871 225.865 255.871 225.515C255.871 225.165 255.996 224.864 256.247 224.613C256.498 224.362 256.799 224.237 257.149 224.237C257.5 224.237 257.8 224.362 258.051 224.613C258.302 224.864 258.428 225.165 258.428 225.515C258.428 225.747 258.368 225.96 258.25 226.154C258.136 226.348 257.983 226.504 257.788 226.623C257.599 226.737 257.386 226.793 257.149 226.793ZM265.867 226.907C264.845 226.907 263.964 226.665 263.225 226.183C262.487 225.7 261.918 225.034 261.521 224.187C261.123 223.339 260.924 222.371 260.924 221.282C260.924 220.174 261.128 219.196 261.535 218.349C261.947 217.496 262.52 216.831 263.254 216.353C263.992 215.87 264.854 215.629 265.839 215.629C266.606 215.629 267.297 215.771 267.913 216.055C268.528 216.339 269.033 216.737 269.426 217.248C269.819 217.759 270.062 218.356 270.157 219.038H268.481C268.353 218.54 268.069 218.1 267.629 217.717C267.193 217.328 266.606 217.134 265.867 217.134C265.214 217.134 264.641 217.305 264.149 217.646C263.661 217.982 263.28 218.458 263.005 219.073C262.735 219.684 262.6 220.401 262.6 221.225C262.6 222.068 262.733 222.802 262.998 223.427C263.268 224.052 263.647 224.537 264.134 224.883C264.627 225.228 265.204 225.401 265.867 225.401C266.303 225.401 266.698 225.326 267.053 225.174C267.408 225.022 267.709 224.805 267.955 224.521C268.202 224.237 268.377 223.896 268.481 223.498H270.157C270.062 224.142 269.828 224.722 269.454 225.238C269.085 225.749 268.595 226.156 267.984 226.46C267.378 226.758 266.672 226.907 265.867 226.907ZM277.039 226.907C276.054 226.907 275.19 226.673 274.447 226.204C273.708 225.735 273.131 225.079 272.714 224.237C272.302 223.394 272.096 222.409 272.096 221.282C272.096 220.146 272.302 219.154 272.714 218.306C273.131 217.459 273.708 216.8 274.447 216.332C275.19 215.863 276.054 215.629 277.039 215.629C278.024 215.629 278.886 215.863 279.624 216.332C280.368 216.8 280.945 217.459 281.357 218.306C281.774 219.154 281.982 220.146 281.982 221.282C281.982 222.409 281.774 223.394 281.357 224.237C280.945 225.079 280.368 225.735 279.624 226.204C278.886 226.673 278.024 226.907 277.039 226.907ZM277.039 225.401C277.787 225.401 278.403 225.21 278.886 224.826C279.369 224.442 279.726 223.938 279.958 223.313C280.19 222.688 280.306 222.011 280.306 221.282C280.306 220.553 280.19 219.873 279.958 219.244C279.726 218.614 279.369 218.105 278.886 217.717C278.403 217.328 277.787 217.134 277.039 217.134C276.291 217.134 275.676 217.328 275.193 217.717C274.71 218.105 274.352 218.614 274.12 219.244C273.888 219.873 273.772 220.553 273.772 221.282C273.772 222.011 273.888 222.688 274.12 223.313C274.352 223.938 274.71 224.442 275.193 224.826C275.676 225.21 276.291 225.401 277.039 225.401ZM284.541 226.68V215.771H286.16V217.475H286.302C286.53 216.893 286.897 216.441 287.403 216.119C287.91 215.792 288.518 215.629 289.228 215.629C289.948 215.629 290.547 215.792 291.025 216.119C291.508 216.441 291.885 216.893 292.155 217.475H292.268C292.548 216.912 292.967 216.464 293.525 216.133C294.084 215.797 294.754 215.629 295.535 215.629C296.511 215.629 297.308 215.934 297.929 216.545C298.549 217.151 298.859 218.095 298.859 219.379V226.68H297.183V219.379C297.183 218.574 296.963 217.998 296.522 217.653C296.082 217.307 295.564 217.134 294.967 217.134C294.2 217.134 293.606 217.366 293.184 217.83C292.763 218.29 292.552 218.872 292.552 219.577V226.68H290.848V219.208C290.848 218.588 290.647 218.088 290.244 217.71C289.842 217.326 289.323 217.134 288.689 217.134C288.253 217.134 287.846 217.25 287.467 217.482C287.093 217.714 286.79 218.036 286.558 218.448C286.331 218.855 286.217 219.326 286.217 219.862V226.68H284.541Z" fill="white"/>
<path d="M180.362 255.625H141.615V259.467H180.362V255.625Z" fill="white"/>
<path d="M180.362 262.942H141.615V266.784H180.362V262.942Z" fill="white"/>
<path d="M180.362 270.259H141.615V274.101H180.362V270.259Z" fill="white"/>
<path d="M167.591 277.576H141.615V281.417H167.591V277.576Z" fill="white"/>
<path d="M232.235 255.625H193.488V259.467H232.235V255.625Z" fill="white"/>
<path d="M232.235 262.942H193.488V266.784H232.235V262.942Z" fill="white"/>
<path d="M232.235 270.259H193.488V274.101H232.235V270.259Z" fill="white"/>
<path d="M219.464 277.576H193.488V281.417H219.464V277.576Z" fill="white"/>
<path d="M284.105 255.625H245.358V259.467H284.105V255.625Z" fill="white"/>
<path d="M284.105 262.942H245.358V266.784H284.105V262.942Z" fill="white"/>
<path d="M284.105 270.259H245.358V274.101H284.105V270.259Z" fill="white"/>
<path d="M271.334 277.576H245.358V281.417H271.334V277.576Z" fill="white"/>
<path d="M335.975 255.625H297.229V259.467H335.975V255.625Z" fill="white"/>
<path d="M335.975 262.942H297.229V266.784H335.975V262.942Z" fill="white"/>
<path d="M335.975 270.259H297.229V274.101H335.975V270.259Z" fill="white"/>
<path d="M323.204 277.576H297.229V281.417H323.204V277.576Z" fill="white"/>
<path d="M354.822 363.134H317.502V414.689H354.822V363.134Z" fill="white"/>
<path d="M327.244 363.134H317.502V372.885L327.244 363.134Z" fill="black"/>
<path d="M346.972 368.913H325.353V370.118H346.972V368.913Z" fill="black"/>
<path d="M346.972 372.38H325.353V373.585H346.972V372.38Z" fill="black"/>
<path d="M346.972 375.848H325.353V377.053H346.972V375.848Z" fill="black"/>
<path d="M346.972 379.314H325.353V380.519H346.972V379.314Z" fill="black"/>
<path d="M346.972 382.781H325.353V383.986H346.972V382.781Z" fill="black"/>
<path d="M346.972 386.248H325.353V387.453H346.972V386.248Z" fill="black"/>
<path d="M346.972 389.714H325.353V390.919H346.972V389.714Z" fill="black"/>
<path d="M346.972 393.182H325.353V394.386H346.972V393.182Z" fill="black"/>
<path d="M346.972 396.649H325.353V397.854H346.972V396.649Z" fill="black"/>
<path d="M346.972 400.115H325.353V401.32H346.972V400.115Z" fill="black"/>
<path d="M346.972 403.582H325.353V404.787H346.972V403.582Z" fill="black"/>
<path d="M338.428 407.049H325.353V408.254H338.428V407.049Z" fill="black"/>
<path d="M401.596 363.134H364.277V414.689H401.596V363.134Z" fill="white"/>
<path d="M374.019 363.134H364.277V372.885L374.019 363.134Z" fill="black"/>
<path d="M393.746 368.913H372.127V370.118H393.746V368.913Z" fill="black"/>
<path d="M393.746 372.38H372.127V373.585H393.746V372.38Z" fill="black"/>
<path d="M393.746 375.848H372.127V377.053H393.746V375.848Z" fill="black"/>
<path d="M393.746 379.314H372.127V380.519H393.746V379.314Z" fill="black"/>
<path d="M393.746 382.781H372.127V383.986H393.746V382.781Z" fill="black"/>
<path d="M393.746 386.248H372.127V387.453H393.746V386.248Z" fill="black"/>
<path d="M393.746 389.714H372.127V390.919H393.746V389.714Z" fill="black"/>
<path d="M393.746 393.182H372.127V394.386H393.746V393.182Z" fill="black"/>
<path d="M393.746 396.649H372.127V397.854H393.746V396.649Z" fill="black"/>
<path d="M393.746 400.115H372.127V401.32H393.746V400.115Z" fill="black"/>
<path d="M393.746 403.582H372.127V404.787H393.746V403.582Z" fill="black"/>
<path d="M385.203 407.049H372.127V408.254H385.203V407.049Z" fill="black"/>
<path d="M448.37 363.134H411.051V414.689H448.37V363.134Z" fill="white"/>
<path d="M420.793 363.134H411.051V372.885L420.793 363.134Z" fill="black"/>
<path d="M440.521 368.913H418.901V370.118H440.521V368.913Z" fill="black"/>
<path d="M440.521 372.38H418.901V373.585H440.521V372.38Z" fill="black"/>
<path d="M440.521 375.848H418.901V377.053H440.521V375.848Z" fill="black"/>
<path d="M440.521 379.314H418.901V380.519H440.521V379.314Z" fill="black"/>
<path d="M440.521 382.781H418.901V383.986H440.521V382.781Z" fill="black"/>
<path d="M440.521 386.248H418.901V387.453H440.521V386.248Z" fill="black"/>
<path d="M440.521 389.714H418.901V390.919H440.521V389.714Z" fill="black"/>
<path d="M440.521 393.182H418.901V394.386H440.521V393.182Z" fill="black"/>
<path d="M440.521 396.649H418.901V397.854H440.521V396.649Z" fill="black"/>
<path d="M440.521 400.115H418.901V401.32H440.521V400.115Z" fill="black"/>
<path d="M440.521 403.582H418.901V404.787H440.521V403.582Z" fill="black"/>
<path d="M431.977 407.049H418.901V408.254H431.977V407.049Z" fill="black"/>
<path d="M386.739 258.077C386.739 259.372 385.689 260.423 384.393 260.423C383.098 260.423 382.048 259.373 382.048 258.077C382.048 256.782 383.098 255.732 384.393 255.732C385.689 255.732 386.739 256.782 386.739 258.077Z" fill="#65FF00"/>
<path d="M450.499 209.373C450.499 210.669 449.45 211.719 448.154 211.719C446.858 211.719 445.809 210.669 445.809 209.373C445.809 208.079 446.858 207.028 448.154 207.028C449.45 207.028 450.499 208.079 450.499 209.373Z" fill="#65FF00"/>
<path d="M138.674 105.57H165.005C174.152 105.57 181.566 112.984 181.566 122.13V163.391" stroke="#65FF00" stroke-width="2.1869" stroke-miterlimit="10" stroke-dasharray="2.19 1.09"/>
<path d="M368.939 175.778H359.664C358.423 175.778 357.418 174.773 357.418 173.532V164.257C357.418 163.017 358.423 162.012 359.664 162.012H368.939C370.179 162.012 371.184 163.017 371.184 164.257V173.532C371.184 174.772 370.179 175.778 368.939 175.778Z" fill="black"/>
<path d="M389.589 175.778H380.314C379.074 175.778 378.068 174.773 378.068 173.532V164.257C378.068 163.017 379.074 162.012 380.314 162.012H389.589C390.829 162.012 391.835 163.017 391.835 164.257V173.532C391.835 174.772 390.829 175.778 389.589 175.778Z" fill="black"/>
<path d="M410.24 175.778H400.964C399.724 175.778 398.719 174.773 398.719 173.532V164.257C398.719 163.017 399.724 162.012 400.964 162.012H410.24C411.48 162.012 412.485 163.017 412.485 164.257V173.532C412.485 174.772 411.48 175.778 410.24 175.778Z" fill="black"/>
<path d="M430.89 175.778H421.615C420.374 175.778 419.369 174.773 419.369 173.532V164.257C419.369 163.017 420.374 162.012 421.615 162.012H430.89C432.13 162.012 433.135 163.017 433.135 164.257V173.532C433.135 174.772 432.13 175.778 430.89 175.778Z" fill="black"/>
<path d="M451.54 175.778H442.265C441.025 175.778 440.02 174.773 440.02 173.532V164.257C440.02 163.017 441.025 162.012 442.265 162.012H451.54C452.781 162.012 453.786 163.017 453.786 164.257V173.532C453.786 174.772 452.781 175.778 451.54 175.778Z" fill="black"/>
<path d="M472.191 175.778H462.916C461.675 175.778 460.67 174.773 460.67 173.532V164.257C460.67 163.017 461.675 162.012 462.916 162.012H472.191C473.431 162.012 474.436 163.017 474.436 164.257V173.532C474.436 174.772 473.431 175.778 472.191 175.778Z" fill="black"/>
<path d="M472.191 154.765H462.916C461.675 154.765 460.67 153.76 460.67 152.52V143.245C460.67 142.004 461.675 140.999 462.916 140.999H472.191C473.431 140.999 474.436 142.004 474.436 143.245V152.52C474.436 153.76 473.431 154.765 472.191 154.765Z" fill="black"/>
<path d="M472.191 133.752H462.916C461.675 133.752 460.67 132.747 460.67 131.507V122.231C460.67 120.991 461.675 119.986 462.916 119.986H472.191C473.431 119.986 474.436 120.991 474.436 122.231V131.507C474.436 132.747 473.431 133.752 472.191 133.752Z" fill="black"/>
<path d="M472.191 112.739H462.916C461.675 112.739 460.67 111.734 460.67 110.493V101.218C460.67 99.978 461.675 98.9727 462.916 98.9727H472.191C473.431 98.9727 474.436 99.978 474.436 101.218V110.493C474.436 111.734 473.431 112.739 472.191 112.739Z" fill="black"/>
<path d="M472.191 91.7259H462.916C461.675 91.7259 460.67 90.7205 460.67 89.4802V80.2051C460.67 78.9648 461.675 77.9595 462.916 77.9595H472.191C473.431 77.9595 474.436 78.9648 474.436 80.2051V89.4802C474.436 90.7205 473.431 91.7259 472.191 91.7259Z" fill="black"/>
<path d="M270.472 132.022C270.655 131.069 270.748 130.085 270.748 129.079C270.748 128.073 270.655 127.089 270.472 126.134H266.715C265.941 126.134 265.244 125.667 264.948 124.952L264.938 124.928C264.642 124.213 264.807 123.39 265.354 122.843L268.007 120.19C266.894 118.554 265.48 117.14 263.845 116.024L261.15 118.72C260.626 119.243 259.839 119.4 259.154 119.117L259.028 119.065C258.344 118.782 257.897 118.114 257.897 117.373V113.559C256.944 113.376 255.961 113.283 254.955 113.283C253.948 113.283 252.965 113.376 252.01 113.559V117.373C252.01 118.114 251.564 118.781 250.88 119.065L250.806 119.096C250.09 119.392 249.266 119.229 248.719 118.681L246.063 116.025C244.427 117.142 243.014 118.555 241.903 120.191L244.556 122.843C245.103 123.391 245.267 124.214 244.971 124.93L244.961 124.954C244.665 125.668 243.968 126.135 243.193 126.135H239.438C239.255 127.091 239.162 128.075 239.162 129.08C239.162 130.087 239.255 131.07 239.438 132.023H243.249C244.009 132.023 244.671 132.501 244.961 133.205C244.965 133.212 244.968 133.22 244.971 133.228C245.263 133.931 245.134 134.736 244.595 135.275L241.903 137.967C243.014 139.603 244.427 141.017 246.063 142.133L248.759 139.437C249.297 138.898 250.103 138.769 250.807 139.062C250.815 139.066 250.824 139.069 250.832 139.072C251.534 139.363 252.011 140.023 252.011 140.784V144.598C252.966 144.781 253.95 144.873 254.956 144.873C255.962 144.873 256.945 144.78 257.899 144.598V140.784C257.899 140.023 258.375 139.363 259.078 139.072C259.087 139.069 259.095 139.066 259.102 139.062C259.805 138.77 260.612 138.9 261.151 139.438L263.846 142.134C265.482 141.021 266.895 139.608 268.008 137.972L265.314 135.276C264.776 134.739 264.647 133.934 264.938 133.231C264.941 133.223 264.945 133.215 264.948 133.207C265.237 132.503 265.899 132.025 266.66 132.025H270.472V132.022ZM255.459 132.226C253.305 132.555 251.478 130.727 251.807 128.575C252.012 127.232 253.109 126.136 254.45 125.93C256.604 125.6 258.433 127.429 258.102 129.582C257.897 130.923 256.801 132.021 255.459 132.226Z" fill="#E6EAF0"/>
<path d="M102.602 266V252.494H108.449C109.658 252.494 110.7 252.694 111.574 253.092C112.449 253.478 113.124 254.038 113.6 254.771C114.076 255.504 114.314 256.379 114.314 257.395C114.314 258.398 114.076 259.267 113.6 260C113.124 260.72 112.449 261.273 111.574 261.659C110.7 262.045 109.658 262.238 108.449 262.238H104.339L105.728 260.868V266H102.602ZM111.189 266L107.812 261.1H111.15L114.565 266H111.189ZM105.728 261.215L104.339 259.749H108.275C109.24 259.749 109.96 259.543 110.436 259.132C110.912 258.707 111.15 258.128 111.15 257.395C111.15 256.649 110.912 256.07 110.436 255.659C109.96 255.247 109.24 255.041 108.275 255.041H104.339L105.728 253.555V261.215ZM121.73 266.155C120.547 266.155 119.505 265.923 118.604 265.46C117.717 264.997 117.029 264.367 116.54 263.569C116.051 262.759 115.807 261.839 115.807 260.81C115.807 259.768 116.045 258.849 116.521 258.051C117.009 257.241 117.672 256.61 118.508 256.16C119.344 255.697 120.289 255.466 121.344 255.466C122.36 255.466 123.274 255.684 124.084 256.122C124.907 256.546 125.557 257.164 126.033 257.974C126.509 258.771 126.747 259.73 126.747 260.849C126.747 260.965 126.74 261.1 126.727 261.254C126.715 261.396 126.702 261.531 126.689 261.659H118.257V259.903H125.107L123.949 260.424C123.949 259.884 123.84 259.415 123.621 259.016C123.402 258.617 123.1 258.308 122.714 258.09C122.328 257.858 121.878 257.742 121.364 257.742C120.849 257.742 120.392 257.858 119.994 258.09C119.608 258.308 119.305 258.624 119.087 259.035C118.868 259.434 118.759 259.91 118.759 260.463V260.926C118.759 261.492 118.881 261.994 119.125 262.431C119.383 262.855 119.736 263.183 120.187 263.415C120.65 263.634 121.19 263.743 121.807 263.743C122.36 263.743 122.843 263.659 123.254 263.492C123.679 263.325 124.065 263.074 124.412 262.74L126.014 264.476C125.538 265.016 124.939 265.435 124.219 265.73C123.499 266.013 122.669 266.155 121.73 266.155ZM134.835 266V263.975L134.642 263.531V259.903C134.642 259.26 134.443 258.759 134.044 258.398C133.658 258.038 133.06 257.858 132.25 257.858C131.697 257.858 131.15 257.948 130.61 258.128C130.082 258.296 129.632 258.527 129.259 258.823L128.179 256.72C128.745 256.321 129.426 256.012 130.224 255.794C131.021 255.575 131.832 255.466 132.655 255.466C134.237 255.466 135.466 255.839 136.34 256.585C137.215 257.331 137.652 258.495 137.652 260.077V266H134.835ZM131.671 266.155C130.861 266.155 130.166 266.02 129.587 265.75C129.008 265.467 128.565 265.087 128.256 264.611C127.947 264.135 127.793 263.602 127.793 263.01C127.793 262.392 127.941 261.852 128.237 261.389C128.545 260.926 129.028 260.566 129.684 260.309C130.34 260.038 131.195 259.903 132.25 259.903H135.009V261.659H132.578C131.87 261.659 131.382 261.775 131.111 262.007C130.854 262.238 130.726 262.527 130.726 262.875C130.726 263.261 130.873 263.569 131.169 263.801C131.478 264.02 131.896 264.129 132.423 264.129C132.925 264.129 133.375 264.013 133.774 263.782C134.173 263.537 134.462 263.183 134.642 262.72L135.105 264.11C134.887 264.778 134.488 265.287 133.909 265.634C133.33 265.981 132.584 266.155 131.671 266.155ZM145.468 266.155C144.349 266.155 143.352 265.93 142.478 265.48C141.603 265.016 140.915 264.38 140.413 263.569C139.924 262.759 139.68 261.839 139.68 260.81C139.68 259.768 139.924 258.849 140.413 258.051C140.915 257.241 141.603 256.61 142.478 256.16C143.352 255.697 144.349 255.466 145.468 255.466C146.562 255.466 147.514 255.697 148.324 256.16C149.134 256.61 149.733 257.26 150.118 258.109L147.784 259.363C147.514 258.874 147.173 258.514 146.761 258.283C146.362 258.051 145.925 257.935 145.449 257.935C144.935 257.935 144.472 258.051 144.06 258.283C143.648 258.514 143.32 258.842 143.076 259.267C142.844 259.691 142.729 260.206 142.729 260.81C142.729 261.415 142.844 261.929 143.076 262.354C143.32 262.778 143.648 263.106 144.06 263.338C144.472 263.569 144.935 263.685 145.449 263.685C145.925 263.685 146.362 263.576 146.761 263.357C147.173 263.126 147.514 262.759 147.784 262.257L150.118 263.531C149.733 264.367 149.134 265.016 148.324 265.48C147.514 265.93 146.562 266.155 145.468 266.155ZM156.247 266.155C155.025 266.155 154.073 265.846 153.391 265.229C152.71 264.598 152.369 263.666 152.369 262.431V253.324H155.379V262.392C155.379 262.83 155.495 263.171 155.726 263.415C155.958 263.647 156.273 263.762 156.671 263.762C157.147 263.762 157.553 263.634 157.887 263.376L158.697 265.499C158.389 265.718 158.016 265.885 157.578 266C157.154 266.103 156.71 266.155 156.247 266.155ZM150.767 258.167V255.852H157.964V258.167H150.767Z" fill="black"/>
</svg>
