<svg width="41" height="41" viewBox="0 0 41 41" fill="none" xmlns="http://www.w3.org/2000/svg">
<g clip-path="url(#clip0_532_410)">
<path d="M6.75 8H1.75C1.41848 8 1.10054 7.8683 0.866117 7.63388C0.631696 7.39946 0.5 7.08152 0.5 6.75V1.75C0.5 1.41848 0.631696 1.10054 0.866117 0.866117C1.10054 0.631696 1.41848 0.5 1.75 0.5L6.75 0.5C7.08152 0.5 7.39946 0.631696 7.63388 0.866117C7.8683 1.10054 8 1.41848 8 1.75V6.75C8 7.08152 7.8683 7.39946 7.63388 7.63388C7.39946 7.8683 7.08152 8 6.75 8ZM3 5.5H5.5V3H3V5.5ZM39.25 8H34.25C33.9185 8 33.6005 7.8683 33.3661 7.63388C33.1317 7.39946 33 7.08152 33 6.75V1.75C33 1.41848 33.1317 1.10054 33.3661 0.866117C33.6005 0.631696 33.9185 0.5 34.25 0.5L39.25 0.5C39.5815 0.5 39.8995 0.631696 40.1339 0.866117C40.3683 1.10054 40.5 1.41848 40.5 1.75V6.75C40.5 7.08152 40.3683 7.39946 40.1339 7.63388C39.8995 7.8683 39.5815 8 39.25 8ZM35.5 5.5H38V3H35.5V5.5ZM6.75 40.5H1.75C1.41848 40.5 1.10054 40.3683 0.866117 40.1339C0.631696 39.8995 0.5 39.5815 0.5 39.25V34.25C0.5 33.9185 0.631696 33.6005 0.866117 33.3661C1.10054 33.1317 1.41848 33 1.75 33H6.75C7.08152 33 7.39946 33.1317 7.63388 33.3661C7.8683 33.6005 8 33.9185 8 34.25V39.25C8 39.5815 7.8683 39.8995 7.63388 40.1339C7.39946 40.3683 7.08152 40.5 6.75 40.5ZM3 38H5.5V35.5H3V38ZM39.25 40.5H34.25C33.9185 40.5 33.6005 40.3683 33.3661 40.1339C33.1317 39.8995 33 39.5815 33 39.25V34.25C33 33.9185 33.1317 33.6005 33.3661 33.3661C33.6005 33.1317 33.9185 33 34.25 33H39.25C39.5815 33 39.8995 33.1317 40.1339 33.3661C40.3683 33.6005 40.5 33.9185 40.5 34.25V39.25C40.5 39.5815 40.3683 39.8995 40.1339 40.1339C39.8995 40.3683 39.5815 40.5 39.25 40.5ZM35.5 38H38V35.5H35.5V38ZM4.25 23C3.91848 23 3.60054 22.8683 3.36612 22.6339C3.1317 22.3995 3 22.0815 3 21.75V19.25C3 18.9185 3.1317 18.6005 3.36612 18.3661C3.60054 18.1317 3.91848 18 4.25 18C4.58152 18 4.89946 18.1317 5.13388 18.3661C5.3683 18.6005 5.5 18.9185 5.5 19.25V21.75C5.5 22.0815 5.3683 22.3995 5.13388 22.6339C4.89946 22.8683 4.58152 23 4.25 23ZM4.25 15.5C3.91848 15.5 3.60054 15.3683 3.36612 15.1339C3.1317 14.8995 3 14.5815 3 14.25V11.75C3 11.4185 3.1317 11.1005 3.36612 10.8661C3.60054 10.6317 3.91848 10.5 4.25 10.5C4.58152 10.5 4.89946 10.6317 5.13388 10.8661C5.3683 11.1005 5.5 11.4185 5.5 11.75V14.25C5.5 14.5815 5.3683 14.8995 5.13388 15.1339C4.89946 15.3683 4.58152 15.5 4.25 15.5ZM4.25 30.5C3.91848 30.5 3.60054 30.3683 3.36612 30.1339C3.1317 29.8995 3 29.5815 3 29.25V26.75C3 26.4185 3.1317 26.1005 3.36612 25.8661C3.60054 25.6317 3.91848 25.5 4.25 25.5C4.58152 25.5 4.89946 25.6317 5.13388 25.8661C5.3683 26.1005 5.5 26.4185 5.5 26.75V29.25C5.5 29.5815 5.3683 29.8995 5.13388 30.1339C4.89946 30.3683 4.58152 30.5 4.25 30.5ZM21.75 38H19.25C18.9185 38 18.6005 37.8683 18.3661 37.6339C18.1317 37.3995 18 37.0815 18 36.75C18 36.4185 18.1317 36.1005 18.3661 35.8661C18.6005 35.6317 18.9185 35.5 19.25 35.5H21.75C22.0815 35.5 22.3995 35.6317 22.6339 35.8661C22.8683 36.1005 23 36.4185 23 36.75C23 37.0815 22.8683 37.3995 22.6339 37.6339C22.3995 37.8683 22.0815 38 21.75 38ZM14.25 38H11.75C11.4185 38 11.1005 37.8683 10.8661 37.6339C10.6317 37.3995 10.5 37.0815 10.5 36.75C10.5 36.4185 10.6317 36.1005 10.8661 35.8661C11.1005 35.6317 11.4185 35.5 11.75 35.5H14.25C14.5815 35.5 14.8995 35.6317 15.1339 35.8661C15.3683 36.1005 15.5 36.4185 15.5 36.75C15.5 37.0815 15.3683 37.3995 15.1339 37.6339C14.8995 37.8683 14.5815 38 14.25 38ZM29.25 38H26.75C26.4185 38 26.1005 37.8683 25.8661 37.6339C25.6317 37.3995 25.5 37.0815 25.5 36.75C25.5 36.4185 25.6317 36.1005 25.8661 35.8661C26.1005 35.6317 26.4185 35.5 26.75 35.5H29.25C29.5815 35.5 29.8995 35.6317 30.1339 35.8661C30.3683 36.1005 30.5 36.4185 30.5 36.75C30.5 37.0815 30.3683 37.3995 30.1339 37.6339C29.8995 37.8683 29.5815 38 29.25 38ZM36.75 23C36.4185 23 36.1005 22.8683 35.8661 22.6339C35.6317 22.3995 35.5 22.0815 35.5 21.75V19.25C35.5 18.9185 35.6317 18.6005 35.8661 18.3661C36.1005 18.1317 36.4185 18 36.75 18C37.0815 18 37.3995 18.1317 37.6339 18.3661C37.8683 18.6005 38 18.9185 38 19.25V21.75C38 22.0815 37.8683 22.3995 37.6339 22.6339C37.3995 22.8683 37.0815 23 36.75 23ZM36.75 30.5C36.4185 30.5 36.1005 30.3683 35.8661 30.1339C35.6317 29.8995 35.5 29.5815 35.5 29.25V26.75C35.5 26.4185 35.6317 26.1005 35.8661 25.8661C36.1005 25.6317 36.4185 25.5 36.75 25.5C37.0815 25.5 37.3995 25.6317 37.6339 25.8661C37.8683 26.1005 38 26.4185 38 26.75V29.25C38 29.5815 37.8683 29.8995 37.6339 30.1339C37.3995 30.3683 37.0815 30.5 36.75 30.5ZM36.75 15.5C36.4185 15.5 36.1005 15.3683 35.8661 15.1339C35.6317 14.8995 35.5 14.5815 35.5 14.25V11.75C35.5 11.4185 35.6317 11.1005 35.8661 10.8661C36.1005 10.6317 36.4185 10.5 36.75 10.5C37.0815 10.5 37.3995 10.6317 37.6339 10.8661C37.8683 11.1005 38 11.4185 38 11.75V14.25C38 14.5815 37.8683 14.8995 37.6339 15.1339C37.3995 15.3683 37.0815 15.5 36.75 15.5ZM21.75 5.5H19.25C18.9185 5.5 18.6005 5.3683 18.3661 5.13388C18.1317 4.89946 18 4.58152 18 4.25C18 3.91848 18.1317 3.60054 18.3661 3.36612C18.6005 3.1317 18.9185 3 19.25 3H21.75C22.0815 3 22.3995 3.1317 22.6339 3.36612C22.8683 3.60054 23 3.91848 23 4.25C23 4.58152 22.8683 4.89946 22.6339 5.13388C22.3995 5.3683 22.0815 5.5 21.75 5.5ZM29.25 5.5H26.75C26.4185 5.5 26.1005 5.3683 25.8661 5.13388C25.6317 4.89946 25.5 4.58152 25.5 4.25C25.5 3.91848 25.6317 3.60054 25.8661 3.36612C26.1005 3.1317 26.4185 3 26.75 3H29.25C29.5815 3 29.8995 3.1317 30.1339 3.36612C30.3683 3.60054 30.5 3.91848 30.5 4.25C30.5 4.58152 30.3683 4.89946 30.1339 5.13388C29.8995 5.3683 29.5815 5.5 29.25 5.5ZM14.25 5.5H11.75C11.4185 5.5 11.1005 5.3683 10.8661 5.13388C10.6317 4.89946 10.5 4.58152 10.5 4.25C10.5 3.91848 10.6317 3.60054 10.8661 3.36612C11.1005 3.1317 11.4185 3 11.75 3H14.25C14.5815 3 14.8995 3.1317 15.1339 3.36612C15.3683 3.60054 15.5 3.91848 15.5 4.25C15.5 4.58152 15.3683 4.89946 15.1339 5.13388C14.8995 5.3683 14.5815 5.5 14.25 5.5Z" fill="#65FF00"/>
<path d="M23 31.75H10.5C10.1685 31.75 9.85054 31.6183 9.61612 31.3839C9.3817 31.1495 9.25 30.8315 9.25 30.5V18C9.25 17.6685 9.3817 17.3505 9.61612 17.1161C9.85054 16.8817 10.1685 16.75 10.5 16.75H23C23.3315 16.75 23.6495 16.8817 23.8839 17.1161C24.1183 17.3505 24.25 17.6685 24.25 18V30.5C24.25 30.8315 24.1183 31.1495 23.8839 31.3839C23.6495 31.6183 23.3315 31.75 23 31.75ZM11.75 29.25H21.75V19.25H11.75V29.25Z" fill="#65FF00"/>
<path d="M21.7497 28.075C21.7033 27.7468 21.7892 27.4136 21.9885 27.1487C22.1877 26.8839 22.484 26.709 22.8122 26.6625C24.1907 26.4651 25.4871 25.8877 26.5561 24.9951C27.625 24.1025 28.4243 22.9299 28.8645 21.6087C29.3046 20.2875 29.3682 18.8698 29.0482 17.5145C28.7281 16.1591 28.037 14.9197 27.0522 13.9349C26.0675 12.9502 24.8281 12.2591 23.4727 11.939C22.1174 11.6189 20.6997 11.6825 19.3785 12.1227C18.0572 12.5629 16.8847 13.3622 15.9921 14.4311C15.0995 15.5001 14.5221 16.7964 14.3247 18.175C14.3017 18.3391 14.2466 18.4972 14.1626 18.64C14.0785 18.7829 13.9672 18.9078 13.8348 19.0076C13.7025 19.1074 13.5518 19.1802 13.3914 19.2218C13.2309 19.2634 13.0638 19.273 12.8997 19.25C12.7355 19.227 12.5775 19.1719 12.4347 19.0879C12.2918 19.0038 12.1669 18.8925 12.0671 18.7601C11.9672 18.6278 11.8945 18.4771 11.8529 18.3167C11.8113 18.1562 11.8017 17.9891 11.8247 17.825C12.0871 15.9864 12.8563 14.2572 14.0462 12.8311C15.2361 11.4051 16.7995 10.3386 18.5614 9.75119C20.3233 9.16375 22.214 9.07858 24.0216 9.50522C25.8291 9.93186 27.4822 10.8535 28.7955 12.1667C30.1087 13.48 31.0303 15.133 31.457 16.9406C31.8836 18.7482 31.7984 20.6389 31.211 22.4007C30.6236 24.1626 29.5571 25.7261 28.131 26.916C26.705 28.1059 24.9758 28.8751 23.1372 29.1375C22.813 29.1768 22.4862 29.0876 22.2269 28.889C21.9676 28.6904 21.7963 28.3983 21.7497 28.075Z" fill="#65FF00"/>
</g>
<defs>
<clipPath id="clip0_532_410">
<rect width="40" height="40" fill="white" transform="translate(0.5 0.5)"/>
</clipPath>
</defs>
</svg>
