<svg width="41" height="41" viewBox="0 0 41 41" fill="none" xmlns="http://www.w3.org/2000/svg">
<g clip-path="url(#clip0_532_411)">
<path d="M34.7 15.7673C35.8376 14.6531 36.5 13.1312 36.5 11.5C36.5 8.19172 33.8086 5.5 30.5 5.5C29.4069 5.5 28.3314 5.80047 27.3887 6.36914C27.2373 6.46055 27.1284 6.60831 27.086 6.77995C27.0435 6.95159 27.0709 7.13307 27.1621 7.28453C27.3522 7.6 27.7623 7.70055 28.0775 7.51109C28.8125 7.06773 29.6498 6.83336 30.5 6.83336C33.0729 6.83336 35.1666 8.9268 35.1666 11.5C35.1666 13.0846 34.373 14.5452 33.041 15.4091C31.9225 16.1429 30.5045 16.3545 29.2096 15.9856C28.8594 15.8847 28.487 16.0891 28.3854 16.4433C28.3369 16.6134 28.358 16.7957 28.4439 16.9503C28.5299 17.1048 28.6737 17.2189 28.8438 17.2675C29.3823 17.4217 29.9398 17.4999 30.5 17.4999C31.5483 17.4999 32.5616 17.214 33.4612 16.6976C36.8835 17.9377 39.1666 21.1688 39.1666 24.8333V28.1666H33.0876C32.6154 23.7138 29.814 19.8173 25.7278 17.967C27.0281 16.6431 27.8333 14.8313 27.8333 12.8334C27.8334 8.78969 24.5436 5.5 20.5 5.5C16.4564 5.5 13.1666 8.78969 13.1666 12.8334C13.1666 14.8319 13.9723 16.6443 15.2733 17.9684C13.8981 18.5931 12.6227 19.4672 11.541 20.5427C9.46734 22.6223 8.20547 25.2915 7.90594 28.1668H1.83336V24.8334C1.83336 22.5248 2.73508 20.3481 4.36984 18.7065C5.26977 17.8123 6.36539 17.1301 7.54508 16.7013C8.44484 17.2156 9.45508 17.5 10.5 17.5C11.0599 17.5 11.6172 17.4219 12.1562 17.2676C12.3263 17.219 12.4701 17.1049 12.556 16.9503C12.642 16.7958 12.663 16.6134 12.6146 16.4434C12.513 16.0892 12.1406 15.8851 11.7904 15.9857C10.4961 16.3552 9.07883 16.1439 7.95578 15.4076C6.62703 14.5452 5.83336 13.0847 5.83336 11.5C5.83336 8.9268 7.92711 6.83336 10.5 6.83336C11.3502 6.83336 12.1875 7.06773 12.9225 7.51109C13.074 7.60209 13.2554 7.62933 13.427 7.58687C13.5986 7.54441 13.7463 7.43569 13.8379 7.28453C14.028 6.96914 13.9264 6.55961 13.6113 6.36914C12.6686 5.80047 11.5931 5.5 10.5 5.5C7.19141 5.5 4.5 8.19172 4.5 11.5C4.5 13.1299 5.16133 14.6507 6.29562 15.7638C5.23106 16.2594 4.2605 16.9358 3.42711 17.763C1.53969 19.6588 0.5 22.1696 0.5 24.8334V28.8334C0.499969 28.9209 0.517191 29.0076 0.550682 29.0885C0.584173 29.1694 0.633276 29.2429 0.695186 29.3048C0.757095 29.3667 0.830597 29.4158 0.911492 29.4493C0.992386 29.4828 1.07909 29.5 1.16664 29.5H7.83328V34.8334C7.83325 34.9209 7.85047 35.0076 7.88396 35.0885C7.91745 35.1694 7.96656 35.2429 8.02847 35.3048C8.09038 35.3667 8.16388 35.4158 8.24477 35.4493C8.32567 35.4828 8.41237 35.5 8.49992 35.5H32.4999C32.5875 35.5 32.6742 35.4828 32.7551 35.4493C32.836 35.4158 32.9095 35.3667 32.9714 35.3048C33.0333 35.2429 33.0824 35.1694 33.1159 35.0885C33.1494 35.0076 33.1666 34.9209 33.1666 34.8334V29.5H39.8332C39.9208 29.5 40.0075 29.4828 40.0884 29.4493C40.1692 29.4158 40.2427 29.3667 40.3047 29.3048C40.3666 29.2429 40.4157 29.1694 40.4492 29.0885C40.4827 29.0076 40.4999 28.9209 40.4998 28.8334V24.8334C40.5 20.8916 38.2092 17.385 34.7 15.7673ZM14.5 12.8334C14.5 9.52508 17.1914 6.83336 20.5 6.83336C23.8086 6.83336 26.5 9.52508 26.5 12.8334C26.5 16.1416 23.8086 18.8334 20.5 18.8334C17.1914 18.8334 14.5 16.1416 14.5 12.8334ZM31.8334 34.1666H9.16664V29.5C9.16664 26.4772 10.345 23.6305 12.483 21.486C13.6094 20.3657 14.9748 19.4967 16.4388 18.9345C17.6025 19.7116 18.9988 20.1666 20.5 20.1666C22.0037 20.1666 23.4024 19.7103 24.5672 18.9309C28.9248 20.6052 31.8334 24.8063 31.8334 29.5V34.1666Z" fill="#65FF00"/>
</g>
<defs>
<clipPath id="clip0_532_411">
<rect width="40" height="40" fill="white" transform="translate(0.5 0.5)"/>
</clipPath>
</defs>
</svg>
