<svg width="41" height="41" viewBox="0 0 41 41" fill="none" xmlns="http://www.w3.org/2000/svg">
<path d="M5.29703 12.596V5.92195C5.29703 5.75619 5.36288 5.59722 5.48009 5.48001C5.5973 5.3628 5.75627 5.29695 5.92203 5.29695H12.596C12.7618 5.29695 12.9207 5.3628 13.038 5.48001C13.1552 5.59722 13.221 5.75619 13.221 5.92195C13.221 6.08771 13.1552 6.24668 13.038 6.36389C12.9207 6.4811 12.7618 6.54695 12.596 6.54695H6.54703V12.596C6.54703 12.7618 6.48118 12.9207 6.36397 13.038C6.24676 13.1552 6.08779 13.221 5.92203 13.221C5.75627 13.221 5.5973 13.1552 5.48009 13.038C5.36288 12.9207 5.29703 12.7618 5.29703 12.596ZM28.404 6.54695H34.453V12.596C34.453 12.7618 34.5188 12.9207 34.636 13.038C34.7532 13.1552 34.9122 13.221 35.078 13.221C35.2437 13.221 35.4027 13.1552 35.5199 13.038C35.6371 12.9207 35.703 12.7618 35.703 12.596V5.92195C35.703 5.75619 35.6371 5.59722 35.5199 5.48001C35.4027 5.3628 35.2437 5.29695 35.078 5.29695H28.404C28.2382 5.29695 28.0793 5.3628 27.962 5.48001C27.8448 5.59722 27.779 5.75619 27.779 5.92195C27.779 6.08771 27.8448 6.24668 27.962 6.36389C28.0793 6.4811 28.2382 6.54695 28.404 6.54695ZM35.078 27.7789C34.9122 27.7789 34.7532 27.8448 34.636 27.962C34.5188 28.0792 34.453 28.2381 34.453 28.4039V34.453H28.404C28.2382 34.453 28.0793 34.5188 27.962 34.636C27.8448 34.7532 27.779 34.9122 27.779 35.078C27.779 35.2437 27.8448 35.4027 27.962 35.5199C28.0793 35.6371 28.2382 35.703 28.404 35.703H35.078C35.2437 35.703 35.4027 35.6371 35.5199 35.5199C35.6371 35.4027 35.703 35.2437 35.703 35.078V28.4039C35.703 28.2381 35.6371 28.0792 35.5199 27.962C35.4027 27.8448 35.2437 27.7789 35.078 27.7789ZM12.596 34.453H6.54703V28.4039C6.54703 28.2381 6.48118 28.0792 6.36397 27.962C6.24676 27.8448 6.08779 27.7789 5.92203 27.7789C5.75627 27.7789 5.5973 27.8448 5.48009 27.962C5.36288 28.0792 5.29703 28.2381 5.29703 28.4039V35.078C5.29703 35.2437 5.36288 35.4027 5.48009 35.5199C5.5973 35.6371 5.75627 35.703 5.92203 35.703H12.596C12.7618 35.703 12.9207 35.6371 13.038 35.5199C13.1552 35.4027 13.221 35.2437 13.221 35.078C13.221 34.9122 13.1552 34.7532 13.038 34.636C12.9207 34.5188 12.7618 34.453 12.596 34.453ZM14.7075 20.5C14.7075 17.3059 17.306 14.7074 20.5 14.7074C23.694 14.7074 26.2926 17.3059 26.2926 20.5C26.2926 23.694 23.6941 26.2925 20.5 26.2925C17.3059 26.2925 14.7075 23.694 14.7075 20.5ZM15.9575 20.5C15.9575 23.0048 17.9952 25.0425 20.5 25.0425C23.0048 25.0425 25.0426 23.0048 25.0426 20.5C25.0426 17.9952 23.0048 15.9574 20.5 15.9574C17.9953 15.9574 15.9575 17.9952 15.9575 20.5ZM18.1706 22.5778V18.4223C18.1706 18.0763 18.3495 17.7665 18.6491 17.5934C18.949 17.4204 19.3068 17.4204 19.6063 17.5933L23.2053 19.6712C23.5051 19.8444 23.6839 20.1542 23.6839 20.5001C23.6839 20.8459 23.5051 21.1559 23.2055 21.3289L23.2053 21.329L19.6065 23.4068C19.4566 23.4933 19.2923 23.5366 19.1279 23.5366C18.9635 23.5366 18.7992 23.4933 18.6495 23.4069C18.3495 23.2335 18.1706 22.9237 18.1706 22.5778ZM19.4206 22.0706L22.1411 20.5L19.4206 18.9294V22.0706ZM28.3225 12.0525C28.4883 12.0525 28.6472 12.1183 28.7644 12.2356C28.8817 12.3528 28.9475 12.5117 28.9475 12.6775V28.3225C28.9475 28.4883 28.8817 28.6472 28.7644 28.7644C28.6472 28.8817 28.4883 28.9475 28.3225 28.9475H12.6775C12.5117 28.9475 12.3528 28.8817 12.2356 28.7644C12.1183 28.6472 12.0525 28.4883 12.0525 28.3225V12.6775C12.0525 12.5117 12.1183 12.3528 12.2356 12.2356C12.3528 12.1183 12.5117 12.0525 12.6775 12.0525H28.3225ZM27.6975 13.3025H13.3025V27.6975H27.6975V13.3025ZM20.0074 10.7054C20.0659 10.7802 20.1406 10.8408 20.226 10.8824C20.3113 10.9241 20.405 10.9457 20.5 10.9457C20.595 10.9457 20.6887 10.9241 20.774 10.8824C20.8594 10.8408 20.9341 10.7802 20.9926 10.7054L22.6038 8.64211C22.705 8.5114 22.7503 8.34593 22.7297 8.18192C22.7092 8.01791 22.6245 7.86871 22.4943 7.76697C22.364 7.66523 22.1987 7.61924 22.0346 7.63906C21.8705 7.65889 21.721 7.7429 21.6187 7.87273L21.125 8.50492V1.75C21.125 1.58424 21.0592 1.42527 20.9419 1.30806C20.8247 1.19085 20.6658 1.125 20.5 1.125C20.3342 1.125 20.1753 1.19085 20.0581 1.30806C19.9408 1.42527 19.875 1.58424 19.875 1.75V8.50484L19.3814 7.87273C19.3309 7.80802 19.2682 7.7539 19.1967 7.71345C19.1253 7.673 19.0466 7.64703 18.9651 7.63701C18.8837 7.62699 18.801 7.63312 18.7219 7.65506C18.6428 7.67699 18.5688 7.7143 18.5041 7.76484C18.3735 7.86687 18.2887 8.01661 18.2685 8.18113C18.2483 8.34565 18.2942 8.51147 18.3962 8.64211L20.0074 10.7054ZM39.25 19.8749H32.4952L33.1273 19.3813C33.2579 19.2793 33.3427 19.1296 33.3629 18.965C33.3831 18.8005 33.3372 18.6347 33.2352 18.5041C33.1847 18.4394 33.1219 18.3852 33.0505 18.3448C32.979 18.3044 32.9004 18.2784 32.8189 18.2684C32.7374 18.2583 32.6548 18.2645 32.5757 18.2864C32.4966 18.3083 32.4226 18.3456 32.3579 18.3961L30.2946 20.0073C30.2198 20.0658 30.1593 20.1406 30.1177 20.226C30.076 20.3113 30.0544 20.405 30.0544 20.5C30.0544 20.595 30.076 20.6887 30.1177 20.774C30.1593 20.8594 30.2198 20.9342 30.2946 20.9927L32.3579 22.6039C32.4675 22.6898 32.6028 22.7364 32.7421 22.7362C32.8723 22.7363 32.9992 22.6958 33.1053 22.6203C33.2113 22.5447 33.291 22.438 33.3335 22.3149C33.3759 22.1918 33.3788 22.0586 33.3418 21.9338C33.3049 21.809 33.2299 21.6988 33.1273 21.6187L32.495 21.1249H39.25C39.4158 21.1249 39.5747 21.0591 39.6919 20.9419C39.8092 20.8247 39.875 20.6657 39.875 20.4999C39.875 20.3342 39.8092 20.1752 39.6919 20.058C39.5747 19.9408 39.4158 19.8749 39.25 19.8749ZM20.9926 30.2946C20.9341 30.2198 20.8594 30.1592 20.774 30.1176C20.6887 30.0759 20.595 30.0543 20.5 30.0543C20.405 30.0543 20.3113 30.0759 20.226 30.1176C20.1406 30.1592 20.0659 30.2198 20.0074 30.2946L18.3962 32.3579C18.2941 32.4885 18.2482 32.6544 18.2684 32.8189C18.2887 32.9834 18.3734 33.1331 18.5041 33.2352C18.5687 33.2857 18.6427 33.323 18.7218 33.3449C18.8009 33.3668 18.8836 33.373 18.965 33.363C19.0465 33.3529 19.1252 33.327 19.1966 33.2865C19.2681 33.2461 19.3308 33.192 19.3813 33.1273L19.875 32.4951V39.25C19.875 39.4158 19.9408 39.5747 20.0581 39.6919C20.1753 39.8092 20.3342 39.875 20.5 39.875C20.6658 39.875 20.8247 39.8092 20.9419 39.6919C21.0592 39.5747 21.125 39.4158 21.125 39.25V32.4952L21.6187 33.1273C21.6771 33.2022 21.7519 33.2629 21.8374 33.3045C21.9228 33.3462 22.0167 33.3677 22.1117 33.3676C22.251 33.3677 22.3863 33.3211 22.4959 33.2352C22.6266 33.1331 22.7113 32.9834 22.7316 32.8189C22.7518 32.6544 22.7059 32.4885 22.6038 32.3579L20.9926 30.2946ZM7.87273 21.6187C7.77014 21.6988 7.69513 21.809 7.65816 21.9338C7.6212 22.0586 7.62412 22.1918 7.66654 22.3149C7.70895 22.438 7.78873 22.5447 7.89475 22.6203C8.00076 22.6958 8.12772 22.7363 8.25789 22.7362C8.39718 22.7364 8.53248 22.6898 8.64211 22.6038L10.7054 20.9925C10.7802 20.934 10.8408 20.8593 10.8825 20.7739C10.9241 20.6886 10.9457 20.5949 10.9457 20.4999C10.9457 20.4049 10.9241 20.3112 10.8825 20.2258C10.8408 20.1405 10.7802 20.0657 10.7054 20.0073L8.64211 18.396C8.51146 18.294 8.34563 18.248 8.1811 18.2683C8.01658 18.2885 7.86683 18.3733 7.7648 18.5039C7.66278 18.6346 7.61683 18.8004 7.63707 18.965C7.65731 19.1295 7.74208 19.2792 7.87273 19.3812L8.505 19.875H1.75C1.58424 19.875 1.42527 19.9408 1.30806 20.0581C1.19085 20.1753 1.125 20.3342 1.125 20.5C1.125 20.6658 1.19085 20.8247 1.30806 20.9419C1.42527 21.0592 1.58424 21.125 1.75 21.125H8.50492L7.87273 21.6187Z" fill="#65FF00"/>
</svg>
