<svg width="41" height="41" viewBox="0 0 41 41" fill="none" xmlns="http://www.w3.org/2000/svg">
<g clip-path="url(#clip0_532_413)">
<path d="M40.1525 29.603L36.0525 27.553L33.4432 20.7655C33.4124 20.6853 33.3655 20.6122 33.3053 20.5509C33.2451 20.4896 33.1729 20.4414 33.0932 20.4093L16.9025 13.9374C16.7893 13.8923 16.6654 13.8813 16.5461 13.9058C16.4267 13.9302 16.3171 13.989 16.2307 14.0749L14.0713 16.2343C13.9865 16.3207 13.9287 16.43 13.9048 16.5487C13.881 16.6674 13.8921 16.7905 13.9369 16.903L20.4088 33.0936C20.4409 33.1733 20.4891 33.2456 20.5504 33.3058C20.6117 33.366 20.6848 33.4129 20.765 33.4436L27.5525 36.053L29.6025 40.153C29.6457 40.2434 29.71 40.3221 29.7899 40.3825C29.8699 40.4429 29.9631 40.4831 30.0619 40.4999C30.0952 40.503 30.1287 40.503 30.1619 40.4999C30.3274 40.4992 30.4859 40.4329 30.6025 40.3155L40.315 30.603C40.3865 30.534 40.4405 30.449 40.4726 30.355C40.5047 30.261 40.5139 30.1607 40.4994 30.0624C40.4826 29.9636 40.4424 29.8703 40.382 29.7904C40.3216 29.7104 40.2429 29.6462 40.1525 29.603ZM15.2463 16.8218L15.5932 16.478L23.6525 24.5374C23.1214 25.29 22.892 26.2146 23.0097 27.1282C23.1274 28.0418 23.5837 28.878 24.2882 29.4714C24.9928 30.0648 25.8944 30.3723 26.8147 30.3329C27.7351 30.2936 28.6071 29.9104 29.2585 29.259C29.9099 28.6076 30.2931 27.7356 30.3325 26.8152C30.3718 25.8949 30.0644 24.9933 29.4709 24.2887C28.8775 23.5842 28.0413 23.1279 27.1277 23.0102C26.2141 22.8925 25.2895 23.1219 24.5369 23.653L16.4775 15.5936L16.8213 15.2468L32.3744 21.4686L34.8275 27.8499L27.8494 34.828L21.4682 32.3749L15.2463 16.8218ZM26.6557 24.228C27.2174 24.2289 27.7614 24.4244 28.1951 24.7814C28.6288 25.1384 28.9253 25.6346 29.0342 26.1857C29.143 26.7368 29.0574 27.3085 28.792 27.8036C28.5265 28.2986 28.0976 28.6863 27.5784 28.9006C27.0592 29.1149 26.4817 29.1426 25.9444 28.9789C25.4071 28.8151 24.9431 28.4702 24.6316 28.0028C24.32 27.5354 24.1802 26.9744 24.2359 26.4155C24.2916 25.8565 24.5393 25.3342 24.9369 24.9374C25.3932 24.4825 26.0114 24.2274 26.6557 24.228ZM30.3338 38.8186L28.7713 35.6936L35.6869 28.778L38.8119 30.3405L30.3338 38.8186Z" fill="#65FF00"/>
<path d="M12.4526 33.9374C12.3331 33.8245 12.1749 33.7615 12.0104 33.7615C11.846 33.7615 11.6877 33.8245 11.5682 33.9374L10.7745 34.7312C8.65629 31.8563 7.48776 28.3923 7.43174 24.8218C7.37573 21.2513 8.43502 17.7523 10.462 14.8124C11.0693 15.1466 11.7685 15.275 12.4548 15.1783C13.1412 15.0816 13.7778 14.7651 14.2691 14.2762C14.7605 13.7873 15.0802 13.1524 15.1803 12.4665C15.2804 11.7806 15.1556 11.0808 14.8245 10.4718C17.7644 8.44484 21.2634 7.38555 24.8338 7.44157C28.4043 7.49759 31.8684 8.66612 34.7432 10.7843L33.937 11.5687C33.8208 11.6859 33.7556 11.8443 33.7557 12.0093C33.7553 12.0916 33.771 12.1731 33.8021 12.2492C33.8332 12.3254 33.8791 12.3947 33.937 12.4531L36.6932 15.1874C36.8103 15.3038 36.9687 15.3692 37.1339 15.3692C37.299 15.3692 37.4574 15.3038 37.5745 15.1874L40.3151 12.4468C40.3732 12.3888 40.4193 12.3198 40.4508 12.244C40.4822 12.1681 40.4984 12.0868 40.4984 12.0046C40.4984 11.9225 40.4822 11.8412 40.4508 11.7653C40.4193 11.6894 40.3732 11.6205 40.3151 11.5624L37.5745 8.82181C37.4574 8.7054 37.299 8.64006 37.1339 8.64006C36.9687 8.64006 36.8103 8.7054 36.6932 8.82181L35.6339 9.87493C33.0229 7.91023 29.9361 6.67586 26.6904 6.29857C23.4447 5.92127 20.1571 6.41466 17.1651 7.72806L20.7682 4.13431C21.1768 4.32952 21.6413 4.37371 22.0793 4.25903C22.5173 4.14436 22.9006 3.87823 23.161 3.50787C23.4215 3.13751 23.5424 2.68685 23.5022 2.23585C23.462 1.78485 23.2634 1.36266 22.9415 1.04419C22.6197 0.725712 22.1954 0.531536 21.744 0.49611C21.2926 0.460683 20.8433 0.586295 20.4757 0.850661C20.1081 1.11503 19.846 1.50106 19.7359 1.94027C19.6259 2.37948 19.675 2.84347 19.8745 3.24993L13.7932 9.34056C13.1758 8.92637 12.4337 8.73942 11.6937 8.81162C10.9537 8.88383 10.2617 9.21072 9.736 9.73646C9.21027 10.2622 8.88338 10.9542 8.81117 11.6941C8.73896 12.4341 8.92592 13.1762 9.34011 13.7937L3.24948 19.8749C2.84143 19.6761 2.37609 19.6284 1.93617 19.7402C1.49625 19.8521 1.11022 20.1163 0.846699 20.4859C0.583174 20.8555 0.459212 21.3065 0.496842 21.7589C0.534471 22.2112 0.731256 22.6356 1.05223 22.9566C1.3732 23.2775 1.79757 23.4743 2.24992 23.5119C2.70228 23.5496 3.15333 23.4256 3.52293 23.1621C3.89252 22.8986 4.15671 22.5125 4.26857 22.0726C4.38042 21.6327 4.33269 21.1674 4.13386 20.7593L7.73698 17.1656C6.42227 20.1567 5.92733 23.4439 6.30297 26.6896C6.67861 29.9353 7.9113 33.0225 9.87448 35.6343L8.81823 36.6937C8.70182 36.8108 8.63649 36.9692 8.63649 37.1343C8.63649 37.2994 8.70182 37.4578 8.81823 37.5749L11.5589 40.3156C11.6755 40.4329 11.834 40.4992 11.9995 40.4999C12.082 40.5 12.1636 40.4837 12.2398 40.4521C12.3159 40.4205 12.3851 40.3741 12.4432 40.3156L15.187 37.5749C15.3034 37.4578 15.3687 37.2994 15.3687 37.1343C15.3687 36.9692 15.3034 36.8108 15.187 36.6937L12.4526 33.9374ZM37.1401 10.1406L38.9964 11.9968L37.1401 13.8531L35.2839 11.9968L37.1401 10.1406ZM21.1245 1.94681C21.2174 1.85318 21.3359 1.78924 21.4652 1.76312C21.5945 1.737 21.7286 1.74986 21.8505 1.80008C21.9725 1.8503 22.0767 1.93562 22.1501 2.04519C22.2235 2.15477 22.2627 2.28368 22.2627 2.41556C22.2627 2.54744 22.2235 2.67634 22.1501 2.78592C22.0767 2.8955 21.9725 2.98081 21.8505 3.03103C21.7286 3.08125 21.5945 3.09412 21.4652 3.06799C21.3359 3.04187 21.2174 2.97794 21.1245 2.88431C21.0629 2.82278 21.014 2.74971 20.9807 2.66928C20.9473 2.58884 20.9301 2.50263 20.9301 2.41556C20.9301 2.32849 20.9473 2.24227 20.9807 2.16184C21.014 2.08141 21.0629 2.00834 21.1245 1.94681ZM10.6245 10.6249C10.806 10.4426 11.0217 10.2979 11.2593 10.1991C11.4968 10.1004 11.7516 10.0496 12.0089 10.0496C12.2661 10.0496 12.5209 10.1004 12.7584 10.1991C12.996 10.2979 13.2117 10.4426 13.3932 10.6249C13.6676 10.8988 13.8545 11.248 13.9304 11.6281C14.0062 12.0083 13.9676 12.4024 13.8194 12.7606C13.6712 13.1188 13.42 13.425 13.0978 13.6405C12.7755 13.8559 12.3965 13.9709 12.0089 13.9709C11.6212 13.9709 11.2422 13.8559 10.92 13.6405C10.5977 13.425 10.3465 13.1188 10.1983 12.7606C10.0501 12.4024 10.0115 12.0083 10.0874 11.6281C10.1632 11.248 10.3501 10.8988 10.6245 10.6249ZM2.88698 22.0624C2.75938 22.1688 2.59661 22.2237 2.43063 22.2162C2.26466 22.2087 2.10749 22.1394 1.99001 22.0219C1.87253 21.9044 1.80323 21.7473 1.79573 21.5813C1.78823 21.4153 1.84307 21.2525 1.94948 21.1249C2.07455 21.002 2.24288 20.9332 2.41823 20.9332C2.59358 20.9332 2.76192 21.002 2.88698 21.1249C2.94859 21.1865 2.99746 21.2595 3.03081 21.34C3.06415 21.4204 3.08131 21.5066 3.08131 21.5937C3.08131 21.6808 3.06415 21.767 3.03081 21.8474C2.99746 21.9278 2.94859 22.0009 2.88698 22.0624ZM12.0089 38.9781L10.1526 37.1218L12.0089 35.2656L13.8651 37.1218L12.0089 38.9781Z" fill="#65FF00"/>
</g>
<defs>
<clipPath id="clip0_532_413">
<rect width="40" height="40" fill="white" transform="translate(0.5 0.5)"/>
</clipPath>
</defs>
</svg>
