<svg width="41" height="41" viewBox="0 0 41 41" fill="none" xmlns="http://www.w3.org/2000/svg">
<path fill-rule="evenodd" clip-rule="evenodd" d="M36.775 17.402C38.4849 17.402 39.873 18.7901 39.873 20.5C39.873 22.2099 38.4849 23.598 36.775 23.598C35.0651 23.598 33.677 22.2099 33.677 20.5C33.677 18.7901 35.0651 17.402 36.775 17.402ZM36.775 18.5C35.6711 18.5 34.775 19.3961 34.775 20.5C34.775 21.6038 35.6711 22.5 36.775 22.5C37.8788 22.5 38.775 21.6038 38.775 20.5C38.775 19.3961 37.8788 18.5 36.775 18.5ZM20.5005 33.6765C22.2104 33.6765 23.5985 35.0646 23.5985 36.7745C23.5985 38.4844 22.2104 39.8725 20.5005 39.8725C18.7906 39.8725 17.4024 38.4844 17.4024 36.7745C17.4024 35.0646 18.7906 33.6765 20.5005 33.6765ZM20.5005 34.7745C19.3966 34.7745 18.5005 35.6707 18.5005 36.7745C18.5005 37.8783 19.3966 38.7745 20.5005 38.7745C21.6043 38.7745 22.5005 37.8783 22.5005 36.7745C22.5005 35.6707 21.6043 34.7745 20.5005 34.7745ZM5.0604 16.1453C5.02083 16.2854 4.92726 16.4041 4.80024 16.4753C4.67322 16.5465 4.52315 16.5643 4.38299 16.5249C4.24289 16.4853 4.12423 16.3917 4.05308 16.2647C3.98193 16.1377 3.96411 15.9876 4.00354 15.8474C5.61632 10.1252 10.1293 5.61332 15.852 4.00187C15.9922 3.9625 16.1422 3.98037 16.2692 4.05156C16.3962 4.12275 16.4898 4.24144 16.5293 4.38156C16.5687 4.52172 16.5509 4.67178 16.4797 4.79877C16.4085 4.92577 16.2898 5.0193 16.1497 5.05881C10.7936 6.56697 6.56989 10.7898 5.0604 16.1453ZM24.8513 5.05881C24.7112 5.0193 24.5925 4.92577 24.5213 4.79877C24.4501 4.67178 24.4322 4.52172 24.4716 4.38156C24.5112 4.24144 24.6047 4.12275 24.7317 4.05156C24.8587 3.98037 25.0088 3.9625 25.149 4.00187C30.8731 5.61372 35.3868 10.1274 36.9986 15.8515C37.038 15.9917 37.0201 16.1418 36.9489 16.2688C36.8777 16.3958 36.759 16.4893 36.6189 16.5289C36.4788 16.5682 36.3287 16.5504 36.2017 16.4792C36.0747 16.408 35.9812 16.2893 35.9417 16.1492C34.4331 10.7918 30.2086 6.56736 24.8513 5.05881ZM35.9417 24.8508C35.9812 24.7107 36.0747 24.592 36.2017 24.5208C36.3287 24.4496 36.4788 24.4317 36.6189 24.4711C36.759 24.5107 36.8777 24.6042 36.9489 24.7312C37.0201 24.8582 37.038 25.0083 36.9986 25.1485C35.3868 30.8726 30.8731 35.3863 25.149 36.9981C25.0088 37.0375 24.8587 37.0196 24.7317 36.9484C24.6047 36.8772 24.5112 36.7585 24.4716 36.6184C24.4322 36.4783 24.4501 36.3282 24.5213 36.2012C24.5925 36.0742 24.7112 35.9807 24.8513 35.9412C30.2086 34.4326 34.4331 30.2082 35.9417 24.8508ZM16.1497 35.9412C16.2898 35.9807 16.4085 36.0742 16.4797 36.2012C16.5509 36.3282 16.5687 36.4783 16.5293 36.6184C16.4898 36.7585 16.3962 36.8772 16.2692 36.9484C16.1422 37.0196 15.9922 37.0375 15.852 36.9981C10.1293 35.3867 5.61632 30.8747 4.00354 25.1525C3.96411 25.0124 3.98193 24.8623 4.05308 24.7353C4.12423 24.6083 4.24289 24.5147 4.38299 24.4751C4.52315 24.4357 4.67322 24.4535 4.80024 24.5247C4.92726 24.5959 5.02083 24.7145 5.0604 24.8547C6.56989 30.2102 10.7936 34.433 16.1497 35.9412ZM20.5005 12.1863C25.089 12.1863 28.8142 15.9115 28.8142 20.5C28.8142 25.0885 25.089 28.8137 20.5005 28.8137C15.912 28.8137 12.1868 25.0885 12.1868 20.5C12.1868 15.9115 15.912 12.1863 20.5005 12.1863ZM20.5005 13.2843C16.518 13.2843 13.2848 16.5176 13.2848 20.5C13.2848 24.4824 16.518 27.7157 20.5005 27.7157C24.4829 27.7157 27.7162 24.4824 27.7162 20.5C27.7162 16.5176 24.4829 13.2843 20.5005 13.2843ZM20.5742 19.4912C23.1174 19.5304 25.1668 21.6048 25.1668 24.1573C25.1668 24.7983 24.7566 25.3518 24.0138 25.7363C23.1615 26.1776 21.8322 26.4118 20.5005 26.4118C19.1687 26.4118 17.8395 26.1776 16.9871 25.7363C16.2444 25.3518 15.8341 24.7983 15.8341 24.1573C15.8341 21.6048 17.8842 19.5304 20.4274 19.4912C19.1067 19.4524 18.0485 18.3701 18.0485 17.0399C18.0485 15.686 19.146 14.5882 20.5008 14.5882C21.8548 14.5882 22.9525 15.686 22.9525 17.0399C22.9525 18.3701 21.8942 19.4524 20.5742 19.4912ZM24.0688 24.1573C24.0688 22.1867 22.4715 20.5887 20.5008 20.5887C18.5301 20.5887 16.9322 22.1867 16.9322 24.1573C16.9322 24.4273 17.1791 24.5993 17.492 24.7612C18.2207 25.1386 19.3618 25.3137 20.5005 25.3137C21.6391 25.3137 22.7802 25.1386 23.509 24.7612C23.8218 24.5993 24.0688 24.4273 24.0688 24.1573ZM19.1465 17.0399C19.1465 17.7881 19.7526 18.3943 20.5008 18.3943C21.2484 18.3943 21.8544 17.7881 21.8544 17.0399C21.8544 16.2924 21.2484 15.6863 20.5008 15.6863C19.7527 15.6863 19.1465 16.2923 19.1465 17.0399ZM4.22597 17.402C5.93585 17.402 7.32401 18.7901 7.32401 20.5C7.32401 22.2099 5.93585 23.598 4.22597 23.598C2.51609 23.598 1.12793 22.2099 1.12793 20.5C1.12793 18.7901 2.51609 17.402 4.22597 17.402ZM4.22597 18.5C3.12213 18.5 2.22597 19.3961 2.22597 20.5C2.22597 21.6038 3.12213 22.5 4.22597 22.5C5.32981 22.5 6.22597 21.6038 6.22597 20.5C6.22597 19.3961 5.32981 18.5 4.22597 18.5ZM20.5005 1.12744C22.2104 1.12744 23.5985 2.5156 23.5985 4.22548C23.5985 5.93536 22.2104 7.32352 20.5005 7.32352C18.7906 7.32352 17.4024 5.93536 17.4024 4.22548C17.4024 2.5156 18.7906 1.12744 20.5005 1.12744ZM20.5005 2.22548C19.3966 2.22548 18.5005 3.12164 18.5005 4.22548C18.5005 5.32932 19.3966 6.22548 20.5005 6.22548C21.6043 6.22548 22.5005 5.32932 22.5005 4.22548C22.5005 3.12164 21.6043 2.22548 20.5005 2.22548Z" fill="#65FF00"/>
</svg>
