<svg width="41" height="41" viewBox="0 0 41 41" fill="none" xmlns="http://www.w3.org/2000/svg">
<path d="M23 8H18.625C18.4592 8 18.3003 8.06585 18.1831 8.18306C18.0658 8.30027 18 8.45924 18 8.625C18 8.79076 18.0658 8.94973 18.1831 9.06694C18.3003 9.18415 18.4592 9.25 18.625 9.25H23C23.1658 9.25 23.3247 9.18415 23.4419 9.06694C23.5592 8.94973 23.625 8.79076 23.625 8.625C23.625 8.45924 23.5592 8.30027 23.4419 8.18306C23.3247 8.06585 23.1658 8 23 8ZM26.125 8H25.5C25.3342 8 25.1753 8.06585 25.0581 8.18306C24.9408 8.30027 24.875 8.45924 24.875 8.625C24.875 8.79076 24.9408 8.94973 25.0581 9.06694C25.1753 9.18415 25.3342 9.25 25.5 9.25H26.125C26.2908 9.25 26.4497 9.18415 26.5669 9.06694C26.6842 8.94973 26.75 8.79076 26.75 8.625C26.75 8.45924 26.6842 8.30027 26.5669 8.18306C26.4497 8.06585 26.2908 8 26.125 8ZM29.25 8H28.625C28.4592 8 28.3003 8.06585 28.1831 8.18306C28.0658 8.30027 28 8.45924 28 8.625C28 8.79076 28.0658 8.94973 28.1831 9.06694C28.3003 9.18415 28.4592 9.25 28.625 9.25H29.25C29.4158 9.25 29.5747 9.18415 29.6919 9.06694C29.8092 8.94973 29.875 8.79076 29.875 8.625C29.875 8.45924 29.8092 8.30027 29.6919 8.18306C29.5747 8.06585 29.4158 8 29.25 8ZM19.25 21.125H19.875C20.0408 21.125 20.1997 21.0592 20.3169 20.9419C20.4342 20.8247 20.5 20.6658 20.5 20.5C20.5 20.3342 20.4342 20.1753 20.3169 20.0581C20.1997 19.9408 20.0408 19.875 19.875 19.875H19.25C19.0842 19.875 18.9253 19.9408 18.8081 20.0581C18.6908 20.1753 18.625 20.3342 18.625 20.5C18.625 20.6658 18.6908 20.8247 18.8081 20.9419C18.9253 21.0592 19.0842 21.125 19.25 21.125ZM16.125 21.125H16.75C16.9158 21.125 17.0747 21.0592 17.1919 20.9419C17.3092 20.8247 17.375 20.6658 17.375 20.5C17.375 20.3342 17.3092 20.1753 17.1919 20.0581C17.0747 19.9408 16.9158 19.875 16.75 19.875H16.125C15.9592 19.875 15.8003 19.9408 15.6831 20.0581C15.5658 20.1753 15.5 20.3342 15.5 20.5C15.5 20.6658 15.5658 20.8247 15.6831 20.9419C15.8003 21.0592 15.9592 21.125 16.125 21.125ZM18.625 31.75H18C17.8342 31.75 17.6753 31.8158 17.5581 31.9331C17.4408 32.0503 17.375 32.2092 17.375 32.375C17.375 32.5408 17.4408 32.6997 17.5581 32.8169C17.6753 32.9342 17.8342 33 18 33H18.625C18.7908 33 18.9497 32.9342 19.0669 32.8169C19.1842 32.6997 19.25 32.5408 19.25 32.375C19.25 32.2092 19.1842 32.0503 19.0669 31.9331C18.9497 31.8158 18.7908 31.75 18.625 31.75ZM21.75 31.75H21.125C20.9592 31.75 20.8003 31.8158 20.6831 31.9331C20.5658 32.0503 20.5 32.2092 20.5 32.375C20.5 32.5408 20.5658 32.6997 20.6831 32.8169C20.8003 32.9342 20.9592 33 21.125 33H21.75C21.9158 33 22.0747 32.9342 22.1919 32.8169C22.3092 32.6997 22.375 32.5408 22.375 32.375C22.375 32.2092 22.3092 32.0503 22.1919 31.9331C22.0747 31.8158 21.9158 31.75 21.75 31.75Z" fill="#65FF00"/>
<path d="M32.375 26.125C29.14 26.125 26.4712 28.5962 26.1562 31.75H24.875V29.25C24.875 28.5606 24.3144 28 23.625 28H9.875C9.18562 28 8.625 28.5606 8.625 29.25V31.7344C5.84187 31.5719 3.625 29.2619 3.625 26.4375C3.625 23.5081 6.00813 21.125 8.9375 21.125H13V23.625C13 24.315 13.5606 24.875 14.25 24.875H28C28.6894 24.875 29.25 24.315 29.25 23.625V21.125H32.0625C35.6812 21.125 38.625 18.1812 38.625 14.5625C38.625 11.05 35.8481 8.18125 32.375 8.01625V5.5C32.375 4.81062 31.8362 4.25 31.1731 4.25H17.3269C16.6644 4.25 16.125 4.81062 16.125 5.5V8H14.875V7.375C14.875 7.22269 14.8193 7.07564 14.7185 6.96148C14.6177 6.84731 14.4786 6.77389 14.3275 6.755L13.4156 6.64125L13.9794 5.91562C14.0729 5.7954 14.1193 5.64515 14.1099 5.49312C14.1004 5.34109 14.0358 5.19773 13.9281 5.09L12.1606 3.3225C12.0529 3.21484 11.9096 3.15018 11.7576 3.14063C11.6056 3.13108 11.4554 3.1773 11.335 3.27063L10.6094 3.835L10.495 2.9225C10.4761 2.77137 10.4027 2.63233 10.2885 2.53152C10.1744 2.4307 10.0273 2.37504 9.875 2.375H7.375C7.22269 2.37504 7.07564 2.4307 6.96148 2.53152C6.84731 2.63233 6.77389 2.77137 6.755 2.9225L6.64063 3.835L5.91563 3.27063C5.79523 3.17713 5.64483 3.1308 5.49269 3.14035C5.34055 3.1499 5.19713 3.21468 5.08938 3.3225L3.32188 5.09C3.21436 5.1977 3.14983 5.34093 3.14039 5.49282C3.13096 5.64471 3.17726 5.79482 3.27063 5.915L3.83438 6.64125L2.9225 6.755C2.77137 6.77389 2.63233 6.84731 2.53152 6.96148C2.4307 7.07564 2.37504 7.22269 2.375 7.375V9.875C2.37489 10.0274 2.43048 10.1746 2.53131 10.2889C2.63214 10.4032 2.77126 10.4767 2.9225 10.4956L3.83438 10.6094L3.27063 11.335C3.17709 11.4552 3.13068 11.6055 3.14012 11.7575C3.14955 11.9095 3.21419 12.0529 3.32188 12.1606L5.08938 13.9288C5.19711 14.0364 5.34046 14.1011 5.4925 14.1105C5.64453 14.1199 5.79477 14.0735 5.915 13.98L6.64063 13.4156L6.755 14.3281C6.77403 14.4791 6.84751 14.618 6.96166 14.7187C7.07581 14.8194 7.22279 14.875 7.375 14.875H9.875C10.0272 14.875 10.1742 14.8194 10.2883 14.7187C10.4025 14.618 10.476 14.4791 10.495 14.3281L10.6094 13.4156L11.3344 13.98C11.4546 14.0737 11.605 14.1202 11.7572 14.1108C11.9094 14.1013 12.0529 14.0366 12.1606 13.9288L13.9281 12.1606C14.0356 12.0529 14.1002 11.9097 14.1096 11.7578C14.119 11.6059 14.0727 11.4558 13.9794 11.3356L13.4156 10.6094L14.3275 10.4956C14.4787 10.4767 14.6179 10.4032 14.7187 10.2889C14.8195 10.1746 14.8751 10.0274 14.875 9.875V9.25H16.125V11.75C16.125 12.44 16.6638 13 17.3269 13H31.1731C31.8356 13 32.375 12.44 32.375 11.75V9.26625C35.1581 9.42875 37.375 11.7387 37.375 14.5625C37.375 17.4919 34.9919 19.875 32.0625 19.875H29.25V17.375C29.25 16.6856 28.6894 16.125 28 16.125H14.25C13.5606 16.125 13 16.6856 13 17.375V19.875H8.9375C5.31875 19.875 2.375 22.8188 2.375 26.4375C2.375 29.9506 5.15187 32.82 8.625 32.9844V35.5C8.625 36.19 9.18562 36.75 9.875 36.75H23.625C24.3144 36.75 24.875 36.19 24.875 35.5V33H26.1562C26.4712 36.1544 29.14 38.625 32.375 38.625C35.8212 38.625 38.625 35.8219 38.625 32.375C38.625 28.9281 35.8212 26.125 32.375 26.125ZM13.625 9.32375L12.17 9.50563C12.0605 9.51936 11.9566 9.56186 11.8688 9.62878C11.781 9.69571 11.7126 9.78468 11.6703 9.88666C11.6281 9.98863 11.6137 10.1 11.6284 10.2093C11.6432 10.3187 11.6866 10.4222 11.7544 10.5094L12.6544 11.6669L11.6669 12.6544L10.5094 11.7544C10.4222 11.6865 10.3187 11.6429 10.2092 11.628C10.0997 11.6132 9.98829 11.6276 9.88621 11.6698C9.78414 11.7121 9.69508 11.7806 9.62812 11.8685C9.56115 11.9563 9.51867 12.0604 9.505 12.17L9.32375 13.625H7.92688L7.745 12.17C7.73133 12.0604 7.68885 11.9563 7.62188 11.8685C7.55492 11.7806 7.46586 11.7121 7.36379 11.6698C7.26171 11.6276 7.15027 11.6132 7.0408 11.628C6.93133 11.6429 6.82776 11.6865 6.74063 11.7544L5.58313 12.6544L4.59563 11.6669L5.49563 10.5094C5.56337 10.4222 5.60683 10.3187 5.62159 10.2093C5.63635 10.1 5.62188 9.98863 5.57965 9.88666C5.53743 9.78468 5.46896 9.69571 5.38119 9.62878C5.29343 9.56186 5.18951 9.51936 5.08 9.50563L3.625 9.32375V7.92688L5.08 7.74563C5.18962 7.73195 5.29366 7.68947 5.38151 7.6225C5.46937 7.55554 5.53791 7.46649 5.58015 7.36441C5.62239 7.26234 5.63682 7.15089 5.62197 7.04142C5.60712 6.93196 5.56353 6.82838 5.49563 6.74125L4.59563 5.58375L5.58313 4.59625L6.74063 5.49625C6.82776 5.56415 6.93133 5.60775 7.0408 5.6226C7.15027 5.63745 7.26171 5.62301 7.36379 5.58078C7.46586 5.53854 7.55492 5.47 7.62188 5.38214C7.68885 5.29428 7.73133 5.19024 7.745 5.08062L7.92625 3.625H9.32312L9.505 5.08125C9.51867 5.19087 9.56115 5.29491 9.62812 5.38276C9.69508 5.47062 9.78414 5.53916 9.88621 5.5814C9.98829 5.62364 10.0997 5.63807 10.2092 5.62322C10.3187 5.60838 10.4222 5.56478 10.5094 5.49687L11.6669 4.59625L12.6544 5.58375L11.7544 6.74125C11.6866 6.82838 11.6432 6.9319 11.6284 7.04128C11.6137 7.15066 11.6281 7.262 11.6703 7.36397C11.7126 7.46594 11.781 7.55492 11.8688 7.62184C11.9566 7.68877 12.0605 7.73126 12.17 7.745L13.625 7.92688V9.32375ZM17.375 11.75L17.3519 8.74063C17.3594 8.70188 17.375 8.66562 17.375 8.625C17.375 8.58125 17.3587 8.5425 17.35 8.50125L17.3269 5.5H31.125L31.1212 11.75H17.375ZM14.25 17.375H28V23.625H14.25V20.4987V17.375ZM9.875 35.5V29.25H23.625L23.6256 32.3725L23.625 32.375L23.6256 32.3781L23.6262 35.5H9.875ZM32.375 37.375C29.6181 37.375 27.375 35.1325 27.375 32.375C27.375 29.6175 29.6181 27.375 32.375 27.375C35.1319 27.375 37.375 29.6188 37.375 32.375C37.375 35.1312 35.1319 37.375 32.375 37.375Z" fill="#65FF00"/>
<path d="M8.625 6.125C7.24625 6.125 6.125 7.24688 6.125 8.625C6.125 10.0031 7.24625 11.125 8.625 11.125C10.0038 11.125 11.125 10.0038 11.125 8.625C11.125 7.24625 10.0038 6.125 8.625 6.125ZM8.625 9.875C7.93562 9.875 7.375 9.315 7.375 8.625C7.375 7.935 7.93562 7.375 8.625 7.375C9.31438 7.375 9.875 7.93562 9.875 8.625C9.875 9.31438 9.31438 9.875 8.625 9.875ZM34.3944 30.1L31.7081 33.3244L30.3169 31.9331C30.2592 31.8734 30.1903 31.8258 30.114 31.7931C30.0378 31.7603 29.9557 31.7431 29.8728 31.7423C29.7898 31.7416 29.7075 31.7574 29.6307 31.7889C29.5538 31.8203 29.4841 31.8667 29.4254 31.9254C29.3667 31.9841 29.3203 32.0538 29.2889 32.1307C29.2574 32.2075 29.2416 32.2898 29.2423 32.3728C29.2431 32.4557 29.2603 32.5378 29.2931 32.614C29.3258 32.6903 29.3734 32.7592 29.4331 32.8169L31.3081 34.6919C31.3695 34.7535 31.443 34.8016 31.524 34.8331C31.605 34.8647 31.6917 34.879 31.7785 34.8751C31.8653 34.8712 31.9504 34.8492 32.0283 34.8106C32.1061 34.7719 32.175 34.7175 32.2306 34.6506L35.3556 30.9006C35.4617 30.7732 35.5128 30.6088 35.4977 30.4436C35.4826 30.2785 35.4025 30.1261 35.275 30.02C35.1475 29.9139 34.9831 29.8628 34.818 29.8779C34.6528 29.8931 34.5005 29.9725 34.3944 30.1ZM22.375 21.125H26.125C26.2908 21.125 26.4497 21.0592 26.5669 20.9419C26.6842 20.8247 26.75 20.6658 26.75 20.5C26.75 20.3342 26.6842 20.1753 26.5669 20.0581C26.4497 19.9408 26.2908 19.875 26.125 19.875H22.375C22.2092 19.875 22.0503 19.9408 21.9331 20.0581C21.8158 20.1753 21.75 20.3342 21.75 20.5C21.75 20.6658 21.8158 20.8247 21.9331 20.9419C22.0503 21.0592 22.2092 21.125 22.375 21.125ZM15.5 31.75H11.75C11.5842 31.75 11.4253 31.8158 11.3081 31.9331C11.1908 32.0503 11.125 32.2092 11.125 32.375C11.125 32.5408 11.1908 32.6997 11.3081 32.8169C11.4253 32.9342 11.5842 33 11.75 33H15.5C15.6658 33 15.8247 32.9342 15.9419 32.8169C16.0592 32.6997 16.125 32.5408 16.125 32.375C16.125 32.2092 16.0592 32.0503 15.9419 31.9331C15.8247 31.8158 15.6658 31.75 15.5 31.75Z" fill="#65FF00"/>
</svg>
