<svg width="41" height="41" viewBox="0 0 41 41" fill="none" xmlns="http://www.w3.org/2000/svg">
<path d="M20.6516 20.8629C20.4859 20.8629 20.3269 20.9287 20.2097 21.0459C20.0925 21.1632 20.0266 21.3221 20.0266 21.4879V29.0518C20.0266 29.2176 20.0925 29.3765 20.2097 29.4937C20.3269 29.6109 20.4859 29.6768 20.6516 29.6768H23.0078C23.1736 29.6768 23.3325 29.6109 23.4498 29.4937C23.567 29.3765 23.6328 29.2176 23.6328 29.0518V21.4879C23.6328 21.3221 23.567 21.1632 23.4498 21.0459C23.3325 20.9287 23.1736 20.8629 23.0078 20.8629H20.6516ZM22.3829 28.4268H21.2767V22.1129H22.3829V28.4268ZM16.2766 22.8609C16.1109 22.8609 15.9519 22.9268 15.8347 23.044C15.7175 23.1612 15.6516 23.3202 15.6516 23.4859V29.0518C15.6516 29.2176 15.7175 29.3765 15.8347 29.4937C15.9519 29.6109 16.1109 29.6768 16.2766 29.6768H18.6328C18.7986 29.6768 18.9575 29.6109 19.0748 29.4937C19.192 29.3765 19.2578 29.2176 19.2578 29.0518V23.4859C19.2578 23.3202 19.192 23.1612 19.0748 23.044C18.9575 22.9268 18.7986 22.8609 18.6328 22.8609H16.2766ZM18.0079 28.4268H16.9017V24.1109H18.0079V28.4268ZM28.0078 29.0518V19.6904C28.0078 19.5246 27.942 19.3657 27.8248 19.2484C27.7075 19.1312 27.5486 19.0654 27.3828 19.0654H25.0266C24.8608 19.0654 24.7018 19.1312 24.5846 19.2484C24.4674 19.3657 24.4016 19.5246 24.4016 19.6904V29.0518C24.4016 29.2176 24.4674 29.3765 24.5846 29.4937C24.7018 29.6109 24.8608 29.6768 25.0266 29.6768H27.3828C27.5486 29.6768 27.7075 29.6109 27.8248 29.4937C27.942 29.3765 28.0078 29.2176 28.0078 29.0518ZM26.7578 28.4268H25.6516V20.3154H26.7578V28.4268ZM23.9057 15.1098L25.7884 15.2401C25.8807 15.2465 25.9705 15.2733 26.0512 15.3186C26.1319 15.3639 26.2015 15.4265 26.2551 15.502C26.3086 15.5775 26.3447 15.6639 26.3608 15.7551C26.3768 15.8462 26.3725 15.9398 26.348 16.0291L25.8484 17.8488C25.8121 17.9808 25.7336 18.0973 25.6247 18.1803C25.5159 18.2633 25.3829 18.3084 25.246 18.3085C25.19 18.3085 25.1342 18.3009 25.0802 18.286C24.9203 18.2421 24.7844 18.1366 24.7024 17.9925C24.6204 17.8485 24.599 17.6777 24.6429 17.5179L24.69 17.3463C22.3877 18.8704 19.9166 20.2302 17.3223 21.3983C17.2418 21.4347 17.1545 21.4535 17.0662 21.4536C16.9231 21.4537 16.7844 21.4047 16.6731 21.3149C16.5618 21.225 16.4847 21.0997 16.4547 20.9599C16.4246 20.8201 16.4434 20.6742 16.5079 20.5465C16.5724 20.4189 16.6788 20.3172 16.8092 20.2585C19.3088 19.133 21.6906 17.8262 23.9114 16.3631L23.8195 16.3568C23.737 16.352 23.6563 16.3308 23.582 16.2946C23.5078 16.2583 23.4414 16.2077 23.3869 16.1457C23.3323 16.0837 23.2905 16.0114 23.2641 15.9332C23.2376 15.8549 23.2269 15.7722 23.2326 15.6897C23.2383 15.6073 23.2603 15.5268 23.2973 15.453C23.3343 15.3791 23.3856 15.3133 23.4482 15.2594C23.5108 15.2054 23.5834 15.1645 23.662 15.1388C23.7405 15.1131 23.8233 15.1033 23.9057 15.1098ZM13.5845 8.65953L14.2122 8.90109C14.3134 9.23286 14.4465 9.55402 14.6097 9.86008L14.3365 10.4752C14.2852 10.5907 14.2701 10.7189 14.2932 10.8431C14.3163 10.9673 14.3764 11.0815 14.4657 11.1709L15.5321 12.2373C15.6214 12.3266 15.7357 12.3867 15.8599 12.4098C15.984 12.4329 16.1123 12.4178 16.2277 12.3666L16.8432 12.0932C17.1492 12.2563 17.4702 12.3894 17.8019 12.4906L18.0437 13.1187C18.089 13.2365 18.1691 13.3379 18.2732 13.4094C18.3773 13.4809 18.5007 13.5191 18.627 13.5191H20.1352C20.2615 13.5191 20.3848 13.4809 20.4889 13.4094C20.593 13.3379 20.6731 13.2365 20.7184 13.1187L20.9601 12.4909C21.2918 12.3897 21.613 12.2565 21.9191 12.0934L22.5342 12.3666C22.6496 12.4178 22.7779 12.4329 22.9021 12.4099C23.0263 12.3868 23.1405 12.3266 23.2298 12.2373L24.2963 11.1709C24.3856 11.0816 24.4457 10.9673 24.4688 10.8432C24.4918 10.719 24.4767 10.5907 24.4255 10.4753L24.1521 9.85984C24.3153 9.55391 24.4484 9.23288 24.5496 8.90125L25.1777 8.65953C25.2955 8.61416 25.3969 8.53414 25.4684 8.43001C25.5399 8.32589 25.5781 8.20255 25.5781 8.07625V6.56805C25.5781 6.44174 25.5399 6.31841 25.4684 6.21428C25.3969 6.11016 25.2955 6.03014 25.1777 5.98477L24.5498 5.74312C24.4487 5.41135 24.3155 5.09019 24.1523 4.78414L24.4255 4.16898C24.4767 4.05356 24.4918 3.9253 24.4688 3.80113C24.4457 3.67695 24.3856 3.56267 24.2963 3.47336L23.2298 2.40688C23.1405 2.31754 23.0263 2.25738 22.9021 2.23431C22.7779 2.21124 22.6496 2.22635 22.5342 2.27766L21.9188 2.55102C21.6128 2.38789 21.2917 2.25479 20.9601 2.15359L20.7184 1.52563C20.673 1.40772 20.5931 1.30632 20.4889 1.2348C20.3848 1.16328 20.2615 1.12499 20.1352 1.125H18.627C18.5007 1.125 18.3773 1.16326 18.2732 1.23475C18.1691 1.30624 18.089 1.4076 18.0437 1.52547L17.8019 2.15352C17.4702 2.25473 17.1492 2.38782 16.8432 2.55094L16.2277 2.27758C16.1123 2.22631 15.9841 2.21121 15.8599 2.23428C15.7357 2.25735 15.6214 2.31749 15.5321 2.4068L14.4657 3.47328C14.3764 3.5626 14.3163 3.67687 14.2932 3.80105C14.2701 3.92523 14.2852 4.05348 14.3365 4.16891L14.6098 4.7843C14.4466 5.09028 14.3135 5.41137 14.2123 5.74305L13.5844 5.98477C13.4665 6.03014 13.3651 6.11016 13.2937 6.21428C13.2222 6.31841 13.1839 6.44174 13.1839 6.56805V8.07625C13.1839 8.20256 13.2222 8.3259 13.2937 8.43002C13.3652 8.53414 13.4666 8.61416 13.5845 8.65953ZM14.4339 6.99719L14.9567 6.79594C15.0515 6.75946 15.1359 6.70045 15.2027 6.62402C15.2695 6.54759 15.3167 6.45603 15.3402 6.35727C15.4419 5.93 15.6111 5.52173 15.8416 5.14789C15.8949 5.06144 15.9263 4.96332 15.9331 4.86202C15.9399 4.76072 15.9219 4.65928 15.8807 4.56648L15.653 4.05383L16.1126 3.59422L16.6252 3.82188C16.718 3.8631 16.8194 3.8811 16.9207 3.87431C17.022 3.86751 17.1201 3.83614 17.2066 3.78289C17.5804 3.55239 17.9887 3.38312 18.416 3.28148C18.5148 3.25798 18.6063 3.21078 18.6827 3.14396C18.7592 3.07714 18.8181 2.99271 18.8546 2.89797L19.0561 2.375H19.706L19.9073 2.89789C19.9437 2.99263 20.0027 3.07706 20.0791 3.14388C20.1556 3.2107 20.2471 3.25791 20.3459 3.28141C20.7731 3.38304 21.1814 3.55231 21.5553 3.78281C21.6418 3.83605 21.7399 3.86743 21.8412 3.87422C21.9424 3.88101 22.0439 3.86302 22.1366 3.8218L22.6493 3.59414L23.1088 4.05367L22.8813 4.56609C22.84 4.65889 22.822 4.76032 22.8289 4.86163C22.8357 4.96293 22.8671 5.06106 22.9203 5.1475C23.1509 5.52147 23.3202 5.92987 23.422 6.35727C23.4454 6.45602 23.4926 6.54758 23.5594 6.624C23.6262 6.70042 23.7107 6.75941 23.8054 6.79586L24.328 6.99703V7.64695L23.8052 7.8482C23.7104 7.88465 23.626 7.94363 23.5592 8.02004C23.4924 8.09644 23.4452 8.18798 23.4217 8.28672C23.32 8.71402 23.1507 9.12234 22.9202 9.49625C22.8669 9.5827 22.8356 9.68081 22.8288 9.78209C22.822 9.88338 22.84 9.9848 22.8812 10.0776L23.1088 10.5902L22.6493 11.0498L22.1369 10.8222C22.0441 10.781 21.9426 10.763 21.8413 10.7698C21.74 10.7766 21.6419 10.808 21.5555 10.8612C21.1815 11.0918 20.773 11.2611 20.3456 11.3628C20.2469 11.3863 20.1554 11.4335 20.079 11.5004C20.0025 11.5672 19.9436 11.6516 19.9071 11.7463L19.7059 12.269H19.056L18.8548 11.7461C18.8183 11.6514 18.7593 11.567 18.6829 11.5001C18.6065 11.4333 18.515 11.3861 18.4163 11.3626C17.9889 11.2609 17.5806 11.0916 17.2066 10.8611C17.1202 10.8079 17.0221 10.7765 16.9208 10.7697C16.8196 10.7629 16.7182 10.7809 16.6254 10.8221L16.1127 11.0498L15.6532 10.5903L15.8808 10.078C15.922 9.98516 15.94 9.88371 15.9331 9.7824C15.9263 9.68108 15.895 9.58295 15.8417 9.49648C15.6112 9.12248 15.4419 8.71405 15.3402 8.28664C15.3167 8.18788 15.2695 8.09633 15.2026 8.01991C15.1358 7.94349 15.0514 7.8845 14.9566 7.84805L14.4341 7.64688V6.99719H14.4339ZM19.381 10.5773C21.176 10.5773 22.6363 9.11711 22.6363 7.32211C22.6363 5.52711 21.176 4.0668 19.381 4.0668C17.586 4.0668 16.1258 5.52719 16.1258 7.32219C16.1258 9.11711 17.586 10.5773 19.381 10.5773ZM19.381 5.31687C20.4867 5.31687 21.3863 6.21648 21.3863 7.32219C21.3863 8.42781 20.4867 9.32742 19.381 9.32742C18.2753 9.32742 17.3758 8.42789 17.3758 7.32219C17.3758 6.21641 18.2752 5.31687 19.381 5.31687ZM13.6397 22.3926C13.6397 18.9638 10.8502 16.1743 7.42141 16.1743C3.99266 16.1743 1.20312 18.9638 1.20312 22.3926C1.20312 25.8213 3.99266 28.6109 7.42141 28.6109C10.8502 28.6109 13.6397 25.8213 13.6397 22.3926ZM2.46875 22.7673C2.52677 22.845 2.60212 22.9081 2.68879 22.9515C2.77547 22.995 2.87109 23.0176 2.96805 23.0176H3.45086C3.61662 23.0176 3.77559 22.9517 3.8928 22.8345C4.01001 22.7173 4.07586 22.5583 4.07586 22.3926C4.07586 22.2268 4.01001 22.0678 3.8928 21.9506C3.77559 21.8334 3.61662 21.7676 3.45086 21.7676H2.96805C2.87109 21.7676 2.77547 21.7902 2.68879 21.8336C2.60212 21.8771 2.52677 21.9401 2.46875 22.0178C2.55031 20.9305 2.98281 19.9402 3.65375 19.1595C3.64058 19.2549 3.64968 19.3521 3.68034 19.4433C3.711 19.5346 3.76239 19.6175 3.83047 19.6856L4.17188 20.027C4.22984 20.0851 4.29871 20.1312 4.37455 20.1626C4.45038 20.194 4.53167 20.2101 4.61375 20.21C4.69585 20.2101 4.77717 20.194 4.85302 20.1626C4.92886 20.1311 4.99775 20.085 5.0557 20.0269C5.17289 19.9097 5.23871 19.7507 5.23869 19.5849C5.23868 19.4192 5.17283 19.2602 5.05563 19.143L4.71422 18.8017C4.64612 18.7337 4.5632 18.6823 4.47194 18.6517C4.38069 18.621 4.28357 18.6119 4.1882 18.625C4.96898 17.9541 5.9593 17.5215 7.04664 17.4399C6.96895 17.498 6.90588 17.5733 6.86243 17.66C6.81897 17.7467 6.79634 17.8423 6.79633 17.9393V18.422C6.79633 18.5878 6.86218 18.7468 6.97939 18.864C7.0966 18.9812 7.25557 19.047 7.42133 19.047C7.58709 19.047 7.74606 18.9812 7.86327 18.864C7.98048 18.7468 8.04633 18.5878 8.04633 18.422V17.9393C8.04632 17.8423 8.02368 17.7467 7.98023 17.66C7.93678 17.5733 7.8737 17.498 7.79602 17.4399C8.88336 17.5215 9.87375 17.9541 10.6545 18.6251C10.5591 18.6119 10.462 18.6209 10.3707 18.6516C10.2794 18.6822 10.1965 18.7336 10.1284 18.8016L9.78695 19.143C9.69955 19.2304 9.64002 19.3417 9.6159 19.463C9.59178 19.5842 9.60415 19.7099 9.65145 19.8241C9.69874 19.9383 9.77884 20.0359 9.88161 20.1046C9.98439 20.1732 10.1052 20.2099 10.2288 20.2099C10.3109 20.21 10.3922 20.1939 10.468 20.1625C10.5439 20.1311 10.6127 20.085 10.6707 20.0269L11.0121 19.6855C11.0802 19.6174 11.1316 19.5345 11.1622 19.4432C11.1929 19.3519 11.202 19.2547 11.1888 19.1593C11.8598 19.9401 12.2924 20.9305 12.3739 22.0178C12.3159 21.9401 12.2405 21.877 12.1538 21.8336C12.0671 21.7901 11.9715 21.7675 11.8745 21.7675H11.3918C11.226 21.7675 11.0671 21.8333 10.9499 21.9506C10.8326 22.0678 10.7668 22.2267 10.7668 22.3925C10.7668 22.5583 10.8326 22.7172 10.9499 22.8344C11.0671 22.9517 11.226 23.0175 11.3918 23.0175H11.8745C11.9715 23.0175 12.0671 22.9949 12.1538 22.9514C12.2405 22.908 12.3159 22.8449 12.3739 22.7672C12.2923 23.8545 11.8598 24.8449 11.1888 25.6257C11.202 25.5303 11.1929 25.4331 11.1622 25.3418C11.1316 25.2505 11.0802 25.1676 11.0121 25.0995L10.6707 24.7581C10.6129 24.699 10.544 24.652 10.4678 24.6197C10.3917 24.5874 10.31 24.5706 10.2273 24.5701C10.1447 24.5697 10.0627 24.5856 9.98627 24.6171C9.90981 24.6485 9.84035 24.6948 9.7819 24.7532C9.72345 24.8117 9.67718 24.8812 9.64577 24.9576C9.61436 25.0341 9.59842 25.116 9.59889 25.1987C9.59936 25.2813 9.61623 25.3631 9.64851 25.4392C9.68079 25.5153 9.72784 25.5842 9.78695 25.642L10.1284 25.9834C10.1863 26.0415 10.2552 26.0876 10.331 26.119C10.4069 26.1504 10.4882 26.1665 10.5702 26.1664C10.5984 26.1664 10.6265 26.1638 10.6545 26.1601C9.87367 26.8311 8.88328 27.2636 7.79594 27.3452C7.87362 27.2871 7.9367 27.2118 7.98015 27.1251C8.02361 27.0384 8.04624 26.9428 8.04625 26.8458V26.363C8.04625 26.1973 7.9804 26.0383 7.86319 25.9211C7.74598 25.8039 7.58701 25.738 7.42125 25.738C7.25549 25.738 7.09652 25.8039 6.97931 25.9211C6.8621 26.0383 6.79625 26.1973 6.79625 26.363V26.8458C6.79625 26.9428 6.81888 27.0384 6.86233 27.1251C6.90579 27.2118 6.96887 27.2871 7.04656 27.3452C5.95922 27.2636 4.96883 26.8311 4.18805 26.1601C4.21602 26.1638 4.24406 26.1664 4.27219 26.1664C4.35427 26.1665 4.43556 26.1504 4.5114 26.119C4.58723 26.0876 4.6561 26.0415 4.71406 25.9834L5.05547 25.642C5.11458 25.5842 5.16163 25.5153 5.19392 25.4392C5.2262 25.3631 5.24306 25.2813 5.24353 25.1987C5.244 25.116 5.22807 25.0341 5.19665 24.9576C5.16524 24.8812 5.11897 24.8117 5.06052 24.7532C5.00207 24.6948 4.93261 24.6485 4.85615 24.6171C4.77969 24.5856 4.69776 24.5697 4.6151 24.5701C4.53243 24.5706 4.45068 24.5874 4.37458 24.6197C4.29847 24.652 4.22952 24.699 4.17172 24.7581L3.83031 25.0995C3.76223 25.1675 3.71084 25.2505 3.68018 25.3418C3.64952 25.433 3.64042 25.5302 3.65359 25.6255C2.98281 24.8449 2.55031 23.8546 2.46875 22.7673ZM6.79641 22.3926V20.2764C6.79641 20.1106 6.86225 19.9517 6.97946 19.8345C7.09668 19.7173 7.25565 19.6514 7.42141 19.6514C7.58717 19.6514 7.74614 19.7173 7.86335 19.8345C7.98056 19.9517 8.04641 20.1106 8.04641 20.2764V22.0318L9.1468 22.6671C9.26603 22.7359 9.3592 22.8422 9.41186 22.9693C9.46453 23.0965 9.47372 23.2375 9.43803 23.3705C9.40234 23.5034 9.32375 23.6209 9.21447 23.7046C9.10519 23.7883 8.97133 23.8336 8.83367 23.8334C8.72415 23.8334 8.61657 23.8045 8.5218 23.7496L7.10891 22.9339C7.01389 22.879 6.93498 22.8001 6.88012 22.7051C6.82527 22.6101 6.7964 22.5023 6.79641 22.3926ZM27.0945 37.1743C27.1218 37.2517 27.1336 37.3337 27.1292 37.4157C27.1248 37.4977 27.1043 37.578 27.0689 37.652C27.0335 37.7261 26.9838 37.7924 26.9228 37.8473C26.8617 37.9021 26.7905 37.9444 26.713 37.9717C24.8863 38.6164 22.9689 38.9434 21.0145 38.9434C18.0272 38.9434 15.0862 38.1622 12.5096 36.6842C10.0109 35.251 7.89633 33.1934 6.39461 30.7337C6.30827 30.5922 6.28165 30.4222 6.3206 30.2611C6.35956 30.1 6.4609 29.9609 6.60234 29.8745C6.74383 29.7882 6.91381 29.7616 7.07492 29.8005C7.23603 29.8395 7.37508 29.9408 7.46148 30.0823C10.3713 34.848 15.4378 37.6933 21.0145 37.6933C22.827 37.6933 24.6043 37.3904 26.2972 36.7929C26.4535 36.7378 26.6253 36.7471 26.7748 36.8186C26.9243 36.8901 27.0392 37.018 27.0945 37.1743ZM26.6651 6.31383C26.7277 6.16037 26.8488 6.03808 27.0016 5.97386C27.1544 5.90965 27.3265 5.90876 27.4799 5.97141C30.5916 7.24164 33.2435 9.38414 35.1489 12.1673C37.1005 15.018 38.1322 18.358 38.1322 21.8258C38.1322 23.4805 37.8963 25.117 37.431 26.6897C37.3928 26.8189 37.3138 26.9323 37.2058 27.013C37.0979 27.0937 36.9667 27.1374 36.832 27.1375C36.7347 27.1375 36.6388 27.1149 36.5518 27.0713C36.4648 27.0277 36.3892 26.9645 36.331 26.8865C36.2728 26.8086 36.2336 26.7182 36.2165 26.6224C36.1994 26.5267 36.2049 26.4283 36.2325 26.335C36.6637 24.8775 36.8822 23.3604 36.8822 21.8257C36.8822 15.3462 33.0062 9.57727 27.0075 7.12859C26.9315 7.09759 26.8624 7.05192 26.804 6.99419C26.7457 6.93646 26.6993 6.86781 26.6675 6.79214C26.6357 6.71648 26.6191 6.6353 26.6187 6.55323C26.6183 6.47116 26.6341 6.38981 26.6651 6.31383ZM5.58945 14.3955C6.78758 11.9125 8.59391 9.7282 10.8131 8.07875C10.9463 7.98232 11.1121 7.94225 11.2746 7.96723C11.4372 7.9922 11.5833 8.0802 11.6814 8.21217C11.7795 8.34414 11.8216 8.50944 11.7987 8.67226C11.7757 8.83508 11.6896 8.9823 11.5588 9.08203C9.50086 10.6116 7.82602 12.6368 6.71523 14.9387C6.67956 15.0127 6.62968 15.0788 6.56843 15.1335C6.50719 15.1881 6.43578 15.2302 6.35829 15.2572C6.2808 15.2843 6.19873 15.2958 6.11679 15.2911C6.03485 15.2864 5.95462 15.2657 5.8807 15.23C5.80678 15.1943 5.74061 15.1444 5.68597 15.0832C5.63133 15.022 5.58929 14.9505 5.56224 14.8731C5.5352 14.7956 5.52368 14.7135 5.52835 14.6316C5.53302 14.5496 5.55378 14.4694 5.58945 14.3955ZM33.6653 27.6117C30.2843 27.6117 27.5337 30.3623 27.5337 33.7434C27.5337 37.1244 30.2842 39.875 33.6653 39.875C37.0462 39.875 39.7969 37.1244 39.7969 33.7434C39.7969 30.3623 37.0462 27.6117 33.6653 27.6117ZM33.6653 38.625C30.9736 38.625 28.7837 36.4351 28.7837 33.7434C28.7837 31.0516 30.9736 28.8617 33.6653 28.8617C36.357 28.8617 38.5469 31.0516 38.5469 33.7434C38.5469 36.4351 36.357 38.625 33.6653 38.625ZM36.0426 34.9571C36.1036 35.4597 35.9676 35.9198 35.6494 36.2877C35.3366 36.6493 34.8495 36.9061 34.2903 37.0157V37.228C34.2903 37.3937 34.2245 37.5527 34.1073 37.6699C33.99 37.7871 33.8311 37.853 33.6653 37.853C33.4996 37.853 33.3406 37.7871 33.2234 37.6699C33.1062 37.5527 33.0403 37.3937 33.0403 37.228V37.0052C32.1668 36.8081 31.4994 36.2065 31.2923 35.3759C31.2523 35.215 31.2777 35.0448 31.3631 34.9028C31.4485 34.7607 31.5868 34.6583 31.7476 34.6182C31.9085 34.5781 32.0786 34.6036 32.2207 34.689C32.3628 34.7744 32.4651 34.9127 32.5052 35.0735C32.6478 35.6457 33.2475 35.8355 33.7223 35.8243C34.1347 35.8145 34.5291 35.672 34.704 35.4699C34.7899 35.3706 34.82 35.2588 34.8017 35.1077C34.7807 34.9352 34.7317 34.5312 33.5691 34.3403C31.8855 34.0638 31.492 33.1752 31.4581 32.4784C31.4123 31.5371 32.0455 30.747 33.0402 30.4927V30.2587C33.0402 30.093 33.1061 29.934 33.2233 29.8168C33.3405 29.6996 33.4995 29.6337 33.6652 29.6337C33.831 29.6337 33.99 29.6996 34.1072 29.8168C34.2244 29.934 34.2902 30.093 34.2902 30.2587V30.487C34.934 30.6443 35.5413 31.0631 35.8627 31.8285C35.8944 31.9042 35.911 31.9854 35.9114 32.0675C35.9118 32.1495 35.896 32.2309 35.865 32.3069C35.8339 32.3828 35.7882 32.452 35.7305 32.5103C35.6727 32.5686 35.604 32.615 35.5284 32.6467C35.3755 32.7109 35.2035 32.7117 35.05 32.649C34.8966 32.5863 34.7743 32.4652 34.7102 32.3124C34.4671 31.7335 33.8702 31.5853 33.386 31.6948C33.268 31.7216 32.6806 31.8823 32.7066 32.4177C32.7135 32.5595 32.7318 32.9359 33.7716 33.1067C35.157 33.3342 35.9213 33.9567 36.0426 34.9571Z" fill="#65FF00"/>
</svg>
