<svg width="40" height="41" viewBox="0 0 40 41" fill="none" xmlns="http://www.w3.org/2000/svg">
<path d="M16.875 8H23.125V9.25H16.875V8ZM16.875 10.5H23.125V11.75H16.875V10.5Z" fill="#65FF00"/>
<path d="M35.625 34.25V29.25C35.625 29.1148 35.5811 28.9832 35.5 28.875C35.4189 28.7668 35.3048 28.6879 35.175 28.65L20.625 24.4062V16.75H25C25.1658 16.75 25.3247 16.6842 25.4419 16.5669C25.5592 16.4497 25.625 16.2908 25.625 16.125V6.125C25.6251 6.04292 25.609 5.96162 25.5775 5.88579C25.5461 5.80996 25.5 5.74109 25.4419 5.68313L21.6919 1.93313C21.6339 1.87497 21.5651 1.82886 21.4892 1.79743C21.4134 1.766 21.3321 1.74988 21.25 1.75H15C14.8342 1.75 14.6753 1.81585 14.5581 1.93306C14.4408 2.05027 14.375 2.20924 14.375 2.375V16.125C14.375 16.2908 14.4408 16.4497 14.5581 16.5669C14.6753 16.6842 14.8342 16.75 15 16.75H19.375V24.4062L4.825 28.65C4.69518 28.6879 4.58114 28.7668 4.5 28.875C4.41886 28.9832 4.375 29.1148 4.375 29.25V34.25C4.375 34.3852 4.41886 34.5168 4.5 34.625C4.58114 34.7332 4.69518 34.8121 4.825 34.85L19.825 39.225C19.9392 39.2588 20.0608 39.2588 20.175 39.225L35.175 34.85C35.3048 34.8121 35.4189 34.7332 35.5 34.625C35.5811 34.5168 35.625 34.3852 35.625 34.25ZM21.875 3.88375L23.4912 5.5H21.875V3.88375ZM15.625 3H20.625V6.125C20.625 6.29076 20.6908 6.44973 20.8081 6.56694C20.9253 6.68415 21.0842 6.75 21.25 6.75H24.375V15.5H15.625V3ZM19.375 25.7081V28.9912L17.9419 27.5581L17.0581 28.4419L19.5581 30.9419C19.616 31.0001 19.6849 31.0463 19.7607 31.0779C19.8366 31.1094 19.9179 31.1256 20 31.1256C20.0821 31.1256 20.1635 31.1094 20.2393 31.0779C20.3151 31.0463 20.384 31.0001 20.4419 30.9419L22.9419 28.4419L22.0581 27.5581L20.625 28.9912V25.7081L32.7681 29.25L20 32.9738L7.23188 29.25L19.375 25.7081ZM5.625 30.0831L19.375 34.0938V37.7919L5.625 33.7812V30.0831ZM20.625 37.7919V34.0938L34.375 30.0831V33.7812L20.625 37.7919Z" fill="#65FF00"/>
<path d="M16.875 5.5H19.375V6.75H16.875V5.5ZM1.875 16.75H6.25C6.25 18.4731 7.65188 19.875 9.375 19.875H11.25C12.2838 19.875 13.125 20.7162 13.125 21.75V22.7412L11.6919 21.3081L10.8081 22.1919L13.3081 24.6919C13.366 24.7501 13.4349 24.7963 13.5107 24.8279C13.5866 24.8594 13.6679 24.8756 13.75 24.8756C13.8321 24.8756 13.9134 24.8594 13.9893 24.8279C14.0651 24.7963 14.134 24.7501 14.1919 24.6919L16.6919 22.1919L15.8081 21.3081L14.375 22.7412V21.75C14.375 20.0269 12.9731 18.625 11.25 18.625H9.375C8.34125 18.625 7.5 17.7838 7.5 16.75H11.875C12.0408 16.75 12.1997 16.6842 12.3169 16.5669C12.4342 16.4497 12.5 16.2908 12.5 16.125V6.125C12.5001 6.04292 12.484 5.96162 12.4525 5.88579C12.4211 5.80996 12.375 5.74109 12.3169 5.68313L8.56687 1.93313C8.50893 1.87497 8.44006 1.82886 8.36423 1.79743C8.28839 1.766 8.20709 1.74988 8.125 1.75H1.875C1.70924 1.75 1.55027 1.81585 1.43306 1.93306C1.31585 2.05027 1.25 2.20924 1.25 2.375V16.125C1.25 16.2908 1.31585 16.4497 1.43306 16.5669C1.55027 16.6842 1.70924 16.75 1.875 16.75ZM8.75 3.88375L10.3663 5.5H8.75V3.88375ZM2.5 3H7.5V6.125C7.5 6.29076 7.56585 6.44973 7.68306 6.56694C7.80027 6.68415 7.95924 6.75 8.125 6.75H11.25V15.5H2.5V3Z" fill="#65FF00"/>
<path d="M3.75 8H10V9.25H3.75V8ZM3.75 10.5H10V11.75H3.75V10.5ZM3.75 13H10V14.25H3.75V13ZM3.75 5.5H6.25V6.75H3.75V5.5ZM38.75 16.125V6.125C38.7501 6.04292 38.734 5.96162 38.7025 5.88579C38.6711 5.80996 38.625 5.74109 38.5669 5.68313L34.8169 1.93313C34.7589 1.87497 34.6901 1.82886 34.6142 1.79743C34.5384 1.766 34.4571 1.74988 34.375 1.75H28.125C27.9592 1.75 27.8003 1.81585 27.6831 1.93306C27.5658 2.05027 27.5 2.20924 27.5 2.375V16.125C27.5 16.2908 27.5658 16.4497 27.6831 16.5669C27.8003 16.6842 27.9592 16.75 28.125 16.75H32.5C32.5 17.7838 31.6588 18.625 30.625 18.625H28.75C27.0269 18.625 25.625 20.0269 25.625 21.75V22.7412L24.1919 21.3081L23.3081 22.1919L25.8081 24.6919C25.866 24.7501 25.9349 24.7963 26.0107 24.8279C26.0865 24.8594 26.1679 24.8756 26.25 24.8756C26.3321 24.8756 26.4135 24.8594 26.4893 24.8279C26.5651 24.7963 26.634 24.7501 26.6919 24.6919L29.1919 22.1919L28.3081 21.3081L26.875 22.7412V21.75C26.875 20.7162 27.7162 19.875 28.75 19.875H30.625C32.3481 19.875 33.75 18.4731 33.75 16.75H38.125C38.2908 16.75 38.4497 16.6842 38.5669 16.5669C38.6842 16.4497 38.75 16.2908 38.75 16.125ZM35 3.88375L36.6162 5.5H35V3.88375ZM28.75 15.5V3H33.75V6.125C33.75 6.29076 33.8158 6.44973 33.9331 6.56694C34.0503 6.68415 34.2092 6.75 34.375 6.75H37.5V15.5H28.75Z" fill="#65FF00"/>
<path d="M30 8H36.25V9.25H30V8ZM30 10.5H36.25V11.75H30V10.5ZM30 13H36.25V14.25H30V13ZM30 5.5H32.5V6.75H30V5.5ZM16.875 13H18.125V14.25H16.875V13ZM19.375 13H20.625V14.25H19.375V13ZM21.875 13H23.125V14.25H21.875V13Z" fill="#65FF00"/>
</svg>
