<svg width="40" height="40" viewBox="0 0 40 40" fill="none" xmlns="http://www.w3.org/2000/svg">
<path d="M20.2155 38.2031H19.7851C19.3838 38.2034 18.9857 38.1313 18.6099 37.9905C14.4618 36.4386 11.1287 33.9235 8.70313 30.515C6.79837 27.8384 5.47725 24.6387 4.77655 21.0049C3.62079 15.0112 4.55669 9.81566 4.5971 9.59744C4.80403 8.48008 5.55354 7.55146 6.60206 7.11342L18.7074 2.05609C19.1191 1.88408 19.5541 1.79688 20.0003 1.79688C20.4465 1.79688 20.8815 1.88408 21.2932 2.05607L33.3985 7.1134C34.447 7.55148 35.1965 8.48008 35.4034 9.5974C35.4439 9.8157 36.3796 15.0118 35.224 21.0049C34.5233 24.6387 33.2022 27.8384 31.2974 30.515C28.8718 33.9235 25.5387 36.4386 21.3907 37.9904C21.0149 38.1313 20.6168 38.2034 20.2155 38.2031ZM20.0003 3.04688C19.7218 3.04659 19.4461 3.10187 19.1892 3.20947L7.08391 8.2668C6.42618 8.54158 5.956 9.1241 5.8262 9.82502C5.78754 10.0337 4.89239 15.0038 6.00393 20.7682C6.67051 24.2251 7.92131 27.2605 9.72157 29.7903C11.9999 32.9918 15.1377 35.3568 19.0478 36.8197C19.2836 36.9081 19.5333 36.9533 19.7851 36.9531H20.2155C20.4681 36.9531 20.7161 36.9082 20.9527 36.8197C24.8629 35.3568 28.0007 32.9918 30.279 29.7903C32.0792 27.2605 33.33 24.2251 33.9966 20.7682C35.1081 15.0044 34.213 10.0337 34.1743 9.82496C34.0446 9.1241 33.5744 8.54158 32.9166 8.26678L20.8113 3.20945C20.5545 3.10186 20.2787 3.04659 20.0003 3.04688Z" fill="#65FF00"/>
<path d="M20.216 35.4742H19.7856C19.7108 35.4742 19.6366 35.4608 19.5666 35.4346C15.9379 34.077 13.0311 31.8895 10.927 28.9328C9.25043 26.5768 8.08279 23.7357 7.4566 20.4883C6.90299 17.6173 6.88377 14.9508 6.96512 13.2195C7.05354 11.3382 7.27164 10.1443 7.28088 10.0944C7.29979 9.99228 7.34385 9.89648 7.40908 9.81566C7.47431 9.73484 7.55866 9.67155 7.65449 9.63151L19.7598 4.57419C19.8361 4.5423 19.918 4.52588 20.0007 4.52588C20.0834 4.52588 20.1653 4.5423 20.2417 4.57419L32.347 9.63151C32.4428 9.67155 32.5272 9.73484 32.5924 9.81566C32.6576 9.89648 32.7017 9.99228 32.7206 10.0944C32.7298 10.1443 32.9479 11.3382 33.0364 13.2195C33.1177 14.9508 33.0985 17.6173 32.5449 20.4883C31.9187 23.7357 30.7511 26.5768 29.0745 28.9328C26.9704 31.8895 24.0636 34.077 20.4349 35.4346C20.3649 35.4608 20.2907 35.4743 20.216 35.4742ZM19.8995 34.2242H20.102C26.204 31.9042 29.9769 27.2039 31.3175 20.2516C32.1772 15.7936 31.7116 11.7976 31.5438 10.6507L20.0008 5.82823L8.45754 10.6507C8.3885 11.1202 8.26924 12.066 8.21201 13.316C8.13582 14.9801 8.15709 17.5405 8.6911 20.2882C10.0383 27.2205 13.8088 31.9085 19.8995 34.2242Z" fill="#65FF00"/>
<path d="M23.0125 27.7366H16.9879C15.37 27.7366 14.0537 26.4203 14.0537 24.8022V19.9065C14.0537 18.2885 15.37 16.9722 16.9879 16.9722H23.0125C24.6304 16.9722 25.9467 18.2885 25.9467 19.9065V24.8022C25.9467 26.4203 24.6304 27.7366 23.0125 27.7366ZM16.9879 18.2222C16.0592 18.2222 15.3037 18.9778 15.3037 19.9065V24.8022C15.3037 25.731 16.0592 26.4866 16.9879 26.4866H23.0125C23.9412 26.4866 24.6967 25.731 24.6967 24.8022V19.9065C24.6967 18.9778 23.9411 18.2222 23.0125 18.2222H16.9879ZM20.0002 23.1013C19.0454 23.1013 18.2686 22.3245 18.2686 21.3696C18.2686 20.4147 19.0454 19.6378 20.0002 19.6378C20.955 19.6378 21.7318 20.4147 21.7318 21.3696C21.7318 22.3245 20.955 23.1013 20.0002 23.1013ZM20.0002 20.8878C19.7346 20.8878 19.5186 21.1039 19.5186 21.3696C19.5186 21.6352 19.7346 21.8513 20.0002 21.8513C20.2658 21.8513 20.4818 21.6352 20.4818 21.3696C20.4818 21.1039 20.2658 20.8878 20.0002 20.8878Z" fill="#65FF00"/>
<path d="M23.8926 18.2225C23.5474 18.2225 23.2676 17.9426 23.2676 17.5975V15.6831C23.2676 13.8816 21.802 12.416 20.0005 12.416C18.199 12.416 16.7334 13.8816 16.7334 15.6831V17.5975C16.7334 17.9426 16.4536 18.2225 16.1084 18.2225C15.7632 18.2225 15.4834 17.9426 15.4834 17.5975V15.6831C15.4834 14.4765 15.9533 13.3422 16.8064 12.489C17.6596 11.6359 18.7939 11.166 20.0005 11.166C21.207 11.166 22.3414 11.6359 23.1946 12.489C24.0477 13.3422 24.5176 14.4765 24.5176 15.6831V17.5975C24.5176 17.9426 24.2378 18.2225 23.8926 18.2225ZM20.0005 24.9669C19.6553 24.9669 19.3755 24.6871 19.3755 24.3419V22.4765C19.3755 22.1313 19.6553 21.8515 20.0005 21.8515C20.3457 21.8515 20.6255 22.1313 20.6255 22.4765V24.3419C20.6255 24.6871 20.3457 24.9669 20.0005 24.9669Z" fill="#65FF00"/>
</svg>
